<?xml version="1.0" encoding="utf-8"?>
<!-- Generator: Adobe Illustrator 20.0.0, SVG Export Plug-In . SVG Version: 6.00 Build 0)  -->
<svg version="1.1" id="client_x5F_icon" xmlns="http://www.w3.org/2000/svg" xmlns:xlink="http://www.w3.org/1999/xlink" x="0px"
	 y="0px" viewBox="10 -10 130 130" style="enable-background:new 10 -10 130 130;" xml:space="preserve">
<style type="text/css">
	.st0{display:none;}
	
		.st1{display:inline;fill-rule:evenodd;clip-rule:evenodd;fill:none;stroke:#BE1622;stroke-width:1.1644;stroke-linecap:round;stroke-miterlimit:10;}
	.st2{display:inline;fill-rule:evenodd;clip-rule:evenodd;fill:#BE1622;}
	.st3{display:none;fill:none;stroke:#BE1622;stroke-width:3.2;stroke-linecap:round;stroke-linejoin:round;stroke-miterlimit:10;}
	.st4{display:inline;fill:#BE1622;}
	.st5{display:inline;}
	.st6{fill:#BE1622;}
	.st7{display:inline;fill:#F07880;}
</style>
<g id="_x30_5" class="st0">
	<path class="st1" d="M76.6,52.7"/>
	<path class="st2" d="M67.6,22.9c1.3,0,2.4,0.5,3.3,1.3c0.8,0.8,1.3,2,1.3,3.3c0,1.3-0.5,2.4-1.3,3.3l-3.1,5.6c0,0-2.5-4.1-3.4-5.6
		c-0.8-0.8-1.3-2-1.3-3.2c0-1.3,0.5-2.4,1.3-3.3C65.1,23.4,66.3,22.9,67.6,22.9L67.6,22.9z M69.5,25.6c-0.5-0.5-1.2-0.8-1.9-0.8
		c-0.8,0-1.4,0.3-1.9,0.8c-0.5,0.5-0.8,1.2-0.8,1.9c0,0.8,0.3,1.4,0.8,1.9c0.5,0.5,1.2,0.8,1.9,0.8c0.8,0,1.4-0.3,1.9-0.8
		c0.5-0.5,0.8-1.2,0.8-1.9C70.3,26.8,70,26.1,69.5,25.6z"/>
	<path class="st2" d="M57.1,45.9c1.3,0,2.4,0.5,3.3,1.3c0.8,0.8,1.3,2,1.3,3.3c0,1.3-0.5,2.4-1.3,3.3l-3.1,5.6c0,0-2.5-4.1-3.4-5.6
		c-0.8-0.8-1.3-2-1.3-3.2c0-1.3,0.5-2.4,1.3-3.3C54.7,46.4,55.8,45.9,57.1,45.9L57.1,45.9z M59,48.6c-0.5-0.5-1.2-0.8-1.9-0.8
		c-0.8,0-1.4,0.3-1.9,0.8c-0.5,0.5-0.8,1.2-0.8,1.9c0,0.8,0.3,1.4,0.8,1.9c0.5,0.5,1.2,0.8,1.9,0.8c0.8,0,1.4-0.3,1.9-0.8
		c0.5-0.5,0.8-1.2,0.8-1.9C59.8,49.8,59.5,49.1,59,48.6z"/>
	<path class="st2" d="M67.3,66.6c1.3,0,2.4,0.5,3.3,1.3c0.8,0.8,1.3,2,1.3,3.3c0,1.3-0.5,2.4-1.3,3.3L67.4,80c0,0-2.5-4.1-3.4-5.6
		c-0.8-0.8-1.3-2-1.3-3.2c0-1.3,0.5-2.4,1.3-3.3C64.8,67.1,66,66.6,67.3,66.6L67.3,66.6z M69.2,69.2c-0.5-0.5-1.2-0.8-1.9-0.8
		c-0.8,0-1.4,0.3-1.9,0.8c-0.5,0.5-0.8,1.2-0.8,1.9s0.3,1.4,0.8,1.9c0.5,0.5,1.2,0.8,1.9,0.8c0.8,0,1.4-0.3,1.9-0.8
		c0.5-0.5,0.8-1.2,0.8-1.9S69.7,69.7,69.2,69.2z"/>
	<path class="st2" d="M103.6,22.9c1.3,0,2.4,0.5,3.3,1.3c0.8,0.8,1.3,2,1.3,3.3c0,1.3-0.5,2.4-1.3,3.2c-0.9,1.6-3.4,5.6-3.4,5.6
		l-3.1-5.6c-0.8-0.8-1.3-2-1.3-3.3c0-1.3,0.5-2.4,1.3-3.3C101.2,23.4,102.3,22.9,103.6,22.9L103.6,22.9z M100.9,27.5
		c0,0.8,0.3,1.4,0.8,1.9c0.5,0.5,1.2,0.8,1.9,0.8c0.8,0,1.4-0.3,1.9-0.8c0.5-0.5,0.8-1.2,0.8-1.9c0-0.8-0.3-1.4-0.8-1.9
		c-0.5-0.5-1.2-0.8-1.9-0.8c-0.8,0-1.4,0.3-1.9,0.8C101.2,26.1,100.9,26.8,100.9,27.5z"/>
	<path class="st2" d="M116.1,45.9c1.3,0,2.4,0.5,3.3,1.3c0.8,0.8,1.3,2,1.3,3.3c0,1.3-0.5,2.4-1.3,3.2c-0.9,1.6-3.4,5.6-3.4,5.6
		l-3.1-5.6c-0.8-0.8-1.3-2-1.3-3.3c0-1.3,0.5-2.4,1.3-3.3C113.6,46.4,114.8,45.9,116.1,45.9L116.1,45.9z M113.3,50.5
		c0,0.8,0.3,1.4,0.8,1.9c0.5,0.5,1.2,0.8,1.9,0.8c0.8,0,1.4-0.3,1.9-0.8c0.5-0.5,0.8-1.2,0.8-1.9c0-0.8-0.3-1.4-0.8-1.9
		c-0.5-0.5-1.2-0.8-1.9-0.8c-0.8,0-1.4,0.3-1.9,0.8C113.6,49.1,113.3,49.8,113.3,50.5z"/>
	<path class="st2" d="M103.9,66.6c1.3,0,2.4,0.5,3.3,1.3c0.8,0.8,1.3,2,1.3,3.3c0,1.3-0.5,2.4-1.3,3.2c-0.9,1.6-3.4,5.6-3.4,5.6
		l-3.1-5.6c-0.8-0.8-1.3-2-1.3-3.3c0-1.3,0.5-2.4,1.3-3.3C101.5,67.1,102.6,66.6,103.9,66.6L103.9,66.6z M101.2,71.2
		c0,0.8,0.3,1.4,0.8,1.9c0.5,0.5,1.2,0.8,1.9,0.8c0.8,0,1.4-0.3,1.9-0.8c0.5-0.5,0.8-1.2,0.8-1.9s-0.3-1.4-0.8-1.9
		c-0.5-0.5-1.2-0.8-1.9-0.8c-0.8,0-1.4,0.3-1.9,0.8C101.5,69.7,101.2,70.4,101.2,71.2z"/>
	<path class="st2" d="M84.1,73.3v16.4H39.6V16.8h44.5v12.9h3.6v-17c0-5.5-4.5-10.1-9.9-10.1H46.6c-5.5,0-9.9,4.5-9.9,10.1v84.7
		c0,5.5,4.5,10.1,9.9,10.1h31.1c5.5,0,9.9-4.5,9.9-10.1V73.3H84.1z M50.6,8.2H74v3.4H50.6V8.2z M67.4,102.9h-8.9v-9h8.9V102.9z"/>
	<path class="st2" d="M86.1,34.6c3,0,5.7,1.2,7.7,3.2c2,2,3.2,4.7,3.2,7.7c0,3-1.2,5.7-3.1,7.6c-2.1,3.7-8.1,13.3-8.1,13.3
		l-7.4-13.2c-2-2-3.2-4.7-3.2-7.7c0-3,1.2-5.7,3.2-7.7C80.3,35.8,83.1,34.6,86.1,34.6L86.1,34.6z M79.6,45.5c0,1.8,0.7,3.4,1.9,4.6
		c1.2,1.2,2.8,1.9,4.6,1.9c1.8,0,3.4-0.7,4.6-1.9c1.2-1.2,1.9-2.8,1.9-4.6c0-1.8-0.7-3.4-1.9-4.6c-1.2-1.2-2.8-1.9-4.6-1.9
		c-1.8,0-3.4,0.7-4.6,1.9C80.3,42.1,79.6,43.7,79.6,45.5z"/>
</g>
<path class="st3" d="M127,115H23c-4.4,0-8-3.6-8-8V3c0-4.4,3.6-8,8-8h104c4.4,0,8,3.6,8,8v104C135,111.5,131.5,115,127,115z"/>
<g id="_x30_6" class="st0">
	<path class="st4" d="M95.1,64.8c-4,0-7.5,1.9-9.7,4.8L66.5,59c0.4-1.3,0.7-2.6,0.7-4.1c0-1.4-0.2-2.8-0.7-4.1l18.9-10.5
		c2.2,2.9,5.8,4.8,9.7,4.8c6.8,0,12.3-5.5,12.3-12.3c0-6.8-5.5-12.3-12.3-12.3c-6.8,0-12.3,5.5-12.3,12.3c0,1.4,0.2,2.8,0.7,4.1
		L64.6,47.5c-2.2-2.9-5.8-4.8-9.7-4.8c-6.8,0-12.3,5.5-12.3,12.3s5.5,12.3,12.3,12.3c4,0,7.5-1.9,9.8-4.8L83.5,73
		c-0.5,1.3-0.7,2.7-0.7,4.1c0,6.8,5.5,12.3,12.3,12.3c6.8,0,12.3-5.5,12.3-12.3C107.4,70.3,101.9,64.8,95.1,64.8L95.1,64.8z
		 M95.1,24.5c4.7,0,8.4,3.8,8.4,8.4c0,4.7-3.8,8.4-8.4,8.4c-4.7,0-8.4-3.8-8.4-8.4C86.7,28.3,90.5,24.5,95.1,24.5L95.1,24.5z
		 M54.9,63.4c-4.7,0-8.4-3.8-8.4-8.4c0-4.7,3.8-8.4,8.4-8.4c4.7,0,8.4,3.8,8.4,8.4C63.3,59.6,59.5,63.4,54.9,63.4L54.9,63.4z
		 M95.1,85.5c-4.7,0-8.4-3.8-8.4-8.4c0-4.7,3.8-8.4,8.4-8.4c4.7,0,8.4,3.8,8.4,8.4C103.5,81.7,99.7,85.5,95.1,85.5L95.1,85.5z
		 M95.1,85.5"/>
</g>
<g id="_x30_5_1_" class="st0">
	<path class="st4" d="M75,17.4c-16.6,0-30.1,13.5-30.1,30.1c0,1.9,0.2,3.8,0.5,5.7c0,0.1,0.1,0.4,0.2,1c0.5,2,1.1,4,2,5.9
		c3.2,7.6,10.4,19.4,26,31.9c0.4,0.3,0.9,0.5,1.3,0.5c0.5,0,0.9-0.2,1.3-0.5c15.6-12.6,22.8-24.3,26-31.9c0.9-1.9,1.6-3.9,2-5.9
		c0.1-0.6,0.2-0.9,0.2-1c0.3-1.9,0.5-3.8,0.5-5.7C105.1,31,91.6,17.4,75,17.4L75,17.4z M100.4,52.5
		C100.4,52.5,100.4,52.5,100.4,52.5c0,0.2-0.1,0.4-0.2,0.8v0c-0.4,1.8-1,3.5-1.7,5.1c0,0,0,0,0,0.1c-2.9,7-9.4,17.6-23.4,29.2
		c-14-11.6-20.5-22.2-23.4-29.2c0,0,0,0,0-0.1c-0.8-1.6-1.3-3.4-1.7-5.1v0c-0.1-0.4-0.1-0.6-0.1-0.7c0,0,0-0.1,0-0.1
		c-0.3-1.6-0.5-3.3-0.5-4.9c0-14.3,11.6-25.9,25.9-25.9c14.3,0,25.9,11.6,25.9,25.9C100.8,49.2,100.7,50.9,100.4,52.5L100.4,52.5z
		 M100.4,52.5"/>
	<path class="st4" d="M75,28.8c-10.5,0-19.1,8.6-19.1,19.1C55.9,58.4,64.5,67,75,67c10.5,0,19.1-8.6,19.1-19.1
		C94.1,37.3,85.5,28.8,75,28.8L75,28.8z M75,62.7c-8.2,0-14.9-6.7-14.9-14.9C60.1,39.7,66.8,33,75,33c8.2,0,14.9,6.7,14.9,14.9
		C89.8,56.1,83.2,62.7,75,62.7L75,62.7z M75,62.7"/>
</g>
<g class="st0">
	<g class="st5">
		<g>
			<g>
				<path class="st6" d="M61.1,27.2c-0.1-0.2-0.2-0.3-0.4-0.3l-5.2-0.7l-2.3-4.7c-0.1-0.2-0.2-0.3-0.4-0.3c-0.2,0-0.3,0.1-0.4,0.3
					l-2.3,4.7L44.9,27c-0.2,0-0.3,0.1-0.4,0.3c-0.1,0.2,0,0.4,0.1,0.5l3.8,3.6l-0.9,5.2c0,0.2,0,0.3,0.2,0.5
					c0.1,0.1,0.2,0.1,0.3,0.1c0.1,0,0.1,0,0.2-0.1l4.6-2.5l4.6,2.4c0.1,0,0.1,0.1,0.2,0.1c0.3,0,0.5-0.2,0.5-0.5c0,0,0-0.1,0-0.1
					l-0.9-5.1l3.7-3.7C61.1,27.6,61.2,27.4,61.1,27.2L61.1,27.2z M56.4,30.9"/>
			</g>
		</g>
		<g>
			<g>
				<path class="st6" d="M61.1,78.9c-0.1-0.2-0.2-0.3-0.4-0.3l-5.2-0.7l-2.3-4.7c-0.1-0.2-0.2-0.3-0.4-0.3c-0.2,0-0.3,0.1-0.4,0.3
					l-2.3,4.7l-5.2,0.8c-0.2,0-0.3,0.1-0.4,0.3c-0.1,0.2,0,0.4,0.1,0.5l3.8,3.6l-0.9,5.2c0,0.2,0,0.3,0.2,0.5
					c0.1,0.1,0.2,0.1,0.3,0.1c0.1,0,0.1,0,0.2-0.1l4.6-2.5l4.6,2.4c0.1,0,0.1,0.1,0.2,0.1c0.3,0,0.5-0.2,0.5-0.5c0,0,0-0.1,0-0.1
					L57.2,83l3.7-3.7C61.1,79.3,61.2,79.1,61.1,78.9L61.1,78.9z M56.4,82.6"/>
			</g>
		</g>
	</g>
	<g class="st5">
		<g>
			<g>
				<path class="st6" d="M105.5,27.2c-0.1-0.2-0.2-0.3-0.4-0.3l-5.2-0.7l-2.3-4.7c-0.1-0.2-0.2-0.3-0.4-0.3c-0.2,0-0.3,0.1-0.4,0.3
					l-2.3,4.7L89.3,27c-0.2,0-0.3,0.1-0.4,0.3c-0.1,0.2,0,0.4,0.1,0.5l3.8,3.6l-0.9,5.2c0,0.2,0,0.3,0.2,0.5
					c0.1,0.1,0.2,0.1,0.3,0.1c0.1,0,0.1,0,0.2-0.1l4.6-2.5l4.6,2.4c0.1,0,0.1,0.1,0.2,0.1c0.3,0,0.5-0.2,0.5-0.5c0,0,0-0.1,0-0.1
					l-0.9-5.1l3.7-3.7C105.5,27.6,105.5,27.4,105.5,27.2L105.5,27.2z M100.8,30.9"/>
			</g>
		</g>
		<g>
			<g>
				<path class="st6" d="M105.5,78.9c-0.1-0.2-0.2-0.3-0.4-0.3l-5.2-0.7l-2.3-4.7c-0.1-0.2-0.2-0.3-0.4-0.3c-0.2,0-0.3,0.1-0.4,0.3
					l-2.3,4.7l-5.2,0.8c-0.2,0-0.3,0.1-0.4,0.3c-0.1,0.2,0,0.4,0.1,0.5l3.8,3.6l-0.9,5.2c0,0.2,0,0.3,0.2,0.5
					c0.1,0.1,0.2,0.1,0.3,0.1c0.1,0,0.1,0,0.2-0.1l4.6-2.5l4.6,2.4c0.1,0,0.1,0.1,0.2,0.1c0.3,0,0.5-0.2,0.5-0.5c0,0,0-0.1,0-0.1
					l-0.9-5.1l3.7-3.7C105.5,79.3,105.5,79.1,105.5,78.9L105.5,78.9z M100.8,82.6"/>
			</g>
		</g>
	</g>
	<g class="st5">
		<g>
			<path class="st6" d="M83.3,53.6c-0.1-0.2-0.2-0.3-0.4-0.3l-5.2-0.7l-2.3-4.7c-0.1-0.2-0.2-0.3-0.4-0.3c-0.2,0-0.3,0.1-0.4,0.3
				l-2.3,4.7l-5.2,0.8c-0.2,0-0.3,0.1-0.4,0.3c-0.1,0.2,0,0.4,0.1,0.5l3.8,3.6L69.7,63c0,0.2,0,0.3,0.2,0.5c0.1,0.1,0.2,0.1,0.3,0.1
				c0.1,0,0.1,0,0.2-0.1L75,61l4.6,2.4c0.1,0,0.1,0.1,0.2,0.1c0.3,0,0.5-0.2,0.5-0.5c0,0,0-0.1,0-0.1l-0.9-5.1l3.7-3.7
				C83.3,54,83.3,53.8,83.3,53.6L83.3,53.6z M78.6,57.3"/>
		</g>
	</g>
</g>
<g id="_x30_3">
	<g>
		<path class="st6" d="M105.1,66.8c1.3-1.7,2-3.6,1.9-5.5c-0.1-2.1-1-3.7-1.8-4.7c0.9-2.2,1.2-5.7-1.7-8.5c-2.2-2-5.9-2.9-11.1-2.6
			c-3.6,0.2-6.7,0.8-6.8,0.9h0c-0.7,0.1-1.4,0.3-2.2,0.4c-0.1-0.9,0.1-3.1,1.7-8c1.9-5.9,1.8-10.4-0.4-13.4c-2.3-3.2-5.9-3.4-7-3.4
			c-1,0-2,0.4-2.7,1.2c-1.5,1.8-1.3,5.1-1.2,6.6c-1.8,4.9-6.9,16.8-11.2,20.1c-0.1,0.1-0.2,0.1-0.2,0.2c-1.3,1.3-2.1,2.8-2.7,4
			c-0.8-0.4-1.7-0.7-2.7-0.7h-8.4c-3.2,0-5.7,2.6-5.7,5.7v22.4c0,3.2,2.6,5.7,5.7,5.7h8.4c1.2,0,2.4-0.4,3.3-1l3.2,0.4
			c0.5,0.1,9.3,1.2,18.4,1c1.6,0.1,3.2,0.2,4.6,0.2c2.5,0,4.6-0.2,6.4-0.6c4.2-0.9,7.1-2.7,8.6-5.3c1.1-2,1.1-4,0.9-5.3
			c2.7-2.5,3.2-5.2,3.1-7.1C105.6,68.5,105.4,67.5,105.1,66.8L105.1,66.8z M48.7,83.7c-1.1,0-2-0.9-2-2V59.3c0-1.1,0.9-2,2-2h8.4
			c1.1,0,2,0.9,2,2v22.4c0,1.1-0.9,2-2,2L48.7,83.7L48.7,83.7z M101.6,65.2c-0.6,0.6-0.7,1.5-0.2,2.2c0,0,0.6,1,0.6,2.3
			c0.1,1.8-0.8,3.4-2.6,4.8c-0.6,0.5-0.9,1.3-0.6,2.1c0,0,0.6,1.8-0.4,3.6c-0.9,1.7-3,2.8-6.1,3.5c-2.5,0.5-5.9,0.6-10,0.3H82
			c-8.9,0.2-17.8-1-17.9-1h0l-1.4-0.2c0.1-0.4,0.1-0.8,0.1-1.2V59.3c0-0.6-0.1-1.2-0.3-1.7c0.2-0.9,0.9-3,2.6-4.7
			c6.2-4.9,12.2-21.4,12.5-22.2c0.1-0.3,0.1-0.6,0.1-0.9c-0.2-1.5-0.2-3.4,0.2-4c0.7,0,2.7,0.2,3.9,1.9c1.4,1.9,1.3,5.4-0.2,10
			c-2.3,7-2.5,10.7-0.7,12.3c0.9,0.8,2.1,0.9,3,0.5c0.8-0.2,1.6-0.4,2.4-0.5c0.1,0,0.1,0,0.2,0c4.2-0.9,11.8-1.5,14.4,0.9
			c2.2,2,0.6,4.7,0.5,5c-0.5,0.8-0.4,1.8,0.3,2.4c0,0,1.5,1.4,1.5,3.2C103.3,62.7,102.8,64,101.6,65.2L101.6,65.2z M101.6,65.2"/>
	</g>
</g>
<g id="_x30_2" class="st0">
	<path class="st4" d="M61.5,84.8c1.1,0,2-0.9,2-2s-0.9-2-2-2h-5.8c-7.3,0-13.3-6-13.3-13.3V44.8c2.4-1.1,8.9-3.7,18.1-5.3
		c0.8-0.1,1.4-0.8,1.6-1.5l0.8-3.2c0.8-3.2,3.6-5.4,6.9-5.4h10.6c3.3,0,6.1,2.2,6.9,5.4l0.8,3.2c0.2,0.8,0.8,1.4,1.6,1.5
		c9.2,1.6,15.7,4.2,18.1,5.3v22.7c0,7.3-6,13.3-13.3,13.3h-6.9c-1.1,0-2,0.9-2,2s0.9,2,2,2h6.9c9.6,0,17.4-7.8,17.4-17.4V43.5
		c0-0.8-0.4-1.4-1.1-1.8l0,0c-0.3-0.2-7.3-3.8-19.1-6l-0.5-1.9c-1.2-5-5.6-8.6-10.8-8.6H69.7c-5.2,0-9.6,3.5-10.8,8.6l-0.5,1.9
		c-11.7,2.2-18.8,5.9-19.1,6c-0.7,0.3-1.1,1-1.1,1.8v23.9c0,9.6,7.8,17.4,17.4,17.4H61.5z M110.6,41.7"/>
	<path class="st4" d="M44.9,37.5c0.2,0,0.4,0,0.6-0.1c2.1-0.7,4.4-1.3,6.7-1.9c1.1-0.3,1.8-1.4,1.5-2.4c-0.3-1.1-1.4-1.8-2.4-1.5
		c-2.4,0.6-4.8,1.2-7,2c-1.1,0.3-1.6,1.5-1.3,2.6C43.3,37,44.1,37.5,44.9,37.5L44.9,37.5z M44.9,37.5"/>
	<path class="st4" d="M75,41.3c-10.8,0-19.5,8.7-19.5,19.5c0,10.8,8.7,19.5,19.5,19.5c10.8,0,19.5-8.7,19.5-19.5
		C94.5,50.1,85.8,41.3,75,41.3L75,41.3z M75,76.6c-8.7,0-15.8-7.1-15.8-15.8S66.3,45,75,45s15.8,7.1,15.8,15.8S83.7,76.6,75,76.6
		L75,76.6z M75,76.9"/>
</g>
<g id="_x30_1" class="st0">
	<g class="st5">
		<g>
			<path class="st6" d="M104.1,55.5c-0.1-0.5-0.4-1-0.9-1.3c-10.8-6.4-17.1-7.8-21.8-8.7c-0.6-0.1-1.2-0.2-1.7-0.4l-2-16.5
				c-0.1-3.6-3.1-6.6-6.7-6.6c-3.6,0-6.5,2.8-6.7,6.4c0,0.1,0,0.1,0,0.2v9.7L64.1,62l-2.6-2c-0.5-0.4-4-3.2-8.3-3.2
				c-2.9,0-5.5,1.2-7.6,3.6c-0.6,0.7-0.7,1.7-0.1,2.4c0.2,0.3,4.6,6.4,11.5,12.7c4.1,3.7,8.2,6.7,12.3,8.8c5.1,2.7,10.2,4.1,15,4.2
				h0.2c6.5,0,11.6-2.2,15.1-6.4C107.4,72.6,104.2,56.2,104.1,55.5L104.1,55.5z M96.6,79.7c-2.7,3.3-6.8,5-12.2,5h-0.2
				c-9.5-0.1-18.6-6.5-24.6-12c-4.8-4.3-8.4-8.7-10-10.8c1.1-0.9,2.3-1.3,3.7-1.3c3.1,0,5.8,2.3,5.8,2.3c0,0,0.1,0.1,0.1,0.1
				l5.7,4.4c0.6,0.4,1.4,0.5,2,0.2c0.7-0.3,1.1-1,1.1-1.7l0.2-27.5v-9.7c0-1.6,1.3-2.8,2.9-2.8c1.6,0,2.9,1.3,2.9,2.9
				c0,0.1,0,0.2,0,0.2L76,46.9c0.1,0.8,0.7,1.4,1.4,1.6c1,0.3,2.1,0.5,3.2,0.7c4.5,0.9,10.1,2.1,19.8,7.8
				C101,60.4,102.4,72.7,96.6,79.7L96.6,79.7z M96.6,79.7"/>
		</g>
	</g>
	<path class="st7" d="M81.7,39.9l8-13.2c0.8-1.3,2.6-1.7,3.9-0.9c1.4,0.8,1.8,2.6,1,3.9c0,0.1-0.1,0.1-0.1,0.2l-7,15.4
		c0,0,2.7,0.5,3.6,1.3c0.5-1.1,6.9-15.1,6.9-15.1c1.8-3.1,0.8-7.2-2.3-9.1c-3.1-1.9-7-1-9,1.9c0,0.1-0.1,0.1-0.1,0.2l-5.5,9.2
		L81.7,39.9z"/>
	<path class="st7" d="M78.5,27c1.6-1.5,3.5-1.3,5.3-0.3l1.4-3c-3.2-1.1-5.4-1.1-7.5,0.5L78.5,27z"/>
</g>
</svg>
