<?xml version="1.0" encoding="utf-8"?>
<!-- Generator: Adobe Illustrator 20.0.0, SVG Export Plug-In . SVG Version: 6.00 Build 0)  -->
<svg version="1.1" id="圖層_1" xmlns="http://www.w3.org/2000/svg" xmlns:xlink="http://www.w3.org/1999/xlink" x="0px" y="0px"
	 viewBox="0 0 152 133.6" style="enable-background:new 0 0 152 133.6;" xml:space="preserve">
<style type="text/css">
	.st0{opacity:0.25;}
	.st1{fill:#FFFFFF;}
</style>
<g class="st0">
	<g>
		<path class="st1" d="M112.1,38.9c0-0.4,0.1-0.6,0.4-0.9c0.3-0.4,0.8-0.9,0.8-2s-0.4-1.6-0.8-2c-0.3-0.3-0.4-0.5-0.4-0.9
			s0.1-0.6,0.4-0.9c0.3-0.4,0.8-0.9,0.8-2s-0.4-1.6-0.8-2c-0.3-0.3-0.4-0.5-0.4-0.9s0.1-0.6,0.4-0.9c0.3-0.4,0.8-0.9,0.8-2
			c0-1-0.4-1.5-0.8-2l0,0c-0.1-0.1-0.3-0.1-0.4-0.1l-0.4,0.3l0,0l-0.4,0.3c-0.1,0.1-0.1,0.3-0.1,0.4c0.3,0.3,0.4,0.5,0.4,0.9
			s-0.1,0.6-0.4,0.9c-0.3,0.4-0.8,0.9-0.8,2c0,1,0.4,1.6,0.8,2c0.3,0.3,0.4,0.5,0.4,0.9s-0.1,0.6-0.4,0.9c-0.3,0.4-0.8,0.9-0.8,2
			c0,1,0.4,1.6,0.8,2c0.3,0.3,0.4,0.5,0.4,0.9s-0.1,0.6-0.4,0.9c-0.3,0.4-0.8,0.9-0.8,2s0.4,1.6,0.8,2c0.1,0.1,0.1,0.1,0.2,0.1
			s0.1,0,0.2-0.1l0.9-0.7c0.1-0.1,0.1-0.1,0.1-0.2s0-0.2-0.1-0.2C112.2,39.5,112.1,39.3,112.1,38.9L112.1,38.9z M111.8,39.9
			l-0.4,0.3c-0.2-0.3-0.4-0.7-0.4-1.4c0-0.8,0.3-1.2,0.6-1.6c0.3-0.3,0.5-0.6,0.5-1.3c0-0.6-0.2-0.9-0.5-1.3
			c-0.3-0.4-0.6-0.8-0.6-1.6s0.3-1.2,0.6-1.6c0.3-0.3,0.5-0.6,0.5-1.3c0-0.6-0.2-0.9-0.5-1.3S111,28,111,27.2s0.3-1.2,0.6-1.6
			c0.3-0.3,0.5-0.6,0.5-1.3c0-0.5-0.1-0.8-0.3-1l0.4-0.3c0.2,0.3,0.4,0.7,0.4,1.4c0,0.8-0.3,1.2-0.6,1.6c-0.3,0.3-0.5,0.6-0.5,1.3
			s0.2,0.9,0.5,1.3s0.6,0.8,0.6,1.6s-0.3,1.2-0.6,1.6c-0.3,0.3-0.5,0.6-0.5,1.3s0.2,0.9,0.5,1.3c0.3,0.4,0.6,0.8,0.6,1.6
			s-0.3,1.2-0.6,1.6c-0.3,0.3-0.5,0.6-0.5,1.3C111.5,39.3,111.6,39.6,111.8,39.9L111.8,39.9z"/>
		<path class="st1" d="M108.8,35.2c-0.5,0-0.9,0.4-0.9,0.9s0.4,0.9,0.9,0.9s0.9-0.4,0.9-0.9C109.6,35.6,109.2,35.2,108.8,35.2z
			 M108.8,36.3c-0.2,0-0.3-0.1-0.3-0.3c0-0.1,0.1-0.3,0.3-0.3s0.3,0.1,0.3,0.3C109,36.2,108.9,36.3,108.8,36.3z"/>
		<path class="st1" d="M115,32.3c-0.5,0-0.9,0.4-0.9,0.9s0.4,0.9,0.9,0.9s0.9-0.4,0.9-0.9S115.5,32.3,115,32.3z M115,33.5
			c-0.2,0-0.3-0.1-0.3-0.3s0.1-0.3,0.3-0.3s0.3,0.1,0.3,0.3S115.1,33.5,115,33.5z"/>
		<path class="st1" d="M108.8,29.5c-0.5,0-0.9,0.4-0.9,0.9s0.4,0.9,0.9,0.9s0.9-0.4,0.9-0.9C109.6,29.9,109.2,29.5,108.8,29.5z
			 M108.8,30.6c-0.2,0-0.3-0.1-0.3-0.3c0-0.2,0.1-0.3,0.3-0.3s0.3,0.1,0.3,0.3C109.1,30.5,108.9,30.6,108.8,30.6z"/>
		<path class="st1" d="M115,38c-0.5,0-0.9,0.4-0.9,0.9s0.4,0.9,0.9,0.9s0.9-0.4,0.9-0.9S115.5,38,115,38z M115,39.2
			c-0.2,0-0.3-0.1-0.3-0.3c0-0.1,0.1-0.3,0.3-0.3s0.3,0.1,0.3,0.3C115.3,39,115.1,39.2,115,39.2z"/>
		<path class="st1" d="M115,26.7c-0.5,0-0.9,0.4-0.9,0.9s0.4,0.9,0.9,0.9s0.9-0.4,0.9-0.9S115.5,26.7,115,26.7z M115,27.9
			c-0.2,0-0.3-0.1-0.3-0.3c0-0.2,0.1-0.3,0.3-0.3s0.3,0.1,0.3,0.3S115.1,27.9,115,27.9z"/>
	</g>
	<g>
		<path class="st1" d="M120.8,38.9c0-0.4,0.1-0.6,0.4-0.9c0.3-0.4,0.8-0.9,0.8-2s-0.4-1.6-0.8-2c-0.3-0.3-0.4-0.5-0.4-0.9
			s0.1-0.6,0.4-0.9c0.3-0.4,0.8-0.9,0.8-2s-0.4-1.6-0.8-2c-0.3-0.3-0.4-0.5-0.4-0.9s0.1-0.6,0.4-0.9c0.3-0.4,0.8-0.9,0.8-2
			c0-1-0.4-1.5-0.8-2l0,0c-0.1-0.1-0.3-0.1-0.4-0.1l-0.4,0.3l0,0l-0.4,0.3c-0.1,0.1-0.1,0.3-0.1,0.4c0.3,0.3,0.4,0.5,0.4,0.9
			s-0.1,0.6-0.4,0.9c-0.3,0.4-0.8,0.9-0.8,2c0,1,0.4,1.6,0.8,2c0.3,0.3,0.4,0.5,0.4,0.9s-0.1,0.6-0.4,0.9c-0.3,0.4-0.8,0.9-0.8,2
			c0,1,0.4,1.6,0.8,2c0.3,0.3,0.4,0.5,0.4,0.9s-0.1,0.6-0.4,0.9c-0.3,0.4-0.8,0.9-0.8,2s0.4,1.6,0.8,2c0.1,0.1,0.1,0.1,0.2,0.1
			s0.1,0,0.2-0.1l0.9-0.7c0.1-0.1,0.1-0.1,0.1-0.2s0-0.2-0.1-0.2C120.9,39.5,120.8,39.3,120.8,38.9L120.8,38.9z M120.5,39.9
			l-0.4,0.3c-0.2-0.3-0.4-0.7-0.4-1.4c0-0.8,0.3-1.2,0.6-1.6c0.3-0.3,0.5-0.6,0.5-1.3c0-0.6-0.2-0.9-0.5-1.3
			c-0.3-0.4-0.6-0.8-0.6-1.6s0.3-1.2,0.6-1.6c0.3-0.3,0.5-0.6,0.5-1.3c0-0.6-0.2-0.9-0.5-1.3s-0.6-0.8-0.6-1.6
			c0-0.8,0.3-1.2,0.6-1.6c0.3-0.3,0.5-0.6,0.5-1.3c0-0.5-0.1-0.8-0.3-1l0.4-0.3c0.2,0.3,0.4,0.7,0.4,1.4c0,0.8-0.3,1.2-0.6,1.6
			c-0.3,0.3-0.5,0.6-0.5,1.3s0.2,0.9,0.5,1.3s0.6,0.8,0.6,1.6s-0.3,1.2-0.6,1.6c-0.3,0.3-0.5,0.6-0.5,1.3s0.2,0.9,0.5,1.3
			c0.3,0.4,0.6,0.8,0.6,1.6s-0.3,1.2-0.6,1.6c-0.3,0.3-0.5,0.6-0.5,1.3C120.2,39.3,120.3,39.6,120.5,39.9L120.5,39.9z"/>
		<path class="st1" d="M117.4,35.2c-0.5,0-0.9,0.4-0.9,0.9s0.4,0.9,0.9,0.9s0.9-0.4,0.9-0.9C118.3,35.6,117.9,35.2,117.4,35.2z
			 M117.4,36.3c-0.2,0-0.3-0.1-0.3-0.3c0-0.1,0.1-0.3,0.3-0.3s0.3,0.1,0.3,0.3C117.7,36.2,117.6,36.3,117.4,36.3z"/>
		<path class="st1" d="M123.7,32.3c-0.5,0-0.9,0.4-0.9,0.9s0.4,0.9,0.9,0.9s0.9-0.4,0.9-0.9S124.2,32.3,123.7,32.3z M123.7,33.5
			c-0.2,0-0.3-0.1-0.3-0.3s0.1-0.3,0.3-0.3c0.1,0,0.3,0.1,0.3,0.3S123.8,33.5,123.7,33.5z"/>
		<path class="st1" d="M117.4,29.5c-0.5,0-0.9,0.4-0.9,0.9s0.4,0.9,0.9,0.9s0.9-0.4,0.9-0.9S117.9,29.5,117.4,29.5z M117.4,30.6
			c-0.2,0-0.3-0.1-0.3-0.3c0-0.2,0.1-0.3,0.3-0.3s0.3,0.1,0.3,0.3C117.8,30.5,117.6,30.6,117.4,30.6z"/>
		<path class="st1" d="M123.7,38c-0.5,0-0.9,0.4-0.9,0.9s0.4,0.9,0.9,0.9s0.9-0.4,0.9-0.9S124.2,38,123.7,38z M123.7,39.2
			c-0.2,0-0.3-0.1-0.3-0.3c0-0.1,0.1-0.3,0.3-0.3c0.1,0,0.3,0.1,0.3,0.3C124,39,123.8,39.2,123.7,39.2z"/>
		<path class="st1" d="M123.7,26.7c-0.5,0-0.9,0.4-0.9,0.9s0.4,0.9,0.9,0.9s0.9-0.4,0.9-0.9S124.2,26.7,123.7,26.7z M123.7,27.9
			c-0.2,0-0.3-0.1-0.3-0.3c0-0.2,0.1-0.3,0.3-0.3c0.1,0,0.3,0.1,0.3,0.3S123.8,27.9,123.7,27.9z"/>
	</g>
	<g>
		<path class="st1" d="M129.5,38.9c0-0.4,0.1-0.6,0.4-0.9c0.3-0.4,0.8-0.9,0.8-2s-0.4-1.6-0.8-2c-0.3-0.3-0.4-0.5-0.4-0.9
			s0.1-0.6,0.4-0.9c0.3-0.4,0.8-0.9,0.8-2s-0.4-1.6-0.8-2c-0.3-0.3-0.4-0.5-0.4-0.9s0.1-0.6,0.4-0.9c0.3-0.4,0.8-0.9,0.8-2
			c0-1-0.4-1.5-0.8-2l0,0c-0.1-0.1-0.3-0.1-0.4-0.1L129,23l0,0l-0.4,0.3c-0.1,0.1-0.1,0.3-0.1,0.4c0.3,0.3,0.4,0.5,0.4,0.9
			s-0.1,0.6-0.4,0.9c-0.3,0.4-0.8,0.9-0.8,2c0,1,0.4,1.6,0.8,2c0.3,0.3,0.4,0.5,0.4,0.9s-0.1,0.6-0.4,0.9c-0.3,0.4-0.8,0.9-0.8,2
			c0,1,0.4,1.6,0.8,2c0.3,0.3,0.4,0.5,0.4,0.9s-0.1,0.6-0.4,0.9c-0.3,0.4-0.8,0.9-0.8,2s0.4,1.6,0.8,2c0.1,0.1,0.1,0.1,0.2,0.1
			c0.1,0,0.1,0,0.2-0.1l0.9-0.7c0.1-0.1,0.1-0.1,0.1-0.2s0-0.2-0.1-0.2C129.6,39.5,129.5,39.3,129.5,38.9L129.5,38.9z M129.2,39.9
			l-0.4,0.3c-0.2-0.3-0.4-0.7-0.4-1.4c0-0.8,0.3-1.2,0.6-1.6c0.3-0.3,0.5-0.6,0.5-1.3c0-0.6-0.2-0.9-0.5-1.3
			c-0.3-0.4-0.6-0.8-0.6-1.6s0.3-1.2,0.6-1.6c0.3-0.3,0.5-0.6,0.5-1.3c0-0.6-0.2-0.9-0.5-1.3s-0.6-0.8-0.6-1.6
			c0-0.8,0.3-1.2,0.6-1.6c0.3-0.3,0.5-0.6,0.5-1.3c0-0.5-0.1-0.8-0.3-1l0.4-0.3c0.2,0.3,0.4,0.7,0.4,1.4c0,0.8-0.3,1.2-0.6,1.6
			c-0.3,0.3-0.5,0.6-0.5,1.3s0.2,0.9,0.5,1.3s0.6,0.8,0.6,1.6s-0.3,1.2-0.6,1.6c-0.3,0.3-0.5,0.6-0.5,1.3s0.2,0.9,0.5,1.3
			c0.3,0.4,0.6,0.8,0.6,1.6s-0.3,1.2-0.6,1.6c-0.3,0.3-0.5,0.6-0.5,1.3C128.9,39.3,129,39.6,129.2,39.9L129.2,39.9z"/>
		<path class="st1" d="M126.1,35.2c-0.5,0-0.9,0.4-0.9,0.9s0.4,0.9,0.9,0.9s0.9-0.4,0.9-0.9C127,35.6,126.6,35.2,126.1,35.2z
			 M126.1,36.3c-0.2,0-0.3-0.1-0.3-0.3c0-0.1,0.1-0.3,0.3-0.3s0.3,0.1,0.3,0.3S126.3,36.3,126.1,36.3z"/>
		<path class="st1" d="M132.4,32.3c-0.5,0-0.9,0.4-0.9,0.9s0.4,0.9,0.9,0.9s0.9-0.4,0.9-0.9C133.3,32.7,132.9,32.3,132.4,32.3z
			 M132.4,33.5c-0.2,0-0.3-0.1-0.3-0.3s0.1-0.3,0.3-0.3s0.3,0.1,0.3,0.3S132.5,33.5,132.4,33.5z"/>
		<path class="st1" d="M126.1,29.5c-0.5,0-0.9,0.4-0.9,0.9s0.4,0.9,0.9,0.9s0.9-0.4,0.9-0.9S126.6,29.5,126.1,29.5z M126.1,30.6
			c-0.2,0-0.3-0.1-0.3-0.3c0-0.2,0.1-0.3,0.3-0.3s0.3,0.1,0.3,0.3S126.3,30.6,126.1,30.6z"/>
		<path class="st1" d="M132.4,38c-0.5,0-0.9,0.4-0.9,0.9s0.4,0.9,0.9,0.9s0.9-0.4,0.9-0.9C133.3,38.4,132.9,38,132.4,38z
			 M132.4,39.2c-0.2,0-0.3-0.1-0.3-0.3c0-0.1,0.1-0.3,0.3-0.3s0.3,0.1,0.3,0.3C132.7,39,132.5,39.2,132.4,39.2z"/>
		<path class="st1" d="M132.4,26.7c-0.5,0-0.9,0.4-0.9,0.9s0.4,0.9,0.9,0.9s0.9-0.4,0.9-0.9C133.3,27.1,132.9,26.7,132.4,26.7z
			 M132.4,27.9c-0.2,0-0.3-0.1-0.3-0.3c0-0.2,0.1-0.3,0.3-0.3s0.3,0.1,0.3,0.3S132.5,27.9,132.4,27.9z"/>
	</g>
</g>
<g class="st0">
	<g>
		<path class="st1" d="M54.6,3.5c0,0.4-0.1,0.6-0.4,0.9c-0.3,0.4-0.8,0.9-0.8,2s0.4,1.6,0.8,2c0.3,0.3,0.4,0.5,0.4,0.9
			s-0.1,0.6-0.4,0.9c-0.3,0.4-0.8,0.9-0.8,2s0.4,1.6,0.8,2c0.3,0.3,0.4,0.5,0.4,0.9s-0.1,0.6-0.4,0.9c-0.3,0.4-0.8,0.9-0.8,2
			c0,1,0.4,1.5,0.8,2l0,0c0.1,0.1,0.3,0.1,0.4,0.1l0.4-0.3l0,0l0.4-0.3c0.1-0.1,0.1-0.3,0.1-0.4c-0.3-0.3-0.4-0.5-0.4-0.9
			s0.1-0.6,0.4-0.9c0.3-0.4,0.8-0.9,0.8-2s-0.4-1.6-0.8-2c-0.3-0.3-0.4-0.5-0.4-0.9s0.1-0.6,0.4-0.9c0.3-0.4,0.8-0.9,0.8-2
			s-0.4-1.6-0.8-2c-0.3-0.3-0.4-0.5-0.4-0.9s0.1-0.6,0.4-0.9c0.3-0.4,0.8-0.9,0.8-2s-0.4-1.6-0.8-2c-0.1-0.1-0.1-0.1-0.2-0.1
			c-0.1,0-0.1,0-0.2,0.1l-0.9,0.7c-0.1,0.1-0.1,0.1-0.1,0.2c0,0.1,0,0.2,0.1,0.2C54.5,2.9,54.6,3.1,54.6,3.5L54.6,3.5z M54.9,2.5
			l0.4-0.3c0.2,0.3,0.4,0.7,0.4,1.4c0,0.8-0.3,1.2-0.6,1.6c-0.3,0.3-0.5,0.6-0.5,1.3s0.2,0.9,0.5,1.3c0.3,0.4,0.6,0.8,0.6,1.6
			s-0.3,1.2-0.6,1.6c-0.3,0.3-0.5,0.6-0.5,1.3c0,0.6,0.2,0.9,0.5,1.3c0.3,0.4,0.6,0.8,0.6,1.6s-0.3,1.2-0.6,1.6
			c-0.3,0.3-0.5,0.6-0.5,1.3c0,0.5,0.1,0.8,0.3,1l-0.4,0.3c-0.2-0.3-0.4-0.7-0.4-1.4c0-0.8,0.3-1.2,0.6-1.6c0.3-0.3,0.5-0.6,0.5-1.3
			c0-0.6-0.2-0.9-0.5-1.3c-0.3-0.4-0.6-0.8-0.6-1.6s0.3-1.2,0.6-1.6c0.3-0.3,0.5-0.6,0.5-1.3c0-0.6-0.2-0.9-0.5-1.3
			c-0.3-0.4-0.6-0.8-0.6-1.6s0.3-1.2,0.6-1.6c0.3-0.3,0.5-0.6,0.5-1.3C55.2,3,55.1,2.7,54.9,2.5L54.9,2.5z"/>
		<path class="st1" d="M57.9,7.2c0.5,0,0.9-0.4,0.9-0.9s-0.4-0.9-0.9-0.9S57,5.8,57,6.3S57.5,7.2,57.9,7.2z M57.9,6.1
			c0.2,0,0.3,0.1,0.3,0.3s-0.1,0.3-0.3,0.3s-0.3-0.1-0.3-0.3S57.8,6.1,57.9,6.1z"/>
		<path class="st1" d="M51.7,10c0.5,0,0.9-0.4,0.9-0.9s-0.4-0.9-0.9-0.9s-0.9,0.4-0.9,0.9C50.8,9.7,51.2,10,51.7,10z M51.7,8.9
			C51.8,8.9,52,9,52,9.1s-0.1,0.3-0.3,0.3c-0.1,0-0.3-0.1-0.3-0.3C51.4,9,51.5,8.9,51.7,8.9z"/>
		<path class="st1" d="M57.9,12.9c0.5,0,0.9-0.4,0.9-0.9s-0.4-0.9-0.9-0.9S57,11.5,57,12S57.5,12.9,57.9,12.9z M57.9,11.7
			c0.2,0,0.3,0.1,0.3,0.3s-0.1,0.3-0.3,0.3s-0.3-0.1-0.3-0.3C57.6,11.9,57.8,11.7,57.9,11.7z"/>
		<path class="st1" d="M51.7,4.3c0.5,0,0.9-0.4,0.9-0.9s-0.4-0.9-0.9-0.9s-0.9,0.4-0.9,0.9S51.2,4.3,51.7,4.3z M51.7,3.2
			c0.2,0,0.3,0.1,0.3,0.3s-0.1,0.3-0.3,0.3c-0.1,0-0.3-0.1-0.3-0.3S51.5,3.2,51.7,3.2z"/>
		<path class="st1" d="M51.7,15.6c0.5,0,0.9-0.4,0.9-0.9s-0.4-0.9-0.9-0.9s-0.9,0.4-0.9,0.9C50.8,15.2,51.2,15.6,51.7,15.6z
			 M51.7,14.5c0.2,0,0.3,0.1,0.3,0.3s-0.1,0.3-0.3,0.3c-0.1,0-0.3-0.1-0.3-0.3S51.5,14.5,51.7,14.5z"/>
	</g>
	<g>
		<path class="st1" d="M45.9,3.5c0,0.4-0.1,0.6-0.4,0.9c-0.3,0.4-0.8,0.9-0.8,2s0.4,1.6,0.8,2c0.3,0.3,0.4,0.5,0.4,0.9
			s-0.1,0.6-0.4,0.9c-0.3,0.4-0.8,0.9-0.8,2s0.4,1.6,0.8,2c0.3,0.3,0.4,0.5,0.4,0.9s-0.1,0.6-0.4,0.9c-0.3,0.4-0.8,0.9-0.8,2
			c0,1,0.4,1.5,0.8,2l0,0c0.1,0.1,0.3,0.1,0.4,0.1l0.4-0.3l0,0l0.4-0.3c0.1-0.1,0.1-0.3,0.1-0.4c-0.3-0.3-0.4-0.5-0.4-0.9
			s0.1-0.6,0.4-0.9c0.3-0.4,0.8-0.9,0.8-2s-0.4-1.6-0.8-2c-0.3-0.3-0.4-0.5-0.4-0.9s0.1-0.6,0.4-0.9c0.3-0.4,0.8-0.9,0.8-2
			s-0.4-1.6-0.8-2c-0.3-0.3-0.4-0.5-0.4-0.9s0.1-0.6,0.4-0.9c0.3-0.4,0.8-0.9,0.8-2s-0.4-1.6-0.8-2c-0.1-0.1-0.1-0.1-0.2-0.1
			c-0.1,0-0.1,0-0.2,0.1l-0.9,0.7c-0.1,0.1-0.1,0.1-0.1,0.2c0,0.1,0,0.2,0.1,0.2C45.8,2.9,45.9,3.1,45.9,3.5L45.9,3.5z M46.2,2.5
			l0.4-0.3C46.8,2.5,47,2.9,47,3.5c0,0.8-0.3,1.2-0.6,1.6c-0.3,0.3-0.5,0.6-0.5,1.3s0.2,0.9,0.5,1.3C46.7,8,47,8.4,47,9.2
			s-0.3,1.2-0.6,1.6c-0.3,0.3-0.5,0.6-0.5,1.3c0,0.6,0.2,0.9,0.5,1.3c0.3,0.4,0.6,0.8,0.6,1.6s-0.3,1.2-0.6,1.6
			c-0.3,0.3-0.5,0.6-0.5,1.3c0,0.5,0.1,0.8,0.3,1l-0.4,0.3c-0.2-0.3-0.4-0.7-0.4-1.4c0-0.8,0.3-1.2,0.6-1.6c0.3-0.3,0.5-0.6,0.5-1.3
			c0-0.6-0.2-0.9-0.5-1.3c-0.3-0.4-0.6-0.8-0.6-1.6s0.3-1.2,0.6-1.6c0.3-0.3,0.5-0.6,0.5-1.3c0-0.6-0.2-0.9-0.5-1.3
			c-0.3-0.4-0.6-0.8-0.6-1.6S45.7,5,46,4.6c0.3-0.3,0.5-0.6,0.5-1.3C46.5,3,46.4,2.7,46.2,2.5L46.2,2.5z"/>
		<path class="st1" d="M49.2,7.2c0.5,0,0.9-0.4,0.9-0.9s-0.4-0.9-0.9-0.9s-0.9,0.4-0.9,0.9S48.8,7.2,49.2,7.2z M49.2,6.1
			c0.2,0,0.3,0.1,0.3,0.3s-0.1,0.3-0.3,0.3c-0.1,0-0.3-0.1-0.3-0.3S49.1,6.1,49.2,6.1z"/>
		<path class="st1" d="M43,10c0.5,0,0.9-0.4,0.9-0.9S43.5,8.2,43,8.2s-0.9,0.4-0.9,0.9C42.1,9.7,42.5,10,43,10z M43,8.9
			c0.2,0,0.3,0.1,0.3,0.3c0,0.1-0.1,0.3-0.3,0.3c-0.1,0-0.3-0.1-0.3-0.3S42.8,8.9,43,8.9z"/>
		<path class="st1" d="M49.2,12.9c0.5,0,0.9-0.4,0.9-0.9s-0.4-0.9-0.9-0.9s-0.9,0.4-0.9,0.9S48.8,12.9,49.2,12.9z M49.2,11.7
			c0.2,0,0.3,0.1,0.3,0.3s-0.1,0.3-0.3,0.3c-0.1,0-0.3-0.1-0.3-0.3C48.9,11.9,49.1,11.7,49.2,11.7z"/>
		<path class="st1" d="M43,4.3c0.5,0,0.9-0.4,0.9-0.9S43.5,2.6,43,2.6S42.1,3,42.1,3.5S42.5,4.3,43,4.3z M43,3.2
			c0.2,0,0.3,0.1,0.3,0.3S43.1,3.7,43,3.7s-0.3-0.1-0.3-0.3S42.8,3.2,43,3.2z"/>
		<path class="st1" d="M43,15.6c0.5,0,0.9-0.4,0.9-0.9s-0.4-0.9-0.9-0.9s-0.9,0.4-0.9,0.9C42.1,15.2,42.5,15.6,43,15.6z M43,14.5
			c0.2,0,0.3,0.1,0.3,0.3s-0.1,0.3-0.3,0.3c-0.1,0-0.3-0.1-0.3-0.3S42.8,14.5,43,14.5z"/>
	</g>
	<g>
		<path class="st1" d="M37.2,3.5c0,0.4-0.1,0.6-0.4,0.9c-0.3,0.4-0.8,0.9-0.8,2s0.4,1.6,0.8,2c0.3,0.3,0.4,0.5,0.4,0.9
			s-0.1,0.6-0.4,0.9c-0.3,0.4-0.8,0.9-0.8,2s0.4,1.6,0.8,2c0.3,0.3,0.4,0.5,0.4,0.9s-0.1,0.6-0.4,0.9c-0.3,0.4-0.8,0.9-0.8,2
			c0,1,0.4,1.5,0.8,2l0,0c0.1,0.1,0.3,0.1,0.4,0.1l0.4-0.3l0,0l0.4-0.3c0.1-0.1,0.1-0.3,0.1-0.4c-0.3-0.3-0.4-0.5-0.4-0.9
			s0.1-0.6,0.4-0.9c0.3-0.4,0.8-0.9,0.8-2s-0.4-1.6-0.8-2c-0.3-0.3-0.4-0.5-0.4-0.9s0.1-0.6,0.4-0.9c0.3-0.4,0.8-0.9,0.8-2
			s-0.4-1.6-0.8-2c-0.3-0.3-0.4-0.5-0.4-0.9s0.1-0.6,0.4-0.9c0.3-0.4,0.8-0.9,0.8-2s-0.4-1.6-0.8-2C38,1.6,38,1.6,37.9,1.6
			s-0.1,0-0.2,0.1l-0.9,0.7c-0.1,0.1-0.1,0.1-0.1,0.2c0,0.1,0,0.2,0.1,0.2C37.1,2.9,37.2,3.1,37.2,3.5L37.2,3.5z M37.5,2.5l0.4-0.3
			c0.2,0.3,0.4,0.7,0.4,1.4c0,0.8-0.3,1.2-0.6,1.6c-0.3,0.3-0.5,0.6-0.5,1.3s0.2,0.9,0.5,1.3C38,8,38.3,8.4,38.3,9.2
			s-0.3,1.2-0.6,1.6c-0.3,0.3-0.5,0.6-0.5,1.3c0,0.6,0.2,0.9,0.5,1.3c0.3,0.4,0.6,0.8,0.6,1.6s-0.3,1.2-0.6,1.6
			c-0.3,0.3-0.5,0.6-0.5,1.3c0,0.5,0.1,0.8,0.3,1l-0.4,0.3c-0.2-0.3-0.4-0.7-0.4-1.4c0-0.8,0.3-1.2,0.6-1.6c0.3-0.3,0.5-0.6,0.5-1.3
			c0-0.6-0.2-0.9-0.5-1.3c-0.3-0.4-0.6-0.8-0.6-1.6s0.3-1.2,0.6-1.6c0.3-0.3,0.5-0.6,0.5-1.3c0-0.6-0.2-0.9-0.5-1.3
			C37,7.4,36.7,7,36.7,6.2S37,5,37.3,4.6c0.3-0.3,0.5-0.6,0.5-1.3C37.8,3,37.7,2.7,37.5,2.5L37.5,2.5z"/>
		<path class="st1" d="M40.5,7.2c0.5,0,0.9-0.4,0.9-0.9S41,5.4,40.5,5.4s-0.9,0.4-0.9,0.9C39.7,6.8,40.1,7.2,40.5,7.2z M40.5,6.1
			c0.2,0,0.3,0.1,0.3,0.3s-0.1,0.3-0.3,0.3c-0.1,0-0.3-0.1-0.3-0.3S40.4,6.1,40.5,6.1z"/>
		<path class="st1" d="M34.3,10c0.5,0,0.9-0.4,0.9-0.9s-0.4-0.9-0.9-0.9s-0.9,0.4-0.9,0.9C33.4,9.7,33.8,10,34.3,10z M34.3,8.9
			c0.2,0,0.3,0.1,0.3,0.3c0,0.1-0.1,0.3-0.3,0.3c-0.1,0-0.3-0.1-0.3-0.3S34.2,8.9,34.3,8.9z"/>
		<path class="st1" d="M40.5,12.9c0.5,0,0.9-0.4,0.9-0.9s-0.4-0.9-0.9-0.9s-0.9,0.4-0.9,0.9C39.7,12.5,40.1,12.9,40.5,12.9z
			 M40.5,11.7c0.2,0,0.3,0.1,0.3,0.3s-0.1,0.3-0.3,0.3c-0.1,0-0.3-0.1-0.3-0.3C40.2,11.9,40.4,11.7,40.5,11.7z"/>
		<path class="st1" d="M34.3,4.3c0.5,0,0.9-0.4,0.9-0.9s-0.4-0.9-0.9-0.9s-0.9,0.4-0.9,0.9S33.8,4.3,34.3,4.3z M34.3,3.2
			c0.2,0,0.3,0.1,0.3,0.3s-0.1,0.3-0.3,0.3c-0.1,0-0.3-0.1-0.3-0.3S34.2,3.2,34.3,3.2z"/>
		<path class="st1" d="M34.3,15.6c0.5,0,0.9-0.4,0.9-0.9s-0.4-0.9-0.9-0.9s-0.9,0.4-0.9,0.9C33.4,15.2,33.8,15.6,34.3,15.6z
			 M34.3,14.5c0.2,0,0.3,0.1,0.3,0.3s-0.1,0.3-0.3,0.3c-0.1,0-0.3-0.1-0.3-0.3S34.2,14.5,34.3,14.5z"/>
	</g>
</g>
<g class="st0">
	<path class="st1" d="M12.8,39.7h-2v-7.9v-1.6c0-1.4-1.2-2.6-2.6-2.6H1.8v-3.7c0-0.5-0.4-1-1-1H0.7v-1.2c0-0.2-0.2-0.4-0.4-0.4
		s-0.4,0.2-0.4,0.4v1.2h-0.1c-0.5,0-1,0.4-1,1v3.7H-8c-1.4,0-2.6,1.2-2.6,2.6v9.5h-1.6c-0.2,0-0.4,0.2-0.4,0.4s0.2,0.4,0.4,0.4h0.2
		l0.2,0.8c0.2,0.6,0.8,1.1,1.4,1.1h21.2c0.6,0,1.3-0.5,1.4-1.1l0.2-0.8h0.2c0.2,0,0.4-0.2,0.4-0.4S13,39.7,12.8,39.7L12.8,39.7z
		 M-0.4,23.8c0-0.1,0.1-0.1,0.1-0.1h1.1c0.1,0,0.1,0.1,0.1,0.1v3.7h-1.4L-0.4,23.8L-0.4,23.8z M-8,28.4H8.2c1,0,1.8,0.8,1.8,1.8v1.3
		c-0.7,0.1-1.2,0.5-1.6,0.8C8,32.6,7.7,32.8,7,32.8s-1-0.3-1.5-0.6c-0.5-0.4-1-0.8-2-0.8s-1.5,0.4-2,0.8c-0.4,0.3-0.7,0.6-1.5,0.6
		c-0.7,0-1-0.3-1.5-0.6c-0.5-0.4-1-0.8-2-0.8s-1.5,0.4-2,0.8c-0.2,0.2-0.5,0.4-0.8,0.5c-0.2,0.1-0.3,0.2-0.3,0.4v2.8
		c0,0.2-0.2,0.4-0.4,0.4c-0.2,0-0.4-0.2-0.4-0.4v-2.8c0-0.2-0.1-0.3-0.3-0.4c-0.3-0.1-0.5-0.3-0.8-0.5c-0.4-0.3-0.8-0.7-1.6-0.8
		v-1.3C-9.8,29.2-9,28.4-8,28.4L-8,28.4z M-9.8,32.3c0.4,0.1,0.7,0.3,1,0.6c0.2,0.2,0.4,0.4,0.7,0.5V36c0,0.7,0.6,1.2,1.2,1.2
		s1.2-0.6,1.2-1.2v-2.6c0.3-0.2,0.5-0.4,0.7-0.5c0.4-0.3,0.7-0.6,1.5-0.6c0.7,0,1,0.3,1.5,0.6c0.5,0.4,1,0.8,2,0.8s1.5-0.4,2-0.8
		c0.4-0.3,0.7-0.6,1.5-0.6c0.7,0,1,0.3,1.5,0.6c0.5,0.4,1,0.8,2,0.8s1.5-0.4,2-0.8c0.3-0.3,0.6-0.5,1-0.6v7.4H-9.8V32.3L-9.8,32.3z
		 M11.5,41.1c-0.1,0.3-0.4,0.5-0.7,0.5h-21.2c-0.3,0-0.6-0.2-0.7-0.5l-0.2-0.6h22.8L11.5,41.1z"/>
	<path class="st1" d="M-1.4,21.8c0.1,0,0.2,0,0.3-0.1c0.2-0.2,0.2-0.4,0-0.6c-0.3-0.3-0.5-0.8-0.5-1.2c0-1,0.7-2,1.8-2.5
		C1.3,18,2.1,19,2.1,19.9c0,0.4-0.2,0.9-0.5,1.2c-0.2,0.2-0.1,0.4,0,0.6c0.2,0.2,0.4,0.1,0.6,0c0.4-0.5,0.7-1.1,0.7-1.7
		c0-1.3-1-2.7-2.5-3.3c-0.1,0-0.2,0-0.3,0c-1.4,0.6-2.5,2-2.5,3.3c0,0.6,0.2,1.3,0.7,1.7C-1.6,21.8-1.5,21.8-1.4,21.8z"/>
</g>
<g class="st0">
	<path class="st1" d="M2.6,2.7h2v7.9v1.6c0,1.4,1.2,2.6,2.6,2.6h6.4v3.7c0,0.5,0.4,1,1,1h0.1v1.2c0,0.2,0.2,0.4,0.4,0.4
		s0.4-0.2,0.4-0.4v-1.2h0.1c0.5,0,1-0.4,1-1v-3.7h6.8c1.4,0,2.6-1.2,2.6-2.6V2.7h1.6c0.2,0,0.4-0.2,0.4-0.4s-0.2-0.4-0.4-0.4h-0.2
		l-0.2-0.8C26.9,0.5,26.3,0,25.7,0H4.5C3.9,0,3.2,0.5,3,1.1L2.8,1.9H2.6c-0.2,0-0.4,0.2-0.4,0.4C2.2,2.6,2.3,2.7,2.6,2.7L2.6,2.7z
		 M15.8,18.6c0,0.1-0.1,0.1-0.1,0.1h-1.1c-0.1,0-0.1-0.1-0.1-0.1v-3.7h1.4L15.8,18.6L15.8,18.6z M23.4,14H7.2c-1,0-1.8-0.8-1.8-1.8
		V11c0.7-0.1,1.2-0.5,1.6-0.8s0.7-0.6,1.5-0.6s1,0.3,1.5,0.6c0.5,0.4,1,0.8,2,0.8s1.5-0.4,2-0.8c0.4-0.3,0.7-0.6,1.5-0.6
		c0.7,0,1,0.3,1.5,0.6c0.5,0.4,1,0.8,2,0.8s1.5-0.4,2-0.8c0.2-0.2,0.5-0.4,0.8-0.5c0.2-0.1,0.3-0.2,0.3-0.4V6.5
		c0-0.2,0.2-0.4,0.4-0.4c0.2,0,0.4,0.2,0.4,0.4v2.8c0,0.2,0.1,0.3,0.3,0.4c0.3,0.1,0.5,0.3,0.8,0.5c0.4,0.3,0.8,0.7,1.6,0.8v1.3
		C25.1,13.2,24.3,14,23.4,14L23.4,14z M25.1,10.2c-0.4-0.1-0.7-0.3-1-0.6c-0.2-0.2-0.4-0.4-0.7-0.5V6.5c0-0.7-0.6-1.2-1.2-1.2
		c-0.7,0-1.2,0.6-1.2,1.2v2.6c-0.3,0.2-0.5,0.4-0.7,0.5c-0.4,0.3-0.7,0.6-1.5,0.6c-0.7,0-1-0.3-1.5-0.6c-0.5-0.4-1-0.8-2-0.8
		s-1.5,0.4-2,0.8c-0.4,0.3-0.7,0.6-1.5,0.6c-0.7,0-1-0.3-1.5-0.6c-0.5-0.4-1-0.8-2-0.8s-1.5,0.4-2,0.8c-0.3,0.3-0.6,0.5-1,0.6V2.7
		h19.8L25.1,10.2L25.1,10.2z M3.8,1.3C3.9,1,4.2,0.8,4.5,0.8h21.2c0.3,0,0.6,0.2,0.7,0.5l0.2,0.6H3.7L3.8,1.3z"/>
	<path class="st1" d="M16.7,20.6c-0.1,0-0.2,0-0.3,0.1c-0.2,0.2-0.2,0.4,0,0.6c0.3,0.3,0.5,0.8,0.5,1.2c0,1-0.7,2-1.8,2.5
		c-1.1-0.5-1.8-1.5-1.8-2.5c0-0.4,0.2-0.9,0.5-1.2c0.2-0.2,0.1-0.4,0-0.6c-0.2-0.2-0.4-0.1-0.6,0c-0.4,0.5-0.7,1.1-0.7,1.7
		c0,1.3,1,2.7,2.5,3.3c0.1,0,0.2,0,0.3,0c1.4-0.6,2.5-2,2.5-3.3c0-0.6-0.2-1.3-0.7-1.7C17,20.6,16.8,20.6,16.7,20.6z"/>
</g>
<g class="st0">
	<path class="st1" d="M43.1,39.7h-2v-7.9v-1.6c0-1.4-1.2-2.6-2.6-2.6h-6.4v-3.7c0-0.5-0.4-1-1-1H31v-1.2c0-0.2-0.2-0.4-0.4-0.4
		c-0.2,0-0.4,0.2-0.4,0.4v1.2h-0.1c-0.5,0-1,0.4-1,1v3.7h-6.8c-1.4,0-2.6,1.2-2.6,2.6v9.5h-1.6c-0.2,0-0.4,0.2-0.4,0.4
		s0.2,0.4,0.4,0.4h0.2l0.2,0.8c0.2,0.6,0.8,1.1,1.4,1.1h21.2c0.6,0,1.3-0.5,1.4-1.1l0.2-0.8h0.2c0.2,0,0.4-0.2,0.4-0.4
		S43.3,39.7,43.1,39.7L43.1,39.7z M29.9,23.8c0-0.1,0.1-0.1,0.1-0.1h1.1c0.1,0,0.1,0.1,0.1,0.1v3.7h-1.4L29.9,23.8L29.9,23.8z
		 M22.3,28.4h16.2c1,0,1.8,0.8,1.8,1.8v1.3c-0.7,0.1-1.2,0.5-1.6,0.8c-0.4,0.3-0.7,0.6-1.5,0.6c-0.7,0-1-0.3-1.5-0.6
		c-0.5-0.4-1-0.8-2-0.8s-1.5,0.4-2,0.8c-0.4,0.3-0.7,0.6-1.5,0.6c-0.7,0-1-0.3-1.5-0.6c-0.5-0.4-1-0.8-2-0.8s-1.5,0.4-2,0.8
		c-0.2,0.2-0.5,0.4-0.8,0.5c-0.2,0.1-0.3,0.2-0.3,0.4V36c0,0.2-0.2,0.4-0.4,0.4c-0.2,0-0.4-0.2-0.4-0.4v-2.8c0-0.2-0.1-0.3-0.3-0.4
		c-0.3-0.1-0.5-0.3-0.8-0.5c-0.4-0.3-0.8-0.7-1.6-0.8v-1.3C20.6,29.2,21.4,28.4,22.3,28.4L22.3,28.4z M20.6,32.3
		c0.4,0.1,0.7,0.3,1,0.6c0.2,0.2,0.4,0.4,0.7,0.5V36c0,0.7,0.6,1.2,1.2,1.2c0.7,0,1.2-0.6,1.2-1.2v-2.6c0.3-0.2,0.5-0.4,0.7-0.5
		c0.4-0.3,0.7-0.6,1.5-0.6c0.7,0,1,0.3,1.5,0.6c0.5,0.4,1,0.8,2,0.8s1.5-0.4,2-0.8c0.4-0.3,0.7-0.6,1.5-0.6c0.7,0,1,0.3,1.5,0.6
		c0.5,0.4,1,0.8,2,0.8s1.5-0.4,2-0.8c0.3-0.3,0.6-0.5,1-0.6v7.4H20.6V32.3L20.6,32.3z M41.9,41.1c-0.1,0.3-0.4,0.5-0.7,0.5H20
		c-0.3,0-0.6-0.2-0.7-0.5l-0.2-0.6H42L41.9,41.1z"/>
	<path class="st1" d="M29,21.8c0.1,0,0.2,0,0.3-0.1c0.2-0.2,0.2-0.4,0-0.6c-0.3-0.3-0.5-0.8-0.5-1.2c0-1,0.7-2,1.8-2.5
		c1.1,0.5,1.8,1.5,1.8,2.5c0,0.4-0.2,0.9-0.5,1.2c-0.2,0.2-0.1,0.4,0,0.6c0.2,0.2,0.4,0.1,0.6,0c0.4-0.5,0.7-1.1,0.7-1.7
		c0-1.3-1-2.7-2.5-3.3c-0.1,0-0.2,0-0.3,0c-1.4,0.6-2.5,2-2.5,3.3c0,0.6,0.2,1.3,0.7,1.7C28.7,21.8,28.9,21.8,29,21.8z"/>
</g>
<g class="st0">
	<path class="st1" d="M73.5,39.7h-2v-7.9v-1.6c0-1.4-1.2-2.6-2.6-2.6h-6.4v-3.7c0-0.5-0.4-1-1-1h-0.1v-1.2c0-0.2-0.2-0.4-0.4-0.4
		s-0.4,0.2-0.4,0.4v1.2h-0.1c-0.5,0-1,0.4-1,1v3.7h-6.8c-1.4,0-2.6,1.2-2.6,2.6v9.5h-1.6c-0.2,0-0.4,0.2-0.4,0.4s0.2,0.4,0.4,0.4
		h0.2l0.2,0.8c0.2,0.6,0.8,1.1,1.4,1.1h21.2c0.6,0,1.3-0.5,1.4-1.1l0.2-0.8h0.2c0.2,0,0.4-0.2,0.4-0.4S73.7,39.7,73.5,39.7
		L73.5,39.7z M60.3,23.8c0-0.1,0.1-0.1,0.1-0.1h1.1c0.1,0,0.1,0.1,0.1,0.1v3.7h-1.4v-3.7H60.3z M52.7,28.4h16.2c1,0,1.8,0.8,1.8,1.8
		v1.3c-0.7,0.1-1.2,0.5-1.6,0.8c-0.4,0.3-0.7,0.6-1.5,0.6s-1-0.3-1.5-0.6c-0.5-0.4-1-0.8-2-0.8s-1.5,0.4-2,0.8
		c-0.4,0.3-0.7,0.6-1.5,0.6c-0.7,0-1-0.3-1.5-0.6c-0.5-0.4-1-0.8-2-0.8s-1.5,0.4-2,0.8c-0.2,0.2-0.5,0.4-0.8,0.5
		C54.1,32.9,54,33,54,33.2V36c0,0.2-0.2,0.4-0.4,0.4s-0.4-0.2-0.4-0.4v-2.8c0-0.2-0.1-0.3-0.3-0.4c-0.3-0.1-0.5-0.3-0.8-0.5
		c-0.4-0.3-0.8-0.7-1.6-0.8v-1.3C50.9,29.2,51.7,28.4,52.7,28.4L52.7,28.4z M50.9,32.3c0.4,0.1,0.7,0.3,1,0.6
		c0.2,0.2,0.4,0.4,0.7,0.5V36c0,0.7,0.6,1.2,1.2,1.2S55,36.6,55,36v-2.6c0.3-0.2,0.5-0.4,0.7-0.5c0.4-0.3,0.7-0.6,1.5-0.6
		c0.7,0,1,0.3,1.5,0.6c0.5,0.4,1,0.8,2,0.8s1.5-0.4,2-0.8c0.4-0.3,0.7-0.6,1.5-0.6c0.7,0,1,0.3,1.5,0.6c0.5,0.4,1,0.8,2,0.8
		s1.5-0.4,2-0.8c0.3-0.3,0.6-0.5,1-0.6v7.4H50.9V32.3L50.9,32.3z M72.2,41.1c-0.1,0.3-0.4,0.5-0.7,0.5H50.4c-0.3,0-0.6-0.2-0.7-0.5
		l-0.2-0.6h22.8L72.2,41.1z"/>
	<path class="st1" d="M59.3,21.8c0.1,0,0.2,0,0.3-0.1c0.2-0.2,0.2-0.4,0-0.6c-0.3-0.3-0.5-0.8-0.5-1.2c0-1,0.7-2,1.8-2.5
		c1.1,0.5,1.8,1.5,1.8,2.5c0,0.4-0.2,0.9-0.5,1.2c-0.2,0.2-0.1,0.4,0,0.6c0.2,0.2,0.4,0.1,0.6,0c0.4-0.5,0.7-1.1,0.7-1.7
		c0-1.3-1-2.7-2.5-3.3c-0.1,0-0.2,0-0.3,0c-1.4,0.6-2.5,2-2.5,3.3c0,0.6,0.2,1.3,0.7,1.7C59.1,21.8,59.2,21.8,59.3,21.8z"/>
</g>
<g class="st0">
	<path class="st1" d="M63.3,2.7h2v7.9v1.6c0,1.4,1.2,2.6,2.6,2.6h6.4v3.7c0,0.5,0.4,1,1,1h0.1v1.2c0,0.2,0.2,0.4,0.4,0.4
		s0.4-0.2,0.4-0.4v-1.2h0.1c0.5,0,1-0.4,1-1v-3.7H84c1.4,0,2.6-1.2,2.6-2.6V2.7h1.6c0.2,0,0.4-0.2,0.4-0.4s-0.2-0.4-0.4-0.4H88
		l-0.2-0.8C87.6,0.5,87,0,86.4,0H65.2c-0.6,0-1.3,0.5-1.4,1.1l-0.2,0.8h-0.2c-0.2,0-0.4,0.2-0.4,0.4C62.9,2.6,63,2.7,63.3,2.7
		L63.3,2.7z M76.5,18.6c0,0.1-0.1,0.1-0.1,0.1h-1.1c-0.1,0-0.1-0.1-0.1-0.1v-3.7h1.4v3.7H76.5z M84,14H67.8c-1,0-1.8-0.8-1.8-1.8V11
		c0.7-0.1,1.2-0.5,1.6-0.8s0.7-0.6,1.5-0.6c0.7,0,1,0.3,1.5,0.6c0.5,0.4,1,0.8,2,0.8s1.5-0.4,2-0.8c0.4-0.3,0.7-0.6,1.5-0.6
		c0.7,0,1,0.3,1.5,0.6c0.5,0.4,1,0.8,2,0.8s1.5-0.4,2-0.8c0.2-0.2,0.5-0.4,0.8-0.5c0.2-0.1,0.3-0.2,0.3-0.4V6.5
		c0-0.2,0.2-0.4,0.4-0.4c0.2,0,0.4,0.2,0.4,0.4v2.8c0,0.2,0.1,0.3,0.3,0.4c0.3,0.1,0.5,0.3,0.8,0.5c0.4,0.3,0.8,0.7,1.6,0.8v1.3
		C85.8,13.2,85,14,84,14L84,14z M85.8,10.2c-0.4-0.1-0.7-0.3-1-0.6C84.6,9.4,84.3,9.2,84,9V6.5c0-0.7-0.6-1.2-1.2-1.2
		c-0.7,0-1.2,0.6-1.2,1.2v2.6c-0.3,0.2-0.5,0.4-0.7,0.5c-0.4,0.3-0.7,0.6-1.5,0.6c-0.7,0-1-0.3-1.5-0.6c-0.5-0.4-1-0.8-2-0.8
		s-1.5,0.4-2,0.8c-0.4,0.3-0.7,0.6-1.5,0.6c-0.7,0-1-0.3-1.5-0.6c-0.5-0.4-1-0.8-2-0.8s-1.5,0.4-2,0.8c-0.3,0.3-0.6,0.5-1,0.6V2.7
		h19.8L85.8,10.2L85.8,10.2z M64.5,1.3c0.1-0.3,0.4-0.5,0.7-0.5h21.2c0.3,0,0.6,0.2,0.7,0.5l0.2,0.6H64.4L64.5,1.3z"/>
	<path class="st1" d="M77.4,20.6c-0.1,0-0.2,0-0.3,0.1c-0.2,0.2-0.2,0.4,0,0.6c0.3,0.3,0.5,0.8,0.5,1.2c0,1-0.7,2-1.8,2.5
		c-1.1-0.5-1.8-1.5-1.8-2.5c0-0.4,0.2-0.9,0.5-1.2c0.2-0.2,0.1-0.4,0-0.6c-0.2-0.2-0.4-0.1-0.6,0c-0.4,0.5-0.7,1.1-0.7,1.7
		c0,1.3,1,2.7,2.5,3.3c0.1,0,0.2,0,0.3,0c1.4-0.6,2.5-2,2.5-3.3c0-0.6-0.2-1.3-0.7-1.7C77.6,20.6,77.5,20.6,77.4,20.6z"/>
</g>
<g class="st0">
	<path class="st1" d="M103.8,39.7h-2v-7.9v-1.6c0-1.4-1.2-2.6-2.6-2.6h-6.4v-3.7c0-0.5-0.4-1-1-1h-0.1v-1.2c0-0.2-0.2-0.4-0.4-0.4
		s-0.4,0.2-0.4,0.4v1.2h-0.1c-0.5,0-1,0.4-1,1v3.7H83c-1.4,0-2.6,1.2-2.6,2.6v9.5h-1.6c-0.2,0-0.4,0.2-0.4,0.4s0.2,0.4,0.4,0.4H79
		l0.2,0.8c0.2,0.6,0.8,1.1,1.4,1.1h21.2c0.6,0,1.3-0.5,1.4-1.1l0.2-0.8h0.2c0.2,0,0.4-0.2,0.4-0.4S104,39.7,103.8,39.7L103.8,39.7z
		 M90.6,23.8c0-0.1,0.1-0.1,0.1-0.1h1.1c0.1,0,0.1,0.1,0.1,0.1v3.7h-1.4v-3.7H90.6z M83,28.4h16.2c1,0,1.8,0.8,1.8,1.8v1.3
		c-0.7,0.1-1.2,0.5-1.6,0.8c-0.4,0.3-0.7,0.6-1.5,0.6c-0.7,0-1-0.3-1.5-0.6c-0.5-0.4-1-0.8-2-0.8s-1.5,0.4-2,0.8
		c-0.4,0.3-0.7,0.6-1.5,0.6c-0.7,0-1-0.3-1.5-0.6c-0.5-0.4-1-0.8-2-0.8s-1.5,0.4-2,0.8c-0.2,0.2-0.5,0.4-0.8,0.5
		c-0.2,0.1-0.3,0.2-0.3,0.4V36c0,0.2-0.2,0.4-0.4,0.4c-0.2,0-0.4-0.2-0.4-0.4v-2.8c0-0.2-0.1-0.3-0.3-0.4c-0.3-0.1-0.5-0.3-0.8-0.5
		c-0.4-0.3-0.8-0.7-1.6-0.8v-1.3C81.2,29.2,82,28.4,83,28.4L83,28.4z M81.2,32.3c0.4,0.1,0.7,0.3,1,0.6c0.2,0.2,0.4,0.4,0.7,0.5V36
		c0,0.7,0.6,1.2,1.2,1.2c0.7,0,1.2-0.6,1.2-1.2v-2.6c0.3-0.2,0.5-0.4,0.7-0.5c0.4-0.3,0.7-0.6,1.5-0.6c0.7,0,1,0.3,1.5,0.6
		c0.5,0.4,1,0.8,2,0.8s1.5-0.4,2-0.8c0.4-0.3,0.7-0.6,1.5-0.6c0.7,0,1,0.3,1.5,0.6c0.5,0.4,1,0.8,2,0.8s1.5-0.4,2-0.8
		c0.3-0.3,0.6-0.5,1-0.6v7.4H81.2V32.3L81.2,32.3z M102.5,41.1c-0.1,0.3-0.4,0.5-0.7,0.5H80.7c-0.3,0-0.6-0.2-0.7-0.5l-0.2-0.6h22.8
		L102.5,41.1z"/>
	<path class="st1" d="M89.7,21.8c0.1,0,0.2,0,0.3-0.1c0.2-0.2,0.2-0.4,0-0.6c-0.3-0.3-0.5-0.8-0.5-1.2c0-1,0.7-2,1.8-2.5
		c1.1,0.5,1.8,1.5,1.8,2.5c0,0.4-0.2,0.9-0.5,1.2c-0.2,0.2-0.1,0.4,0,0.6c0.2,0.2,0.4,0.1,0.6,0c0.4-0.5,0.7-1.1,0.7-1.7
		c0-1.3-1-2.7-2.5-3.3c-0.1,0-0.2,0-0.3,0c-1.4,0.6-2.5,2-2.5,3.3c0,0.6,0.2,1.3,0.7,1.7C89.4,21.8,89.5,21.8,89.7,21.8z"/>
</g>
<g class="st0">
	<path class="st1" d="M93.6,2.7h2v7.9v1.6c0,1.4,1.2,2.6,2.6,2.6h6.4v3.7c0,0.5,0.4,1,1,1h0.1v1.2c0,0.2,0.2,0.4,0.4,0.4
		s0.4-0.2,0.4-0.4v-1.2h0.1c0.5,0,1-0.4,1-1v-3.7h6.8c1.4,0,2.6-1.2,2.6-2.6V2.7h1.6c0.2,0,0.4-0.2,0.4-0.4s-0.2-0.4-0.4-0.4h-0.2
		l-0.2-0.8C118,0.5,117.3,0,116.7,0H95.5c-0.6,0-1.3,0.5-1.4,1.1l-0.2,0.8h-0.2c-0.2,0-0.4,0.2-0.4,0.4C93.2,2.6,93.4,2.7,93.6,2.7
		L93.6,2.7z M106.8,18.6c0,0.1-0.1,0.1-0.1,0.1h-1.1c-0.1,0-0.1-0.1-0.1-0.1v-3.7h1.4v3.7H106.8z M114.4,14H98.2
		c-1,0-1.8-0.8-1.8-1.8V11c0.7-0.1,1.2-0.5,1.6-0.8s0.7-0.6,1.5-0.6c0.7,0,1,0.3,1.5,0.6c0.5,0.4,1,0.8,2,0.8s1.5-0.4,2-0.8
		c0.4-0.3,0.7-0.6,1.5-0.6c0.7,0,1,0.3,1.5,0.6c0.5,0.4,1,0.8,2,0.8s1.5-0.4,2-0.8c0.2-0.2,0.5-0.4,0.8-0.5c0.2-0.1,0.3-0.2,0.3-0.4
		V6.5c0-0.2,0.2-0.4,0.4-0.4c0.2,0,0.4,0.2,0.4,0.4v2.8c0,0.2,0.1,0.3,0.3,0.4c0.3,0.1,0.5,0.3,0.8,0.5c0.4,0.3,0.8,0.7,1.6,0.8v1.3
		C116.2,13.2,115.4,14,114.4,14L114.4,14z M116.2,10.2c-0.4-0.1-0.7-0.3-1-0.6c-0.2-0.2-0.4-0.4-0.7-0.5V6.5c0-0.7-0.6-1.2-1.2-1.2
		c-0.7,0-1.2,0.6-1.2,1.2v2.6c-0.3,0.2-0.5,0.4-0.7,0.5c-0.4,0.3-0.7,0.6-1.5,0.6c-0.7,0-1-0.3-1.5-0.6c-0.5-0.4-1-0.8-2-0.8
		s-1.5,0.4-2,0.8c-0.4,0.3-0.7,0.6-1.5,0.6c-0.7,0-1-0.3-1.5-0.6c-0.5-0.4-1-0.8-2-0.8s-1.5,0.4-2,0.8c-0.3,0.3-0.6,0.5-1,0.6V2.7
		h19.8L116.2,10.2L116.2,10.2z M94.9,1.3C95,1,95.3,0.8,95.6,0.8h21.2c0.3,0,0.6,0.2,0.7,0.5l0.2,0.6h-23L94.9,1.3z"/>
	<path class="st1" d="M107.8,20.6c-0.1,0-0.2,0-0.3,0.1c-0.2,0.2-0.2,0.4,0,0.6c0.3,0.3,0.5,0.8,0.5,1.2c0,1-0.7,2-1.8,2.5
		c-1.1-0.5-1.8-1.5-1.8-2.5c0-0.4,0.2-0.9,0.5-1.2c0.2-0.2,0.1-0.4,0-0.6c-0.2-0.2-0.4-0.1-0.6,0c-0.4,0.5-0.7,1.1-0.7,1.7
		c0,1.3,1,2.7,2.5,3.3c0.1,0,0.2,0,0.3,0c1.4-0.6,2.5-2,2.5-3.3c0-0.6-0.2-1.3-0.7-1.7C108,20.6,107.9,20.6,107.8,20.6z"/>
</g>
<g class="st0">
	<path class="st1" d="M124,2.7h2v7.9v1.6c0,1.4,1.2,2.6,2.6,2.6h6.4v3.7c0,0.5,0.4,1,1,1h0.1v1.2c0,0.2,0.2,0.4,0.4,0.4
		s0.4-0.2,0.4-0.4v-1.2h0.1c0.5,0,1-0.4,1-1v-3.7h6.8c1.4,0,2.6-1.2,2.6-2.6V2.7h1.6c0.2,0,0.4-0.2,0.4-0.4s-0.2-0.4-0.4-0.4h-0.2
		l-0.2-0.8C148.3,0.5,147.7,0,147,0h-21.2c-0.6,0-1.3,0.5-1.4,1.1l-0.2,0.8H124c-0.2,0-0.4,0.2-0.4,0.4C123.5,2.6,123.7,2.7,124,2.7
		L124,2.7z M137.2,18.6c0,0.1-0.1,0.1-0.1,0.1H136c-0.1,0-0.1-0.1-0.1-0.1v-3.7h1.4L137.2,18.6L137.2,18.6z M144.7,14h-16.2
		c-1,0-1.8-0.8-1.8-1.8V11c0.7-0.1,1.2-0.5,1.6-0.8c0.4-0.3,0.7-0.6,1.5-0.6s1,0.3,1.5,0.6c0.5,0.4,1,0.8,2,0.8s1.5-0.4,2-0.8
		c0.4-0.3,0.7-0.6,1.5-0.6c0.7,0,1,0.3,1.5,0.6c0.5,0.4,1,0.8,2,0.8s1.5-0.4,2-0.8c0.2-0.2,0.5-0.4,0.8-0.5c0.2-0.1,0.3-0.2,0.3-0.4
		V6.5c0-0.2,0.2-0.4,0.4-0.4s0.4,0.2,0.4,0.4v2.8c0,0.2,0.1,0.3,0.3,0.4c0.3,0.1,0.5,0.3,0.8,0.5c0.4,0.3,0.8,0.7,1.6,0.8v1.3
		C146.5,13.2,145.7,14,144.7,14L144.7,14z M146.5,10.2c-0.4-0.1-0.7-0.3-1-0.6c-0.2-0.2-0.4-0.4-0.7-0.5V6.5c0-0.7-0.6-1.2-1.2-1.2
		c-0.7,0-1.2,0.6-1.2,1.2v2.6c-0.3,0.2-0.5,0.4-0.7,0.5c-0.4,0.3-0.7,0.6-1.5,0.6c-0.7,0-1-0.3-1.5-0.6c-0.5-0.4-1-0.8-2-0.8
		s-1.5,0.4-2,0.8c-0.4,0.3-0.7,0.6-1.5,0.6c-0.7,0-1-0.3-1.5-0.6c-0.5-0.4-1-0.8-2-0.8s-1.5,0.4-2,0.8c-0.3,0.3-0.6,0.5-1,0.6V2.7
		h19.8L146.5,10.2L146.5,10.2z M125.2,1.3c0.1-0.3,0.4-0.5,0.7-0.5H147c0.3,0,0.6,0.2,0.7,0.5l0.2,0.6h-22.8L125.2,1.3z"/>
	<path class="st1" d="M138.1,20.6c-0.1,0-0.2,0-0.3,0.1c-0.2,0.2-0.2,0.4,0,0.6c0.3,0.3,0.5,0.8,0.5,1.2c0,1-0.7,2-1.8,2.5
		c-1.1-0.5-1.8-1.5-1.8-2.5c0-0.4,0.2-0.9,0.5-1.2c0.2-0.2,0.1-0.4,0-0.6c-0.2-0.2-0.4-0.1-0.6,0c-0.4,0.5-0.7,1.1-0.7,1.7
		c0,1.3,1,2.7,2.5,3.3c0.1,0,0.2,0,0.3,0c1.4-0.6,2.5-2,2.5-3.3c0-0.6-0.2-1.3-0.7-1.7C138.3,20.6,138.2,20.6,138.1,20.6z"/>
</g>
<g class="st0">
	<path class="st1" d="M164.5,39.7h-2v-7.9v-1.6c0-1.4-1.2-2.6-2.6-2.6h-6.4v-3.7c0-0.5-0.4-1-1-1h-0.1v-1.2c0-0.2-0.2-0.4-0.4-0.4
		s-0.4,0.2-0.4,0.4v1.2h-0.1c-0.5,0-1,0.4-1,1v3.7h-6.8c-1.4,0-2.6,1.2-2.6,2.6v9.5h-1.6c-0.2,0-0.4,0.2-0.4,0.4s0.2,0.4,0.4,0.4
		h0.2l0.2,0.8c0.2,0.6,0.8,1.1,1.4,1.1h21.2c0.6,0,1.3-0.5,1.4-1.1l0.2-0.8h0.2c0.2,0,0.4-0.2,0.4-0.4S164.7,39.7,164.5,39.7
		L164.5,39.7z M151.3,23.8c0-0.1,0.1-0.1,0.1-0.1h1.1c0.1,0,0.1,0.1,0.1,0.1v3.7h-1.4L151.3,23.8L151.3,23.8z M143.7,28.4h16.2
		c1,0,1.8,0.8,1.8,1.8v1.3c-0.7,0.1-1.2,0.5-1.6,0.8c-0.4,0.3-0.7,0.6-1.5,0.6c-0.7,0-1-0.3-1.5-0.6c-0.5-0.4-1-0.8-2-0.8
		s-1.5,0.4-2,0.8c-0.4,0.3-0.7,0.6-1.5,0.6c-0.7,0-1-0.3-1.5-0.6c-0.5-0.4-1-0.8-2-0.8s-1.5,0.4-2,0.8c-0.2,0.2-0.5,0.4-0.8,0.5
		c-0.2,0.1-0.3,0.2-0.3,0.4V36c0,0.2-0.2,0.4-0.4,0.4s-0.4-0.2-0.4-0.4v-2.8c0-0.2-0.1-0.3-0.3-0.4c-0.3-0.1-0.5-0.3-0.8-0.5
		c-0.4-0.3-0.8-0.7-1.6-0.8v-1.3C141.9,29.2,142.7,28.4,143.7,28.4L143.7,28.4z M141.9,32.3c0.4,0.1,0.7,0.3,1,0.6
		c0.2,0.2,0.4,0.4,0.7,0.5V36c0,0.7,0.6,1.2,1.2,1.2s1.2-0.6,1.2-1.2v-2.6c0.3-0.2,0.5-0.4,0.7-0.5c0.4-0.3,0.7-0.6,1.5-0.6
		c0.7,0,1,0.3,1.5,0.6c0.5,0.4,1,0.8,2,0.8s1.5-0.4,2-0.8c0.4-0.3,0.7-0.6,1.5-0.6c0.7,0,1,0.3,1.5,0.6c0.5,0.4,1,0.8,2,0.8
		s1.5-0.4,2-0.8c0.3-0.3,0.6-0.5,1-0.6v7.4h-19.8L141.9,32.3L141.9,32.3z M163.2,41.1c-0.1,0.3-0.4,0.5-0.7,0.5h-21.2
		c-0.3,0-0.6-0.2-0.7-0.5l-0.2-0.6h22.8L163.2,41.1z"/>
	<path class="st1" d="M150.4,21.8c0.1,0,0.2,0,0.3-0.1c0.2-0.2,0.2-0.4,0-0.6c-0.3-0.3-0.5-0.8-0.5-1.2c0-1,0.7-2,1.8-2.5
		c1.1,0.5,1.8,1.5,1.8,2.5c0,0.4-0.2,0.9-0.5,1.2c-0.2,0.2-0.1,0.4,0,0.6c0.2,0.2,0.4,0.1,0.6,0c0.4-0.5,0.7-1.1,0.7-1.7
		c0-1.3-1-2.7-2.5-3.3c-0.1,0-0.2,0-0.3,0c-1.4,0.6-2.5,2-2.5,3.3c0,0.6,0.2,1.3,0.7,1.7C150.1,21.8,150.2,21.8,150.4,21.8z"/>
</g>
<g class="st0">
	<path class="st1" d="M154.3,2.7h2v7.9v1.6c0,1.4,1.2,2.6,2.6,2.6h6.4v3.7c0,0.5,0.4,1,1,1h0.1v1.2c0,0.2,0.2,0.4,0.4,0.4
		s0.4-0.2,0.4-0.4v-1.2h0.1c0.5,0,1-0.4,1-1v-3.7h6.8c1.4,0,2.6-1.2,2.6-2.6V2.7h1.6c0.2,0,0.4-0.2,0.4-0.4s-0.2-0.4-0.4-0.4h-0.2
		l-0.2-0.8C178.7,0.5,178,0,177.4,0h-21.2c-0.6,0-1.3,0.5-1.4,1.1l-0.2,0.8h-0.2c-0.2,0-0.4,0.2-0.4,0.4
		C153.9,2.6,154.1,2.7,154.3,2.7L154.3,2.7z M167.5,18.6c0,0.1-0.1,0.1-0.1,0.1h-1.1c-0.1,0-0.1-0.1-0.1-0.1v-3.7h1.4L167.5,18.6
		L167.5,18.6z M175.1,14h-16.2c-1,0-1.8-0.8-1.8-1.8V11c0.7-0.1,1.2-0.5,1.6-0.8c0.4-0.3,0.7-0.6,1.5-0.6c0.7,0,1,0.3,1.5,0.6
		c0.5,0.4,1,0.8,2,0.8s1.5-0.4,2-0.8c0.4-0.3,0.7-0.6,1.5-0.6c0.7,0,1,0.3,1.5,0.6c0.5,0.4,1,0.8,2,0.8s1.5-0.4,2-0.8
		c0.2-0.2,0.5-0.4,0.8-0.5c0.2-0.1,0.3-0.2,0.3-0.4V6.5c0-0.2,0.2-0.4,0.4-0.4s0.4,0.2,0.4,0.4v2.8c0,0.2,0.1,0.3,0.3,0.4
		c0.3,0.1,0.5,0.3,0.8,0.5c0.4,0.3,0.8,0.7,1.6,0.8v1.3C176.9,13.2,176.1,14,175.1,14L175.1,14z M176.9,10.2c-0.4-0.1-0.7-0.3-1-0.6
		c-0.2-0.2-0.4-0.4-0.7-0.5V6.5c0-0.7-0.6-1.2-1.2-1.2s-1.2,0.6-1.2,1.2v2.6c-0.3,0.2-0.5,0.4-0.7,0.5c-0.4,0.3-0.7,0.6-1.5,0.6
		c-0.7,0-1-0.3-1.5-0.6c-0.5-0.4-1-0.8-2-0.8s-1.5,0.4-2,0.8c-0.4,0.3-0.7,0.6-1.5,0.6c-0.7,0-1-0.3-1.5-0.6c-0.5-0.4-1-0.8-2-0.8
		s-1.5,0.4-2,0.8c-0.3,0.3-0.6,0.5-1,0.6V2.7h19.8L176.9,10.2L176.9,10.2z M155.6,1.3c0.1-0.3,0.4-0.5,0.7-0.5h21.2
		c0.3,0,0.6,0.2,0.7,0.5l0.2,0.6h-22.8L155.6,1.3z"/>
	<path class="st1" d="M168.5,20.6c-0.1,0-0.2,0-0.3,0.1c-0.2,0.2-0.2,0.4,0,0.6c0.3,0.3,0.5,0.8,0.5,1.2c0,1-0.7,2-1.8,2.5
		c-1.1-0.5-1.8-1.5-1.8-2.5c0-0.4,0.2-0.9,0.5-1.2c0.2-0.2,0.1-0.4,0-0.6c-0.2-0.2-0.4-0.1-0.6,0c-0.4,0.5-0.7,1.1-0.7,1.7
		c0,1.3,1,2.7,2.5,3.3c0.1,0,0.2,0,0.3,0c1.4-0.6,2.5-2,2.5-3.3c0-0.6-0.2-1.3-0.7-1.7C168.7,20.6,168.6,20.6,168.5,20.6z"/>
</g>
<g class="st0">
	<g>
		<path class="st1" d="M112.1,84.5c0-0.4,0.1-0.6,0.4-0.9c0.3-0.4,0.8-0.9,0.8-2s-0.4-1.6-0.8-2c-0.3-0.3-0.4-0.5-0.4-0.9
			s0.1-0.6,0.4-0.9c0.3-0.4,0.8-0.9,0.8-2s-0.4-1.6-0.8-2c-0.3-0.3-0.4-0.5-0.4-0.9s0.1-0.6,0.4-0.9c0.3-0.4,0.8-0.9,0.8-2
			s-0.4-1.5-0.8-2l0,0c-0.1-0.1-0.3-0.1-0.4-0.1l-0.4,0.3l0,0l-0.4,0.3c-0.1,0.1-0.1,0.3-0.1,0.4c0.3,0.3,0.4,0.5,0.4,0.9
			s-0.1,0.6-0.4,0.9c-0.3,0.4-0.8,0.9-0.8,2s0.4,1.6,0.8,2c0.3,0.3,0.4,0.5,0.4,0.9s-0.1,0.6-0.4,0.9c-0.3,0.4-0.8,0.9-0.8,2
			s0.4,1.6,0.8,2c0.3,0.3,0.4,0.5,0.4,0.9s-0.1,0.6-0.4,0.9c-0.3,0.4-0.8,0.9-0.8,2s0.4,1.6,0.8,2c0.1,0.1,0.1,0.1,0.2,0.1
			s0.1,0,0.2-0.1l0.9-0.7c0.1-0.1,0.1-0.1,0.1-0.2s0-0.2-0.1-0.2C112.2,85.1,112.1,84.9,112.1,84.5L112.1,84.5z M111.8,85.5
			l-0.4,0.3c-0.2-0.3-0.4-0.7-0.4-1.4c0-0.8,0.3-1.2,0.6-1.6c0.3-0.3,0.5-0.6,0.5-1.3s-0.2-0.9-0.5-1.3s-0.6-0.8-0.6-1.6
			c0-0.8,0.3-1.2,0.6-1.6c0.3-0.3,0.5-0.6,0.5-1.3s-0.2-0.9-0.5-1.3s-0.6-0.8-0.6-1.6s0.3-1.2,0.6-1.6c0.3-0.3,0.5-0.6,0.5-1.3
			c0-0.5-0.1-0.8-0.3-1l0.4-0.3c0.2,0.3,0.4,0.7,0.4,1.4c0,0.8-0.3,1.2-0.6,1.6c-0.3,0.3-0.5,0.6-0.5,1.3s0.2,0.9,0.5,1.3
			s0.6,0.8,0.6,1.6c0,0.8-0.3,1.2-0.6,1.6c-0.3,0.3-0.5,0.6-0.5,1.3s0.2,0.9,0.5,1.3s0.6,0.8,0.6,1.6s-0.3,1.2-0.6,1.6
			c-0.3,0.3-0.5,0.6-0.5,1.3C111.5,85,111.6,85.2,111.8,85.5L111.8,85.5z"/>
		<path class="st1" d="M108.8,80.8c-0.5,0-0.9,0.4-0.9,0.9s0.4,0.9,0.9,0.9s0.9-0.4,0.9-0.9C109.6,81.2,109.2,80.8,108.8,80.8z
			 M108.8,81.9c-0.2,0-0.3-0.1-0.3-0.3s0.1-0.3,0.3-0.3s0.3,0.1,0.3,0.3S108.9,81.9,108.8,81.9z"/>
		<path class="st1" d="M115,77.9c-0.5,0-0.9,0.4-0.9,0.9s0.4,0.9,0.9,0.9s0.9-0.4,0.9-0.9S115.5,77.9,115,77.9z M115,79.1
			c-0.2,0-0.3-0.1-0.3-0.3c0-0.1,0.1-0.3,0.3-0.3s0.3,0.1,0.3,0.3S115.1,79.1,115,79.1z"/>
		<path class="st1" d="M108.8,75.1c-0.5,0-0.9,0.4-0.9,0.9s0.4,0.9,0.9,0.9s0.9-0.4,0.9-0.9C109.6,75.5,109.2,75.1,108.8,75.1z
			 M108.8,76.3c-0.2,0-0.3-0.1-0.3-0.3c0-0.2,0.1-0.3,0.3-0.3s0.3,0.1,0.3,0.3C109.1,76.1,108.9,76.3,108.8,76.3z"/>
		<path class="st1" d="M115,83.7c-0.5,0-0.9,0.4-0.9,0.9s0.4,0.9,0.9,0.9s0.9-0.4,0.9-0.9C115.9,84,115.5,83.7,115,83.7z M115,84.8
			c-0.2,0-0.3-0.1-0.3-0.3c0-0.1,0.1-0.3,0.3-0.3s0.3,0.1,0.3,0.3C115.3,84.7,115.1,84.8,115,84.8z"/>
		<path class="st1" d="M115,72.4c-0.5,0-0.9,0.4-0.9,0.9s0.4,0.9,0.9,0.9s0.9-0.4,0.9-0.9C115.9,72.7,115.5,72.4,115,72.4z
			 M115,73.5c-0.2,0-0.3-0.1-0.3-0.3c0-0.2,0.1-0.3,0.3-0.3s0.3,0.1,0.3,0.3S115.1,73.5,115,73.5z"/>
	</g>
	<g>
		<path class="st1" d="M120.8,84.5c0-0.4,0.1-0.6,0.4-0.9c0.3-0.4,0.8-0.9,0.8-2s-0.4-1.6-0.8-2c-0.3-0.3-0.4-0.5-0.4-0.9
			s0.1-0.6,0.4-0.9c0.3-0.4,0.8-0.9,0.8-2s-0.4-1.6-0.8-2c-0.3-0.3-0.4-0.5-0.4-0.9s0.1-0.6,0.4-0.9c0.3-0.4,0.8-0.9,0.8-2
			s-0.4-1.5-0.8-2l0,0c-0.1-0.1-0.3-0.1-0.4-0.1l-0.4,0.3l0,0l-0.4,0.3c-0.1,0.1-0.1,0.3-0.1,0.4c0.3,0.3,0.4,0.5,0.4,0.9
			s-0.1,0.6-0.4,0.9c-0.3,0.4-0.8,0.9-0.8,2s0.4,1.6,0.8,2c0.3,0.3,0.4,0.5,0.4,0.9s-0.1,0.6-0.4,0.9c-0.3,0.4-0.8,0.9-0.8,2
			s0.4,1.6,0.8,2c0.3,0.3,0.4,0.5,0.4,0.9s-0.1,0.6-0.4,0.9c-0.3,0.4-0.8,0.9-0.8,2s0.4,1.6,0.8,2c0.1,0.1,0.1,0.1,0.2,0.1
			s0.1,0,0.2-0.1l0.9-0.7c0.1-0.1,0.1-0.1,0.1-0.2s0-0.2-0.1-0.2C120.9,85.1,120.8,84.9,120.8,84.5L120.8,84.5z M120.5,85.5
			l-0.4,0.3c-0.2-0.3-0.4-0.7-0.4-1.4c0-0.8,0.3-1.2,0.6-1.6c0.3-0.3,0.5-0.6,0.5-1.3s-0.2-0.9-0.5-1.3s-0.6-0.8-0.6-1.6
			c0-0.8,0.3-1.2,0.6-1.6c0.3-0.3,0.5-0.6,0.5-1.3s-0.2-0.9-0.5-1.3s-0.6-0.8-0.6-1.6s0.3-1.2,0.6-1.6c0.3-0.3,0.5-0.6,0.5-1.3
			c0-0.5-0.1-0.8-0.3-1l0.4-0.3c0.2,0.3,0.4,0.7,0.4,1.4c0,0.8-0.3,1.2-0.6,1.6c-0.3,0.3-0.5,0.6-0.5,1.3s0.2,0.9,0.5,1.3
			s0.6,0.8,0.6,1.6c0,0.8-0.3,1.2-0.6,1.6c-0.3,0.3-0.5,0.6-0.5,1.3s0.2,0.9,0.5,1.3s0.6,0.8,0.6,1.6s-0.3,1.2-0.6,1.6
			c-0.3,0.3-0.5,0.6-0.5,1.3C120.2,85,120.3,85.2,120.5,85.5L120.5,85.5z"/>
		<path class="st1" d="M117.4,80.8c-0.5,0-0.9,0.4-0.9,0.9s0.4,0.9,0.9,0.9s0.9-0.4,0.9-0.9C118.3,81.2,117.9,80.8,117.4,80.8z
			 M117.4,81.9c-0.2,0-0.3-0.1-0.3-0.3s0.1-0.3,0.3-0.3s0.3,0.1,0.3,0.3S117.6,81.9,117.4,81.9z"/>
		<path class="st1" d="M123.7,77.9c-0.5,0-0.9,0.4-0.9,0.9s0.4,0.9,0.9,0.9s0.9-0.4,0.9-0.9S124.2,77.9,123.7,77.9z M123.7,79.1
			c-0.2,0-0.3-0.1-0.3-0.3c0-0.1,0.1-0.3,0.3-0.3c0.1,0,0.3,0.1,0.3,0.3S123.8,79.1,123.7,79.1z"/>
		<path class="st1" d="M117.4,75.1c-0.5,0-0.9,0.4-0.9,0.9s0.4,0.9,0.9,0.9s0.9-0.4,0.9-0.9S117.9,75.1,117.4,75.1z M117.4,76.3
			c-0.2,0-0.3-0.1-0.3-0.3c0-0.2,0.1-0.3,0.3-0.3s0.3,0.1,0.3,0.3C117.8,76.1,117.6,76.3,117.4,76.3z"/>
		<path class="st1" d="M123.7,83.7c-0.5,0-0.9,0.4-0.9,0.9s0.4,0.9,0.9,0.9s0.9-0.4,0.9-0.9C124.6,84,124.2,83.7,123.7,83.7z
			 M123.7,84.8c-0.2,0-0.3-0.1-0.3-0.3c0-0.1,0.1-0.3,0.3-0.3c0.1,0,0.3,0.1,0.3,0.3C124,84.7,123.8,84.8,123.7,84.8z"/>
		<path class="st1" d="M123.7,72.4c-0.5,0-0.9,0.4-0.9,0.9s0.4,0.9,0.9,0.9s0.9-0.4,0.9-0.9C124.6,72.7,124.2,72.4,123.7,72.4z
			 M123.7,73.5c-0.2,0-0.3-0.1-0.3-0.3c0-0.2,0.1-0.3,0.3-0.3c0.1,0,0.3,0.1,0.3,0.3S123.8,73.5,123.7,73.5z"/>
	</g>
	<g>
		<path class="st1" d="M129.5,84.5c0-0.4,0.1-0.6,0.4-0.9c0.3-0.4,0.8-0.9,0.8-2s-0.4-1.6-0.8-2c-0.3-0.3-0.4-0.5-0.4-0.9
			s0.1-0.6,0.4-0.9c0.3-0.4,0.8-0.9,0.8-2s-0.4-1.6-0.8-2c-0.3-0.3-0.4-0.5-0.4-0.9s0.1-0.6,0.4-0.9c0.3-0.4,0.8-0.9,0.8-2
			s-0.4-1.5-0.8-2l0,0c-0.1-0.1-0.3-0.1-0.4-0.1l-0.4,0.3l0,0l-0.4,0.3c-0.1,0.1-0.1,0.3-0.1,0.4c0.3,0.3,0.4,0.5,0.4,0.9
			s-0.1,0.6-0.4,0.9c-0.3,0.4-0.8,0.9-0.8,2s0.4,1.6,0.8,2c0.3,0.3,0.4,0.5,0.4,0.9s-0.1,0.6-0.4,0.9c-0.3,0.4-0.8,0.9-0.8,2
			s0.4,1.6,0.8,2c0.3,0.3,0.4,0.5,0.4,0.9s-0.1,0.6-0.4,0.9c-0.3,0.4-0.8,0.9-0.8,2s0.4,1.6,0.8,2c0.1,0.1,0.1,0.1,0.2,0.1
			c0.1,0,0.1,0,0.2-0.1l0.9-0.7c0.1-0.1,0.1-0.1,0.1-0.2s0-0.2-0.1-0.2C129.6,85.1,129.5,84.9,129.5,84.5L129.5,84.5z M129.2,85.5
			l-0.4,0.3c-0.2-0.3-0.4-0.7-0.4-1.4c0-0.8,0.3-1.2,0.6-1.6c0.3-0.3,0.5-0.6,0.5-1.3s-0.2-0.9-0.5-1.3s-0.6-0.8-0.6-1.6
			c0-0.8,0.3-1.2,0.6-1.6c0.3-0.3,0.5-0.6,0.5-1.3s-0.2-0.9-0.5-1.3s-0.6-0.8-0.6-1.6s0.3-1.2,0.6-1.6c0.3-0.3,0.5-0.6,0.5-1.3
			c0-0.5-0.1-0.8-0.3-1l0.4-0.3c0.2,0.3,0.4,0.7,0.4,1.4c0,0.8-0.3,1.2-0.6,1.6c-0.3,0.3-0.5,0.6-0.5,1.3s0.2,0.9,0.5,1.3
			s0.6,0.8,0.6,1.6c0,0.8-0.3,1.2-0.6,1.6c-0.3,0.3-0.5,0.6-0.5,1.3s0.2,0.9,0.5,1.3s0.6,0.8,0.6,1.6s-0.3,1.2-0.6,1.6
			c-0.3,0.3-0.5,0.6-0.5,1.3C128.9,85,129,85.2,129.2,85.5L129.2,85.5z"/>
		<path class="st1" d="M126.1,80.8c-0.5,0-0.9,0.4-0.9,0.9s0.4,0.9,0.9,0.9s0.9-0.4,0.9-0.9C127,81.2,126.6,80.8,126.1,80.8z
			 M126.1,81.9c-0.2,0-0.3-0.1-0.3-0.3s0.1-0.3,0.3-0.3s0.3,0.1,0.3,0.3S126.3,81.9,126.1,81.9z"/>
		<path class="st1" d="M132.4,77.9c-0.5,0-0.9,0.4-0.9,0.9s0.4,0.9,0.9,0.9s0.9-0.4,0.9-0.9S132.9,77.9,132.4,77.9z M132.4,79.1
			c-0.2,0-0.3-0.1-0.3-0.3c0-0.1,0.1-0.3,0.3-0.3s0.3,0.1,0.3,0.3S132.5,79.1,132.4,79.1z"/>
		<path class="st1" d="M126.1,75.1c-0.5,0-0.9,0.4-0.9,0.9s0.4,0.9,0.9,0.9s0.9-0.4,0.9-0.9S126.6,75.1,126.1,75.1z M126.1,76.3
			c-0.2,0-0.3-0.1-0.3-0.3c0-0.2,0.1-0.3,0.3-0.3s0.3,0.1,0.3,0.3C126.4,76.1,126.3,76.3,126.1,76.3z"/>
		<path class="st1" d="M132.4,83.7c-0.5,0-0.9,0.4-0.9,0.9s0.4,0.9,0.9,0.9s0.9-0.4,0.9-0.9C133.3,84,132.9,83.7,132.4,83.7z
			 M132.4,84.8c-0.2,0-0.3-0.1-0.3-0.3c0-0.1,0.1-0.3,0.3-0.3s0.3,0.1,0.3,0.3C132.7,84.7,132.5,84.8,132.4,84.8z"/>
		<path class="st1" d="M132.4,72.4c-0.5,0-0.9,0.4-0.9,0.9s0.4,0.9,0.9,0.9s0.9-0.4,0.9-0.9S132.9,72.4,132.4,72.4z M132.4,73.5
			c-0.2,0-0.3-0.1-0.3-0.3c0-0.2,0.1-0.3,0.3-0.3s0.3,0.1,0.3,0.3S132.5,73.5,132.4,73.5z"/>
	</g>
</g>
<g class="st0">
	<g>
		<path class="st1" d="M54.6,49.1c0,0.4-0.1,0.6-0.4,0.9c-0.3,0.4-0.8,0.9-0.8,2s0.4,1.6,0.8,2c0.3,0.3,0.4,0.5,0.4,0.9
			s-0.1,0.6-0.4,0.9c-0.3,0.4-0.8,0.9-0.8,2c0,1,0.4,1.6,0.8,2c0.3,0.3,0.4,0.5,0.4,0.9s-0.1,0.6-0.4,0.9c-0.3,0.4-0.8,0.9-0.8,2
			c0,1,0.4,1.5,0.8,2l0,0c0.1,0.1,0.3,0.1,0.4,0.1l0.4-0.3l0,0l0.4-0.3c0.1-0.1,0.1-0.3,0.1-0.4c-0.3-0.3-0.4-0.5-0.4-0.9
			s0.1-0.6,0.4-0.9c0.3-0.4,0.8-0.9,0.8-2c0-1-0.4-1.6-0.8-2c-0.3-0.3-0.4-0.5-0.4-0.9s0.1-0.6,0.4-0.9c0.3-0.4,0.8-0.9,0.8-2
			c0-1-0.4-1.6-0.8-2c-0.3-0.3-0.4-0.5-0.4-0.9s0.1-0.6,0.4-0.9c0.3-0.4,0.8-0.9,0.8-2c0-1-0.4-1.6-0.8-2c-0.1-0.1-0.1-0.1-0.2-0.1
			c-0.1,0-0.1,0-0.2,0.1L54.2,48c-0.1,0.1-0.1,0.1-0.1,0.2s0,0.2,0.1,0.2C54.5,48.5,54.6,48.7,54.6,49.1L54.6,49.1z M54.9,48.1
			l0.4-0.3c0.2,0.3,0.4,0.7,0.4,1.4c0,0.8-0.3,1.2-0.6,1.6c-0.3,0.3-0.5,0.6-0.5,1.3s0.2,0.9,0.5,1.3c0.3,0.4,0.6,0.8,0.6,1.6
			s-0.3,1.2-0.6,1.6c-0.3,0.3-0.5,0.6-0.5,1.3s0.2,0.9,0.5,1.3c0.3,0.4,0.6,0.8,0.6,1.6s-0.3,1.2-0.6,1.6c-0.3,0.3-0.5,0.6-0.5,1.3
			c0,0.5,0.1,0.8,0.3,1L54.5,65c-0.2-0.3-0.4-0.7-0.4-1.4c0-0.8,0.3-1.2,0.6-1.6c0.3-0.3,0.5-0.6,0.5-1.3c0-0.6-0.2-0.9-0.5-1.3
			c-0.3-0.4-0.6-0.8-0.6-1.6s0.3-1.2,0.6-1.6c0.3-0.3,0.5-0.6,0.5-1.3S55,54,54.7,53.6s-0.6-0.8-0.6-1.6s0.3-1.2,0.6-1.6
			c0.3-0.3,0.5-0.6,0.5-1.3C55.2,48.6,55.1,48.3,54.9,48.1L54.9,48.1z"/>
		<path class="st1" d="M57.9,52.8c0.5,0,0.9-0.4,0.9-0.9S58.4,51,57.9,51S57,51.4,57,51.9S57.5,52.8,57.9,52.8z M57.9,51.7
			c0.2,0,0.3,0.1,0.3,0.3c0,0.1-0.1,0.3-0.3,0.3s-0.3-0.1-0.3-0.3C57.6,51.8,57.8,51.7,57.9,51.7z"/>
		<path class="st1" d="M51.7,55.7c0.5,0,0.9-0.4,0.9-0.9s-0.4-0.9-0.9-0.9s-0.9,0.4-0.9,0.9S51.2,55.7,51.7,55.7z M51.7,54.5
			c0.2,0,0.3,0.1,0.3,0.3c0,0.1-0.1,0.3-0.3,0.3c-0.1,0-0.3-0.1-0.3-0.3S51.5,54.5,51.7,54.5z"/>
		<path class="st1" d="M57.9,58.5c0.5,0,0.9-0.4,0.9-0.9s-0.4-0.9-0.9-0.9S57,57.1,57,57.6S57.5,58.5,57.9,58.5z M57.9,57.3
			c0.2,0,0.3,0.1,0.3,0.3s-0.1,0.3-0.3,0.3s-0.3-0.1-0.3-0.3C57.6,57.5,57.8,57.3,57.9,57.3z"/>
		<path class="st1" d="M51.7,49.9c0.5,0,0.9-0.4,0.9-0.9s-0.4-0.9-0.9-0.9s-0.9,0.4-0.9,0.9S51.2,49.9,51.7,49.9z M51.7,48.8
			c0.2,0,0.3,0.1,0.3,0.3s-0.1,0.3-0.3,0.3c-0.1,0-0.3-0.1-0.3-0.3S51.5,48.8,51.7,48.8z"/>
		<path class="st1" d="M51.7,61.2c0.5,0,0.9-0.4,0.9-0.9s-0.4-0.9-0.9-0.9s-0.9,0.4-0.9,0.9C50.8,60.9,51.2,61.2,51.7,61.2z
			 M51.7,60.1c0.2,0,0.3,0.1,0.3,0.3s-0.1,0.3-0.3,0.3c-0.1,0-0.3-0.1-0.3-0.3C51.4,60.2,51.5,60.1,51.7,60.1z"/>
	</g>
	<g>
		<path class="st1" d="M45.9,49.1c0,0.4-0.1,0.6-0.4,0.9c-0.3,0.4-0.8,0.9-0.8,2s0.4,1.6,0.8,2c0.3,0.3,0.4,0.5,0.4,0.9
			s-0.1,0.6-0.4,0.9c-0.3,0.4-0.8,0.9-0.8,2c0,1,0.4,1.6,0.8,2c0.3,0.3,0.4,0.5,0.4,0.9s-0.1,0.6-0.4,0.9c-0.3,0.4-0.8,0.9-0.8,2
			c0,1,0.4,1.5,0.8,2l0,0c0.1,0.1,0.3,0.1,0.4,0.1l0.4-0.3l0,0l0.4-0.3c0.1-0.1,0.1-0.3,0.1-0.4c-0.3-0.3-0.4-0.5-0.4-0.9
			s0.1-0.6,0.4-0.9c0.3-0.4,0.8-0.9,0.8-2c0-1-0.4-1.6-0.8-2c-0.3-0.3-0.4-0.5-0.4-0.9s0.1-0.6,0.4-0.9c0.3-0.4,0.8-0.9,0.8-2
			c0-1-0.4-1.6-0.8-2c-0.3-0.3-0.4-0.5-0.4-0.9s0.1-0.6,0.4-0.9c0.3-0.4,0.8-0.9,0.8-2c0-1-0.4-1.6-0.8-2c-0.1-0.1-0.1-0.1-0.2-0.1
			c-0.1,0-0.1,0-0.2,0.1L45.5,48c-0.1,0.1-0.1,0.1-0.1,0.2s0,0.2,0.1,0.2C45.8,48.5,45.9,48.7,45.9,49.1L45.9,49.1z M46.2,48.1
			l0.4-0.3c0.2,0.3,0.4,0.7,0.4,1.4c0,0.8-0.3,1.2-0.6,1.6c-0.3,0.3-0.5,0.6-0.5,1.3s0.2,0.9,0.5,1.3c0.3,0.4,0.6,0.8,0.6,1.6
			s-0.3,1.2-0.6,1.6c-0.3,0.3-0.5,0.6-0.5,1.3s0.2,0.9,0.5,1.3c0.3,0.4,0.6,0.8,0.6,1.6s-0.3,1.2-0.6,1.6c-0.3,0.3-0.5,0.6-0.5,1.3
			c0,0.5,0.1,0.8,0.3,1L45.8,65c-0.2-0.3-0.4-0.7-0.4-1.4c0-0.8,0.3-1.2,0.6-1.6c0.3-0.3,0.5-0.6,0.5-1.3c0-0.6-0.2-0.9-0.5-1.3
			c-0.3-0.4-0.6-0.8-0.6-1.6s0.3-1.2,0.6-1.6c0.3-0.3,0.5-0.6,0.5-1.3S46.3,54,46,53.6s-0.6-0.8-0.6-1.6s0.3-1.2,0.6-1.6
			c0.3-0.3,0.5-0.6,0.5-1.3C46.5,48.6,46.4,48.3,46.2,48.1L46.2,48.1z"/>
		<path class="st1" d="M49.2,52.8c0.5,0,0.9-0.4,0.9-0.9S49.7,51,49.2,51s-0.9,0.4-0.9,0.9S48.8,52.8,49.2,52.8z M49.2,51.7
			c0.2,0,0.3,0.1,0.3,0.3c0,0.1-0.1,0.3-0.3,0.3c-0.1,0-0.3-0.1-0.3-0.3C49,51.8,49.1,51.7,49.2,51.7z"/>
		<path class="st1" d="M43,55.7c0.5,0,0.9-0.4,0.9-0.9s-0.4-0.9-0.9-0.9s-0.9,0.4-0.9,0.9S42.5,55.7,43,55.7z M43,54.5
			c0.2,0,0.3,0.1,0.3,0.3c0,0.1-0.1,0.3-0.3,0.3c-0.1,0-0.3-0.1-0.3-0.3S42.8,54.5,43,54.5z"/>
		<path class="st1" d="M49.2,58.5c0.5,0,0.9-0.4,0.9-0.9s-0.4-0.9-0.9-0.9s-0.9,0.4-0.9,0.9S48.8,58.5,49.2,58.5z M49.2,57.3
			c0.2,0,0.3,0.1,0.3,0.3s-0.1,0.3-0.3,0.3c-0.1,0-0.3-0.1-0.3-0.3C48.9,57.5,49.1,57.3,49.2,57.3z"/>
		<path class="st1" d="M43,49.9c0.5,0,0.9-0.4,0.9-0.9s-0.4-0.9-0.9-0.9s-0.9,0.4-0.9,0.9S42.5,49.9,43,49.9z M43,48.8
			c0.2,0,0.3,0.1,0.3,0.3s-0.1,0.3-0.3,0.3c-0.1,0-0.3-0.1-0.3-0.3S42.8,48.8,43,48.8z"/>
		<path class="st1" d="M43,61.2c0.5,0,0.9-0.4,0.9-0.9s-0.4-0.9-0.9-0.9s-0.9,0.4-0.9,0.9C42.1,60.9,42.5,61.2,43,61.2z M43,60.1
			c0.2,0,0.3,0.1,0.3,0.3s-0.1,0.3-0.3,0.3c-0.1,0-0.3-0.1-0.3-0.3C42.7,60.2,42.8,60.1,43,60.1z"/>
	</g>
	<g>
		<path class="st1" d="M37.2,49.1c0,0.4-0.1,0.6-0.4,0.9c-0.3,0.4-0.8,0.9-0.8,2s0.4,1.6,0.8,2c0.3,0.3,0.4,0.5,0.4,0.9
			s-0.1,0.6-0.4,0.9c-0.3,0.4-0.8,0.9-0.8,2c0,1,0.4,1.6,0.8,2c0.3,0.3,0.4,0.5,0.4,0.9s-0.1,0.6-0.4,0.9c-0.3,0.4-0.8,0.9-0.8,2
			c0,1,0.4,1.5,0.8,2l0,0c0.1,0.1,0.3,0.1,0.4,0.1l0.4-0.3l0,0l0.4-0.3c0.1-0.1,0.1-0.3,0.1-0.4c-0.3-0.3-0.4-0.5-0.4-0.9
			s0.1-0.6,0.4-0.9c0.3-0.4,0.8-0.9,0.8-2c0-1-0.4-1.6-0.8-2c-0.3-0.3-0.4-0.5-0.4-0.9s0.1-0.6,0.4-0.9c0.3-0.4,0.8-0.9,0.8-2
			c0-1-0.4-1.6-0.8-2c-0.3-0.3-0.4-0.5-0.4-0.9s0.1-0.6,0.4-0.9c0.3-0.4,0.8-0.9,0.8-2c0-1-0.4-1.6-0.8-2c-0.1-0.1-0.1-0.1-0.2-0.1
			c-0.1,0-0.1,0-0.2,0.1L36.8,48c-0.1,0.1-0.1,0.1-0.1,0.2s0,0.2,0.1,0.2C37.1,48.5,37.2,48.7,37.2,49.1L37.2,49.1z M37.5,48.1
			l0.4-0.3c0.2,0.3,0.4,0.7,0.4,1.4c0,0.8-0.3,1.2-0.6,1.6c-0.3,0.3-0.5,0.6-0.5,1.3s0.2,0.9,0.5,1.3c0.3,0.4,0.6,0.8,0.6,1.6
			s-0.3,1.2-0.6,1.6c-0.3,0.3-0.5,0.6-0.5,1.3s0.2,0.9,0.5,1.3c0.3,0.4,0.6,0.8,0.6,1.6S38,62,37.7,62.4c-0.3,0.3-0.5,0.6-0.5,1.3
			c0,0.5,0.1,0.8,0.3,1L37.1,65c-0.2-0.3-0.4-0.7-0.4-1.4c0-0.8,0.3-1.2,0.6-1.6c0.3-0.3,0.5-0.6,0.5-1.3c0-0.6-0.2-0.9-0.5-1.3
			c-0.3-0.4-0.6-0.8-0.6-1.6s0.3-1.2,0.6-1.6c0.3-0.3,0.5-0.6,0.5-1.3s-0.2-0.9-0.5-1.3c-0.3-0.4-0.6-0.8-0.6-1.6s0.3-1.2,0.6-1.6
			c0.3-0.3,0.5-0.6,0.5-1.3C37.8,48.6,37.7,48.3,37.5,48.1L37.5,48.1z"/>
		<path class="st1" d="M40.5,52.8c0.5,0,0.9-0.4,0.9-0.9S41,51,40.5,51s-0.9,0.4-0.9,0.9C39.7,52.4,40.1,52.8,40.5,52.8z M40.5,51.7
			c0.2,0,0.3,0.1,0.3,0.3c0,0.1-0.1,0.3-0.3,0.3c-0.1,0-0.3-0.1-0.3-0.3C40.3,51.8,40.4,51.7,40.5,51.7z"/>
		<path class="st1" d="M34.3,55.7c0.5,0,0.9-0.4,0.9-0.9s-0.4-0.9-0.9-0.9s-0.9,0.4-0.9,0.9C33.4,55.3,33.8,55.7,34.3,55.7z
			 M34.3,54.5c0.2,0,0.3,0.1,0.3,0.3c0,0.1-0.1,0.3-0.3,0.3c-0.1,0-0.3-0.1-0.3-0.3S34.2,54.5,34.3,54.5z"/>
		<path class="st1" d="M40.5,58.5c0.5,0,0.9-0.4,0.9-0.9s-0.4-0.9-0.9-0.9s-0.9,0.4-0.9,0.9C39.7,58.1,40.1,58.5,40.5,58.5z
			 M40.5,57.3c0.2,0,0.3,0.1,0.3,0.3s-0.1,0.3-0.3,0.3c-0.1,0-0.3-0.1-0.3-0.3C40.2,57.5,40.4,57.3,40.5,57.3z"/>
		<path class="st1" d="M34.3,49.9c0.5,0,0.9-0.4,0.9-0.9s-0.4-0.9-0.9-0.9s-0.9,0.4-0.9,0.9C33.4,49.5,33.8,49.9,34.3,49.9z
			 M34.3,48.8c0.2,0,0.3,0.1,0.3,0.3s-0.1,0.3-0.3,0.3c-0.1,0-0.3-0.1-0.3-0.3S34.2,48.8,34.3,48.8z"/>
		<path class="st1" d="M34.3,61.2c0.5,0,0.9-0.4,0.9-0.9s-0.4-0.9-0.9-0.9s-0.9,0.4-0.9,0.9C33.4,60.9,33.8,61.2,34.3,61.2z
			 M34.3,60.1c0.2,0,0.3,0.1,0.3,0.3s-0.1,0.3-0.3,0.3c-0.1,0-0.3-0.1-0.3-0.3C34,60.2,34.2,60.1,34.3,60.1z"/>
	</g>
</g>
<g class="st0">
	<path class="st1" d="M12.8,85.3h-2v-7.9v-1.6c0-1.4-1.2-2.6-2.6-2.6H1.8v-3.7c0-0.5-0.4-1-1-1H0.7v-1.2c0-0.2-0.2-0.4-0.4-0.4
		s-0.4,0.2-0.4,0.4v1.2h-0.1c-0.5,0-1,0.4-1,1v3.7H-8c-1.4,0-2.6,1.2-2.6,2.6v9.5h-1.6c-0.2,0-0.4,0.2-0.4,0.4
		c0,0.2,0.2,0.4,0.4,0.4h0.2l0.2,0.8c0.2,0.6,0.8,1.1,1.4,1.1h21.2c0.6,0,1.3-0.5,1.4-1.1l0.2-0.8h0.2c0.2,0,0.4-0.2,0.4-0.4
		C13.2,85.5,13,85.3,12.8,85.3L12.8,85.3z M-0.4,69.4C-0.4,69.3-0.3,69.3-0.4,69.4l1.2-0.1c0.1,0,0.1,0.1,0.1,0.1v3.7h-1.4
		L-0.4,69.4L-0.4,69.4z M-8,74H8.2c1,0,1.8,0.8,1.8,1.8V77c-0.7,0.1-1.2,0.5-1.6,0.8C8,78.2,7.7,78.5,7,78.5s-1-0.3-1.5-0.6
		c-0.5-0.4-1-0.8-2-0.8s-1.5,0.4-2,0.8c-0.4,0.3-0.7,0.6-1.5,0.6c-0.7,0-1-0.3-1.5-0.6c-0.5-0.4-1-0.8-2-0.8s-1.5,0.4-2,0.8
		c-0.2,0.2-0.5,0.4-0.8,0.5c-0.2,0.1-0.3,0.2-0.3,0.4v2.8c0,0.2-0.2,0.4-0.4,0.4c-0.2,0-0.4-0.2-0.4-0.4v-2.8c0-0.2-0.1-0.3-0.3-0.4
		c0-0.2-0.3-0.4-0.5-0.6C-8.6,77.5-9,77.1-9.8,77v-1.3C-9.8,74.8-9,74-8,74L-8,74z M-9.8,77.9c0.4,0.1,0.7,0.3,1,0.6
		c0.2,0.2,0.4,0.4,0.7,0.5v2.6c0,0.7,0.6,1.2,1.2,1.2s1.2-0.6,1.2-1.2V79c0.3-0.2,0.5-0.4,0.7-0.5c0.4-0.3,0.7-0.6,1.5-0.6
		c0.7,0,1,0.3,1.5,0.6c0.5,0.4,1,0.8,2,0.8s1.5-0.4,2-0.8c0.4-0.3,0.7-0.6,1.5-0.6c0.7,0,1,0.3,1.5,0.6c0.5,0.4,1,0.8,2,0.8
		s1.5-0.4,2-0.8c0.3-0.3,0.6-0.5,1-0.6v7.4H-9.8V77.9L-9.8,77.9z M11.5,86.7c-0.1,0.3-0.4,0.5-0.7,0.5h-21.2c-0.3,0-0.6-0.2-0.7-0.5
		l-0.2-0.6h22.8L11.5,86.7z"/>
	<path class="st1" d="M-1.4,67.4c0.1,0,0.2,0,0.3-0.1c0.2-0.2,0.2-0.4,0-0.6c-0.3-0.3-0.5-0.8-0.5-1.2c0-1,0.7-2,1.8-2.5
		C1.3,63.5,2,64.5,2,65.5c0,0.4-0.2,0.9-0.5,1.2c-0.2,0.2-0.1,0.4,0,0.6c0.2,0.2,0.4,0.1,0.6,0c0.4-0.5,0.7-1.1,0.7-1.7
		c0-1.3-1-2.7-2.5-3.3c-0.1,0-0.2,0-0.3,0c-1.4,0.6-2.5,2-2.5,3.3c0,0.6,0.2,1.3,0.7,1.7C-1.6,67.4-1.5,67.4-1.4,67.4z"/>
</g>
<g class="st0">
	<path class="st1" d="M2.6,48.4h2v7.9v1.6c0,1.4,1.2,2.6,2.6,2.6h6.4v3.7c0,0.5,0.4,1,1,1h0.1v1.2c0,0.2,0.2,0.4,0.4,0.4
		s0.4-0.2,0.4-0.4v-1.2h0.1c0.5,0,1-0.4,1-1v-3.7h6.8c1.4,0,2.6-1.2,2.6-2.6v-9.5h1.6c0.2,0,0.4-0.2,0.4-0.4s-0.2-0.4-0.4-0.4h-0.2
		l-0.2-0.8c-0.2-0.6-0.8-1.1-1.4-1.1H4.5c-0.6,0-1.3,0.5-1.4,1.1l-0.2,0.8H2.6c-0.2,0-0.4,0.2-0.4,0.4C2.2,48.2,2.3,48.4,2.6,48.4
		L2.6,48.4z M15.8,64.2c0,0.1-0.1,0.1-0.1,0.1h-1.1c-0.1,0-0.1-0.1-0.1-0.1v-3.7h1.4L15.8,64.2L15.8,64.2z M23.4,59.7H7.2
		c-1,0-1.8-0.8-1.8-1.8v-1.3c0.7-0.1,1.2-0.5,1.6-0.8s0.7-0.6,1.5-0.6s1,0.3,1.5,0.6c0.5,0.4,1,0.8,2,0.8s1.5-0.4,2-0.8
		c0.4-0.3,0.7-0.6,1.5-0.6c0.7,0,1,0.3,1.5,0.6c0.5,0.4,1,0.8,2,0.8s1.5-0.4,2-0.8c0.2-0.2,0.5-0.4,0.8-0.5c0.2-0.1,0.3-0.2,0.3-0.4
		v-2.8c0-0.2,0.2-0.4,0.4-0.4c0.2,0,0.4,0.2,0.4,0.4v2.8c0,0.2,0.1,0.3,0.3,0.4c0.3,0.1,0.5,0.3,0.8,0.5c0.4,0.3,0.8,0.7,1.6,0.8
		v1.3C25.1,58.9,24.3,59.7,23.4,59.7L23.4,59.7z M25.1,55.8c-0.4-0.1-0.7-0.3-1-0.6c-0.2-0.2-0.4-0.4-0.7-0.5v-2.6
		c0-0.7-0.6-1.2-1.2-1.2c-0.7,0-1.2,0.6-1.2,1.2v2.6c-0.3,0.2-0.5,0.4-0.7,0.5c-0.4,0.3-0.7,0.6-1.5,0.6c-0.7,0-1-0.3-1.5-0.6
		c-0.5-0.4-1-0.8-2-0.8s-1.5,0.4-2,0.8c-0.4,0.3-0.7,0.6-1.5,0.6c-0.7,0-1-0.3-1.5-0.6c-0.5-0.4-1-0.8-2-0.8s-1.5,0.4-2,0.8
		c-0.3,0.3-0.6,0.5-1,0.6v-7.4h19.8L25.1,55.8L25.1,55.8z M3.8,46.9c0.1-0.3,0.4-0.5,0.7-0.5h21.2c0.3,0,0.6,0.2,0.7,0.5l0.2,0.6
		H3.7L3.8,46.9z"/>
	<path class="st1" d="M16.7,66.2c-0.1,0-0.2,0-0.3,0.1c-0.2,0.2-0.2,0.4,0,0.6c0.3,0.3,0.5,0.8,0.5,1.2c0,1-0.7,2-1.8,2.5
		c-1.1-0.5-1.8-1.5-1.8-2.5c0-0.4,0.2-0.9,0.5-1.2c0.2-0.2,0.1-0.4,0-0.6c-0.2-0.2-0.4-0.1-0.6,0c-0.4,0.5-0.7,1.1-0.7,1.7
		c0,1.3,1,2.7,2.5,3.3c0.1,0,0.2,0,0.3,0c1.4-0.6,2.5-2,2.5-3.3c0-0.6-0.2-1.3-0.7-1.7C17,66.2,16.8,66.2,16.7,66.2z"/>
</g>
<g class="st0">
	<path class="st1" d="M43.1,85.3h-2v-7.9v-1.6c0-1.4-1.2-2.6-2.6-2.6h-6.4v-3.7c0-0.5-0.4-1-1-1H31v-1.2c0-0.2-0.2-0.4-0.4-0.4
		c-0.2,0-0.4,0.2-0.4,0.4v1.2h-0.1c-0.5,0-1,0.4-1,1v3.7h-6.8c-1.4,0-2.6,1.2-2.6,2.6v9.5h-1.6c-0.2,0-0.4,0.2-0.4,0.4
		c0,0.2,0.2,0.4,0.4,0.4h0.2l0.2,0.8c0.2,0.6,0.8,1.1,1.4,1.1h21.2c0.6,0,1.3-0.5,1.4-1.1l0.2-0.8h0.2c0.2,0,0.4-0.2,0.4-0.4
		C43.5,85.5,43.3,85.3,43.1,85.3L43.1,85.3z M29.9,69.4c0-0.1,0.1-0.1,0.1-0.1h1.1c0.1,0,0.1,0.1,0.1,0.1v3.7h-1.4L29.9,69.4
		L29.9,69.4z M22.3,74h16.2c1,0,1.8,0.8,1.8,1.8V77c-0.7,0.1-1.2,0.5-1.6,0.8c-0.4,0.3-0.7,0.6-1.5,0.6c-0.7,0-1-0.3-1.5-0.6
		c-0.5-0.4-1-0.8-2-0.8s-1.5,0.4-2,0.8c-0.4,0.3-0.7,0.6-1.5,0.6c-0.7,0-1-0.3-1.5-0.6c-0.5-0.4-1-0.8-2-0.8s-1.5,0.4-2,0.8
		c-0.2,0.2-0.5,0.4-0.8,0.5c-0.2,0.1-0.3,0.2-0.3,0.4v2.8c0,0.2-0.2,0.4-0.4,0.4c-0.2,0-0.4-0.2-0.4-0.4v-2.8c0-0.2-0.1-0.3-0.3-0.4
		c-0.3-0.1-0.5-0.3-0.8-0.5c-0.4-0.3-0.8-0.7-1.6-0.8v-1.3C20.6,74.8,21.4,74,22.3,74L22.3,74z M20.6,77.9c0.4,0.1,0.7,0.3,1,0.6
		c0.2,0.2,0.4,0.4,0.7,0.5v2.6c0,0.7,0.6,1.2,1.2,1.2c0.7,0,1.2-0.6,1.2-1.2V79c0.3-0.2,0.5-0.4,0.7-0.5c0.4-0.3,0.7-0.6,1.5-0.6
		c0.7,0,1,0.3,1.5,0.6c0.5,0.4,1,0.8,2,0.8s1.5-0.4,2-0.8c0.4-0.3,0.7-0.6,1.5-0.6c0.7,0,1,0.3,1.5,0.6c0.5,0.4,1,0.8,2,0.8
		s1.5-0.4,2-0.8c0.3-0.3,0.6-0.5,1-0.6v7.4H20.6V77.9L20.6,77.9z M41.9,86.7c-0.1,0.3-0.4,0.5-0.7,0.5H20c-0.3,0-0.6-0.2-0.7-0.5
		l-0.2-0.6H42L41.9,86.7z"/>
	<path class="st1" d="M29,67.4c0.1,0,0.2,0,0.3-0.1c0.2-0.2,0.2-0.4,0-0.6c-0.3-0.3-0.5-0.8-0.5-1.2c0-1,0.7-2,1.8-2.5
		c1.1,0.5,1.8,1.5,1.8,2.5c0,0.4-0.2,0.9-0.5,1.2c-0.2,0.2-0.1,0.4,0,0.6c0.2,0.2,0.4,0.1,0.6,0c0.4-0.5,0.7-1.1,0.7-1.7
		c0-1.3-1-2.7-2.5-3.3c-0.1,0-0.2,0-0.3,0c-1.4,0.6-2.5,2-2.5,3.3c0,0.6,0.2,1.3,0.7,1.7C28.7,67.4,28.9,67.4,29,67.4z"/>
</g>
<g class="st0">
	<path class="st1" d="M73.5,85.3h-2v-7.9v-1.6c0-1.4-1.2-2.6-2.6-2.6h-6.4v-3.7c0-0.5-0.4-1-1-1h-0.1v-1.2c0-0.2-0.2-0.4-0.4-0.4
		s-0.4,0.2-0.4,0.4v1.2h-0.1c-0.5,0-1,0.4-1,1v3.7h-6.8c-1.4,0-2.6,1.2-2.6,2.6v9.5h-1.6c-0.2,0-0.4,0.2-0.4,0.4
		c0,0.2,0.2,0.4,0.4,0.4h0.2l0.2,0.8c0.2,0.6,0.8,1.1,1.4,1.1h21.2c0.6,0,1.3-0.5,1.4-1.1l0.2-0.8h0.2c0.2,0,0.4-0.2,0.4-0.4
		C73.9,85.5,73.7,85.3,73.5,85.3L73.5,85.3z M60.3,69.4C60.3,69.3,60.4,69.3,60.3,69.4l1.2-0.1c0.1,0,0.1,0.1,0.1,0.1v3.7h-1.4v-3.7
		H60.3z M52.7,74h16.2c1,0,1.8,0.8,1.8,1.8V77c-0.7,0.1-1.2,0.5-1.6,0.8s-0.7,0.6-1.5,0.6s-1-0.3-1.5-0.6c-0.5-0.4-1-0.8-2-0.8
		s-1.5,0.4-2,0.8c-0.4,0.3-0.7,0.6-1.5,0.6c-0.7,0-1-0.3-1.5-0.6c-0.5-0.4-1-0.8-2-0.8s-1.5,0.4-2,0.8c-0.2,0.2-0.5,0.4-0.8,0.5
		c-0.2,0.1-0.3,0.2-0.3,0.4v2.8c0,0.2-0.2,0.4-0.4,0.4s-0.4-0.2-0.4-0.4v-2.8c0-0.2-0.1-0.3-0.3-0.4c-0.3-0.1-0.5-0.3-0.8-0.5
		c-0.4-0.3-0.8-0.7-1.6-0.8v-1.3C50.9,74.8,51.7,74,52.7,74L52.7,74z M50.9,77.9c0.4,0.1,0.7,0.3,1,0.6c0.2,0.2,0.4,0.4,0.7,0.5v2.6
		c0,0.7,0.6,1.2,1.2,1.2s1.2-0.6,1.2-1.2V79c0.3-0.2,0.5-0.4,0.7-0.5c0.4-0.3,0.7-0.6,1.5-0.6c0.7,0,1,0.3,1.5,0.6
		c0.5,0.4,1,0.8,2,0.8s1.5-0.4,2-0.8c0.4-0.3,0.7-0.6,1.5-0.6c0.7,0,1,0.3,1.5,0.6c0.5,0.4,1,0.8,2,0.8s1.5-0.4,2-0.8
		c0.3-0.3,0.6-0.5,1-0.6v7.4H50.9V77.9L50.9,77.9z M72.2,86.7c-0.1,0.3-0.4,0.5-0.7,0.5H50.4c-0.3,0-0.6-0.2-0.7-0.5l-0.2-0.6h22.8
		L72.2,86.7z"/>
	<path class="st1" d="M59.3,67.4c0.1,0,0.2,0,0.3-0.1c0.2-0.2,0.2-0.4,0-0.6c-0.3-0.3-0.5-0.8-0.5-1.2c0-1,0.7-2,1.8-2.5
		c1.1,0.5,1.8,1.5,1.8,2.5c0,0.4-0.2,0.9-0.5,1.2c-0.2,0.2-0.1,0.4,0,0.6c0.2,0.2,0.4,0.1,0.6,0c0.4-0.5,0.7-1.1,0.7-1.7
		c0-1.3-1-2.7-2.5-3.3c-0.1,0-0.2,0-0.3,0c-1.4,0.6-2.5,2-2.5,3.3c0,0.6,0.2,1.3,0.7,1.7C59.1,67.4,59.2,67.4,59.3,67.4z"/>
</g>
<g class="st0">
	<path class="st1" d="M63.3,48.4h2v7.9v1.6c0,1.4,1.2,2.6,2.6,2.6h6.4v3.7c0,0.5,0.4,1,1,1h0.1v1.2c0,0.2,0.2,0.4,0.4,0.4
		s0.4-0.2,0.4-0.4v-1.2h0.1c0.5,0,1-0.4,1-1v-3.7H84c1.4,0,2.6-1.2,2.6-2.6v-9.5h1.6c0.2,0,0.4-0.2,0.4-0.4s-0.2-0.4-0.4-0.4H88
		l-0.2-0.8c-0.2-0.6-0.8-1.1-1.4-1.1H65.2c-0.6,0-1.3,0.5-1.4,1.1l-0.2,0.8h-0.2c-0.2,0-0.4,0.2-0.4,0.4
		C62.9,48.2,63,48.4,63.3,48.4L63.3,48.4z M76.5,64.2C76.5,64.3,76.4,64.3,76.5,64.2l-1.2,0.1c-0.1,0-0.1-0.1-0.1-0.1v-3.7h1.4v3.7
		H76.5z M84,59.7H67.8c-1,0-1.8-0.8-1.8-1.8v-1.3c0.7-0.1,1.2-0.5,1.6-0.8s0.7-0.6,1.5-0.6c0.7,0,1,0.3,1.5,0.6c0.5,0.4,1,0.8,2,0.8
		s1.5-0.4,2-0.8c0.4-0.3,0.7-0.6,1.5-0.6c0.7,0,1,0.3,1.5,0.6c0.5,0.4,1,0.8,2,0.8s1.5-0.4,2-0.8c0.2-0.2,0.5-0.4,0.8-0.5
		c0.2-0.1,0.3-0.2,0.3-0.4v-2.8c0-0.2,0.2-0.4,0.4-0.4c0.2,0,0.4,0.2,0.4,0.4v2.8c0,0.2,0.1,0.3,0.3,0.4c0.3,0.1,0.5,0.3,0.8,0.5
		c0.4,0.3,0.8,0.7,1.6,0.8v1.3C85.8,58.9,85,59.7,84,59.7L84,59.7z M85.8,55.8c-0.4-0.1-0.7-0.3-1-0.6c-0.2-0.2-0.4-0.4-0.7-0.5
		v-2.6c0-0.7-0.6-1.2-1.2-1.2c-0.7,0-1.2,0.6-1.2,1.2v2.6c-0.3,0.2-0.5,0.4-0.7,0.5c-0.4,0.3-0.7,0.6-1.5,0.6c-0.7,0-1-0.3-1.5-0.6
		c-0.5-0.4-1-0.8-2-0.8s-1.5,0.4-2,0.8c-0.4,0.3-0.7,0.6-1.5,0.6c-0.7,0-1-0.3-1.5-0.6c-0.5-0.4-1-0.8-2-0.8s-1.5,0.4-2,0.8
		c-0.3,0.3-0.6,0.5-1,0.6v-7.4h19.8L85.8,55.8L85.8,55.8z M64.5,46.9c0.1-0.3,0.4-0.5,0.7-0.5h21.2c0.3,0,0.6,0.2,0.7,0.5l0.2,0.6
		H64.4L64.5,46.9z"/>
	<path class="st1" d="M77.4,66.2c-0.1,0-0.2,0-0.3,0.1c-0.2,0.2-0.2,0.4,0,0.6c0.3,0.3,0.5,0.8,0.5,1.2c0,1-0.7,2-1.8,2.5
		C74.7,70.1,74,69,74,68.1c0-0.4,0.2-0.9,0.5-1.2c0.2-0.2,0.1-0.4,0-0.6c-0.2-0.2-0.4-0.1-0.6,0c-0.4,0.5-0.7,1.1-0.7,1.7
		c0,1.3,1,2.7,2.5,3.3c0.1,0,0.2,0,0.3,0c1.4-0.6,2.5-2,2.5-3.3c0-0.6-0.2-1.3-0.7-1.7C77.6,66.2,77.5,66.2,77.4,66.2z"/>
</g>
<g class="st0">
	<path class="st1" d="M103.8,85.3h-2v-7.9v-1.6c0-1.4-1.2-2.6-2.6-2.6h-6.4v-3.7c0-0.5-0.4-1-1-1h-0.1v-1.2c0-0.2-0.2-0.4-0.4-0.4
		s-0.4,0.2-0.4,0.4v1.2h-0.1c-0.5,0-1,0.4-1,1v3.7H83c-1.4,0-2.6,1.2-2.6,2.6v9.5h-1.6c-0.2,0-0.4,0.2-0.4,0.4
		c0,0.2,0.2,0.4,0.4,0.4H79l0.2,0.8c0.2,0.6,0.8,1.1,1.4,1.1h21.2c0.6,0,1.3-0.5,1.4-1.1l0.2-0.8h0.2c0.2,0,0.4-0.2,0.4-0.4
		C104.2,85.5,104,85.3,103.8,85.3L103.8,85.3z M90.6,69.4C90.6,69.3,90.7,69.3,90.6,69.4l1.2-0.1c0.1,0,0.1,0.1,0.1,0.1v3.7h-1.4
		v-3.7H90.6z M83,74h16.2c1,0,1.8,0.8,1.8,1.8V77c-0.7,0.1-1.2,0.5-1.6,0.8s-0.7,0.6-1.5,0.6c-0.7,0-1-0.3-1.5-0.6
		c-0.5-0.4-1-0.8-2-0.8s-1.5,0.4-2,0.8c-0.4,0.3-0.7,0.6-1.5,0.6c-0.7,0-1-0.3-1.5-0.6c-0.5-0.4-1-0.8-2-0.8s-1.5,0.4-2,0.8
		c-0.2,0.2-0.5,0.4-0.8,0.5c-0.2,0.1-0.3,0.2-0.3,0.4v2.8c0,0.2-0.2,0.4-0.4,0.4c-0.2,0-0.4-0.2-0.4-0.4v-2.8c0-0.2-0.1-0.3-0.3-0.4
		c-0.3-0.1-0.5-0.3-0.8-0.5c-0.4-0.3-0.8-0.7-1.6-0.8v-1.3C81.2,74.8,82,74,83,74L83,74z M81.2,77.9c0.4,0.1,0.7,0.3,1,0.6
		c0.2,0.2,0.4,0.4,0.7,0.5v2.6c0,0.7,0.6,1.2,1.2,1.2c0.7,0,1.2-0.6,1.2-1.2V79c0.3-0.2,0.5-0.4,0.7-0.5c0.4-0.3,0.7-0.6,1.5-0.6
		c0.7,0,1,0.3,1.5,0.6c0.5,0.4,1,0.8,2,0.8s1.5-0.4,2-0.8c0.4-0.3,0.7-0.6,1.5-0.6c0.7,0,1,0.3,1.5,0.6c0.5,0.4,1,0.8,2,0.8
		s1.5-0.4,2-0.8c0.3-0.3,0.6-0.5,1-0.6v7.4H81.2V77.9L81.2,77.9z M102.5,86.7c-0.1,0.3-0.4,0.5-0.7,0.5H80.7c-0.3,0-0.6-0.2-0.7-0.5
		l-0.2-0.6h22.8L102.5,86.7z"/>
	<path class="st1" d="M89.7,67.4c0.1,0,0.2,0,0.3-0.1c0.2-0.2,0.2-0.4,0-0.6c-0.3-0.3-0.5-0.8-0.5-1.2c0-1,0.7-2,1.8-2.5
		c1.1,0.5,1.8,1.5,1.8,2.5c0,0.4-0.2,0.9-0.5,1.2c-0.2,0.2-0.1,0.4,0,0.6c0.2,0.2,0.4,0.1,0.6,0c0.4-0.5,0.7-1.1,0.7-1.7
		c0-1.3-1-2.7-2.5-3.3c-0.1,0-0.2,0-0.3,0c-1.4,0.6-2.5,2-2.5,3.3c0,0.6,0.2,1.3,0.7,1.7C89.4,67.4,89.5,67.4,89.7,67.4z"/>
</g>
<g class="st0">
	<path class="st1" d="M93.6,48.4h2v7.9v1.6c0,1.4,1.2,2.6,2.6,2.6h6.4v3.7c0,0.5,0.4,1,1,1h0.1v1.2c0,0.2,0.2,0.4,0.4,0.4
		s0.4-0.2,0.4-0.4v-1.2h0.1c0.5,0,1-0.4,1-1v-3.7h6.8c1.4,0,2.6-1.2,2.6-2.6v-9.5h1.6c0.2,0,0.4-0.2,0.4-0.4s-0.2-0.4-0.4-0.4h-0.2
		l-0.2-0.8c-0.2-0.6-0.8-1.1-1.4-1.1H95.5c-0.6,0-1.3,0.5-1.4,1.1l-0.2,0.8h-0.2c-0.2,0-0.4,0.2-0.4,0.4
		C93.2,48.2,93.4,48.4,93.6,48.4L93.6,48.4z M106.8,64.2C106.8,64.3,106.7,64.3,106.8,64.2l-1.2,0.1c-0.1,0-0.1-0.1-0.1-0.1v-3.7
		h1.4v3.7H106.8z M114.4,59.7H98.2c-1,0-1.8-0.8-1.8-1.8v-1.3c0.7-0.1,1.2-0.5,1.6-0.8s0.7-0.6,1.5-0.6c0.7,0,1,0.3,1.5,0.6
		c0.5,0.4,1,0.8,2,0.8s1.5-0.4,2-0.8c0.4-0.3,0.7-0.6,1.5-0.6c0.7,0,1,0.3,1.5,0.6c0.5,0.4,1,0.8,2,0.8s1.5-0.4,2-0.8
		c0.2-0.2,0.5-0.4,0.8-0.5c0.2-0.1,0.3-0.2,0.3-0.4v-2.8c0-0.2,0.2-0.4,0.4-0.4c0.2,0,0.4,0.2,0.4,0.4v2.8c0,0.2,0.1,0.3,0.3,0.4
		c0.3,0.1,0.5,0.3,0.8,0.5c0.4,0.3,0.8,0.7,1.6,0.8v1.3C116.2,58.9,115.4,59.7,114.4,59.7L114.4,59.7z M116.2,55.8
		c-0.4-0.1-0.7-0.3-1-0.6c-0.2-0.2-0.4-0.4-0.7-0.5v-2.6c0-0.7-0.6-1.2-1.2-1.2c-0.7,0-1.2,0.6-1.2,1.2v2.6
		c-0.3,0.2-0.5,0.4-0.7,0.5c-0.4,0.3-0.7,0.6-1.5,0.6c-0.7,0-1-0.3-1.5-0.6c-0.5-0.4-1-0.8-2-0.8s-1.5,0.4-2,0.8
		c-0.4,0.3-0.7,0.6-1.5,0.6c-0.7,0-1-0.3-1.5-0.6c-0.5-0.4-1-0.8-2-0.8s-1.5,0.4-2,0.8c-0.3,0.3-0.6,0.5-1,0.6v-7.4h19.8L116.2,55.8
		L116.2,55.8z M94.9,46.9c0.1-0.3,0.4-0.5,0.7-0.5h21.2c0.3,0,0.6,0.2,0.7,0.5l0.2,0.6h-23L94.9,46.9z"/>
	<path class="st1" d="M107.8,66.2c-0.1,0-0.2,0-0.3,0.1c-0.2,0.2-0.2,0.4,0,0.6c0.3,0.3,0.5,0.8,0.5,1.2c0,1-0.7,2-1.8,2.5
		c-1.1-0.5-1.8-1.5-1.8-2.5c0-0.4,0.2-0.9,0.5-1.2c0.2-0.2,0.1-0.4,0-0.6c-0.2-0.2-0.4-0.1-0.6,0c-0.4,0.5-0.7,1.1-0.7,1.7
		c0,1.3,1,2.7,2.5,3.3c0.1,0,0.2,0,0.3,0c1.4-0.6,2.5-2,2.5-3.3c0-0.6-0.2-1.3-0.7-1.7C108,66.2,107.9,66.2,107.8,66.2z"/>
</g>
<g class="st0">
	<path class="st1" d="M124,48.4h2v7.9v1.6c0,1.4,1.2,2.6,2.6,2.6h6.4v3.7c0,0.5,0.4,1,1,1h0.1v1.2c0,0.2,0.2,0.4,0.4,0.4
		s0.4-0.2,0.4-0.4v-1.2h0.1c0.5,0,1-0.4,1-1v-3.7h6.8c1.4,0,2.6-1.2,2.6-2.6v-9.5h1.6c0.2,0,0.4-0.2,0.4-0.4s-0.2-0.4-0.4-0.4h-0.2
		l-0.2-0.8c-0.2-0.6-0.8-1.1-1.4-1.1H126c-0.6,0-1.3,0.5-1.4,1.1l-0.2,0.8H124c-0.2,0-0.4,0.2-0.4,0.4
		C123.5,48.2,123.7,48.4,124,48.4L124,48.4z M137.2,64.2c0,0.1-0.1,0.1-0.1,0.1H136c-0.1,0-0.1-0.1-0.1-0.1v-3.7h1.4L137.2,64.2
		L137.2,64.2z M144.7,59.7h-16.2c-1,0-1.8-0.8-1.8-1.8v-1.3c0.7-0.1,1.2-0.5,1.6-0.8c0.4-0.3,0.7-0.6,1.5-0.6s1,0.3,1.5,0.6
		c0.5,0.4,1,0.8,2,0.8s1.5-0.4,2-0.8c0.4-0.3,0.7-0.6,1.5-0.6c0.7,0,1,0.3,1.5,0.6c0.5,0.4,1,0.8,2,0.8s1.5-0.4,2-0.8
		c0.2-0.2,0.5-0.4,0.8-0.5c0.2-0.1,0.3-0.2,0.3-0.4v-2.8c0-0.2,0.2-0.4,0.4-0.4s0.4,0.2,0.4,0.4v2.8c0,0.2,0.1,0.3,0.3,0.4
		c0.3,0.1,0.5,0.3,0.8,0.5c0.4,0.3,0.8,0.7,1.6,0.8v1.3C146.5,58.9,145.7,59.7,144.7,59.7L144.7,59.7z M146.5,55.8
		c-0.4-0.1-0.7-0.3-1-0.6c-0.2-0.2-0.4-0.4-0.7-0.5v-2.6c0-0.7-0.6-1.2-1.2-1.2c-0.7,0-1.2,0.6-1.2,1.2v2.6
		c-0.3,0.2-0.5,0.4-0.7,0.5c-0.4,0.3-0.7,0.6-1.5,0.6c-0.7,0-1-0.3-1.5-0.6c-0.5-0.4-1-0.8-2-0.8s-1.5,0.4-2,0.8
		c-0.4,0.3-0.7,0.6-1.5,0.6c-0.7,0-1-0.3-1.5-0.6c-0.5-0.4-1-0.8-2-0.8s-1.5,0.4-2,0.8c-0.3,0.3-0.6,0.5-1,0.6v-7.4h19.8L146.5,55.8
		L146.5,55.8z M125.2,46.9c0.1-0.3,0.4-0.5,0.7-0.5H147c0.3,0,0.6,0.2,0.7,0.5l0.2,0.6h-22.8L125.2,46.9z"/>
	<path class="st1" d="M138.1,66.2c-0.1,0-0.2,0-0.3,0.1c-0.2,0.2-0.2,0.4,0,0.6c0.3,0.3,0.5,0.8,0.5,1.2c0,1-0.7,2-1.8,2.5
		c-1.1-0.5-1.8-1.5-1.8-2.5c0-0.4,0.2-0.9,0.5-1.2c0.2-0.2,0.1-0.4,0-0.6c-0.2-0.2-0.4-0.1-0.6,0c-0.4,0.5-0.7,1.1-0.7,1.7
		c0,1.3,1,2.7,2.5,3.3c0.1,0,0.2,0,0.3,0c1.4-0.6,2.5-2,2.5-3.3c0-0.6-0.2-1.3-0.7-1.7C138.3,66.2,138.2,66.2,138.1,66.2z"/>
</g>
<g class="st0">
	<path class="st1" d="M164.5,85.3h-2v-7.9v-1.6c0-1.4-1.2-2.6-2.6-2.6h-6.4v-3.7c0-0.5-0.4-1-1-1h-0.1v-1.2c0-0.2-0.2-0.4-0.4-0.4
		s-0.4,0.2-0.4,0.4v1.2h-0.1c-0.5,0-1,0.4-1,1v3.7h-6.8c-1.4,0-2.6,1.2-2.6,2.6v9.5h-1.6c-0.2,0-0.4,0.2-0.4,0.4
		c0,0.2,0.2,0.4,0.4,0.4h0.2l0.2,0.8c0.2,0.6,0.8,1.1,1.4,1.1h21.2c0.6,0,1.3-0.5,1.4-1.1l0.2-0.8h0.2c0.2,0,0.4-0.2,0.4-0.4
		C164.9,85.5,164.7,85.3,164.5,85.3L164.5,85.3z M151.3,69.4c0-0.1,0.1-0.1,0.1-0.1h1.1c0.1,0,0.1,0.1,0.1,0.1v3.7h-1.4L151.3,69.4
		L151.3,69.4z M143.7,74h16.2c1,0,1.8,0.8,1.8,1.8V77c-0.7,0.1-1.2,0.5-1.6,0.8c-0.4,0.3-0.7,0.6-1.5,0.6c-0.7,0-1-0.3-1.5-0.6
		c-0.5-0.4-1-0.8-2-0.8s-1.5,0.4-2,0.8c-0.4,0.3-0.7,0.6-1.5,0.6c-0.7,0-1-0.3-1.5-0.6c-0.5-0.4-1-0.8-2-0.8s-1.5,0.4-2,0.8
		c-0.2,0.2-0.5,0.4-0.8,0.5c-0.2,0.1-0.3,0.2-0.3,0.4v2.8c0,0.2-0.2,0.4-0.4,0.4s-0.4-0.2-0.4-0.4v-2.8c0-0.2-0.1-0.3-0.3-0.4
		c-0.3-0.1-0.5-0.3-0.8-0.5c-0.4-0.3-0.8-0.7-1.6-0.8v-1.3C141.9,74.8,142.7,74,143.7,74L143.7,74z M141.9,77.9
		c0.4,0.1,0.7,0.3,1,0.6c0.2,0.2,0.4,0.4,0.7,0.5v2.6c0,0.7,0.6,1.2,1.2,1.2s1.2-0.6,1.2-1.2V79c0.3-0.2,0.5-0.4,0.7-0.5
		c0.4-0.3,0.7-0.6,1.5-0.6c0.7,0,1,0.3,1.5,0.6c0.5,0.4,1,0.8,2,0.8s1.5-0.4,2-0.8c0.4-0.3,0.7-0.6,1.5-0.6c0.7,0,1,0.3,1.5,0.6
		c0.5,0.4,1,0.8,2,0.8s1.5-0.4,2-0.8c0.3-0.3,0.6-0.5,1-0.6v7.4h-19.8L141.9,77.9L141.9,77.9z M163.2,86.7c-0.1,0.3-0.4,0.5-0.7,0.5
		h-21.2c-0.3,0-0.6-0.2-0.7-0.5l-0.2-0.6h22.8L163.2,86.7z"/>
	<path class="st1" d="M150.4,67.4c0.1,0,0.2,0,0.3-0.1c0.2-0.2,0.2-0.4,0-0.6c-0.3-0.3-0.5-0.8-0.5-1.2c0-1,0.7-2,1.8-2.5
		c1.1,0.5,1.8,1.5,1.8,2.5c0,0.4-0.2,0.9-0.5,1.2c-0.2,0.2-0.1,0.4,0,0.6c0.2,0.2,0.4,0.1,0.6,0c0.4-0.5,0.7-1.1,0.7-1.7
		c0-1.3-1-2.7-2.5-3.3c-0.1,0-0.2,0-0.3,0c-1.4,0.6-2.5,2-2.5,3.3c0,0.6,0.2,1.3,0.7,1.7C150.1,67.4,150.2,67.4,150.4,67.4z"/>
</g>
<g class="st0">
	<path class="st1" d="M154.3,48.4h2v7.9v1.6c0,1.4,1.2,2.6,2.6,2.6h6.4v3.7c0,0.5,0.4,1,1,1h0.1v1.2c0,0.2,0.2,0.4,0.4,0.4
		s0.4-0.2,0.4-0.4v-1.2h0.1c0.5,0,1-0.4,1-1v-3.7h6.8c1.4,0,2.6-1.2,2.6-2.6v-9.5h1.6c0.2,0,0.4-0.2,0.4-0.4s-0.2-0.4-0.4-0.4h-0.2
		l-0.2-0.8c-0.2-0.6-0.8-1.1-1.4-1.1h-21.2c-0.6,0-1.3,0.5-1.4,1.1l-0.2,0.8h-0.2c-0.2,0-0.4,0.2-0.4,0.4
		C153.9,48.2,154.1,48.4,154.3,48.4L154.3,48.4z M167.5,64.2c0,0.1-0.1,0.1-0.1,0.1h-1.1c-0.1,0-0.1-0.1-0.1-0.1v-3.7h1.4
		L167.5,64.2L167.5,64.2z M175.1,59.7h-16.2c-1,0-1.8-0.8-1.8-1.8v-1.3c0.7-0.1,1.2-0.5,1.6-0.8c0.4-0.3,0.7-0.6,1.5-0.6
		c0.7,0,1,0.3,1.5,0.6c0.5,0.4,1,0.8,2,0.8s1.5-0.4,2-0.8c0.4-0.3,0.7-0.6,1.5-0.6c0.7,0,1,0.3,1.5,0.6c0.5,0.4,1,0.8,2,0.8
		s1.5-0.4,2-0.8c0.2-0.2,0.5-0.4,0.8-0.5c0.2-0.1,0.3-0.2,0.3-0.4v-2.8c0-0.2,0.2-0.4,0.4-0.4s0.4,0.2,0.4,0.4v2.8
		c0,0.2,0.1,0.3,0.3,0.4c0.3,0.1,0.5,0.3,0.8,0.5c0.4,0.3,0.8,0.7,1.6,0.8v1.3C176.9,58.9,176.1,59.7,175.1,59.7L175.1,59.7z
		 M176.9,55.8c-0.4-0.1-0.7-0.3-1-0.6c-0.2-0.2-0.4-0.4-0.7-0.5v-2.6c0-0.7-0.6-1.2-1.2-1.2s-1.2,0.6-1.2,1.2v2.6
		c-0.3,0.2-0.5,0.4-0.7,0.5c-0.4,0.3-0.7,0.6-1.5,0.6c-0.7,0-1-0.3-1.5-0.6c-0.5-0.4-1-0.8-2-0.8s-1.5,0.4-2,0.8
		c-0.4,0.3-0.7,0.6-1.5,0.6c-0.7,0-1-0.3-1.5-0.6c-0.5-0.4-1-0.8-2-0.8s-1.5,0.4-2,0.8c-0.3,0.3-0.6,0.5-1,0.6v-7.4h19.8L176.9,55.8
		L176.9,55.8z M155.6,46.9c0.1-0.3,0.4-0.5,0.7-0.5h21.2c0.3,0,0.6,0.2,0.7,0.5l0.2,0.6h-22.8L155.6,46.9z"/>
	<path class="st1" d="M168.5,66.2c-0.1,0-0.2,0-0.3,0.1c-0.2,0.2-0.2,0.4,0,0.6c0.3,0.3,0.5,0.8,0.5,1.2c0,1-0.7,2-1.8,2.5
		c-1.1-0.5-1.8-1.5-1.8-2.5c0-0.4,0.2-0.9,0.5-1.2c0.2-0.2,0.1-0.4,0-0.6c-0.2-0.2-0.4-0.1-0.6,0c-0.4,0.5-0.7,1.1-0.7,1.7
		c0,1.3,1,2.7,2.5,3.3c0.1,0,0.2,0,0.3,0c1.4-0.6,2.5-2,2.5-3.3c0-0.6-0.2-1.3-0.7-1.7C168.7,66.2,168.6,66.2,168.5,66.2z"/>
</g>
<g class="st0">
	<g>
		<path class="st1" d="M112.1,130.1c0-0.4,0.1-0.6,0.4-0.9c0.3-0.4,0.8-0.9,0.8-2c0-1-0.4-1.6-0.8-2c-0.3-0.3-0.4-0.5-0.4-0.9
			s0.1-0.6,0.4-0.9c0.3-0.4,0.8-0.9,0.8-2s-0.4-1.6-0.8-2c-0.3-0.3-0.4-0.5-0.4-0.9s0.1-0.6,0.4-0.9c0.3-0.4,0.8-0.9,0.8-2
			s-0.4-1.5-0.8-2l0,0c-0.1-0.1-0.3-0.1-0.4-0.1l-0.4,0.3l0,0l-0.4,0.3c-0.1,0.1-0.1,0.3-0.1,0.4c0.3,0.3,0.4,0.5,0.4,0.9
			s-0.1,0.6-0.4,0.9c-0.3,0.4-0.8,0.9-0.8,2s0.4,1.6,0.8,2c0.3,0.3,0.4,0.5,0.4,0.9s-0.1,0.6-0.4,0.9c-0.3,0.4-0.8,0.9-0.8,2
			s0.4,1.6,0.8,2c0.3,0.3,0.4,0.5,0.4,0.9s-0.1,0.6-0.4,0.9c-0.3,0.4-0.8,0.9-0.8,2c0,1,0.4,1.6,0.8,2c0.1,0.1,0.1,0.1,0.2,0.1
			s0.1,0,0.2-0.1l0.9-0.7c0.1-0.1,0.1-0.1,0.1-0.2c0-0.1,0-0.2-0.1-0.2C112.2,130.7,112.1,130.5,112.1,130.1L112.1,130.1z
			 M111.8,131.1l-0.4,0.3c-0.2-0.3-0.4-0.7-0.4-1.4c0-0.8,0.3-1.2,0.6-1.6c0.3-0.3,0.5-0.6,0.5-1.3s-0.2-0.9-0.5-1.3
			s-0.6-0.8-0.6-1.6s0.3-1.2,0.6-1.6c0.3-0.3,0.5-0.6,0.5-1.3s-0.2-0.9-0.5-1.3s-0.6-0.8-0.6-1.6c0-0.8,0.3-1.2,0.6-1.6
			c0.3-0.3,0.5-0.6,0.5-1.3c0-0.5-0.1-0.8-0.3-1l0.4-0.3c0.2,0.3,0.4,0.7,0.4,1.4c0,0.8-0.3,1.2-0.6,1.6c-0.3,0.3-0.5,0.6-0.5,1.3
			s0.2,0.9,0.5,1.3s0.6,0.8,0.6,1.6c0,0.8-0.3,1.2-0.6,1.6c-0.3,0.3-0.5,0.6-0.5,1.3s0.2,0.9,0.5,1.3s0.6,0.8,0.6,1.6
			s-0.3,1.2-0.6,1.6c-0.3,0.3-0.5,0.6-0.5,1.3C111.5,130.6,111.6,130.9,111.8,131.1L111.8,131.1z"/>
		<path class="st1" d="M108.8,126.4c-0.5,0-0.9,0.4-0.9,0.9s0.4,0.9,0.9,0.9s0.9-0.4,0.9-0.9C109.6,126.8,109.2,126.4,108.8,126.4z
			 M108.8,127.5c-0.2,0-0.3-0.1-0.3-0.3c0-0.1,0.1-0.3,0.3-0.3s0.3,0.1,0.3,0.3C109,127.4,108.9,127.5,108.8,127.5z"/>
		<path class="st1" d="M115,123.6c-0.5,0-0.9,0.4-0.9,0.9s0.4,0.9,0.9,0.9s0.9-0.4,0.9-0.9C115.9,123.9,115.5,123.6,115,123.6z
			 M115,124.7c-0.2,0-0.3-0.1-0.3-0.3s0.1-0.3,0.3-0.3s0.3,0.1,0.3,0.3S115.1,124.7,115,124.7z"/>
		<path class="st1" d="M108.8,120.7c-0.5,0-0.9,0.4-0.9,0.9s0.4,0.9,0.9,0.9s0.9-0.4,0.9-0.9C109.6,121.1,109.2,120.7,108.8,120.7z
			 M108.8,121.9c-0.2,0-0.3-0.1-0.3-0.3c0-0.2,0.1-0.3,0.3-0.3s0.3,0.1,0.3,0.3C109.1,121.7,108.9,121.9,108.8,121.9z"/>
		<path class="st1" d="M115,129.3c-0.5,0-0.9,0.4-0.9,0.9s0.4,0.9,0.9,0.9s0.9-0.4,0.9-0.9S115.5,129.3,115,129.3z M115,130.4
			c-0.2,0-0.3-0.1-0.3-0.3s0.1-0.3,0.3-0.3s0.3,0.1,0.3,0.3S115.1,130.4,115,130.4z"/>
		<path class="st1" d="M115,118c-0.5,0-0.9,0.4-0.9,0.9s0.4,0.9,0.9,0.9s0.9-0.4,0.9-0.9S115.5,118,115,118z M115,119.1
			c-0.2,0-0.3-0.1-0.3-0.3c0-0.2,0.1-0.3,0.3-0.3s0.3,0.1,0.3,0.3S115.1,119.1,115,119.1z"/>
	</g>
	<g>
		<path class="st1" d="M120.8,130.1c0-0.4,0.1-0.6,0.4-0.9c0.3-0.4,0.8-0.9,0.8-2c0-1-0.4-1.6-0.8-2c-0.3-0.3-0.4-0.5-0.4-0.9
			s0.1-0.6,0.4-0.9c0.3-0.4,0.8-0.9,0.8-2s-0.4-1.6-0.8-2c-0.3-0.3-0.4-0.5-0.4-0.9s0.1-0.6,0.4-0.9c0.3-0.4,0.8-0.9,0.8-2
			s-0.4-1.5-0.8-2l0,0c-0.1-0.1-0.3-0.1-0.4-0.1l-0.4,0.3l0,0l-0.4,0.3c-0.1,0.1-0.1,0.3-0.1,0.4c0.3,0.3,0.4,0.5,0.4,0.9
			s-0.1,0.6-0.4,0.9c-0.3,0.4-0.8,0.9-0.8,2s0.4,1.6,0.8,2c0.3,0.3,0.4,0.5,0.4,0.9s-0.1,0.6-0.4,0.9c-0.3,0.4-0.8,0.9-0.8,2
			s0.4,1.6,0.8,2c0.3,0.3,0.4,0.5,0.4,0.9s-0.1,0.6-0.4,0.9c-0.3,0.4-0.8,0.9-0.8,2c0,1,0.4,1.6,0.8,2c0.1,0.1,0.1,0.1,0.2,0.1
			s0.1,0,0.2-0.1l0.9-0.7c0.1-0.1,0.1-0.1,0.1-0.2c0-0.1,0-0.2-0.1-0.2C120.9,130.7,120.8,130.5,120.8,130.1L120.8,130.1z
			 M120.5,131.1l-0.4,0.3c-0.2-0.3-0.4-0.7-0.4-1.4c0-0.8,0.3-1.2,0.6-1.6c0.3-0.3,0.5-0.6,0.5-1.3s-0.2-0.9-0.5-1.3
			s-0.6-0.8-0.6-1.6s0.3-1.2,0.6-1.6c0.3-0.3,0.5-0.6,0.5-1.3s-0.2-0.9-0.5-1.3s-0.6-0.8-0.6-1.6c0-0.8,0.3-1.2,0.6-1.6
			c0.3-0.3,0.5-0.6,0.5-1.3c0-0.5-0.1-0.8-0.3-1l0.4-0.3c0.2,0.3,0.4,0.7,0.4,1.4c0,0.8-0.3,1.2-0.6,1.6c-0.3,0.3-0.5,0.6-0.5,1.3
			s0.2,0.9,0.5,1.3s0.6,0.8,0.6,1.6c0,0.8-0.3,1.2-0.6,1.6c-0.3,0.3-0.5,0.6-0.5,1.3s0.2,0.9,0.5,1.3s0.6,0.8,0.6,1.6
			s-0.3,1.2-0.6,1.6c-0.3,0.3-0.5,0.6-0.5,1.3C120.2,130.6,120.3,130.9,120.5,131.1L120.5,131.1z"/>
		<path class="st1" d="M117.4,126.4c-0.5,0-0.9,0.4-0.9,0.9s0.4,0.9,0.9,0.9s0.9-0.4,0.9-0.9C118.3,126.8,117.9,126.4,117.4,126.4z
			 M117.4,127.5c-0.2,0-0.3-0.1-0.3-0.3c0-0.1,0.1-0.3,0.3-0.3s0.3,0.1,0.3,0.3C117.7,127.4,117.6,127.5,117.4,127.5z"/>
		<path class="st1" d="M123.7,123.6c-0.5,0-0.9,0.4-0.9,0.9s0.4,0.9,0.9,0.9s0.9-0.4,0.9-0.9C124.6,123.9,124.2,123.6,123.7,123.6z
			 M123.7,124.7c-0.2,0-0.3-0.1-0.3-0.3s0.1-0.3,0.3-0.3c0.1,0,0.3,0.1,0.3,0.3S123.8,124.7,123.7,124.7z"/>
		<path class="st1" d="M117.4,120.7c-0.5,0-0.9,0.4-0.9,0.9s0.4,0.9,0.9,0.9s0.9-0.4,0.9-0.9S117.9,120.7,117.4,120.7z M117.4,121.9
			c-0.2,0-0.3-0.1-0.3-0.3c0-0.2,0.1-0.3,0.3-0.3s0.3,0.1,0.3,0.3C117.8,121.7,117.6,121.9,117.4,121.9z"/>
		<path class="st1" d="M123.7,129.3c-0.5,0-0.9,0.4-0.9,0.9s0.4,0.9,0.9,0.9s0.9-0.4,0.9-0.9S124.2,129.3,123.7,129.3z M123.7,130.4
			c-0.2,0-0.3-0.1-0.3-0.3s0.1-0.3,0.3-0.3c0.1,0,0.3,0.1,0.3,0.3S123.8,130.4,123.7,130.4z"/>
		<path class="st1" d="M123.7,118c-0.5,0-0.9,0.4-0.9,0.9s0.4,0.9,0.9,0.9s0.9-0.4,0.9-0.9S124.2,118,123.7,118z M123.7,119.1
			c-0.2,0-0.3-0.1-0.3-0.3c0-0.2,0.1-0.3,0.3-0.3c0.1,0,0.3,0.1,0.3,0.3S123.8,119.1,123.7,119.1z"/>
	</g>
	<g>
		<path class="st1" d="M129.5,130.1c0-0.4,0.1-0.6,0.4-0.9c0.3-0.4,0.8-0.9,0.8-2c0-1-0.4-1.6-0.8-2c-0.3-0.3-0.4-0.5-0.4-0.9
			s0.1-0.6,0.4-0.9c0.3-0.4,0.8-0.9,0.8-2s-0.4-1.6-0.8-2c-0.3-0.3-0.4-0.5-0.4-0.9s0.1-0.6,0.4-0.9c0.3-0.4,0.8-0.9,0.8-2
			s-0.4-1.5-0.8-2l0,0c-0.1-0.1-0.3-0.1-0.4-0.1l-0.4,0.3l0,0l-0.4,0.3c-0.1,0.1-0.1,0.3-0.1,0.4c0.3,0.3,0.4,0.5,0.4,0.9
			s-0.1,0.6-0.4,0.9c-0.3,0.4-0.8,0.9-0.8,2s0.4,1.6,0.8,2c0.3,0.3,0.4,0.5,0.4,0.9s-0.1,0.6-0.4,0.9c-0.3,0.4-0.8,0.9-0.8,2
			s0.4,1.6,0.8,2c0.3,0.3,0.4,0.5,0.4,0.9s-0.1,0.6-0.4,0.9c-0.3,0.4-0.8,0.9-0.8,2c0,1,0.4,1.6,0.8,2c0.1,0.1,0.1,0.1,0.2,0.1
			c0.1,0,0.1,0,0.2-0.1l0.9-0.7c0.1-0.1,0.1-0.1,0.1-0.2c0-0.1,0-0.2-0.1-0.2C129.6,130.7,129.5,130.5,129.5,130.1L129.5,130.1z
			 M129.2,131.1l-0.4,0.3c-0.2-0.3-0.4-0.7-0.4-1.4c0-0.8,0.3-1.2,0.6-1.6c0.3-0.3,0.5-0.6,0.5-1.3s-0.2-0.9-0.5-1.3
			s-0.6-0.8-0.6-1.6s0.3-1.2,0.6-1.6c0.3-0.3,0.5-0.6,0.5-1.3s-0.2-0.9-0.5-1.3s-0.6-0.8-0.6-1.6c0-0.8,0.3-1.2,0.6-1.6
			c0.3-0.3,0.5-0.6,0.5-1.3c0-0.5-0.1-0.8-0.3-1l0.4-0.3c0.2,0.3,0.4,0.7,0.4,1.4c0,0.8-0.3,1.2-0.6,1.6c-0.3,0.3-0.5,0.6-0.5,1.3
			s0.2,0.9,0.5,1.3s0.6,0.8,0.6,1.6c0,0.8-0.3,1.2-0.6,1.6c-0.3,0.3-0.5,0.6-0.5,1.3s0.2,0.9,0.5,1.3s0.6,0.8,0.6,1.6
			s-0.3,1.2-0.6,1.6c-0.3,0.3-0.5,0.6-0.5,1.3C128.9,130.6,129,130.9,129.2,131.1L129.2,131.1z"/>
		<path class="st1" d="M126.1,126.4c-0.5,0-0.9,0.4-0.9,0.9s0.4,0.9,0.9,0.9s0.9-0.4,0.9-0.9C127,126.8,126.6,126.4,126.1,126.4z
			 M126.1,127.5c-0.2,0-0.3-0.1-0.3-0.3c0-0.1,0.1-0.3,0.3-0.3s0.3,0.1,0.3,0.3S126.3,127.5,126.1,127.5z"/>
		<path class="st1" d="M132.4,123.6c-0.5,0-0.9,0.4-0.9,0.9s0.4,0.9,0.9,0.9s0.9-0.4,0.9-0.9C133.3,123.9,132.9,123.6,132.4,123.6z
			 M132.4,124.7c-0.2,0-0.3-0.1-0.3-0.3s0.1-0.3,0.3-0.3s0.3,0.1,0.3,0.3S132.5,124.7,132.4,124.7z"/>
		<path class="st1" d="M126.1,120.7c-0.5,0-0.9,0.4-0.9,0.9s0.4,0.9,0.9,0.9s0.9-0.4,0.9-0.9S126.6,120.7,126.1,120.7z M126.1,121.9
			c-0.2,0-0.3-0.1-0.3-0.3c0-0.2,0.1-0.3,0.3-0.3s0.3,0.1,0.3,0.3C126.4,121.7,126.3,121.9,126.1,121.9z"/>
		<path class="st1" d="M132.4,129.3c-0.5,0-0.9,0.4-0.9,0.9s0.4,0.9,0.9,0.9s0.9-0.4,0.9-0.9S132.9,129.3,132.4,129.3z M132.4,130.4
			c-0.2,0-0.3-0.1-0.3-0.3s0.1-0.3,0.3-0.3s0.3,0.1,0.3,0.3S132.5,130.4,132.4,130.4z"/>
		<path class="st1" d="M132.4,118c-0.5,0-0.9,0.4-0.9,0.9s0.4,0.9,0.9,0.9s0.9-0.4,0.9-0.9S132.9,118,132.4,118z M132.4,119.1
			c-0.2,0-0.3-0.1-0.3-0.3c0-0.2,0.1-0.3,0.3-0.3s0.3,0.1,0.3,0.3S132.5,119.1,132.4,119.1z"/>
	</g>
</g>
<g class="st0">
	<g>
		<path class="st1" d="M54.6,94.7c0,0.4-0.1,0.6-0.4,0.9c-0.3,0.4-0.8,0.9-0.8,2s0.4,1.6,0.8,2c0.3,0.3,0.4,0.5,0.4,0.9
			s-0.1,0.6-0.4,0.9c-0.3,0.4-0.8,0.9-0.8,2s0.4,1.6,0.8,2c0.3,0.3,0.4,0.5,0.4,0.9s-0.1,0.6-0.4,0.9c-0.3,0.4-0.8,0.9-0.8,2
			s0.4,1.5,0.8,2l0,0c0.1,0.1,0.3,0.1,0.4,0.1L55,111l0,0l0.4-0.3c0.1-0.1,0.1-0.3,0.1-0.4c-0.3-0.3-0.4-0.5-0.4-0.9
			s0.1-0.6,0.4-0.9c0.3-0.4,0.8-0.9,0.8-2s-0.4-1.6-0.8-2c-0.3-0.3-0.4-0.5-0.4-0.9s0.1-0.6,0.4-0.9c0.3-0.4,0.8-0.9,0.8-2
			c0-1-0.4-1.6-0.8-2c-0.3-0.3-0.4-0.5-0.4-0.9s0.1-0.6,0.4-0.9c0.3-0.4,0.8-0.9,0.8-2c0-1-0.4-1.6-0.8-2c-0.1-0.1-0.1-0.1-0.2-0.1
			c-0.1,0-0.1,0-0.2,0.1l-0.9,0.7c-0.1,0.1-0.1,0.1-0.1,0.2s0,0.2,0.1,0.2C54.5,94.1,54.6,94.3,54.6,94.7L54.6,94.7z M54.9,93.7
			l0.4-0.3c0.2,0.3,0.4,0.7,0.4,1.4c0,0.8-0.3,1.2-0.6,1.6c-0.3,0.3-0.5,0.6-0.5,1.3s0.2,0.9,0.5,1.3s0.6,0.8,0.6,1.6
			c0,0.8-0.3,1.2-0.6,1.6c-0.3,0.3-0.5,0.6-0.5,1.3s0.2,0.9,0.5,1.3s0.6,0.8,0.6,1.6s-0.3,1.2-0.6,1.6c-0.3,0.3-0.5,0.6-0.5,1.3
			c0,0.5,0.1,0.8,0.3,1l-0.4,0.3c-0.2-0.3-0.4-0.7-0.4-1.4c0-0.8,0.3-1.2,0.6-1.6c0.3-0.3,0.5-0.6,0.5-1.3s-0.2-0.9-0.5-1.3
			s-0.6-0.8-0.6-1.6c0-0.8,0.3-1.2,0.6-1.6c0.3-0.3,0.5-0.6,0.5-1.3s-0.2-0.9-0.5-1.3s-0.6-0.8-0.6-1.6s0.3-1.2,0.6-1.6
			c0.3-0.3,0.5-0.6,0.5-1.3C55.2,94.2,55.1,94,54.9,93.7L54.9,93.7z"/>
		<path class="st1" d="M57.9,98.4c0.5,0,0.9-0.4,0.9-0.9s-0.4-0.9-0.9-0.9S57,97,57,97.5S57.5,98.4,57.9,98.4z M57.9,97.3
			c0.2,0,0.3,0.1,0.3,0.3s-0.1,0.3-0.3,0.3s-0.3-0.1-0.3-0.3S57.8,97.3,57.9,97.3z"/>
		<path class="st1" d="M51.7,101.3c0.5,0,0.9-0.4,0.9-0.9s-0.4-0.9-0.9-0.9s-0.9,0.4-0.9,0.9S51.2,101.3,51.7,101.3z M51.7,100.1
			c0.2,0,0.3,0.1,0.3,0.3c0,0.1-0.1,0.3-0.3,0.3c-0.1,0-0.3-0.1-0.3-0.3S51.5,100.1,51.7,100.1z"/>
		<path class="st1" d="M57.9,104.1c0.5,0,0.9-0.4,0.9-0.9s-0.4-0.9-0.9-0.9s-0.9,0.4-0.9,0.9S57.5,104.1,57.9,104.1z M57.9,103
			c0.2,0,0.3,0.1,0.3,0.3c0,0.2-0.1,0.3-0.3,0.3s-0.3-0.1-0.3-0.3C57.6,103.1,57.8,103,57.9,103z"/>
		<path class="st1" d="M51.7,95.6c0.5,0,0.9-0.4,0.9-0.9s-0.4-0.9-0.9-0.9s-0.9,0.4-0.9,0.9S51.2,95.6,51.7,95.6z M51.7,94.4
			c0.2,0,0.3,0.1,0.3,0.3c0,0.1-0.1,0.3-0.3,0.3c-0.1,0-0.3-0.1-0.3-0.3C51.4,94.6,51.5,94.4,51.7,94.4z"/>
		<path class="st1" d="M51.7,106.9c0.5,0,0.9-0.4,0.9-0.9s-0.4-0.9-0.9-0.9s-0.9,0.4-0.9,0.9S51.2,106.9,51.7,106.9z M51.7,105.7
			c0.2,0,0.3,0.1,0.3,0.3c0,0.2-0.1,0.3-0.3,0.3c-0.1,0-0.3-0.1-0.3-0.3S51.5,105.7,51.7,105.7z"/>
	</g>
	<g>
		<path class="st1" d="M45.9,94.7c0,0.4-0.1,0.6-0.4,0.9c-0.3,0.4-0.8,0.9-0.8,2s0.4,1.6,0.8,2c0.3,0.3,0.4,0.5,0.4,0.9
			s-0.1,0.6-0.4,0.9c-0.3,0.4-0.8,0.9-0.8,2s0.4,1.6,0.8,2c0.3,0.3,0.4,0.5,0.4,0.9s-0.1,0.6-0.4,0.9c-0.3,0.4-0.8,0.9-0.8,2
			s0.4,1.5,0.8,2l0,0c0.1,0.1,0.3,0.1,0.4,0.1l0.4-0.3l0,0l0.4-0.3c0.1-0.1,0.1-0.3,0.1-0.4c-0.3-0.3-0.4-0.5-0.4-0.9
			s0.1-0.6,0.4-0.9c0.3-0.4,0.8-0.9,0.8-2s-0.4-1.6-0.8-2c-0.3-0.3-0.4-0.5-0.4-0.9s0.1-0.6,0.4-0.9c0.3-0.4,0.8-0.9,0.8-2
			c0-1-0.4-1.6-0.8-2c-0.3-0.3-0.4-0.5-0.4-0.9s0.1-0.6,0.4-0.9c0.3-0.4,0.8-0.9,0.8-2c0-1-0.4-1.6-0.8-2c-0.1-0.1-0.1-0.1-0.2-0.1
			c-0.1,0-0.1,0-0.2,0.1l-0.9,0.7c-0.1,0.1-0.1,0.1-0.1,0.2s0,0.2,0.1,0.2C45.8,94.1,45.9,94.3,45.9,94.7L45.9,94.7z M46.2,93.7
			l0.4-0.3c0.2,0.3,0.4,0.7,0.4,1.4c0,0.8-0.3,1.2-0.6,1.6c-0.3,0.3-0.5,0.6-0.5,1.3s0.2,0.9,0.5,1.3s0.6,0.8,0.6,1.6
			c0,0.8-0.3,1.2-0.6,1.6c-0.3,0.3-0.5,0.6-0.5,1.3s0.2,0.9,0.5,1.3s0.6,0.8,0.6,1.6s-0.3,1.2-0.6,1.6c-0.3,0.3-0.5,0.6-0.5,1.3
			c0,0.5,0.1,0.8,0.3,1l-0.4,0.3c-0.2-0.3-0.4-0.7-0.4-1.4c0-0.8,0.3-1.2,0.6-1.6c0.3-0.3,0.5-0.6,0.5-1.3s-0.2-0.9-0.5-1.3
			s-0.6-0.8-0.6-1.6c0-0.8,0.3-1.2,0.6-1.6c0.3-0.3,0.5-0.6,0.5-1.3s-0.2-0.9-0.5-1.3s-0.6-0.8-0.6-1.6s0.3-1.2,0.6-1.6
			c0.3-0.3,0.5-0.6,0.5-1.3C46.5,94.2,46.4,94,46.2,93.7L46.2,93.7z"/>
		<path class="st1" d="M49.2,98.4c0.5,0,0.9-0.4,0.9-0.9s-0.4-0.9-0.9-0.9s-0.9,0.4-0.9,0.9S48.8,98.4,49.2,98.4z M49.2,97.3
			c0.2,0,0.3,0.1,0.3,0.3s-0.1,0.3-0.3,0.3c-0.1,0-0.3-0.1-0.3-0.3S49.1,97.3,49.2,97.3z"/>
		<path class="st1" d="M43,101.3c0.5,0,0.9-0.4,0.9-0.9s-0.4-0.9-0.9-0.9s-0.9,0.4-0.9,0.9S42.5,101.3,43,101.3z M43,100.1
			c0.2,0,0.3,0.1,0.3,0.3c0,0.1-0.1,0.3-0.3,0.3c-0.1,0-0.3-0.1-0.3-0.3S42.8,100.1,43,100.1z"/>
		<path class="st1" d="M49.2,104.1c0.5,0,0.9-0.4,0.9-0.9s-0.4-0.9-0.9-0.9s-0.9,0.4-0.9,0.9S48.8,104.1,49.2,104.1z M49.2,103
			c0.2,0,0.3,0.1,0.3,0.3c0,0.2-0.1,0.3-0.3,0.3c-0.1,0-0.3-0.1-0.3-0.3S49.1,103,49.2,103z"/>
		<path class="st1" d="M43,95.6c0.5,0,0.9-0.4,0.9-0.9s-0.4-0.9-0.9-0.9s-0.9,0.4-0.9,0.9S42.5,95.6,43,95.6z M43,94.4
			c0.2,0,0.3,0.1,0.3,0.3c0,0.1-0.1,0.3-0.3,0.3c-0.1,0-0.3-0.1-0.3-0.3C42.7,94.6,42.8,94.4,43,94.4z"/>
		<path class="st1" d="M43,106.9c0.5,0,0.9-0.4,0.9-0.9s-0.4-0.9-0.9-0.9s-0.9,0.4-0.9,0.9S42.5,106.9,43,106.9z M43,105.7
			c0.2,0,0.3,0.1,0.3,0.3c0,0.2-0.1,0.3-0.3,0.3c-0.1,0-0.3-0.1-0.3-0.3S42.8,105.7,43,105.7z"/>
	</g>
	<g>
		<path class="st1" d="M37.2,94.7c0,0.4-0.1,0.6-0.4,0.9c-0.3,0.4-0.8,0.9-0.8,2s0.4,1.6,0.8,2c0.3,0.3,0.4,0.5,0.4,0.9
			s-0.1,0.6-0.4,0.9c-0.3,0.4-0.8,0.9-0.8,2s0.4,1.6,0.8,2c0.3,0.3,0.4,0.5,0.4,0.9s-0.1,0.6-0.4,0.9c-0.3,0.4-0.8,0.9-0.8,2
			s0.4,1.5,0.8,2l0,0c0.1,0.1,0.3,0.1,0.4,0.1l0.4-0.3l0,0l0.4-0.3c0.1-0.1,0.1-0.3,0.1-0.4c-0.3-0.3-0.4-0.5-0.4-0.9
			s0.1-0.6,0.4-0.9c0.3-0.4,0.8-0.9,0.8-2s-0.4-1.6-0.8-2c-0.3-0.3-0.4-0.5-0.4-0.9s0.1-0.6,0.4-0.9c0.3-0.4,0.8-0.9,0.8-2
			c0-1-0.4-1.6-0.8-2c-0.3-0.3-0.4-0.5-0.4-0.9s0.1-0.6,0.4-0.9c0.3-0.4,0.8-0.9,0.8-2c0-1-0.4-1.6-0.8-2c-0.1-0.1-0.1-0.1-0.2-0.1
			c-0.1,0-0.1,0-0.2,0.1l-0.9,0.7c-0.1,0.1-0.1,0.1-0.1,0.2s0,0.2,0.1,0.2C37.1,94.1,37.2,94.3,37.2,94.7L37.2,94.7z M37.5,93.7
			l0.4-0.3c0.2,0.3,0.4,0.7,0.4,1.4c0,0.8-0.3,1.2-0.6,1.6c-0.3,0.3-0.5,0.6-0.5,1.3s0.2,0.9,0.5,1.3s0.6,0.8,0.6,1.6
			c0,0.8-0.3,1.2-0.6,1.6c-0.3,0.3-0.5,0.6-0.5,1.3s0.2,0.9,0.5,1.3s0.6,0.8,0.6,1.6s-0.3,1.2-0.6,1.6c-0.3,0.3-0.5,0.6-0.5,1.3
			c0,0.5,0.1,0.8,0.3,1l-0.4,0.3c-0.2-0.3-0.4-0.7-0.4-1.4c0-0.8,0.3-1.2,0.6-1.6c0.3-0.3,0.5-0.6,0.5-1.3s-0.2-0.9-0.5-1.3
			s-0.6-0.8-0.6-1.6c0-0.8,0.3-1.2,0.6-1.6c0.3-0.3,0.5-0.6,0.5-1.3s-0.2-0.9-0.5-1.3s-0.6-0.8-0.6-1.6s0.3-1.2,0.6-1.6
			c0.3-0.3,0.5-0.6,0.5-1.3C37.8,94.2,37.7,94,37.5,93.7L37.5,93.7z"/>
		<path class="st1" d="M40.5,98.4c0.5,0,0.9-0.4,0.9-0.9s-0.4-0.9-0.9-0.9s-0.9,0.4-0.9,0.9C39.7,98,40.1,98.4,40.5,98.4z
			 M40.5,97.3c0.2,0,0.3,0.1,0.3,0.3s-0.1,0.3-0.3,0.3c-0.1,0-0.3-0.1-0.3-0.3S40.4,97.3,40.5,97.3z"/>
		<path class="st1" d="M34.3,101.3c0.5,0,0.9-0.4,0.9-0.9s-0.4-0.9-0.9-0.9s-0.9,0.4-0.9,0.9S33.8,101.3,34.3,101.3z M34.3,100.1
			c0.2,0,0.3,0.1,0.3,0.3c0,0.1-0.1,0.3-0.3,0.3c-0.1,0-0.3-0.1-0.3-0.3S34.2,100.1,34.3,100.1z"/>
		<path class="st1" d="M40.5,104.1c0.5,0,0.9-0.4,0.9-0.9s-0.4-0.9-0.9-0.9s-0.9,0.4-0.9,0.9C39.7,103.7,40.1,104.1,40.5,104.1z
			 M40.5,103c0.2,0,0.3,0.1,0.3,0.3c0,0.2-0.1,0.3-0.3,0.3c-0.1,0-0.3-0.1-0.3-0.3S40.4,103,40.5,103z"/>
		<path class="st1" d="M34.3,95.6c0.5,0,0.9-0.4,0.9-0.9s-0.4-0.9-0.9-0.9s-0.9,0.4-0.9,0.9C33.4,95.2,33.8,95.6,34.3,95.6z
			 M34.3,94.4c0.2,0,0.3,0.1,0.3,0.3c0,0.1-0.1,0.3-0.3,0.3c-0.1,0-0.3-0.1-0.3-0.3C34,94.6,34.2,94.4,34.3,94.4z"/>
		<path class="st1" d="M34.3,106.9c0.5,0,0.9-0.4,0.9-0.9s-0.4-0.9-0.9-0.9s-0.9,0.4-0.9,0.9S33.8,106.9,34.3,106.9z M34.3,105.7
			c0.2,0,0.3,0.1,0.3,0.3c0,0.2-0.1,0.3-0.3,0.3c-0.1,0-0.3-0.1-0.3-0.3S34.2,105.7,34.3,105.7z"/>
	</g>
</g>
<g class="st0">
	<path class="st1" d="M12.8,130.9h-2V123v-1.6c0-1.4-1.2-2.6-2.6-2.6H1.8V115c0-0.5-0.4-1-1-1H0.7v-1.2c0-0.2-0.2-0.4-0.4-0.4
		s-0.4,0.2-0.4,0.4v1.2h-0.1c-0.5,0-1,0.4-1,1v3.7H-8c-1.4,0-2.6,1.2-2.6,2.6v9.5h-1.6c-0.2,0-0.4,0.2-0.4,0.4s0.2,0.4,0.4,0.4h0.2
		l0.2,0.8c0.2,0.6,0.8,1.1,1.4,1.1h21.2c0.6,0,1.3-0.5,1.4-1.1l0.2-0.8h0.2c0.2,0,0.4-0.2,0.4-0.4C13.2,131.1,13,130.9,12.8,130.9
		L12.8,130.9z M-0.4,115C-0.4,114.9-0.3,114.9-0.4,115l1.2-0.1c0.1,0,0.1,0.1,0.1,0.1v3.7h-1.4L-0.4,115L-0.4,115z M-8,119.6H8.2
		c1,0,1.8,0.8,1.8,1.8v1.3c-0.7,0.1-1.2,0.5-1.6,0.8c-0.4,0.3-0.7,0.6-1.5,0.6s-1-0.3-1.5-0.6c-0.5-0.4-1-0.8-2-0.8s-1.5,0.4-2,0.8
		c-0.4,0.3-0.7,0.6-1.5,0.6c-0.7,0-1-0.3-1.5-0.6c-0.5-0.4-1-0.8-2-0.8s-1.5,0.4-2,0.8c-0.2,0.2-0.5,0.4-0.8,0.5
		c-0.2,0.1-0.3,0.2-0.3,0.4v2.8c0,0.2-0.2,0.4-0.4,0.4c-0.2,0-0.4-0.2-0.4-0.4v-2.8c0-0.2-0.1-0.3-0.3-0.4c-0.3-0.1-0.5-0.3-0.8-0.5
		c-0.4-0.3-0.8-0.7-1.6-0.8v-1.3C-9.8,120.4-9,119.6-8,119.6L-8,119.6z M-9.8,123.5c0.4,0.1,0.7,0.3,1,0.6c0.2,0.2,0.4,0.4,0.7,0.5
		v2.6c0,0.7,0.6,1.2,1.2,1.2s1.2-0.6,1.2-1.2v-2.6c0.3-0.2,0.5-0.4,0.7-0.5c0.4-0.3,0.7-0.6,1.5-0.6c0.7,0,1,0.3,1.5,0.6
		c0.5,0.4,1,0.8,2,0.8s1.5-0.4,2-0.8c0.4-0.3,0.7-0.6,1.5-0.6c0.7,0,1,0.3,1.5,0.6c0.5,0.4,1,0.8,2,0.8s1.5-0.4,2-0.8
		c0.3-0.3,0.6-0.5,1-0.6v7.4H-9.8V123.5L-9.8,123.5z M11.5,132.3c-0.1,0.3-0.4,0.5-0.7,0.5h-21.2c-0.3,0-0.6-0.2-0.7-0.5l-0.2-0.6
		h22.8L11.5,132.3z"/>
	<path class="st1" d="M-1.4,113.1c0.1,0,0.2,0,0.3-0.1c0.2-0.2,0.2-0.4,0-0.6c-0.3-0.3-0.5-0.8-0.5-1.2c0-1,0.7-2,1.8-2.5
		c1.1,0.5,1.8,1.5,1.8,2.5c0,0.4-0.2,0.9-0.5,1.2c-0.2,0.2-0.1,0.4,0,0.6c0.2,0.2,0.4,0.1,0.6,0c0.4-0.5,0.7-1.1,0.7-1.7
		c0-1.3-1-2.7-2.5-3.3c-0.1,0-0.2,0-0.3,0c-1.4,0.6-2.5,2-2.5,3.3c0,0.6,0.2,1.3,0.7,1.7C-1.6,113-1.5,113.1-1.4,113.1z"/>
</g>
<g class="st0">
	<path class="st1" d="M2.6,94h2v7.9v1.6c0,1.4,1.2,2.6,2.6,2.6h6.4v3.7c0,0.5,0.4,1,1,1h0.1v1.2c0,0.2,0.2,0.4,0.4,0.4
		s0.4-0.2,0.4-0.4v-1.2h0.1c0.5,0,1-0.4,1-1v-3.7h6.8c1.4,0,2.6-1.2,2.6-2.6V94h1.6c0.2,0,0.4-0.2,0.4-0.4s-0.2-0.4-0.4-0.4h-0.2
		l-0.2-0.8c-0.2-0.6-0.8-1.1-1.4-1.1H4.5c-0.6,0-1.3,0.5-1.4,1.1l-0.2,0.8H2.6c-0.2,0-0.4,0.2-0.4,0.4S2.3,94,2.6,94L2.6,94z
		 M15.8,109.9c0,0.1-0.1,0.1-0.1,0.1h-1.1c-0.1,0-0.1-0.1-0.1-0.1v-3.7h1.4L15.8,109.9L15.8,109.9z M23.4,105.3H7.2
		c-1,0-1.8-0.8-1.8-1.8v-1.3c0.7-0.1,1.2-0.5,1.6-0.8s0.7-0.6,1.5-0.6s1,0.3,1.5,0.6c0.5,0.4,1,0.8,2,0.8s1.5-0.4,2-0.8
		c0.4-0.3,0.7-0.6,1.5-0.6c0.7,0,1,0.3,1.5,0.6c0.5,0.4,1,0.8,2,0.8s1.5-0.4,2-0.8c0.2-0.2,0.5-0.4,0.8-0.5c0.2-0.1,0.3-0.2,0.3-0.4
		v-2.8c0-0.2,0.2-0.4,0.4-0.4c0.2,0,0.4,0.2,0.4,0.4v2.8c0,0.2,0.1,0.3,0.3,0.4c0.3,0.1,0.5,0.3,0.8,0.5c0.4,0.3,0.8,0.7,1.6,0.8
		v1.3C25.1,104.5,24.3,105.3,23.4,105.3L23.4,105.3z M25.1,101.4c-0.4-0.1-0.7-0.3-1-0.6c-0.2-0.2-0.4-0.4-0.7-0.5v-2.6
		c0-0.7-0.6-1.2-1.2-1.2c-0.7,0-1.2,0.6-1.2,1.2v2.6c-0.3,0.2-0.5,0.4-0.7,0.5c-0.4,0.3-0.7,0.6-1.5,0.6c-0.7,0-1-0.3-1.5-0.6
		c-0.5-0.4-1-0.8-2-0.8s-1.5,0.4-2,0.8c-0.4,0.3-0.7,0.6-1.5,0.6c-0.7,0-1-0.3-1.5-0.6c-0.5-0.4-1-0.8-2-0.8s-1.5,0.4-2,0.8
		c-0.3,0.3-0.6,0.5-1,0.6V94h19.8L25.1,101.4L25.1,101.4z M3.8,92.6c0.1-0.3,0.4-0.5,0.7-0.5h21.2c0.3,0,0.6,0.2,0.7,0.5l0.2,0.6
		H3.7L3.8,92.6z"/>
	<path class="st1" d="M16.7,111.8c-0.1,0-0.2,0-0.3,0.1c-0.2,0.2-0.2,0.4,0,0.6c0.3,0.3,0.5,0.8,0.5,1.2c0,1-0.7,2-1.8,2.5
		c-1.1-0.5-1.8-1.5-1.8-2.5c0-0.4,0.2-0.9,0.5-1.2c0.2-0.2,0.1-0.4,0-0.6c-0.2-0.2-0.4-0.1-0.6,0c-0.4,0.5-0.7,1.1-0.7,1.7
		c0,1.3,1,2.7,2.5,3.3c0.1,0,0.2,0,0.3,0c1.4-0.6,2.5-2,2.5-3.3c0-0.6-0.2-1.3-0.7-1.7C17,111.9,16.8,111.8,16.7,111.8z"/>
</g>
<g class="st0">
	<path class="st1" d="M43.1,130.9h-2V123v-1.6c0-1.4-1.2-2.6-2.6-2.6h-6.4V115c0-0.5-0.4-1-1-1H31v-1.2c0-0.2-0.2-0.4-0.4-0.4
		c-0.2,0-0.4,0.2-0.4,0.4v1.2h-0.1c-0.5,0-1,0.4-1,1v3.7h-6.8c-1.4,0-2.6,1.2-2.6,2.6v9.5h-1.6c-0.2,0-0.4,0.2-0.4,0.4
		s0.2,0.4,0.4,0.4h0.2l0.2,0.8c0.2,0.6,0.8,1.1,1.4,1.1h21.2c0.6,0,1.3-0.5,1.4-1.1l0.2-0.8h0.2c0.2,0,0.4-0.2,0.4-0.4
		C43.5,131.1,43.3,130.9,43.1,130.9L43.1,130.9z M29.9,115c0-0.1,0.1-0.1,0.1-0.1h1.1c0.1,0,0.1,0.1,0.1,0.1v3.7h-1.4L29.9,115
		L29.9,115z M22.3,119.6h16.2c1,0,1.8,0.8,1.8,1.8v1.3c-0.7,0.1-1.2,0.5-1.6,0.8c-0.4,0.3-0.7,0.6-1.5,0.6c-0.7,0-1-0.3-1.5-0.6
		c-0.5-0.4-1-0.8-2-0.8s-1.5,0.4-2,0.8c-0.4,0.3-0.7,0.6-1.5,0.6c-0.7,0-1-0.3-1.5-0.6c-0.5-0.4-1-0.8-2-0.8s-1.5,0.4-2,0.8
		c-0.2,0.2-0.5,0.4-0.8,0.5c-0.2,0.1-0.3,0.2-0.3,0.4v2.8c0,0.2-0.2,0.4-0.4,0.4c-0.2,0-0.4-0.2-0.4-0.4v-2.8c0-0.2-0.1-0.3-0.3-0.4
		c-0.3-0.1-0.5-0.3-0.8-0.5c-0.4-0.3-0.8-0.7-1.6-0.8v-1.3C20.6,120.4,21.4,119.6,22.3,119.6L22.3,119.6z M20.6,123.5
		c0.4,0.1,0.7,0.3,1,0.6c0.2,0.2,0.4,0.4,0.7,0.5v2.6c0,0.7,0.6,1.2,1.2,1.2c0.7,0,1.2-0.6,1.2-1.2v-2.6c0.3-0.2,0.5-0.4,0.7-0.5
		c0.4-0.3,0.7-0.6,1.5-0.6c0.7,0,1,0.3,1.5,0.6c0.5,0.4,1,0.8,2,0.8s1.5-0.4,2-0.8c0.4-0.3,0.7-0.6,1.5-0.6c0.7,0,1,0.3,1.5,0.6
		c0.5,0.4,1,0.8,2,0.8s1.5-0.4,2-0.8c0.3-0.3,0.6-0.5,1-0.6v7.4H20.6V123.5L20.6,123.5z M41.9,132.3c-0.1,0.3-0.4,0.5-0.7,0.5H20
		c-0.3,0-0.6-0.2-0.7-0.5l-0.2-0.6H42L41.9,132.3z"/>
	<path class="st1" d="M29,113.1c0.1,0,0.2,0,0.3-0.1c0.2-0.2,0.2-0.4,0-0.6c-0.3-0.3-0.5-0.8-0.5-1.2c0-1,0.7-2,1.8-2.5
		c1.1,0.5,1.8,1.5,1.8,2.5c0,0.4-0.2,0.9-0.5,1.2c-0.2,0.2-0.1,0.4,0,0.6c0.2,0.2,0.4,0.1,0.6,0c0.4-0.5,0.7-1.1,0.7-1.7
		c0-1.3-1-2.7-2.5-3.3c-0.1,0-0.2,0-0.3,0c-1.4,0.6-2.5,2-2.5,3.3c0,0.6,0.2,1.3,0.7,1.7C28.7,113,28.9,113.1,29,113.1z"/>
</g>
<g class="st0">
	<path class="st1" d="M73.5,130.9h-2V123v-1.6c0-1.4-1.2-2.6-2.6-2.6h-6.4V115c0-0.5-0.4-1-1-1h-0.1v-1.2c0-0.2-0.2-0.4-0.4-0.4
		s-0.4,0.2-0.4,0.4v1.2h-0.1c-0.5,0-1,0.4-1,1v3.7h-6.8c-1.4,0-2.6,1.2-2.6,2.6v9.5h-1.6c-0.2,0-0.4,0.2-0.4,0.4s0.2,0.4,0.4,0.4
		h0.2l0.2,0.8c0.2,0.6,0.8,1.1,1.4,1.1h21.2c0.6,0,1.3-0.5,1.4-1.1l0.2-0.8h0.2c0.2,0,0.4-0.2,0.4-0.4
		C73.9,131.1,73.7,130.9,73.5,130.9L73.5,130.9z M60.3,115C60.3,114.9,60.4,114.9,60.3,115l1.2-0.1c0.1,0,0.1,0.1,0.1,0.1v3.7h-1.4
		V115H60.3z M52.7,119.6h16.2c1,0,1.8,0.8,1.8,1.8v1.3c-0.7,0.1-1.2,0.5-1.6,0.8s-0.7,0.6-1.5,0.6s-1-0.3-1.5-0.6
		c-0.5-0.4-1-0.8-2-0.8s-1.5,0.4-2,0.8c-0.4,0.3-0.7,0.6-1.5,0.6c-0.7,0-1-0.3-1.5-0.6c-0.5-0.4-1-0.8-2-0.8s-1.5,0.4-2,0.8
		c-0.2,0.2-0.5,0.4-0.8,0.5c-0.2,0.1-0.3,0.2-0.3,0.4v2.8c0,0.2-0.2,0.4-0.4,0.4s-0.4-0.2-0.4-0.4v-2.8c0-0.2-0.1-0.3-0.3-0.4
		c-0.3-0.1-0.5-0.3-0.8-0.5c-0.4-0.3-0.8-0.7-1.6-0.8v-1.3C50.9,120.4,51.7,119.6,52.7,119.6L52.7,119.6z M50.9,123.5
		c0.4,0.1,0.7,0.3,1,0.6c0.2,0.2,0.4,0.4,0.7,0.5v2.6c0,0.7,0.6,1.2,1.2,1.2s1.2-0.6,1.2-1.2v-2.6c0.3-0.2,0.5-0.4,0.7-0.5
		c0.4-0.3,0.7-0.6,1.5-0.6c0.7,0,1,0.3,1.5,0.6c0.5,0.4,1,0.8,2,0.8s1.5-0.4,2-0.8c0.4-0.3,0.7-0.6,1.5-0.6c0.7,0,1,0.3,1.5,0.6
		c0.5,0.4,1,0.8,2,0.8s1.5-0.4,2-0.8c0.3-0.3,0.6-0.5,1-0.6v7.4H50.9V123.5L50.9,123.5z M72.2,132.3c-0.1,0.3-0.4,0.5-0.7,0.5H50.4
		c-0.3,0-0.6-0.2-0.7-0.5l-0.2-0.6h22.8L72.2,132.3z"/>
	<path class="st1" d="M59.3,113.1c0.1,0,0.2,0,0.3-0.1c0.2-0.2,0.2-0.4,0-0.6c-0.3-0.3-0.5-0.8-0.5-1.2c0-1,0.7-2,1.8-2.5
		c1.1,0.5,1.8,1.5,1.8,2.5c0,0.4-0.2,0.9-0.5,1.2c-0.2,0.2-0.1,0.4,0,0.6c0.2,0.2,0.4,0.1,0.6,0c0.4-0.5,0.7-1.1,0.7-1.7
		c0-1.3-1-2.7-2.5-3.3c-0.1,0-0.2,0-0.3,0c-1.4,0.6-2.5,2-2.5,3.3c0,0.6,0.2,1.3,0.7,1.7C59.1,113,59.2,113.1,59.3,113.1z"/>
</g>
<g class="st0">
	<path class="st1" d="M63.3,94h2v7.9v1.6c0,1.4,1.2,2.6,2.6,2.6h6.4v3.7c0,0.5,0.4,1,1,1h0.1v1.2c0,0.2,0.2,0.4,0.4,0.4
		s0.4-0.2,0.4-0.4v-1.2h0.1c0.5,0,1-0.4,1-1v-3.7H84c1.4,0,2.6-1.2,2.6-2.6V94h1.6c0.2,0,0.4-0.2,0.4-0.4s-0.2-0.4-0.4-0.4H88
		l-0.2-0.8c-0.2-0.6-0.8-1.1-1.4-1.1H65.2c-0.6,0-1.3,0.5-1.4,1.1l-0.2,0.8h-0.2c-0.2,0-0.4,0.2-0.4,0.4S63,94,63.3,94L63.3,94z
		 M76.5,109.9C76.5,110,76.4,110,76.5,109.9l-1.2,0.1c-0.1,0-0.1-0.1-0.1-0.1v-3.7h1.4v3.7H76.5z M84,105.3H67.8
		c-1,0-1.8-0.8-1.8-1.8v-1.3c0.7-0.1,1.2-0.5,1.6-0.8s0.7-0.6,1.5-0.6c0.7,0,1,0.3,1.5,0.6c0.5,0.4,1,0.8,2,0.8s1.5-0.4,2-0.8
		c0.4-0.3,0.7-0.6,1.5-0.6c0.7,0,1,0.3,1.5,0.6c0.5,0.4,1,0.8,2,0.8s1.5-0.4,2-0.8c0.2-0.2,0.5-0.4,0.8-0.5c0.2-0.1,0.3-0.2,0.3-0.4
		v-2.8c0-0.2,0.2-0.4,0.4-0.4c0.2,0,0.4,0.2,0.4,0.4v2.8c0,0.2,0.1,0.3,0.3,0.4c0.3,0.1,0.5,0.3,0.8,0.5c0.4,0.3,0.8,0.7,1.6,0.8
		v1.3C85.8,104.5,85,105.3,84,105.3L84,105.3z M85.8,101.4c-0.4-0.1-0.7-0.3-1-0.6c-0.2-0.2-0.4-0.4-0.7-0.5v-2.6
		c0-0.7-0.6-1.2-1.2-1.2c-0.7,0-1.2,0.6-1.2,1.2v2.6c-0.3,0.2-0.5,0.4-0.7,0.5c-0.4,0.3-0.7,0.6-1.5,0.6c-0.7,0-1-0.3-1.5-0.6
		c-0.5-0.4-1-0.8-2-0.8s-1.5,0.4-2,0.8c-0.4,0.3-0.7,0.6-1.5,0.6c-0.7,0-1-0.3-1.5-0.6c-0.5-0.4-1-0.8-2-0.8s-1.5,0.4-2,0.8
		c-0.3,0.3-0.6,0.5-1,0.6V94h19.8L85.8,101.4L85.8,101.4z M64.5,92.6c0.1-0.3,0.4-0.5,0.7-0.5h21.2c0.3,0,0.6,0.2,0.7,0.5l0.2,0.6
		H64.4L64.5,92.6z"/>
	<path class="st1" d="M77.4,111.8c-0.1,0-0.2,0-0.3,0.1c-0.2,0.2-0.2,0.4,0,0.6c0.3,0.3,0.5,0.8,0.5,1.2c0,1-0.7,2-1.8,2.5
		c-1.1-0.5-1.8-1.5-1.8-2.5c0-0.4,0.2-0.9,0.5-1.2c0.2-0.2,0.1-0.4,0-0.6c-0.2-0.2-0.4-0.1-0.6,0c-0.4,0.5-0.7,1.1-0.7,1.7
		c0,1.3,1,2.7,2.5,3.3c0.1,0,0.2,0,0.3,0c1.4-0.6,2.5-2,2.5-3.3c0-0.6-0.2-1.3-0.7-1.7C77.6,111.9,77.5,111.8,77.4,111.8z"/>
</g>
<g class="st0">
	<path class="st1" d="M103.8,130.9h-2V123v-1.6c0-1.4-1.2-2.6-2.6-2.6h-6.4V115c0-0.5-0.4-1-1-1h-0.1v-1.2c0-0.2-0.2-0.4-0.4-0.4
		s-0.4,0.2-0.4,0.4v1.2h-0.1c-0.5,0-1,0.4-1,1v3.7H83c-1.4,0-2.6,1.2-2.6,2.6v9.5h-1.6c-0.2,0-0.4,0.2-0.4,0.4s0.2,0.4,0.4,0.4H79
		l0.2,0.8c0.2,0.6,0.8,1.1,1.4,1.1h21.2c0.6,0,1.3-0.5,1.4-1.1l0.2-0.8h0.2c0.2,0,0.4-0.2,0.4-0.4
		C104.2,131.1,104,130.9,103.8,130.9L103.8,130.9z M90.6,115C90.6,114.9,90.7,114.9,90.6,115l1.2-0.1c0.1,0,0.1,0.1,0.1,0.1v3.7
		h-1.4V115H90.6z M83,119.6h16.2c1,0,1.8,0.8,1.8,1.8v1.3c-0.7,0.1-1.2,0.5-1.6,0.8s-0.7,0.6-1.5,0.6c-0.7,0-1-0.3-1.5-0.6
		c-0.5-0.4-1-0.8-2-0.8s-1.5,0.4-2,0.8c-0.4,0.3-0.7,0.6-1.5,0.6c-0.7,0-1-0.3-1.5-0.6c-0.5-0.4-1-0.8-2-0.8s-1.5,0.4-2,0.8
		c-0.2,0.2-0.5,0.4-0.8,0.5c-0.2,0.1-0.3,0.2-0.3,0.4v2.8c0,0.2-0.2,0.4-0.4,0.4c-0.2,0-0.4-0.2-0.4-0.4v-2.8c0-0.2-0.1-0.3-0.3-0.4
		c-0.3-0.1-0.5-0.3-0.8-0.5c-0.4-0.3-0.8-0.7-1.6-0.8v-1.3C81.2,120.4,82,119.6,83,119.6L83,119.6z M81.2,123.5
		c0.4,0.1,0.7,0.3,1,0.6c0.2,0.2,0.4,0.4,0.7,0.5v2.6c0,0.7,0.6,1.2,1.2,1.2c0.7,0,1.2-0.6,1.2-1.2v-2.6c0.3-0.2,0.5-0.4,0.7-0.5
		c0.4-0.3,0.7-0.6,1.5-0.6c0.7,0,1,0.3,1.5,0.6c0.5,0.4,1,0.8,2,0.8s1.5-0.4,2-0.8c0.4-0.3,0.7-0.6,1.5-0.6c0.7,0,1,0.3,1.5,0.6
		c0.5,0.4,1,0.8,2,0.8s1.5-0.4,2-0.8c0.3-0.3,0.6-0.5,1-0.6v7.4H81.2V123.5L81.2,123.5z M102.5,132.3c-0.1,0.3-0.4,0.5-0.7,0.5H80.7
		c-0.3,0-0.6-0.2-0.7-0.5l-0.2-0.6h22.8L102.5,132.3z"/>
	<path class="st1" d="M89.7,113.1c0.1,0,0.2,0,0.3-0.1c0.2-0.2,0.2-0.4,0-0.6c-0.3-0.3-0.5-0.8-0.5-1.2c0-1,0.7-2,1.8-2.5
		c1.1,0.5,1.8,1.5,1.8,2.5c0,0.4-0.2,0.9-0.5,1.2c-0.2,0.2-0.1,0.4,0,0.6c0.2,0.2,0.4,0.1,0.6,0c0.4-0.5,0.7-1.1,0.7-1.7
		c0-1.3-1-2.7-2.5-3.3c-0.1,0-0.2,0-0.3,0c-1.4,0.6-2.5,2-2.5,3.3c0,0.6,0.2,1.3,0.7,1.7C89.4,113,89.5,113.1,89.7,113.1z"/>
</g>
<g class="st0">
	<path class="st1" d="M93.6,94h2v7.9v1.6c0,1.4,1.2,2.6,2.6,2.6h6.4v3.7c0,0.5,0.4,1,1,1h0.1v1.2c0,0.2,0.2,0.4,0.4,0.4
		s0.4-0.2,0.4-0.4v-1.2h0.1c0.5,0,1-0.4,1-1v-3.7h6.8c1.4,0,2.6-1.2,2.6-2.6V94h1.6c0.2,0,0.4-0.2,0.4-0.4s-0.2-0.4-0.4-0.4h-0.2
		l-0.2-0.8c-0.2-0.6-0.8-1.1-1.4-1.1H95.5c-0.6,0-1.3,0.5-1.4,1.1l-0.2,0.8h-0.2c-0.2,0-0.4,0.2-0.4,0.4S93.4,94,93.6,94L93.6,94z
		 M106.8,109.9C106.8,110,106.7,110,106.8,109.9l-1.2,0.1c-0.1,0-0.1-0.1-0.1-0.1v-3.7h1.4v3.7H106.8z M114.4,105.3H98.2
		c-1,0-1.8-0.8-1.8-1.8v-1.3c0.7-0.1,1.2-0.5,1.6-0.8s0.7-0.6,1.5-0.6c0.7,0,1,0.3,1.5,0.6c0.5,0.4,1,0.8,2,0.8s1.5-0.4,2-0.8
		c0.4-0.3,0.7-0.6,1.5-0.6c0.7,0,1,0.3,1.5,0.6c0.5,0.4,1,0.8,2,0.8s1.5-0.4,2-0.8c0.2-0.2,0.5-0.4,0.8-0.5c0.2-0.1,0.3-0.2,0.3-0.4
		v-2.8c0-0.2,0.2-0.4,0.4-0.4c0.2,0,0.4,0.2,0.4,0.4v2.8c0,0.2,0.1,0.3,0.3,0.4c0.3,0.1,0.5,0.3,0.8,0.5c0.4,0.3,0.8,0.7,1.6,0.8
		v1.3C116.2,104.5,115.4,105.3,114.4,105.3L114.4,105.3z M116.2,101.4c-0.4-0.1-0.7-0.3-1-0.6c-0.2-0.2-0.4-0.4-0.7-0.5v-2.6
		c0-0.7-0.6-1.2-1.2-1.2c-0.7,0-1.2,0.6-1.2,1.2v2.6c-0.3,0.2-0.5,0.4-0.7,0.5c-0.4,0.3-0.7,0.6-1.5,0.6c-0.7,0-1-0.3-1.5-0.6
		c-0.5-0.4-1-0.8-2-0.8s-1.5,0.4-2,0.8c-0.4,0.3-0.7,0.6-1.5,0.6c-0.7,0-1-0.3-1.5-0.6c-0.5-0.4-1-0.8-2-0.8s-1.5,0.4-2,0.8
		c-0.3,0.3-0.6,0.5-1,0.6V94h19.8L116.2,101.4L116.2,101.4z M94.9,92.6c0.1-0.3,0.4-0.5,0.7-0.5h21.2c0.3,0,0.6,0.2,0.7,0.5l0.2,0.6
		h-23L94.9,92.6z"/>
	<path class="st1" d="M107.8,111.8c-0.1,0-0.2,0-0.3,0.1c-0.2,0.2-0.2,0.4,0,0.6c0.3,0.3,0.5,0.8,0.5,1.2c0,1-0.7,2-1.8,2.5
		c-1.1-0.5-1.8-1.5-1.8-2.5c0-0.4,0.2-0.9,0.5-1.2c0.2-0.2,0.1-0.4,0-0.6c-0.2-0.2-0.4-0.1-0.6,0c-0.4,0.5-0.7,1.1-0.7,1.7
		c0,1.3,1,2.7,2.5,3.3c0.1,0,0.2,0,0.3,0c1.4-0.6,2.5-2,2.5-3.3c0-0.6-0.2-1.3-0.7-1.7C108,111.9,107.9,111.8,107.8,111.8z"/>
</g>
<g class="st0">
	<path class="st1" d="M124,94h2v7.9v1.6c0,1.4,1.2,2.6,2.6,2.6h6.4v3.7c0,0.5,0.4,1,1,1h0.1v1.2c0,0.2,0.2,0.4,0.4,0.4
		s0.4-0.2,0.4-0.4v-1.2h0.1c0.5,0,1-0.4,1-1v-3.7h6.8c1.4,0,2.6-1.2,2.6-2.6V94h1.6c0.2,0,0.4-0.2,0.4-0.4s-0.2-0.4-0.4-0.4h-0.2
		l-0.2-0.8c-0.2-0.6-0.8-1.1-1.4-1.1H126c-0.6,0-1.3,0.5-1.4,1.1l-0.2,0.8H124c-0.2,0-0.4,0.2-0.4,0.4S123.7,94,124,94L124,94z
		 M137.2,109.9c0,0.1-0.1,0.1-0.1,0.1H136c-0.1,0-0.1-0.1-0.1-0.1v-3.7h1.4L137.2,109.9L137.2,109.9z M144.7,105.3h-16.2
		c-1,0-1.8-0.8-1.8-1.8v-1.3c0.7-0.1,1.2-0.5,1.6-0.8c0.4-0.3,0.7-0.6,1.5-0.6s1,0.3,1.5,0.6c0.5,0.4,1,0.8,2,0.8s1.5-0.4,2-0.8
		c0.4-0.3,0.7-0.6,1.5-0.6c0.7,0,1,0.3,1.5,0.6c0.5,0.4,1,0.8,2,0.8s1.5-0.4,2-0.8c0.2-0.2,0.5-0.4,0.8-0.5c0.2-0.1,0.3-0.2,0.3-0.4
		v-2.8c0-0.2,0.2-0.4,0.4-0.4s0.4,0.2,0.4,0.4v2.8c0,0.2,0.1,0.3,0.3,0.4c0.3,0.1,0.5,0.3,0.8,0.5c0.4,0.3,0.8,0.7,1.6,0.8v1.3
		C146.5,104.5,145.7,105.3,144.7,105.3L144.7,105.3z M146.5,101.4c-0.4-0.1-0.7-0.3-1-0.6c-0.2-0.2-0.4-0.4-0.7-0.5v-2.6
		c0-0.7-0.6-1.2-1.2-1.2c-0.7,0-1.2,0.6-1.2,1.2v2.6c-0.3,0.2-0.5,0.4-0.7,0.5c-0.4,0.3-0.7,0.6-1.5,0.6c-0.7,0-1-0.3-1.5-0.6
		c-0.5-0.4-1-0.8-2-0.8s-1.5,0.4-2,0.8c-0.4,0.3-0.7,0.6-1.5,0.6c-0.7,0-1-0.3-1.5-0.6c-0.5-0.4-1-0.8-2-0.8s-1.5,0.4-2,0.8
		c-0.3,0.3-0.6,0.5-1,0.6V94h19.8L146.5,101.4L146.5,101.4z M125.2,92.6c0.1-0.3,0.4-0.5,0.7-0.5H147c0.3,0,0.6,0.2,0.7,0.5l0.2,0.6
		h-22.8L125.2,92.6z"/>
	<path class="st1" d="M138.1,111.8c-0.1,0-0.2,0-0.3,0.1c-0.2,0.2-0.2,0.4,0,0.6c0.3,0.3,0.5,0.8,0.5,1.2c0,1-0.7,2-1.8,2.5
		c-1.1-0.5-1.8-1.5-1.8-2.5c0-0.4,0.2-0.9,0.5-1.2c0.2-0.2,0.1-0.4,0-0.6c-0.2-0.2-0.4-0.1-0.6,0c-0.4,0.5-0.7,1.1-0.7,1.7
		c0,1.3,1,2.7,2.5,3.3c0.1,0,0.2,0,0.3,0c1.4-0.6,2.5-2,2.5-3.3c0-0.6-0.2-1.3-0.7-1.7C138.3,111.9,138.2,111.8,138.1,111.8z"/>
</g>
<g class="st0">
	<path class="st1" d="M164.5,130.9h-2V123v-1.6c0-1.4-1.2-2.6-2.6-2.6h-6.4V115c0-0.5-0.4-1-1-1h-0.1v-1.2c0-0.2-0.2-0.4-0.4-0.4
		s-0.4,0.2-0.4,0.4v1.2h-0.1c-0.5,0-1,0.4-1,1v3.7h-6.8c-1.4,0-2.6,1.2-2.6,2.6v9.5h-1.6c-0.2,0-0.4,0.2-0.4,0.4s0.2,0.4,0.4,0.4
		h0.2l0.2,0.8c0.2,0.6,0.8,1.1,1.4,1.1h21.2c0.6,0,1.3-0.5,1.4-1.1l0.2-0.8h0.2c0.2,0,0.4-0.2,0.4-0.4
		C164.9,131.1,164.7,130.9,164.5,130.9L164.5,130.9z M151.3,115c0-0.1,0.1-0.1,0.1-0.1h1.1c0.1,0,0.1,0.1,0.1,0.1v3.7h-1.4
		L151.3,115L151.3,115z M143.7,119.6h16.2c1,0,1.8,0.8,1.8,1.8v1.3c-0.7,0.1-1.2,0.5-1.6,0.8c-0.4,0.3-0.7,0.6-1.5,0.6
		c-0.7,0-1-0.3-1.5-0.6c-0.5-0.4-1-0.8-2-0.8s-1.5,0.4-2,0.8c-0.4,0.3-0.7,0.6-1.5,0.6c-0.7,0-1-0.3-1.5-0.6c-0.5-0.4-1-0.8-2-0.8
		s-1.5,0.4-2,0.8c-0.2,0.2-0.5,0.4-0.8,0.5c-0.2,0.1-0.3,0.2-0.3,0.4v2.8c0,0.2-0.2,0.4-0.4,0.4s-0.4-0.2-0.4-0.4v-2.8
		c0-0.2-0.1-0.3-0.3-0.4c-0.3-0.1-0.5-0.3-0.8-0.5c-0.4-0.3-0.8-0.7-1.6-0.8v-1.3C141.9,120.4,142.7,119.6,143.7,119.6L143.7,119.6z
		 M141.9,123.5c0.4,0.1,0.7,0.3,1,0.6c0.2,0.2,0.4,0.4,0.7,0.5v2.6c0,0.7,0.6,1.2,1.2,1.2s1.2-0.6,1.2-1.2v-2.6
		c0.3-0.2,0.5-0.4,0.7-0.5c0.4-0.3,0.7-0.6,1.5-0.6c0.7,0,1,0.3,1.5,0.6c0.5,0.4,1,0.8,2,0.8s1.5-0.4,2-0.8c0.4-0.3,0.7-0.6,1.5-0.6
		c0.7,0,1,0.3,1.5,0.6c0.5,0.4,1,0.8,2,0.8s1.5-0.4,2-0.8c0.3-0.3,0.6-0.5,1-0.6v7.4h-19.8L141.9,123.5L141.9,123.5z M163.2,132.3
		c-0.1,0.3-0.4,0.5-0.7,0.5h-21.2c-0.3,0-0.6-0.2-0.7-0.5l-0.2-0.6h22.8L163.2,132.3z"/>
	<path class="st1" d="M150.4,113.1c0.1,0,0.2,0,0.3-0.1c0.2-0.2,0.2-0.4,0-0.6c-0.3-0.3-0.5-0.8-0.5-1.2c0-1,0.7-2,1.8-2.5
		c1.1,0.5,1.8,1.5,1.8,2.5c0,0.4-0.2,0.9-0.5,1.2c-0.2,0.2-0.1,0.4,0,0.6c0.2,0.2,0.4,0.1,0.6,0c0.4-0.5,0.7-1.1,0.7-1.7
		c0-1.3-1-2.7-2.5-3.3c-0.1,0-0.2,0-0.3,0c-1.4,0.6-2.5,2-2.5,3.3c0,0.6,0.2,1.3,0.7,1.7C150.1,113,150.2,113.1,150.4,113.1z"/>
</g>
<g class="st0">
	<path class="st1" d="M154.3,94h2v7.9v1.6c0,1.4,1.2,2.6,2.6,2.6h6.4v3.7c0,0.5,0.4,1,1,1h0.1v1.2c0,0.2,0.2,0.4,0.4,0.4
		s0.4-0.2,0.4-0.4v-1.2h0.1c0.5,0,1-0.4,1-1v-3.7h6.8c1.4,0,2.6-1.2,2.6-2.6V94h1.6c0.2,0,0.4-0.2,0.4-0.4s-0.2-0.4-0.4-0.4h-0.2
		l-0.2-0.8c-0.2-0.6-0.8-1.1-1.4-1.1h-21.2c-0.6,0-1.3,0.5-1.4,1.1l-0.2,0.8h-0.2c-0.2,0-0.4,0.2-0.4,0.4S154.1,94,154.3,94
		L154.3,94z M167.5,109.9c0,0.1-0.1,0.1-0.1,0.1h-1.1c-0.1,0-0.1-0.1-0.1-0.1v-3.7h1.4L167.5,109.9L167.5,109.9z M175.1,105.3h-16.2
		c-1,0-1.8-0.8-1.8-1.8v-1.3c0.7-0.1,1.2-0.5,1.6-0.8c0.4-0.3,0.7-0.6,1.5-0.6c0.7,0,1,0.3,1.5,0.6c0.5,0.4,1,0.8,2,0.8
		s1.5-0.4,2-0.8c0.4-0.3,0.7-0.6,1.5-0.6c0.7,0,1,0.3,1.5,0.6c0.5,0.4,1,0.8,2,0.8s1.5-0.4,2-0.8c0.2-0.2,0.5-0.4,0.8-0.5
		c0.2-0.1,0.3-0.2,0.3-0.4v-2.8c0-0.2,0.2-0.4,0.4-0.4s0.4,0.2,0.4,0.4v2.8c0,0.2,0.1,0.3,0.3,0.4c0.3,0.1,0.5,0.3,0.8,0.5
		c0.4,0.3,0.8,0.7,1.6,0.8v1.3C176.9,104.5,176.1,105.3,175.1,105.3L175.1,105.3z M176.9,101.4c-0.4-0.1-0.7-0.3-1-0.6
		c-0.2-0.2-0.4-0.4-0.7-0.5v-2.6c0-0.7-0.6-1.2-1.2-1.2s-1.2,0.6-1.2,1.2v2.6c-0.3,0.2-0.5,0.4-0.7,0.5c-0.4,0.3-0.7,0.6-1.5,0.6
		c-0.7,0-1-0.3-1.5-0.6c-0.5-0.4-1-0.8-2-0.8s-1.5,0.4-2,0.8c-0.4,0.3-0.7,0.6-1.5,0.6c-0.7,0-1-0.3-1.5-0.6c-0.5-0.4-1-0.8-2-0.8
		s-1.5,0.4-2,0.8c-0.3,0.3-0.6,0.5-1,0.6V94h19.8L176.9,101.4L176.9,101.4z M155.6,92.6c0.1-0.3,0.4-0.5,0.7-0.5h21.2
		c0.3,0,0.6,0.2,0.7,0.5l0.2,0.6h-22.8L155.6,92.6z"/>
	<path class="st1" d="M168.5,111.8c-0.1,0-0.2,0-0.3,0.1c-0.2,0.2-0.2,0.4,0,0.6c0.3,0.3,0.5,0.8,0.5,1.2c0,1-0.7,2-1.8,2.5
		c-1.1-0.5-1.8-1.5-1.8-2.5c0-0.4,0.2-0.9,0.5-1.2c0.2-0.2,0.1-0.4,0-0.6c-0.2-0.2-0.4-0.1-0.6,0c-0.4,0.5-0.7,1.1-0.7,1.7
		c0,1.3,1,2.7,2.5,3.3c0.1,0,0.2,0,0.3,0c1.4-0.6,2.5-2,2.5-3.3c0-0.6-0.2-1.3-0.7-1.7C168.7,111.9,168.6,111.8,168.5,111.8z"/>
</g>
</svg>
