<?xml version="1.0" encoding="utf-8"?>
<!-- Generator: Adobe Illustrator 20.0.0, SVG Export Plug-In . SVG Version: 6.00 Build 0)  -->
<svg version="1.1" id="圖層_1" xmlns="http://www.w3.org/2000/svg" xmlns:xlink="http://www.w3.org/1999/xlink" x="0px" y="0px"
	 viewBox="0 0 215.2 228" style="enable-background:new 0 0 215.2 228;" xml:space="preserve">
<style type="text/css">
	.st0{opacity:0.2;}
	.st1{fill:#FFFFFF;}
</style>
<g class="st0">
	<path class="st1" d="M38.7,17.7c-1.3,0-2.5-0.6-3.3-1.5c-0.8,0.9-2,1.5-3.3,1.5s-2.5-0.6-3.3-1.5c-0.8,0.9-2,1.5-3.3,1.5
		c-1.3,0-2.5-0.6-3.3-1.5c-0.8,0.9-2,1.5-3.3,1.5c-1.3,0-2.5-0.6-3.3-1.5c-0.8,0.9-2,1.5-3.3,1.5S9.8,17.1,9,16.2
		c-0.8,0.9-2,1.5-3.3,1.5c-2.4,0-4.3-1.9-4.3-4.3v-1.3c0-0.6,0.4-1,1-1H42c0.6,0,1,0.4,1,1v1.3C43,15.8,41.1,17.7,38.7,17.7z
		 M36.4,13.1c0,0.1,0,0.2,0,0.3c0,1.2,1.1,2.3,2.3,2.3s2.3-1.1,2.3-2.3v-0.3H36.4z M29.8,13.1c0,0.1,0,0.2,0,0.3
		c0,1.2,1.1,2.3,2.3,2.3c1.2,0,2.3-1.1,2.3-2.3c0-0.1,0-0.2,0-0.3H29.8z M23.2,13.1c0,0.1,0,0.2,0,0.3c0,1.2,1.1,2.3,2.3,2.3
		c1.2,0,2.3-1.1,2.3-2.3c0-0.1,0-0.2,0-0.3H23.2z M16.6,13.1c0,0.1,0,0.2,0,0.3c0,1.2,1.1,2.3,2.3,2.3c1.2,0,2.3-1.1,2.3-2.3
		c0-0.1,0-0.2,0-0.3H16.6z M10,13.1c0,0.1,0,0.2,0,0.3c0,1.2,1.1,2.3,2.3,2.3s2.3-1.1,2.3-2.3c0-0.1,0-0.2,0-0.3H10z M3.4,13.1v0.3
		c0,1.2,1.1,2.3,2.3,2.3S8,14.6,8,13.4c0-0.1,0-0.2,0-0.3H3.4z"/>
	<path class="st1" d="M41.3,13.1H2.4c-0.5,0-0.9-0.3-1-0.8c-0.1-0.4,0.1-0.9,0.5-1.1L21.4,1.1c0.3-0.2,0.6-0.1,0.9,0l19.5,10.1
		c0.4,0.2,0.6,0.7,0.5,1.1C42.2,12.8,41.8,13.1,41.3,13.1z M6.5,11.1h30.7l-15.3-8L6.5,11.1z"/>
	<path class="st1" d="M36.5,36.9H7.2c-2.2,0-3.9-1.7-3.9-3.9V16.6c0-0.6,0.4-1,1-1s1,0.4,1,1V33c0,1,0.9,1.9,1.9,1.9h29.3
		c1,0,1.9-0.9,1.9-1.9V16.6c0-0.6,0.4-1,1-1c0.6,0,1,0.4,1,1V33C40.4,35.2,38.7,36.9,36.5,36.9z"/>
	<path class="st1" d="M12.1,37c-0.6,0-1-0.4-1-1V24.4c0-1.3,1.2-2.5,2.6-2.5H17c1.5,0,2.6,1.1,2.6,2.5v11.5c0,0.6-0.4,1-1,1
		s-1-0.4-1-1V24.4c0-0.5-0.5-0.5-0.6-0.5h-3.3c-0.3,0-0.6,0.3-0.6,0.5V36C13.1,36.6,12.7,37,12.1,37z"/>
	<circle class="st1" cx="16.4" cy="30.1" r="0.6"/>
	<g>
		<path class="st1" d="M24.6,25.8c-0.1,0-0.3-0.1-0.4-0.2c-0.2-0.2-0.2-0.5,0-0.7l2.4-2.3c0.2-0.2,0.5-0.2,0.7,0l2.4,2.3
			c0.2,0.2,0.2,0.5,0,0.7s-0.5,0.2-0.7,0l-2.1-2l-2.1,2C24.8,25.8,24.7,25.8,24.6,25.8z"/>
		<path class="st1" d="M30.3,30.2h-6.5c-0.6,0-1-0.4-1-1v-3.9c0-0.6,0.4-1,1-1h6.5c0.6,0,1,0.4,1,1v3.9
			C31.3,29.8,30.9,30.2,30.3,30.2z M24.8,28.2h4.5v-1.9h-4.5V28.2z"/>
	</g>
	<path class="st1" d="M81.7,17.7c-1.3,0-2.5-0.6-3.3-1.5c-0.8,0.9-2,1.5-3.3,1.5c-1.3,0-2.5-0.6-3.3-1.5c-0.8,0.9-2,1.5-3.3,1.5
		s-2.5-0.6-3.3-1.5c-0.8,0.9-2,1.5-3.3,1.5c-1.3,0-2.5-0.6-3.3-1.5c-0.8,0.9-2,1.5-3.3,1.5c-1.3,0-2.5-0.6-3.3-1.5
		c-0.8,0.9-2,1.5-3.3,1.5c-2.4,0-4.3-1.9-4.3-4.3v-1.3c0-0.6,0.4-1,1-1H85c0.6,0,1,0.4,1,1v1.3C86,15.8,84.1,17.7,81.7,17.7z
		 M79.4,13.1c0,0.1,0,0.2,0,0.3c0,1.2,1.1,2.3,2.3,2.3c1.2,0,2.3-1.1,2.3-2.3v-0.3H79.4z M72.8,13.1c0,0.1,0,0.2,0,0.3
		c0,1.2,1.1,2.3,2.3,2.3s2.3-1.1,2.3-2.3c0-0.1,0-0.2,0-0.3H72.8z M66.2,13.1c0,0.1,0,0.2,0,0.3c0,1.2,1.1,2.3,2.3,2.3
		c1.2,0,2.3-1.1,2.3-2.3c0-0.1,0-0.2,0-0.3H66.2z M59.6,13.1c0,0.1,0,0.2,0,0.3c0,1.2,1.1,2.3,2.3,2.3s2.3-1.1,2.3-2.3
		c0-0.1,0-0.2,0-0.3H59.6z M53,13.1c0,0.1,0,0.2,0,0.3c0,1.2,1.1,2.3,2.3,2.3s2.3-1.1,2.3-2.3c0-0.1,0-0.2,0-0.3H53z M46.4,13.1v0.3
		c0,1.2,1.1,2.3,2.3,2.3s2.3-1.1,2.3-2.3c0-0.1,0-0.2,0-0.3H46.4z"/>
	<path class="st1" d="M84.3,13.1H45.4c-0.5,0-0.9-0.3-1-0.8c-0.1-0.4,0.1-0.9,0.5-1.1L64.4,1.1c0.3-0.2,0.6-0.1,0.9,0l19.5,10.1
		c0.4,0.2,0.6,0.7,0.5,1.1C85.2,12.8,84.8,13.1,84.3,13.1z M49.5,11.1h30.7l-15.3-8L49.5,11.1z"/>
	<path class="st1" d="M79.5,36.9H50.2c-2.2,0-3.9-1.7-3.9-3.9V16.6c0-0.6,0.4-1,1-1c0.6,0,1,0.4,1,1V33c0,1,0.9,1.9,1.9,1.9h29.3
		c1,0,1.9-0.9,1.9-1.9V16.6c0-0.6,0.4-1,1-1c0.6,0,1,0.4,1,1V33C83.4,35.2,81.7,36.9,79.5,36.9z"/>
	<path class="st1" d="M55.1,37c-0.6,0-1-0.4-1-1V24.4c0-1.3,1.2-2.5,2.6-2.5H60c1.5,0,2.6,1.1,2.6,2.5v11.5c0,0.6-0.4,1-1,1
		c-0.6,0-1-0.4-1-1V24.4c0-0.5-0.5-0.5-0.6-0.5h-3.3c-0.3,0-0.6,0.3-0.6,0.5V36C56.1,36.6,55.7,37,55.1,37z"/>
	<circle class="st1" cx="59.4" cy="30.1" r="0.6"/>
	<g>
		<path class="st1" d="M67.6,25.8c-0.1,0-0.3-0.1-0.4-0.2c-0.2-0.2-0.2-0.5,0-0.7l2.4-2.3c0.2-0.2,0.5-0.2,0.7,0l2.4,2.3
			c0.2,0.2,0.2,0.5,0,0.7s-0.5,0.2-0.7,0l-2.1-2l-2.1,2C67.8,25.8,67.7,25.8,67.6,25.8z"/>
		<path class="st1" d="M73.3,30.2h-6.5c-0.6,0-1-0.4-1-1v-3.9c0-0.6,0.4-1,1-1h6.5c0.6,0,1,0.4,1,1v3.9
			C74.3,29.8,73.9,30.2,73.3,30.2z M67.8,28.2h4.5v-1.9h-4.5V28.2z"/>
	</g>
	<path class="st1" d="M124.8,17.7c-1.3,0-2.5-0.6-3.3-1.5c-0.8,0.9-2,1.5-3.3,1.5c-1.3,0-2.5-0.6-3.3-1.5c-0.8,0.9-2,1.5-3.3,1.5
		s-2.5-0.6-3.3-1.5c-0.8,0.9-2,1.5-3.3,1.5c-1.3,0-2.5-0.6-3.3-1.5c-0.8,0.9-2,1.5-3.3,1.5s-2.5-0.6-3.3-1.5c-0.8,0.9-2,1.5-3.3,1.5
		c-2.4,0-4.3-1.9-4.3-4.3v-1.3c0-0.6,0.4-1,1-1h39.6c0.6,0,1,0.4,1,1v1.3C129.1,15.8,127.2,17.7,124.8,17.7z M122.5,13.1
		c0,0.1,0,0.2,0,0.3c0,1.2,1.1,2.3,2.3,2.3c1.2,0,2.3-1.1,2.3-2.3v-0.3H122.5z M115.9,13.1c0,0.1,0,0.2,0,0.3c0,1.2,1.1,2.3,2.3,2.3
		c1.2,0,2.3-1.1,2.3-2.3c0-0.1,0-0.2,0-0.3H115.9z M109.3,13.1c0,0.1,0,0.2,0,0.3c0,1.2,1.1,2.3,2.3,2.3c1.2,0,2.3-1.1,2.3-2.3
		c0-0.1,0-0.2,0-0.3H109.3z M102.7,13.1c0,0.1,0,0.2,0,0.3c0,1.2,1.1,2.3,2.3,2.3c1.2,0,2.3-1.1,2.3-2.3c0-0.1,0-0.2,0-0.3H102.7z
		 M96.1,13.1c0,0.1,0,0.2,0,0.3c0,1.2,1.1,2.3,2.3,2.3s2.3-1.1,2.3-2.3c0-0.1,0-0.2,0-0.3H96.1z M89.4,13.1v0.3
		c0,1.2,1.1,2.3,2.3,2.3c1.2,0,2.3-1.1,2.3-2.3c0-0.1,0-0.2,0-0.3H89.4z"/>
	<path class="st1" d="M127.4,13.1H88.4c-0.5,0-0.9-0.3-1-0.8c-0.1-0.4,0.1-0.9,0.5-1.1l19.5-10.1c0.3-0.1,0.6-0.1,0.9,0l19.5,10.1
		c0.4,0.2,0.6,0.7,0.5,1.1C128.3,12.8,127.9,13.1,127.4,13.1z M92.6,11.1h30.7l-15.3-8L92.6,11.1z"/>
	<path class="st1" d="M122.6,36.9H93.3c-2.2,0-3.9-1.7-3.9-3.9V16.6c0-0.6,0.4-1,1-1s1,0.4,1,1V33c0,1,0.9,1.9,1.9,1.9h29.3
		c1,0,1.9-0.9,1.9-1.9V16.6c0-0.6,0.4-1,1-1s1,0.4,1,1V33C126.5,35.2,124.8,36.9,122.6,36.9z"/>
	<path class="st1" d="M98.2,37c-0.6,0-1-0.4-1-1V24.4c0-1.3,1.2-2.5,2.6-2.5h3.3c1.5,0,2.6,1.1,2.6,2.5v11.5c0,0.6-0.4,1-1,1
		s-1-0.4-1-1V24.4c0-0.5-0.5-0.5-0.6-0.5h-3.3c-0.3,0-0.6,0.3-0.6,0.5V36C99.2,36.6,98.8,37,98.2,37z"/>
	<circle class="st1" cx="102.5" cy="30.1" r="0.6"/>
	<g>
		<path class="st1" d="M110.7,25.8c-0.1,0-0.3-0.1-0.4-0.2c-0.2-0.2-0.2-0.5,0-0.7l2.4-2.3c0.2-0.2,0.5-0.2,0.7,0l2.4,2.3
			c0.2,0.2,0.2,0.5,0,0.7c-0.2,0.2-0.5,0.2-0.7,0l-2.1-2l-2.1,2C110.9,25.8,110.8,25.8,110.7,25.8z"/>
		<path class="st1" d="M116.4,30.2h-6.5c-0.6,0-1-0.4-1-1v-3.9c0-0.6,0.4-1,1-1h6.5c0.6,0,1,0.4,1,1v3.9
			C117.4,29.8,117,30.2,116.4,30.2z M110.9,28.2h4.5v-1.9h-4.5V28.2z"/>
	</g>
	<path class="st1" d="M60.1,55.7c-1.3,0-2.5-0.6-3.3-1.5c-0.8,0.9-2,1.5-3.3,1.5s-2.5-0.6-3.3-1.5c-0.8,0.9-2,1.5-3.3,1.5
		s-2.5-0.6-3.3-1.5c-0.8,0.9-2,1.5-3.3,1.5c-1.3,0-2.5-0.6-3.3-1.5c-0.8,0.9-2,1.5-3.3,1.5c-1.3,0-2.5-0.6-3.3-1.5
		c-0.8,0.9-2,1.5-3.3,1.5c-2.4,0-4.3-1.9-4.3-4.3v-1.3c0-0.6,0.4-1,1-1h39.6c0.6,0,1,0.4,1,1v1.3C64.4,53.8,62.5,55.7,60.1,55.7z
		 M57.8,51.1c0,0.1,0,0.2,0,0.3c0,1.2,1.1,2.3,2.3,2.3s2.3-1.1,2.3-2.3v-0.3H57.8z M51.2,51.1c0,0.1,0,0.2,0,0.3
		c0,1.2,1.1,2.3,2.3,2.3s2.3-1.1,2.3-2.3c0-0.1,0-0.2,0-0.3H51.2z M44.6,51.1c0,0.1,0,0.2,0,0.3c0,1.2,1.1,2.3,2.3,2.3
		s2.3-1.1,2.3-2.3c0-0.1,0-0.2,0-0.3H44.6z M38,51.1c0,0.1,0,0.2,0,0.3c0,1.2,1.1,2.3,2.3,2.3s2.3-1.1,2.3-2.3c0-0.1,0-0.2,0-0.3H38
		z M31.4,51.1c0,0.1,0,0.2,0,0.3c0,1.2,1.1,2.3,2.3,2.3s2.3-1.1,2.3-2.3c0-0.1,0-0.2,0-0.3H31.4z M24.8,51.1v0.3
		c0,1.2,1.1,2.3,2.3,2.3c1.2,0,2.3-1.1,2.3-2.3c0-0.1,0-0.2,0-0.3H24.8z"/>
	<path class="st1" d="M62.7,51.1H23.8c-0.5,0-0.9-0.3-1-0.8c-0.1-0.4,0.1-0.9,0.5-1.1l19.5-10.1c0.3-0.1,0.6-0.1,0.9,0l19.5,10.1
		c0.4,0.2,0.6,0.7,0.5,1.1C63.6,50.8,63.2,51.1,62.7,51.1z M27.9,49.1h30.7l-15.3-8L27.9,49.1z"/>
	<path class="st1" d="M57.9,74.9H28.6c-2.2,0-3.9-1.7-3.9-3.9V54.6c0-0.6,0.4-1,1-1s1,0.4,1,1V71c0,1,0.9,1.9,1.9,1.9h29.3
		c1,0,1.9-0.9,1.9-1.9V54.6c0-0.6,0.4-1,1-1c0.6,0,1,0.4,1,1V71C61.8,73.2,60.1,74.9,57.9,74.9z"/>
	<path class="st1" d="M33.5,75c-0.6,0-1-0.4-1-1V62.4c0-1.3,1.2-2.5,2.6-2.5h3.3c1.5,0,2.6,1.1,2.6,2.5v11.5c0,0.6-0.4,1-1,1
		c-0.6,0-1-0.4-1-1V62.4c0-0.5-0.5-0.5-0.6-0.5h-3.3c-0.3,0-0.6,0.3-0.6,0.5V74C34.5,74.6,34.1,75,33.5,75z"/>
	<circle class="st1" cx="37.8" cy="68.1" r="0.6"/>
	<g>
		<path class="st1" d="M46,63.8c-0.1,0-0.3-0.1-0.4-0.2c-0.2-0.2-0.2-0.5,0-0.7l2.4-2.3c0.2-0.2,0.5-0.2,0.7,0l2.4,2.3
			c0.2,0.2,0.2,0.5,0,0.7c-0.2,0.2-0.5,0.2-0.7,0l-2.1-2l-2.1,2C46.2,63.8,46.1,63.8,46,63.8z"/>
		<path class="st1" d="M51.7,68.2h-6.5c-0.6,0-1-0.4-1-1v-3.9c0-0.6,0.4-1,1-1h6.5c0.6,0,1,0.4,1,1v3.9
			C52.7,67.8,52.3,68.2,51.7,68.2z M46.2,66.2h4.5v-1.9h-4.5V66.2z"/>
	</g>
	<path class="st1" d="M103.2,55.7c-1.3,0-2.5-0.6-3.3-1.5c-0.8,0.9-2,1.5-3.3,1.5c-1.3,0-2.5-0.6-3.3-1.5c-0.8,0.9-2,1.5-3.3,1.5
		c-1.3,0-2.5-0.6-3.3-1.5c-0.8,0.9-2,1.5-3.3,1.5s-2.5-0.6-3.3-1.5c-0.8,0.9-2,1.5-3.3,1.5c-1.3,0-2.5-0.6-3.3-1.5
		c-0.8,0.9-2,1.5-3.3,1.5c-2.4,0-4.3-1.9-4.3-4.3v-1.3c0-0.6,0.4-1,1-1h39.6c0.6,0,1,0.4,1,1v1.3C107.5,53.8,105.6,55.7,103.2,55.7z
		 M100.9,51.1c0,0.1,0,0.2,0,0.3c0,1.2,1.1,2.3,2.3,2.3c1.2,0,2.3-1.1,2.3-2.3v-0.3H100.9z M94.3,51.1c0,0.1,0,0.2,0,0.3
		c0,1.2,1.1,2.3,2.3,2.3c1.2,0,2.3-1.1,2.3-2.3c0-0.1,0-0.2,0-0.3H94.3z M87.6,51.1c0,0.1,0,0.2,0,0.3c0,1.2,1.1,2.3,2.3,2.3
		s2.3-1.1,2.3-2.3c0-0.1,0-0.2,0-0.3H87.6z M81,51.1c0,0.1,0,0.2,0,0.3c0,1.2,1.1,2.3,2.3,2.3c1.2,0,2.3-1.1,2.3-2.3
		c0-0.1,0-0.2,0-0.3H81z M74.4,51.1c0,0.1,0,0.2,0,0.3c0,1.2,1.1,2.3,2.3,2.3s2.3-1.1,2.3-2.3c0-0.1,0-0.2,0-0.3H74.4z M67.8,51.1
		v0.3c0,1.2,1.1,2.3,2.3,2.3c1.2,0,2.3-1.1,2.3-2.3c0-0.1,0-0.2,0-0.3H67.8z"/>
	<path class="st1" d="M105.8,51.1H66.8c-0.5,0-0.9-0.3-1-0.8c-0.1-0.4,0.1-0.9,0.5-1.1l19.5-10.1c0.3-0.1,0.6-0.1,0.9,0l19.5,10.1
		c0.4,0.2,0.6,0.7,0.5,1.1C106.7,50.8,106.3,51.1,105.8,51.1z M70.9,49.1h30.7l-15.3-8L70.9,49.1z"/>
	<path class="st1" d="M101,74.9H71.6c-2.2,0-3.9-1.7-3.9-3.9V54.6c0-0.6,0.4-1,1-1s1,0.4,1,1V71c0,1,0.9,1.9,1.9,1.9H101
		c1,0,1.9-0.9,1.9-1.9V54.6c0-0.6,0.4-1,1-1s1,0.4,1,1V71C104.9,73.2,103.2,74.9,101,74.9z"/>
	<path class="st1" d="M76.5,75c-0.6,0-1-0.4-1-1V62.4c0-1.3,1.2-2.5,2.6-2.5h3.3c1.5,0,2.6,1.1,2.6,2.5v11.5c0,0.6-0.4,1-1,1
		c-0.6,0-1-0.4-1-1V62.4c0-0.5-0.5-0.5-0.6-0.5h-3.3c-0.3,0-0.6,0.3-0.6,0.5V74C77.5,74.6,77.1,75,76.5,75z"/>
	<circle class="st1" cx="80.8" cy="68.1" r="0.6"/>
	<g>
		<path class="st1" d="M89,63.8c-0.1,0-0.3-0.1-0.4-0.2c-0.2-0.2-0.2-0.5,0-0.7l2.4-2.3c0.2-0.2,0.5-0.2,0.7,0l2.4,2.3
			c0.2,0.2,0.2,0.5,0,0.7c-0.2,0.2-0.5,0.2-0.7,0l-2.1-2l-2.1,2C89.2,63.8,89.1,63.8,89,63.8z"/>
		<path class="st1" d="M94.8,68.2h-6.5c-0.6,0-1-0.4-1-1v-3.9c0-0.6,0.4-1,1-1h6.5c0.6,0,1,0.4,1,1v3.9
			C95.8,67.8,95.4,68.2,94.8,68.2z M89.2,66.2h4.5v-1.9h-4.5V66.2z"/>
	</g>
	<path class="st1" d="M146.2,55.7c-1.3,0-2.5-0.6-3.3-1.5c-0.8,0.9-2,1.5-3.3,1.5c-1.3,0-2.5-0.6-3.3-1.5c-0.8,0.9-2,1.5-3.3,1.5
		c-1.3,0-2.5-0.6-3.3-1.5c-0.8,0.9-2,1.5-3.3,1.5s-2.5-0.6-3.3-1.5c-0.8,0.9-2,1.5-3.3,1.5c-1.3,0-2.5-0.6-3.3-1.5
		c-0.8,0.9-2,1.5-3.3,1.5c-2.4,0-4.3-1.9-4.3-4.3v-1.3c0-0.6,0.4-1,1-1h39.6c0.6,0,1,0.4,1,1v1.3C150.5,53.8,148.6,55.7,146.2,55.7z
		 M143.9,51.1c0,0.1,0,0.2,0,0.3c0,1.2,1.1,2.3,2.3,2.3s2.3-1.1,2.3-2.3v-0.3H143.9z M137.3,51.1c0,0.1,0,0.2,0,0.3
		c0,1.2,1.1,2.3,2.3,2.3c1.2,0,2.3-1.1,2.3-2.3c0-0.1,0-0.2,0-0.3H137.3z M130.7,51.1c0,0.1,0,0.2,0,0.3c0,1.2,1.1,2.3,2.3,2.3
		c1.2,0,2.3-1.1,2.3-2.3c0-0.1,0-0.2,0-0.3H130.7z M124.1,51.1c0,0.1,0,0.2,0,0.3c0,1.2,1.1,2.3,2.3,2.3s2.3-1.1,2.3-2.3
		c0-0.1,0-0.2,0-0.3H124.1z M117.5,51.1c0,0.1,0,0.2,0,0.3c0,1.2,1.1,2.3,2.3,2.3c1.2,0,2.3-1.1,2.3-2.3c0-0.1,0-0.2,0-0.3H117.5z
		 M110.9,51.1v0.3c0,1.2,1.1,2.3,2.3,2.3c1.2,0,2.3-1.1,2.3-2.3c0-0.1,0-0.2,0-0.3H110.9z"/>
	<path class="st1" d="M148.8,51.1h-38.9c-0.5,0-0.9-0.3-1-0.8c-0.1-0.4,0.1-0.9,0.5-1.1l19.5-10.1c0.3-0.1,0.6-0.1,0.9,0l19.5,10.1
		c0.4,0.2,0.6,0.7,0.5,1.1C149.7,50.8,149.3,51.1,148.8,51.1z M114,49.1h30.7l-15.3-8L114,49.1z"/>
	<path class="st1" d="M144,74.9h-29.3c-2.2,0-3.9-1.7-3.9-3.9V54.6c0-0.6,0.4-1,1-1c0.6,0,1,0.4,1,1V71c0,1,0.9,1.9,1.9,1.9H144
		c1,0,1.9-0.9,1.9-1.9V54.6c0-0.6,0.4-1,1-1c0.6,0,1,0.4,1,1V71C147.9,73.2,146.2,74.9,144,74.9z"/>
	<path class="st1" d="M119.6,75c-0.6,0-1-0.4-1-1V62.4c0-1.3,1.2-2.5,2.6-2.5h3.3c1.5,0,2.6,1.1,2.6,2.5v11.5c0,0.6-0.4,1-1,1
		s-1-0.4-1-1V62.4c0-0.5-0.5-0.5-0.6-0.5h-3.3c-0.3,0-0.6,0.3-0.6,0.5V74C120.6,74.6,120.2,75,119.6,75z"/>
	<circle class="st1" cx="123.9" cy="68.1" r="0.6"/>
	<g>
		<path class="st1" d="M132.1,63.8c-0.1,0-0.3-0.1-0.4-0.2c-0.2-0.2-0.2-0.5,0-0.7l2.4-2.3c0.2-0.2,0.5-0.2,0.7,0l2.4,2.3
			c0.2,0.2,0.2,0.5,0,0.7c-0.2,0.2-0.5,0.2-0.7,0l-2.1-2l-2.1,2C132.3,63.8,132.2,63.8,132.1,63.8z"/>
		<path class="st1" d="M137.8,68.2h-6.5c-0.6,0-1-0.4-1-1v-3.9c0-0.6,0.4-1,1-1h6.5c0.6,0,1,0.4,1,1v3.9
			C138.8,67.8,138.4,68.2,137.8,68.2z M132.3,66.2h4.5v-1.9h-4.5V66.2z"/>
	</g>
	<path class="st1" d="M167.8,17.7c-1.3,0-2.5-0.6-3.3-1.5c-0.8,0.9-2,1.5-3.3,1.5c-1.3,0-2.5-0.6-3.3-1.5c-0.8,0.9-2,1.5-3.3,1.5
		c-1.3,0-2.5-0.6-3.3-1.5c-0.8,0.9-2,1.5-3.3,1.5s-2.5-0.6-3.3-1.5c-0.8,0.9-2,1.5-3.3,1.5c-1.3,0-2.5-0.6-3.3-1.5
		c-0.8,0.9-2,1.5-3.3,1.5c-2.4,0-4.3-1.9-4.3-4.3v-1.3c0-0.6,0.4-1,1-1h39.6c0.6,0,1,0.4,1,1v1.3C172.1,15.8,170.2,17.7,167.8,17.7z
		 M165.5,13.1c0,0.1,0,0.2,0,0.3c0,1.2,1.1,2.3,2.3,2.3c1.2,0,2.3-1.1,2.3-2.3v-0.3H165.5z M158.9,13.1c0,0.1,0,0.2,0,0.3
		c0,1.2,1.1,2.3,2.3,2.3c1.2,0,2.3-1.1,2.3-2.3c0-0.1,0-0.2,0-0.3H158.9z M152.3,13.1c0,0.1,0,0.2,0,0.3c0,1.2,1.1,2.3,2.3,2.3
		s2.3-1.1,2.3-2.3c0-0.1,0-0.2,0-0.3H152.3z M145.7,13.1c0,0.1,0,0.2,0,0.3c0,1.2,1.1,2.3,2.3,2.3s2.3-1.1,2.3-2.3
		c0-0.1,0-0.2,0-0.3H145.7z M139.1,13.1c0,0.1,0,0.2,0,0.3c0,1.2,1.1,2.3,2.3,2.3c1.2,0,2.3-1.1,2.3-2.3c0-0.1,0-0.2,0-0.3H139.1z
		 M132.5,13.1v0.3c0,1.2,1.1,2.3,2.3,2.3c1.2,0,2.3-1.1,2.3-2.3c0-0.1,0-0.2,0-0.3H132.5z"/>
	<path class="st1" d="M170.4,13.1h-38.9c-0.5,0-0.9-0.3-1-0.8c-0.1-0.4,0.1-0.9,0.5-1.1l19.5-10.1c0.3-0.1,0.6-0.1,0.9,0l19.5,10.1
		c0.4,0.2,0.6,0.7,0.5,1.1C171.3,12.8,170.9,13.1,170.4,13.1z M135.6,11.1h30.7l-15.3-8L135.6,11.1z"/>
	<path class="st1" d="M165.6,36.9h-29.2c-2.2,0-3.9-1.7-3.9-3.9V16.6c0-0.6,0.4-1,1-1c0.6,0,1,0.4,1,1V33c0,1,0.9,1.9,1.9,1.9h29.2
		c1,0,1.9-0.9,1.9-1.9V16.6c0-0.6,0.4-1,1-1c0.6,0,1,0.4,1,1V33C169.5,35.2,167.8,36.9,165.6,36.9z"/>
	<path class="st1" d="M141.2,37c-0.6,0-1-0.4-1-1V24.4c0-1.3,1.2-2.5,2.6-2.5h3.3c1.5,0,2.6,1.1,2.6,2.5v11.5c0,0.6-0.4,1-1,1
		c-0.6,0-1-0.4-1-1V24.4c0-0.5-0.5-0.5-0.6-0.5h-3.3c-0.3,0-0.6,0.3-0.6,0.5V36C142.2,36.6,141.8,37,141.2,37z"/>
	<circle class="st1" cx="145.5" cy="30.1" r="0.6"/>
	<g>
		<path class="st1" d="M153.7,25.8c-0.1,0-0.3-0.1-0.4-0.2c-0.2-0.2-0.2-0.5,0-0.7l2.4-2.3c0.2-0.2,0.5-0.2,0.7,0l2.4,2.3
			c0.2,0.2,0.2,0.5,0,0.7s-0.5,0.2-0.7,0l-2.1-2l-2.1,2C153.9,25.8,153.8,25.8,153.7,25.8z"/>
		<path class="st1" d="M159.4,30.2h-6.5c-0.6,0-1-0.4-1-1v-3.9c0-0.6,0.4-1,1-1h6.5c0.6,0,1,0.4,1,1v3.9
			C160.4,29.8,160,30.2,159.4,30.2z M153.9,28.2h4.5v-1.9h-4.5V28.2z"/>
	</g>
	<path class="st1" d="M189.2,55.7c-1.3,0-2.5-0.6-3.3-1.5c-0.8,0.9-2,1.5-3.3,1.5c-1.3,0-2.5-0.6-3.3-1.5c-0.8,0.9-2,1.5-3.3,1.5
		s-2.5-0.6-3.3-1.5c-0.8,0.9-2,1.5-3.3,1.5c-1.3,0-2.5-0.6-3.3-1.5c-0.8,0.9-2,1.5-3.3,1.5c-1.3,0-2.5-0.6-3.3-1.5
		c-0.8,0.9-2,1.5-3.3,1.5c-2.4,0-4.3-1.9-4.3-4.3v-1.3c0-0.6,0.4-1,1-1h39.6c0.6,0,1,0.4,1,1v1.3C193.5,53.8,191.6,55.7,189.2,55.7z
		 M186.9,51.1c0,0.1,0,0.2,0,0.3c0,1.2,1.1,2.3,2.3,2.3c1.2,0,2.3-1.1,2.3-2.3v-0.3H186.9z M180.3,51.1c0,0.1,0,0.2,0,0.3
		c0,1.2,1.1,2.3,2.3,2.3s2.3-1.1,2.3-2.3c0-0.1,0-0.2,0-0.3H180.3z M173.7,51.1c0,0.1,0,0.2,0,0.3c0,1.2,1.1,2.3,2.3,2.3
		s2.3-1.1,2.3-2.3c0-0.1,0-0.2,0-0.3H173.7z M167.1,51.1c0,0.1,0,0.2,0,0.3c0,1.2,1.1,2.3,2.3,2.3c1.2,0,2.3-1.1,2.3-2.3
		c0-0.1,0-0.2,0-0.3H167.1z M160.5,51.1c0,0.1,0,0.2,0,0.3c0,1.2,1.1,2.3,2.3,2.3c1.2,0,2.3-1.1,2.3-2.3c0-0.1,0-0.2,0-0.3H160.5z
		 M153.9,51.1v0.3c0,1.2,1.1,2.3,2.3,2.3s2.3-1.1,2.3-2.3c0-0.1,0-0.2,0-0.3H153.9z"/>
	<path class="st1" d="M191.8,51.1h-38.9c-0.5,0-0.9-0.3-1-0.8c-0.1-0.4,0.1-0.9,0.5-1.1l19.5-10.1c0.3-0.1,0.6-0.1,0.9,0l19.5,10.1
		c0.4,0.2,0.6,0.7,0.5,1.1C192.7,50.8,192.3,51.1,191.8,51.1z M157,49.1h30.7l-15.3-8L157,49.1z"/>
	<path class="st1" d="M187,74.9h-29.2c-2.2,0-3.9-1.7-3.9-3.9V54.6c0-0.6,0.4-1,1-1c0.6,0,1,0.4,1,1V71c0,1,0.9,1.9,1.9,1.9H187
		c1,0,1.9-0.9,1.9-1.9V54.6c0-0.6,0.4-1,1-1c0.6,0,1,0.4,1,1V71C190.9,73.2,189.2,74.9,187,74.9z"/>
	<path class="st1" d="M162.6,75c-0.6,0-1-0.4-1-1V62.4c0-1.3,1.2-2.5,2.6-2.5h3.3c1.5,0,2.6,1.1,2.6,2.5v11.5c0,0.6-0.4,1-1,1
		s-1-0.4-1-1V62.4c0-0.5-0.5-0.5-0.6-0.5h-3.3c-0.3,0-0.6,0.3-0.6,0.5V74C163.6,74.6,163.2,75,162.6,75z"/>
	<circle class="st1" cx="166.9" cy="68.1" r="0.6"/>
	<g>
		<path class="st1" d="M175.1,63.8c-0.1,0-0.3-0.1-0.4-0.2c-0.2-0.2-0.2-0.5,0-0.7l2.4-2.3c0.2-0.2,0.5-0.2,0.7,0l2.4,2.3
			c0.2,0.2,0.2,0.5,0,0.7c-0.2,0.2-0.5,0.2-0.7,0l-2.1-2l-2.1,2C175.3,63.8,175.2,63.8,175.1,63.8z"/>
		<path class="st1" d="M180.8,68.2h-6.5c-0.6,0-1-0.4-1-1v-3.9c0-0.6,0.4-1,1-1h6.5c0.6,0,1,0.4,1,1v3.9
			C181.8,67.8,181.4,68.2,180.8,68.2z M175.3,66.2h4.5v-1.9h-4.5V66.2z"/>
	</g>
	<path class="st1" d="M210.8,17.7c-1.3,0-2.5-0.6-3.3-1.5c-0.8,0.9-2,1.5-3.3,1.5s-2.5-0.6-3.3-1.5c-0.8,0.9-2,1.5-3.3,1.5
		c-1.3,0-2.5-0.6-3.3-1.5c-0.8,0.9-2,1.5-3.3,1.5c-1.3,0-2.5-0.6-3.3-1.5c-0.8,0.9-2,1.5-3.3,1.5c-1.3,0-2.5-0.6-3.3-1.5
		c-0.8,0.9-2,1.5-3.3,1.5c-2.4,0-4.3-1.9-4.3-4.3v-1.3c0-0.6,0.4-1,1-1h39.6c0.6,0,1,0.4,1,1v1.3C215.1,15.8,213.2,17.7,210.8,17.7z
		 M208.5,13.1c0,0.1,0,0.2,0,0.3c0,1.2,1.1,2.3,2.3,2.3c1.2,0,2.3-1.1,2.3-2.3v-0.3H208.5z M201.9,13.1c0,0.1,0,0.2,0,0.3
		c0,1.2,1.1,2.3,2.3,2.3s2.3-1.1,2.3-2.3c0-0.1,0-0.2,0-0.3H201.9z M195.3,13.1c0,0.1,0,0.2,0,0.3c0,1.2,1.1,2.3,2.3,2.3
		s2.3-1.1,2.3-2.3c0-0.1,0-0.2,0-0.3H195.3z M188.7,13.1c0,0.1,0,0.2,0,0.3c0,1.2,1.1,2.3,2.3,2.3c1.2,0,2.3-1.1,2.3-2.3
		c0-0.1,0-0.2,0-0.3H188.7z M182.1,13.1c0,0.1,0,0.2,0,0.3c0,1.2,1.1,2.3,2.3,2.3c1.2,0,2.3-1.1,2.3-2.3c0-0.1,0-0.2,0-0.3H182.1z
		 M175.5,13.1v0.3c0,1.2,1.1,2.3,2.3,2.3s2.3-1.1,2.3-2.3c0-0.1,0-0.2,0-0.3H175.5z"/>
	<path class="st1" d="M213.4,13.1h-38.9c-0.5,0-0.9-0.3-1-0.8c-0.1-0.4,0.1-0.9,0.5-1.1l19.5-10.1c0.3-0.1,0.6-0.1,0.9,0l19.5,10.1
		c0.4,0.2,0.6,0.7,0.5,1.1C214.3,12.8,213.9,13.1,213.4,13.1z M178.6,11.1h30.7l-15.3-8L178.6,11.1z"/>
	<path class="st1" d="M208.6,36.9h-29.2c-2.2,0-3.9-1.7-3.9-3.9V16.6c0-0.6,0.4-1,1-1c0.6,0,1,0.4,1,1V33c0,1,0.9,1.9,1.9,1.9h29.2
		c1,0,1.9-0.9,1.9-1.9V16.6c0-0.6,0.4-1,1-1c0.6,0,1,0.4,1,1V33C212.5,35.2,210.8,36.9,208.6,36.9z"/>
	<path class="st1" d="M184.2,37c-0.6,0-1-0.4-1-1V24.4c0-1.3,1.2-2.5,2.6-2.5h3.3c1.5,0,2.6,1.1,2.6,2.5v11.5c0,0.6-0.4,1-1,1
		s-1-0.4-1-1V24.4c0-0.5-0.5-0.5-0.6-0.5h-3.3c-0.3,0-0.6,0.3-0.6,0.5V36C185.2,36.6,184.8,37,184.2,37z"/>
	<circle class="st1" cx="188.5" cy="30.1" r="0.6"/>
	<g>
		<path class="st1" d="M196.7,25.8c-0.1,0-0.3-0.1-0.4-0.2c-0.2-0.2-0.2-0.5,0-0.7l2.4-2.3c0.2-0.2,0.5-0.2,0.7,0l2.4,2.3
			c0.2,0.2,0.2,0.5,0,0.7c-0.2,0.2-0.5,0.2-0.7,0l-2.1-2l-2.1,2C196.9,25.8,196.8,25.8,196.7,25.8z"/>
		<path class="st1" d="M202.4,30.2h-6.5c-0.6,0-1-0.4-1-1v-3.9c0-0.6,0.4-1,1-1h6.5c0.6,0,1,0.4,1,1v3.9
			C203.4,29.8,203,30.2,202.4,30.2z M196.9,28.2h4.5v-1.9h-4.5V28.2z"/>
	</g>
	<path class="st1" d="M232.2,55.7c-1.3,0-2.5-0.6-3.3-1.5c-0.8,0.9-2,1.5-3.3,1.5c-1.3,0-2.5-0.6-3.3-1.5c-0.8,0.9-2,1.5-3.3,1.5
		c-1.3,0-2.5-0.6-3.3-1.5c-0.8,0.9-2,1.5-3.3,1.5c-1.3,0-2.5-0.6-3.3-1.5c-0.8,0.9-2,1.5-3.3,1.5s-2.5-0.6-3.3-1.5
		c-0.8,0.9-2,1.5-3.3,1.5c-2.4,0-4.3-1.9-4.3-4.3v-1.3c0-0.6,0.4-1,1-1h39.6c0.6,0,1,0.4,1,1v1.3C236.5,53.8,234.6,55.7,232.2,55.7z
		 M229.9,51.1c0,0.1,0,0.2,0,0.3c0,1.2,1.1,2.3,2.3,2.3s2.3-1.1,2.3-2.3v-0.3H229.9z M223.3,51.1c0,0.1,0,0.2,0,0.3
		c0,1.2,1.1,2.3,2.3,2.3s2.3-1.1,2.3-2.3c0-0.1,0-0.2,0-0.3H223.3z M216.7,51.1c0,0.1,0,0.2,0,0.3c0,1.2,1.1,2.3,2.3,2.3
		c1.2,0,2.3-1.1,2.3-2.3c0-0.1,0-0.2,0-0.3H216.7z M210.1,51.1c0,0.1,0,0.2,0,0.3c0,1.2,1.1,2.3,2.3,2.3c1.2,0,2.3-1.1,2.3-2.3
		c0-0.1,0-0.2,0-0.3H210.1z M203.5,51.1c0,0.1,0,0.2,0,0.3c0,1.2,1.1,2.3,2.3,2.3s2.3-1.1,2.3-2.3c0-0.1,0-0.2,0-0.3H203.5z
		 M196.9,51.1v0.3c0,1.2,1.1,2.3,2.3,2.3s2.3-1.1,2.3-2.3c0-0.1,0-0.2,0-0.3H196.9z"/>
	<path class="st1" d="M234.8,51.1h-38.9c-0.5,0-0.9-0.3-1-0.8c-0.1-0.4,0.1-0.9,0.5-1.1l19.5-10.1c0.3-0.1,0.6-0.1,0.9,0l19.5,10.1
		c0.4,0.2,0.6,0.7,0.5,1.1C235.7,50.8,235.3,51.1,234.8,51.1z M200,49.1h30.7l-15.3-8L200,49.1z"/>
	<path class="st1" d="M230,74.9h-29.2c-2.2,0-3.9-1.7-3.9-3.9V54.6c0-0.6,0.4-1,1-1c0.6,0,1,0.4,1,1V71c0,1,0.9,1.9,1.9,1.9H230
		c1,0,1.9-0.9,1.9-1.9V54.6c0-0.6,0.4-1,1-1s1,0.4,1,1V71C233.9,73.2,232.2,74.9,230,74.9z"/>
	<path class="st1" d="M205.6,75c-0.6,0-1-0.4-1-1V62.4c0-1.3,1.2-2.5,2.6-2.5h3.3c1.5,0,2.6,1.1,2.6,2.5v11.5c0,0.6-0.4,1-1,1
		c-0.6,0-1-0.4-1-1V62.4c0-0.5-0.5-0.5-0.6-0.5h-3.3c-0.3,0-0.6,0.3-0.6,0.5V74C206.6,74.6,206.2,75,205.6,75z"/>
	<circle class="st1" cx="209.9" cy="68.1" r="0.6"/>
	<g>
		<path class="st1" d="M218.1,63.8c-0.1,0-0.3-0.1-0.4-0.2c-0.2-0.2-0.2-0.5,0-0.7l2.4-2.3c0.2-0.2,0.5-0.2,0.7,0l2.4,2.3
			c0.2,0.2,0.2,0.5,0,0.7c-0.2,0.2-0.5,0.2-0.7,0l-2.1-2l-2.1,2C218.3,63.8,218.2,63.8,218.1,63.8z"/>
		<path class="st1" d="M223.8,68.2h-6.5c-0.6,0-1-0.4-1-1v-3.9c0-0.6,0.4-1,1-1h6.5c0.6,0,1,0.4,1,1v3.9
			C224.8,67.8,224.4,68.2,223.8,68.2z M218.3,66.2h4.5v-1.9h-4.5V66.2z"/>
	</g>
	<path class="st1" d="M17.2,55.7c-1.3,0-2.5-0.6-3.3-1.5c-0.8,0.9-2,1.5-3.3,1.5s-2.5-0.6-3.3-1.5c-0.8,0.9-2,1.5-3.3,1.5
		s-2.5-0.6-3.3-1.5c-0.8,0.9-2,1.5-3.3,1.5s-2.5-0.6-3.3-1.5c-0.8,0.9-2,1.5-3.3,1.5s-2.5-0.6-3.3-1.5c-0.8,0.9-2,1.5-3.3,1.5
		c-2.4,0-4.3-1.9-4.3-4.3v-1.3c0-0.6,0.4-1,1-1h39.6c0.6,0,1,0.4,1,1v1.3C21.5,53.8,19.6,55.7,17.2,55.7z M14.9,51.1
		c0,0.1,0,0.2,0,0.3c0,1.2,1.1,2.3,2.3,2.3c1.2,0,2.3-1.1,2.3-2.3v-0.3H14.9z M8.3,51.1c0,0.1,0,0.2,0,0.3c0,1.2,1.1,2.3,2.3,2.3
		s2.3-1.1,2.3-2.3c0-0.1,0-0.2,0-0.3H8.3z M1.7,51.1c0,0.1,0,0.2,0,0.3c0,1.2,1.1,2.3,2.3,2.3s2.3-1.1,2.3-2.3c0-0.1,0-0.2,0-0.3
		H1.7z M-4.9,51.1c0,0.1,0,0.2,0,0.3c0,1.2,1.1,2.3,2.3,2.3s2.3-1.1,2.3-2.3c0-0.1,0-0.2,0-0.3H-4.9z M-11.5,51.1c0,0.1,0,0.2,0,0.3
		c0,1.2,1.1,2.3,2.3,2.3s2.3-1.1,2.3-2.3c0-0.1,0-0.2,0-0.3H-11.5z M-18.1,51.1v0.3c0,1.2,1.1,2.3,2.3,2.3s2.3-1.1,2.3-2.3
		c0-0.1,0-0.2,0-0.3H-18.1z"/>
	<path class="st1" d="M19.8,51.1h-38.9c-0.5,0-0.9-0.3-1-0.8c-0.1-0.4,0.1-0.9,0.5-1.1l19.5-10.1c0.3-0.1,0.6-0.1,0.9,0l19.5,10.1
		c0.4,0.2,0.6,0.7,0.5,1.1C20.7,50.8,20.3,51.1,19.8,51.1z M-15,49.1h30.7l-15.3-8L-15,49.1z"/>
	<path class="st1" d="M15,74.9h-29.2c-2.2,0-3.9-1.7-3.9-3.9V54.6c0-0.6,0.4-1,1-1s1,0.4,1,1V71c0,1,0.9,1.9,1.9,1.9H15
		c1,0,1.9-0.9,1.9-1.9V54.6c0-0.6,0.4-1,1-1s1,0.4,1,1V71C18.9,73.2,17.2,74.9,15,74.9z"/>
	<path class="st1" d="M-9.4,75c-0.6,0-1-0.4-1-1V62.4c0-1.3,1.2-2.5,2.6-2.5h3.3c1.5,0,2.6,1.1,2.6,2.5v11.5c0,0.6-0.4,1-1,1
		s-1-0.4-1-1V62.4c0-0.5-0.5-0.5-0.6-0.5h-3.3c-0.3,0-0.6,0.3-0.6,0.5V74C-8.4,74.6-8.8,75-9.4,75z"/>
	<circle class="st1" cx="-5.1" cy="68.1" r="0.6"/>
	<g>
		<path class="st1" d="M3.1,63.8c-0.1,0-0.3-0.1-0.4-0.2c-0.2-0.2-0.2-0.5,0-0.7l2.4-2.3c0.2-0.2,0.5-0.2,0.7,0l2.4,2.3
			c0.2,0.2,0.2,0.5,0,0.7c-0.2,0.2-0.5,0.2-0.7,0l-2.1-2l-2.1,2C3.3,63.8,3.2,63.8,3.1,63.8z"/>
		<path class="st1" d="M8.8,68.2H2.3c-0.6,0-1-0.4-1-1v-3.9c0-0.6,0.4-1,1-1h6.5c0.6,0,1,0.4,1,1v3.9C9.8,67.8,9.4,68.2,8.8,68.2z
			 M3.3,66.2h4.5v-1.9H3.3V66.2z"/>
	</g>
	<g>
		<path class="st1" d="M33.5,151.1c-0.6,0-1-0.4-1-1v-11.6c0-1.3,1.2-2.5,2.6-2.5h3.3c1.5,0,2.6,1.1,2.6,2.5V150c0,0.6-0.4,1-1,1
			c-0.6,0-1-0.4-1-1v-11.5c0-0.5-0.5-0.5-0.6-0.5h-3.3c-0.3,0-0.6,0.3-0.6,0.5v11.6C34.5,150.7,34.1,151.1,33.5,151.1z"/>
		<g>
			<path class="st1" d="M46,139.9c-0.1,0-0.3-0.1-0.4-0.2c-0.2-0.2-0.2-0.5,0-0.7l2.4-2.3c0.2-0.2,0.5-0.2,0.7,0l2.4,2.3
				c0.2,0.2,0.2,0.5,0,0.7c-0.2,0.2-0.5,0.2-0.7,0l-2.1-2l-2.1,2C46.2,139.9,46.1,139.9,46,139.9z"/>
			<path class="st1" d="M51.7,144.3h-6.5c-0.6,0-1-0.4-1-1v-3.9c0-0.6,0.4-1,1-1h6.5c0.6,0,1,0.4,1,1v3.9
				C52.7,143.9,52.3,144.3,51.7,144.3z M46.2,142.3h4.5v-1.9h-4.5V142.3z"/>
		</g>
		<path class="st1" d="M76.5,151.1c-0.6,0-1-0.4-1-1v-11.6c0-1.3,1.2-2.5,2.6-2.5h3.3c1.5,0,2.6,1.1,2.6,2.5V150c0,0.6-0.4,1-1,1
			c-0.6,0-1-0.4-1-1v-11.5c0-0.5-0.5-0.5-0.6-0.5h-3.3c-0.3,0-0.6,0.3-0.6,0.5v11.6C77.5,150.7,77.1,151.1,76.5,151.1z"/>
		<g>
			<path class="st1" d="M89,139.9c-0.1,0-0.3-0.1-0.4-0.2c-0.2-0.2-0.2-0.5,0-0.7l2.4-2.3c0.2-0.2,0.5-0.2,0.7,0l2.4,2.3
				c0.2,0.2,0.2,0.5,0,0.7c-0.2,0.2-0.5,0.2-0.7,0l-2.1-2l-2.1,2C89.2,139.9,89.1,139.9,89,139.9z"/>
			<path class="st1" d="M94.8,144.3h-6.5c-0.6,0-1-0.4-1-1v-3.9c0-0.6,0.4-1,1-1h6.5c0.6,0,1,0.4,1,1v3.9
				C95.8,143.9,95.4,144.3,94.8,144.3z M89.2,142.3h4.5v-1.9h-4.5V142.3z"/>
		</g>
		<path class="st1" d="M119.6,151.1c-0.6,0-1-0.4-1-1v-11.6c0-1.3,1.2-2.5,2.6-2.5h3.3c1.5,0,2.6,1.1,2.6,2.5V150c0,0.6-0.4,1-1,1
			s-1-0.4-1-1v-11.5c0-0.5-0.5-0.5-0.6-0.5h-3.3c-0.3,0-0.6,0.3-0.6,0.5v11.6C120.6,150.7,120.2,151.1,119.6,151.1z"/>
		<g>
			<path class="st1" d="M132.1,139.9c-0.1,0-0.3-0.1-0.4-0.2c-0.2-0.2-0.2-0.5,0-0.7l2.4-2.3c0.2-0.2,0.5-0.2,0.7,0l2.4,2.3
				c0.2,0.2,0.2,0.5,0,0.7s-0.5,0.2-0.7,0l-2.1-2l-2.1,2C132.3,139.9,132.2,139.9,132.1,139.9z"/>
			<path class="st1" d="M137.8,144.3h-6.5c-0.6,0-1-0.4-1-1v-3.9c0-0.6,0.4-1,1-1h6.5c0.6,0,1,0.4,1,1v3.9
				C138.8,143.9,138.4,144.3,137.8,144.3z M132.3,142.3h4.5v-1.9h-4.5V142.3z"/>
		</g>
		<path class="st1" d="M162.6,151.1c-0.6,0-1-0.4-1-1v-11.6c0-1.3,1.2-2.5,2.6-2.5h3.3c1.5,0,2.6,1.1,2.6,2.5V150c0,0.6-0.4,1-1,1
			s-1-0.4-1-1v-11.5c0-0.5-0.5-0.5-0.6-0.5h-3.3c-0.3,0-0.6,0.3-0.6,0.5v11.6C163.6,150.7,163.2,151.1,162.6,151.1z"/>
		<g>
			<path class="st1" d="M175.1,139.9c-0.1,0-0.3-0.1-0.4-0.2c-0.2-0.2-0.2-0.5,0-0.7l2.4-2.3c0.2-0.2,0.5-0.2,0.7,0l2.4,2.3
				c0.2,0.2,0.2,0.5,0,0.7s-0.5,0.2-0.7,0l-2.1-2l-2.1,2C175.3,139.9,175.2,139.9,175.1,139.9z"/>
			<path class="st1" d="M180.8,144.3h-6.5c-0.6,0-1-0.4-1-1v-3.9c0-0.6,0.4-1,1-1h6.5c0.6,0,1,0.4,1,1v3.9
				C181.8,143.9,181.4,144.3,180.8,144.3z M175.3,142.3h4.5v-1.9h-4.5V142.3z"/>
		</g>
		<path class="st1" d="M205.6,151.1c-0.6,0-1-0.4-1-1v-11.6c0-1.3,1.2-2.5,2.6-2.5h3.3c1.5,0,2.6,1.1,2.6,2.5V150c0,0.6-0.4,1-1,1
			c-0.6,0-1-0.4-1-1v-11.5c0-0.5-0.5-0.5-0.6-0.5h-3.3c-0.3,0-0.6,0.3-0.6,0.5v11.6C206.6,150.7,206.2,151.1,205.6,151.1z"/>
		<g>
			<path class="st1" d="M218.1,139.9c-0.1,0-0.3-0.1-0.4-0.2c-0.2-0.2-0.2-0.5,0-0.7l2.4-2.3c0.2-0.2,0.5-0.2,0.7,0l2.4,2.3
				c0.2,0.2,0.2,0.5,0,0.7s-0.5,0.2-0.7,0l-2.1-2l-2.1,2C218.3,139.9,218.2,139.9,218.1,139.9z"/>
			<path class="st1" d="M223.8,144.3h-6.5c-0.6,0-1-0.4-1-1v-3.9c0-0.6,0.4-1,1-1h6.5c0.6,0,1,0.4,1,1v3.9
				C224.8,143.9,224.4,144.3,223.8,144.3z M218.3,142.3h4.5v-1.9h-4.5V142.3z"/>
		</g>
		<path class="st1" d="M-9.4,151.1c-0.6,0-1-0.4-1-1v-11.6c0-1.3,1.2-2.5,2.6-2.5h3.3c1.5,0,2.6,1.1,2.6,2.5V150c0,0.6-0.4,1-1,1
			s-1-0.4-1-1v-11.5c0-0.5-0.5-0.5-0.6-0.5h-3.3c-0.3,0-0.6,0.3-0.6,0.5v11.6C-8.4,150.7-8.8,151.1-9.4,151.1z"/>
		<g>
			<path class="st1" d="M3.1,139.9c-0.1,0-0.3-0.1-0.4-0.2c-0.2-0.2-0.2-0.5,0-0.7l2.4-2.3c0.2-0.2,0.5-0.2,0.7,0l2.4,2.3
				c0.2,0.2,0.2,0.5,0,0.7s-0.5,0.2-0.7,0l-2.1-2l-2.1,2C3.3,139.9,3.2,139.9,3.1,139.9z"/>
			<path class="st1" d="M8.8,144.3H2.3c-0.6,0-1-0.4-1-1v-3.9c0-0.6,0.4-1,1-1h6.5c0.6,0,1,0.4,1,1v3.9
				C9.8,143.9,9.4,144.3,8.8,144.3z M3.3,142.3h4.5v-1.9H3.3V142.3z"/>
		</g>
		<g>
			<path class="st1" d="M38.7,93.7c-1.3,0-2.5-0.6-3.3-1.5c-0.8,0.9-2,1.5-3.3,1.5s-2.5-0.6-3.3-1.5c-0.8,0.9-2,1.5-3.3,1.5
				c-1.3,0-2.5-0.6-3.3-1.5c-0.8,0.9-2,1.5-3.3,1.5c-1.3,0-2.5-0.6-3.3-1.5c-0.8,0.9-2,1.5-3.3,1.5S9.8,93.1,9,92.2
				c-0.8,0.9-2,1.5-3.3,1.5c-2.4,0-4.3-1.9-4.3-4.3v-1.3c0-0.6,0.4-1,1-1H42c0.6,0,1,0.4,1,1v1.3C43,91.8,41.1,93.7,38.7,93.7z
				 M36.4,89.1c0,0.1,0,0.2,0,0.3c0,1.2,1.1,2.3,2.3,2.3s2.3-1.1,2.3-2.3v-0.3H36.4z M29.8,89.1c0,0.1,0,0.2,0,0.3
				c0,1.2,1.1,2.3,2.3,2.3c1.2,0,2.3-1.1,2.3-2.3c0-0.1,0-0.2,0-0.3H29.8z M23.2,89.1c0,0.1,0,0.2,0,0.3c0,1.2,1.1,2.3,2.3,2.3
				c1.2,0,2.3-1.1,2.3-2.3c0-0.1,0-0.2,0-0.3H23.2z M16.6,89.1c0,0.1,0,0.2,0,0.3c0,1.2,1.1,2.3,2.3,2.3c1.2,0,2.3-1.1,2.3-2.3
				c0-0.1,0-0.2,0-0.3H16.6z M10,89.1c0,0.1,0,0.2,0,0.3c0,1.2,1.1,2.3,2.3,2.3s2.3-1.1,2.3-2.3c0-0.1,0-0.2,0-0.3H10z M3.4,89.1
				v0.3c0,1.2,1.1,2.3,2.3,2.3S8,90.6,8,89.4c0-0.1,0-0.2,0-0.3H3.4z"/>
			<path class="st1" d="M41.3,89.1H2.4c-0.5,0-0.9-0.3-1-0.8c-0.1-0.4,0.1-0.9,0.5-1.1l19.5-10.1c0.3-0.1,0.6-0.1,0.9,0l19.5,10.1
				c0.4,0.2,0.6,0.7,0.5,1.1C42.2,88.8,41.8,89.1,41.3,89.1z M6.5,87.1h30.7l-15.3-8L6.5,87.1z"/>
			<path class="st1" d="M36.5,112.9H7.2c-2.2,0-3.9-1.8-3.9-3.9V92.6c0-0.6,0.4-1,1-1s1,0.4,1,1V109c0,1,0.9,1.9,1.9,1.9h29.3
				c1,0,1.9-0.9,1.9-1.9V92.6c0-0.6,0.4-1,1-1c0.6,0,1,0.4,1,1V109C40.4,111.2,38.7,112.9,36.5,112.9z"/>
			<path class="st1" d="M18.6,113c-0.6,0-1-0.4-1-1v-11.5c0-0.5-0.5-0.5-0.6-0.5h-3.3c-0.3,0-0.6,0.3-0.6,0.5V112c0,0.6-0.4,1-1,1
				s-1-0.4-1-1v-11.5c0-1.3,1.2-2.5,2.6-2.5H17c1.5,0,2.6,1.1,2.6,2.5V112C19.6,112.6,19.2,113,18.6,113z"/>
			<circle class="st1" cx="16.4" cy="106.1" r="0.6"/>
			<g>
				<path class="st1" d="M29.4,101.8c-0.1,0-0.2,0-0.3-0.1l-2.1-2l-2.1,2c-0.2,0.2-0.5,0.2-0.7,0c-0.2-0.2-0.2-0.5,0-0.7l2.4-2.3
					c0.2-0.2,0.5-0.2,0.7,0l2.4,2.3c0.2,0.2,0.2,0.5,0,0.7C29.7,101.7,29.5,101.8,29.4,101.8z"/>
				<path class="st1" d="M30.3,106.2h-6.5c-0.6,0-1-0.4-1-1v-3.9c0-0.6,0.4-1,1-1h6.5c0.6,0,1,0.4,1,1v3.9
					C31.3,105.8,30.9,106.2,30.3,106.2z M24.8,104.2h4.5v-1.9h-4.5V104.2z"/>
			</g>
			<path class="st1" d="M81.7,93.7c-1.3,0-2.5-0.6-3.3-1.5c-0.8,0.9-2,1.5-3.3,1.5c-1.3,0-2.5-0.6-3.3-1.5c-0.8,0.9-2,1.5-3.3,1.5
				s-2.5-0.6-3.3-1.5c-0.8,0.9-2,1.5-3.3,1.5c-1.3,0-2.5-0.6-3.3-1.5c-0.8,0.9-2,1.5-3.3,1.5c-1.3,0-2.5-0.6-3.3-1.5
				c-0.8,0.9-2,1.5-3.3,1.5c-2.4,0-4.3-1.9-4.3-4.3v-1.3c0-0.6,0.4-1,1-1H85c0.6,0,1,0.4,1,1v1.3C86,91.8,84.1,93.7,81.7,93.7z
				 M79.4,89.1c0,0.1,0,0.2,0,0.3c0,1.2,1.1,2.3,2.3,2.3c1.2,0,2.3-1.1,2.3-2.3v-0.3H79.4z M72.8,89.1c0,0.1,0,0.2,0,0.3
				c0,1.2,1.1,2.3,2.3,2.3s2.3-1.1,2.3-2.3c0-0.1,0-0.2,0-0.3H72.8z M66.2,89.1c0,0.1,0,0.2,0,0.3c0,1.2,1.1,2.3,2.3,2.3
				c1.2,0,2.3-1.1,2.3-2.3c0-0.1,0-0.2,0-0.3H66.2z M59.6,89.1c0,0.1,0,0.2,0,0.3c0,1.2,1.1,2.3,2.3,2.3s2.3-1.1,2.3-2.3
				c0-0.1,0-0.2,0-0.3H59.6z M53,89.1c0,0.1,0,0.2,0,0.3c0,1.2,1.1,2.3,2.3,2.3s2.3-1.1,2.3-2.3c0-0.1,0-0.2,0-0.3H53z M46.4,89.1
				v0.3c0,1.2,1.1,2.3,2.3,2.3s2.3-1.1,2.3-2.3c0-0.1,0-0.2,0-0.3H46.4z"/>
			<path class="st1" d="M84.3,89.1H45.4c-0.5,0-0.9-0.3-1-0.8c-0.1-0.4,0.1-0.9,0.5-1.1l19.5-10.1c0.3-0.1,0.6-0.1,0.9,0l19.5,10.1
				c0.4,0.2,0.6,0.7,0.5,1.1C85.2,88.8,84.8,89.1,84.3,89.1z M49.5,87.1h30.7l-15.3-8L49.5,87.1z"/>
			<path class="st1" d="M79.5,112.9H50.2c-2.2,0-3.9-1.8-3.9-3.9V92.6c0-0.6,0.4-1,1-1c0.6,0,1,0.4,1,1V109c0,1,0.9,1.9,1.9,1.9
				h29.3c1,0,1.9-0.9,1.9-1.9V92.6c0-0.6,0.4-1,1-1c0.6,0,1,0.4,1,1V109C83.4,111.2,81.7,112.9,79.5,112.9z"/>
			<path class="st1" d="M61.6,113c-0.6,0-1-0.4-1-1v-11.5c0-0.5-0.5-0.5-0.6-0.5h-3.3c-0.3,0-0.6,0.3-0.6,0.5V112c0,0.6-0.4,1-1,1
				c-0.6,0-1-0.4-1-1v-11.5c0-1.3,1.2-2.5,2.6-2.5H60c1.5,0,2.6,1.1,2.6,2.5V112C62.6,112.6,62.2,113,61.6,113z"/>
			<circle class="st1" cx="59.4" cy="106.1" r="0.6"/>
			<g>
				<path class="st1" d="M72.4,101.8c-0.1,0-0.2,0-0.3-0.1l-2.1-2l-2.1,2c-0.2,0.2-0.5,0.2-0.7,0c-0.2-0.2-0.2-0.5,0-0.7l2.4-2.3
					c0.2-0.2,0.5-0.2,0.7,0l2.4,2.3c0.2,0.2,0.2,0.5,0,0.7C72.7,101.7,72.5,101.8,72.4,101.8z"/>
				<path class="st1" d="M73.3,106.2h-6.5c-0.6,0-1-0.4-1-1v-3.9c0-0.6,0.4-1,1-1h6.5c0.6,0,1,0.4,1,1v3.9
					C74.3,105.8,73.9,106.2,73.3,106.2z M67.8,104.2h4.5v-1.9h-4.5V104.2z"/>
			</g>
			<path class="st1" d="M124.8,93.7c-1.3,0-2.5-0.6-3.3-1.5c-0.8,0.9-2,1.5-3.3,1.5c-1.3,0-2.5-0.6-3.3-1.5c-0.8,0.9-2,1.5-3.3,1.5
				s-2.5-0.6-3.3-1.5c-0.8,0.9-2,1.5-3.3,1.5c-1.3,0-2.5-0.6-3.3-1.5c-0.8,0.9-2,1.5-3.3,1.5s-2.5-0.6-3.3-1.5
				c-0.8,0.9-2,1.5-3.3,1.5c-2.4,0-4.3-1.9-4.3-4.3v-1.3c0-0.6,0.4-1,1-1h39.6c0.6,0,1,0.4,1,1v1.3
				C129.1,91.8,127.2,93.7,124.8,93.7z M122.5,89.1c0,0.1,0,0.2,0,0.3c0,1.2,1.1,2.3,2.3,2.3c1.2,0,2.3-1.1,2.3-2.3v-0.3H122.5z
				 M115.9,89.1c0,0.1,0,0.2,0,0.3c0,1.2,1.1,2.3,2.3,2.3c1.2,0,2.3-1.1,2.3-2.3c0-0.1,0-0.2,0-0.3H115.9z M109.3,89.1
				c0,0.1,0,0.2,0,0.3c0,1.2,1.1,2.3,2.3,2.3c1.2,0,2.3-1.1,2.3-2.3c0-0.1,0-0.2,0-0.3H109.3z M102.7,89.1c0,0.1,0,0.2,0,0.3
				c0,1.2,1.1,2.3,2.3,2.3c1.2,0,2.3-1.1,2.3-2.3c0-0.1,0-0.2,0-0.3H102.7z M96.1,89.1c0,0.1,0,0.2,0,0.3c0,1.2,1.1,2.3,2.3,2.3
				s2.3-1.1,2.3-2.3c0-0.1,0-0.2,0-0.3H96.1z M89.4,89.1v0.3c0,1.2,1.1,2.3,2.3,2.3c1.2,0,2.3-1.1,2.3-2.3c0-0.1,0-0.2,0-0.3H89.4z"
				/>
			<path class="st1" d="M127.4,89.1H88.4c-0.5,0-0.9-0.3-1-0.8c-0.1-0.4,0.1-0.9,0.5-1.1l19.5-10.1c0.3-0.1,0.6-0.1,0.9,0l19.5,10.1
				c0.4,0.2,0.6,0.7,0.5,1.1C128.3,88.8,127.9,89.1,127.4,89.1z M92.6,87.1h30.7l-15.3-8L92.6,87.1z"/>
			<path class="st1" d="M122.6,112.9H93.3c-2.2,0-3.9-1.8-3.9-3.9V92.6c0-0.6,0.4-1,1-1s1,0.4,1,1V109c0,1,0.9,1.9,1.9,1.9h29.3
				c1,0,1.9-0.9,1.9-1.9V92.6c0-0.6,0.4-1,1-1s1,0.4,1,1V109C126.5,111.2,124.8,112.9,122.6,112.9z"/>
			<path class="st1" d="M104.7,113c-0.6,0-1-0.4-1-1v-11.5c0-0.5-0.5-0.5-0.6-0.5h-3.3c-0.3,0-0.6,0.3-0.6,0.5V112c0,0.6-0.4,1-1,1
				s-1-0.4-1-1v-11.5c0-1.3,1.2-2.5,2.6-2.5h3.3c1.5,0,2.6,1.1,2.6,2.5V112C105.7,112.6,105.3,113,104.7,113z"/>
			<circle class="st1" cx="102.5" cy="106.1" r="0.6"/>
			<g>
				<path class="st1" d="M110.7,101.8c-0.1,0-0.3-0.1-0.4-0.2c-0.2-0.2-0.2-0.5,0-0.7l2.4-2.3c0.2-0.2,0.5-0.2,0.7,0l2.4,2.3
					c0.2,0.2,0.2,0.5,0,0.7c-0.2,0.2-0.5,0.2-0.7,0l-2.1-2l-2.1,2C110.9,101.8,110.8,101.8,110.7,101.8z"/>
				<path class="st1" d="M116.4,106.2h-6.5c-0.6,0-1-0.4-1-1v-3.9c0-0.6,0.4-1,1-1h6.5c0.6,0,1,0.4,1,1v3.9
					C117.4,105.8,117,106.2,116.4,106.2z M110.9,104.2h4.5v-1.9h-4.5V104.2z"/>
			</g>
			<path class="st1" d="M167.8,93.7c-1.3,0-2.5-0.6-3.3-1.5c-0.8,0.9-2,1.5-3.3,1.5c-1.3,0-2.5-0.6-3.3-1.5c-0.8,0.9-2,1.5-3.3,1.5
				c-1.3,0-2.5-0.6-3.3-1.5c-0.8,0.9-2,1.5-3.3,1.5s-2.5-0.6-3.3-1.5c-0.8,0.9-2,1.5-3.3,1.5c-1.3,0-2.5-0.6-3.3-1.5
				c-0.8,0.9-2,1.5-3.3,1.5c-2.4,0-4.3-1.9-4.3-4.3v-1.3c0-0.6,0.4-1,1-1h39.6c0.6,0,1,0.4,1,1v1.3
				C172.1,91.8,170.2,93.7,167.8,93.7z M165.5,89.1c0,0.1,0,0.2,0,0.3c0,1.2,1.1,2.3,2.3,2.3c1.2,0,2.3-1.1,2.3-2.3v-0.3H165.5z
				 M158.9,89.1c0,0.1,0,0.2,0,0.3c0,1.2,1.1,2.3,2.3,2.3c1.2,0,2.3-1.1,2.3-2.3c0-0.1,0-0.2,0-0.3H158.9z M152.3,89.1
				c0,0.1,0,0.2,0,0.3c0,1.2,1.1,2.3,2.3,2.3s2.3-1.1,2.3-2.3c0-0.1,0-0.2,0-0.3H152.3z M145.7,89.1c0,0.1,0,0.2,0,0.3
				c0,1.2,1.1,2.3,2.3,2.3s2.3-1.1,2.3-2.3c0-0.1,0-0.2,0-0.3H145.7z M139.1,89.1c0,0.1,0,0.2,0,0.3c0,1.2,1.1,2.3,2.3,2.3
				c1.2,0,2.3-1.1,2.3-2.3c0-0.1,0-0.2,0-0.3H139.1z M132.5,89.1v0.3c0,1.2,1.1,2.3,2.3,2.3c1.2,0,2.3-1.1,2.3-2.3
				c0-0.1,0-0.2,0-0.3H132.5z"/>
			<path class="st1" d="M170.4,89.1h-38.9c-0.5,0-0.9-0.3-1-0.8c-0.1-0.4,0.1-0.9,0.5-1.1l19.5-10.1c0.3-0.1,0.6-0.1,0.9,0
				l19.5,10.1c0.4,0.2,0.6,0.7,0.5,1.1C171.3,88.8,170.9,89.1,170.4,89.1z M135.6,87.1h30.7l-15.3-8L135.6,87.1z"/>
			<path class="st1" d="M165.6,112.9h-29.2c-2.2,0-3.9-1.8-3.9-3.9V92.6c0-0.6,0.4-1,1-1c0.6,0,1,0.4,1,1V109c0,1,0.9,1.9,1.9,1.9
				h29.2c1,0,1.9-0.9,1.9-1.9V92.6c0-0.6,0.4-1,1-1c0.6,0,1,0.4,1,1V109C169.5,111.2,167.8,112.9,165.6,112.9z"/>
			<path class="st1" d="M147.7,113c-0.6,0-1-0.4-1-1v-11.5c0-0.5-0.5-0.5-0.6-0.5h-3.3c-0.3,0-0.6,0.3-0.6,0.5V112c0,0.6-0.4,1-1,1
				c-0.6,0-1-0.4-1-1v-11.5c0-1.3,1.2-2.5,2.6-2.5h3.3c1.5,0,2.6,1.1,2.6,2.5V112C148.7,112.6,148.3,113,147.7,113z"/>
			<circle class="st1" cx="145.5" cy="106.1" r="0.6"/>
			<g>
				<path class="st1" d="M153.7,101.8c-0.1,0-0.3-0.1-0.4-0.2c-0.2-0.2-0.2-0.5,0-0.7l2.4-2.3c0.2-0.2,0.5-0.2,0.7,0l2.4,2.3
					c0.2,0.2,0.2,0.5,0,0.7c-0.2,0.2-0.5,0.2-0.7,0l-2.1-2l-2.1,2C153.9,101.8,153.8,101.8,153.7,101.8z"/>
				<path class="st1" d="M159.4,106.2h-6.5c-0.6,0-1-0.4-1-1v-3.9c0-0.6,0.4-1,1-1h6.5c0.6,0,1,0.4,1,1v3.9
					C160.4,105.8,160,106.2,159.4,106.2z M153.9,104.2h4.5v-1.9h-4.5V104.2z"/>
			</g>
			<path class="st1" d="M60.1,131.8c-1.3,0-2.5-0.6-3.3-1.5c-0.8,0.9-2,1.5-3.3,1.5s-2.5-0.6-3.3-1.5c-0.8,0.9-2,1.5-3.3,1.5
				s-2.5-0.6-3.3-1.5c-0.8,0.9-2,1.5-3.3,1.5c-1.3,0-2.5-0.6-3.3-1.5c-0.8,0.9-2,1.5-3.3,1.5c-1.3,0-2.5-0.6-3.3-1.5
				c-0.8,0.9-2,1.5-3.3,1.5c-2.4,0-4.3-1.9-4.3-4.3v-1.3c0-0.6,0.4-1,1-1h39.6c0.6,0,1,0.4,1,1v1.3
				C64.4,129.9,62.5,131.8,60.1,131.8z M57.8,127.2c0,0.1,0,0.2,0,0.3c0,1.2,1.1,2.3,2.3,2.3s2.3-1.1,2.3-2.3v-0.3
				C62.4,127.2,57.8,127.2,57.8,127.2z M51.2,127.2c0,0.1,0,0.2,0,0.3c0,1.2,1.1,2.3,2.3,2.3s2.3-1.1,2.3-2.3c0-0.1,0-0.2,0-0.3
				C55.8,127.2,51.2,127.2,51.2,127.2z M44.6,127.2c0,0.1,0,0.2,0,0.3c0,1.2,1.1,2.3,2.3,2.3s2.3-1.1,2.3-2.3c0-0.1,0-0.2,0-0.3
				C49.2,127.2,44.6,127.2,44.6,127.2z M38,127.2c0,0.1,0,0.2,0,0.3c0,1.2,1.1,2.3,2.3,2.3s2.3-1.1,2.3-2.3c0-0.1,0-0.2,0-0.3
				C42.6,127.2,38,127.2,38,127.2z M31.4,127.2c0,0.1,0,0.2,0,0.3c0,1.2,1.1,2.3,2.3,2.3s2.3-1.1,2.3-2.3c0-0.1,0-0.2,0-0.3
				C36,127.2,31.4,127.2,31.4,127.2z M24.8,127.2v0.3c0,1.2,1.1,2.3,2.3,2.3c1.2,0,2.3-1.1,2.3-2.3c0-0.1,0-0.2,0-0.3
				C29.4,127.2,24.8,127.2,24.8,127.2z"/>
			<path class="st1" d="M62.7,127.2H23.8c-0.5,0-0.9-0.3-1-0.8c-0.1-0.4,0.1-0.9,0.5-1.1l19.5-10.1c0.3-0.1,0.6-0.1,0.9,0l19.5,10.1
				c0.4,0.2,0.6,0.7,0.5,1.1C63.6,126.9,63.2,127.2,62.7,127.2z M27.9,125.2h30.7l-15.3-8L27.9,125.2z"/>
			<path class="st1" d="M57.9,151H28.6c-2.2,0-3.9-1.7-3.9-3.9v-16.4c0-0.6,0.4-1,1-1s1,0.4,1,1v16.4c0,1,0.9,1.9,1.9,1.9h29.3
				c1,0,1.9-0.9,1.9-1.9v-16.4c0-0.6,0.4-1,1-1c0.6,0,1,0.4,1,1v16.4C61.8,149.3,60.1,151,57.9,151z"/>
			<path class="st1" d="M103.2,131.8c-1.3,0-2.5-0.6-3.3-1.5c-0.8,0.9-2,1.5-3.3,1.5c-1.3,0-2.5-0.6-3.3-1.5c-0.8,0.9-2,1.5-3.3,1.5
				c-1.3,0-2.5-0.6-3.3-1.5c-0.8,0.9-2,1.5-3.3,1.5s-2.5-0.6-3.3-1.5c-0.8,0.9-2,1.5-3.3,1.5c-1.3,0-2.5-0.6-3.3-1.5
				c-0.8,0.9-2,1.5-3.3,1.5c-2.4,0-4.3-1.9-4.3-4.3v-1.3c0-0.6,0.4-1,1-1h39.6c0.6,0,1,0.4,1,1v1.3
				C107.5,129.9,105.6,131.8,103.2,131.8z M100.9,127.2c0,0.1,0,0.2,0,0.3c0,1.2,1.1,2.3,2.3,2.3c1.2,0,2.3-1.1,2.3-2.3v-0.3
				C105.5,127.2,100.9,127.2,100.9,127.2z M94.3,127.2c0,0.1,0,0.2,0,0.3c0,1.2,1.1,2.3,2.3,2.3c1.2,0,2.3-1.1,2.3-2.3
				c0-0.1,0-0.2,0-0.3C98.9,127.2,94.3,127.2,94.3,127.2z M87.6,127.2c0,0.1,0,0.2,0,0.3c0,1.2,1.1,2.3,2.3,2.3s2.3-1.1,2.3-2.3
				c0-0.1,0-0.2,0-0.3C92.3,127.2,87.6,127.2,87.6,127.2z M81,127.2c0,0.1,0,0.2,0,0.3c0,1.2,1.1,2.3,2.3,2.3c1.2,0,2.3-1.1,2.3-2.3
				c0-0.1,0-0.2,0-0.3C85.6,127.2,81,127.2,81,127.2z M74.4,127.2c0,0.1,0,0.2,0,0.3c0,1.2,1.1,2.3,2.3,2.3s2.3-1.1,2.3-2.3
				c0-0.1,0-0.2,0-0.3C79,127.2,74.4,127.2,74.4,127.2z M67.8,127.2v0.3c0,1.2,1.1,2.3,2.3,2.3c1.2,0,2.3-1.1,2.3-2.3
				c0-0.1,0-0.2,0-0.3C72.4,127.2,67.8,127.2,67.8,127.2z"/>
			<path class="st1" d="M105.8,127.2H66.8c-0.5,0-0.9-0.3-1-0.8c-0.1-0.4,0.1-0.9,0.5-1.1l19.5-10.1c0.3-0.1,0.6-0.1,0.9,0
				l19.5,10.1c0.4,0.2,0.6,0.7,0.5,1.1C106.7,126.9,106.3,127.2,105.8,127.2z M70.9,125.2h30.7l-15.3-8L70.9,125.2z"/>
			<path class="st1" d="M101,151H71.6c-2.2,0-3.9-1.7-3.9-3.9v-16.4c0-0.6,0.4-1,1-1s1,0.4,1,1v16.4c0,1,0.9,1.9,1.9,1.9H101
				c1,0,1.9-0.9,1.9-1.9v-16.4c0-0.6,0.4-1,1-1s1,0.4,1,1v16.4C104.9,149.3,103.2,151,101,151z"/>
			<path class="st1" d="M146.2,131.8c-1.3,0-2.5-0.6-3.3-1.5c-0.8,0.9-2,1.5-3.3,1.5c-1.3,0-2.5-0.6-3.3-1.5c-0.8,0.9-2,1.5-3.3,1.5
				c-1.3,0-2.5-0.6-3.3-1.5c-0.8,0.9-2,1.5-3.3,1.5s-2.5-0.6-3.3-1.5c-0.8,0.9-2,1.5-3.3,1.5c-1.3,0-2.5-0.6-3.3-1.5
				c-0.8,0.9-2,1.5-3.3,1.5c-2.4,0-4.3-1.9-4.3-4.3v-1.3c0-0.6,0.4-1,1-1h39.6c0.6,0,1,0.4,1,1v1.3
				C150.5,129.9,148.6,131.8,146.2,131.8z M143.9,127.2c0,0.1,0,0.2,0,0.3c0,1.2,1.1,2.3,2.3,2.3s2.3-1.1,2.3-2.3v-0.3
				C148.5,127.2,143.9,127.2,143.9,127.2z M137.3,127.2c0,0.1,0,0.2,0,0.3c0,1.2,1.1,2.3,2.3,2.3c1.2,0,2.3-1.1,2.3-2.3
				c0-0.1,0-0.2,0-0.3C141.9,127.2,137.3,127.2,137.3,127.2z M130.7,127.2c0,0.1,0,0.2,0,0.3c0,1.2,1.1,2.3,2.3,2.3
				c1.2,0,2.3-1.1,2.3-2.3c0-0.1,0-0.2,0-0.3C135.3,127.2,130.7,127.2,130.7,127.2z M124.1,127.2c0,0.1,0,0.2,0,0.3
				c0,1.2,1.1,2.3,2.3,2.3s2.3-1.1,2.3-2.3c0-0.1,0-0.2,0-0.3C128.7,127.2,124.1,127.2,124.1,127.2z M117.5,127.2c0,0.1,0,0.2,0,0.3
				c0,1.2,1.1,2.3,2.3,2.3c1.2,0,2.3-1.1,2.3-2.3c0-0.1,0-0.2,0-0.3C122.1,127.2,117.5,127.2,117.5,127.2z M110.9,127.2v0.3
				c0,1.2,1.1,2.3,2.3,2.3c1.2,0,2.3-1.1,2.3-2.3c0-0.1,0-0.2,0-0.3C115.5,127.2,110.9,127.2,110.9,127.2z"/>
			<path class="st1" d="M148.8,127.2h-38.9c-0.5,0-0.9-0.3-1-0.8c-0.1-0.4,0.1-0.9,0.5-1.1l19.5-10.1c0.3-0.1,0.6-0.1,0.9,0
				l19.5,10.1c0.4,0.2,0.6,0.7,0.5,1.1C149.7,126.9,149.3,127.2,148.8,127.2z M114,125.2h30.7l-15.3-8L114,125.2z"/>
			<path class="st1" d="M144,151h-29.3c-2.2,0-3.9-1.7-3.9-3.9v-16.4c0-0.6,0.4-1,1-1c0.6,0,1,0.4,1,1v16.4c0,1,0.9,1.9,1.9,1.9H144
				c1,0,1.9-0.9,1.9-1.9v-16.4c0-0.6,0.4-1,1-1c0.6,0,1,0.4,1,1v16.4C147.9,149.3,146.2,151,144,151z"/>
			<path class="st1" d="M189.2,131.8c-1.3,0-2.5-0.6-3.3-1.5c-0.8,0.9-2,1.5-3.3,1.5c-1.3,0-2.5-0.6-3.3-1.5c-0.8,0.9-2,1.5-3.3,1.5
				s-2.5-0.6-3.3-1.5c-0.8,0.9-2,1.5-3.3,1.5c-1.3,0-2.5-0.6-3.3-1.5c-0.8,0.9-2,1.5-3.3,1.5c-1.3,0-2.5-0.6-3.3-1.5
				c-0.8,0.9-2,1.5-3.3,1.5c-2.4,0-4.3-1.9-4.3-4.3v-1.3c0-0.6,0.4-1,1-1h39.6c0.6,0,1,0.4,1,1v1.3
				C193.5,129.9,191.6,131.8,189.2,131.8z M186.9,127.2c0,0.1,0,0.2,0,0.3c0,1.2,1.1,2.3,2.3,2.3c1.2,0,2.3-1.1,2.3-2.3v-0.3
				C191.5,127.2,186.9,127.2,186.9,127.2z M180.3,127.2c0,0.1,0,0.2,0,0.3c0,1.2,1.1,2.3,2.3,2.3s2.3-1.1,2.3-2.3c0-0.1,0-0.2,0-0.3
				C184.9,127.2,180.3,127.2,180.3,127.2z M173.7,127.2c0,0.1,0,0.2,0,0.3c0,1.2,1.1,2.3,2.3,2.3s2.3-1.1,2.3-2.3c0-0.1,0-0.2,0-0.3
				C178.3,127.2,173.7,127.2,173.7,127.2z M167.1,127.2c0,0.1,0,0.2,0,0.3c0,1.2,1.1,2.3,2.3,2.3c1.2,0,2.3-1.1,2.3-2.3
				c0-0.1,0-0.2,0-0.3C171.7,127.2,167.1,127.2,167.1,127.2z M160.5,127.2c0,0.1,0,0.2,0,0.3c0,1.2,1.1,2.3,2.3,2.3
				c1.2,0,2.3-1.1,2.3-2.3c0-0.1,0-0.2,0-0.3C165.1,127.2,160.5,127.2,160.5,127.2z M153.9,127.2v0.3c0,1.2,1.1,2.3,2.3,2.3
				s2.3-1.1,2.3-2.3c0-0.1,0-0.2,0-0.3C158.5,127.2,153.9,127.2,153.9,127.2z"/>
			<path class="st1" d="M191.8,127.2h-38.9c-0.5,0-0.9-0.3-1-0.8c-0.1-0.4,0.1-0.9,0.5-1.1l19.5-10.1c0.3-0.1,0.6-0.1,0.9,0
				l19.5,10.1c0.4,0.2,0.6,0.7,0.5,1.1C192.7,126.9,192.3,127.2,191.8,127.2z M157,125.2h30.7l-15.3-8L157,125.2z"/>
			<path class="st1" d="M187,151h-29.2c-2.2,0-3.9-1.7-3.9-3.9v-16.4c0-0.6,0.4-1,1-1c0.6,0,1,0.4,1,1v16.4c0,1,0.9,1.9,1.9,1.9H187
				c1,0,1.9-0.9,1.9-1.9v-16.4c0-0.6,0.4-1,1-1c0.6,0,1,0.4,1,1v16.4C190.9,149.3,189.2,151,187,151z"/>
			<path class="st1" d="M232.2,131.8c-1.3,0-2.5-0.6-3.3-1.5c-0.8,0.9-2,1.5-3.3,1.5c-1.3,0-2.5-0.6-3.3-1.5c-0.8,0.9-2,1.5-3.3,1.5
				c-1.3,0-2.5-0.6-3.3-1.5c-0.8,0.9-2,1.5-3.3,1.5c-1.3,0-2.5-0.6-3.3-1.5c-0.8,0.9-2,1.5-3.3,1.5s-2.5-0.6-3.3-1.5
				c-0.8,0.9-2,1.5-3.3,1.5c-2.4,0-4.3-1.9-4.3-4.3v-1.3c0-0.6,0.4-1,1-1h39.6c0.6,0,1,0.4,1,1v1.3
				C236.5,129.9,234.6,131.8,232.2,131.8z M229.9,127.2c0,0.1,0,0.2,0,0.3c0,1.2,1.1,2.3,2.3,2.3s2.3-1.1,2.3-2.3v-0.3
				C234.5,127.2,229.9,127.2,229.9,127.2z M223.3,127.2c0,0.1,0,0.2,0,0.3c0,1.2,1.1,2.3,2.3,2.3s2.3-1.1,2.3-2.3c0-0.1,0-0.2,0-0.3
				C227.9,127.2,223.3,127.2,223.3,127.2z M216.7,127.2c0,0.1,0,0.2,0,0.3c0,1.2,1.1,2.3,2.3,2.3c1.2,0,2.3-1.1,2.3-2.3
				c0-0.1,0-0.2,0-0.3C221.3,127.2,216.7,127.2,216.7,127.2z M210.1,127.2c0,0.1,0,0.2,0,0.3c0,1.2,1.1,2.3,2.3,2.3
				c1.2,0,2.3-1.1,2.3-2.3c0-0.1,0-0.2,0-0.3C214.7,127.2,210.1,127.2,210.1,127.2z M203.5,127.2c0,0.1,0,0.2,0,0.3
				c0,1.2,1.1,2.3,2.3,2.3s2.3-1.1,2.3-2.3c0-0.1,0-0.2,0-0.3C208.1,127.2,203.5,127.2,203.5,127.2z M196.9,127.2v0.3
				c0,1.2,1.1,2.3,2.3,2.3s2.3-1.1,2.3-2.3c0-0.1,0-0.2,0-0.3C201.5,127.2,196.9,127.2,196.9,127.2z"/>
			<path class="st1" d="M234.8,127.2h-38.9c-0.5,0-0.9-0.3-1-0.8c-0.1-0.4,0.1-0.9,0.5-1.1l19.5-10.1c0.3-0.1,0.6-0.1,0.9,0
				l19.5,10.1c0.4,0.2,0.6,0.7,0.5,1.1C235.7,126.9,235.3,127.2,234.8,127.2z M200,125.2h30.7l-15.3-8L200,125.2z"/>
			<path class="st1" d="M230,151h-29.2c-2.2,0-3.9-1.7-3.9-3.9v-16.4c0-0.6,0.4-1,1-1c0.6,0,1,0.4,1,1v16.4c0,1,0.9,1.9,1.9,1.9H230
				c1,0,1.9-0.9,1.9-1.9v-16.4c0-0.6,0.4-1,1-1s1,0.4,1,1v16.4C233.9,149.3,232.2,151,230,151z"/>
			<path class="st1" d="M17.2,131.8c-1.3,0-2.5-0.6-3.3-1.5c-0.8,0.9-2,1.5-3.3,1.5s-2.5-0.6-3.3-1.5c-0.8,0.9-2,1.5-3.3,1.5
				s-2.5-0.6-3.3-1.5c-0.8,0.9-2,1.5-3.3,1.5s-2.5-0.6-3.3-1.5c-0.8,0.9-2,1.5-3.3,1.5s-2.5-0.6-3.3-1.5c-0.8,0.9-2,1.5-3.3,1.5
				c-2.4,0-4.3-1.9-4.3-4.3v-1.3c0-0.6,0.4-1,1-1h39.6c0.6,0,1,0.4,1,1v1.3C21.5,129.9,19.6,131.8,17.2,131.8z M14.9,127.2
				c0,0.1,0,0.2,0,0.3c0,1.2,1.1,2.3,2.3,2.3c1.2,0,2.3-1.1,2.3-2.3v-0.3C19.5,127.2,14.9,127.2,14.9,127.2z M8.3,127.2
				c0,0.1,0,0.2,0,0.3c0,1.2,1.1,2.3,2.3,2.3s2.3-1.1,2.3-2.3c0-0.1,0-0.2,0-0.3C12.9,127.2,8.3,127.2,8.3,127.2z M1.7,127.2
				c0,0.1,0,0.2,0,0.3c0,1.2,1.1,2.3,2.3,2.3s2.3-1.1,2.3-2.3c0-0.1,0-0.2,0-0.3C6.3,127.2,1.7,127.2,1.7,127.2z M-4.9,127.2
				c0,0.1,0,0.2,0,0.3c0,1.2,1.1,2.3,2.3,2.3s2.3-1.1,2.3-2.3c0-0.1,0-0.2,0-0.3C-0.3,127.2-4.9,127.2-4.9,127.2z M-11.5,127.2
				c0,0.1,0,0.2,0,0.3c0,1.2,1.1,2.3,2.3,2.3s2.3-1.1,2.3-2.3c0-0.1,0-0.2,0-0.3C-6.9,127.2-11.5,127.2-11.5,127.2z M-18.1,127.2
				v0.3c0,1.2,1.1,2.3,2.3,2.3s2.3-1.1,2.3-2.3c0-0.1,0-0.2,0-0.3C-13.5,127.2-18.1,127.2-18.1,127.2z"/>
			<path class="st1" d="M19.8,127.2h-38.9c-0.5,0-0.9-0.3-1-0.8c-0.1-0.4,0.1-0.9,0.5-1.1l19.5-10.1c0.3-0.1,0.6-0.1,0.9,0
				l19.5,10.1c0.4,0.2,0.6,0.7,0.5,1.1C20.7,126.9,20.3,127.2,19.8,127.2z M-15,125.2h30.7l-15.3-8L-15,125.2z"/>
			<path class="st1" d="M15,151h-29.2c-2.2,0-3.9-1.7-3.9-3.9v-16.4c0-0.6,0.4-1,1-1s1,0.4,1,1v16.4c0,1,0.9,1.9,1.9,1.9H15
				c1,0,1.9-0.9,1.9-1.9v-16.4c0-0.6,0.4-1,1-1s1,0.4,1,1v16.4C18.9,149.3,17.2,151,15,151z"/>
			<path class="st1" d="M210.8,93.7c-1.3,0-2.5-0.6-3.3-1.5c-0.8,0.9-2,1.5-3.3,1.5s-2.5-0.6-3.3-1.5c-0.8,0.9-2,1.5-3.3,1.5
				c-1.3,0-2.5-0.6-3.3-1.5c-0.8,0.9-2,1.5-3.3,1.5c-1.3,0-2.5-0.6-3.3-1.5c-0.8,0.9-2,1.5-3.3,1.5c-1.3,0-2.5-0.6-3.3-1.5
				c-0.8,0.9-2,1.5-3.3,1.5c-2.4,0-4.3-1.9-4.3-4.3v-1.3c0-0.6,0.4-1,1-1h39.6c0.6,0,1,0.4,1,1v1.3
				C215.1,91.8,213.2,93.7,210.8,93.7z M208.5,89.1c0,0.1,0,0.2,0,0.3c0,1.2,1.1,2.3,2.3,2.3c1.2,0,2.3-1.1,2.3-2.3v-0.3H208.5z
				 M201.9,89.1c0,0.1,0,0.2,0,0.3c0,1.2,1.1,2.3,2.3,2.3s2.3-1.1,2.3-2.3c0-0.1,0-0.2,0-0.3H201.9z M195.3,89.1c0,0.1,0,0.2,0,0.3
				c0,1.2,1.1,2.3,2.3,2.3s2.3-1.1,2.3-2.3c0-0.1,0-0.2,0-0.3H195.3z M188.7,89.1c0,0.1,0,0.2,0,0.3c0,1.2,1.1,2.3,2.3,2.3
				c1.2,0,2.3-1.1,2.3-2.3c0-0.1,0-0.2,0-0.3H188.7z M182.1,89.1c0,0.1,0,0.2,0,0.3c0,1.2,1.1,2.3,2.3,2.3c1.2,0,2.3-1.1,2.3-2.3
				c0-0.1,0-0.2,0-0.3H182.1z M175.5,89.1v0.3c0,1.2,1.1,2.3,2.3,2.3s2.3-1.1,2.3-2.3c0-0.1,0-0.2,0-0.3H175.5z"/>
			<path class="st1" d="M213.4,89.1h-38.9c-0.5,0-0.9-0.3-1-0.8c-0.1-0.4,0.1-0.9,0.5-1.1l19.5-10.1c0.3-0.1,0.6-0.1,0.9,0
				l19.5,10.1c0.4,0.2,0.6,0.7,0.5,1.1C214.3,88.8,213.9,89.1,213.4,89.1z M178.6,87.1h30.7l-15.3-8L178.6,87.1z"/>
			<path class="st1" d="M208.6,112.9h-29.2c-2.2,0-3.9-1.8-3.9-3.9V92.6c0-0.6,0.4-1,1-1c0.6,0,1,0.4,1,1V109c0,1,0.9,1.9,1.9,1.9
				h29.2c1,0,1.9-0.9,1.9-1.9V92.6c0-0.6,0.4-1,1-1c0.6,0,1,0.4,1,1V109C212.5,111.2,210.8,112.9,208.6,112.9z"/>
			<path class="st1" d="M190.7,113c-0.6,0-1-0.4-1-1v-11.5c0-0.5-0.5-0.5-0.6-0.5h-3.3c-0.3,0-0.6,0.3-0.6,0.5V112c0,0.6-0.4,1-1,1
				c-0.6,0-1-0.4-1-1v-11.5c0-1.3,1.2-2.5,2.6-2.5h3.3c1.5,0,2.6,1.1,2.6,2.5V112C191.7,112.6,191.3,113,190.7,113z"/>
			<circle class="st1" cx="188.5" cy="106.1" r="0.6"/>
			<g>
				<path class="st1" d="M196.7,101.8c-0.1,0-0.3-0.1-0.4-0.2c-0.2-0.2-0.2-0.5,0-0.7l2.4-2.3c0.2-0.2,0.5-0.2,0.7,0l2.4,2.3
					c0.2,0.2,0.2,0.5,0,0.7c-0.2,0.2-0.5,0.2-0.7,0l-2.1-2l-2.1,2C196.9,101.8,196.8,101.8,196.7,101.8z"/>
				<path class="st1" d="M202.4,106.2h-6.5c-0.6,0-1-0.4-1-1v-3.9c0-0.6,0.4-1,1-1h6.5c0.6,0,1,0.4,1,1v3.9
					C203.4,105.8,203,106.2,202.4,106.2z M196.9,104.2h4.5v-1.9h-4.5V104.2z"/>
			</g>
		</g>
	</g>
	<path class="st1" d="M38.7,169.8c-1.3,0-2.5-0.6-3.3-1.5c-0.8,0.9-2,1.5-3.3,1.5s-2.5-0.6-3.3-1.5c-0.8,0.9-2,1.5-3.3,1.5
		c-1.3,0-2.5-0.6-3.3-1.5c-0.8,0.9-2,1.5-3.3,1.5c-1.3,0-2.5-0.6-3.3-1.5c-0.8,0.9-2,1.5-3.3,1.5s-2.5-0.6-3.3-1.5
		c-0.8,0.9-2,1.5-3.3,1.5c-2.4,0-4.3-1.9-4.3-4.3v-1.3c0-0.6,0.4-1,1-1H42c0.6,0,1,0.4,1,1v1.3C43,167.9,41.1,169.8,38.7,169.8z
		 M36.4,165.2c0,0.1,0,0.2,0,0.3c0,1.2,1.1,2.3,2.3,2.3s2.3-1.1,2.3-2.3v-0.3H36.4z M29.8,165.2c0,0.1,0,0.2,0,0.3
		c0,1.2,1.1,2.3,2.3,2.3c1.2,0,2.3-1.1,2.3-2.3c0-0.1,0-0.2,0-0.3H29.8z M23.2,165.2c0,0.1,0,0.2,0,0.3c0,1.2,1.1,2.3,2.3,2.3
		c1.2,0,2.3-1.1,2.3-2.3c0-0.1,0-0.2,0-0.3H23.2z M16.6,165.2c0,0.1,0,0.2,0,0.3c0,1.2,1.1,2.3,2.3,2.3c1.2,0,2.3-1.1,2.3-2.3
		c0-0.1,0-0.2,0-0.3H16.6z M10,165.2c0,0.1,0,0.2,0,0.3c0,1.2,1.1,2.3,2.3,2.3s2.3-1.1,2.3-2.3c0-0.1,0-0.2,0-0.3H10z M3.4,165.2
		v0.3c0,1.2,1.1,2.3,2.3,2.3s2.3-1.1,2.3-2.3c0-0.1,0-0.2,0-0.3H3.4z"/>
	<path class="st1" d="M41.3,165.2H2.4c-0.5,0-0.9-0.3-1-0.8c-0.1-0.4,0.1-0.9,0.5-1.1l19.5-10.1c0.3-0.2,0.6-0.1,0.9,0l19.5,10.1
		c0.4,0.2,0.6,0.7,0.5,1.1C42.2,164.9,41.8,165.2,41.3,165.2z M6.5,163.2h30.7l-15.3-8L6.5,163.2z"/>
	<path class="st1" d="M36.5,189H7.2c-2.2,0-3.9-1.8-3.9-3.9v-16.4c0-0.6,0.4-1,1-1s1,0.4,1,1v16.4c0,1,0.9,1.9,1.9,1.9h29.3
		c1,0,1.9-0.9,1.9-1.9v-16.4c0-0.6,0.4-1,1-1c0.6,0,1,0.4,1,1v16.4C40.4,187.3,38.7,189,36.5,189z"/>
	<path class="st1" d="M18.6,189.1c-0.6,0-1-0.4-1-1v-11.5c0-0.5-0.5-0.5-0.6-0.5h-3.3c-0.3,0-0.6,0.3-0.6,0.5v11.5c0,0.6-0.4,1-1,1
		s-1-0.4-1-1v-11.5c0-1.3,1.2-2.5,2.6-2.5H17c1.5,0,2.6,1.1,2.6,2.5v11.5C19.6,188.7,19.2,189.1,18.6,189.1z"/>
	<circle class="st1" cx="16.4" cy="182.2" r="0.6"/>
	<g>
		<path class="st1" d="M29.4,177.9c-0.1,0-0.2,0-0.3-0.1l-2.1-2l-2.1,2c-0.2,0.2-0.5,0.2-0.7,0s-0.2-0.5,0-0.7l2.4-2.3
			c0.2-0.2,0.5-0.2,0.7,0l2.4,2.3c0.2,0.2,0.2,0.5,0,0.7C29.7,177.8,29.5,177.9,29.4,177.9z"/>
		<path class="st1" d="M30.3,182.3h-6.5c-0.6,0-1-0.4-1-1v-3.9c0-0.6,0.4-1,1-1h6.5c0.6,0,1,0.4,1,1v3.9
			C31.3,181.9,30.9,182.3,30.3,182.3z M24.8,180.3h4.5v-1.9h-4.5V180.3z"/>
	</g>
	<path class="st1" d="M81.7,169.8c-1.3,0-2.5-0.6-3.3-1.5c-0.8,0.9-2,1.5-3.3,1.5c-1.3,0-2.5-0.6-3.3-1.5c-0.8,0.9-2,1.5-3.3,1.5
		s-2.5-0.6-3.3-1.5c-0.8,0.9-2,1.5-3.3,1.5c-1.3,0-2.5-0.6-3.3-1.5c-0.8,0.9-2,1.5-3.3,1.5c-1.3,0-2.5-0.6-3.3-1.5
		c-0.8,0.9-2,1.5-3.3,1.5c-2.4,0-4.3-1.9-4.3-4.3v-1.3c0-0.6,0.4-1,1-1H85c0.6,0,1,0.4,1,1v1.3C86,167.9,84.1,169.8,81.7,169.8z
		 M79.4,165.2c0,0.1,0,0.2,0,0.3c0,1.2,1.1,2.3,2.3,2.3c1.2,0,2.3-1.1,2.3-2.3v-0.3H79.4z M72.8,165.2c0,0.1,0,0.2,0,0.3
		c0,1.2,1.1,2.3,2.3,2.3s2.3-1.1,2.3-2.3c0-0.1,0-0.2,0-0.3H72.8z M66.2,165.2c0,0.1,0,0.2,0,0.3c0,1.2,1.1,2.3,2.3,2.3
		c1.2,0,2.3-1.1,2.3-2.3c0-0.1,0-0.2,0-0.3H66.2z M59.6,165.2c0,0.1,0,0.2,0,0.3c0,1.2,1.1,2.3,2.3,2.3s2.3-1.1,2.3-2.3
		c0-0.1,0-0.2,0-0.3H59.6z M53,165.2c0,0.1,0,0.2,0,0.3c0,1.2,1.1,2.3,2.3,2.3s2.3-1.1,2.3-2.3c0-0.1,0-0.2,0-0.3H53z M46.4,165.2
		v0.3c0,1.2,1.1,2.3,2.3,2.3s2.3-1.1,2.3-2.3c0-0.1,0-0.2,0-0.3H46.4z"/>
	<path class="st1" d="M84.3,165.2H45.4c-0.5,0-0.9-0.3-1-0.8c-0.1-0.4,0.1-0.9,0.5-1.1l19.5-10.1c0.3-0.2,0.6-0.1,0.9,0l19.5,10.1
		c0.4,0.2,0.6,0.7,0.5,1.1C85.2,164.9,84.8,165.2,84.3,165.2z M49.5,163.2h30.7l-15.3-8L49.5,163.2z"/>
	<path class="st1" d="M79.5,189H50.2c-2.2,0-3.9-1.8-3.9-3.9v-16.4c0-0.6,0.4-1,1-1c0.6,0,1,0.4,1,1v16.4c0,1,0.9,1.9,1.9,1.9h29.3
		c1,0,1.9-0.9,1.9-1.9v-16.4c0-0.6,0.4-1,1-1c0.6,0,1,0.4,1,1v16.4C83.4,187.3,81.7,189,79.5,189z"/>
	<path class="st1" d="M61.6,189.1c-0.6,0-1-0.4-1-1v-11.5c0-0.5-0.5-0.5-0.6-0.5h-3.3c-0.3,0-0.6,0.3-0.6,0.5v11.5c0,0.6-0.4,1-1,1
		c-0.6,0-1-0.4-1-1v-11.5c0-1.3,1.2-2.5,2.6-2.5H60c1.5,0,2.6,1.1,2.6,2.5v11.5C62.6,188.7,62.2,189.1,61.6,189.1z"/>
	<circle class="st1" cx="59.4" cy="182.2" r="0.6"/>
	<g>
		<path class="st1" d="M72.4,177.9c-0.1,0-0.2,0-0.3-0.1l-2.1-2l-2.1,2c-0.2,0.2-0.5,0.2-0.7,0s-0.2-0.5,0-0.7l2.4-2.3
			c0.2-0.2,0.5-0.2,0.7,0l2.4,2.3c0.2,0.2,0.2,0.5,0,0.7C72.7,177.8,72.5,177.9,72.4,177.9z"/>
		<path class="st1" d="M73.3,182.3h-6.5c-0.6,0-1-0.4-1-1v-3.9c0-0.6,0.4-1,1-1h6.5c0.6,0,1,0.4,1,1v3.9
			C74.3,181.9,73.9,182.3,73.3,182.3z M67.8,180.3h4.5v-1.9h-4.5V180.3z"/>
	</g>
	<path class="st1" d="M124.8,169.8c-1.3,0-2.5-0.6-3.3-1.5c-0.8,0.9-2,1.5-3.3,1.5c-1.3,0-2.5-0.6-3.3-1.5c-0.8,0.9-2,1.5-3.3,1.5
		s-2.5-0.6-3.3-1.5c-0.8,0.9-2,1.5-3.3,1.5c-1.3,0-2.5-0.6-3.3-1.5c-0.8,0.9-2,1.5-3.3,1.5s-2.5-0.6-3.3-1.5c-0.8,0.9-2,1.5-3.3,1.5
		c-2.4,0-4.3-1.9-4.3-4.3v-1.3c0-0.6,0.4-1,1-1h39.6c0.6,0,1,0.4,1,1v1.3C129.1,167.9,127.2,169.8,124.8,169.8z M122.5,165.2
		c0,0.1,0,0.2,0,0.3c0,1.2,1.1,2.3,2.3,2.3c1.2,0,2.3-1.1,2.3-2.3v-0.3H122.5z M115.9,165.2c0,0.1,0,0.2,0,0.3
		c0,1.2,1.1,2.3,2.3,2.3c1.2,0,2.3-1.1,2.3-2.3c0-0.1,0-0.2,0-0.3H115.9z M109.3,165.2c0,0.1,0,0.2,0,0.3c0,1.2,1.1,2.3,2.3,2.3
		c1.2,0,2.3-1.1,2.3-2.3c0-0.1,0-0.2,0-0.3H109.3z M102.7,165.2c0,0.1,0,0.2,0,0.3c0,1.2,1.1,2.3,2.3,2.3c1.2,0,2.3-1.1,2.3-2.3
		c0-0.1,0-0.2,0-0.3H102.7z M96.1,165.2c0,0.1,0,0.2,0,0.3c0,1.2,1.1,2.3,2.3,2.3s2.3-1.1,2.3-2.3c0-0.1,0-0.2,0-0.3H96.1z
		 M89.4,165.2v0.3c0,1.2,1.1,2.3,2.3,2.3c1.2,0,2.3-1.1,2.3-2.3c0-0.1,0-0.2,0-0.3H89.4z"/>
	<path class="st1" d="M127.4,165.2H88.4c-0.5,0-0.9-0.3-1-0.8c-0.1-0.4,0.1-0.9,0.5-1.1l19.5-10.1c0.3-0.2,0.6-0.1,0.9,0l19.4,10.1
		c0.4,0.2,0.6,0.7,0.5,1.1C128.3,164.9,127.9,165.2,127.4,165.2z M92.6,163.2h30.7l-15.3-8L92.6,163.2z"/>
	<path class="st1" d="M122.6,189H93.3c-2.2,0-3.9-1.8-3.9-3.9v-16.4c0-0.6,0.4-1,1-1s1,0.4,1,1v16.4c0,1,0.9,1.9,1.9,1.9h29.3
		c1,0,1.9-0.9,1.9-1.9v-16.4c0-0.6,0.4-1,1-1s1,0.4,1,1v16.4C126.5,187.3,124.8,189,122.6,189z"/>
	<path class="st1" d="M104.7,189.1c-0.6,0-1-0.4-1-1v-11.5c0-0.5-0.5-0.5-0.6-0.5h-3.3c-0.3,0-0.6,0.3-0.6,0.5v11.5c0,0.6-0.4,1-1,1
		s-1-0.4-1-1v-11.5c0-1.3,1.2-2.5,2.6-2.5h3.3c1.5,0,2.6,1.1,2.6,2.5v11.5C105.7,188.7,105.3,189.1,104.7,189.1z"/>
	<circle class="st1" cx="102.5" cy="182.2" r="0.6"/>
	<g>
		<path class="st1" d="M110.7,177.9c-0.1,0-0.3-0.1-0.4-0.2c-0.2-0.2-0.2-0.5,0-0.7l2.4-2.3c0.2-0.2,0.5-0.2,0.7,0l2.4,2.3
			c0.2,0.2,0.2,0.5,0,0.7c-0.2,0.2-0.5,0.2-0.7,0l-2.1-2l-2.1,2C110.9,177.9,110.8,177.9,110.7,177.9z"/>
		<path class="st1" d="M116.4,182.3h-6.5c-0.6,0-1-0.4-1-1v-3.9c0-0.6,0.4-1,1-1h6.5c0.6,0,1,0.4,1,1v3.9
			C117.4,181.9,117,182.3,116.4,182.3z M110.9,180.3h4.5v-1.9h-4.5V180.3z"/>
	</g>
	<path class="st1" d="M167.8,169.8c-1.3,0-2.5-0.6-3.3-1.5c-0.8,0.9-2,1.5-3.3,1.5c-1.3,0-2.5-0.6-3.3-1.5c-0.8,0.9-2,1.5-3.3,1.5
		c-1.3,0-2.5-0.6-3.3-1.5c-0.8,0.9-2,1.5-3.3,1.5s-2.5-0.6-3.3-1.5c-0.8,0.9-2,1.5-3.3,1.5c-1.3,0-2.5-0.6-3.3-1.5
		c-0.8,0.9-2,1.5-3.3,1.5c-2.4,0-4.3-1.9-4.3-4.3v-1.3c0-0.6,0.4-1,1-1h39.6c0.6,0,1,0.4,1,1v1.3
		C172.1,167.9,170.2,169.8,167.8,169.8z M165.5,165.2c0,0.1,0,0.2,0,0.3c0,1.2,1.1,2.3,2.3,2.3c1.2,0,2.3-1.1,2.3-2.3v-0.3H165.5z
		 M158.9,165.2c0,0.1,0,0.2,0,0.3c0,1.2,1.1,2.3,2.3,2.3c1.2,0,2.3-1.1,2.3-2.3c0-0.1,0-0.2,0-0.3H158.9z M152.3,165.2
		c0,0.1,0,0.2,0,0.3c0,1.2,1.1,2.3,2.3,2.3s2.3-1.1,2.3-2.3c0-0.1,0-0.2,0-0.3H152.3z M145.7,165.2c0,0.1,0,0.2,0,0.3
		c0,1.2,1.1,2.3,2.3,2.3s2.3-1.1,2.3-2.3c0-0.1,0-0.2,0-0.3H145.7z M139.1,165.2c0,0.1,0,0.2,0,0.3c0,1.2,1.1,2.3,2.3,2.3
		c1.2,0,2.3-1.1,2.3-2.3c0-0.1,0-0.2,0-0.3H139.1z M132.5,165.2v0.3c0,1.2,1.1,2.3,2.3,2.3c1.2,0,2.3-1.1,2.3-2.3c0-0.1,0-0.2,0-0.3
		H132.5z"/>
	<path class="st1" d="M170.4,165.2h-38.9c-0.5,0-0.9-0.3-1-0.8c-0.1-0.4,0.1-0.9,0.5-1.1l19.5-10.1c0.3-0.2,0.6-0.1,0.9,0l19.4,10.1
		c0.4,0.2,0.6,0.7,0.5,1.1C171.3,164.9,170.9,165.2,170.4,165.2z M135.6,163.2h30.7l-15.3-8L135.6,163.2z"/>
	<path class="st1" d="M165.6,189h-29.2c-2.2,0-3.9-1.8-3.9-3.9v-16.4c0-0.6,0.4-1,1-1c0.6,0,1,0.4,1,1v16.4c0,1,0.9,1.9,1.9,1.9
		h29.2c1,0,1.9-0.9,1.9-1.9v-16.4c0-0.6,0.4-1,1-1c0.6,0,1,0.4,1,1v16.4C169.5,187.3,167.8,189,165.6,189z"/>
	<path class="st1" d="M147.7,189.1c-0.6,0-1-0.4-1-1v-11.5c0-0.5-0.5-0.5-0.6-0.5h-3.3c-0.3,0-0.6,0.3-0.6,0.5v11.5c0,0.6-0.4,1-1,1
		c-0.6,0-1-0.4-1-1v-11.5c0-1.3,1.2-2.5,2.6-2.5h3.3c1.5,0,2.6,1.1,2.6,2.5v11.5C148.7,188.7,148.3,189.1,147.7,189.1z"/>
	<circle class="st1" cx="145.5" cy="182.2" r="0.6"/>
	<g>
		<path class="st1" d="M153.7,177.9c-0.1,0-0.3-0.1-0.4-0.2c-0.2-0.2-0.2-0.5,0-0.7l2.4-2.3c0.2-0.2,0.5-0.2,0.7,0l2.4,2.3
			c0.2,0.2,0.2,0.5,0,0.7s-0.5,0.2-0.7,0l-2.1-2l-2.1,2C153.9,177.9,153.8,177.9,153.7,177.9z"/>
		<path class="st1" d="M159.4,182.3h-6.5c-0.6,0-1-0.4-1-1v-3.9c0-0.6,0.4-1,1-1h6.5c0.6,0,1,0.4,1,1v3.9
			C160.4,181.9,160,182.3,159.4,182.3z M153.9,180.3h4.5v-1.9h-4.5V180.3z"/>
	</g>
	<path class="st1" d="M210.8,169.8c-1.3,0-2.5-0.6-3.3-1.5c-0.8,0.9-2,1.5-3.3,1.5s-2.5-0.6-3.3-1.5c-0.8,0.9-2,1.5-3.3,1.5
		c-1.3,0-2.5-0.6-3.3-1.5c-0.8,0.9-2,1.5-3.3,1.5c-1.3,0-2.5-0.6-3.3-1.5c-0.8,0.9-2,1.5-3.3,1.5c-1.3,0-2.5-0.6-3.3-1.5
		c-0.8,0.9-2,1.5-3.3,1.5c-2.4,0-4.3-1.9-4.3-4.3v-1.3c0-0.6,0.4-1,1-1h39.6c0.6,0,1,0.4,1,1v1.3
		C215.1,167.9,213.2,169.8,210.8,169.8z M208.5,165.2c0,0.1,0,0.2,0,0.3c0,1.2,1.1,2.3,2.3,2.3c1.2,0,2.3-1.1,2.3-2.3v-0.3H208.5z
		 M201.9,165.2c0,0.1,0,0.2,0,0.3c0,1.2,1.1,2.3,2.3,2.3s2.3-1.1,2.3-2.3c0-0.1,0-0.2,0-0.3H201.9z M195.3,165.2c0,0.1,0,0.2,0,0.3
		c0,1.2,1.1,2.3,2.3,2.3s2.3-1.1,2.3-2.3c0-0.1,0-0.2,0-0.3H195.3z M188.7,165.2c0,0.1,0,0.2,0,0.3c0,1.2,1.1,2.3,2.3,2.3
		c1.2,0,2.3-1.1,2.3-2.3c0-0.1,0-0.2,0-0.3H188.7z M182.1,165.2c0,0.1,0,0.2,0,0.3c0,1.2,1.1,2.3,2.3,2.3c1.2,0,2.3-1.1,2.3-2.3
		c0-0.1,0-0.2,0-0.3H182.1z M175.5,165.2v0.3c0,1.2,1.1,2.3,2.3,2.3s2.3-1.1,2.3-2.3c0-0.1,0-0.2,0-0.3H175.5z"/>
	<path class="st1" d="M213.4,165.2h-38.9c-0.5,0-0.9-0.3-1-0.8c-0.1-0.4,0.1-0.9,0.5-1.1l19.5-10.1c0.3-0.2,0.6-0.1,0.9,0l19.4,10.1
		c0.4,0.2,0.6,0.7,0.5,1.1C214.3,164.9,213.9,165.2,213.4,165.2z M178.6,163.2h30.7l-15.3-8L178.6,163.2z"/>
	<path class="st1" d="M208.6,189h-29.2c-2.2,0-3.9-1.8-3.9-3.9v-16.4c0-0.6,0.4-1,1-1c0.6,0,1,0.4,1,1v16.4c0,1,0.9,1.9,1.9,1.9
		h29.2c1,0,1.9-0.9,1.9-1.9v-16.4c0-0.6,0.4-1,1-1c0.6,0,1,0.4,1,1v16.4C212.5,187.3,210.8,189,208.6,189z"/>
	<path class="st1" d="M190.7,189.1c-0.6,0-1-0.4-1-1v-11.5c0-0.5-0.5-0.5-0.6-0.5h-3.3c-0.3,0-0.6,0.3-0.6,0.5v11.5c0,0.6-0.4,1-1,1
		c-0.6,0-1-0.4-1-1v-11.5c0-1.3,1.2-2.5,2.6-2.5h3.3c1.5,0,2.6,1.1,2.6,2.5v11.5C191.7,188.7,191.3,189.1,190.7,189.1z"/>
	<circle class="st1" cx="188.5" cy="182.2" r="0.6"/>
	<g>
		<path class="st1" d="M196.7,177.9c-0.1,0-0.3-0.1-0.4-0.2c-0.2-0.2-0.2-0.5,0-0.7l2.4-2.3c0.2-0.2,0.5-0.2,0.7,0l2.4,2.3
			c0.2,0.2,0.2,0.5,0,0.7c-0.2,0.2-0.5,0.2-0.7,0l-2.1-2l-2.1,2C196.9,177.9,196.8,177.9,196.7,177.9z"/>
		<path class="st1" d="M202.4,182.3h-6.5c-0.6,0-1-0.4-1-1v-3.9c0-0.6,0.4-1,1-1h6.5c0.6,0,1,0.4,1,1v3.9
			C203.4,181.9,203,182.3,202.4,182.3z M196.9,180.3h4.5v-1.9h-4.5V180.3z"/>
	</g>
	<g>
		<path class="st1" d="M33.5,227.1c-0.6,0-1-0.4-1-1v-11.6c0-1.3,1.2-2.5,2.6-2.5h3.3c1.5,0,2.6,1.1,2.6,2.5V226c0,0.6-0.4,1-1,1
			c-0.6,0-1-0.4-1-1v-11.5c0-0.5-0.5-0.5-0.6-0.5h-3.3c-0.3,0-0.6,0.3-0.6,0.5v11.6C34.5,226.7,34.1,227.1,33.5,227.1z"/>
		<g>
			<path class="st1" d="M46,215.9c-0.1,0-0.3-0.1-0.4-0.2c-0.2-0.2-0.2-0.5,0-0.7l2.4-2.3c0.2-0.2,0.5-0.2,0.7,0l2.4,2.3
				c0.2,0.2,0.2,0.5,0,0.7c-0.2,0.2-0.5,0.2-0.7,0l-2.1-2l-2.1,2C46.2,215.9,46.1,215.9,46,215.9z"/>
			<path class="st1" d="M51.7,220.3h-6.5c-0.6,0-1-0.4-1-1v-3.9c0-0.6,0.4-1,1-1h6.5c0.6,0,1,0.4,1,1v3.9
				C52.7,219.9,52.3,220.3,51.7,220.3z M46.2,218.3h4.5v-1.9h-4.5V218.3z"/>
		</g>
		<path class="st1" d="M76.5,227.1c-0.6,0-1-0.4-1-1v-11.6c0-1.3,1.2-2.5,2.6-2.5h3.3c1.5,0,2.6,1.1,2.6,2.5V226c0,0.6-0.4,1-1,1
			c-0.6,0-1-0.4-1-1v-11.5c0-0.5-0.5-0.5-0.6-0.5h-3.3c-0.3,0-0.6,0.3-0.6,0.5v11.6C77.5,226.7,77.1,227.1,76.5,227.1z"/>
		<g>
			<path class="st1" d="M89,215.9c-0.1,0-0.3-0.1-0.4-0.2c-0.2-0.2-0.2-0.5,0-0.7l2.4-2.3c0.2-0.2,0.5-0.2,0.7,0l2.4,2.3
				c0.2,0.2,0.2,0.5,0,0.7c-0.2,0.2-0.5,0.2-0.7,0l-2.1-2l-2.1,2C89.2,215.9,89.1,215.9,89,215.9z"/>
			<path class="st1" d="M94.8,220.3h-6.5c-0.6,0-1-0.4-1-1v-3.9c0-0.6,0.4-1,1-1h6.5c0.6,0,1,0.4,1,1v3.9
				C95.8,219.9,95.4,220.3,94.8,220.3z M89.2,218.3h4.5v-1.9h-4.5V218.3z"/>
		</g>
		<path class="st1" d="M119.6,227.1c-0.6,0-1-0.4-1-1v-11.6c0-1.3,1.2-2.5,2.6-2.5h3.3c1.5,0,2.6,1.1,2.6,2.5V226c0,0.6-0.4,1-1,1
			s-1-0.4-1-1v-11.5c0-0.5-0.5-0.5-0.6-0.5h-3.3c-0.3,0-0.6,0.3-0.6,0.5v11.6C120.6,226.7,120.2,227.1,119.6,227.1z"/>
		<g>
			<path class="st1" d="M132.1,215.9c-0.1,0-0.3-0.1-0.4-0.2c-0.2-0.2-0.2-0.5,0-0.7l2.4-2.3c0.2-0.2,0.5-0.2,0.7,0l2.4,2.3
				c0.2,0.2,0.2,0.5,0,0.7s-0.5,0.2-0.7,0l-2.1-2l-2.1,2C132.3,215.9,132.2,215.9,132.1,215.9z"/>
			<path class="st1" d="M137.8,220.3h-6.5c-0.6,0-1-0.4-1-1v-3.9c0-0.6,0.4-1,1-1h6.5c0.6,0,1,0.4,1,1v3.9
				C138.8,219.9,138.4,220.3,137.8,220.3z M132.3,218.3h4.5v-1.9h-4.5V218.3z"/>
		</g>
		<path class="st1" d="M162.6,227.1c-0.6,0-1-0.4-1-1v-11.6c0-1.3,1.2-2.5,2.6-2.5h3.3c1.5,0,2.6,1.1,2.6,2.5V226c0,0.6-0.4,1-1,1
			s-1-0.4-1-1v-11.5c0-0.5-0.5-0.5-0.6-0.5h-3.3c-0.3,0-0.6,0.3-0.6,0.5v11.6C163.6,226.7,163.2,227.1,162.6,227.1z"/>
		<g>
			<path class="st1" d="M175.1,215.9c-0.1,0-0.3-0.1-0.4-0.2c-0.2-0.2-0.2-0.5,0-0.7l2.4-2.3c0.2-0.2,0.5-0.2,0.7,0l2.4,2.3
				c0.2,0.2,0.2,0.5,0,0.7s-0.5,0.2-0.7,0l-2.1-2l-2.1,2C175.3,215.9,175.2,215.9,175.1,215.9z"/>
			<path class="st1" d="M180.8,220.3h-6.5c-0.6,0-1-0.4-1-1v-3.9c0-0.6,0.4-1,1-1h6.5c0.6,0,1,0.4,1,1v3.9
				C181.8,219.9,181.4,220.3,180.8,220.3z M175.3,218.3h4.5v-1.9h-4.5V218.3z"/>
		</g>
		<path class="st1" d="M205.6,227.1c-0.6,0-1-0.4-1-1v-11.6c0-1.3,1.2-2.5,2.6-2.5h3.3c1.5,0,2.6,1.1,2.6,2.5V226c0,0.6-0.4,1-1,1
			c-0.6,0-1-0.4-1-1v-11.5c0-0.5-0.5-0.5-0.6-0.5h-3.3c-0.3,0-0.6,0.3-0.6,0.5v11.6C206.6,226.7,206.2,227.1,205.6,227.1z"/>
		<g>
			<path class="st1" d="M218.1,215.9c-0.1,0-0.3-0.1-0.4-0.2c-0.2-0.2-0.2-0.5,0-0.7l2.4-2.3c0.2-0.2,0.5-0.2,0.7,0l2.4,2.3
				c0.2,0.2,0.2,0.5,0,0.7s-0.5,0.2-0.7,0l-2.1-2l-2.1,2C218.3,215.9,218.2,215.9,218.1,215.9z"/>
			<path class="st1" d="M223.8,220.3h-6.5c-0.6,0-1-0.4-1-1v-3.9c0-0.6,0.4-1,1-1h6.5c0.6,0,1,0.4,1,1v3.9
				C224.8,219.9,224.4,220.3,223.8,220.3z M218.3,218.3h4.5v-1.9h-4.5V218.3z"/>
		</g>
		<path class="st1" d="M-9.4,227.1c-0.6,0-1-0.4-1-1v-11.6c0-1.3,1.2-2.5,2.6-2.5h3.3c1.5,0,2.6,1.1,2.6,2.5V226c0,0.6-0.4,1-1,1
			s-1-0.4-1-1v-11.5c0-0.5-0.5-0.5-0.6-0.5h-3.3c-0.3,0-0.6,0.3-0.6,0.5v11.6C-8.4,226.7-8.8,227.1-9.4,227.1z"/>
		<g>
			<path class="st1" d="M3.1,215.9c-0.1,0-0.3-0.1-0.4-0.2c-0.2-0.2-0.2-0.5,0-0.7l2.4-2.3c0.2-0.2,0.5-0.2,0.7,0l2.4,2.3
				c0.2,0.2,0.2,0.5,0,0.7s-0.5,0.2-0.7,0l-2.1-2l-2.1,2C3.3,215.9,3.2,215.9,3.1,215.9z"/>
			<path class="st1" d="M8.8,220.3H2.3c-0.6,0-1-0.4-1-1v-3.9c0-0.6,0.4-1,1-1h6.5c0.6,0,1,0.4,1,1v3.9
				C9.8,219.9,9.4,220.3,8.8,220.3z M3.3,218.3h4.5v-1.9H3.3V218.3z"/>
		</g>
		<circle class="st1" cx="16.4" cy="182.2" r="0.6"/>
		<circle class="st1" cx="59.4" cy="182.2" r="0.6"/>
		<circle class="st1" cx="102.5" cy="182.2" r="0.6"/>
		<circle class="st1" cx="145.5" cy="182.2" r="0.6"/>
		<path class="st1" d="M60.1,207.8c-1.3,0-2.5-0.6-3.3-1.5c-0.8,0.9-2,1.5-3.3,1.5s-2.5-0.6-3.3-1.5c-0.8,0.9-2,1.5-3.3,1.5
			s-2.5-0.6-3.3-1.5c-0.8,0.9-2,1.5-3.3,1.5c-1.3,0-2.5-0.6-3.3-1.5c-0.8,0.9-2,1.5-3.3,1.5c-1.3,0-2.5-0.6-3.3-1.5
			c-0.8,0.9-2,1.5-3.3,1.5c-2.4,0-4.3-1.9-4.3-4.3v-1.3c0-0.6,0.4-1,1-1h39.6c0.6,0,1,0.4,1,1v1.3C64.4,205.9,62.5,207.8,60.1,207.8
			z M57.8,203.2c0,0.1,0,0.2,0,0.3c0,1.2,1.1,2.3,2.3,2.3s2.3-1.1,2.3-2.3v-0.3C62.4,203.2,57.8,203.2,57.8,203.2z M51.2,203.2
			c0,0.1,0,0.2,0,0.3c0,1.2,1.1,2.3,2.3,2.3s2.3-1.1,2.3-2.3c0-0.1,0-0.2,0-0.3C55.8,203.2,51.2,203.2,51.2,203.2z M44.6,203.2
			c0,0.1,0,0.2,0,0.3c0,1.2,1.1,2.3,2.3,2.3s2.3-1.1,2.3-2.3c0-0.1,0-0.2,0-0.3C49.2,203.2,44.6,203.2,44.6,203.2z M38,203.2
			c0,0.1,0,0.2,0,0.3c0,1.2,1.1,2.3,2.3,2.3s2.3-1.1,2.3-2.3c0-0.1,0-0.2,0-0.3C42.6,203.2,38,203.2,38,203.2z M31.4,203.2
			c0,0.1,0,0.2,0,0.3c0,1.2,1.1,2.3,2.3,2.3s2.3-1.1,2.3-2.3c0-0.1,0-0.2,0-0.3C36,203.2,31.4,203.2,31.4,203.2z M24.8,203.2v0.3
			c0,1.2,1.1,2.3,2.3,2.3c1.2,0,2.3-1.1,2.3-2.3c0-0.1,0-0.2,0-0.3C29.4,203.2,24.8,203.2,24.8,203.2z"/>
		<path class="st1" d="M62.7,203.2H23.8c-0.5,0-0.9-0.3-1-0.8c-0.1-0.4,0.1-0.9,0.5-1.1l19.5-10.1c0.3-0.1,0.6-0.1,0.9,0l19.5,10.1
			c0.4,0.2,0.6,0.7,0.5,1.1C63.6,202.9,63.2,203.2,62.7,203.2z M27.9,201.2h30.7l-15.3-8L27.9,201.2z"/>
		<path class="st1" d="M57.9,227H28.6c-2.2,0-3.9-1.7-3.9-3.9v-16.4c0-0.6,0.4-1,1-1s1,0.4,1,1v16.4c0,1,0.9,1.9,1.9,1.9h29.3
			c1,0,1.9-0.9,1.9-1.9v-16.4c0-0.6,0.4-1,1-1c0.6,0,1,0.4,1,1v16.4C61.8,225.3,60.1,227,57.9,227z"/>
		<path class="st1" d="M103.2,207.8c-1.3,0-2.5-0.6-3.3-1.5c-0.8,0.9-2,1.5-3.3,1.5c-1.3,0-2.5-0.6-3.3-1.5c-0.8,0.9-2,1.5-3.3,1.5
			c-1.3,0-2.5-0.6-3.3-1.5c-0.8,0.9-2,1.5-3.3,1.5s-2.5-0.6-3.3-1.5c-0.8,0.9-2,1.5-3.3,1.5c-1.3,0-2.5-0.6-3.3-1.5
			c-0.8,0.9-2,1.5-3.3,1.5c-2.4,0-4.3-1.9-4.3-4.3v-1.3c0-0.6,0.4-1,1-1h39.6c0.6,0,1,0.4,1,1v1.3
			C107.5,205.9,105.6,207.8,103.2,207.8z M100.9,203.2c0,0.1,0,0.2,0,0.3c0,1.2,1.1,2.3,2.3,2.3c1.2,0,2.3-1.1,2.3-2.3v-0.3
			C105.5,203.2,100.9,203.2,100.9,203.2z M94.3,203.2c0,0.1,0,0.2,0,0.3c0,1.2,1.1,2.3,2.3,2.3c1.2,0,2.3-1.1,2.3-2.3
			c0-0.1,0-0.2,0-0.3C98.9,203.2,94.3,203.2,94.3,203.2z M87.6,203.2c0,0.1,0,0.2,0,0.3c0,1.2,1.1,2.3,2.3,2.3s2.3-1.1,2.3-2.3
			c0-0.1,0-0.2,0-0.3C92.3,203.2,87.6,203.2,87.6,203.2z M81,203.2c0,0.1,0,0.2,0,0.3c0,1.2,1.1,2.3,2.3,2.3c1.2,0,2.3-1.1,2.3-2.3
			c0-0.1,0-0.2,0-0.3C85.6,203.2,81,203.2,81,203.2z M74.4,203.2c0,0.1,0,0.2,0,0.3c0,1.2,1.1,2.3,2.3,2.3s2.3-1.1,2.3-2.3
			c0-0.1,0-0.2,0-0.3C79,203.2,74.4,203.2,74.4,203.2z M67.8,203.2v0.3c0,1.2,1.1,2.3,2.3,2.3c1.2,0,2.3-1.1,2.3-2.3
			c0-0.1,0-0.2,0-0.3C72.4,203.2,67.8,203.2,67.8,203.2z"/>
		<path class="st1" d="M105.8,203.2H66.8c-0.5,0-0.9-0.3-1-0.8c-0.1-0.4,0.1-0.9,0.5-1.1l19.5-10.1c0.3-0.1,0.6-0.1,0.9,0l19.5,10.1
			c0.4,0.2,0.6,0.7,0.5,1.1C106.7,202.9,106.3,203.2,105.8,203.2z M70.9,201.2h30.7l-15.3-8L70.9,201.2z"/>
		<path class="st1" d="M101,227H71.6c-2.2,0-3.9-1.7-3.9-3.9v-16.4c0-0.6,0.4-1,1-1s1,0.4,1,1v16.4c0,1,0.9,1.9,1.9,1.9H101
			c1,0,1.9-0.9,1.9-1.9v-16.4c0-0.6,0.4-1,1-1s1,0.4,1,1v16.4C104.9,225.3,103.2,227,101,227z"/>
		<path class="st1" d="M146.2,207.8c-1.3,0-2.5-0.6-3.3-1.5c-0.8,0.9-2,1.5-3.3,1.5c-1.3,0-2.5-0.6-3.3-1.5c-0.8,0.9-2,1.5-3.3,1.5
			c-1.3,0-2.5-0.6-3.3-1.5c-0.8,0.9-2,1.5-3.3,1.5s-2.5-0.6-3.3-1.5c-0.8,0.9-2,1.5-3.3,1.5c-1.3,0-2.5-0.6-3.3-1.5
			c-0.8,0.9-2,1.5-3.3,1.5c-2.4,0-4.3-1.9-4.3-4.3v-1.3c0-0.6,0.4-1,1-1h39.6c0.6,0,1,0.4,1,1v1.3
			C150.5,205.9,148.6,207.8,146.2,207.8z M143.9,203.2c0,0.1,0,0.2,0,0.3c0,1.2,1.1,2.3,2.3,2.3s2.3-1.1,2.3-2.3v-0.3
			C148.5,203.2,143.9,203.2,143.9,203.2z M137.3,203.2c0,0.1,0,0.2,0,0.3c0,1.2,1.1,2.3,2.3,2.3c1.2,0,2.3-1.1,2.3-2.3
			c0-0.1,0-0.2,0-0.3C141.9,203.2,137.3,203.2,137.3,203.2z M130.7,203.2c0,0.1,0,0.2,0,0.3c0,1.2,1.1,2.3,2.3,2.3
			c1.2,0,2.3-1.1,2.3-2.3c0-0.1,0-0.2,0-0.3C135.3,203.2,130.7,203.2,130.7,203.2z M124.1,203.2c0,0.1,0,0.2,0,0.3
			c0,1.2,1.1,2.3,2.3,2.3s2.3-1.1,2.3-2.3c0-0.1,0-0.2,0-0.3C128.7,203.2,124.1,203.2,124.1,203.2z M117.5,203.2c0,0.1,0,0.2,0,0.3
			c0,1.2,1.1,2.3,2.3,2.3c1.2,0,2.3-1.1,2.3-2.3c0-0.1,0-0.2,0-0.3C122.1,203.2,117.5,203.2,117.5,203.2z M110.9,203.2v0.3
			c0,1.2,1.1,2.3,2.3,2.3c1.2,0,2.3-1.1,2.3-2.3c0-0.1,0-0.2,0-0.3C115.5,203.2,110.9,203.2,110.9,203.2z"/>
		<path class="st1" d="M148.8,203.2h-38.9c-0.5,0-0.9-0.3-1-0.8c-0.1-0.4,0.1-0.9,0.5-1.1l19.5-10.1c0.3-0.1,0.6-0.1,0.9,0
			l19.5,10.1c0.4,0.2,0.6,0.7,0.5,1.1C149.7,202.9,149.3,203.2,148.8,203.2z M114,201.2h30.7l-15.3-8L114,201.2z"/>
		<path class="st1" d="M144,227h-29.3c-2.2,0-3.9-1.7-3.9-3.9v-16.4c0-0.6,0.4-1,1-1c0.6,0,1,0.4,1,1v16.4c0,1,0.9,1.9,1.9,1.9H144
			c1,0,1.9-0.9,1.9-1.9v-16.4c0-0.6,0.4-1,1-1c0.6,0,1,0.4,1,1v16.4C147.9,225.3,146.2,227,144,227z"/>
		<path class="st1" d="M189.2,207.8c-1.3,0-2.5-0.6-3.3-1.5c-0.8,0.9-2,1.5-3.3,1.5c-1.3,0-2.5-0.6-3.3-1.5c-0.8,0.9-2,1.5-3.3,1.5
			s-2.5-0.6-3.3-1.5c-0.8,0.9-2,1.5-3.3,1.5c-1.3,0-2.5-0.6-3.3-1.5c-0.8,0.9-2,1.5-3.3,1.5c-1.3,0-2.5-0.6-3.3-1.5
			c-0.8,0.9-2,1.5-3.3,1.5c-2.4,0-4.3-1.9-4.3-4.3v-1.3c0-0.6,0.4-1,1-1h39.6c0.6,0,1,0.4,1,1v1.3
			C193.5,205.9,191.6,207.8,189.2,207.8z M186.9,203.2c0,0.1,0,0.2,0,0.3c0,1.2,1.1,2.3,2.3,2.3c1.2,0,2.3-1.1,2.3-2.3v-0.3
			C191.5,203.2,186.9,203.2,186.9,203.2z M180.3,203.2c0,0.1,0,0.2,0,0.3c0,1.2,1.1,2.3,2.3,2.3s2.3-1.1,2.3-2.3c0-0.1,0-0.2,0-0.3
			C184.9,203.2,180.3,203.2,180.3,203.2z M173.7,203.2c0,0.1,0,0.2,0,0.3c0,1.2,1.1,2.3,2.3,2.3s2.3-1.1,2.3-2.3c0-0.1,0-0.2,0-0.3
			C178.3,203.2,173.7,203.2,173.7,203.2z M167.1,203.2c0,0.1,0,0.2,0,0.3c0,1.2,1.1,2.3,2.3,2.3c1.2,0,2.3-1.1,2.3-2.3
			c0-0.1,0-0.2,0-0.3C171.7,203.2,167.1,203.2,167.1,203.2z M160.5,203.2c0,0.1,0,0.2,0,0.3c0,1.2,1.1,2.3,2.3,2.3
			c1.2,0,2.3-1.1,2.3-2.3c0-0.1,0-0.2,0-0.3C165.1,203.2,160.5,203.2,160.5,203.2z M153.9,203.2v0.3c0,1.2,1.1,2.3,2.3,2.3
			s2.3-1.1,2.3-2.3c0-0.1,0-0.2,0-0.3C158.5,203.2,153.9,203.2,153.9,203.2z"/>
		<path class="st1" d="M191.8,203.2h-38.9c-0.5,0-0.9-0.3-1-0.8c-0.1-0.4,0.1-0.9,0.5-1.1l19.5-10.1c0.3-0.1,0.6-0.1,0.9,0
			l19.5,10.1c0.4,0.2,0.6,0.7,0.5,1.1C192.7,202.9,192.3,203.2,191.8,203.2z M157,201.2h30.7l-15.3-8L157,201.2z"/>
		<path class="st1" d="M187,227h-29.2c-2.2,0-3.9-1.7-3.9-3.9v-16.4c0-0.6,0.4-1,1-1c0.6,0,1,0.4,1,1v16.4c0,1,0.9,1.9,1.9,1.9H187
			c1,0,1.9-0.9,1.9-1.9v-16.4c0-0.6,0.4-1,1-1c0.6,0,1,0.4,1,1v16.4C190.9,225.3,189.2,227,187,227z"/>
		<path class="st1" d="M232.2,207.8c-1.3,0-2.5-0.6-3.3-1.5c-0.8,0.9-2,1.5-3.3,1.5c-1.3,0-2.5-0.6-3.3-1.5c-0.8,0.9-2,1.5-3.3,1.5
			c-1.3,0-2.5-0.6-3.3-1.5c-0.8,0.9-2,1.5-3.3,1.5c-1.3,0-2.5-0.6-3.3-1.5c-0.8,0.9-2,1.5-3.3,1.5s-2.5-0.6-3.3-1.5
			c-0.8,0.9-2,1.5-3.3,1.5c-2.4,0-4.3-1.9-4.3-4.3v-1.3c0-0.6,0.4-1,1-1h39.6c0.6,0,1,0.4,1,1v1.3
			C236.5,205.9,234.6,207.8,232.2,207.8z M229.9,203.2c0,0.1,0,0.2,0,0.3c0,1.2,1.1,2.3,2.3,2.3s2.3-1.1,2.3-2.3v-0.3
			C234.5,203.2,229.9,203.2,229.9,203.2z M223.3,203.2c0,0.1,0,0.2,0,0.3c0,1.2,1.1,2.3,2.3,2.3s2.3-1.1,2.3-2.3c0-0.1,0-0.2,0-0.3
			C227.9,203.2,223.3,203.2,223.3,203.2z M216.7,203.2c0,0.1,0,0.2,0,0.3c0,1.2,1.1,2.3,2.3,2.3c1.2,0,2.3-1.1,2.3-2.3
			c0-0.1,0-0.2,0-0.3C221.3,203.2,216.7,203.2,216.7,203.2z M210.1,203.2c0,0.1,0,0.2,0,0.3c0,1.2,1.1,2.3,2.3,2.3
			c1.2,0,2.3-1.1,2.3-2.3c0-0.1,0-0.2,0-0.3C214.7,203.2,210.1,203.2,210.1,203.2z M203.5,203.2c0,0.1,0,0.2,0,0.3
			c0,1.2,1.1,2.3,2.3,2.3s2.3-1.1,2.3-2.3c0-0.1,0-0.2,0-0.3C208.1,203.2,203.5,203.2,203.5,203.2z M196.9,203.2v0.3
			c0,1.2,1.1,2.3,2.3,2.3s2.3-1.1,2.3-2.3c0-0.1,0-0.2,0-0.3C201.5,203.2,196.9,203.2,196.9,203.2z"/>
		<path class="st1" d="M234.8,203.2h-38.9c-0.5,0-0.9-0.3-1-0.8c-0.1-0.4,0.1-0.9,0.5-1.1l19.5-10.1c0.3-0.1,0.6-0.1,0.9,0
			l19.5,10.1c0.4,0.2,0.6,0.7,0.5,1.1C235.7,202.9,235.3,203.2,234.8,203.2z M200,201.2h30.7l-15.3-8L200,201.2z"/>
		<path class="st1" d="M230,227h-29.2c-2.2,0-3.9-1.7-3.9-3.9v-16.4c0-0.6,0.4-1,1-1c0.6,0,1,0.4,1,1v16.4c0,1,0.9,1.9,1.9,1.9H230
			c1,0,1.9-0.9,1.9-1.9v-16.4c0-0.6,0.4-1,1-1s1,0.4,1,1v16.4C233.9,225.3,232.2,227,230,227z"/>
		<path class="st1" d="M17.2,207.8c-1.3,0-2.5-0.6-3.3-1.5c-0.8,0.9-2,1.5-3.3,1.5s-2.5-0.6-3.3-1.5c-0.8,0.9-2,1.5-3.3,1.5
			s-2.5-0.6-3.3-1.5c-0.8,0.9-2,1.5-3.3,1.5s-2.5-0.6-3.3-1.5c-0.8,0.9-2,1.5-3.3,1.5s-2.5-0.6-3.3-1.5c-0.8,0.9-2,1.5-3.3,1.5
			c-2.4,0-4.3-1.9-4.3-4.3v-1.3c0-0.6,0.4-1,1-1h39.6c0.6,0,1,0.4,1,1v1.3C21.5,205.9,19.6,207.8,17.2,207.8z M14.9,203.2
			c0,0.1,0,0.2,0,0.3c0,1.2,1.1,2.3,2.3,2.3c1.2,0,2.3-1.1,2.3-2.3v-0.3C19.5,203.2,14.9,203.2,14.9,203.2z M8.3,203.2
			c0,0.1,0,0.2,0,0.3c0,1.2,1.1,2.3,2.3,2.3s2.3-1.1,2.3-2.3c0-0.1,0-0.2,0-0.3C12.9,203.2,8.3,203.2,8.3,203.2z M1.7,203.2
			c0,0.1,0,0.2,0,0.3c0,1.2,1.1,2.3,2.3,2.3s2.3-1.1,2.3-2.3c0-0.1,0-0.2,0-0.3C6.3,203.2,1.7,203.2,1.7,203.2z M-4.9,203.2
			c0,0.1,0,0.2,0,0.3c0,1.2,1.1,2.3,2.3,2.3s2.3-1.1,2.3-2.3c0-0.1,0-0.2,0-0.3C-0.3,203.2-4.9,203.2-4.9,203.2z M-11.5,203.2
			c0,0.1,0,0.2,0,0.3c0,1.2,1.1,2.3,2.3,2.3s2.3-1.1,2.3-2.3c0-0.1,0-0.2,0-0.3C-6.9,203.2-11.5,203.2-11.5,203.2z M-18.1,203.2v0.3
			c0,1.2,1.1,2.3,2.3,2.3s2.3-1.1,2.3-2.3c0-0.1,0-0.2,0-0.3C-13.5,203.2-18.1,203.2-18.1,203.2z"/>
		<path class="st1" d="M19.8,203.2h-38.9c-0.5,0-0.9-0.3-1-0.8c-0.1-0.4,0.1-0.9,0.5-1.1l19.5-10.1c0.3-0.1,0.6-0.1,0.9,0l19.5,10.1
			c0.4,0.2,0.6,0.7,0.5,1.1C20.7,202.9,20.3,203.2,19.8,203.2z M-15,201.2h30.7l-15.3-8L-15,201.2z"/>
		<path class="st1" d="M15,227h-29.2c-2.2,0-3.9-1.7-3.9-3.9v-16.4c0-0.6,0.4-1,1-1s1,0.4,1,1v16.4c0,1,0.9,1.9,1.9,1.9H15
			c1,0,1.9-0.9,1.9-1.9v-16.4c0-0.6,0.4-1,1-1s1,0.4,1,1v16.4C18.9,225.3,17.2,227,15,227z"/>
		<circle class="st1" cx="188.5" cy="182.2" r="0.6"/>
	</g>
</g>
</svg>
