<?xml version="1.0" encoding="utf-8"?>
<!-- Generator: Adobe Illustrator 19.0.1, SVG Export Plug-In . SVG Version: 6.00 Build 0)  -->
<svg version="1.1" id="_x30_3_x5F_ad" xmlns="http://www.w3.org/2000/svg" xmlns:xlink="http://www.w3.org/1999/xlink" x="0px"
	 y="0px" viewBox="0 0 150 150" style="enable-background:new 0 0 150 150;" xml:space="preserve">
<style type="text/css">
	.st0{fill:none;stroke:#F07880;stroke-miterlimit:10;}
	.st1{fill:#F9FAFA;}
	.st2{fill:none;stroke:#F07880;stroke-miterlimit:10;stroke-dasharray:3.1138,3.1138;}
	.st3{fill:none;stroke:#F07880;stroke-miterlimit:10;stroke-dasharray:3.886,3.886;}
	.st4{fill:none;stroke:#F07880;stroke-miterlimit:10;stroke-dasharray:4.3735,4.3735;}
	.st5{fill:none;stroke:#F07880;stroke-miterlimit:10;stroke-dasharray:4.0837,4.0837;}
	.st6{fill:none;stroke:#F07880;stroke-miterlimit:10;stroke-dasharray:4.6987,4.6987;}
	.st7{fill:none;stroke:#F07880;stroke-miterlimit:10;stroke-dasharray:4.3484,4.3484;}
	.st8{fill:none;stroke:#F07880;stroke-miterlimit:10;stroke-dasharray:4.4128,4.4128;}
	.st9{fill:none;stroke:#F07880;stroke-miterlimit:10;stroke-dasharray:3.8887,3.8887;}
	.st10{fill:none;stroke:#F07880;stroke-miterlimit:10;stroke-dasharray:4.0803,4.0803;}
	.st11{fill:none;stroke:#F07880;stroke-miterlimit:10;stroke-dasharray:3.5099,3.5099;}
	.st12{fill:none;stroke:#F07880;stroke-miterlimit:10;stroke-dasharray:3.5649,3.5649;}
	.st13{fill:none;stroke:#F07880;stroke-miterlimit:10;stroke-dasharray:4.2239,4.2239;}
	.st14{fill:none;stroke:#F07880;stroke-miterlimit:10;stroke-dasharray:3.8582,3.8582;}
	.st15{fill:none;stroke:#F07880;stroke-miterlimit:10;stroke-dasharray:3.8305,3.8305;}
	.st16{fill:none;stroke:#F07880;stroke-miterlimit:10;stroke-dasharray:4.5625,4.5625;}
	.st17{fill:none;stroke:#F07880;stroke-miterlimit:10;stroke-dasharray:2.5591,2.5591;}
	.st18{fill:none;stroke:#F07880;stroke-miterlimit:10;stroke-dasharray:4.4503,4.4503;}
	.st19{fill:none;stroke:#F07880;stroke-miterlimit:10;stroke-dasharray:4.2453,4.2453;}
	.st20{fill:none;stroke:#F07880;stroke-miterlimit:10;stroke-dasharray:3.9378,3.9378;}
	.st21{fill:none;stroke:#F07880;stroke-miterlimit:10;stroke-dasharray:4.4585,4.4585;}
	.st22{fill:none;stroke:#F07880;stroke-miterlimit:10;stroke-dasharray:3.5382,3.5382;}
	.st23{fill:none;stroke:#F07880;stroke-miterlimit:10;stroke-dasharray:4.6835,4.6835;}
	.st24{fill:none;stroke:#F07880;stroke-miterlimit:10;stroke-dasharray:2.923,2.923;}
	.st25{fill:none;stroke:#F07880;stroke-miterlimit:10;stroke-dasharray:2.1653,2.1653;}
	.st26{fill:none;stroke:#F07880;stroke-miterlimit:10;stroke-dasharray:3.026,3.026;}
	.st27{fill:#F9FAFA;stroke:#F07880;stroke-miterlimit:10;stroke-dasharray:4;}
	.st28{fill:none;stroke:#BE1622;stroke-width:2;stroke-miterlimit:10;}
	.st29{fill-rule:evenodd;clip-rule:evenodd;fill:#BE1622;}
	.st30{fill:#BE1622;}
	.st31{fill:#BE1622;stroke:#BE1622;stroke-width:0.5;stroke-miterlimit:10;}
	.st32{fill-rule:evenodd;clip-rule:evenodd;fill:none;stroke:#BE1622;stroke-miterlimit:10;}
</style>
<g>
	<path class="st0" d="M130.8,55.5c2.2,6.1,3.3,12.6,3.3,19.4c0,10.3-2.7,20-7.4,28.4"/>
	<path class="st0" d="M65,18c3.6-0.7,7.3-1.1,11.1-1.1c19.3,0,36.4,9.4,46.9,24"/>
	<path class="st0" d="M22.8,52.2c3.8-9,9.9-16.9,17.5-22.8"/>
	<path class="st0" d="M25.7,103.5c-4.8-8.4-7.6-18.2-7.6-28.6c0-4.8,0.6-9.4,1.7-13.8"/>
	<path class="st0" d="M83.2,132.4c-2.3,0.3-4.7,0.4-7.1,0.4c-16.9,0-32.1-7.2-42.7-18.8"/>
	<path class="st0" d="M121.5,111c-5.4,6.8-12.3,12.3-20.2,16.1"/>
	<g>
		<line class="st1" x1="65.9" y1="54.6" x2="57.7" y2="36.8"/>
		<g>
			<line class="st0" x1="65.9" y1="54.6" x2="65" y2="52.8"/>
			<line class="st2" x1="63.7" y1="49.9" x2="59.2" y2="40"/>
			<line class="st0" x1="58.5" y1="38.6" x2="57.7" y2="36.8"/>
		</g>
	</g>
	<g>
		<line class="st1" x1="85.4" y1="54.6" x2="96.1" y2="33.7"/>
		<g>
			<line class="st0" x1="85.4" y1="54.6" x2="86.3" y2="52.8"/>
			<line class="st3" x1="88.1" y1="49.3" x2="94.3" y2="37.2"/>
			<line class="st0" x1="95.2" y1="35.5" x2="96.1" y2="33.7"/>
		</g>
	</g>
	<g>
		<line class="st1" x1="60.7" y1="85.2" x2="32.7" y2="105.7"/>
		<g>
			<line class="st0" x1="60.7" y1="85.2" x2="59" y2="86.4"/>
			<line class="st4" x1="55.5" y1="89" x2="36.1" y2="103.2"/>
			<line class="st0" x1="34.4" y1="104.5" x2="32.7" y2="105.7"/>
		</g>
	</g>
	<g>
		<line class="st1" x1="56.4" y1="65.6" x2="24.7" y2="58"/>
		<g>
			<line class="st0" x1="56.4" y1="65.6" x2="54.5" y2="65.2"/>
			<line class="st5" x1="50.5" y1="64.2" x2="28.7" y2="58.9"/>
			<line class="st0" x1="26.7" y1="58.4" x2="24.7" y2="58"/>
		</g>
	</g>
	<g>
		<line class="st1" x1="94.1" y1="65.6" x2="119" y2="54"/>
		<g>
			<line class="st0" x1="94.1" y1="65.6" x2="95.9" y2="64.8"/>
			<line class="st6" x1="100.2" y1="62.8" x2="115.1" y2="55.8"/>
			<line class="st0" x1="117.2" y1="54.8" x2="119" y2="54"/>
		</g>
	</g>
	<g>
		<line class="st1" x1="95.3" y1="75.6" x2="120.5" y2="81.2"/>
		<g>
			<line class="st0" x1="95.3" y1="75.6" x2="97.3" y2="76"/>
			<line class="st7" x1="101.5" y1="77" x2="116.4" y2="80.3"/>
			<line class="st0" x1="118.5" y1="80.8" x2="120.5" y2="81.2"/>
		</g>
	</g>
	<g>
		<line class="st1" x1="82.2" y1="90.9" x2="92.5" y2="124.3"/>
		<g>
			<line class="st0" x1="82.2" y1="90.9" x2="82.8" y2="92.8"/>
			<line class="st8" x1="84.1" y1="97" x2="91.2" y2="120.2"/>
			<line class="st0" x1="91.9" y1="122.4" x2="92.5" y2="124.3"/>
		</g>
	</g>
	<g>
		<line class="st1" x1="24.5" y1="59.1" x2="37.8" y2="78.4"/>
		<g>
			<line class="st0" x1="24.5" y1="59.1" x2="25.6" y2="60.8"/>
			<line class="st9" x1="27.8" y1="64" x2="35.6" y2="75.1"/>
			<line class="st0" x1="36.7" y1="76.7" x2="37.8" y2="78.4"/>
		</g>
	</g>
	<g>
		<line class="st1" x1="118.3" y1="72.2" x2="124.9" y2="57.4"/>
		<g>
			<line class="st0" x1="118.3" y1="72.2" x2="119.1" y2="70.4"/>
			<line class="st10" x1="120.8" y1="66.7" x2="123.3" y2="61.1"/>
			<line class="st0" x1="124.1" y1="59.2" x2="124.9" y2="57.4"/>
		</g>
	</g>
	<g>
		<line class="st1" x1="116.9" y1="82.8" x2="123.8" y2="103.2"/>
		<g>
			<line class="st0" x1="116.9" y1="82.8" x2="117.5" y2="84.7"/>
			<line class="st11" x1="118.7" y1="88.1" x2="122.6" y2="99.7"/>
			<line class="st0" x1="123.2" y1="101.3" x2="123.8" y2="103.2"/>
		</g>
	</g>
	<g>
		<line class="st1" x1="91.4" y1="84.4" x2="121.1" y2="104.8"/>
		<g>
			<line class="st0" x1="91.4" y1="84.4" x2="93" y2="85.5"/>
			<line class="st12" x1="96" y1="87.5" x2="118" y2="102.6"/>
			<line class="st0" x1="119.5" y1="103.6" x2="121.1" y2="104.8"/>
		</g>
	</g>
	<g>
		<line class="st1" x1="54.1" y1="120.7" x2="70.4" y2="91.3"/>
		<g>
			<line class="st0" x1="54.1" y1="120.7" x2="55" y2="118.9"/>
			<line class="st13" x1="57.1" y1="115.2" x2="68.4" y2="94.9"/>
			<line class="st0" x1="69.4" y1="93.1" x2="70.4" y2="91.3"/>
		</g>
	</g>
	<g>
		<line class="st1" x1="54.1" y1="120.7" x2="84.6" y2="125.9"/>
		<g>
			<line class="st0" x1="54.1" y1="120.7" x2="56" y2="121"/>
			<line class="st14" x1="59.8" y1="121.6" x2="80.8" y2="125.2"/>
			<line class="st0" x1="82.7" y1="125.5" x2="84.6" y2="125.9"/>
		</g>
	</g>
	<g>
		<line class="st1" x1="65.6" y1="28" x2="96.1" y2="32.2"/>
		<g>
			<line class="st0" x1="65.6" y1="28" x2="67.5" y2="28.2"/>
			<line class="st15" x1="71.3" y1="28.8" x2="92.2" y2="31.6"/>
			<line class="st0" x1="94.1" y1="31.9" x2="96.1" y2="32.2"/>
		</g>
	</g>
	<g>
		<line class="st1" x1="96.1" y1="32.2" x2="118.3" y2="47.2"/>
		<g>
			<line class="st0" x1="96.1" y1="32.2" x2="97.7" y2="33.3"/>
			<line class="st16" x1="101.5" y1="35.8" x2="114.7" y2="44.8"/>
			<line class="st0" x1="116.6" y1="46.1" x2="118.3" y2="47.2"/>
		</g>
	</g>
	<g>
		<line class="st1" x1="46.8" y1="37.7" x2="39.3" y2="46.7"/>
		<g>
			<line class="st0" x1="46.8" y1="37.7" x2="45.5" y2="39.3"/>
			<line class="st17" x1="43.8" y1="41.2" x2="41.4" y2="44.2"/>
			<line class="st0" x1="40.6" y1="45.2" x2="39.3" y2="46.7"/>
		</g>
	</g>
	<g>
		<line class="st1" x1="102.1" y1="108.6" x2="119.5" y2="107.6"/>
		<g>
			<line class="st0" x1="102.1" y1="108.6" x2="104.1" y2="108.5"/>
			<line class="st18" x1="108.6" y1="108.3" x2="115.2" y2="107.9"/>
			<line class="st0" x1="117.5" y1="107.7" x2="119.5" y2="107.6"/>
		</g>
	</g>
	<g>
		<line class="st1" x1="102.1" y1="108.6" x2="88" y2="87.7"/>
		<g>
			<line class="st0" x1="102.1" y1="108.6" x2="101" y2="107"/>
			<line class="st19" x1="98.6" y1="103.5" x2="90.3" y2="91.1"/>
			<line class="st0" x1="89.2" y1="89.4" x2="88" y2="87.7"/>
		</g>
	</g>
	<g>
		<line class="st1" x1="59.2" y1="60.7" x2="39.7" y2="47.2"/>
		<g>
			<line class="st0" x1="59.2" y1="60.7" x2="57.5" y2="59.5"/>
			<line class="st20" x1="54.3" y1="57.3" x2="43" y2="49.4"/>
			<line class="st0" x1="41.4" y1="48.3" x2="39.7" y2="47.2"/>
		</g>
	</g>
	<g>
		<line class="st1" x1="39.7" y1="47.2" x2="23.8" y2="54.2"/>
		<g>
			<line class="st0" x1="39.7" y1="47.2" x2="37.9" y2="48"/>
			<line class="st21" x1="33.8" y1="49.8" x2="27.7" y2="52.5"/>
			<line class="st0" x1="25.7" y1="53.4" x2="23.8" y2="54.2"/>
		</g>
	</g>
	<g>
		<line class="st1" x1="41.6" y1="86.3" x2="53.1" y2="120.3"/>
		<g>
			<line class="st0" x1="41.6" y1="86.3" x2="42.2" y2="88.2"/>
			<line class="st22" x1="43.3" y1="91.6" x2="51.8" y2="116.7"/>
			<line class="st0" x1="52.4" y1="118.4" x2="53.1" y2="120.3"/>
		</g>
	</g>
	<g>
		<line class="st1" x1="17.7" y1="83.8" x2="35.7" y2="82.2"/>
		<g>
			<line class="st0" x1="17.7" y1="83.8" x2="19.7" y2="83.7"/>
			<line class="st23" x1="24.4" y1="83.2" x2="31.4" y2="82.6"/>
			<line class="st0" x1="33.7" y1="82.4" x2="35.7" y2="82.2"/>
		</g>
	</g>
	<g>
		<line class="st1" x1="44.1" y1="80.3" x2="56" y2="75.6"/>
		<g>
			<line class="st0" x1="44.1" y1="80.3" x2="45.9" y2="79.5"/>
			<line class="st24" x1="48.7" y1="78.5" x2="52.8" y2="76.9"/>
			<line class="st0" x1="54.1" y1="76.3" x2="56" y2="75.6"/>
		</g>
	</g>
	<g>
		<line class="st1" x1="97" y1="32.2" x2="100.4" y2="22.2"/>
		<g>
			<line class="st0" x1="97" y1="32.2" x2="97.7" y2="30.3"/>
			<line class="st25" x1="98.4" y1="28.2" x2="99.4" y2="25.1"/>
			<line class="st0" x1="99.8" y1="24.1" x2="100.4" y2="22.2"/>
		</g>
	</g>
	<g>
		<line class="st1" x1="103.8" y1="110.3" x2="110.6" y2="121.5"/>
		<g>
			<line class="st0" x1="103.8" y1="110.3" x2="104.8" y2="112"/>
			<line class="st26" x1="106.4" y1="114.6" x2="108.7" y2="118.5"/>
			<line class="st0" x1="109.5" y1="119.8" x2="110.6" y2="121.5"/>
		</g>
	</g>
	<line class="st27" x1="95.7" y1="122.1" x2="102.1" y2="108.6"/>
	<g>
		<line class="st1" x1="54.1" y1="120.7" x2="50.3" y2="126.8"/>
		<g>
			<line class="st0" x1="54.1" y1="120.7" x2="53" y2="122.4"/>
			<line class="st0" x1="51.3" y1="125.1" x2="50.3" y2="126.8"/>
		</g>
	</g>
	<g>
		<circle class="st28" cx="75.7" cy="72" r="20"/>
	</g>
	<g>
		<circle class="st29" cx="115" cy="79.7" r="6.9"/>
		<circle class="st30" cx="18.7" cy="83.8" r="2.4"/>
		<circle class="st30" cx="102.1" cy="108.6" r="2.4"/>
		<circle class="st30" cx="39.3" cy="46.7" r="2.4"/>
		<circle class="st30" cx="97" cy="32.2" r="3.4"/>
		<circle class="st30" cx="54.1" cy="120.7" r="2.4"/>
	</g>
	<g>
		<path class="st31" d="M90.5,69.8C90.5,69.8,90.5,69.8,90.5,69.8c0-0.2,0-0.3-0.1-0.4c0-0.1-0.1-0.3-0.1-0.4c0,0,0-0.1,0-0.1
			c0-0.1-0.1-0.3-0.1-0.4c0,0,0-0.1,0-0.1c-0.2-0.7-0.4-1.4-0.7-2.1c0-0.1-0.1-0.2-0.1-0.3c0,0,0,0,0-0.1c0-0.1-0.1-0.2-0.1-0.3
			c0,0,0,0,0,0c-0.1-0.2-0.2-0.4-0.3-0.6c0,0,0-0.1,0-0.1c-0.1-0.1-0.1-0.2-0.2-0.3c0,0,0-0.1,0-0.1c-0.1-0.2-0.2-0.3-0.3-0.5
			c0,0-0.1-0.1-0.1-0.1c-0.1-0.1-0.1-0.2-0.2-0.2c0,0-0.1-0.1-0.1-0.1c-0.1-0.1-0.2-0.3-0.3-0.4c0,0-0.1-0.1-0.1-0.1
			c-0.1-0.1-0.1-0.1-0.2-0.2c0,0-0.1-0.1-0.1-0.1c-0.1-0.1-0.2-0.3-0.3-0.4c0,0,0-0.1-0.1-0.1c-2.5-2.9-6-4.7-9.8-5.1
			c-0.1,0-0.2,0-0.2,0c-0.1,0-0.1,0-0.2,0c-0.2,0-0.3,0-0.5,0c0,0-0.1,0-0.1,0c-0.3,0-0.6,0-0.9,0c-1.8,0-3.6,0.4-5.4,1.1
			C67,59.4,64.6,61.4,63,64c0,0.1-0.1,0.1-0.1,0.2c0,0,0,0.1-0.1,0.1c-1.1,1.9-1.8,4-2.1,6.2c0,0,0,0,0,0c0,0.1,0,0.2,0,0.3
			c0,0.1,0,0.1,0,0.2c0,0.1,0,0.2,0,0.2c0,0.1,0,0.3,0,0.4c0,0,0,0.1,0,0.1c0,0.1,0,0.3,0,0.4c0,0,0,0,0,0c0,0.2,0,0.3,0,0.5
			c0,0,0,0,0,0.1c0,0.3,0.1,0.7,0.1,1c0,0,0,0,0,0.1c0,0.2,0,0.3,0.1,0.5c0,0,0,0,0,0c0,0.2,0.1,0.3,0.1,0.5c0,0,0,0.1,0,0.1
			c0,0.1,0.1,0.3,0.1,0.4c0,0.1,0,0.1,0,0.2c0,0.1,0.1,0.3,0.1,0.4c0,0.1,0,0.1,0.1,0.2c0,0.1,0,0.2,0.1,0.2c0,0.1,0.1,0.3,0.1,0.4
			c0,0,0,0.1,0.1,0.1c0,0.1,0.1,0.2,0.1,0.3c0,0,0,0.1,0,0.1c0,0.1,0.1,0.2,0.1,0.3c0.4,1,1,2,1.6,2.9c0,0,0,0.1,0.1,0.1
			c0.1,0.1,0.1,0.2,0.2,0.3c0,0.1,0.1,0.1,0.1,0.2c0,0.1,0.1,0.1,0.1,0.2c2.6,3.3,6.5,5.3,10.7,5.6c0.1,0,0.2,0,0.3,0
			c0.1,0,0.1,0,0.2,0c0.2,0,0.3,0,0.5,0c0,0,0,0,0,0c0,0,0,0,0,0c1.9,0,3.8-0.4,5.7-1.1c1.8-0.8,3.5-1.9,4.9-3.2
			C89.7,79.2,91.2,74.5,90.5,69.8z M80,84.9C80,84.9,80,84.9,80,84.9c-0.1,0-0.2,0-0.2,0c-1.2,0-2.6-0.5-4-1.6c0,0-0.1,0-0.1-0.1
			c-0.1,0-0.1-0.1-0.2-0.1c-0.1-0.1-0.2-0.1-0.2-0.2c0,0-0.1-0.1-0.1-0.1c0,0-0.1-0.1-0.1-0.1c0,0-0.1-0.1-0.1-0.1
			c0,0-0.1-0.1-0.1-0.1c0,0,0,0-0.1-0.1c-0.1-0.1-0.3-0.3-0.4-0.4c1.1-1,2.3-1.9,3.6-2.5l2.2,5.3C80.2,84.9,80.1,84.9,80,84.9z
			 M76.1,85.7C76,85.7,76,85.7,76.1,85.7c-0.2,0-0.3,0-0.3,0c0,0-0.1,0-0.1,0c-0.1,0-0.2,0-0.3,0c-0.1,0-0.1,0-0.2,0
			c-0.1,0-0.2,0-0.3,0c-0.1,0-0.2,0-0.2,0c0,0-0.1,0-0.1,0c-0.9-0.1-1.7-0.2-2.5-0.5c0.4-0.8,1-1.5,1.6-2.2c0.9,0.9,1.7,1.6,2.6,2.1
			c0.3,0.2,0.7,0.4,1,0.5C76.8,85.7,76.4,85.7,76.1,85.7z M65,80.7c0,0-0.1-0.1-0.1-0.1c-0.7-0.8-1.2-1.7-1.7-2.7l5.4-2.2
			c0.3,0.7,0.7,1.5,1,2.1c0,0,0,0,0,0c0.4,0.8,0.9,1.5,1.3,2.2c0,0,0,0,0,0c0,0,0.1,0.1,0.1,0.1c0,0,0.1,0.1,0.1,0.1
			c0.2,0.3,0.5,0.7,0.7,1c0,0,0,0,0,0c0.2,0.2,0.4,0.5,0.5,0.7c-0.7,0.8-1.4,1.8-1.9,2.8C68.5,83.9,66.6,82.5,65,80.7
			C65.1,80.7,65,80.7,65,80.7z M62.7,76.3C62.7,76.3,62.7,76.3,62.7,76.3c0-0.1-0.1-0.2-0.1-0.3c0,0,0,0,0,0
			c-0.4-1.4-0.6-2.8-0.6-4.2c0,0,0,0,0-0.1c0-0.1,0-0.2,0-0.2c0,0,0-0.1,0-0.1c0-0.1,0-0.1,0-0.2c0-0.1,0-0.1,0-0.2c0,0,0,0,0-0.1
			c0.1-1.4,0.4-2.9,1-4.3c0-0.1,0.1-0.2,0.1-0.3c1.1,0.3,2.2,0.5,3.3,0.6c0.2,2.3,0.8,4.8,1.7,7.3l-5.4,2.2c0-0.1,0-0.1-0.1-0.2
			C62.7,76.5,62.7,76.4,62.7,76.3z M63.9,65c0,0,0.1-0.1,0.1-0.1c0.6-0.9,1.2-1.7,2-2.5c0.4-0.4,0.7-0.7,1.1-1
			c-0.4,0.9-0.6,2-0.7,3.2c0,0.1,0,0.3,0,0.4c0,0.3,0,0.6,0,0.9c-0.9-0.1-1.8-0.2-2.7-0.5c0-0.1,0.1-0.1,0.1-0.2
			C63.9,65.1,63.9,65,63.9,65z M75.8,58.3C75.8,58.3,75.8,58.3,75.8,58.3c0.3,0,0.4,0,0.6,0c0,0,0.1,0,0.1,0c1,0.1,2,0.2,2.9,0.5
			c-0.4,0.8-1,1.5-1.6,2.2c-0.3-0.3-0.6-0.6-0.9-0.9c-0.9-0.8-1.8-1.4-2.7-1.8C74.7,58.4,75.2,58.3,75.8,58.3z M86.2,63.3
			c0.1,0.1,0.1,0.1,0.2,0.2c0,0,0,0,0,0.1c0,0.1,0.1,0.1,0.1,0.2c0,0,0,0.1,0.1,0.1c0,0.1,0.1,0.1,0.1,0.2c0,0,0,0.1,0.1,0.1
			c0,0.1,0.1,0.1,0.1,0.2c0,0,0,0.1,0.1,0.1c0,0.1,0.1,0.1,0.1,0.2c0,0,0,0.1,0.1,0.1c0,0.1,0.1,0.1,0.1,0.2c0,0,0,0.1,0.1,0.1
			c0,0.1,0.1,0.1,0.1,0.2c0,0,0,0,0,0.1c0,0.1,0.1,0.1,0.1,0.2c0,0,0,0,0,0c0.1,0.3,0.3,0.5,0.4,0.8l-5.4,2.2
			c-1.1-2.4-2.4-4.6-3.9-6.4c0.7-0.8,1.4-1.8,1.9-2.8c0.1,0,0.2,0.1,0.3,0.1C83,60.2,84.8,61.6,86.2,63.3
			C86.2,63.3,86.2,63.3,86.2,63.3z M89.1,69.6C89.1,69.7,89.1,69.7,89.1,69.6c0.5,2.7,0.1,5.5-1,7.9c-1.1-0.3-2.2-0.5-3.3-0.6
			c0,0,0-0.1,0-0.1c0-0.1,0-0.3,0-0.4c0-0.1,0-0.1,0-0.2c0-0.1,0-0.3-0.1-0.5c0,0,0-0.1,0-0.1c0-0.2-0.1-0.4-0.1-0.6c0,0,0,0,0,0
			c0-0.2-0.1-0.4-0.1-0.6c0,0,0,0,0-0.1c0,0,0,0,0,0c-0.2-0.8-0.4-1.7-0.6-2.6c0,0,0,0,0,0c0-0.1-0.1-0.2-0.1-0.3c0,0,0-0.1,0-0.1
			c0-0.1-0.1-0.3-0.1-0.4c0,0,0-0.1,0-0.1c0-0.1-0.1-0.3-0.1-0.4c0,0,0,0,0,0c-0.1-0.3-0.2-0.6-0.3-0.9l5.4-2.2
			c0.3,0.7,0.4,1.4,0.6,2.1C89.1,69.6,89.1,69.6,89.1,69.6z M83.6,78.5c0,2.8-0.8,4.9-2.1,5.9L79.3,79c1.4-0.5,2.9-0.8,4.3-0.8
			C83.6,78.3,83.6,78.4,83.6,78.5C83.6,78.5,83.6,78.5,83.6,78.5z M69.8,59.7l2.2,5.3c-1.4,0.5-2.9,0.8-4.3,0.8c0-0.4,0-0.8,0-1.2
			c0-0.3,0.1-0.6,0.1-0.9C68.1,61.8,68.8,60.4,69.8,59.7z M67.8,67.1c1.6,0,3.2-0.3,4.8-0.9l2.2,5.4l-5.4,2.2
			C68.5,71.6,67.9,69.3,67.8,67.1z M76,71.2l-2.3-5.4c1.5-0.7,2.8-1.6,4-2.7c1.4,1.6,2.6,3.7,3.6,5.9L76,71.2z M83.3,74.7
			c0.1,0.8,0.2,1.5,0.3,2.2c-1.6,0-3.2,0.3-4.8,0.9l-2.2-5.4l5.4-2.2c0.1,0.3,0.2,0.5,0.3,0.8c0,0,0,0,0,0.1c0,0.1,0.1,0.2,0.1,0.3
			c0,0.1,0,0.1,0.1,0.2c0,0.1,0.1,0.2,0.1,0.3c0,0.1,0.1,0.2,0.1,0.3C82.9,73,83.1,73.9,83.3,74.7C83.3,74.7,83.3,74.7,83.3,74.7z
			 M70.7,76.8C70.7,76.8,70.7,76.8,70.7,76.8c-0.1-0.2-0.1-0.3-0.2-0.4c0,0,0,0,0,0c-0.2-0.4-0.4-0.8-0.6-1.2l5.4-2.2l2.2,5.4
			c-1.5,0.7-2.8,1.6-4,2.7c-0.1-0.1-0.2-0.3-0.3-0.4c0,0,0-0.1-0.1-0.1c-0.1-0.1-0.2-0.2-0.2-0.3c0,0-0.1-0.1-0.1-0.1
			c-0.1-0.1-0.2-0.2-0.3-0.4c0,0,0,0,0-0.1c-0.1-0.1-0.2-0.3-0.3-0.4C71.7,78.6,71.2,77.7,70.7,76.8z M84.8,80.5
			C84.8,80.5,84.8,80.4,84.8,80.5c0-0.1,0-0.2,0-0.3c0-0.1,0-0.1,0-0.2c0-0.1,0-0.1,0-0.2c0-0.1,0-0.2,0-0.2c0,0,0,0,0,0
			c0,0,0-0.1,0-0.1c0-0.2,0-0.3,0-0.5c0,0,0-0.1,0-0.1c0-0.2,0-0.4,0-0.6c0.9,0.1,1.8,0.2,2.7,0.5c-0.8,1.5-2,2.9-3.4,4
			C84.5,82,84.7,81.3,84.8,80.5z M76,61.2c0.3,0.3,0.6,0.5,0.9,0.8c-1.1,1-2.3,1.9-3.6,2.5l-2.2-5.3C72.5,58.9,74.2,59.6,76,61.2z"
			/>
	</g>
	<g>
		<g>
			<path class="st30" d="M38.1,86.1c0.1,0,0.2,0.1,0.3,0.1l0-1.7L38.1,86.1z"/>
			<path class="st30" d="M37.9,83h4.3c0.4,0,0.7,0,0.8,0.4l0.4,1.9c0.8-0.8,1.3-2.1,1.3-3.3c0-2.6-2.1-4.7-4.7-4.7s-4.7,2.1-4.7,4.6
				c0,1.3,0.5,2.4,1.3,3.2l0.4-1.8C37.2,83,37.5,83,37.9,83z M40.1,78.6c0.9,0,1.7,0.8,1.7,1.7c0,0.9-0.8,1.7-1.7,1.7
				c-0.9,0-1.7-0.8-1.7-1.7C38.4,79.3,39.1,78.6,40.1,78.6z"/>
			<path class="st30" d="M41.8,86.2c0.1,0,0.2-0.1,0.3-0.1l-0.3-1.6L41.8,86.2z"/>
		</g>
		<g>
			<path class="st30" d="M47,36.5c0.3,0.1,0.5,0.2,0.8,0.3l0-5.2L47,36.5z"/>
			<path class="st30" d="M46.2,26h12.9c1.2,0,2.1,0.6,2.3,1.7l1.2,6c2.4-2.5,3.9-6,3.9-9.7c0-7.7-6.2-13.9-13.9-13.9
				s-13.9,6.2-13.9,13.9c0,3.8,1.5,7.2,3.9,9.7l1.2-5.9C44.1,26.6,45.1,26,46.2,26z M52.7,14.1c2.8,0,5,2.3,5,5c0,2.8-2.3,5-5,5
				c-2.8,0-5-2.3-5-5C47.7,16.4,49.9,14.1,52.7,14.1z"/>
			<path class="st30" d="M57.7,36.8c0.3-0.1,0.5-0.2,0.8-0.3l-0.8-4.9L57.7,36.8z"/>
		</g>
		<g>
			<path class="st30" d="M122.2,111.4c0.1,0,0.2,0.1,0.3,0.1l0-1.7L122.2,111.4z"/>
			<path class="st30" d="M121.9,108h4.3c0.4,0,0.7,0.2,0.8,0.5l0.4,2c0.8-0.8,1.3-2,1.3-3.3c0-2.6-2.1-4.6-4.6-4.6s-4.6,2.1-4.6,4.6
				c0,1.3,0.5,2.4,1.3,3.2l0.4-1.9C121.2,108.2,121.5,108,121.9,108z M124.1,104c0.9,0,1.7,0.8,1.7,1.7c0,0.9-0.8,1.7-1.7,1.7
				c-0.9,0-1.7-0.8-1.7-1.7C122.4,104.7,123.2,104,124.1,104z"/>
			<path class="st30" d="M125.7,111.5c0.1,0,0.2-0.1,0.3-0.1l-0.3-1.6L125.7,111.5z"/>
		</g>
		<g>
			<path class="st30" d="M88.6,139.2c0.2,0.1,0.3,0.1,0.5,0.2l0-3.5L88.6,139.2z"/>
			<path class="st30" d="M88.2,132h8.6c0.8,0,1.4,0.5,1.5,1.2l0.8,4c1.6-1.7,2.6-4,2.6-6.5c0-5.1-4.1-9.3-9.2-9.3s-9.3,4.1-9.3,9.2
				c0,2.5,1,4.8,2.6,6.4l0.8-4C86.7,132.5,87.4,132,88.2,132z M92.5,124.3c1.9,0,3.4,1.5,3.4,3.4c0,1.9-1.5,3.4-3.4,3.4
				c-1.9,0-3.4-1.5-3.4-3.4C89.1,125.8,90.6,124.3,92.5,124.3z"/>
			<path class="st30" d="M95.8,139.4c0.2-0.1,0.3-0.1,0.5-0.2l-0.5-3.3L95.8,139.4z"/>
		</g>
		<g>
			<path class="st30" d="M24.7,116.7c0.1,0.1,0.3,0.1,0.4,0.2l0-2.6L24.7,116.7z"/>
			<path class="st30" d="M24.4,111h6.5c0.6,0,1.1,0.5,1.2,1.1l0.6,3.1c1.2-1.3,2-3,2-4.9c0-3.9-3.1-7-7-7s-7,3.1-7,7
				c0,1.9,0.8,3.6,2,4.9l0.6-3.2C23.3,111.5,23.8,111,24.4,111z M27.6,105.5c1.4,0,2.5,1.1,2.5,2.5c0,1.4-1.1,2.5-2.5,2.5
				c-1.4,0-2.5-1.1-2.5-2.5C25.1,106.6,26.2,105.5,27.6,105.5z"/>
			<path class="st30" d="M30.1,116.9c0.1-0.1,0.3-0.1,0.4-0.2l-0.4-2.5L30.1,116.9z"/>
		</g>
		<g>
			<path class="st30" d="M18.7,60.9c0.1,0,0.2,0.1,0.3,0.1l0-1.8L18.7,60.9z"/>
			<path class="st30" d="M18.4,58h4.4c0.4,0,0.7-0.2,0.8,0.2l0.4,1.9c0.8-0.9,1.4-2.1,1.4-3.4c0-2.6-2.1-4.8-4.7-4.8
				s-4.8,2.1-4.8,4.7c0,1.3,0.5,2.4,1.3,3.3l0.4-1.7C17.7,57.9,18,58,18.4,58z M20.7,53.2c1,0,1.7,0.8,1.7,1.7c0,1-0.8,1.7-1.7,1.7
				c-1,0-1.7-0.8-1.7-1.7C18.9,54,19.7,53.2,20.7,53.2z"/>
			<path class="st30" d="M22.4,61c0.1,0,0.2-0.1,0.3-0.1l-0.3-1.7L22.4,61z"/>
		</g>
		<g>
			<path class="st30" d="M121.5,50h7.9c0.7,0,1.3,0.4,1.4,1.1l0.7,3.7c1.5-1.5,2.4-3.7,2.4-6c0-4.7-3.8-8.5-8.5-8.5
				c-4.7,0-8.5,3.8-8.5,8.5c0,2.3,0.9,4.4,2.4,5.9l0.7-3.6C120.2,50.4,120.8,50,121.5,50z M125.5,42.8c1.7,0,3.1,1.4,3.1,3.1
				c0,1.7-1.4,3.1-3.1,3.1c-1.7,0-3.1-1.4-3.1-3.1C122.4,44.2,123.8,42.8,125.5,42.8z"/>
			<path class="st30" d="M122,56.5c0.2,0.1,0.3,0.1,0.5,0.2l0-3.2L122,56.5z"/>
			<path class="st30" d="M128.5,56.7c0.2-0.1,0.3-0.1,0.5-0.2l-0.5-3L128.5,56.7z"/>
		</g>
	</g>
	<g>
		<circle class="st32" cx="124.1" cy="107.2" r="4.6"/>
		<circle class="st32" cx="92.5" cy="130.8" r="9.2"/>
		<circle class="st32" cx="27.6" cy="110.3" r="6.9"/>
		<circle class="st32" cx="40" cy="81.8" r="4.6"/>
		<circle class="st32" cx="20.5" cy="56.5" r="4.6"/>
		<circle class="st32" cx="52.7" cy="23.9" r="13.9"/>
		<circle class="st32" cx="125.5" cy="48.8" r="8.5"/>
	</g>
</g>
</svg>
