<?xml version="1.0" encoding="utf-8"?>
<!-- Generator: Adobe Illustrator 19.0.1, SVG Export Plug-In . SVG Version: 6.00 Build 0)  -->
<svg version="1.1" id="_x30_3_x5F_rt" xmlns="http://www.w3.org/2000/svg" xmlns:xlink="http://www.w3.org/1999/xlink" x="0px"
	 y="0px" viewBox="0 0 150 150" style="enable-background:new 0 0 150 150;" xml:space="preserve">
<style type="text/css">
	.st0{fill:#F07880;}
	.st1{fill:#BE1622;}
	.st2{font-family:'Helvetica-Bold';}
	.st3{font-size:34.2687px;}
	.st4{fill:#F9FAFA;stroke:#BE1622;stroke-width:1.6;stroke-miterlimit:10;}
</style>
<g>
	<path class="st0" d="M123.8,92.2l-11.4-35.5h-2.9v-1.9c5.6-1.4,5.7-7,5.7-7s-2.1,2.5-5.7,3.5v-1.5h-2.2v1.9c-0.1,0-0.2,0-0.3,0
		c-5.1,0.1-7.4-8.4-13.9-8.4c-6,0-12.7,3.6-17.1,4.1v-9.7c3.1-0.5,5.4-3.1,5.4-6.3c0-3.5-2.9-6.4-6.4-6.4c-3.5,0-6.4,2.9-6.4,6.4
		c0,3.4,2.6,6.1,5.9,6.4v9.6c-4.3-0.7-10.8-4-16.6-4c-6.5,0-8.8,8.5-13.9,8.4c-0.4,0-0.8-0.1-1.2-0.1v-1.8h-2.3V51
		c-3.1-1.1-4.8-3.2-4.8-3.2s0.1,4.9,4.8,6.6v2.2h-2.9L26.2,92.2h-6.6c0,0,4.8,9.1,21.8,9.1c17,0,21.8-9.1,21.8-9.1h-6L45.8,56.7H43
		V55c0.5,0.1,0.9,0.1,1.4,0.1c8.4,0,9.6-5.3,14.3-5.3c4.2,0,9,5.2,15.1,6.2c0.3,0.1,1.5,0,1.1,0.1l-0.2,19.9l-3.8,7.7L71,107H60.5
		v4.1L52,125h48l-10.3-14.1V107h-9.2V83.9l-3.9-8.1V56c0.4,0,0.3,0.1,0.7,0c6-1,10.9-6.2,15.1-6.2c4.6,0,5.9,5.3,14.3,5.3
		c0.2,0,0.3,0,0.5,0v1.6h-2.9L92.8,92.2h-6.6c0,0,4.8,9.1,21.8,9.1c17,0,21.8-9.1,21.8-9.1H123.8z M40.7,92.2H28.6L39.4,59h1.3V92.2
		z M44.2,58.9l10.6,33.2H43V58.9H44.2z M107.3,92.2H95.2L106,59h1.3V92.2z M109.5,92.2V58.9h1.2l10.7,33.2H109.5z M109.5,92.2"/>
	<g>
		<g>
			<path class="st1" d="M35.4,78.6c-2.6-0.9-3.7-1.6-3.7-2.6c0-0.9,0.6-1.7,2.6-1.7c2.2,0,3.6,0.7,4.4,1.1l0.9-3.5
				c-1.1-0.5-2.4-0.9-4.5-1v-2.7h-3V71c-3.3,0.6-5.2,2.7-5.2,5.5c0,3,2.2,4.5,5.5,5.6c2.3,0.8,3.3,1.5,3.3,2.7c0,1.2-1.2,1.9-3,1.9
				c-2,0-3.8-0.6-5.1-1.3l-0.9,3.6c1.2,0.6,3.2,1.2,5.2,1.3v2.9h3v-3.2c3.5-0.6,5.4-2.9,5.4-5.6C40.5,81.5,39,79.8,35.4,78.6z"/>
			<text transform="matrix(1 0 0 1 42.4745 93.1013)" class="st1 st2 st3">0</text>
		</g>
	</g>
	<g>
		<g>
			<g>
				<ellipse class="st4" cx="99.4" cy="87.1" rx="6.4" ry="8.2"/>
			</g>
			<g>
				<path class="st1" d="M108.9,86.8c-1.2-8.4-7.9-10.4-9.1-10.5c-1.1-0.2-5.9,1.8-5.9,1.8c-4.3,2.5-3.8,10.9-1.7,15.4
					C94.4,98,110.1,95.2,108.9,86.8z M99,87.1c-1.8,0-3.2-0.5-3.7-2c-0.4-1.4,0.2-2.7,1.8-3.6l-0.5-1.5l1.5-0.5l0.4,1.4
					c1-0.3,1.8-0.3,2.4-0.2l0.1,1.9c-0.4-0.1-1.3-0.2-2.4,0.2c-1,0.3-1.2,0.9-1.1,1.3c0.2,0.5,0.8,0.7,2.3,0.7c2,0.1,3,0.7,3.5,2.1
					c0.4,1.4-0.2,2.9-1.8,3.7l0.5,1.6l-1.5,0.5l-0.5-1.5c-1.1,0.3-2.2,0.3-2.8,0.2l-0.1-2c0.8,0.2,1.8,0.2,2.8-0.1
					c0.9-0.3,1.4-0.8,1.2-1.4C100.9,87.4,100.3,87.2,99,87.1z"/>
				
					<rect x="93.1" y="74.9" transform="matrix(-0.954 0.2999 -0.2999 -0.954 210.7507 119.1706)" class="st1" width="6.3" height="1.7"/>
				<path class="st1" d="M92.7,75.1l6.1-1.7c0,0,1.2-5.2,0.1-4.7c-1.1,0.5-0.2,2.7-1.6,3.2c-1.4,0.5-1.9-2.5-3-1.7
					C93.3,71,94.7,72.5,94,73c-0.7,0.5-1.5-0.4-2.5-0.4c-1,0-2.3-0.4-1.2,0.8C91.3,74.5,92.7,75.1,92.7,75.1z"/>
			</g>
		</g>
	</g>
	<g>
		<g>
			<g>
				<g>
					<path class="st1" d="M127.6,90.4c5-10.5-1.1-18-2.3-19s-8.1-2.4-8.1-2.4c-6.8-0.4-12.7,9.5-13.7,16.3
						C102.4,92.1,122.5,101,127.6,90.4z M116.1,83.2c-2.1-1.5-3.3-3-2.7-5.1c0.6-1.9,2.3-3,4.8-2.7l0.6-2l2.1,0.6l-0.6,1.9
						c1.4,0.5,2.3,1.1,2.9,1.6l-1.4,2.2c-0.5-0.4-1.3-1.2-2.9-1.7c-1.4-0.4-2,0.1-2.2,0.7c-0.2,0.7,0.4,1.4,2.1,2.6
						c2.3,1.7,2.9,3.1,2.4,5.1c-0.6,1.9-2.4,3.1-5,2.8l-0.7,2.2l-2.1-0.6l0.6-2c-1.4-0.5-2.7-1.3-3.4-2l1.4-2.3
						c0.8,0.8,1.9,1.6,3.3,2c1.2,0.4,2.2,0.1,2.5-0.7C118,85,117.5,84.3,116.1,83.2z"/>
					
						<rect x="117.3" y="67" transform="matrix(-0.9588 -0.2841 0.2841 -0.9588 218.8648 167.9935)" class="st1" width="8.7" height="2.3"/>
					<path class="st1" d="M118.1,64.7l8.2,2.7c0,0,5.4-4.9,3.7-5.3c-1.6-0.3-2.3,2.9-4.3,2.4c-2-0.5-0.2-4.3-2.1-4.2
						c-1.8,0.1-1.3,2.9-2.5,2.9c-1.2,0-1.5-1.6-2.6-2.4c-1.1-0.8-2.4-2.2-2-0.1C116.9,62.9,118.1,64.7,118.1,64.7z"/>
				</g>
			</g>
		</g>
	</g>
	<path class="st0" d="M40.7,59v33.2H28.6l-2.4,0h-6.6c0,0,4.8,9.1,21.8,9.1c17,0,21.8-9.1,21.8-9.1h-6l-2.4,0H43V58.9 M107.3,59
		v33.2H95.2h-2.3h-6.6c0,0,4.8,9.1,21.8,9.1c17,0,21.8-9.1,21.8-9.1h-5.9h-2.4h-11.9V58.9 M109.5,92.2"/>
</g>
</svg>
