<?xml version="1.0" encoding="utf-8"?>
<!-- Generator: Adobe Illustrator 19.0.1, SVG Export Plug-In . SVG Version: 6.00 Build 0)  -->
<svg version="1.1" id="_x30_2_x5F_rt" xmlns="http://www.w3.org/2000/svg" xmlns:xlink="http://www.w3.org/1999/xlink" x="0px"
	 y="0px" viewBox="0 0 150 150" style="enable-background:new 0 0 150 150;" xml:space="preserve">
<style type="text/css">
	.st0{fill:none;}
	.st1{fill:#BE1622;}
</style>
<g>
	<path class="st0" d="M41.5,83.6l5,1.4l6.8-25l-5.1-1.5L41.5,83.6z M44.5,84.1c-0.1,0-0.3,0-0.4-0.1h0c-0.8-0.2-1.3-1.1-1.1-1.9
		c0.1-0.4,0.4-0.7,0.7-0.9c0.4-0.2,0.8-0.3,1.2-0.2c0.8,0.2,1.3,1.1,1.1,1.9C45.8,83.6,45.2,84.1,44.5,84.1z"/>
	<path class="st1" d="M101,85.3L101,85.3l0-0.2C101.1,85.2,101,85.3,101,85.3z"/>
	<path class="st1" d="M101.1,85.8l0.1,0l-0.1-0.2C101.2,85.7,101.2,85.7,101.1,85.8z"/>
	<path class="st1" d="M101,85.3c0,0.1,0,0.1-0.1,0.2l0.2,0L101,85.3L101,85.3z"/>
	<polygon class="st1" points="46.5,85.4 53.3,60 53.3,60 46.5,85.2 	"/>
	<polygon class="st1" points="46.5,57.2 46.4,57.2 39.1,84.2 39.2,84.2 	"/>
	<polygon class="st1" points="48.7,56.7 49,55.9 23.2,48.3 22.6,50.2 46.4,57.2 46.7,56.1 	"/>
	<polygon class="st1" points="39.1,84.2 15.4,77.2 14.8,79.2 40.6,86.7 40.9,85.6 38.9,85 	"/>
	<rect x="31.8" y="71" transform="matrix(0.2607 -0.9654 0.9654 0.2607 -35.555 95.7939)" class="st1" width="25.9" height="0.2"/>
	<polygon class="st1" points="41.3,83.6 48.1,58.6 48.2,58.6 48.7,56.7 46.7,56.1 46.4,57.2 46.5,57.2 39.2,84.2 39.1,84.2 38.9,85 
		40.9,85.6 41.5,83.6 	"/>
	<path class="st1" d="M44.9,81c-0.4-0.1-0.8-0.1-1.2,0.2c-0.4,0.2-0.6,0.5-0.7,0.9c-0.2,0.8,0.3,1.7,1.1,1.9h0
		c0.1,0,0.3,0.1,0.4,0.1c0.7,0,1.3-0.5,1.5-1.2C46.2,82.1,45.7,81.2,44.9,81z"/>
	<polygon class="st1" points="107.7,74.2 103.5,58.8 103.5,58.8 	"/>
	<path class="st1" d="M102,85.5l-0.5-1.6c0,0.5-0.1,1-0.2,1.5L102,85.5z"/>
	<path class="st1" d="M101.1,85.2l0,0.2l0.1,0c0.1-0.5,0.2-1,0.2-1.5l-0.2-0.8C101.3,83.8,101.2,84.5,101.1,85.2z"/>
	<path class="st1" d="M100.9,84.7l0.1,0.5c0.1-0.6,0.2-1.3,0.2-2.1l-0.3-1C101.1,83,101.1,83.9,100.9,84.7z"/>
	<path class="st1" d="M102.6,86l-1.2-4c0,0.3,0.1,0.7,0.1,1l0.8,2.7l-1.1-0.2c0,0,0,0,0,0l0.1,0.2l1,0.2L102.6,86z"/>
	<path class="st1" d="M101.2,82.1l0.3,1c0-0.3,0-0.7-0.1-1l-0.4-1.5C101.1,81.1,101.1,81.6,101.2,82.1z"/>
	<path class="st1" d="M101.2,85.6C101.2,85.6,101.2,85.6,101.2,85.6L101.2,85.6L101.2,85.6z"/>
	<path class="st1" d="M101.5,83.8l0.5,1.6l-0.7-0.1c0,0.1,0,0.1-0.1,0.2l1.1,0.2l-0.8-2.7C101.5,83.3,101.5,83.6,101.5,83.8z"/>
	<path class="st1" d="M101.3,83.1l0.2,0.8c0-0.3,0-0.5,0-0.8l-0.3-1C101.2,82.4,101.2,82.7,101.3,83.1z"/>
	<path class="st1" d="M101.1,85.3l0.1,0.2l0,0c0-0.1,0-0.1,0.1-0.2L101.1,85.3z"/>
	<path class="st1" d="M107.1,83.3c-0.1-0.4-0.4-0.7-0.7-0.9c-0.4-0.2-0.8-0.3-1.2-0.1c-0.4,0.1-0.7,0.4-0.9,0.7
		c-0.2,0.4-0.3,0.8-0.1,1.2s0.4,0.7,0.7,0.9c0.2,0.1,0.5,0.2,0.8,0.2c0.1,0,0.3,0,0.4-0.1c0.4-0.1,0.7-0.4,0.9-0.7
		C107.1,84.1,107.2,83.7,107.1,83.3z"/>
	<polygon class="st1" points="135.2,81.2 134.7,79.3 110.9,85.8 107.7,74.2 111.1,86.5 109.2,87.1 109.5,88.2 	"/>
	<polygon class="st1" points="101.8,60.2 101.8,60.2 103.7,66.9 	"/>
	<polygon class="st1" points="103.5,58.8 127.2,52.3 126.7,50.4 101.1,57.4 101.3,58.3 103.2,57.7 	"/>
	<polygon class="st1" points="107.7,74.2 103.5,58.8 103.5,58.8 103.2,57.7 101.3,58.3 101.8,60.2 101.8,60.2 103.7,66.9 
		109.2,87.1 111.1,86.5 	"/>
	<rect x="45.8" y="85.9" class="st1" width="0.6" height="0.6"/>
	<rect x="47.8" y="85.3" class="st1" width="1.3" height="1.1"/>
	<path class="st1" d="M103.7,66.9l5,18.2l-5.1,1.5l-6.9-25l5.1-1.5l-0.5-1.9l-7,2l0.6,2.1l-3.6-0.8l0,0l0,0l-0.1,0c0,0-0.1,0-0.1,0
		l-0.1,0l0.2,0l-12-3.8l-1.4-0.4l0,0l-3.3-1l-19.7,2.1l-5.9-1.7l-0.5,1.9l5.1,1.5L46.5,85l0,0.1l-5-1.4l-0.5,1.9l7,2l0.3-1.1l4,0.1
		l1.8,1.5c0,0.9,0.2,1.9,0.8,2.6h0c0.8,0.9,1.9,1.4,3,1.4c0.3,0,0.5,0,0.8-0.1l0.9,0.8c-0.1,1,0.1,2.1,0.8,3h0
		c0.8,0.9,1.9,1.4,3,1.4c0.4,0,0.9-0.1,1.3-0.2l0.6,0.5c-0.3,1.1,0,2.4,0.7,3.3h0c0.8,0.9,1.9,1.4,3,1.4c0.5,0,1.1-0.1,1.5-0.3
		l0.4,0.3c-0.4,1.2-0.3,2.7,0.6,3.8h0c0.8,0.9,1.9,1.4,3,1.4c0.7,0,1.4-0.2,2-0.6c0.8,0.5,1.6,0.8,2.5,0.8c1.3,0,2.6-0.6,3.6-1.7
		c0.9-1.1,1.2-2.5,1-3.9c1.7,0.4,3.4-0.2,4.6-1.6c0.9-1.1,1.2-2.5,0.9-3.8c1.6,0.3,3.3-0.3,4.4-1.6c0.7-0.9,1.1-2.1,1-3.2l0.9-0.7
		c0.1,0,0.2,0,0.2,0c1.2-0.1,2.3-0.7,3.1-1.7c0.4-0.5,0.7-1.1,0.9-1.8l0.2-0.2c0.5-0.4,0.9-1,1.2-1.7c0,0,0,0,0,0l0.6,0.1l0,0
		l-0.5-0.1l0.9,3.3l7-2.1L103.7,66.9z M46.2,86.3L46.2,86.3l0.1-0.3L46.2,86.3z M48.6,85.5l-0.2,0.8l0,0L48.6,85.5L48.6,85.5
		L48.6,85.5z M81.2,104.8c-0.7,0.8-1.8,1.1-2.8,0.8l3.1-2.5c0.1-0.1,0.2-0.2,0.4-0.4C81.9,103.4,81.7,104.2,81.2,104.8z M97.3,88.2
		c-0.4,0.5-1.1,0.9-1.8,1c-0.7,0.1-1.4-0.1-1.9-0.6l-7.3-5.9L85,81.6l-0.6-0.5L83.8,82c-0.1,0.1-0.1,0.2-0.2,0.3L83,83l8.8,7.1
		c0.5,0.4,0.9,1.1,1,1.8c0,0.4,0,0.8-0.1,1.1c-0.1,0.2-0.1,0.3-0.2,0.5c-0.1,0.1-0.1,0.2-0.2,0.3c-0.3,0.4-0.7,0.7-1.2,0.8
		c-0.2,0.1-0.3,0.1-0.5,0.1c-0.7,0.1-1.4-0.1-2-0.6l-8.7-7.1l-1.5,1.8l8.2,6.6c0.6,0.4,0.9,1.1,1,1.7c0,0.1,0,0.2,0,0.3
		c0,0.1,0,0.2,0,0.3c0,0.5-0.2,1-0.6,1.4c-0.6,0.8-1.6,1.1-2.4,0.9c-0.1,0-0.2,0-0.3-0.1c-0.1,0-0.2-0.1-0.3-0.1
		c-0.2-0.1-0.5-0.2-0.7-0.4l-0.3-0.2c-0.1-0.7-0.4-1.3-0.8-1.9c-0.8-1-2-1.5-3.2-1.4L77.3,95c0-0.9-0.2-1.8-0.8-2.6
		c-1.3-1.6-3.7-1.9-5.4-0.6c0.9-1.4,0.8-3.2-0.3-4.5c-1.3-1.6-3.6-1.9-5.2-0.7c0.8-1.4,0.7-3.1-0.3-4.4c-0.7-0.8-1.7-1.3-2.7-1.4
		c-0.1,0-0.2,0-0.2,0c-0.1,0-0.1,0-0.2,0c-0.8,0-1.6,0.3-2.3,0.9l-4.3,3.6c-0.3,0.2-0.5,0.5-0.7,0.8L53,84.6l-4.2-0.1l0-0.1l0.1-0.3
		l3.1-11.5l0,0l0,0l3.1-11.8l0.1-0.4l19-2l2.6,0.8l-4,1l-5.1,1.4l-4.3,1.1l-0.2,0.1l0,0l-1.9,13.1l0.3,0.1c0.1,0,0.1,0,0.2,0
		l2.1,0.3l0,0c0.1,0,0.2,0,0.2,0c0.1,0,0.2,0,0.3,0c0.2,0,0.3,0,0.5,0c3.3,0,6.1-2.4,6.6-5.7l0-0.3l0-0.3l0-0.3l0-0.2l0.3-0.1
		l0.4-0.1l0.4-0.1l4.7-0.8c0.6,1.1,1.4,2.2,2.3,3.2c1.1,1.1,2.3,2.1,3.7,2.9c0.1,0,0.1,0.1,0.2,0.1c0.1,0,0.1,0.1,0.2,0.1
		c0.9,0.5,1.8,1,2.8,1.3L97,84.5c0,0,0.1,0.1,0.1,0.1c0.1,0.1,0.2,0.2,0.3,0.3c0.1,0.1,0.1,0.2,0.2,0.3c0.2,0.3,0.4,0.7,0.4,1.2
		C98,87,97.8,87.7,97.3,88.2z"/>
</g>
</svg>
