<?xml version="1.0" encoding="utf-8"?>
<!-- Generator: Adobe Illustrator 19.0.1, SVG Export Plug-In . SVG Version: 6.00 Build 0)  -->
<svg version="1.1" id="_x30_1_x5F_ad" xmlns="http://www.w3.org/2000/svg" xmlns:xlink="http://www.w3.org/1999/xlink" x="0px"
	 y="0px" viewBox="0 0 150 150" style="enable-background:new 0 0 150 150;" xml:space="preserve">
<style type="text/css">
	.st0{fill:#BE1622;}
	.st1{fill:none;stroke:#BE1622;stroke-width:1.6;stroke-miterlimit:10;}
	.st2{fill:#F9FAFA;}
	.st3{fill:none;stroke:#F07880;stroke-width:4;stroke-miterlimit:10;}
	.st4{fill:#F07880;}
	.st5{fill:#F9FAFA;stroke:#BE1622;stroke-width:2;stroke-miterlimit:10;}
	.st6{fill:#BE1622;stroke:#BE1622;stroke-width:0.7875;stroke-miterlimit:10;}
</style>
<g>
	<path class="st0" d="M68.2,38.6c-0.1,0,0.8,0-0.2,0v74c1,0,0.1,0,0.2,0c20.4,0,37-16.6,37-37C105.2,55.2,88.7,38.6,68.2,38.6z"/>
	<circle class="st1" cx="68.7" cy="75.3" r="43.3"/>
	<circle class="st1" cx="68.2" cy="75.6" r="37"/>
	<g>
		<rect x="69" y="40" class="st2" width="1" height="3"/>
		
			<rect x="85.1" y="44.5" transform="matrix(0.8388 0.5445 -0.5445 0.8388 39.0117 -39.0442)" class="st2" width="0.7" height="3.7"/>
		<rect x="97" y="57.2" transform="matrix(0.5224 0.8527 -0.8527 0.5224 96.8637 -54.8379)" class="st2" width="0.7" height="3.7"/>
		
			<rect x="97.4" y="90.8" transform="matrix(-0.5024 0.8647 -0.8647 -0.5024 226.9776 54.6665)" class="st2" width="0.7" height="3.7"/>
		
			<rect x="85.1" y="103.5" transform="matrix(-0.8556 0.5176 -0.5176 -0.8556 213.0644 151.2585)" class="st2" width="0.7" height="3.7"/>
		
			<rect x="51.1" y="103.5" transform="matrix(-0.9151 -0.4031 0.4031 -0.9151 56.084 222.496)" class="st0" width="0.7" height="3.7"/>
		
			<rect x="38.8" y="90.8" transform="matrix(-0.4231 -0.9061 0.9061 -0.4231 -28.2486 167.3154)" class="st0" width="0.7" height="3.7"/>
		
			<rect x="34.3" y="74" transform="matrix(2.929818e-02 -0.9996 0.9996 2.929818e-02 -42.1731 108.2713)" class="st0" width="0.7" height="3.7"/>
		
			<rect x="38.8" y="57.2" transform="matrix(0.5226 -0.8525 0.8525 0.5226 -31.658 61.5545)" class="st0" width="0.7" height="3.7"/>
		
			<rect x="51.1" y="44.9" transform="matrix(0.8431 -0.5377 0.5377 0.8431 -17.0526 35.0004)" class="st0" width="0.7" height="3.7"/>
		
			<rect x="101.9" y="74" transform="matrix(-1.071717e-02 0.9999 -0.9999 -1.071717e-02 179.1785 -25.5694)" class="st2" width="0.7" height="3.7"/>
		
			<rect x="101.3" y="81.6" transform="matrix(0.2087 -0.978 0.978 0.2087 -0.5184 164.9644)" class="st2" width="0.8" height="2.4"/>
		
			<rect x="100.4" y="85.1" transform="matrix(0.3085 -0.9512 0.9512 0.3085 -12.3707 155.4963)" class="st2" width="0.8" height="2.4"/>
		
			<rect x="99.1" y="88.4" transform="matrix(0.4063 -0.9137 0.9137 0.4063 -22.8069 144.0881)" class="st2" width="0.8" height="2.4"/>
		
			<rect x="95.5" y="94.6" transform="matrix(0.5889 -0.8082 0.8082 0.5889 -37.983 116.8862)" class="st2" width="0.8" height="2.4"/>
		
			<rect x="93.3" y="97.4" transform="matrix(0.6698 -0.7426 0.7426 0.6698 -42.2584 102.0915)" class="st2" width="0.8" height="2.4"/>
		
			<rect x="90.7" y="99.9" transform="matrix(0.7435 -0.6688 0.6688 0.7435 -44.2273 86.8768)" class="st2" width="0.8" height="2.4"/>
		<rect x="88" y="102.1" transform="matrix(0.8096 -0.587 0.587 0.8096 -43.8366 71.5394)" class="st2" width="0.8" height="2.4"/>
		
			<rect x="81.8" y="105.7" transform="matrix(0.9129 -0.4082 0.4082 0.9129 -36.4837 42.8532)" class="st2" width="0.8" height="2.4"/>
		<rect x="78.4" y="107" transform="matrix(0.951 -0.3093 0.3093 0.951 -29.5999 29.6884)" class="st2" width="0.8" height="2.4"/>
		<rect x="75" y="107.9" transform="matrix(0.978 -0.2084 0.2084 0.978 -21.0849 18.1033)" class="st2" width="0.8" height="2.4"/>
		
			<rect x="71.4" y="108.5" transform="matrix(0.9946 -0.1038 0.1038 0.9946 -10.9959 8.0492)" class="st2" width="0.8" height="2.4"/>
		
			<rect x="64.3" y="108.5" transform="matrix(0.9946 0.1038 -0.1038 0.9946 11.7341 -6.1234)" class="st0" width="0.8" height="2.4"/>
		
			<rect x="60.8" y="107.9" transform="matrix(0.978 0.2086 -0.2086 0.978 24.1098 -10.3597)" class="st0" width="0.8" height="2.4"/>
		<rect x="57.3" y="107" transform="matrix(0.951 0.3093 -0.3093 0.951 36.2961 -12.5455)" class="st0" width="0.8" height="2.4"/>
		
			<rect x="54" y="105.7" transform="matrix(0.9133 0.4074 -0.4074 0.9133 48.2689 -12.8773)" class="st0" width="0.8" height="2.4"/>
		
			<rect x="47.8" y="102.1" transform="matrix(0.8094 0.5873 -0.5873 0.8094 69.8738 -8.6021)" class="st0" width="0.8" height="2.4"/>
		<rect x="45" y="99.9" transform="matrix(0.744 0.6682 -0.6682 0.744 79.1768 -4.461)" class="st0" width="0.8" height="2.4"/>
		
			<rect x="101.8" y="78.1" transform="matrix(0.1045 -0.9945 0.9945 0.1045 12.7256 172.6744)" class="st2" width="0.8" height="2.4"/>
		<rect x="40.2" y="94.6" transform="matrix(0.5882 0.8087 -0.8087 0.5882 94.1943 6.5861)" class="st0" width="0.8" height="2.4"/>
		
			<rect x="36.7" y="88.4" transform="matrix(0.4068 0.9135 -0.9135 0.4068 103.8298 19.2933)" class="st0" width="0.8" height="2.4"/>
		
			<rect x="35.4" y="85.1" transform="matrix(0.3074 0.9516 -0.9516 0.3074 106.8576 25.6948)" class="st0" width="0.8" height="2.4"/>
		
			<rect x="34.5" y="81.6" transform="matrix(0.2082 0.9781 -0.9781 0.2082 108.5849 31.4749)" class="st0" width="0.8" height="2.4"/>
		
			<rect x="33.9" y="78.1" transform="matrix(0.1044 0.9945 -0.9945 0.1044 109.5483 36.8872)" class="st0" width="0.8" height="2.4"/>
		
			<rect x="33.9" y="70.9" transform="matrix(-0.1044 0.9945 -0.9945 -0.1044 109.6059 45.5507)" class="st0" width="0.8" height="2.4"/>
		
			<rect x="34.5" y="67.4" transform="matrix(-0.208 0.9781 -0.9781 -0.208 109.1967 48.7713)" class="st0" width="0.8" height="2.4"/>
		
			<rect x="35.4" y="63.9" transform="matrix(-0.3073 0.9516 -0.9516 -0.3073 108.7628 51.1126)" class="st0" width="0.8" height="2.4"/>
		
			<rect x="36.7" y="60.6" transform="matrix(-0.4072 0.9133 -0.9133 -0.4072 108.5977 53.1253)" class="st0" width="0.8" height="2.4"/>
		
			<rect x="40.2" y="54.4" transform="matrix(-0.5879 0.8089 -0.8089 -0.5879 109.5079 55.4485)" class="st0" width="0.8" height="2.4"/>
		
			<rect x="42.5" y="51.6" transform="matrix(-0.6694 0.7429 -0.7429 -0.6694 110.8402 56.3515)" class="st0" width="0.8" height="2.4"/>
		
			<rect x="45" y="49.1" transform="matrix(-0.7434 0.6688 -0.6688 -0.7434 112.8172 57.3411)" class="st0" width="0.8" height="2.4"/>
		
			<rect x="47.8" y="46.9" transform="matrix(-0.8097 0.5869 -0.5869 -0.8097 115.412 58.6914)" class="st0" width="0.8" height="2.4"/>
		<rect x="54" y="43.3" transform="matrix(-0.9139 0.406 -0.406 -0.9139 122.1255 63.0721)" class="st0" width="0.8" height="2.4"/>
		
			<rect x="57.3" y="42" transform="matrix(-0.9508 0.3098 -0.3098 -0.9508 125.972 66.4083)" class="st0" width="0.8" height="2.4"/>
		
			<rect x="60.8" y="41.1" transform="matrix(-0.9781 0.2081 -0.2081 -0.9781 129.7915 70.913)" class="st0" width="0.8" height="2.4"/>
		
			<rect x="64.3" y="40.5" transform="matrix(-0.9944 0.1055 -0.1055 -0.9944 133.4352 76.3921)" class="st0" width="0.8" height="2.4"/>
		
			<rect x="101.8" y="70.9" transform="matrix(-0.1044 -0.9945 0.9945 -0.1044 41.1883 181.3463)" class="st2" width="0.8" height="2.4"/>
		
			<rect x="101.3" y="67.4" transform="matrix(-0.2085 -0.978 0.978 -0.2085 55.7994 182.3494)" class="st2" width="0.8" height="2.4"/>
		
			<rect x="100.4" y="63.9" transform="matrix(-0.3083 -0.9513 0.9513 -0.3083 69.8569 181.0781)" class="st2" width="0.8" height="2.4"/>
		
			<rect x="99.1" y="60.6" transform="matrix(-0.4068 -0.9135 0.9135 -0.4068 83.4838 177.8223)" class="st2" width="0.8" height="2.4"/>
		
			<rect x="95.5" y="54.4" transform="matrix(-0.5886 -0.8084 0.8084 -0.5886 107.4016 165.8891)" class="st2" width="0.8" height="2.4"/>
		
			<rect x="93.3" y="51.6" transform="matrix(-0.6706 -0.7418 0.7418 -0.6706 117.2675 157.7503)" class="st2" width="0.8" height="2.4"/>
		
			<rect x="90.7" y="49.1" transform="matrix(-0.7429 -0.6694 0.6694 -0.7429 125.1536 148.688)" class="st2" width="0.8" height="2.4"/>
		
			<rect x="88" y="46.9" transform="matrix(-0.8099 -0.5866 0.5866 -0.8099 131.7054 138.8122)" class="st2" width="0.8" height="2.4"/>
		
			<rect x="81.8" y="43.3" transform="matrix(-0.9135 -0.4068 0.4068 -0.9135 139.1237 118.5573)" class="st2" width="0.8" height="2.4"/>
		
			<rect x="78.4" y="42" transform="matrix(-0.9508 -0.3098 0.3098 -0.9508 140.3853 108.713)" class="st2" width="0.8" height="2.4"/>
		
			<rect x="75" y="41.1" transform="matrix(-0.9782 -0.2079 0.2079 -0.9782 140.3078 99.3075)" class="st2" width="0.8" height="2.4"/>
		<rect x="42.5" y="97.4" transform="matrix(0.6685 0.7437 -0.7437 0.6685 87.5082 0.7784)" class="st0" width="0.8" height="2.4"/>
		
			<rect x="71.4" y="40.5" transform="matrix(-0.9944 -0.1054 0.1054 -0.9944 138.8799 90.7882)" class="st2" width="0.8" height="2.4"/>
		
			<rect x="67.9" y="107.6" transform="matrix(-0.9998 2.035389e-02 -2.035389e-02 -0.9998 138.7376 217.4926)" class="st2" width="0.7" height="3.7"/>
	</g>
	<g>
		<g>
			<path class="st3" d="M69.6,20c30.4,0,55,24.6,55,55c0,26.3-18.4,48.2-43,53.7"/>
			<g>
				<path class="st4" d="M69.6,130c5.4-2.8,11.9-7.2,15.8-11.5l-2.2,9.9l4.6,9C82.9,134.1,75.5,131.4,69.6,130z"/>
			</g>
		</g>
	</g>
	<circle class="st5" cx="68" cy="75.8" r="22.8"/>
	<g>
		<path class="st6" d="M58.9,84.9c0-0.4,0.2-0.6,0.5-0.6c0.3,0,0.5,0.2,0.5,0.5v0.5c0.3-0.7,1.1-1.1,1.8-1.1c0.8,0,1.6,0.5,1.9,1.3
			c0.4-0.8,1.3-1.3,2.2-1.3c1.3,0,2.4,0.9,2.4,2.3V91c0,0.3-0.2,0.5-0.5,0.5s-0.5-0.2-0.5-0.5v-4.1c0-0.9-0.5-1.7-1.5-1.7
			c-1.1,0-1.8,0.9-1.8,2V91c0,0.3-0.2,0.5-0.5,0.5c-0.3,0-0.5-0.2-0.5-0.5v-4.1c0-0.9-0.6-1.7-1.5-1.7c-1.1,0-1.8,0.9-1.8,2V91
			c0,0.3-0.2,0.5-0.5,0.5c-0.3,0-0.5-0.2-0.5-0.5V84.9z"/>
		<path class="st6" d="M70.2,81.5c0.4,0,0.6,0.3,0.6,0.6s-0.3,0.6-0.6,0.6c-0.4,0-0.6-0.3-0.6-0.6S69.9,81.5,70.2,81.5z M69.8,84.8
			c0-0.3,0.2-0.5,0.5-0.5c0.3,0,0.5,0.2,0.5,0.5V91c0,0.3-0.2,0.5-0.5,0.5c-0.3,0-0.5-0.2-0.5-0.5V84.8z"/>
		<path class="st6" d="M72.5,84.8c0-0.3,0.2-0.5,0.5-0.5c0.3,0,0.5,0.2,0.5,0.5v0.5c0.4-0.8,1.2-1.1,1.9-1.1c1.2,0,2.5,0.9,2.5,2.4
			v4.4c0,0.3-0.2,0.5-0.5,0.5c-0.3,0-0.5-0.2-0.5-0.5v-4c0-1.3-0.9-1.9-1.7-1.9c-0.9,0-1.8,0.6-1.8,1.9v4c0,0.3-0.2,0.5-0.5,0.5
			c-0.3,0-0.5-0.2-0.5-0.5V84.8z"/>
	</g>
	<g>
		<path class="st0" d="M66.1,65.4c0,1.5-0.7,2.9-2.2,3.9c2,1.1,2.9,2.9,2.9,4.7c0,2.9-2.3,5.8-6.1,5.8c-2.2,0-4-1.2-4.9-2.5
			c-0.5-0.7-0.7-1.5-0.7-2.2c0-1.3,0.9-2,1.9-2c0.7,0,1.5,0.5,1.9,1.3c0.4,1,1.1,1.5,1.9,1.5c1.1,0,2.1-0.7,2.1-2.1
			c0-1-0.5-2.3-1.7-2.4h-0.8c-1.4,0-2.1-0.5-2.1-1.7c0-1.3,0.7-1.7,2.1-1.7c0.1,0,0.5,0,0.7-0.1c0.7-0.2,1.1-1.4,1.1-2.2
			c0-1-0.6-1.7-1.6-1.7c-1.5,0-1.6,1.1-1.6,1.3c0,0.3-0.3,1.4-1.6,1.4c-1.4,0-2.1-0.6-2.1-1.8c0-2.4,2.3-4.7,5.4-4.7
			C63.9,60.2,66.1,62.8,66.1,65.4z"/>
		<path class="st0" d="M75.2,60.2c4.9,0,6.6,5.7,6.6,9.9c0,4-1.7,9.9-6.6,9.9c-5.1,0-6.7-5.6-6.7-9.8c0-4.1,1.7-9.9,6.7-9.9H75.2z
			 M77.7,70.2c0-2.4-0.7-6-2.5-6c-2.1,0-2.6,3.8-2.6,5.9c0,2.3,0.7,5.8,2.6,5.8C77,75.9,77.7,72.2,77.7,70.2z"/>
	</g>
</g>
</svg>
