<?xml version="1.0" encoding="utf-8"?>
<!-- Generator: Adobe Illustrator 19.0.1, SVG Export Plug-In . SVG Version: 6.00 Build 0)  -->
<svg version="1.1" id="_x30_2_x5F_ad" xmlns="http://www.w3.org/2000/svg" xmlns:xlink="http://www.w3.org/1999/xlink" x="0px"
	 y="0px" viewBox="0 0 150 150" style="enable-background:new 0 0 150 150;" xml:space="preserve">
<style type="text/css">
	.st0{fill:#F07880;}
	.st1{fill:#BE1622;stroke:#BE1622;stroke-miterlimit:10;}
	.st2{fill:none;stroke:#BE1622;stroke-width:1.6;stroke-miterlimit:10;}
</style>
<g>
	<path class="st0" d="M60.3,40.4l5.8,2.2l1-1.4c0.4-0.5,0.8-1,1.3-1.5L66,38.7l2.8-1.1c0.4-0.2,0.8-0.5,1-1c0.2-0.4,0.2-0.9,0-1.4
		L68,31l6.1,4.1c0.4,0.3,1,0.4,1.5,0.2c0.5-0.2,0.9-0.6,1.1-1.1l1.4-3.8l1.8,2.4c0.5,0.7,1.5,0.9,2.3,0.5l3.1-1.6l-2.8,5.1
		c-0.2,0.4-0.3,1-0.1,1.5c0.2,0.5,0.5,0.9,1,1l2.7,1.1l-2.8,0.9c-0.1,0-0.2,0.1-0.3,0.1l2.1,3l6.8-2.2c0.7-0.2,1.2-0.9,1.2-1.6
		c0-0.7-0.4-1.4-1.1-1.7l-5.5-2.1l4.7-8.5c0.4-0.7,0.3-1.5-0.3-2.1c-0.5-0.6-1.4-0.7-2.1-0.3l-7,3.7L79,25.6c-0.4-0.5-1-0.8-1.7-0.7
		c-0.6,0.1-1.2,0.5-1.4,1.1l-1.8,4.8l-9.1-6.1c-0.6-0.4-1.5-0.4-2.1,0.1c-0.6,0.5-0.8,1.3-0.5,2l3.3,8l-5.5,2.1
		c-0.7,0.3-1.1,0.9-1.1,1.7C59.1,39.4,59.6,40.1,60.3,40.4L60.3,40.4z M60.3,40.4"/>
	<path class="st1" d="M49,56.5c4.2,0.7,8.1-2.1,8.9-6.2c0.7-4.2-2.1-8.1-6.2-8.9c-4.2-0.7-8.1,2.1-8.9,6.2
		C42,51.8,44.8,55.8,49,56.5L49,56.5z M49,56.5"/>
	<path class="st2" d="M92.1,50.3c0.7,4.2,4.7,7,8.9,6.2c4.2-0.7,7-4.7,6.2-8.9c-0.7-4.2-4.7-7-8.9-6.2
		C94.2,42.2,91.4,46.2,92.1,50.3L92.1,50.3z M92.1,50.3"/>
	<path class="st2" d="M128.1,84l-3-12.8c-0.2-0.7-0.6-1.4-1.2-1.9L111.5,59c-0.8-0.7-1.8-0.8-2.8-0.8c-0.5,0-11.8,2-11.8,2
		l-10.6-4.8L79,44.9c-0.9-1.2-2.5-1.8-3.9-1.3c-0.1,0-0.1,7.7-0.1,7.7l6.3,9c0.4,0.5,0.8,0.9,1.4,1.2l11.5,5.3
		c0.4,2.5,3.4,19.7,3.9,22.1c-2.8,12.7-2.6,11.8-2.7,12.1l-2.8,20.1c-0.3,2.2,1.2,4.3,3.4,4.6c2.2,0.3,4.3-1.2,4.6-3.4l2.8-19.9
		l2.5-11.3l3.9-0.7l4.1,31.9c0.3,2.2,2.3,3.8,4.5,3.5c2.2-0.3,3.8-2.3,3.5-4.5l-4.2-32.2l-3-17.9l3.8,3.2l2.7,11.6
		c0.4,1.9,2.3,3,4.2,2.6C127.4,87.8,128.5,85.9,128.1,84z"/>
	<path class="st1" d="M75.6,43.9c-1.5-1-3.6-0.7-4.6,0.9l-5.2,7.5l0,0l-2.2,3.1L53,60.2c0,0-10.8-2-11.8-2c-1,0-2,0.1-2.8,0.8
		L26.1,69.3c-0.6,0.5-1,1.1-1.2,1.9l-3,12.8c-0.4,1.9,0.7,3.7,2.6,4.2c1.9,0.4,3.7-0.7,4.2-2.6l2.7-11.6l3.8-3.2l-7.1,50.2
		c-0.3,2.2,1.3,4.2,3.5,4.5c2.2,0.3,4.2-1.3,4.5-3.5L40.2,90l0.9,0.2l11,11.6l-2.8,19c-0.3,2.2,1.2,4.3,3.4,4.6
		c2.2,0.3,4.3-1.2,4.6-3.4l3.1-21c0.2-1.2-0.2-2.5-1.1-3.4l-7.6-8c0.5-2.7,3.6-20.7,4-23.1l11.5-5.3c0.6-0.3,0.8-0.7,1.2-1.2l6-8.8
		c0.3-0.4,1-1.5,1-1.5l0.9-1.3C77.5,47,77.1,45,75.6,43.9z"/>
</g>
</svg>
