<?xml version="1.0" encoding="utf-8"?>
<!-- Generator: Adobe Illustrator 20.0.0, SVG Export Plug-In . SVG Version: 6.00 Build 0)  -->
<svg version="1.1" id="圖層_1" xmlns="http://www.w3.org/2000/svg" xmlns:xlink="http://www.w3.org/1999/xlink" x="0px" y="0px"
	 viewBox="0 0 150 150" style="enable-background:new 0 0 150 150;" xml:space="preserve">
<style type="text/css">
	.st0{fill:none;stroke:#F07880;stroke-width:2;stroke-linecap:round;stroke-miterlimit:10;}
	.st1{fill:none;stroke:#BE1622;stroke-width:2;stroke-linecap:round;stroke-miterlimit:10;}
</style>
<g id="_x30_6_x5F_rt">
	<path class="st0" d="M90.4,104.4c1.8-0.1,3.6-0.8,5.1-2.1c0,0,2.4-2.4,3.2-3.2c0.8-0.8,0.9-1.9-0.1-2.8c-0.9-0.9-1.6-1.6-1.6-1.6
		s-0.4-0.4-1.1-1.1s-2.4-1.6-3.8-0.2s-6.5,6.2-3.6,9.7C89.7,104.5,90.4,104.4,90.4,104.4z"/>
	<path class="st1" d="M103.9,84L93.2,55.3l0,0c-0.8-4.4-4.7-7.7-9.3-7.7c-4.5,0-8.3,3.2-9.2,7.5c-2.7-1.8-6.3-2-9.4-0.5
		c-3.2,1.6-5,4.8-5.1,8.1c-1.9-0.5-3.9-0.4-5.8,0.6c-2.9,1.5-4.5,4.6-4.3,7.6c-1.4-0.3-3-0.1-4.3,0.6c-3.4,1.7-4.7,5.8-3,9.2
		L52,97.4c1.7,3.4,5.8,4.7,9.2,3c1.7-0.9,2.9-2.4,3.4-4.1c2.2,1.3,5.1,1.5,7.5,0.2c2-1,3.4-2.9,4-4.9c1.6,1.1,3.6,1.7,5.5,1.6
		c-0.9,2.8-0.3,5.9,1.7,8.2c3.1,3.6,8.6,4,12.1,0.8l6.9-7C105.7,92.4,106.3,87.6,103.9,84z"/>
	<path class="st0" d="M83.9,63.9c4.7,0,7,1.3,7.5-0.1c0.4-1-0.5-4.2-7.5-4.2s-8.2,3.2-7.2,4.4C77.5,64.9,79.3,63.9,83.9,63.9z"/>
	<path class="st1" d="M74.9,66.5c1.1,4,4.8,6.9,9.1,6.9c4.4,0,8-3,9.1-7"/>
	<path class="st1" d="M81.6,93.2c0,0,1.3-2.7,3.4-4.2s4.5-3.7,6.5-4.9c1.2-0.8,3.5-2.3,6.6-2.2"/>
	<line class="st1" x1="76.1" y1="91.6" x2="64.6" y2="71.1"/>
	<line class="st1" x1="64.6" y1="96.3" x2="53.8" y2="77.7"/>
	<line class="st1" x1="90.3" y1="84.9" x2="83.9" y2="73.3"/>
	<path class="st1" d="M106.1,125c4.9,0,8.9-4,8.9-8.9V88.2V33.9c0-4.9-4-8.9-8.9-8.9H43.9C39,25,35,29,35,33.9V116
		c0,4.9,4,8.9,8.9,8.9L106.1,125L106.1,125z"/>
</g>
</svg>
