<?xml version="1.0" encoding="utf-8"?>
<!-- Generator: Adobe Illustrator 19.0.1, SVG Export Plug-In . SVG Version: 6.00 Build 0)  -->
<svg version="1.1" id="_x30_1_x5F_rt" xmlns="http://www.w3.org/2000/svg" xmlns:xlink="http://www.w3.org/1999/xlink" x="0px"
	 y="0px" viewBox="0 0 150 150" style="enable-background:new 0 0 150 150;" xml:space="preserve">
<style type="text/css">
	.st0{filter:url(#Adobe_OpacityMaskFilter);}
	
		.st1{mask:url(#SVGID_1_);fill:none;stroke:#BE1622;stroke-width:2;stroke-linecap:round;stroke-linejoin:round;stroke-miterlimit:10;}
	.st2{fill:#BE1622;}
	.st3{fill:none;stroke:#BE1622;stroke-width:1.6;stroke-linecap:round;stroke-linejoin:round;stroke-miterlimit:10;}
	.st4{opacity:0.5;fill:#F07880;}
</style>
<g>
	<defs>
		<filter id="Adobe_OpacityMaskFilter" filterUnits="userSpaceOnUse" x="53.3" y="15.8" width="43.4" height="52">
			<feFlood  style="flood-color:white;flood-opacity:1" result="back"/>
			<feBlend  in="SourceGraphic" in2="back" mode="normal"/>
		</filter>
	</defs>
	<mask maskUnits="userSpaceOnUse" x="53.3" y="15.8" width="43.4" height="52" id="SVGID_1_">
	</mask>
	<path class="st1" d="M60.4,52.1L75,66.8l15.1-15.1l0,0c7.6-8.1,7.5-20.9-0.5-28.8c-8.1-8.1-21.2-8.1-29.3,0
		C52.3,30.9,52.3,44.1,60.4,52.1z"/>
	<path class="st2" d="M77,36.9c-3-1.1-4.2-1.9-4.2-3c0-1,0.7-2,3-2c2.5,0,4.2,0.8,5,1.2l1.1-4c-1.2-0.6-2.8-1.1-5.1-1.2v-3.1h-3.4
		v3.3c-3.7,0.7-5.9,3.1-5.9,6.2c0,3.4,2.6,5.1,6.3,6.4c2.6,0.9,3.7,1.7,3.7,3c0,1.4-1.4,2.2-3.4,2.2c-2.3,0-4.3-0.7-5.8-1.5
		l-1.1,4.1c1.3,0.7,3.6,1.4,6,1.5v3.3h3.5v-3.6c4-0.7,6.2-3.3,6.2-6.4C82.8,40.3,81.2,38.3,77,36.9z"/>
	<g>
		<g>
			<polygon class="st3" points="36.1,73.2 113.1,73.2 119.8,85 30.2,85 			"/>
			<rect x="30.2" y="85" class="st3" width="89.5" height="6.6"/>
			<g>
				<rect x="31.5" y="91.6" class="st2" width="4.7" height="41.6"/>
				<polygon class="st2" points="36.2,91.6 37.3,91.6 37.3,131.4 36.2,133.2 				"/>
				<rect x="37.9" y="91.6" class="st2" width="4.2" height="25.2"/>
				<polygon class="st2" points="42.8,91.6 42.8,115.7 42.1,116.8 42.1,91.6 				"/>
			</g>
			<g>
				<rect x="113.5" y="91.6" class="st2" width="4.7" height="41.6"/>
				<polygon class="st2" points="113.5,91.6 112.4,91.6 112.4,131.4 113.5,133.2 				"/>
				<rect x="107.6" y="91.6" class="st2" width="4.2" height="25.2"/>
				<polygon class="st2" points="106.9,91.6 106.9,115.7 107.6,116.8 107.6,91.6 				"/>
			</g>
		</g>
	</g>
	<polygon class="st4" points="58.4,76.3 91.2,76.3 94,81.3 56,81.3 	"/>
</g>
</svg>
