<?xml version="1.0" encoding="utf-8"?>
<!-- Generator: Adobe Illustrator 19.0.1, SVG Export Plug-In . SVG Version: 6.00 Build 0)  -->
<svg version="1.1" id="Layer_1" xmlns="http://www.w3.org/2000/svg" xmlns:xlink="http://www.w3.org/1999/xlink" x="0px" y="0px"
	 viewBox="20 -20 150 150" style="enable-background:new 20 -20 150 150;" xml:space="preserve">
<style type="text/css">
	.st0{fill:#BE1622;}
	.st1{clip-path:url(#SVGID_2_);fill:#F07880;}
	.st2{clip-path:url(#SVGID_4_);fill:#BE1622;}
	.st3{clip-path:url(#SVGID_6_);}
	.st4{fill:#F07880;}
	.st5{fill:none;stroke:#BE1622;stroke-width:1.1596;stroke-linecap:round;stroke-linejoin:round;stroke-miterlimit:10;}
	.st6{fill:none;stroke:#BE1622;stroke-width:1.4;stroke-linecap:round;stroke-linejoin:round;stroke-miterlimit:10;}
	.st7{fill:none;stroke:#BE1622;stroke-width:1.4264;stroke-linecap:round;stroke-linejoin:round;stroke-miterlimit:10;}
</style>
<g id="_x30_4_x5F_rt">
	<path class="st0" d="M77.4,73.9l-14.1,6.5L40.2,29.6L91.5,6.1l4.4,10.2h4.2L93.2,1.2L35,27.8l26.6,58.4l5.7,12.5l10.2-4.6
		L77.4,73.9L77.4,73.9z M74,89.7c0,0.1-0.1,0.1-0.2,0.2c-0.1,0-0.2,0-0.2,0l-5.5-2.1c-0.7-0.3-1.3-0.8-1.6-1.5s-0.3-1.5-0.1-2.2
		c0.3-0.7,0.8-1.3,1.5-1.6c0.7-0.3,1.5-0.3,2.2-0.1l0.4,0.1l0.1-0.4c0.3-0.7,0.8-1.3,1.5-1.6c0.7-0.3,1.5-0.3,2.2-0.1
		c0.7,0.3,1.3,0.8,1.6,1.5s0.3,1.5,0.1,2.2L74,89.7z"/>
	<g>
		<g>
			<defs>
				<polygon id="SVGID_1_" points="146.2,16.1 77.7,16.1 77.7,98.7 61.9,104.5 30.5,24.3 84.8,-0.9 90.8,-4.8 				"/>
			</defs>
			<clipPath id="SVGID_2_">
				<use xlink:href="#SVGID_1_"  style="overflow:visible;"/>
			</clipPath>
			<path class="st1" d="M76.3,69.9L72.7,68l-4,0.7l-2.8-2.9l-4-0.6l-1.8-3.6l-3.6-1.8l-0.6-4L53.1,53l0.7-4l-1.9-3.6l1.9-3.6l-0.7-4
				L56,35l0.6-4l3.6-1.8l1.8-3.6l4-0.6l2.8-2.9l4,0.7l3.6-1.9l3.6,1.9l4-0.7l2.8,2.9l4,0.6l1.8,3.6l3.6,1.8l0.6,4l2.9,2.8l-0.7,4
				l1.9,3.6L99,49l0.7,4l-2.9,2.8l-0.6,4l-3.6,1.8l-1.8,3.6l-4,0.6L84,68.7L80,68L76.3,69.9z M73,66.1l3.3,1.7l3.3-1.7l3.6,0.7
				l2.6-2.7l3.7-0.5l1.6-3.3l3.3-1.6l0.5-3.7l2.7-2.6l-0.7-3.6l1.7-3.3l-1.7-3.3l0.7-3.6L94.9,36l-0.5-3.7L91,30.8l-1.6-3.3L85.7,27
				l-2.6-2.7L79.5,25l-3.3-1.7L73,24.9l-3.6-0.7L66.8,27l-3.7,0.5l-1.6,3.3l-3.3,1.6l-0.5,3.7L55,38.6l0.7,3.6L54,45.5l1.7,3.3
				L55,52.4l2.7,2.6l0.5,3.7l3.3,1.6l1.6,3.3l3.7,0.5l2.6,2.7L73,66.1z"/>
		</g>
		<g>
			<defs>
				<polygon id="SVGID_3_" points="146.2,16.1 77.7,16.1 77.7,98.7 61.9,104.5 30.5,24.3 84.8,-0.9 90.8,-4.8 				"/>
			</defs>
			<clipPath id="SVGID_4_">
				<use xlink:href="#SVGID_3_"  style="overflow:visible;"/>
			</clipPath>
			<path class="st2" d="M92,38.6c1.5,0.2,2.8,0.5,3.1,1.2c0.3,0.7-0.1,2.5-2.5,5c-2.5,2.6-6.3,5.3-10.7,7.4
				c-4.4,2.1-8.8,3.4-12.5,3.8c-3.5,0.3-5.1-0.4-5.5-1.2c-0.2-0.5-0.1-1.4,0.7-2.7c-1-1.1-0.9-1.8-0.9-1.8c-0.4,0.5-0.6,0.8-0.6,0.8
				c-1.1,1.7-1.4,3.3-0.9,4.5c1.7,3.6,10.9,2.8,20.4-1.7c9.5-4.6,15.8-11.2,14.1-14.8c-0.5-0.9-1.4-1.6-2.8-1.9
				c-0.4-0.1-1.3-0.2-2.2-0.3C91.8,36.8,92.2,37.3,92,38.6z"/>
		</g>
		<g>
			<defs>
				<polygon id="SVGID_5_" points="146.2,16.1 77.7,16.1 77.7,98.7 61.9,104.5 30.5,24.3 84.8,-0.9 90.8,-4.8 				"/>
			</defs>
			<clipPath id="SVGID_6_">
				<use xlink:href="#SVGID_5_"  style="overflow:visible;"/>
			</clipPath>
			<g class="st3">
				<g>
					<path class="st0" d="M77.3,52.3c-0.4,0.2-0.8,0.4-1.1,0.5c-1,0.4-4.4,1.6-7.4,0.2c-1.5-0.7-2.6-1.9-3.1-3.6
						c-1-3.1,0.1-4.3,2-6.3c1.2-1.3,2.8-3,4.6-5.9c4.5-7.5,11.8-5.1,12.5-4.9c2.2,0.6,4,2.2,4.8,4.4s0.5,4.7-0.9,6.8
						C86,47.3,80.5,50.7,77.3,52.3z M77.5,33.8c-1.4,0.7-2.9,1.9-4.1,4c-1.8,3-3.5,4.8-4.7,6.1c-1.8,1.9-2.5,2.7-1.7,5
						c0.5,1.4,1.3,2.3,2.5,2.9c2,0.9,4.6,0.5,6.3-0.3c2.7-1.1,9.1-4.7,11.9-8.9c1.2-1.7,1.4-3.8,0.7-5.6c-0.7-1.8-2.2-3.1-4-3.6
						h-0.1C84,33.4,80.8,32.2,77.5,33.8z"/>
					<path class="st0" d="M76.4,50.6c-2.5,1.2-4.8,1.6-6.7,1.3c-2.8-0.5-3.9-2.3-4-2.4l1.1-0.7c0,0.1,0.9,1.5,3.1,1.8
						C72,51,75.6,50.5,81.3,46c5.7-4.6,6.8-7.5,6.6-9.2c-0.1-1.5-1.3-2.2-1.4-2.2l0.6-1.1c0.1,0,1.8,1,2.1,3.2
						C89.4,39.5,87,43,82.1,47C80.1,48.6,78.2,49.8,76.4,50.6z"/>
					<path class="st4" d="M72.2,49.4C71.3,49.8,70,49.9,69,49c-0.6-0.5-0.7-1.5-0.3-2.4c0.4-1,1.6-2,3.4-1.8
						c1.3,0.2,1.8,0.8,1.9,1.3c0.3,1.1-0.5,2.3-1,2.8C72.7,49.1,72.5,49.3,72.2,49.4z M70.7,46.2c-0.5,0.3-0.8,0.7-0.9,0.9
						c-0.2,0.5-0.2,0.9-0.1,0.9l0,0c0.9,0.7,1.9,0.3,2.3-0.1c0.4-0.3,0.8-1.1,0.7-1.5c-0.1-0.3-0.6-0.4-0.9-0.4
						C71.3,46,71,46.1,70.7,46.2z"/>
					<path class="st4" d="M73.5,44.7c0,0-1-0.2-1.8-0.6c-0.8-0.4-0.3-0.9,0.1-1.4c0.4-0.5,2.4-3.5,2.9-4.5s1.3-3.2,4.6-3.5
						c3.3-0.3,4,0.6,2.8,2C80.9,38.2,76.2,44.1,73.5,44.7z"/>
					<path class="st4" d="M76.6,43.8c0.6-0.3,4.9-4,6.5-6.1s2.7-3.7,3.4-1.2c0.7,2.5-3.1,6-5.3,7.6c-2.2,1.6-3.8,2.8-5,3.2
						c-1.2,0.4-1.5,0.4-1.7-0.7C74.3,45.7,74.7,44.9,76.6,43.8z"/>
				</g>
			</g>
		</g>
	</g>
	<path class="st0" d="M82.1,20.8v59.5v4.6v13.7h64.1V85v-4.6V20.8H82.1z M96.3,89.2l-4.1,4.2c-0.1,0.1-0.1,0.1-0.2,0.1
		s-0.2,0-0.2-0.1l-4.2-4.1c-0.6-0.5-0.9-1.3-0.9-2c0-0.8,0.3-1.5,0.8-2s1.3-0.9,2-0.9c0.8,0,1.5,0.3,2.1,0.8l0.3,0.3l0.3-0.3
		c0.5-0.6,1.3-0.9,2-0.9c0.8,0,1.5,0.3,2,0.8c0.6,0.5,0.9,1.3,0.9,2C97.1,87.9,96.8,88.7,96.3,89.2z M109,92.6
		c0.2,0.1,0.3,0.3,0.2,0.4c0,0.2-0.2,0.3-0.4,0.4c-0.1,0-0.2,0-0.4,0c-0.4,0-1-0.1-1.6-0.5c-0.7,0.4-1.4,0.5-2.2,0.5
		c-1.2,0-2.4-0.5-3.2-1.3c-0.9-0.9-1.3-2-1.3-3.2s0.5-2.4,1.3-3.2c0.9-0.9,2-1.3,3.2-1.3s2.4,0.5,3.2,1.3c1.7,1.7,1.8,4.4,0.3,6.2
		C108.4,92.1,108.7,92.4,109,92.6z M142.7,80.4h-57v-56h57V80.4z"/>
	<path class="st4" d="M114.2,77.5l-3.6-1.9l-4,0.7l-2.8-2.9l-4-0.6L98,69.2l-3.6-1.8l-0.6-4L91,60.6l0.7-4L89.8,53l1.9-3.6l-0.7-4
		l2.9-2.8l0.6-4l3.6-1.8l1.8-3.6l4-0.6l2.8-2.9l4,0.7l3.6-1.9l3.6,1.9l4-0.7l2.8,2.9l4,0.6l1.8,3.6l3.6,1.8l0.6,4l2.9,2.8l-0.7,4
		l1.9,3.6l-1.9,3.6l0.7,4l-2.9,2.8l-0.6,4l-3.6,1.8l-1.8,3.6l-4,0.6l-2.8,2.9l-4-0.7L114.2,77.5z M110.9,73.7l3.3,1.7l3.3-1.7
		l3.6,0.7l2.6-2.7l3.7-0.5l1.6-3.3l3.3-1.6l0.5-3.7l2.7-2.6l-0.7-3.6l1.7-3.3l-1.7-3.3l0.7-3.6l-2.7-2.6l-0.5-3.7l-3.3-1.6l-1.6-3.3
		l-3.7-0.5l-2.6-2.7l-3.6,0.7l-3.3-1.7l-3.3,1.7l-3.6-0.7l-2.6,2.7L101,35l-1.6,3.3L96.1,40l-0.5,3.7L93,46.2l0.7,3.6L92,53.1
		l1.7,3.3L93,60l2.7,2.6l0.5,3.7l3.3,1.6l1.6,3.3l3.7,0.5l2.6,2.7L110.9,73.7z"/>
	<line class="st5" x1="104.6" y1="46" x2="103.7" y2="47.1"/>
	<g>
		<path class="st6" d="M111.2,56.8c2.8-1.9,2.7-4.4,0.2-6.4c-2.5-2.1-4.8-3.6-5.9-4.1s-2.6-2.1-2.7-2.9c0-0.8-1.2-3-3-0.7
			c-1.8,2.2,0.2,2.4,1.3,2.4s1.4,0.8,2.1,1.6c0.7,0.8,1.6,3.6,1.1,4.7s-2.9,2-1.2,5.5c1.7,3.5,7.4,2.6,13.5,2.4c0,0,3.9-0.1,6.8-0.2
			c2.2-0.1,5.5-1.4,3.4-5.2c-1-1.9-3.5-5.5-7.6-6.6c-2.5-0.7-8.2-0.1-9.6,1.2"/>
		<path class="st7" d="M117,46.9c0,0-2.6-2.2-4.3-2.7c-1.7-0.5-2.7-1.5-2.7-1.5s-1-0.4-0.7-1.3c0.3-0.9-0.9-2.2-1.5-1.5
			c-0.6,0.6-1.7,1.3-2,2s0.8,2,1.9,1.4c0,0,0.4-0.5,1.4,1c1,1.4,1.6,2.5,1.6,3.7"/>
		<line class="st7" x1="110.8" y1="43.3" x2="109.5" y2="44.8"/>
		<g>
			
				<ellipse transform="matrix(-0.5811 -0.8138 0.8138 -0.5811 131.9025 169.5569)" class="st4" cx="109.6" cy="50.8" rx="0.5" ry="0.4"/>
			
				<ellipse transform="matrix(-0.5811 -0.8138 0.8138 -0.5811 133.0234 172.0555)" class="st4" cx="110.8" cy="51.8" rx="0.5" ry="0.4"/>
			
				<ellipse transform="matrix(-0.5811 -0.8138 0.8138 -0.5811 130.3705 172.2585)" class="st4" cx="109.5" cy="52.6" rx="0.5" ry="0.4"/>
			
				<ellipse transform="matrix(-0.2861 -0.9582 0.9582 -0.2861 91.5507 174.7997)" class="st4" cx="110.9" cy="53.3" rx="0.5" ry="0.4"/>
		</g>
	</g>
	<path class="st0" d="M128.7,57.1c1.2,0.7,1.8,1.4,1.8,2.1s-1,1.9-3.9,3c-3,1.2-7.1,1.8-11.5,1.8s-8.4-0.6-11.5-1.8
		c-2.9-1.1-3.9-2.3-3.9-3c0-0.5,0.8-1.4,1.9-2.1c-0.5-0.9-0.5-1.6-0.5-1.6c-0.5,0.2-0.7,0.4-0.7,0.4c-1.5,1-2.4,2.1-2.4,3.3
		c0,3.6,7.6,6.5,17,6.5s17-2.9,17-6.5c0-0.9-0.5-1.8-1.5-2.6c-0.3-0.2-0.9-0.7-1.7-1.1C129.1,55.5,129.4,56.1,128.7,57.1z"/>
</g>
</svg>
