<?xml version="1.0" encoding="utf-8"?>
<!-- Generator: Adobe Illustrator 19.0.1, SVG Export Plug-In . SVG Version: 6.00 Build 0)  -->
<svg version="1.1" id="Layer_1" xmlns="http://www.w3.org/2000/svg" xmlns:xlink="http://www.w3.org/1999/xlink" x="0px" y="0px"
	 viewBox="20 -20 150 150" style="enable-background:new 20 -20 150 150;" xml:space="preserve">
<style type="text/css">
	.st0{fill:none;stroke:#BE1622;stroke-width:2;stroke-miterlimit:10;}
	.st1{clip-path:url(#SVGID_2_);}
	.st2{fill:#F07880;}
	.st3{fill:#BE1622;}
</style>
<g id="_x30_5_x5F_rt">
	<path class="st0" d="M135,68.2c0,0-7.3,8-19.4,8.1c-4.5,0.1-10.4,1.4-12.5,7.6c-4,11.9-11.8,21-11.8,21"/>
	<path class="st0" d="M135,13.9c0-4.9-4-8.9-8.9-8.9H63.9C59,5,55,9,55,13.9V96c0,4.9,4,8.9,8.9,8.9h27.4c8.1,0,43.6-30,43.6-36.8
		V13.9H135z"/>
	<g>
		<g>
			<defs>
				<path id="SVGID_1_" d="M92.3,96c0,0,5.8-8.7,9.9-18.8c0.7-1.6,4-4.4,7.6-4.2c3.1,0.1,8.1-0.2,12.9-1.5l8.2-4.8L130.4,20h-58
					L59.2,44.5L59.9,71l9.5,20.4L92.3,96z"/>
			</defs>
			<clipPath id="SVGID_2_">
				<use xlink:href="#SVGID_1_"  style="overflow:visible;"/>
			</clipPath>
			<g class="st1">
				<path class="st2" d="M95,88.1l-4.9-2.6l-5.5,1l-3.8-4l-5.5-0.8l-2.4-5l-5-2.4l-0.8-5.5l-4-3.8l1-5.5l-2.6-4.9l2.6-4.9l-1-5.5
					l4-3.8l0.8-5.5l5-2.4l2.4-5l5.5-0.8l3.8-4l5.5,1L95,21l4.9,2.6l5.5-1l3.8,4l5.5,0.8l2.4,5l5,2.4l0.8,5.5l4,3.8l-1,5.5l2.6,4.9
					l-2.6,4.9l1,5.5l-4,3.8l-0.8,5.5l-5,2.4l-2.4,5l-5.5,0.8l-3.8,4l-5.5-1L95,88.1z M90.5,82.8l4.5,2.4l4.5-2.4l5,0.9L108,80l5-0.7
					l2.2-4.6l4.6-2.2l0.7-5l3.7-3.5l-0.9-5l2.4-4.5l-2.4-4.5l0.9-5l-3.7-3.5l-0.7-5l-4.6-2.2l-2.2-4.6l-5-0.7l-3.5-3.7l-5,0.9
					L95,23.9l-4.5,2.4l-5-0.9L82,29l-5,0.7l-2.2,4.6l-4.6,2.2l-0.7,5L65.8,45l0.9,5l-2.4,4.5l2.4,4.5l-0.9,5l3.7,3.5l0.7,5l4.6,2.2
					l2.2,4.6l5,0.7l3.5,3.7L90.5,82.8z"/>
				<path class="st3" d="M115.6,55.7c1.8,1.1,3.1,2.3,3.1,3.4s-1.6,3-6.1,4.7c-4.7,1.8-11,2.8-17.7,2.8c-6.7,0-13-1-17.7-2.8
					c-4.5-1.7-6.1-3.6-6.1-4.7c0-0.7,0.7-1.8,2.5-3c-0.6-1.9-0.1-2.8-0.1-2.8c-0.5,0.4-1,0.7-1,0.7c-2.4,1.5-3.8,3.2-3.8,5.1
					c0,5.5,11.8,10,26.3,10s26.3-4.5,26.3-10c0-1.4-0.8-2.8-2.3-4c-0.4-0.4-1.4-1.1-2.6-1.7C116.4,53.4,116.6,54.2,115.6,55.7z"/>
				<g>
					<g>
						<path class="st3" d="M89.2,63.9c-0.7,0-1.2,0-1.7,0c-1.5-0.1-6.4-0.6-9.3-4.1c-1.5-1.8-2-3.9-1.7-6.4c0.6-4.5,2.7-5.3,6.2-6.6
							c2.2-0.9,5.3-2,9.2-4.6c10-6.7,17.7,0.7,18.3,1.4c2.4,2.1,3.6,5.2,3.4,8.3c-0.3,3.2-2.1,6.1-5.1,7.9
							C103,63,94.1,63.9,89.2,63.9z M100.4,41.2c-2.2,0-4.8,0.6-7.5,2.5c-4.1,2.7-7.2,3.9-9.5,4.8c-3.4,1.3-4.7,1.8-5.1,5.2
							c-0.2,2,0.2,3.6,1.3,5c1.9,2.3,5.4,3.3,8,3.4c4,0.2,14.1-0.4,20-3.9c2.5-1.5,4-3.8,4.2-6.5c0.2-2.6-0.8-5.2-2.8-6.8v-0.1
							C108.8,44.6,105.5,41.2,100.4,41.2z"/>
						<path class="st3" d="M89.1,61.4c-3.8,0-6.9-0.8-9.1-2.4c-3.1-2.2-3.5-5.2-3.5-5.3l1.7-0.2c0,0.1,0.3,2.4,2.8,4.1
							c2.4,1.7,7.2,3.1,16.8,0.9c9.8-2.3,12.9-5.3,13.6-7.4c0.7-2-0.3-3.5-0.4-3.6l1.4-1.1c0.1,0.1,1.7,2.3,0.7,5.2
							c-1.3,3.7-6.4,6.6-14.9,8.6C94.8,61,91.8,61.4,89.1,61.4z"/>
						<path class="st2" d="M84.5,57.4c-1.4,0-3-0.6-3.8-2.4c-0.4-1,0-2.2,1.1-3.2c1.1-1,3.2-1.6,5.2-0.2c1.5,1,1.7,2.1,1.6,2.8
							c-0.2,1.6-2,2.5-2.9,2.8C85.4,57.3,85,57.4,84.5,57.4z M84.6,52.5c-0.8,0-1.4,0.4-1.6,0.6c-0.5,0.5-0.7,1-0.6,1.1l0,0
							c0.6,1.4,2.2,1.5,2.9,1.3c0.7-0.2,1.6-0.9,1.7-1.4c0.1-0.4-0.6-0.9-0.8-1.1C85.6,52.7,85,52.5,84.6,52.5z"/>
						<path class="st2" d="M89,52.3c0,0-1.1-0.8-1.8-1.8c-0.7-1,0.1-1.3,0.9-1.7c0.8-0.4,5.1-2.9,6.3-3.9c1.2-0.9,3.5-3.2,7.8-1.6
							c4.3,1.6,4.7,3.1,2.3,4.2S92.8,53.2,89,52.3z"/>
						<path class="st2" d="M93.4,53c0.9-0.1,8.4-2.1,11.7-3.7c3.2-1.7,5.6-3,5,0.6s-7.4,5.6-11.1,6.3c-3.7,0.7-6.4,1.2-8.2,1
							C89,57,88.6,56.7,89,55.3C89.4,54,90.4,53.3,93.4,53z"/>
					</g>
				</g>
			</g>
		</g>
	</g>
</g>
</svg>
