<?xml version="1.0" encoding="utf-8"?>
<!-- Generator: Adobe Illustrator 19.0.1, SVG Export Plug-In . SVG Version: 6.00 Build 0)  -->
<svg version="1.1" id="Layer_1" xmlns="http://www.w3.org/2000/svg" xmlns:xlink="http://www.w3.org/1999/xlink" x="0px" y="0px"
	 viewBox="10 -10 130 130" style="enable-background:new 10 -10 130 130;" xml:space="preserve">
<style type="text/css">
	.st0{fill:#BE1622;stroke:#BE1622;stroke-width:0.4336;stroke-miterlimit:10;}
	.st1{fill:none;stroke:#BE1622;stroke-width:3.2;stroke-linecap:round;stroke-linejoin:round;stroke-miterlimit:10;}
</style>
<g id="Layer_1_1_">
	<g>
		<g>
			<path class="st0" d="M82.6,46.5c-1-0.4-2.1-0.6-3.2-0.6c-1,0-2,0.2-3,0.6v-3.4c0-0.8-0.6-1.4-1.4-1.4s-1.4,0.6-1.4,1.4v3.4
				c-0.9-0.4-2-0.6-3-0.6c-1.1,0-2.1,0.2-3.2,0.6c-4.2,1.7-6.2,6.6-4.5,10.8l4.2,10.2c0.8,2,2.8,3.4,5,3.4c0.7,0,1.4-0.1,2.1-0.4
				c0.2-0.1,0.5-0.2,0.7-0.3c0.2,0.1,0.4,0.2,0.7,0.3c0.7,0.3,1.4,0.4,2.1,0.4c2.2,0,4.2-1.3,5-3.4l4.2-10.2
				C88.8,53.1,86.8,48.2,82.6,46.5L82.6,46.5z M84.5,56.2l-4.2,10.2c-0.4,1-1.4,1.6-2.5,1.6c-0.3,0-0.7-0.1-1-0.2s-0.6-0.3-0.8-0.5
				c-0.3-0.2-0.6-0.4-0.9-0.4s-0.7,0.1-0.9,0.4c-0.2,0.2-0.5,0.4-0.8,0.5s-0.7,0.2-1,0.2c-1.1,0-2.1-0.6-2.5-1.6l-4.2-10.2
				c-1.2-2.8,0.2-6,3-7.2c0.7-0.3,1.4-0.4,2.1-0.4c1.3,0,2.5,0.4,3.5,1.2c0.1,0.1,0.1,0.1,0.2,0.1l0,0c0.1,0,0.1,0.1,0.2,0.1l0,0
				c0.1,0,0.1,0,0.2,0.1l0,0c0.1,0,0.1,0,0.2,0s0.1,0,0.2,0l0,0c0.1,0,0.1,0,0.2-0.1l0,0c0.1,0,0.1-0.1,0.2-0.1l0,0
				c0.1,0,0.1-0.1,0.2-0.1c1-0.8,2.2-1.2,3.5-1.2c0.7,0,1.4,0.1,2.1,0.4C84.3,50.2,85.6,53.4,84.5,56.2L84.5,56.2z"/>
			<path class="st0" d="M80.9,54.3c0,0.8-0.6,1.4-1.4,1.4s-1.4-0.6-1.4-1.4c0-0.8,0.6-1.4,1.4-1.4S80.9,53.5,80.9,54.3L80.9,54.3z"
				/>
			<path class="st0" d="M100.2,40.6c-3.2-1.7-6.6-3-10.1-4c-0.1,0-0.2-0.1-0.2-0.1c-4.8-1.3-9.8-2-14.8-2c-5.1,0-10.1,0.7-14.8,2
				c-0.1,0-0.2,0-0.2,0.1c-3.5,1-6.9,2.3-10.1,4c-7.4,3.8-13.6,9.3-17.9,15.9c-0.3,0.5-0.3,1.1,0,1.5c4.3,6.5,10.5,12,17.9,15.9
				c3.2,1.7,6.6,3,10.1,4c0.1,0,0.1,0,0.2,0.1c4.8,1.3,9.8,2,14.9,2s10.1-0.7,14.9-2c0.1,0,0.1,0,0.2-0.1c3.5-1,6.9-2.3,10.1-4
				c7.4-3.8,13.6-9.3,17.9-15.9c0.3-0.5,0.3-1.1,0-1.5C113.8,49.9,107.6,44.4,100.2,40.6L100.2,40.6z M34.8,57.2
				c4.9-7,12-12.5,20.2-15.9c-3.6,4.5-5.6,10-5.6,15.9s2,11.5,5.6,15.9C46.8,69.7,39.7,64.2,34.8,57.2L34.8,57.2z M89,75.2
				c-4.5,1.2-9.2,1.9-14,1.9s-9.5-0.7-14-1.9c-5.6-4.4-8.8-10.9-8.8-18s3.2-13.6,8.8-18c4.5-1.2,9.2-1.9,14-1.9s9.5,0.7,14,1.9
				c5.6,4.4,8.8,10.9,8.8,18S94.6,70.8,89,75.2L89,75.2z M95,73.1c3.6-4.5,5.6-10,5.6-15.9s-2-11.5-5.6-15.9
				c8.3,3.4,15.4,8.9,20.2,15.9C110.4,64.2,103.3,69.7,95,73.1L95,73.1z"/>
			<path class="st0" d="M102.3,77.9c-8.2,4.3-17.7,6.5-27.3,6.5s-19-2.3-27.3-6.5c-0.7-0.4-1.5-0.1-1.9,0.6s-0.1,1.5,0.6,1.9
				c8.6,4.5,18.5,6.8,28.5,6.8s19.9-2.4,28.5-6.8c0.7-0.4,0.9-1.2,0.6-1.9C103.8,77.8,103,77.5,102.3,77.9L102.3,77.9z"/>
			<path class="st0" d="M33.1,46.9c0.4,0,0.7-0.1,1-0.4c3.9-4,8.5-7.4,13.6-10C55.9,32.2,65.4,30,75,30c8,0,16,1.6,23.2,4.6
				c0.7,0.3,1.5,0,1.8-0.7c0.3-0.7,0-1.5-0.7-1.8c-7.5-3.2-15.9-4.8-24.2-4.8c-10,0-19.9,2.4-28.5,6.8c-5.4,2.8-10.2,6.3-14.3,10.5
				c-0.5,0.5-0.5,1.4,0,2C32.5,46.8,32.8,46.9,33.1,46.9L33.1,46.9z"/>
			<path class="st0" d="M103.1,36.9c4.8,2.6,9.1,5.8,12.9,9.6c0.3,0.3,0.6,0.4,1,0.4c0.3,0,0.7-0.1,1-0.4c0.5-0.5,0.6-1.4,0-2
				c-3.9-4-8.5-7.4-13.5-10.1c-0.7-0.4-1.5-0.1-1.9,0.6S102.4,36.5,103.1,36.9L103.1,36.9z"/>
		</g>
		<path class="st1" d="M127,115H23c-4.4,0-8-3.6-8-8V3c0-4.4,3.6-8,8-8h104c4.4,0,8,3.6,8,8v104C135,111.5,131.5,115,127,115z"/>
	</g>
</g>
</svg>
