<?xml version="1.0" encoding="utf-8"?>
<!-- Generator: Adobe Illustrator 19.0.1, SVG Export Plug-In . SVG Version: 6.00 Build 0)  -->
<svg version="1.1" id="Layer_1" xmlns="http://www.w3.org/2000/svg" xmlns:xlink="http://www.w3.org/1999/xlink" x="0px" y="0px"
	 viewBox="10 -10 130 130" style="enable-background:new 10 -10 130 130;" xml:space="preserve">
<style type="text/css">
	.st0{fill:#BE1622;}
	.st1{fill:none;stroke:#BE1622;stroke-width:3.2;stroke-linecap:round;stroke-linejoin:round;stroke-miterlimit:10;}
	.st2{fill:none;stroke:#BE1622;stroke-width:3;stroke-linecap:round;stroke-linejoin:round;stroke-miterlimit:10;}
</style>
<g id="Layer_2">
	<g>
		<path class="st0" d="M73.9,54C80,54,85,49.1,85,42.9s-5-11.1-11.1-11.1s-11.1,5-11.1,11.1S67.8,54,73.9,54z"/>
		<path class="st1" d="M126.3,114.9h-104c-4.4,0-8-3.6-8-8V2.9c0-4.4,3.6-8,8-8h104c4.4,0,8,3.6,8,8v104
			C134.3,111.4,130.8,114.9,126.3,114.9z"/>
		<g>
			<path class="st0" d="M83.6,58H65.8C61,58,56,62.7,56,67.5v6.6c0,1.5,2.3,1.9,3.8,1.9h29.9c1.5,0,2.3-0.5,2.3-1.9v-6.6
				C92,62.7,88.4,58,83.6,58z"/>
			<g>
				<circle class="st1" cx="74.3" cy="54.4" r="35.6"/>
				<line class="st2" x1="73.5" y1="11" x2="73.5" y2="27"/>
				<line class="st2" x1="73.5" y1="82" x2="73.5" y2="99"/>
				<line class="st2" x1="30" y1="54.5" x2="47" y2="54.5"/>
				<line class="st2" x1="102" y1="54.5" x2="118" y2="54.5"/>
			</g>
		</g>
	</g>
</g>
</svg>
