<?xml version="1.0" encoding="utf-8"?>
<!-- Generator: Adobe Illustrator 19.0.1, SVG Export Plug-In . SVG Version: 6.00 Build 0)  -->
<svg version="1.1" id="Layer_1" xmlns="http://www.w3.org/2000/svg" xmlns:xlink="http://www.w3.org/1999/xlink" x="0px" y="0px"
	 viewBox="10 -10 130 130" style="enable-background:new 10 -10 130 130;" xml:space="preserve">
<style type="text/css">
	.st0{fill:none;stroke:#BE1622;stroke-width:3.2;stroke-linecap:round;stroke-linejoin:round;stroke-miterlimit:10;}
	.st1{fill:#BE1622;}
	.st2{fill:none;stroke:#BE1622;stroke-width:3;stroke-linecap:round;stroke-linejoin:round;stroke-miterlimit:10;}
</style>
<g id="Layer_3">
	<g>
		<path class="st0" d="M126.3,114.9h-104c-4.4,0-8-3.6-8-8V2.9c0-4.4,3.6-8,8-8h104c4.4,0,8,3.6,8,8v104
			C134.3,111.4,130.8,114.9,126.3,114.9z"/>
		<g>
			<g>
				<path class="st1" d="M72.2,66.5c-0.1-0.1-0.3-0.2-0.4-0.3c-0.5-0.4-0.5-1-0.1-1.5c0.5-0.5,0.4-0.6-0.1-0.9
					c-1.3-0.7-1.3-1.1,0-1.9c0.4-0.3,0.5-0.5,0.1-0.9c-0.3-0.3-0.3-0.7-0.3-1.1c0.1-1.1,0.1-2.3-0.4-3.3c-0.7-1.4-1.5-2.8-2.3-4.1
					c-1.3-2.2-2.5-4.4-3.1-6.9c-1.7-6.5,2.1-12.8,8.6-14.3c6.2-1.5,12.6,2.8,13.8,9c0.6,3.2-0.1,6.2-1.5,9c-0.9,1.8-2,3.5-3,5.3
					c-0.3,0.6-0.7,1.2-1,1.8c-0.6,1.2-0.7,2.5-0.5,3.8c0.1,0.5-0.2,0.7-0.5,0.7c-0.9,0.2-1.9,0.3-2.8,0.5c-0.4,0.1-0.7,0.1-1.1,0.1
					c1.3,0.2,2.6,0.4,3.9,0.6c0.3,0.1,0.7,0.2,1,0.4c0.4,0.2,0.4,0.6,0,0.8c-0.4,0.2-0.9,0.4-1.3,0.5c-1,0.2-2,0.3-2.9,0.4
					c0.7,0.1,1.5,0.2,2.3,0.3c0.3,0,0.5,0.1,0.7,0.2c0.3,0.2,0.7,0.4,0.7,0.6c0,0.3-0.3,0.7-0.5,1c-0.1,0.1-0.2,0.2-0.3,0.2
					C78.2,66.5,75.2,66.5,72.2,66.5z M77.2,47.2c-0.1,0.3-0.2,0.5-0.3,0.7c-0.7,1.8-1.5,3.6-2.2,5.4c-0.1,0.2-0.3,0.5,0.1,0.6
					c0.1,0,0.4-0.2,0.5-0.3c1-1.4,2.1-2.9,3.1-4.3c0.8-1.1,1.6-2.2,2.3-3.3c0.1-0.1,0.2-0.4,0.1-0.5s-0.3-0.2-0.5-0.2
					c-0.8,0-1.5,0-2.3,0c-0.2,0-0.5,0-0.8,0c0.1-0.3,0.2-0.4,0.3-0.6c1.1-1.9,2.2-3.8,3.3-5.7c0.3-0.6,0.2-0.8-0.5-0.8
					c-0.8,0-1.6,0-2.4,0c-0.4,0-0.6,0.1-0.7,0.5c-1.2,2.6-2.4,5.1-3.6,7.7c-0.3,0.6-0.2,0.7,0.5,0.7C75.2,47.2,76.1,47.2,77.2,47.2z
					"/>
				<path class="st1" d="M55.2,39.1c0.7-1.2,1.3-1.4,2.6-0.9c1.5,0.5,3,1,4.5,1.6c0.8,0.3,1.2,1,1.1,1.7c-0.1,0.7-0.6,1.4-1.4,1.4
					c-0.3,0-0.7,0-1-0.1c-1.5-0.5-2.9-1-4.4-1.5c-0.7-0.2-1.2-0.6-1.6-1.2C55.2,39.7,55.2,39.4,55.2,39.1z"/>
				<path class="st1" d="M67.3,22.5c0.5,0,1,0.3,1.3,0.9c0.8,1.6,1.6,3.2,2.3,4.8c0.4,0.9,0.1,1.8-0.8,2.2c-0.8,0.4-1.8,0.1-2.2-0.7
					c-0.8-1.6-1.6-3.2-2.3-4.9C65.2,23.8,66,22.6,67.3,22.5z"/>
				<path class="st1" d="M84,30.6c-1.3,0-2.2-1.2-1.7-2.3c0.8-1.7,1.6-3.3,2.4-5c0.4-0.8,1.4-1.1,2.2-0.7c0.8,0.4,1.2,1.3,0.8,2.1
					c-0.8,1.6-1.6,3.3-2.4,4.9C85,30.3,84.5,30.6,84,30.6z"/>
				<path class="st1" d="M98.2,39.6c0,0.7-0.4,1.3-1.1,1.6c-1.7,0.6-3.4,1.2-5,1.8c-0.9,0.3-1.8-0.1-2.1-1c-0.3-0.9,0.1-1.8,1.1-2.1
					c1.6-0.6,3.3-1.2,4.9-1.7C97.1,37.6,98.1,38.4,98.2,39.6z"/>
			</g>
			<path class="st2" d="M77.2,11.5c-5.1,0-10,1.1-14.3,3.2c-11.5,5.4-19.4,16.9-19.4,30.4v5.6l-6.9,13.5c-1.8,3.3-0.1,6.3,3.6,6.3
				h3.3v11.8c0,3.9,2.8,7,6.7,7l9.3-1.5v9.8c0,1.2,1.4,2,2.7,1.9l34.9-6.2c1.3-0.3,2.4-1.5,2.4-2.9V69.9c7-6.1,11.1-14.9,11.1-24.7
				C110.5,26.6,95.7,11.5,77.2,11.5z"/>
		</g>
	</g>
</g>
</svg>
