<?xml version="1.0" encoding="utf-8"?>
<!-- Generator: Adobe Illustrator 19.0.1, SVG Export Plug-In . SVG Version: 6.00 Build 0)  -->
<svg version="1.1" id="Layer_1" xmlns="http://www.w3.org/2000/svg" xmlns:xlink="http://www.w3.org/1999/xlink" x="0px" y="0px"
	 viewBox="10 -10 130 130" style="enable-background:new 10 -10 130 130;" xml:space="preserve">
<style type="text/css">
	.st0{fill:none;stroke:#BE1622;stroke-width:3.2;stroke-linecap:round;stroke-linejoin:round;stroke-miterlimit:10;}
	.st1{fill:#BE1622;}
</style>
<g id="Layer_4">
	<g>
		<path class="st0" d="M126.3,114.9h-104c-4.4,0-8-3.6-8-8V2.9c0-4.4,3.6-8,8-8h104c4.4,0,8,3.6,8,8v104
			C134.3,111.4,130.8,114.9,126.3,114.9z"/>
		<g>
			<path class="st1" d="M118.1,77.6L96.5,56.1c-0.5-0.5-1.4-0.5-1.9,0l-5.4,5.4l-1.9-1.9l14.2-14.2c0.5-0.5,0.5-1.4,0-1.9l-0.7-0.7
				l5.3-5.3c0.3-0.3,0.4-0.7,0.4-1.1l-0.5-6.3c-0.1-1-0.6-2.2-1.3-2.9l-2.5-2.5c-0.7-0.7-1.9-1.3-2.9-1.3l-6.5-0.6l0,0h-0.1
				c0,0,0,0-0.1,0h-0.1c0,0,0,0-0.1,0h-0.1c0,0,0,0-0.1,0h-0.1l0,0H92l0,0h-0.1l0,0c0,0-0.1,0-0.1,0.1l0,0L91.7,23l-5.3,5.3
				l-0.7-0.7c-0.5-0.5-1.4-0.5-1.9,0L69.8,42l-1.9-1.9l5.4-5.4c0.5-0.5,0.5-1.4,0-1.9L51.8,11.3c-0.5-0.5-1.4-0.5-1.9,0L37.2,24
				c-0.5,0.5-0.5,1.4,0,1.9l21.6,21.6c0.3,0.3,0.6,0.4,0.9,0.4c0.3,0,0.7-0.1,0.9-0.4l5.4-5.4l1.9,1.9L54.3,57.5
				c-0.5,0.5-0.5,1.4,0,1.9l4.7,4.7l-2.1,2.1c-4.6-3.3-10-5-15.7-5c-1.6,0-3.2,0.1-4.7,0.4c-0.5,0.1-0.9,0.4-1,0.9s0,1,0.3,1.3
				l7.1,7.1l-1.2,11.5c0,0.4,0.1,0.8,0.4,1.1l3.7,3.7c0.3,0.3,0.6,0.4,0.9,0.4h0.1l11.5-1.2l7.1,7.1c0.3,0.3,0.6,0.4,0.9,0.4
				c0.1,0,0.3,0,0.4-0.1c0.5-0.1,0.8-0.5,0.9-1c1.2-6.9-0.3-14-4.1-19.7l2.3-2.3l4.1,4.1c0.3,0.3,0.6,0.4,0.9,0.4s0.7-0.1,0.9-0.4
				l13.6-13.6l1.9,1.9L82,68.7c-0.5,0.5-0.5,1.4,0,1.9l21.6,21.6c0.3,0.3,0.6,0.4,0.9,0.4s0.7-0.1,0.9-0.4l12.7-12.7
				C118.6,79,118.6,78.2,118.1,77.6L118.1,77.6z M70.5,33.8l-2.3,2.3l-8.9-8.9l2.3-2.3L70.5,33.8z M40.1,24.9l2.3-2.3l6.1,6.1
				c0.3,0.3,0.6,0.4,0.9,0.4c0.3,0,0.7-0.1,0.9-0.4c0.5-0.5,0.5-1.4,0-1.9l-6.1-6.1l2.3-2.3l6.1,6.1c0.3,0.3,0.6,0.4,0.9,0.4
				c0.3,0,0.7-0.1,0.9-0.4c0.5-0.5,0.5-1.4,0-1.9l-6.1-6.1l2.3-2.3l8.9,8.9l-3.3,3.3L52,30.6l-3,3.2L40.1,24.9z M59.7,44.6l-8.9-8.9
				l2.3-2.3l8.9,8.9L59.7,44.6z M65.1,39.2L64,40.4l-8.9-8.9l2.3-2.3l8.9,8.9L65.1,39.2z M92.8,26l6,6c0.3,0.3,0.6,0.4,0.9,0.4
				s0.7-0.1,0.9-0.4c0.5-0.5,0.5-1.4,0-1.9l-4.4-4.4l2.8,0.2c0.3,0,1,0.3,1.2,0.6l2.5,2.5c0.2,0.2,0.5,0.9,0.6,1.2l0.5,5.8L99,41
				L88.4,30.4L92.8,26z M47.3,85l-2.9-2.9l0.9-8.8L56,84.1L47.3,85z M65.5,89.8L39.6,63.9c0.5,0,1.1-0.1,1.6-0.1
				c5.5,0,10.7,1.8,15,5.2l0,0c0.8,0.6,1.5,1.3,2.2,2C63.4,76,66,82.9,65.5,89.8L65.5,89.8z M62.1,71.1c-0.6-0.7-1.2-1.3-1.8-2
				c-0.4-0.4-0.8-0.8-1.3-1.2l1.9-1.9l3.1,3.1L62.1,71.1z M71,72.2L57.2,58.4L85,30.6l13.8,13.8L71,72.2z M84.8,69.7l2.3-2.3
				l6.1,6.1c0.3,0.3,0.6,0.4,0.9,0.4s0.7-0.1,0.9-0.4c0.5-0.5,0.5-1.4,0-1.9l-6-6.2l1.2-1.2l1.2-1.2l6.1,6.1
				c0.3,0.3,0.6,0.4,0.9,0.4s0.7-0.1,0.9-0.4c0.5-0.5,0.5-1.4,0-1.9l-6.1-6.1l2.3-2.3l8.9,8.9L93.7,78.6L84.8,69.7z M104.5,89.4
				l-8.9-8.9l2.3-2.3l8.9,8.9L104.5,89.4z M108.7,85.1l-8.9-8.9l2.3-2.3l8.9,8.9L108.7,85.1z M112.9,80.9L104,72l2.3-2.3l8.9,8.9
				L112.9,80.9z"/>
			<path class="st1" d="M40.2,85.4c-0.5-0.5-1.4-0.5-1.9,0s-0.5,1.4,0,1.9l3.8,3.8c0.3,0.3,0.6,0.4,0.9,0.4c0.3,0,0.7-0.1,0.9-0.4
				c0.5-0.5,0.5-1.4,0-1.9L40.2,85.4z"/>
			<path class="st1" d="M32.5,86c-0.5-0.5-1.4-0.5-1.9,0s-0.5,1.4,0,1.9l10.6,10.6c0.3,0.3,0.6,0.4,0.9,0.4s0.7-0.1,0.9-0.4
				c0.5-0.5,0.5-1.4,0-1.9L32.5,86z"/>
		</g>
	</g>
</g>
</svg>
