<?xml version="1.0" encoding="utf-8"?>
<!-- Generator: Adobe Illustrator 19.0.1, SVG Export Plug-In . SVG Version: 6.00 Build 0)  -->
<svg version="1.1" id="client_x5F_icon" xmlns="http://www.w3.org/2000/svg" xmlns:xlink="http://www.w3.org/1999/xlink" x="0px"
	 y="0px" viewBox="10 -10 130 130" style="enable-background:new 10 -10 130 130;" xml:space="preserve">
<style type="text/css">
	.st0{fill:none;stroke:#BE1622;stroke-width:3.2;stroke-linecap:round;stroke-linejoin:round;stroke-miterlimit:10;}
	.st1{fill:#BE1622;}
</style>
<path class="st0" d="M127,115H23c-4.4,0-8-3.6-8-8V3c0-4.4,3.6-8,8-8h104c4.4,0,8,3.6,8,8v104C135,111.5,131.5,115,127,115z"/>
<g>
	<polygon class="st1" points="93.4,30.3 93,30.3 89.4,33.4 89.4,39.5 93.2,36.3 96.2,38.8 96.2,32.7 	"/>
	<polygon class="st1" points="96.2,42.5 93.3,40 89.4,43.3 89.4,73 96.2,73 	"/>
	<path class="st1" d="M89.4,75v9.8H43.5V22.2h45.9v8.6l2.3-2c0.4-0.3,0.8-0.5,1.3-0.5h0.4c0.4,0,0.9,0.2,1.2,0.5l1.6,1.3V18.6
		c0-4.7-3.8-8.6-8.5-8.6H44.8c-4.7,0-8.6,3.9-8.5,8.6v72.7c0,4.7,3.8,8.6,8.5,8.6h42.9c4.7,0,8.5-3.8,8.5-8.6V75H89.4z M55.7,14.8
		h20.1v2.9H55.7V14.8z M70.1,96.1h-7.6v-7.7h7.6V96.1z"/>
</g>
<g>
	<polygon class="st1" points="93,30.3 69.1,50.6 72.1,54.2 93.2,36.3 114.3,54.2 117.3,50.6 93.4,30.3 	"/>
	<polygon class="st1" points="108.4,53 93.3,40 78,53 78,73 108.4,73 	"/>
</g>
<path class="st1" d="M70.3,27.5c1.1,0,2.1,0.4,2.8,1.2c0.7,0.7,1.2,1.7,1.2,2.8s-0.4,2.1-1.2,2.8L70.4,39c0,0-2.2-3.5-2.9-4.8
	c-0.7-0.7-1.1-1.7-1.1-2.8c0-1.1,0.4-2.1,1.2-2.8C68.2,27.9,69.2,27.5,70.3,27.5L70.3,27.5z M71.9,29.7c-0.4-0.4-1-0.7-1.7-0.7
	c-0.6,0-1.2,0.3-1.7,0.7c-0.4,0.4-0.7,1-0.7,1.7c0,0.6,0.3,1.2,0.7,1.7c0.4,0.4,1,0.7,1.7,0.7c0.6,0,1.2-0.3,1.7-0.7
	c0.4-0.4,0.7-1,0.7-1.7C72.6,30.8,72.4,30.2,71.9,29.7z"/>
<path class="st1" d="M61.3,47.2c1.1,0,2.1,0.4,2.8,1.2c0.7,0.7,1.2,1.7,1.2,2.8s-0.4,2.1-1.2,2.8l-2.7,4.8c0,0-2.2-3.5-2.9-4.8
	c-0.7-0.7-1.1-1.7-1.1-2.8s0.4-2.1,1.2-2.8C59.2,47.6,60.2,47.2,61.3,47.2L61.3,47.2z M63,49.5c-0.4-0.4-1-0.7-1.7-0.7
	c-0.6,0-1.2,0.3-1.7,0.7c-0.4,0.4-0.7,1-0.7,1.7s0.3,1.2,0.7,1.7c0.4,0.4,1,0.7,1.7,0.7c0.6,0,1.2-0.3,1.7-0.7
	c0.4-0.4,0.7-1,0.7-1.7S63.4,49.9,63,49.5z"/>
<path class="st1" d="M70,64.9c1.1,0,2.1,0.4,2.8,1.2c0.7,0.7,1.2,1.7,1.2,2.8c0,1.1-0.4,2.1-1.2,2.8l-2.7,4.8c0,0-2.2-3.5-2.9-4.8
	c-0.7-0.7-1.1-1.7-1.1-2.8c0-1.1,0.4-2.1,1.2-2.8C67.9,65.4,68.9,64.9,70,64.9L70,64.9z M71.7,67.2c-0.4-0.4-1-0.7-1.7-0.7
	c-0.6,0-1.2,0.3-1.7,0.7c-0.4,0.4-0.7,1-0.7,1.7c0,0.6,0.3,1.2,0.7,1.7c0.4,0.4,1,0.7,1.7,0.7c0.6,0,1.2-0.3,1.7-0.7
	c0.4-0.4,0.7-1,0.7-1.7C72.4,68.2,72.1,67.6,71.7,67.2z"/>
<path class="st1" d="M114.7,27.5c1.1,0,2.1,0.4,2.8,1.2c0.7,0.7,1.2,1.7,1.2,2.8s-0.4,2.1-1.1,2.8c-0.7,1.3-2.9,4.8-2.9,4.8
	l-2.7-4.8c-0.7-0.7-1.2-1.7-1.2-2.8c0-1.1,0.4-2.1,1.2-2.8C112.6,27.9,113.6,27.5,114.7,27.5L114.7,27.5z M112.3,31.4
	c0,0.6,0.3,1.2,0.7,1.7c0.4,0.4,1,0.7,1.7,0.7c0.6,0,1.2-0.3,1.7-0.7c0.4-0.4,0.7-1,0.7-1.7c0-0.6-0.3-1.2-0.7-1.7
	c-0.4-0.4-1-0.7-1.7-0.7c-0.6,0-1.2,0.3-1.7,0.7C112.6,30.2,112.3,30.8,112.3,31.4z"/>
<path class="st1" d="M125.4,47.2c1.1,0,2.1,0.4,2.8,1.2c0.7,0.7,1.2,1.7,1.2,2.8s-0.4,2.1-1.1,2.8c-0.7,1.3-2.9,4.8-2.9,4.8
	l-2.7-4.8c-0.7-0.7-1.2-1.7-1.2-2.8s0.4-2.1,1.2-2.8C123.3,47.6,124.3,47.2,125.4,47.2L125.4,47.2z M123,51.1c0,0.6,0.3,1.2,0.7,1.7
	c0.4,0.4,1,0.7,1.7,0.7c0.6,0,1.2-0.3,1.7-0.7c0.4-0.4,0.7-1,0.7-1.7s-0.3-1.2-0.7-1.7c-0.4-0.4-1-0.7-1.7-0.7
	c-0.6,0-1.2,0.3-1.7,0.7C123.3,49.9,123,50.5,123,51.1z"/>
<path class="st1" d="M114.9,64.9c1.1,0,2.1,0.4,2.8,1.2c0.7,0.7,1.2,1.7,1.2,2.8c0,1.1-0.4,2.1-1.1,2.8c-0.7,1.3-2.9,4.8-2.9,4.8
	l-2.7-4.8c-0.7-0.7-1.2-1.7-1.2-2.8c0-1.1,0.4-2.1,1.2-2.8C112.8,65.4,113.8,64.9,114.9,64.9L114.9,64.9z M112.6,68.9
	c0,0.6,0.3,1.2,0.7,1.7c0.4,0.4,1,0.7,1.7,0.7c0.6,0,1.2-0.3,1.7-0.7c0.4-0.4,0.7-1,0.7-1.7c0-0.6-0.3-1.2-0.7-1.7
	c-0.4-0.4-1-0.7-1.7-0.7c-0.6,0-1.2,0.3-1.7,0.7C112.8,67.6,112.6,68.2,112.6,68.9z"/>
</svg>
