<?xml version="1.0" encoding="utf-8"?>
<!-- Generator: Adobe Illustrator 19.0.1, SVG Export Plug-In . SVG Version: 6.00 Build 0)  -->
<svg version="1.1" id="Layer_1" xmlns="http://www.w3.org/2000/svg" xmlns:xlink="http://www.w3.org/1999/xlink" x="0px" y="0px"
	 viewBox="10 -10 130 130" style="enable-background:new 10 -10 130 130;" xml:space="preserve">
<style type="text/css">
	.st0{fill:#BE1622;}
	.st1{fill:none;stroke:#BE1622;stroke-width:3.2;stroke-linecap:round;stroke-linejoin:round;stroke-miterlimit:10;}
</style>
<g>
	<path class="st0" d="M95.3,81.3c-0.6,0.6-1.3,0.9-2.1,0.9c-0.7,0-1.5-0.3-2.1-0.9l-1.7-1.7v5.2H43.5V22.2h45.9v2.7
		c0.8-0.1,1.6-0.2,2.4-0.2c1.5,0,3,0.2,4.4,0.5v-6.6c0-4.7-3.8-8.6-8.5-8.6H44.8c-4.7,0-8.6,3.9-8.5,8.6v72.7c0,4.7,3.8,8.6,8.5,8.6
		h42.9c4.7,0,8.5-3.8,8.5-8.6V80.4L95.3,81.3z M55.7,14.8h20.1v2.9H55.7V14.8z M70.1,96.1h-7.6v-7.7h7.6V96.1z"/>
</g>
<g>
	<polygon class="st0" points="106.1,66.4 99.7,66.4 99.7,53.6 86.8,53.6 86.8,66.4 80.4,66.4 93.2,79.2 	"/>
	<path class="st0" d="M110.5,62.2c7-0.5,12.5-5.5,12.5-11.6c0-6.4-6-11.6-13.5-11.6c-1.5,0-2.9,0.2-4.2,0.6c0-6.6-6-11.9-13.5-11.9
		s-13.5,5.4-13.6,11.9c0,0.1,0,0.1,0,0.2c-5,1.7-8.6,5.9-8.6,10.8c0,6.1,5.5,11.1,12.5,11.6h0.5V49.4h21.1v12.8H110.5z"/>
</g>
<path class="st1" d="M127,115H23c-4.4,0-8-3.6-8-8V3c0-4.4,3.6-8,8-8h104c4.4,0,8,3.6,8,8v104C135,111.5,131.5,115,127,115z"/>
</svg>
