<svg id="圖層_1" data-name="圖層 1" xmlns="http://www.w3.org/2000/svg" xmlns:xlink="http://www.w3.org/1999/xlink" viewBox="0 0 300 300"><defs><style>.cls-1{fill:#ff3548;}.cls-2{fill:url(#未命名漸層_14);}</style><linearGradient id="未命名漸層_14" x1="227.81" y1="86.86" x2="226.98" y2="252.67" gradientUnits="userSpaceOnUse"><stop offset="0" stop-color="#ffee71"/><stop offset="1" stop-color="#ff3548"/></linearGradient></defs><title>time_loop</title><path class="cls-1" d="M184.25,28.57A142,142,0,0,1,284.66,271,142,142,0,0,1,83.84,70.16,141.07,141.07,0,0,1,184.25,28.57m0-8a150,150,0,1,0,150,150,150,150,0,0,0-150-150Z" transform="translate(-34.25 -20.57)"/><path class="cls-2" d="M184.51,258.15v-5.56A80.72,80.72,0,0,0,265.13,172c0-44.46-36.17-86.19-80.63-86.19h0a86.19,86.19,0,1,1,0,172.38Z" transform="translate(-34.25 -20.57)"/><rect class="cls-1" x="148.61" y="12.34" width="2.78" height="16.69"/><rect class="cls-1" x="117.51" y="50.42" width="2.78" height="16.69" transform="translate(-47.7 46.75) rotate(-30)"/><rect class="cls-1" x="69.67" y="98.26" width="2.78" height="16.69" transform="translate(-91.05 94.27) rotate(-60)"/><rect class="cls-1" x="52.16" y="163.62" width="2.78" height="16.69" transform="translate(-152.66 204.94) rotate(-90)"/><rect class="cls-1" x="69.67" y="228.97" width="2.78" height="16.69" transform="translate(-133.18 396.93) rotate(-120)"/><rect class="cls-1" x="117.51" y="276.81" width="2.78" height="16.69" transform="translate(45.04 570.98) rotate(-150)"/><rect class="cls-1" x="182.86" y="294.32" width="2.78" height="16.69" transform="translate(334.25 584.76) rotate(-180)"/><rect class="cls-1" x="248.21" y="276.81" width="2.78" height="16.69" transform="translate(574.09 386.73) rotate(150)"/><rect class="cls-1" x="296.05" y="228.97" width="2.78" height="16.69" transform="translate(617.43 77.8) rotate(120)"/><rect class="cls-1" x="313.56" y="163.62" width="2.78" height="16.69" transform="translate(452.66 -163.56) rotate(90)"/><rect class="cls-1" x="296.05" y="98.26" width="2.78" height="16.69" transform="translate(206.8 -224.86) rotate(60)"/><rect class="cls-1" x="248.21" y="50.42" width="2.78" height="16.69" transform="translate(28.57 -137.5) rotate(30)"/><rect class="cls-1" x="169.46" y="33.65" width="1.39" height="8.34" transform="translate(-37.27 -2.58) rotate(-6)"/><rect class="cls-1" x="155.51" y="35.86" width="1.39" height="8.34" transform="translate(-39.16 12.78) rotate(-12)"/><rect class="cls-1" x="141.88" y="39.51" width="1.39" height="8.34" transform="translate(-40.77 25.63) rotate(-18)"/><rect class="cls-1" x="128.7" y="44.57" width="1.39" height="8.34" transform="translate(-42.89 36.27) rotate(-24)"/><rect class="cls-1" x="104.28" y="58.67" width="1.39" height="8.34" transform="translate(-51.14 53.14) rotate(-36)"/><rect class="cls-1" x="93.31" y="67.56" width="1.39" height="8.34" transform="translate(-58.1 60.75) rotate(-42)"/><rect class="cls-1" x="83.32" y="77.54" width="1.39" height="8.34" transform="translate(-67.17 68.91) rotate(-48)"/><rect class="cls-1" x="74.44" y="88.51" width="1.39" height="8.34" transform="translate(-78.26 78.42) rotate(-54)"/><rect class="cls-1" x="60.34" y="112.93" width="1.39" height="8.34" transform="translate(-105.02 104.66) rotate(-66)"/><rect class="cls-1" x="55.28" y="126.11" width="1.39" height="8.34" transform="translate(-119.47 122.69) rotate(-72)"/><rect class="cls-1" x="51.63" y="139.75" width="1.39" height="8.34" transform="matrix(0.21, -0.98, 0.98, 0.21, -133.58, 144.61)"/><rect class="cls-1" x="49.42" y="153.69" width="1.39" height="8.34" transform="translate(-146.37 170.63) rotate(-84)"/><rect class="cls-1" x="49.42" y="181.89" width="1.39" height="8.34" transform="translate(-163.93 234.78) rotate(-96)"/><rect class="cls-1" x="51.63" y="195.83" width="1.39" height="8.34" transform="translate(-166.68 272.19) rotate(-102)"/><rect class="cls-1" x="55.28" y="209.47" width="1.39" height="8.34" transform="translate(-164.16 312.32) rotate(-108)"/><rect class="cls-1" x="60.34" y="222.65" width="1.39" height="8.34" transform="translate(-155.6 354.26) rotate(-114)"/><rect class="cls-1" x="74.44" y="247.06" width="1.39" height="8.34" transform="translate(-118.21 439.13) rotate(-126)"/><rect class="cls-1" x="83.32" y="258.04" width="1.39" height="8.34" transform="translate(-88.87 479.53) rotate(-132)"/><rect class="cls-1" x="93.31" y="268.02" width="1.39" height="8.34" transform="translate(-52.52 516.8) rotate(-138)"/><rect class="cls-1" x="104.28" y="276.9" width="1.39" height="8.34" transform="matrix(-0.81, -0.59, 0.59, -0.81, -9.56, 549.6)"/><rect class="cls-1" x="128.7" y="291" width="1.39" height="8.34" transform="translate(93.29 596.89) rotate(-156)"/><rect class="cls-1" x="141.88" y="296.06" width="1.39" height="8.34" transform="translate(151.14 609.26) rotate(-162)"/><rect class="cls-1" x="155.51" y="299.71" width="1.39" height="8.34" transform="translate(211.57 613.04) rotate(-168)"/><rect class="cls-1" x="169.46" y="301.92" width="1.39" height="8.34" transform="translate(273.13 607.73) rotate(-174)"/><rect class="cls-1" x="197.65" y="301.92" width="1.39" height="8.34" transform="translate(393.36 569.21) rotate(174)"/><rect class="cls-1" x="211.6" y="299.71" width="1.39" height="8.34" transform="translate(448.88 536.42) rotate(168)"/><rect class="cls-1" x="225.23" y="296.06" width="1.39" height="8.34" transform="translate(499.33 495.39) rotate(162)"/><rect class="cls-1" x="238.41" y="291" width="1.39" height="8.34" transform="translate(543.35 447) rotate(156)"/><rect class="cls-1" x="262.83" y="276.9" width="1.39" height="8.34" transform="translate(607.69 333) rotate(144)"/><rect class="cls-1" x="273.8" y="268.02" width="1.39" height="8.34" transform="translate(626.37 270.22) rotate(138)"/><rect class="cls-1" x="283.79" y="258.04" width="1.39" height="8.34" transform="translate(635.44 205.68) rotate(132)"/><rect class="cls-1" x="292.67" y="247.06" width="1.39" height="8.34" transform="translate(634.81 141) rotate(126)"/><rect class="cls-1" x="306.77" y="222.65" width="1.39" height="8.34" transform="translate(605.48 17.62) rotate(114)"/><rect class="cls-1" x="311.83" y="209.47" width="1.39" height="8.34" transform="translate(578.03 -38.14) rotate(108)"/><rect class="cls-1" x="315.48" y="195.83" width="1.39" height="8.34" transform="translate(543.29 -88.25) rotate(102)"/><rect class="cls-1" x="317.69" y="181.89" width="1.39" height="8.34" transform="translate(502.45 -131.7) rotate(96)"/><rect class="cls-1" x="317.69" y="153.69" width="1.39" height="8.34" transform="translate(407.85 -195.85) rotate(84)"/><rect class="cls-1" x="315.48" y="139.75" width="1.39" height="8.34" transform="translate(356.96 -215.84) rotate(78)"/><rect class="cls-1" x="311.83" y="126.11" width="1.39" height="8.34" transform="translate(305.6 -227.77) rotate(72)"/><rect class="cls-1" x="306.77" y="112.93" width="1.39" height="8.34" transform="translate(255.13 -231.98) rotate(66)"/><rect class="cls-1" x="292.67" y="88.51" width="1.39" height="8.34" transform="translate(161.66 -219.7) rotate(54)"/><rect class="cls-1" x="283.79" y="77.54" width="1.39" height="8.34" transform="translate(120.6 -204.94) rotate(48)"/><rect class="cls-1" x="273.8" y="67.56" width="1.39" height="8.34" transform="translate(84.25 -185.82) rotate(42)"/><rect class="cls-1" x="262.83" y="58.67" width="1.39" height="8.34" transform="translate(53.02 -163.46) rotate(36)"/><rect class="cls-1" x="238.41" y="44.57" width="1.39" height="8.34" transform="translate(6.25 -113.61) rotate(24)"/><rect class="cls-1" x="225.23" y="39.51" width="1.39" height="8.34" transform="translate(-9.69 -88.25) rotate(18)"/><rect class="cls-1" x="211.6" y="35.86" width="1.39" height="8.34" transform="translate(-21.29 -63.83) rotate(12)"/><rect class="cls-1" x="197.65" y="33.65" width="1.39" height="8.34" transform="translate(-29.21 -41.09) rotate(6)"/><polygon class="cls-1" points="137.51 234.85 151.39 222.77 151.39 246.94 137.51 234.85"/></svg>