<?xml version="1.0" standalone="no"?>
<!DOCTYPE svg PUBLIC "-//W3C//DTD SVG 1.1//EN" "http://www.w3.org/Graphics/SVG/1.1/DTD/svg11.dtd" >
<svg xmlns="http://www.w3.org/2000/svg" xmlns:xlink="http://www.w3.org/1999/xlink" version="1.1">
<metadata>
Created by FontForge 20150804 at Mon Jul 25 03:58:36 2016
 By cloudconvert
</metadata>
<defs>
<font id="MHeiHK-Light-Roman" horiz-adv-x="1000" vert-adv-y="1000" >
  <font-face 
    font-family="MHeiHK-Light-Roman"
    font-weight="200"
    font-stretch="normal"
    units-per-em="1000"
    panose-1="2 0 3 3 0 0 0 0 0 0"
    ascent="800"
    descent="-200"
    x-height="518"
    cap-height="716"
    bbox="-29 -210.167 974 877"
    underline-thickness="50"
    underline-position="-150"
    unicode-range="U+0020-2F9BC"
  />
<missing-glyph 
 />
    <glyph glyph-name=".notdef" 
 />
    <glyph glyph-name=".null" horiz-adv-x="0" vert-adv-y="0" 
 />
    <glyph glyph-name="nonmarkingreturn" horiz-adv-x="333" 
 />
    <glyph glyph-name="uni00A0" unicode=" " horiz-adv-x="278" 
 />
    <glyph glyph-name="exclam" unicode="!" horiz-adv-x="333" 
d="M129 716h74v-161l-17 -378h-40l-17 378v161zM124 95h85v-95h-85v95z" />
    <glyph glyph-name="quotedbl" unicode="&#x22;" horiz-adv-x="278" 
d="M37 716h72v-117l-13 -131h-44l-15 131v117zM169 716h72v-117l-13 -131h-44l-15 131v117z" />
    <glyph glyph-name="numbersign" unicode="#" horiz-adv-x="556" 
d="M209 698h46l-42 -204h189l44 204h46l-42 -204h81v-45h-90l-39 -194h129v-45h-141l-44 -203h-44l44 203h-192l-44 -203h-44l44 203h-85v45h93l40 194h-133v45h142zM394 449h-191l-40 -194h191z" />
    <glyph glyph-name="dollar" unicode="$" horiz-adv-x="556" 
d="M485 558l-62 -9q-8 37 -23 63t-34 39t-35 18.5t-35 8.5v-282q38 -11 58.5 -18.5t54 -24t50.5 -35.5t31 -50.5t14 -71.5q0 -58 -27 -105.5t-69 -71.5q-41 -24 -112 -31v-89h-37v89q-38 1 -70.5 11t-53.5 23.5t-38 34t-26.5 37t-16.5 39.5t-9 34t-5 27l60 8l8.5 -34
t15.5 -39t27.5 -41.5t44 -31.5t63.5 -18v306l-22 6q-29 8 -48 14.5t-46.5 21.5t-44 33t-29 48.5t-12.5 69.5q0 19 3 37t15 46t32 49t59.5 38t92.5 21v43h37v-43q33 -3 58.5 -10.5t52 -25t46.5 -51.5t32 -83zM259 407v271q-40 -3 -69 -17.5t-42.5 -30.5t-21 -38t-8.5 -32
t-1 -21q0 -28 9.5 -49.5t22 -34t35 -23t36.5 -15t39 -10.5zM296 334v-296q40 6 69.5 21.5t44 32.5t23 39t10 34.5t1.5 24.5q0 29 -9 51.5t-20.5 36t-35 25.5t-38.5 17t-45 14z" />
    <glyph glyph-name="percent" unicode="%" horiz-adv-x="889" 
d="M771 162q0 61 -21 103t-72 42q-92 0 -92 -145q0 -37 7 -67t28.5 -54t56.5 -24t57 24t29 54t7 67zM628 728h51l-418 -754h-51zM303 540q0 61 -21 103t-72 42q-92 0 -92 -145q0 -37 7 -67t28.5 -54t56.5 -24t57 24t29 54t7 67zM825 162q0 -92 -41.5 -140t-105.5 -48
t-105 48t-41 140t41 140t105 48t105.5 -48t41.5 -140zM357 540q0 -92 -41.5 -140t-105.5 -48t-105 48t-41 140t41 140t105 48t105.5 -48t41.5 -140z" />
    <glyph glyph-name="ampersand" unicode="&#x26;" horiz-adv-x="667" 
d="M529 332l62 -13q-32 -94 -71 -162q4 -6 15 -17q49 -52 103 -99l-42 -53q-57 45 -114 111q-16 -22 -29 -36t-37.5 -34t-57.5 -30.5t-74 -10.5q-103 0 -165.5 63.5t-62.5 145.5q0 41 14 74t43 59t51 41t60 36q-79 102 -79 159q0 61 44.5 111.5t120.5 50.5q77 0 118.5 -48.5
t41.5 -107.5q0 -99 -154 -177q6 -9 14 -17q38 -48 144 -172q24 45 55 126zM257 362q-68 -38 -101.5 -71t-33.5 -83q0 -62 45.5 -113t111.5 -51q90 0 159 102q-28 29 -91 104t-90 112zM281 440q59 31 91.5 61t32.5 73q0 42 -27.5 70t-66.5 28q-42 0 -71.5 -29t-29.5 -68
q0 -27 13.5 -51.5t45.5 -67.5q11 -13 12 -16z" />
    <glyph glyph-name="quotesingle" unicode="'" horiz-adv-x="222" 
d="M75 716h72v-117l-13 -131h-44l-15 131v117z" />
    <glyph glyph-name="parenleft" unicode="(" horiz-adv-x="333" 
d="M246 728h44q-150 -237 -150 -477t153 -461h-47q-170 231 -170 465q0 116 38 227t132 246z" />
    <glyph glyph-name="parenright" unicode=")" horiz-adv-x="333" 
d="M87 -210h-44q150 237 150 477t-153 461h47q170 -231 170 -465q0 -116 -38 -227t-132 -246z" />
    <glyph glyph-name="asterisk" unicode="*" horiz-adv-x="389" 
d="M166 728h56l-4 -67l-5 -66l59 27l60 24l17 -51l-62 -17l-61 -15l41 -50l43 -50l-43 -32l-37 54l-35 57l-34 -57l-34 -54l-44 32l40 50l43 50l-64 15l-62 17l18 51l59 -24l60 -27l-5 66z" />
    <glyph glyph-name="plus" unicode="+" horiz-adv-x="660" 
d="M307 614h46v-239h239v-46h-239v-239h-46v239h-239v46h239v239z" />
    <glyph glyph-name="comma" unicode="," horiz-adv-x="278" 
d="M97 95h85v-95q0 -43 -13 -74t-51 -59l-26 35q27 21 35 39t9 59h-39v95z" />
    <glyph glyph-name="hyphen" unicode="-" horiz-adv-x="333" 
d="M36 290h261v-63h-261v63z" />
    <glyph glyph-name="period" unicode="." horiz-adv-x="278" 
d="M96 95h86v-95h-86v95z" />
    <glyph glyph-name="slash" unicode="/" horiz-adv-x="278" 
d="M232 716h46l-231 -734h-47z" />
    <glyph glyph-name="zero" unicode="0" horiz-adv-x="556" 
d="M504 351q0 -35 -1 -62t-6 -66.5t-14 -69.5t-26 -62.5t-40 -54t-59 -35t-80 -13.5q-227 0 -227 350q0 94 11 159t23.5 91.5t33.5 53.5q57 74 159 74q45 0 81.5 -14.5t59.5 -36.5t40 -56.5t25.5 -64.5t13 -70t5.5 -65t1 -58zM440 352q0 148 -31 222q-39 92 -131 92
q-102 0 -140 -110q-23 -69 -23 -209q0 -99 9.5 -148.5t29.5 -88.5q37 -72 126 -72q94 0 132 102q28 73 28 212z" />
    <glyph glyph-name="one" unicode="1" horiz-adv-x="556" 
d="M316 716h41v-716h-60v598q-79 -75 -182 -115v54q97 53 137 92t64 87z" />
    <glyph glyph-name="two" unicode="2" horiz-adv-x="556" 
d="M500 0h-462q9 74 53 130.5t149 137.5q114 89 154.5 137.5t40.5 110.5q0 60 -40.5 105t-115.5 45q-47 0 -80 -17t-49 -46.5t-22 -48t-10 -44.5l-64 8q7 60 33 102.5t63 61.5t68.5 26.5t63.5 7.5q100 0 159 -57.5t59 -140.5q0 -35 -10.5 -66.5t-25.5 -55.5t-48.5 -56
t-60.5 -53.5t-82 -63.5q-53 -41 -86.5 -74t-43.5 -48.5t-25 -42.5h382v-58z" />
    <glyph glyph-name="three" unicode="3" horiz-adv-x="556" 
d="M50 181l59 9q5 -21 8.5 -32.5t16 -37.5t28.5 -41t45 -28t66 -13q78 0 122 51.5t44 118.5t-43 108t-115 41q-24 0 -64 -9l7 54q66 0 102 16q81 37 81 120q0 56 -38.5 92t-96.5 36q-116 0 -152 -141l-61 11q44 180 212 180q84 0 142 -51.5t58 -130.5q0 -102 -105 -149v-2
q140 -28 140 -173q0 -98 -64.5 -160t-168.5 -62q-52 0 -92.5 16t-62 35.5t-38 51.5t-21 48.5t-9.5 41.5z" />
    <glyph glyph-name="four" unicode="4" horiz-adv-x="556" 
d="M351 178h-331v55l343 483h48v-484h98v-54h-98v-178h-60v178zM79 232h272v384h-2z" />
    <glyph glyph-name="five" unicode="5" horiz-adv-x="556" 
d="M134 706h344v-54h-299l-45 -246q81 55 157 55q93 0 156 -66t63 -160q0 -59 -25 -113.5t-82 -94t-135 -39.5q-171 0 -217 189l62 7q31 -146 165 -146q74 0 121 55.5t47 135.5q0 78 -46 128t-118 50q-39 0 -74.5 -15t-51 -27.5t-39.5 -36.5l-51 7z" />
    <glyph glyph-name="six" unicode="6" horiz-adv-x="556" 
d="M492 551l-61 -7q-5 20 -11 35.5t-20.5 38t-40.5 35.5t-62 13q-102 0 -154 -110q-25 -54 -33 -204l2 -2q74 102 188 102q94 0 151 -64t57 -157q0 -97 -59.5 -170t-164.5 -73q-59 0 -103 24.5t-70 59.5q-31 43 -48 100t-17 161q0 26 0.5 45.5t5.5 62.5t14 75.5t27.5 72
t44.5 65.5t67.5 44t93.5 18q45 0 79.5 -13.5t53.5 -30.5t33 -44.5t18 -41.5t9 -35zM444 224q0 88 -48 131t-107 43q-62 0 -114.5 -43.5t-52.5 -123.5q0 -76 46 -134.5t118 -58.5q69 0 113.5 55t44.5 131z" />
    <glyph glyph-name="seven" unicode="7" horiz-adv-x="556" 
d="M56 706h452v-40q-46 -52 -80.5 -100.5t-81 -132t-77 -194.5t-40.5 -239h-66q11 171 64 311t183 313l21 28h-375v54z" />
    <glyph glyph-name="eight" unicode="8" horiz-adv-x="556" 
d="M378 385q18 -7 29.5 -11.5t33 -19t34.5 -32t23.5 -48t10.5 -68.5q0 -94 -64 -156t-167 -62t-167 62t-64 156q0 38 10.5 68.5t23.5 48t34.5 32t33 19t29.5 11.5q-13 6 -22 10.5t-26 17.5t-27 27.5t-18.5 38.5t-8.5 53q0 76 56 130t146 54t146 -54t56 -130q0 -29 -8.5 -53
t-18.5 -38.5t-27 -27.5t-26 -17.5t-22 -10.5zM277 357q-77 0 -121.5 -42.5t-44.5 -114.5q0 -76 47 -119t119 -43q71 0 119.5 42t48.5 120q0 72 -45 114.5t-123 42.5zM278 666q-68 0 -104 -42t-36 -93t38 -87.5t102 -36.5q63 0 101.5 36.5t38.5 87.5t-36 93t-104 42z" />
    <glyph glyph-name="nine" unicode="9" horiz-adv-x="556" 
d="M64 153l61 7q5 -20 11 -35.5t20.5 -38t40.5 -35.5t62 -13q102 0 154 110q25 54 33 204l-2 2q-74 -102 -188 -102q-94 0 -151 64t-57 157q0 97 59.5 170t164.5 73q59 0 103 -24.5t70 -59.5q31 -43 48 -100t17 -161q0 -26 -0.5 -45.5t-5.5 -62.5t-14 -75.5t-27.5 -72
t-44.5 -65.5t-67.5 -44t-93.5 -18q-45 0 -79.5 13.5t-53.5 30.5t-33 44.5t-18 41.5t-9 35zM112 480q0 -88 48 -131t107 -43q62 0 114.5 43.5t52.5 123.5q0 76 -46 134.5t-118 58.5q-69 0 -113.5 -55t-44.5 -131z" />
    <glyph glyph-name="colon" unicode=":" horiz-adv-x="278" 
d="M97 95h85v-95h-85v95zM97 518h85v-95h-85v95z" />
    <glyph glyph-name="semicolon" unicode=";" horiz-adv-x="278" 
d="M97 95h85v-95q0 -43 -13 -74t-51 -59l-26 35q27 21 35 39t9 59h-39v95zM97 518h85v-95h-85v95z" />
    <glyph glyph-name="less" unicode="&#x3c;" horiz-adv-x="660" 
d="M592 109l-524 220v41l524 222v-49l-464 -193l464 -192v-49z" />
    <glyph glyph-name="equal" unicode="=" horiz-adv-x="660" 
d="M68 492h524v-46h-524v46zM68 254h524v-46h-524v46z" />
    <glyph glyph-name="greater" unicode="&#x3e;" horiz-adv-x="660" 
d="M68 592l524 -221v-40l-524 -222v49l464 193l-464 192v49z" />
    <glyph glyph-name="question" unicode="?" horiz-adv-x="500" 
d="M273 177h-62q-2 77 14 119t80 100q48 43 67.5 72.5t19.5 68.5q0 56 -40 95.5t-97 39.5q-31 0 -56.5 -11.5t-39.5 -26t-25.5 -38.5t-15.5 -37t-9 -33l-66 11q42 191 218 191q54 0 95 -19t62.5 -49t31.5 -60.5t10 -60.5q0 -48 -23 -89.5t-80 -94.5q-55 -51 -69.5 -81.5
t-14.5 -96.5zM204 94h84v-94h-84v94z" />
    <glyph glyph-name="at" unicode="@" horiz-adv-x="800" 
d="M558 530h61l-83 -392l-2 -14q-1 -6 -2 -11.5t-1.5 -8.5t-0.5 -5q0 -20 24 -20q58 0 125 80.5t67 201.5q0 20 -2.5 42t-11 54t-22.5 60.5t-39 58.5t-58 51.5t-83 35t-110 13.5q-174 0 -278 -113.5t-104 -277.5t103.5 -271.5t282.5 -107.5q59 0 110.5 12t83.5 27t62.5 40.5
t42.5 38.5t29 34h50q-126 -192 -378 -192q-194 0 -310 116.5t-116 303.5q0 83 26.5 158.5t77 137t134 98t187.5 36.5q83 0 149 -25t105 -63t64.5 -87.5t35 -93.5t9.5 -86q0 -75 -26 -139.5t-65 -103.5t-81.5 -61t-79.5 -22q-59 0 -59 52q0 15 4 36l-2 2q-74 -90 -165 -90
q-74 0 -121.5 59.5t-47.5 146.5q0 73 30.5 141.5t89 114t129.5 45.5q98 0 149 -94zM518 360q0 62 -35.5 100.5t-89.5 38.5q-45 0 -82.5 -27t-59.5 -68t-34 -84.5t-12 -81.5q0 -65 34 -111t91 -46q53 0 97.5 48t67.5 111.5t23 119.5z" />
    <glyph glyph-name="A" unicode="A" horiz-adv-x="667" 
d="M497 226h-334l-90 -226h-73l291 716h71l305 -716h-77zM184 286h290l-148 359z" />
    <glyph glyph-name="B" unicode="B" horiz-adv-x="667" 
d="M86 0v716h270q62 0 107 -17.5t66 -40t33.5 -52.5t14 -44t1.5 -27q0 -102 -103 -158q20 -7 31.5 -11.5t34.5 -19.5t36 -32t24 -46.5t11 -66.5q0 -79 -55.5 -140t-170.5 -61h-300zM382 341h-228v-281h225q88 0 125.5 42.5t37.5 98.5q0 60 -41 100t-119 40zM154 655v-254
h211q78 0 111.5 40t33.5 90q0 35 -13.5 60t-31 37t-46.5 18.5t-46 7.5t-43 1h-176z" />
    <glyph glyph-name="C" unicode="C" horiz-adv-x="722" 
d="M670 518l-65 -17q-7 20 -12.5 32.5t-24 42t-39.5 47.5t-58 33.5t-81 15.5q-35 0 -70 -9.5t-70.5 -33.5t-62.5 -59t-44 -90.5t-17 -123.5q0 -145 69.5 -228.5t183.5 -83.5q51 0 92.5 17t65 38t43 54.5t25.5 49.5t13 39l62 -17q-6 -21 -11 -34.5t-17.5 -41t-26 -46
t-37.5 -42.5t-51.5 -38.5t-67.5 -24.5t-86 -10q-72 0 -129.5 23.5t-93.5 60.5t-60 87t-34 99t-10 99q0 177 96.5 274t232.5 97q50 0 91.5 -11t71 -32.5t50.5 -41.5t36.5 -48.5t21.5 -42t14 -34.5z" />
    <glyph glyph-name="D" unicode="D" horiz-adv-x="722" 
d="M89 0v716h275q89 0 156 -38q44 -25 75 -66t45 -87.5t20 -85.5t6 -77q0 -29 -2.5 -57.5t-11.5 -69.5t-24 -75t-44 -68.5t-68 -56.5q-28 -16 -76 -25.5t-76 -9.5h-275zM157 656v-596h168q92 0 136 20q135 64 135 287q0 29 -4 59.5t-16 73t-41 78.5t-72 56q-46 22 -138 22
h-168z" />
    <glyph glyph-name="E" unicode="E" horiz-adv-x="611" 
d="M156 398h361v-60h-361v-278h404v-60h-472v716h458v-60h-390v-258z" />
    <glyph glyph-name="F" unicode="F" horiz-adv-x="556" 
d="M89 716h423v-60h-355v-259h303v-60h-303v-337h-68v716z" />
    <glyph glyph-name="G" unicode="G" horiz-adv-x="778" 
d="M419 357h294v-266q-67 -49 -135 -76t-163 -27q-57 0 -108.5 13t-97.5 42t-80 70.5t-53.5 102t-19.5 133.5q0 184 99.5 281.5t256.5 97.5q48 0 88.5 -9t68 -22t50.5 -33.5t36 -37t24 -40t15 -34.5t9 -28l-66 -20q-7 20 -12 33t-24 41.5t-41 46t-62.5 32.5t-89.5 15
q-132 0 -207 -87t-75 -229q0 -69 18.5 -124.5t47.5 -89.5t67.5 -57t75.5 -32t74 -9q130 0 237 79v174h-227v60z" />
    <glyph glyph-name="H" unicode="H" horiz-adv-x="722" 
d="M155 407h412v309h68v-716h-68v347h-412v-347h-68v716h68v-309z" />
    <glyph glyph-name="I" unicode="I" horiz-adv-x="278" 
d="M105 716h68v-716h-68v716z" />
    <glyph glyph-name="J" unicode="J" horiz-adv-x="500" 
d="M344 716h68v-512q0 -56 -13.5 -97.5t-33 -63.5t-48.5 -35t-53 -16.5t-53 -3.5q-48 0 -84 16t-54.5 37t-29.5 53.5t-14 54t-4 48.5l61 7q1 -21 3 -35t10 -40t21 -42.5t38.5 -29.5t59.5 -13q126 0 126 160v512z" />
    <glyph glyph-name="K" unicode="K" horiz-adv-x="667" 
d="M88 716h68v-374l404 374h92l-322 -293l335 -423h-89l-291 382l-129 -117v-265h-68v716z" />
    <glyph glyph-name="L" unicode="L" horiz-adv-x="556" 
d="M88 716h68v-656h361v-60h-429v716z" />
    <glyph glyph-name="M" unicode="M" horiz-adv-x="833" 
d="M89 716h101l225 -620l228 620h101v-716h-62v647h-3l-236 -647h-57l-232 647h-3v-647h-62v716z" />
    <glyph glyph-name="N" unicode="N" horiz-adv-x="722" 
d="M87 716h68l415 -619h3v619h62v-716h-72l-412 615h-2v-615h-62v716z" />
    <glyph glyph-name="O" unicode="O" horiz-adv-x="778" 
d="M389 728q77 0 137 -25t96 -63.5t59.5 -89.5t32 -98t8.5 -94q0 -49 -9 -97t-33 -98.5t-60.5 -88.5t-96 -62t-134.5 -24q-76 0 -136.5 25t-96 63t-59.5 89t-32.5 98.5t-8.5 94.5q0 49 9 96.5t33 98t60 88.5t95.5 62.5t135.5 24.5zM389 672q-14 0 -31.5 -2.5t-45.5 -10
t-58 -26t-54 -45.5q-74 -85 -74 -230q0 -88 26 -152.5t68 -98t84 -48.5t85 -15q33 0 66.5 8.5t69.5 31t63.5 56.5t45.5 90.5t18 127.5q0 81 -23.5 143.5t-62 98.5t-83.5 54t-94 18z" />
    <glyph glyph-name="P" unicode="P" horiz-adv-x="611" 
d="M88 716h249q92 0 142 -32q40 -26 64.5 -71.5t24.5 -101.5q0 -36 -11.5 -70t-36.5 -66.5t-72 -52t-111 -19.5h-181v-303h-68v716zM318 656h-162v-293h162q33 0 61 6t57 20.5t45.5 45.5t16.5 75q0 146 -180 146z" />
    <glyph glyph-name="Q" unicode="Q" horiz-adv-x="778" 
d="M574 34l-2 2q-79 -48 -183 -48q-75 0 -134.5 24t-96 62t-60.5 88.5t-33 98.5t-9 97q0 47 8.5 94.5t32.5 98.5t59.5 89t96 63t136.5 25q75 0 135 -24.5t96 -62t60 -88t33 -98.5t9 -97q0 -181 -106 -287q67 -46 122 -71l-19 -47q-63 22 -145 81zM395 138l15 50
q71 -14 138 -68l10 -8l1 -1q1 -1 2 -1q91 87 91 248q0 71 -18 127t-45 90t-63.5 57t-70 31.5t-66.5 8.5t-66.5 -8.5t-70 -31.5t-63.5 -57t-45 -90t-18 -127t18 -127.5t45.5 -90.5t63.5 -56.5t69.5 -31t66.5 -8.5q66 0 125 33q-54 41 -119 61z" />
    <glyph glyph-name="R" unicode="R" horiz-adv-x="667" 
d="M88 716h302q92 0 145 -39q71 -54 71 -152q0 -81 -52 -131t-156 -59v-2q44 -21 69.5 -44t62.5 -79l136 -210h-87l-105 165q-67 105 -108 134.5t-106 29.5h-104v-329h-68v716zM348 656h-192v-267h189q191 0 191 135q0 132 -188 132z" />
    <glyph glyph-name="S" unicode="S" horiz-adv-x="611" 
d="M541 527l-66 -3q-1 15 -3 28.5t-12.5 37.5t-27 40t-49.5 29t-77 13q-76 0 -121.5 -36.5t-45.5 -92.5q0 -27 10.5 -48.5t25.5 -35t39.5 -24.5t44.5 -16.5t48 -11.5q32 -6 50 -10.5t48.5 -14t49.5 -19t41.5 -25.5t35 -35t21.5 -46t9 -59q0 -26 -7 -52.5t-25 -55.5
t-45.5 -51t-73 -36.5t-102.5 -14.5q-244 0 -265 227l67 6q7 -61 29 -96q51 -81 164 -81q82 0 137 39.5t55 110.5q0 31 -14.5 55.5t-31.5 38t-48 24.5t-47 15t-45 9q-38 7 -62 13t-61 21.5t-59 35t-38.5 53.5t-16.5 78q0 81 60 136t168 55q147 0 204 -85q32 -46 36 -116z" />
    <glyph glyph-name="T" unicode="T" horiz-adv-x="556" 
d="M25 716h506v-63h-219v-653h-68v653h-219v63z" />
    <glyph glyph-name="U" unicode="U" horiz-adv-x="722" 
d="M87 716h68v-459q0 -28 1.5 -48t13 -54t31.5 -55.5t61.5 -38.5t99.5 -17q205 0 205 212v460h68v-453q0 -133 -67.5 -204t-204.5 -71q-144 0 -210 69t-66 206v453z" />
    <glyph glyph-name="V" unicode="V" horiz-adv-x="611" 
d="M6 716h72l225 -643h2l233 643h67l-267 -716h-70z" />
    <glyph glyph-name="W" unicode="W" horiz-adv-x="889" 
d="M12 716h69l155 -620h2l165 620h83l165 -616h2l159 616h65l-192 -716h-67l-171 640h-2l-175 -640h-67z" />
    <glyph glyph-name="X" unicode="X" horiz-adv-x="611" 
d="M43 716h80l188 -287l205 287h71l-238 -335l258 -381h-82l-214 319l-226 -319h-81l270 374z" />
    <glyph glyph-name="Y" unicode="Y" horiz-adv-x="611" 
d="M6 716h80l219 -344l223 344h77l-270 -407v-309h-68v309z" />
    <glyph glyph-name="Z" unicode="Z" horiz-adv-x="611" 
d="M64 716h506v-58l-468 -598h478v-60h-557v63l463 593h-422v60z" />
    <glyph glyph-name="bracketleft" unicode="[" horiz-adv-x="333" 
d="M77 716h230v-50h-170v-814h170v-50h-230v914z" />
    <glyph glyph-name="backslash" unicode="\" horiz-adv-x="278" 
d="M0 716h46l232 -734h-47z" />
    <glyph glyph-name="bracketright" unicode="]" horiz-adv-x="333" 
d="M256 -198h-230v50h170v814h-170v50h230v-914z" />
    <glyph glyph-name="asciicircum" unicode="^" horiz-adv-x="660" 
d="M330 728l219 -262l-32 -27l-187 226l-188 -226l-31 27z" />
    <glyph glyph-name="underscore" unicode="_" horiz-adv-x="500" 
d="M-6 -125v50h512v-50h-512z" />
    <glyph glyph-name="grave" unicode="`" horiz-adv-x="333" 
d="M159 716l63 -129h-50l-110 129h97z" />
    <glyph glyph-name="a" unicode="a" horiz-adv-x="556" 
d="M121 368l-62 9q15 81 68 117t155 36q32 0 58.5 -4t45.5 -9.5t34 -17t25 -21t16.5 -27t10 -30t5 -35t2 -36.5t0.5 -40q0 -4 -1 -69t-1 -77q0 -65 6.5 -94.5t25.5 -69.5h-67q-14 37 -19 79q-84 -91 -211 -91q-83 0 -124 42.5t-41 101.5q0 72 58 116q38 30 158 47
q109 15 155 31v18q0 33 -2.5 50.5t-14 41.5t-41.5 35.5t-78 11.5q-47 0 -80 -11.5t-49 -33t-21.5 -35t-10.5 -35.5zM418 245v34q-48 -18 -165 -39q-27 -5 -41.5 -8t-37 -11t-34 -17.5t-20.5 -27t-9 -39.5q0 -43 33.5 -71t79.5 -28q74 0 140 54q28 23 41 58t13 95z" />
    <glyph glyph-name="b" unicode="b" horiz-adv-x="611" 
d="M139 79v-79h-60v716h60v-282h2q72 96 194 96q79 0 132.5 -41t75.5 -99t22 -127q0 -28 -4 -57.5t-19 -70.5t-39 -72t-69.5 -53t-104.5 -22q-52 0 -93 17t-58.5 33t-36.5 41h-2zM501 258q0 108 -50 165t-123 57q-68 0 -119 -42q-70 -58 -70 -187q0 -105 52.5 -159
t132.5 -54q74 0 125.5 58.5t51.5 161.5z" />
    <glyph glyph-name="c" unicode="c" horiz-adv-x="556" 
d="M504 372l-64 -10q-16 56 -58.5 87t-101.5 31q-27 0 -54 -9.5t-54.5 -31.5t-44.5 -66.5t-17 -106.5q0 -102 45.5 -165t127.5 -63q41 0 72.5 14.5t51 41.5t27.5 42.5t17 40.5l60 -9q-43 -180 -231 -180q-81 0 -135 39.5t-76.5 98.5t-22.5 134q0 35 5.5 68.5t21.5 71.5
t41.5 65.5t69 46t99.5 18.5q79 0 135 -34t86 -124z" />
    <glyph glyph-name="d" unicode="d" horiz-adv-x="611" 
d="M472 434v282h60v-716h-60v79q-16 -18 -28 -29t-36.5 -28t-57.5 -25.5t-73 -8.5q-62 0 -109 26t-72.5 68t-37.5 87.5t-12 93.5q0 47 12 91t37 85t72.5 66t110.5 25q125 0 192 -96h2zM110 258q0 -103 51.5 -161.5t125.5 -58.5q73 0 124 46q61 54 61 177q0 62 -18.5 107
t-48.5 68t-60.5 33.5t-61.5 10.5q-73 0 -123 -57t-50 -165z" />
    <glyph glyph-name="e" unicode="e" horiz-adv-x="556" 
d="M511 252h-399q2 -97 46 -155.5t128 -58.5q32 0 59 10.5t42.5 23.5t29 34t18 31.5t10.5 26.5l60 -10q-8 -23 -14.5 -37.5t-24.5 -41.5t-39.5 -43.5t-59.5 -30t-84 -13.5q-111 0 -173 72.5t-62 198.5q0 124 62 197.5t174 73.5q46 0 83 -13.5t60 -32t40 -48.5t25 -52.5
t12.5 -54.5t5.5 -44.5t1 -32.5zM113 302h334q-8 95 -54.5 136.5t-110.5 41.5q-14 0 -28 -2t-38.5 -12t-43.5 -27.5t-36 -53t-23 -83.5z" />
    <glyph glyph-name="f" unicode="f" horiz-adv-x="278" 
d="M15 518h83v55q0 84 28 115q36 40 98 40q26 0 76 -12l-11 -49q-38 5 -51 5q-51 0 -65.5 -26t-14.5 -82v-46h109v-45h-109v-473h-60v473h-83v45z" />
    <glyph glyph-name="g" unicode="g" horiz-adv-x="611" 
d="M471 518h61v-477q0 -42 -5.5 -75t-21.5 -67.5t-42.5 -57t-73 -37t-108.5 -14.5q-202 0 -212 153l59 -12q4 -18 8.5 -28.5t18.5 -27.5t43.5 -26t73.5 -9q199 0 199 189v50h-2q-14 -18 -26 -30t-34.5 -28t-55.5 -24.5t-75 -8.5q-62 0 -109 26t-72 67.5t-37 86t-12 89.5
q0 32 5.5 65t21.5 71.5t40.5 68t66.5 49t96 19.5q130 0 191 -99h2v87zM472 253q0 109 -51.5 168t-130.5 59q-86 0 -132 -63t-46 -157q0 -96 46.5 -159t130.5 -63q30 0 59 10t58.5 32t47.5 67t18 106z" />
    <glyph glyph-name="h" unicode="h" horiz-adv-x="556" 
d="M80 716h60v-274h2q14 19 24.5 30.5t30.5 27t47.5 23t62.5 7.5q88 0 137 -55q37 -42 37 -137v-338h-60v322q0 77 -20 106q-33 49 -100 49q-43 0 -83 -25t-60 -67q-18 -38 -18 -160v-225h-60v716z" />
    <glyph glyph-name="i" unicode="i" horiz-adv-x="222" 
d="M81 518h60v-518h-60v518zM81 716h60v-92h-60v92z" />
    <glyph glyph-name="j" unicode="j" horiz-adv-x="222" 
d="M81 518h60v-559q0 -70 -8 -101.5t-36 -49.5q-29 -18 -64 -18q-19 0 -62 11l12 53q23 -6 38 -6q34 0 47 20t13 83v567zM81 716h60v-92h-60v92z" />
    <glyph glyph-name="k" unicode="k" horiz-adv-x="500" 
d="M80 716h60v-438l254 240h85l-216 -193l232 -325h-79l-197 284l-79 -70v-214h-60v716z" />
    <glyph glyph-name="l" unicode="l" horiz-adv-x="222" 
d="M81 716h60v-716h-60v716z" />
    <glyph glyph-name="m" unicode="m" horiz-adv-x="833" 
d="M80 518h60v-74h2q56 86 156 86q35 0 61 -9t41.5 -25.5t22 -26.5t13.5 -25q19 24 34 39t50.5 31t77.5 16q74 0 117 -47q39 -41 39 -130v-353h-60v322q0 26 -1 41.5t-6.5 40t-16.5 38.5t-32.5 25t-52.5 11q-43 0 -72.5 -19.5t-42.5 -55t-18 -69.5t-5 -79v-255h-60v328
q0 25 -0.5 37.5t-5.5 37t-15 38t-30.5 24.5t-49.5 11q-74 0 -110 -57.5t-36 -142.5v-276h-60v518z" />
    <glyph glyph-name="n" unicode="n" horiz-adv-x="556" 
d="M80 518h60v-76h2q14 19 24.5 30.5t30.5 27t47.5 23t62.5 7.5q88 0 137 -55q37 -42 37 -137v-338h-60v322q0 77 -20 106q-33 49 -100 49q-43 0 -83 -25t-60 -67q-18 -38 -18 -160v-225h-60v518z" />
    <glyph glyph-name="o" unicode="o" horiz-adv-x="556" 
d="M509 256q0 -121 -58 -194.5t-174 -73.5q-108 0 -170 74.5t-61 193.5q1 133 62 203.5t169 70.5q107 0 169.5 -71t62.5 -203zM445 256q0 106 -43.5 165t-122.5 59q-82 0 -125.5 -62t-43.5 -162q0 -104 47 -161t123 -57q75 0 120 57.5t45 160.5z" />
    <glyph glyph-name="p" unicode="p" horiz-adv-x="611" 
d="M139 79v-277h-60v716h60v-84h2q73 96 193 96q61 0 107.5 -24t72.5 -64t38.5 -85t12.5 -94q0 -28 -4 -57.5t-19 -70.5t-39 -72t-69.5 -53t-104.5 -22q-52 0 -93 17t-58.5 33t-36.5 41h-2zM501 258q0 108 -50 165t-123 57q-67 0 -119 -42q-70 -56 -70 -187
q0 -105 52.5 -159t132.5 -54q74 0 125.5 58.5t51.5 161.5z" />
    <glyph glyph-name="q" unicode="q" horiz-adv-x="611" 
d="M472 79h-2q-19 -25 -36.5 -41t-58.5 -33t-93 -17q-59 0 -104.5 22t-69.5 53t-39 72t-19 70.5t-4 57.5q0 49 12.5 94t38.5 85t72.5 64t107.5 24q120 0 193 -96h2v84h60v-716h-60v277zM110 258q0 -103 51.5 -161.5t125.5 -58.5q80 0 132.5 54t52.5 159q0 131 -70 187
q-52 42 -119 42q-73 0 -123 -57t-50 -165z" />
    <glyph glyph-name="r" unicode="r" horiz-adv-x="333" 
d="M79 518h54v-104h2q34 116 119 116q43 0 92 -31l-23 -53q-47 20 -70 20q-62 0 -92 -69q-10 -21 -18 -87q-4 -35 -4 -73v-237h-60v518z" />
    <glyph glyph-name="s" unicode="s" horiz-adv-x="500" 
d="M429 393l-59 -9q-7 23 -13 35.5t-19.5 29t-38.5 24t-61 7.5q-57 0 -89 -22t-32 -62q0 -38 31 -60t123 -41q88 -18 134 -51t46 -97q0 -68 -51.5 -113.5t-150.5 -45.5t-147 40.5t-65 111.5l62 11q5 -18 11 -31t21.5 -35t46 -34.5t73.5 -12.5q64 0 100 29t36 71
q0 38 -33.5 60.5t-118.5 40.5q-90 19 -136 52t-46 94q0 22 8.5 44.5t27 46.5t57 39t91.5 15q81 0 127 -30t65 -107z" />
    <glyph glyph-name="t" unicode="t" horiz-adv-x="278" 
d="M154 690v-172h97v-45h-97v-340q0 -52 11 -71.5t47 -19.5q12 0 48 7l8 -49q-43 -8 -64 -8q-32 0 -54.5 9t-33 20t-16 33t-6 34t-0.5 37v348h-72v45h72v133z" />
    <glyph glyph-name="u" unicode="u" horiz-adv-x="556" 
d="M476 0h-60v77h-2q-14 -19 -25 -31t-30.5 -27.5t-47 -23t-62.5 -7.5q-83 0 -135 55q-39 41 -39 137v338h60v-321q0 -78 20 -107q34 -49 100 -49q43 0 83 25.5t60 67.5q18 40 18 160v224h60v-518z" />
    <glyph glyph-name="v" unicode="v" horiz-adv-x="500" 
d="M14 518h65l171 -443l171 443h65l-208 -518h-56z" />
    <glyph glyph-name="w" unicode="w" horiz-adv-x="722" 
d="M6 518h64l139 -442h2l122 442h56l123 -442h2l139 442h63l-174 -518h-62l-118 426h-2l-117 -426h-63z" />
    <glyph glyph-name="x" unicode="x" horiz-adv-x="500" 
d="M23 518h76l151 -198l151 198h76l-192 -242l207 -276h-76l-166 225l-166 -225h-76l207 270z" />
    <glyph glyph-name="y" unicode="y" horiz-adv-x="500" 
d="M17 518h67l170 -448l178 448h59l-245 -621q-23 -58 -51.5 -82.5t-68.5 -24.5q-20 0 -58 9l-7 61q38 -8 55 -8q29 0 43 12t27 45l36 91z" />
    <glyph glyph-name="z" unicode="z" horiz-adv-x="500" 
d="M41 518h420v-41l-360 -424h376v-53h-456v53l355 415h-335v50z" />
    <glyph glyph-name="braceleft" unicode="{" horiz-adv-x="333" 
d="M286 728v-55q-41 -1 -58 -11.5t-23.5 -42t-6.5 -108.5q0 -62 -1.5 -90t-10.5 -65t-29.5 -58.5t-55.5 -38.5q24 -11 41 -25t27.5 -33t16.5 -34.5t8.5 -41.5t3 -42t0.5 -48q0 -135 11.5 -161t76.5 -29v-55q-84 -2 -113.5 41t-29.5 128q0 128 -2 162t-14 58q-11 21 -26 32.5
t-25 13t-27 2.5v64q33 1 53.5 17.5t28.5 46t10 49t2 49.5q0 126 4 163.5t24 63.5q38 51 115 48z" />
    <glyph glyph-name="bar" unicode="|" horiz-adv-x="222" 
d="M86 716h50v-914h-50v914z" />
    <glyph glyph-name="braceright" unicode="}" horiz-adv-x="333" 
d="M47 -210v55q41 1 58 11.5t23.5 42t6.5 108.5q0 62 1.5 90t10.5 65t29.5 58.5t55.5 38.5q-24 11 -41 25t-27.5 33t-16.5 34.5t-8.5 41.5t-3 42t-0.5 48q0 135 -11.5 161t-76.5 29v55q84 2 113.5 -41t29.5 -128q0 -128 2 -162t14 -58q11 -22 26 -33t24.5 -12.5t27.5 -2.5
v-64q-33 -1 -53.5 -17.5t-28.5 -46t-10 -49t-2 -49.5q0 -126 -4 -163.5t-24 -63.5q-38 -51 -115 -48z" />
    <glyph glyph-name="asciitilde" unicode="~" horiz-adv-x="660" 
d="M591 403v-58q-28 -19 -45 -29t-42 -18.5t-49 -8.5q-19 0 -42 6.5t-38 12.5t-50 22q-78 37 -117 37q-59 0 -139 -65v54q78 58 137 58q31 0 57 -8.5t70 -30.5q82 -39 122 -39q58 0 136 67z" />
    <glyph glyph-name="copyright" unicode="&#xa9;" horiz-adv-x="800" 
d="M562 451l-47 -14q-35 80 -110 80q-18 0 -37.5 -6t-44 -21t-40 -49t-15.5 -82q0 -82 39 -128.5t93 -46.5q29 0 50.5 9t35.5 27.5t21 31t15 34.5l44 -16q-8 -22 -15 -35.5t-25.5 -39t-50 -39.5t-73.5 -14q-86 0 -136.5 65t-50.5 149q0 79 49 141t141 62q102 0 157 -108z
M773 355q0 -155 -109.5 -264t-263.5 -109t-263.5 109t-109.5 264t109.5 264t263.5 109t263.5 -109t109.5 -264zM727 355q0 136 -95.5 231.5t-231.5 95.5t-231.5 -95.5t-95.5 -231.5t95.5 -231.5t231.5 -95.5t231.5 95.5t95.5 231.5z" />
    <glyph glyph-name="uniFF0C" unicode="&#xff0c;" 
d="M453 475h94q13 -131 -62 -187l-28 26q39 25 49 75h-53v86z" />
    <glyph glyph-name="uni4E36" unicode="&#xf6cf;" 
d="M596 321l-41 -40q-56 84 -170 170l35 36q104 -66 176 -166z" />
    <glyph glyph-name="uni4E36" unicode="&#x2f02;" 
d="M596 321l-41 -40q-56 84 -170 170l35 36q104 -66 176 -166z" />
    <glyph glyph-name="uni5F50" unicode="&#xf6e0;" 
d="M887 69h-774v40h572v245h-418v41h418v241h-450v40h492v-567h160v-40z" />
    <glyph glyph-name="uni5F50" unicode="&#x2f39;" 
d="M887 69h-774v40h572v245h-418v41h418v241h-450v40h492v-567h160v-40z" />
    <glyph glyph-name="uni7592" unicode="&#xf6e4;" 
d="M608 720q-1 -1 -31 -25q-35 56 -105 112l28 25q26 -15 57.5 -49t50.5 -63zM901 640h-626v-264q0 -281 -169 -430l-30 31q158 125 158 360l-147 -80l-26 35l173 87v300h667v-39zM188 468q-10 -7 -35 -17q-18 72 -69 145l32 20q48 -69 72 -148z" />
    <glyph glyph-name="uni7592" unicode="&#x2f67;" 
d="M608 720q-1 -1 -31 -25q-35 56 -105 112l28 25q26 -15 57.5 -49t50.5 -63zM901 640h-626v-264q0 -281 -169 -430l-30 31q158 125 158 360l-147 -80l-26 35l173 87v300h667v-39zM188 468q-10 -7 -35 -17q-18 72 -69 145l32 20q48 -69 72 -148z" />
    <glyph glyph-name="uni8FB5" unicode="&#xf6e6;" 
d="M663 786q-160 -97 -370 -117l-14 38q207 15 368 112zM750 653q-94 -58 -229.5 -97.5t-266.5 -48.5l-10 41q126 2 256.5 41t232.5 101zM933 31l-16 -41q-14 0 -117 -1.5t-171.5 0t-117.5 7.5q-138 16 -247 115q-28 -47 -69.5 -89.5t-87.5 -70.5l-25 33q161 92 204 298
l36 -16q-16 -74 -44 -125q92 -78 206 -105v344q-59 -13 -156.5 -21.5t-166.5 -7.5l-12 41q398 -20 687 179q10 -16 18 -35q-64 -45 -159 -85.5t-171 -60.5v-150h310v-37h-310v-172q149 -10 409 0z" />
    <glyph glyph-name="uni8FB5" unicode="&#x2fa1;" 
d="M663 786q-160 -97 -370 -117l-14 38q207 15 368 112zM750 653q-94 -58 -229.5 -97.5t-266.5 -48.5l-10 41q126 2 256.5 41t232.5 101zM933 31l-16 -41q-14 0 -117 -1.5t-171.5 0t-117.5 7.5q-138 16 -247 115q-28 -47 -69.5 -89.5t-87.5 -70.5l-25 33q161 92 204 298
l36 -16q-16 -74 -44 -125q92 -78 206 -105v344q-59 -13 -156.5 -21.5t-166.5 -7.5l-12 41q398 -20 687 179q10 -16 18 -35q-64 -45 -159 -85.5t-171 -60.5v-150h310v-37h-310v-172q149 -10 409 0z" />
    <glyph glyph-name="uni2400" unicode="&#x2400;" 
d="M115 1h-35v764h48l109 -594l2 594h35v-764h-44l-113 607zM331 765h35v-665q0 -22 12.5 -37t30 -18.5t35 -0.5t30 18t12.5 37v666h36v-682q0 -30 -19.5 -51.5t-48 -26t-56.5 0.5t-47.5 28.5t-19.5 57.5v673zM923 36v-35h-158v764h36v-729h122zM737 36v-35h-159v764h36
v-729h123z" />
    <glyph glyph-name="uni0021.hw" horiz-adv-x="500" 
d="M264 191h-26l-14 579h52zM272 25h-42v55h42v-55z" />
    <glyph glyph-name="uni3005" unicode="&#xf6f0;" 
d="M754 557q-93 -178 -256 -372q123 -92 156 -126l-28 -30q-155 133 -319 238l27 31l129 -85q59 61 118 143t99 157h-378q-60 -95 -105 -152l-32 30q67 79 128 186t90 179l39 -18q-13 -23 -33.5 -65.5t-36 -72t-26.5 -43.5h428z" />
    <glyph glyph-name="u26ED3" unicode="&#x26ed3;" 
d="M927 703h-217v-88h-42v88h-143v39h143v98h42v-98h217v-39zM849 364h-373v216h373v-216zM475 703h-142v-88h-43v88h-216v39h216v95h43v-95h142v-39zM930 -43h-557v38h261v116h-216v37h216v102q-77 -7 -173 -7l-21 39q242 -2 405 35q4 -4 12 -17.5t11 -17.5
q-83 -17 -194 -29v-105h211v-37h-211v-116h256v-38zM392 187l-33 -18q-33 66 -74 111l29 16q45 -50 78 -109zM401 368h-128v-447h-39v368q-17 -35 -57.5 -94t-77.5 -99l-30 26q50 48 98 119t67 127h-140v37h140v123q-82 -14 -119 -18l-21 37q169 15 269 49l27 -31
q-42 -13 -117 -29v-131h128v-37zM808 401v141h-292v-141h292z" />
    <glyph glyph-name="u26ED3" unicode="&#xe313;" 
d="M927 703h-217v-88h-42v88h-143v39h143v98h42v-98h217v-39zM849 364h-373v216h373v-216zM475 703h-142v-88h-43v88h-216v39h216v95h43v-95h142v-39zM930 -43h-557v38h261v116h-216v37h216v102q-77 -7 -173 -7l-21 39q242 -2 405 35q4 -4 12 -17.5t11 -17.5
q-83 -17 -194 -29v-105h211v-37h-211v-116h256v-38zM392 187l-33 -18q-33 66 -74 111l29 16q45 -50 78 -109zM401 368h-128v-447h-39v368q-17 -35 -57.5 -94t-77.5 -99l-30 26q50 48 98 119t67 127h-140v37h140v123q-82 -14 -119 -18l-21 37q169 15 269 49l27 -31
q-42 -13 -117 -29v-131h128v-37zM808 401v141h-292v-141h292z" />
    <glyph glyph-name="u28BE9" unicode="&#x28be9;" 
d="M936 519q-3 -22 -5 -33t-8 -31.5t-16 -30.5t-24 -10h-49q-22 0 -32 14.5t-10 31.5v113h-49q-1 -67 -37.5 -122t-94.5 -83l-25 30q116 66 116 175h-132v-80l77 44v-41l-148 -88l-21 34l55 30v101h-53q0 -115 -102 -192q-3 2 -14.5 12.5t-17.5 14.5q94 62 94 165h-65v37
h127v93h-60l-27 -69l-42 14q39 73 54 171l34 -12q-1 -24 -11 -67h52v86h40v-86h88v-37h-88v-93h213v93h-70q-18 -48 -33 -76q-31 12 -39 18q49 102 62 176l36 -11q-6 -49 -13 -70h57v90h41v-90h102v-37h-102v-93h117v-37h-81v-104q0 -11 3.5 -14.5t12.5 -3.5h24q8 0 13 7
t7.5 23.5t3.5 25.5t2 29zM366 639l-34 -23q-40 72 -102 128q-19 -51 -60 -113t-89 -106q-7 2 -18 14t-15 15q129 114 172 279q8 -2 35 -11q0 -4 -11 -39q60 -53 122 -144zM851 -71h-41v75h-290v-75h-40v422h371v-422zM365 272q-12 -86 -51 -177l-35 11q39 84 52 173zM385 22
l-313 -79l-13 39l146 31v329h-132v37h132v139h-86v38h212v-38h-84v-139h121v-37h-121v-317l138 35v-38zM164 87l-36 -18q-17 99 -57 182q5 2 19 7.5t17 6.5q40 -90 57 -178zM810 201v113h-290v-113h290zM810 42v123h-290v-123h290z" />
    <glyph glyph-name="u28BE9" unicode="&#xe318;" 
d="M936 519q-3 -22 -5 -33t-8 -31.5t-16 -30.5t-24 -10h-49q-22 0 -32 14.5t-10 31.5v113h-49q-1 -67 -37.5 -122t-94.5 -83l-25 30q116 66 116 175h-132v-80l77 44v-41l-148 -88l-21 34l55 30v101h-53q0 -115 -102 -192q-3 2 -14.5 12.5t-17.5 14.5q94 62 94 165h-65v37
h127v93h-60l-27 -69l-42 14q39 73 54 171l34 -12q-1 -24 -11 -67h52v86h40v-86h88v-37h-88v-93h213v93h-70q-18 -48 -33 -76q-31 12 -39 18q49 102 62 176l36 -11q-6 -49 -13 -70h57v90h41v-90h102v-37h-102v-93h117v-37h-81v-104q0 -11 3.5 -14.5t12.5 -3.5h24q8 0 13 7
t7.5 23.5t3.5 25.5t2 29zM366 639l-34 -23q-40 72 -102 128q-19 -51 -60 -113t-89 -106q-7 2 -18 14t-15 15q129 114 172 279q8 -2 35 -11q0 -4 -11 -39q60 -53 122 -144zM851 -71h-41v75h-290v-75h-40v422h371v-422zM365 272q-12 -86 -51 -177l-35 11q39 84 52 173zM385 22
l-313 -79l-13 39l146 31v329h-132v37h132v139h-86v38h212v-38h-84v-139h121v-37h-121v-317l138 35v-38zM164 87l-36 -18q-17 99 -57 182q5 2 19 7.5t17 6.5q40 -90 57 -178zM810 201v113h-290v-113h290zM810 42v123h-290v-123h290z" />
    <glyph glyph-name="uni7A49" unicode="&#xe31a;" 
d="M921 547q-60 -33 -175 -59l-12 36q106 21 172 57zM930 396l-15 -35q-86 40 -178 58l13 34q92 -17 180 -57zM703 396h-41v196h41v-196zM631 529l-13 -37q-78 26 -167 35l11 36q94 -9 169 -34zM631 413l-167 -47l-17 37l184 47v-37zM878 620h-450v-210q0 -294 -129 -466
l-38 20q126 162 126 450v380h491v-174zM951 91h-246v-157h-40v157h-251v38h251v117h-136q-22 -50 -50 -91l-34 20q52 79 88 183q12 -3 36 -12q-13 -38 -24 -63h120v95h40v-95h217v-37h-217v-117h246v-38zM356 310q-19 -15 -32 -23q-48 94 -93 153l28 21q42 -53 97 -151z
M352 538h-125v-604h-41v486q-33 -127 -110 -279l-35 23q100 190 145 375h-132l1 37h131v157q-50 -13 -108 -18l-15 38q147 14 270 65l17 -33q-57 -25 -123 -43v-166h125v-38zM838 658v97h-410v-97h410z" />
    <glyph glyph-name="uni7A7D" unicode="&#xe31e;" 
 />
    <glyph glyph-name="u259AC" unicode="&#x259ac;" 
d="M904 606h-39v98h-254v-74q0 -14 6.5 -19t23.5 -5h196v-36h-200q-66 0 -66 54v80h-158q-31 -69 -101.5 -114.5t-186.5 -77.5q-9 13 -22 34q106 27 171.5 64t96.5 95h-234v-99h-41v134h401q-14 17 -79 73l28 26q33 -26 100 -99h358v-134zM907 410l-23 -32q-26 17 -69 39
v-493h-40v60h-549v-65h-41v484q-54 -20 -69 -25l-23 32q90 28 154 57.5t134 77.5l24 -31q-75 -48 -152 -82h531q-78 38 -198 82l24 31q145 -50 297 -135zM774 18v379h-548v-379h548zM708 281q-56 -70 -141 -126q59 -37 94 -61l-25 -28q-30 23 -103 69q-102 -57 -244 -100
l-23 31q143 39 235 89q-33 21 -106 56l25 26q54 -25 116 -62q75 48 123 102h-249q-40 -42 -131 -113q-18 18 -26 25q135 101 200 190l30 -20l-41 -48h266v-30z" />
    <glyph glyph-name="u259AC" unicode="&#xe31f;" 
d="M904 606h-39v98h-254v-74q0 -14 6.5 -19t23.5 -5h196v-36h-200q-66 0 -66 54v80h-158q-31 -69 -101.5 -114.5t-186.5 -77.5q-9 13 -22 34q106 27 171.5 64t96.5 95h-234v-99h-41v134h401q-14 17 -79 73l28 26q33 -26 100 -99h358v-134zM907 410l-23 -32q-26 17 -69 39
v-493h-40v60h-549v-65h-41v484q-54 -20 -69 -25l-23 32q90 28 154 57.5t134 77.5l24 -31q-75 -48 -152 -82h531q-78 38 -198 82l24 31q145 -50 297 -135zM774 18v379h-548v-379h548zM708 281q-56 -70 -141 -126q59 -37 94 -61l-25 -28q-30 23 -103 69q-102 -57 -244 -100
l-23 31q143 39 235 89q-33 21 -106 56l25 26q54 -25 116 -62q75 48 123 102h-249q-40 -42 -131 -113q-18 18 -26 25q135 101 200 190l30 -20l-41 -48h266v-30z" />
    <glyph glyph-name="uni7AB0" unicode="&#xe321;" 
d="M889 616h-41v100h-240v-65q0 -23 25 -23h185v-36h-206q-20 0 -32 13t-12 34v76h-151q-86 -140 -302 -189l-21 31q211 52 279 159h-239v-100h-40v136h392q-26 40 -67 86l36 21q54 -67 79 -107h355v-136zM904 134h-363v-117h231v93h40v-176h-40v47h-540v-47h-41v176h42v-93
h268v117h-400l1 35h399v103h-144q-52 -48 -125 -90q-14 15 -28 25q101 49 156 110q-156 -51 -251 -70q-5 7 -18 33q130 26 209 52l-65 83l29 15l70 -86q66 20 119 44q-29 36 -72 81l30 18l76 -84q134 58 208 107h-358q-89 -56 -173 -91l-24 29q203 84 310 198l29 -21
q-14 -15 -45.5 -40.5t-52.5 -39.5h393v-26q-156 -104 -371 -189q-5 -9 -16 -21h439v-36h-285v-104h363v-35z" />
    <glyph glyph-name="uni7AC3" unicode="&#xe323;" 
 />
    <glyph glyph-name="uni71D1" unicode="&#xe324;" 
 />
    <glyph glyph-name="u2648D" unicode="&#x2648d;" 
d="M836 420l-34 -14q-20 83 -67 182l33 14q45 -92 68 -182zM900 10q0 -20 -10 -34t-28 -14q-34 -7 -98 -3l-13 38q47 -3 83 0q29 2 29 31v301l-127 -134l-23 34l150 151v362h-131v36h168v-768zM633 414q-7 -2 -18 -7t-18 -7q-22 88 -71 182q4 2 14.5 8t17.5 8v-1
q55 -109 75 -183zM491 700h-398v34h182l-53 73l32 19l61 -92h176v-34zM705 17q0 -43 -30 -50q-14 -5 -33 -6.5t-44.5 -0.5t-35.5 1q-2 7 -6.5 20t-6.5 19q68 -5 89 -4q13 1 21.5 9.5t8.5 19.5v305l-126 -138l-26 31l152 160v359h-137v36h174v-761zM509 554h-444v35h144
l-46 83l30 19l54 -102h80l54 105l30 -19l-46 -86h144v-35zM515 -11h-461v34h218v87h-173v34h173v77h-155v272h345v-272h-153v-77h170v-34h-170v-87h206v-34zM426 373v84h-117v-84h117zM426 256v83h-117v-83h117zM272 373v84h-120v-84h120zM272 256v83h-120v-83h120z" />
    <glyph glyph-name="u2648D" unicode="&#xe325;" 
d="M836 420l-34 -14q-20 83 -67 182l33 14q45 -92 68 -182zM900 10q0 -20 -10 -34t-28 -14q-34 -7 -98 -3l-13 38q47 -3 83 0q29 2 29 31v301l-127 -134l-23 34l150 151v362h-131v36h168v-768zM633 414q-7 -2 -18 -7t-18 -7q-22 88 -71 182q4 2 14.5 8t17.5 8v-1
q55 -109 75 -183zM491 700h-398v34h182l-53 73l32 19l61 -92h176v-34zM705 17q0 -43 -30 -50q-14 -5 -33 -6.5t-44.5 -0.5t-35.5 1q-2 7 -6.5 20t-6.5 19q68 -5 89 -4q13 1 21.5 9.5t8.5 19.5v305l-126 -138l-26 31l152 160v359h-137v36h174v-761zM509 554h-444v35h144
l-46 83l30 19l54 -102h80l54 105l30 -19l-46 -86h144v-35zM515 -11h-461v34h218v87h-173v34h173v77h-155v272h345v-272h-153v-77h170v-34h-170v-87h206v-34zM426 373v84h-117v-84h117zM426 256v83h-117v-83h117zM272 373v84h-120v-84h120zM272 256v83h-120v-83h120z" />
    <glyph glyph-name="uni7AEA" unicode="&#xe329;" 
d="M943 375l-33 -31q-123 75 -190 147q-75 -84 -175 -154q-16 24 -24 34q107 75 175 148q-65 75 -122 212h-52v39h350v-39q-47 -118 -123 -211q21 -25 74.5 -65.5t119.5 -79.5zM514 352h-389v433h375v-36h-155v-101h153v-153h-152v-106h168v-37zM881 209h-754v37h372
q-18 38 -60 77l34 20q46 -57 68 -97h340v-37zM942 1l-1 -37h-880v37h498q56 65 122 193l36 -17q-57 -109 -107 -176h332zM425 32l-32 -18q-49 93 -106 162q17 13 32 20q58 -72 106 -164zM830 731h-214q48 -121 107 -182q28 34 59.5 87t47.5 95zM307 650v98h-142v-98h142z
M459 533v79h-294v-79h294zM307 390v106h-142v-106h142z" />
    <glyph glyph-name="u25C01" unicode="&#x25c01;" 
d="M926 698h-218q23 -27 77 -105l-36 -22q-25 43 -87 127h-70q-86 -118 -115 -146l-30 27q65 72 104.5 128t83.5 139l33 -15q-50 -91 -53 -95h311v-38zM509 698h-196q45 -71 69 -115l-36 -21q-26 58 -78 136h-57q-64 -104 -136 -168l-30 27q61 54 116.5 132.5t81.5 148.5
q18 -8 32 -19q-7 -20 -43 -83h277v-38zM951 -22h-542v36h263v162h-168v38h168v147h-130q-36 -89 -67 -144q-3 2 -14.5 9t-18.5 11q77 136 108 268l32 -15q-2 -7 -27 -91h117v155h37v-155h204v-38h-204v-147h179v-38h-179v-162h242v-36zM312 504q-16 -16 -29 -25
q-34 51 -79 96l28 23q53 -57 80 -94zM464 429h-246v-109h175q0 -191 -34 -312q-5 -18 -22 -30.5t-35 -14.5q-16 -2 -33 0t-38.5 7t-31.5 6l-13 41l99 -16q33 3 43 38q27 96 27 245h-137q0 -76 -31.5 -170t-93.5 -180q-10 10 -30 25q62 90 90 171.5t28 177.5v120h-125v38h408
v-37z" />
    <glyph glyph-name="u25C01" unicode="&#xe32c;" 
d="M926 698h-218q23 -27 77 -105l-36 -22q-25 43 -87 127h-70q-86 -118 -115 -146l-30 27q65 72 104.5 128t83.5 139l33 -15q-50 -91 -53 -95h311v-38zM509 698h-196q45 -71 69 -115l-36 -21q-26 58 -78 136h-57q-64 -104 -136 -168l-30 27q61 54 116.5 132.5t81.5 148.5
q18 -8 32 -19q-7 -20 -43 -83h277v-38zM951 -22h-542v36h263v162h-168v38h168v147h-130q-36 -89 -67 -144q-3 2 -14.5 9t-18.5 11q77 136 108 268l32 -15q-2 -7 -27 -91h117v155h37v-155h204v-38h-204v-147h179v-38h-179v-162h242v-36zM312 504q-16 -16 -29 -25
q-34 51 -79 96l28 23q53 -57 80 -94zM464 429h-246v-109h175q0 -191 -34 -312q-5 -18 -22 -30.5t-35 -14.5q-16 -2 -33 0t-38.5 7t-31.5 6l-13 41l99 -16q33 3 43 38q27 96 27 245h-137q0 -76 -31.5 -170t-93.5 -180q-10 10 -30 25q62 90 90 171.5t28 177.5v120h-125v38h408
v-37z" />
    <glyph glyph-name="uni7B29" unicode="&#xe32f;" 
 />
    <glyph glyph-name="u2530E" unicode="&#x2530e;" 
d="M824 558h-129v35h129v-35zM907 545h-38v115h-217v-234h-38v234h-212v-116h-38v151h250v69h-224v35h491v-35h-229v-69h255v-150zM845 459h-150v35h150v-35zM574 558h-137v35h137v-35zM574 459h-157v35h157v-35zM938 354h-318q-28 -54 -51 -84h307v-260q0 -29 -17.5 -47.5
t-44.5 -18.5h-59l-14 39l71 -2q26 0 26 28v226h-108v-235h-38v235h-108v-249h-38v249h-109v-293h-38v328h126q35 41 57 84h-246v35h602v-35zM302 35h-38v68h-132v-104h-39v780h209v-744zM265 572v169h-133v-169h133zM265 364v170h-133v-170h133zM265 145v181h-133v-181h133z
" />
    <glyph glyph-name="u2530E" unicode="&#xe330;" 
d="M824 558h-129v35h129v-35zM907 545h-38v115h-217v-234h-38v234h-212v-116h-38v151h250v69h-224v35h491v-35h-229v-69h255v-150zM845 459h-150v35h150v-35zM574 558h-137v35h137v-35zM574 459h-157v35h157v-35zM938 354h-318q-28 -54 -51 -84h307v-260q0 -29 -17.5 -47.5
t-44.5 -18.5h-59l-14 39l71 -2q26 0 26 28v226h-108v-235h-38v235h-108v-249h-38v249h-109v-293h-38v328h126q35 41 57 84h-246v35h602v-35zM302 35h-38v68h-132v-104h-39v780h209v-744zM265 572v169h-133v-169h133zM265 364v170h-133v-170h133zM265 145v181h-133v-181h133z
" />
    <glyph glyph-name="uni839C" unicode="&#xe334;" 
d="M932 689h-225v-97h-42v97h-139v39h139v105h42v-105h225v-39zM474 689h-139v-97h-42v97h-225v39h225v105h42v-105h139v-39zM958 -30l-31 -36q-138 72 -233 167q-124 -109 -308 -172l-25 40q175 51 306 164q-83 121 -99 234q-52 -101 -91 -144l-39 28q116 128 158 334
l39 -14q-9 -48 -26 -106h312v-39h-74q-26 -192 -126 -292q100 -104 237 -164zM387 88h-42v386h42v-386zM306 560q-34 -104 -84 -174v-455h-42v393q-44 -56 -106 -108l-32 31q79 63 138.5 148t87.5 180zM806 426h-211q21 -162 104 -262q90 99 107 262z" />
    <glyph glyph-name="uni8421" unicode="&#xe338;" 
 />
    <glyph glyph-name="uni7B92" unicode="&#xe339;" 
d="M948 693h-208q38 -48 54 -78l-30 -17q-43 71 -70 95h-81q-56 -74 -77 -90l-26 22q92 91 145 210q3 -1 30 -17l-50 -93h313v-32zM527 692h-191q27 -41 45 -73q-18 -13 -29 -17q-22 48 -54 90h-71q-72 -105 -118 -150l-27 25q89 88 193 268l28 -19l-55 -91h279v-33z
M936 453h-162v-95h-570v33h532v62h-643v33h643v56h-530v33h569v-89h161v-33zM916 159h-40v101h-353v-79h266v-130q0 -63 -71 -63h-86l-12 39l96 -2q35 -1 35 25v97h-228v-227h-39v228h-215v-173h-39v205h254v80h-337v-107h-38v140h807v-134z" />
    <glyph glyph-name="uni7BFA" unicode="&#xe33f;" 
 />
    <glyph glyph-name="CNS1.14168" 
 />
    <glyph glyph-name="uni7C35" unicode="&#xe341;" 
 />
    <glyph glyph-name="u25CC1" unicode="&#x25cc1;" 
d="M945 717h-206q31 -35 49 -68l-33 -20q-29 51 -60 88h-74q-53 -63 -88 -92l-30 24q31 26 64 65t49.5 62.5t46.5 67.5l33 -16q-34 -55 -50 -76h299v-35zM537 717h-200q2 -3 21.5 -27t30.5 -39l-31 -23q-10 18 -35.5 49t-31.5 40h-63q-44 -57 -127 -128l-28 28
q122 98 196 229q19 -7 34 -17q-38 -64 -48 -77h282v-35zM905 559q-41 -99 -59 -132l-37 8q37 67 45 87h-371v-75l231 14l3 -33l-234 -16v-47q0 -9 6 -15.5t18 -6.5h274v-34h-284q-26 0 -39.5 15t-13.5 37v48l-171 -10l-6 36l177 11v76h-243v-263q0 -191 -108 -325l-28 24
q96 134 96 286v315h342q-28 37 -70 71l29 28q47 -40 88 -99h355zM917 -37h-726v36h256v81h-167v151h39v-116h128v161h40v-277h118v277h40v-161h134v116h39v-151h-173v-81h272v-36z" />
    <glyph glyph-name="u25CC1" unicode="&#xe342;" 
d="M945 717h-206q31 -35 49 -68l-33 -20q-29 51 -60 88h-74q-53 -63 -88 -92l-30 24q31 26 64 65t49.5 62.5t46.5 67.5l33 -16q-34 -55 -50 -76h299v-35zM537 717h-200q2 -3 21.5 -27t30.5 -39l-31 -23q-10 18 -35.5 49t-31.5 40h-63q-44 -57 -127 -128l-28 28
q122 98 196 229q19 -7 34 -17q-38 -64 -48 -77h282v-35zM905 559q-41 -99 -59 -132l-37 8q37 67 45 87h-371v-75l231 14l3 -33l-234 -16v-47q0 -9 6 -15.5t18 -6.5h274v-34h-284q-26 0 -39.5 15t-13.5 37v48l-171 -10l-6 36l177 11v76h-243v-263q0 -191 -108 -325l-28 24
q96 134 96 286v315h342q-28 37 -70 71l29 28q47 -40 88 -99h355zM917 -37h-726v36h256v81h-167v151h39v-116h128v161h40v-277h118v277h40v-161h134v116h39v-151h-173v-81h272v-36z" />
    <glyph glyph-name="uni7C83" unicode="&#xe344;" 
 />
    <glyph glyph-name="u24882" unicode="&#x24882;" 
d="M934 760h-200v-91h160v-195h-503v195h155v91h-193v37h581v-37zM841 419q-42 -72 -95 -131l-28 26q58 63 94 126zM939 27l-23 -29q-110 106 -235 178l21 29q58 -33 126 -83.5t111 -94.5zM553 316l-30 -23q-41 72 -88 127l29 21q27 -32 89 -125zM935 235h-279v-300h-37v300
q-43 -67 -125 -141.5t-153 -114.5l-25 32q145 77 260 224h-226v38h269v180h37v-180h279v-38zM340 748q-36 -50 -102 -116q114 -221 45 -564q-10 -50 -40 -84t-84 -33q-13 0 -36 2t-27 2l-8 41q11 0 35 -3.5t36 -3.5q23 0 38.5 6.5t25 21.5t14 28t10.5 37q25 101 23 278
q-32 -36 -86.5 -83t-94.5 -71l-27 31q113 69 201 173q-18 133 -56 194q-69 -66 -114 -95l-28 30q66 43 125 100q-47 78 -120 142l30 28q55 -47 119 -143q56 52 93 106q4 -3 14 -12t14 -12zM857 512v120h-123v-120h123zM697 669v91h-115v-91h115zM697 512v120h-115v-120h115z
M546 512v120h-118v-120h118z" />
    <glyph glyph-name="u24882" unicode="&#xe345;" 
d="M934 760h-200v-91h160v-195h-503v195h155v91h-193v37h581v-37zM841 419q-42 -72 -95 -131l-28 26q58 63 94 126zM939 27l-23 -29q-110 106 -235 178l21 29q58 -33 126 -83.5t111 -94.5zM553 316l-30 -23q-41 72 -88 127l29 21q27 -32 89 -125zM935 235h-279v-300h-37v300
q-43 -67 -125 -141.5t-153 -114.5l-25 32q145 77 260 224h-226v38h269v180h37v-180h279v-38zM340 748q-36 -50 -102 -116q114 -221 45 -564q-10 -50 -40 -84t-84 -33q-13 0 -36 2t-27 2l-8 41q11 0 35 -3.5t36 -3.5q23 0 38.5 6.5t25 21.5t14 28t10.5 37q25 101 23 278
q-32 -36 -86.5 -83t-94.5 -71l-27 31q113 69 201 173q-18 133 -56 194q-69 -66 -114 -95l-28 30q66 43 125 100q-47 78 -120 142l30 28q55 -47 119 -143q56 52 93 106q4 -3 14 -12t14 -12zM857 512v120h-123v-120h123zM697 669v91h-115v-91h115zM697 512v120h-115v-120h115z
M546 512v120h-118v-120h118z" />
    <glyph glyph-name="uni7CC7" unicode="&#xe34a;" 
d="M925 583h-394v35h256l20 141h-214v35h257l-23 -176h98v-35zM373 716q-29 -104 -66 -159l-35 18q45 59 66 155zM951 -34l-28 -28q-63 42 -107 115t-61 145q-14 -94 -76 -165t-153 -98l-23 35q185 59 212 228h-190v35h194q4 27 5 171h-93q-25 -65 -66 -104l-34 24
q76 68 85 203l38 -12q-4 -43 -16 -76h266v-35h-143q2 -109 -5 -171h190v-35h-157q56 -173 162 -232zM532 809q-10 -96 -58 -249v-627l-39 -2v552q-28 -61 -73 -125l-34 25q75 103 111.5 199t56.5 236zM159 573l-34 -14q-24 92 -66 158l32 16q18 -25 37.5 -72t30.5 -88z
M373 223l-31 -21q-25 66 -89 139l29 22q25 -23 51 -64t40 -76zM352 488l-1 -36h-113v-519h-38v413q-14 -42 -49.5 -115t-72.5 -129l-32 26q114 163 152 324h-137v36h139v330h38v-330h114z" />
    <glyph glyph-name="CNS1.14179" 
d="M933 517l-29 -34q-239 84 -410 286q-73 -101 -179 -174.5t-226 -111.5q-9 12 -31 31q243 70 398 263h-108v35h164q149 -211 421 -295zM715 505q-39 -69 -78 -116l-33 26q41 40 78 109zM380 417q-26 -17 -34 -20q-30 55 -84 112l30 21q46 -46 88 -113zM921 56l-23 -31
q-237 115 -349 309h-30v-374h-39v374h-34q-68 -122 -146 -193t-199 -117l-28 30q215 70 333 280h-313v36h387v239h39v-239h376v-36h-305q112 -178 331 -278z" />
    <glyph glyph-name="uni7CF5" unicode="&#xe34e;" 
 />
    <glyph glyph-name="uni7E67" unicode="&#xe350;" 
 />
    <glyph glyph-name="uniE351" unicode="&#xe351;" 
d="M913 716h-206v-66h-40v66h-142v37h142v91h40v-91h206v-37zM919 481q-8 -26 -13 -38.5t-15 -29t-25.5 -23.5t-38.5 -7h-184q-64 0 -64 62v183h40v-72h225v-34h-225v-75q0 -29 33 -29h180q21 0 32.5 20.5t21.5 64.5q7 -3 17.5 -11t15.5 -11zM473 716h-142v-66h-40v66h-204
v37h204v91h40v-91h142v-37zM523 520h-170v-92l169 18v-31l-432 -54l-9 36l84 7v180h38v-175l110 12v207h40v-74h170v-34zM911 -23l-28 -25q-108 61 -256 113l27 26q146 -51 257 -114zM909 110l-26 -23q-57 42 -74 51l-276 -11v-135q0 -28 -19.5 -45t-47.5 -17h-90l-13 38
l103 -2q27 0 27 30v130q-270 -12 -331 -16l-7 35q52 11 144.5 39t158.5 50l67 23q-213 -14 -294 -23l-10 32q158 58 280 130l32 -19q-127 -71 -250 -112l302 16q32 13 143 67l31 -23q-242 -111 -497 -180q70 4 155 7.5t191.5 7.5t163.5 6q-54 33 -105 56l25 25
q108 -54 217 -137zM372 71q-127 -73 -252 -119l-31 25q102 31 254 115z" />
    <glyph glyph-name="uniE351" unicode="&#x451d;" 
d="M913 716h-206v-66h-40v66h-142v37h142v91h40v-91h206v-37zM919 481q-8 -26 -13 -38.5t-15 -29t-25.5 -23.5t-38.5 -7h-184q-64 0 -64 62v183h40v-72h225v-34h-225v-75q0 -29 33 -29h180q21 0 32.5 20.5t21.5 64.5q7 -3 17.5 -11t15.5 -11zM473 716h-142v-66h-40v66h-204
v37h204v91h40v-91h142v-37zM523 520h-170v-92l169 18v-31l-432 -54l-9 36l84 7v180h38v-175l110 12v207h40v-74h170v-34zM911 -23l-28 -25q-108 61 -256 113l27 26q146 -51 257 -114zM909 110l-26 -23q-57 42 -74 51l-276 -11v-135q0 -28 -19.5 -45t-47.5 -17h-90l-13 38
l103 -2q27 0 27 30v130q-270 -12 -331 -16l-7 35q52 11 144.5 39t158.5 50l67 23q-213 -14 -294 -23l-10 32q158 58 280 130l32 -19q-127 -71 -250 -112l302 16q32 13 143 67l31 -23q-242 -111 -497 -180q70 4 155 7.5t191.5 7.5t163.5 6q-54 33 -105 56l25 25
q108 -54 217 -137zM372 71q-127 -73 -252 -119l-31 25q102 31 254 115z" />
    <glyph glyph-name="uniE35E" unicode="&#xe35e;" 
d="M869 365h-480v409h480v-409zM949 55q-12 -8 -40 -18q-45 111 -101 197q23 10 36 18q56 -83 105 -197zM293 683l-32 -33q-59 76 -149 137l33 31q88 -65 148 -135zM708 159q-12 -7 -39 -22q-36 90 -93 165q17 9 34 22q56 -78 98 -165zM828 89q-21 -74 -34 -93
q-24 -34 -68 -34h-180q-75 0 -75 73v226h42v-223q0 -22 8 -29.5t29 -7.5h173q21 0 34 15t18 31.5t16 60.5q5 -3 18.5 -10t18.5 -9zM268 443l-33 -33q-64 84 -153 142l32 31q74 -49 154 -140zM405 235q-40 -127 -89 -211l-40 20q53 84 92 207zM296 303q-29 -76 -84.5 -180
t-105.5 -174l-39 27q108 136 195 352zM826 591v142h-178v-142h178zM826 405v146h-178v-146h178zM607 591v142h-177v-142h177zM607 405v146h-177v-146h177z" />
    <glyph glyph-name="uniE35E" unicode="&#x3d13;" 
d="M869 365h-480v409h480v-409zM949 55q-12 -8 -40 -18q-45 111 -101 197q23 10 36 18q56 -83 105 -197zM293 683l-32 -33q-59 76 -149 137l33 31q88 -65 148 -135zM708 159q-12 -7 -39 -22q-36 90 -93 165q17 9 34 22q56 -78 98 -165zM828 89q-21 -74 -34 -93
q-24 -34 -68 -34h-180q-75 0 -75 73v226h42v-223q0 -22 8 -29.5t29 -7.5h173q21 0 34 15t18 31.5t16 60.5q5 -3 18.5 -10t18.5 -9zM268 443l-33 -33q-64 84 -153 142l32 31q74 -49 154 -140zM405 235q-40 -127 -89 -211l-40 20q53 84 92 207zM296 303q-29 -76 -84.5 -180
t-105.5 -174l-39 27q108 136 195 352zM826 591v142h-178v-142h178zM826 405v146h-178v-146h178zM607 591v142h-177v-142h177zM607 405v146h-177v-146h177z" />
    <glyph glyph-name="u217F9" unicode="&#x217f9;" 
d="M954 -46l-33 -28q-71 89 -136 222q-91 -139 -183 -228l-31 32q114 104 197 239q-58 165 -69 282q-20 -70 -50 -140l-37 18q50 101 75 213.5t42 268.5l35 -9q-6 -76 -28 -201h210v-40h-54q-21 -246 -82 -395q52 -120 144 -234zM651 728h-154q-49 -150 -123 -258
q114 19 186 37l-45 78l31 16q54 -78 91 -177q-5 -5 -18 -10.5t-15 -6.5q-21 52 -29 68l-236 -50l-13 38q88 126 131 265h-130v38h324v-38zM650 68l-319 -90l-17 38l147 36v194h-102v35h102v140h38v-140h108v-35h-108v-181l151 39v-36zM357 132l-27 -29q-45 52 -95 91
q-58 -118 -156 -239l-28 28q114 139 154 232l-64 46l-7 -38l-35 10l64 350h-99v37h104l41 234l34 -13l-37 -221h119q-25 -260 -75 -393q54 -42 107 -95zM853 583h-124l-4 -25q19 -188 65 -321q52 156 63 346zM285 583h-86l-51 -286q55 -36 71 -49q41 117 66 335z" />
    <glyph glyph-name="u217F9" unicode="&#xe360;" 
d="M954 -46l-33 -28q-71 89 -136 222q-91 -139 -183 -228l-31 32q114 104 197 239q-58 165 -69 282q-20 -70 -50 -140l-37 18q50 101 75 213.5t42 268.5l35 -9q-6 -76 -28 -201h210v-40h-54q-21 -246 -82 -395q52 -120 144 -234zM651 728h-154q-49 -150 -123 -258
q114 19 186 37l-45 78l31 16q54 -78 91 -177q-5 -5 -18 -10.5t-15 -6.5q-21 52 -29 68l-236 -50l-13 38q88 126 131 265h-130v38h324v-38zM650 68l-319 -90l-17 38l147 36v194h-102v35h102v140h38v-140h108v-35h-108v-181l151 39v-36zM357 132l-27 -29q-45 52 -95 91
q-58 -118 -156 -239l-28 28q114 139 154 232l-64 46l-7 -38l-35 10l64 350h-99v37h104l41 234l34 -13l-37 -221h119q-25 -260 -75 -393q54 -42 107 -95zM853 583h-124l-4 -25q19 -188 65 -321q52 156 63 346zM285 583h-86l-51 -286q55 -36 71 -49q41 117 66 335z" />
    <glyph glyph-name="u2836D" unicode="&#x2836d;" 
d="M858 761l-20 -29q-53 43 -100 68l22 29q69 -42 98 -68zM951 680h-248v-68h187v-360h-37v109h-150v-100h-38v100h-143v-109h-37v360h180v68h-225v36h225v122h38v-122h248v-36zM951 163h-123v-167q0 -33 -15.5 -49.5t-53.5 -16.5h-79l-12 41l93 -3q29 -2 29 27v168h-348v36
h348v62h39l-1 -62h123v-36zM655 30l-28 -23q-41 66 -105 119l26 23q24 -19 56 -55t51 -64zM427 131h-160v-200h-37v200h-187v34h187v99h-133v328h133v91h-170v34h170v130h37v-130h157v-34h-157v-91h135v-328h-135v-99h160v-34zM853 506v70h-150v-70h150zM853 397v73h-150
v-73h150zM665 506v70h-143v-70h143zM665 397v73h-143v-73h143zM364 450v108h-97v-108h97zM230 450v108h-95v-108h95zM364 298v118h-97v-118h97zM230 298v118h-95v-118h95z" />
    <glyph glyph-name="u2836D" unicode="&#xe362;" 
d="M858 761l-20 -29q-53 43 -100 68l22 29q69 -42 98 -68zM951 680h-248v-68h187v-360h-37v109h-150v-100h-38v100h-143v-109h-37v360h180v68h-225v36h225v122h38v-122h248v-36zM951 163h-123v-167q0 -33 -15.5 -49.5t-53.5 -16.5h-79l-12 41l93 -3q29 -2 29 27v168h-348v36
h348v62h39l-1 -62h123v-36zM655 30l-28 -23q-41 66 -105 119l26 23q24 -19 56 -55t51 -64zM427 131h-160v-200h-37v200h-187v34h187v99h-133v328h133v91h-170v34h170v130h37v-130h157v-34h-157v-91h135v-328h-135v-99h160v-34zM853 506v70h-150v-70h150zM853 397v73h-150
v-73h150zM665 506v70h-143v-70h143zM665 397v73h-143v-73h143zM364 450v108h-97v-108h97zM230 450v108h-95v-108h95zM364 298v118h-97v-118h97zM230 298v118h-95v-118h95z" />
    <glyph glyph-name="u26121" unicode="&#x26121;" 
d="M834 556h-346v246h346v-246zM940 291h-355v-75h258q-3 -124 -18 -207q-8 -42 -28.5 -55.5t-62.5 -14.5l-81 6l-14 40q66 -6 97 -8q26 -1 36.5 10.5t15.5 41.5q11 71 14 152h-217q-3 -92 -47 -148t-168 -104l-31 34q68 21 112 48t63 58.5t24.5 56.5t5.5 60v105h-157v34h41
v165h466v-165h46v-34zM400 248l-32 -20q-5 10 -16 32.5t-18 34.5l-247 -44l-17 39q87 84 196 237q-127 -7 -163 -17l-17 42q86 109 176 283q23 -18 31 -25q-80 -154 -157 -254l150 10q34 48 70 114q11 -5 33 -23q-41 -78 -124 -190t-138 -170q31 5 98.5 16t91.5 15
q-20 40 -48 76q12 7 30 21q53 -77 101 -177zM397 59l-36 -15q-21 91 -64 170q14 6 33 16q48 -96 67 -171zM265 3l-38 -5q1 96 -19 204l33 9q22 -95 24 -208zM156 202q-28 -150 -74 -233q-29 16 -34 18q54 106 75 225zM797 697v70h-273v-70h273zM797 591v73h-273v-73h273z
M857 456h-109v-131h109v131zM713 325v131h-104v-131h104zM574 456h-110v-131h110v131z" />
    <glyph glyph-name="u26121" unicode="&#xe364;" 
d="M834 556h-346v246h346v-246zM940 291h-355v-75h258q-3 -124 -18 -207q-8 -42 -28.5 -55.5t-62.5 -14.5l-81 6l-14 40q66 -6 97 -8q26 -1 36.5 10.5t15.5 41.5q11 71 14 152h-217q-3 -92 -47 -148t-168 -104l-31 34q68 21 112 48t63 58.5t24.5 56.5t5.5 60v105h-157v34h41
v165h466v-165h46v-34zM400 248l-32 -20q-5 10 -16 32.5t-18 34.5l-247 -44l-17 39q87 84 196 237q-127 -7 -163 -17l-17 42q86 109 176 283q23 -18 31 -25q-80 -154 -157 -254l150 10q34 48 70 114q11 -5 33 -23q-41 -78 -124 -190t-138 -170q31 5 98.5 16t91.5 15
q-20 40 -48 76q12 7 30 21q53 -77 101 -177zM397 59l-36 -15q-21 91 -64 170q14 6 33 16q48 -96 67 -171zM265 3l-38 -5q1 96 -19 204l33 9q22 -95 24 -208zM156 202q-28 -150 -74 -233q-29 16 -34 18q54 106 75 225zM797 697v70h-273v-70h273zM797 591v73h-273v-73h273z
M857 456h-109v-131h109v131zM713 325v131h-104v-131h104zM574 456h-110v-131h110v131z" />
    <glyph glyph-name="uni7E27" unicode="&#xe36a;" 
d="M938 389l-23 -31q-106 71 -175 144q-55 -59 -171 -147l-25 30q104 72 173 144q-53 65 -91 131q-28 -53 -62 -94l-29 20q85 103 131 253l31 -15q-11 -40 -29 -77h264v-34h-47q-58 -113 -120 -184q47 -61 173 -140zM939 4l-24 -27q-48 46 -95 129t-66 139v-320h-37v320
q-18 -58 -69 -139t-107 -132l-29 25q64 56 112 130t70 140h-136v35h159v117h37v-117h159v-34h-136q57 -160 162 -266zM524 76h-37v587h37v-587zM478 820q-21 -85 -62 -202v-695h-37v614q-23 -62 -69 -135l-29 19q63 111 98.5 199.5t66.5 210.5zM352 235l-34 -13l-19 51
q-156 -19 -225 -42q-18 33 -19 34q99 130 161 250q-70 -4 -144 -17l-13 26q93 139 153 300l32 -14q-51 -128 -130 -268q17 1 59 5t63 5q16 30 68 141l30 -14q-110 -243 -223 -400q95 11 176 25q-5 20 -29 64l31 13q37 -68 63 -146zM354 29l-34 -12q-20 99 -42 164l33 11
q27 -85 43 -163zM238 -13l-36 -8q-1 79 -17 193l33 5q17 -100 20 -190zM133 167q-13 -154 -31 -224l-34 11q15 64 33 219zM845 714h-189l-10 -21q49 -87 95 -137q61 70 104 158z" />
    <glyph glyph-name="uni7F41" unicode="&#xe36c;" 
 />
    <glyph glyph-name="uni7F47" unicode="&#xe36d;" 
d="M838 830q-49 -69 -104 -120l-30 23q53 46 101 115zM613 732l-29 -25q-67 78 -118 110l27 26q75 -56 120 -111zM929 660h-194v-70h144v-327h-443v327h149v70h-192v36h536v-36zM954 156h-142v-174q0 -32 -27 -43q-28 -11 -120 -11l-16 38q97 -4 113 5q12 6 12 23v162h-377
v36h377v51l37 -1v-50h143v-36zM393 443h-133v-316h69v246h37v-338h-38v56h-177v-85h-37v365h36v-243h73v315h-165v35h165v164h-62q-27 -81 -62 -142q-19 7 -35 19q78 140 112 314q20 -5 35 -12q-20 -90 -38 -143h188v-36h-101v-164h133v-35zM641 41l-24 -30q-82 60 -147 94
l22 29q96 -52 149 -93zM841 471v84h-106v-59q0 -25 26 -25h80zM698 590v70h-76v-70h76zM841 299v136h-85q-58 0 -58 56v64h-76q-8 -114 -120 -157l-20 30q102 34 102 127h-111v-256h368zM801 347h-284v36h284v-36z" />
    <glyph glyph-name="u262D0" unicode="&#x262d0;" 
d="M907 673h-42v84h-264v-81q0 -25 23 -25h233v-37h-235q-30 0 -46.5 15.5t-16.5 39.5v88h-142q-12 -53 -41.5 -93t-73 -64.5t-87 -38.5t-98.5 -24q-2 3 -5.5 11.5t-7 15.5t-6.5 11q121 21 189 59.5t90 122.5h-241v-84h-42v123h813v-123zM938 81h-426v-147h-41v147h-416v36
h416v67h-284v262h269v168h40v-61h393v-37h-393v-70h312v-262h-296v-67h426v-36zM767 336v73h-540v-73h540zM767 222v78h-540v-78h540z" />
    <glyph glyph-name="u262D0" unicode="&#xe36f;" 
d="M907 673h-42v84h-264v-81q0 -25 23 -25h233v-37h-235q-30 0 -46.5 15.5t-16.5 39.5v88h-142q-12 -53 -41.5 -93t-73 -64.5t-87 -38.5t-98.5 -24q-2 3 -5.5 11.5t-7 15.5t-6.5 11q121 21 189 59.5t90 122.5h-241v-84h-42v123h813v-123zM938 81h-426v-147h-41v147h-416v36
h416v67h-284v262h269v168h40v-61h393v-37h-393v-70h312v-262h-296v-67h426v-36zM767 336v73h-540v-73h540zM767 222v78h-540v-78h540z" />
    <glyph glyph-name="uniE376" unicode="&#xe376;" 
d="M913 718h-206v-63h-40v63h-142v37h142v89h40v-89h206v-37zM845 442q0 -62 -63 -62h-59l-15 39l71 -3q27 -1 27 26v157h-293v33h332v-190zM678 511q-17 -17 -25 -24q-40 44 -92 72l24 24q55 -29 93 -72zM770 470l-245 -63l-16 30l260 65zM473 718h-142v-63h-40v63h-204v37
h204v89h40v-89h142v-37zM457 442q0 -62 -67 -62h-66l-15 39l78 -3q32 -1 32 26v155h-299v33h337v-188zM284 511l-27 -23q-38 46 -84 73l25 24q50 -32 86 -74zM863 296h-178q3 -4 12 -9t10 -6q-3 -5 -28 -35q93 -43 167 -89l-22 -25q-84 56 -165 91q-45 -51 -120 -91l-25 26
q104 52 163 138h-309q3 -3 11 -8.5t11 -7.5l-35 -38q52 -27 124 -81l-26 -23q-48 40 -123 82q-86 -68 -150 -98q-3 3 -12 13t-13 14q136 66 203 147h-221v34h367q-13 23 -48 61q22 7 34 14q22 -23 53 -74h320v-35zM376 466l-259 -80l-14 33l271 79zM932 67h-416v-127h-40
v127h-408v35h408v40h40v-40h416v-35z" />
    <glyph glyph-name="uniE376" unicode="&#x455c;" 
d="M913 718h-206v-63h-40v63h-142v37h142v89h40v-89h206v-37zM845 442q0 -62 -63 -62h-59l-15 39l71 -3q27 -1 27 26v157h-293v33h332v-190zM678 511q-17 -17 -25 -24q-40 44 -92 72l24 24q55 -29 93 -72zM770 470l-245 -63l-16 30l260 65zM473 718h-142v-63h-40v63h-204v37
h204v89h40v-89h142v-37zM457 442q0 -62 -67 -62h-66l-15 39l78 -3q32 -1 32 26v155h-299v33h337v-188zM284 511l-27 -23q-38 46 -84 73l25 24q50 -32 86 -74zM863 296h-178q3 -4 12 -9t10 -6q-3 -5 -28 -35q93 -43 167 -89l-22 -25q-84 56 -165 91q-45 -51 -120 -91l-25 26
q104 52 163 138h-309q3 -3 11 -8.5t11 -7.5l-35 -38q52 -27 124 -81l-26 -23q-48 40 -123 82q-86 -68 -150 -98q-3 3 -12 13t-13 14q136 66 203 147h-221v34h367q-13 23 -48 61q22 7 34 14q22 -23 53 -74h320v-35zM376 466l-259 -80l-14 33l271 79zM932 67h-416v-127h-40
v127h-408v35h408v40h40v-40h416v-35z" />
    <glyph glyph-name="u26489" unicode="&#x26489;" 
d="M818 643l-20 -31q-58 45 -115 70l18 29q68 -31 117 -68zM907 494q0 -30 -22 -50.5t-54 -20.5h-54l-14 38l63 -2q18 -1 30.5 8.5t12.5 29.5v251h-194v37h232v-291zM843 574l-157 -93l-20 34l177 97v-38zM553 646l-22 -30q-57 47 -116 76l20 29q62 -31 118 -75zM643 487
q0 -31 -19.5 -47.5t-46.5 -16.5h-56l-12 38l62 -2q34 -2 34 34v255h-211v37h249v-298zM578 568l-167 -94l-21 31l188 102v-39zM378 720l-69 -179l-32 15l69 180zM868 -69h-37v74h-339v-74h-36v401h113q50 56 84 110q20 -13 30 -22q-39 -59 -67 -88h252v-401zM181 561
l-36 -16l-67 179l33 16zM420 148l-168 -132l-26 31l31 23v357h-71q0 -155 -18.5 -267t-81.5 -208l-32 22q57 88 75.5 189t18.5 264h-90v37h152v373h37v-373h156v-37h-107v-331l124 97v-45zM831 191v103h-339v-103h339zM831 42v113h-339v-113h339z" />
    <glyph glyph-name="u26489" unicode="&#xe37b;" 
d="M818 643l-20 -31q-58 45 -115 70l18 29q68 -31 117 -68zM907 494q0 -30 -22 -50.5t-54 -20.5h-54l-14 38l63 -2q18 -1 30.5 8.5t12.5 29.5v251h-194v37h232v-291zM843 574l-157 -93l-20 34l177 97v-38zM553 646l-22 -30q-57 47 -116 76l20 29q62 -31 118 -75zM643 487
q0 -31 -19.5 -47.5t-46.5 -16.5h-56l-12 38l62 -2q34 -2 34 34v255h-211v37h249v-298zM578 568l-167 -94l-21 31l188 102v-39zM378 720l-69 -179l-32 15l69 180zM868 -69h-37v74h-339v-74h-36v401h113q50 56 84 110q20 -13 30 -22q-39 -59 -67 -88h252v-401zM181 561
l-36 -16l-67 179l33 16zM420 148l-168 -132l-26 31l31 23v357h-71q0 -155 -18.5 -267t-81.5 -208l-32 22q57 88 75.5 189t18.5 264h-90v37h152v373h37v-373h156v-37h-107v-331l124 97v-45zM831 191v103h-339v-103h339zM831 42v113h-339v-113h339z" />
    <glyph glyph-name="uni801D" unicode="&#xe37e;" 
 />
    <glyph glyph-name="CNS1.14227" 
 />
    <glyph glyph-name="uni802F" unicode="&#xe380;" 
 />
    <glyph glyph-name="u2A087" unicode="&#x2a087;" 
d="M943 369h-356v-82h333q-7 -158 -30 -291q-14 -74 -91 -67l-51 6l-11 39q50 -8 64 -9q25 -1 36.5 7.5t16.5 31.5q23 124 28 248h-333v483h95q29 40 61 115l33 -16q-27 -61 -53 -99h183v-257h-281v-74h356v-35zM853 98l-29 -17q-25 73 -59 133q3 2 13.5 6.5t14.5 7.5
q40 -78 60 -130zM416 450h-293v340h293v-340zM757 55l-33 -12q-16 89 -40 151q4 1 15.5 5t14.5 5q24 -62 43 -149zM657 22l-34 -11q-3 97 -20 171l33 8q19 -108 21 -168zM567 186q-29 -122 -66 -204l-32 18q51 102 67 199zM441 -73h-36v67h-273v-67h-36v442h345v-442z
M830 625v75h-243v-75h243zM830 513v77h-243v-77h243zM380 639v114h-221v-114h221zM380 488v113h-221v-113h221zM405 207v125h-273v-125h273zM405 31v138h-273v-138h273z" />
    <glyph glyph-name="u2A087" unicode="&#xe381;" 
d="M943 369h-356v-82h333q-7 -158 -30 -291q-14 -74 -91 -67l-51 6l-11 39q50 -8 64 -9q25 -1 36.5 7.5t16.5 31.5q23 124 28 248h-333v483h95q29 40 61 115l33 -16q-27 -61 -53 -99h183v-257h-281v-74h356v-35zM853 98l-29 -17q-25 73 -59 133q3 2 13.5 6.5t14.5 7.5
q40 -78 60 -130zM416 450h-293v340h293v-340zM757 55l-33 -12q-16 89 -40 151q4 1 15.5 5t14.5 5q24 -62 43 -149zM657 22l-34 -11q-3 97 -20 171l33 8q19 -108 21 -168zM567 186q-29 -122 -66 -204l-32 18q51 102 67 199zM441 -73h-36v67h-273v-67h-36v442h345v-442z
M830 625v75h-243v-75h243zM830 513v77h-243v-77h243zM380 639v114h-221v-114h221zM380 488v113h-221v-113h221zM405 207v125h-273v-125h273zM405 31v138h-273v-138h273z" />
    <glyph glyph-name="uni8061" unicode="&#xe385;" 
 />
    <glyph glyph-name="u22714" unicode="&#x22714;" 
d="M886 385h-308v347h308v-347zM931 8q-5 -2 -18.5 -9.5t-19.5 -10.5q-51 127 -108 217l36 19q60 -98 110 -216zM513 524h-182l-7 -26q109 -76 176 -142l-26 -34q-86 89 -164 136q-29 -67 -85.5 -126.5t-121.5 -96.5l-29 35q76 39 138 107t77 147h-188v41h188v148h-87
q-25 -66 -67 -121l-36 22q74 97 102 228l38 -10q-7 -36 -22 -79h271v-40h-157v-148h182v-41zM575 147l-37 -21q-48 87 -93 142q10 5 34 19q52 -66 96 -140zM738 114q-9 -55 -23 -100q-18 -61 -84 -61h-260q-28 0 -43 16.5t-15 44.5v223h42v-212q0 -20 7 -27.5t26 -7.5h243
q20 0 31.5 6t18.5 28q5 15 10.5 42.5t8.5 47.5l4 19zM221 192q-55 -126 -122 -220l-35 22q79 109 122 217zM842 426v266h-222v-266h222z" />
    <glyph glyph-name="u22714" unicode="&#xe386;" 
d="M886 385h-308v347h308v-347zM931 8q-5 -2 -18.5 -9.5t-19.5 -10.5q-51 127 -108 217l36 19q60 -98 110 -216zM513 524h-182l-7 -26q109 -76 176 -142l-26 -34q-86 89 -164 136q-29 -67 -85.5 -126.5t-121.5 -96.5l-29 35q76 39 138 107t77 147h-188v41h188v148h-87
q-25 -66 -67 -121l-36 22q74 97 102 228l38 -10q-7 -36 -22 -79h271v-40h-157v-148h182v-41zM575 147l-37 -21q-48 87 -93 142q10 5 34 19q52 -66 96 -140zM738 114q-9 -55 -23 -100q-18 -61 -84 -61h-260q-28 0 -43 16.5t-15 44.5v223h42v-212q0 -20 7 -27.5t26 -7.5h243
q20 0 31.5 6t18.5 28q5 15 10.5 42.5t8.5 47.5l4 19zM221 192q-55 -126 -122 -220l-35 22q79 109 122 217zM842 426v266h-222v-266h222z" />
    <glyph glyph-name="u23DE3" unicode="&#x23de3;" 
d="M589 587l-32 -22l-82 140l33 21zM798 511h-157v-343h88v256h37v-341h-37v49h-214v-63h-38v355h38v-256h89v343h-162v36h204l78 179l34 -19l-72 -160h112v-36zM895 18q0 -34 -19 -55t-55 -21h-74l-21 41l88 -2q40 0 40 35v753h-466v-824h-39v858h546v-785zM310 670
l-30 -27q-73 88 -146 146l29 27q89 -74 147 -146zM253 448l-29 -30q-62 78 -150 147l29 30q60 -46 150 -147zM310 325q-93 -193 -209 -361q-4 3 -14.5 12t-16.5 14q126 186 207 359q7 -4 17.5 -12.5t15.5 -11.5z" />
    <glyph glyph-name="u23DE3" unicode="&#xe389;" 
d="M589 587l-32 -22l-82 140l33 21zM798 511h-157v-343h88v256h37v-341h-37v49h-214v-63h-38v355h38v-256h89v343h-162v36h204l78 179l34 -19l-72 -160h112v-36zM895 18q0 -34 -19 -55t-55 -21h-74l-21 41l88 -2q40 0 40 35v753h-466v-824h-39v858h546v-785zM310 670
l-30 -27q-73 88 -146 146l29 27q89 -74 147 -146zM253 448l-29 -30q-62 78 -150 147l29 30q60 -46 150 -147zM310 325q-93 -193 -209 -361q-4 3 -14.5 12t-16.5 14q126 186 207 359q7 -4 17.5 -12.5t15.5 -11.5z" />
    <glyph glyph-name="uni6725" unicode="&#xe38b;" 
 />
    <glyph glyph-name="uni80A7" unicode="&#xe38c;" 
 />
    <glyph glyph-name="u28A48" unicode="&#x28a48;" 
d="M952 602q-7 -45 -12 -67q-4 -18 -8.5 -28.5t-16 -20t-29.5 -9.5h-98q-26 0 -42.5 15t-16.5 42v295h37v-137q64 29 130 84l23 -29q-66 -50 -153 -93v-118q0 -22 23 -22h91q19 0 27 32l12 73zM665 527l-242 -76l-15 35l163 47v129h-135v37h135v128h37v-282l57 19v-37z
M852 -17q0 -56 -55 -56h-48l-16 39l50 -2q15 -1 22 5t7 22v102h-274q-24 -95 -99 -170q-3 4 -14 16t-15 18q104 90 104 249v190h338v-413zM417 630l-29 -29q-65 85 -145 143q-56 -128 -84 -170h211v-38h-103v-124h129v-37h-129v-310l142 36v-38l-337 -85l-16 37l171 41v319
h-150v37h150v124h-90q-17 -28 -54 -77q-6 3 -17 12.5t-14 11.5q62 76 112.5 174.5t77.5 186.5q5 -1 10.5 -4t12 -6.5t9.5 -5.5l-19 -48q88 -64 162 -150zM407 294q-32 -104 -82 -182q-4 2 -15 8t-17 9q55 84 82 179zM182 115l-36 -14q-23 87 -70 188l35 15q43 -87 71 -189z
M812 268v90h-259v-90h259zM812 130v101h-259q0 -53 -6 -101h265z" />
    <glyph glyph-name="u28A48" unicode="&#xe38d;" 
d="M952 602q-7 -45 -12 -67q-4 -18 -8.5 -28.5t-16 -20t-29.5 -9.5h-98q-26 0 -42.5 15t-16.5 42v295h37v-137q64 29 130 84l23 -29q-66 -50 -153 -93v-118q0 -22 23 -22h91q19 0 27 32l12 73zM665 527l-242 -76l-15 35l163 47v129h-135v37h135v128h37v-282l57 19v-37z
M852 -17q0 -56 -55 -56h-48l-16 39l50 -2q15 -1 22 5t7 22v102h-274q-24 -95 -99 -170q-3 4 -14 16t-15 18q104 90 104 249v190h338v-413zM417 630l-29 -29q-65 85 -145 143q-56 -128 -84 -170h211v-38h-103v-124h129v-37h-129v-310l142 36v-38l-337 -85l-16 37l171 41v319
h-150v37h150v124h-90q-17 -28 -54 -77q-6 3 -17 12.5t-14 11.5q62 76 112.5 174.5t77.5 186.5q5 -1 10.5 -4t12 -6.5t9.5 -5.5l-19 -48q88 -64 162 -150zM407 294q-32 -104 -82 -182q-4 2 -15 8t-17 9q55 84 82 179zM182 115l-36 -14q-23 87 -70 188l35 15q43 -87 71 -189z
M812 268v90h-259v-90h259zM812 130v101h-259q0 -53 -6 -101h265z" />
    <glyph glyph-name="u226F6" unicode="&#x226f6;" 
d="M933 489l-36 -24q-44 97 -140 203q17 11 32 23q80 -87 144 -202zM713 270h-42v563h42v-563zM931 -2q-5 -2 -18.5 -9.5t-19.5 -10.5q-39 98 -108 206l36 19q75 -124 110 -205zM615 298h-541v37h66v423h-48v38h501v-38h-184v-110h158v-189h-158v-124h206v-37zM575 131
l-37 -21q-48 87 -93 142q10 5 34 19q52 -66 96 -140zM738 114q-9 -55 -23 -100q-19 -61 -80 -61h-264q-28 0 -43 16.5t-15 44.5v199h41v-188q0 -20 7 -27.5t26 -7.5h245q35 0 46 34q5 15 10.5 42.5l9.5 47.5l3 19zM221 181q-43 -99 -122 -209l-35 22q93 127 122 206z
M369 648v110h-188v-110h188zM526 497v115h-345v-115h345zM369 335v124h-188v-124h188z" />
    <glyph glyph-name="u226F6" unicode="&#xe391;" 
d="M933 489l-36 -24q-44 97 -140 203q17 11 32 23q80 -87 144 -202zM713 270h-42v563h42v-563zM931 -2q-5 -2 -18.5 -9.5t-19.5 -10.5q-39 98 -108 206l36 19q75 -124 110 -205zM615 298h-541v37h66v423h-48v38h501v-38h-184v-110h158v-189h-158v-124h206v-37zM575 131
l-37 -21q-48 87 -93 142q10 5 34 19q52 -66 96 -140zM738 114q-9 -55 -23 -100q-19 -61 -80 -61h-264q-28 0 -43 16.5t-15 44.5v199h41v-188q0 -20 7 -27.5t26 -7.5h245q35 0 46 34q5 15 10.5 42.5l9.5 47.5l3 19zM221 181q-43 -99 -122 -209l-35 22q93 127 122 206z
M369 648v110h-188v-110h188zM526 497v115h-345v-115h345zM369 335v124h-188v-124h188z" />
    <glyph glyph-name="u26498" unicode="&#x26498;" 
 />
    <glyph glyph-name="u26498" unicode="&#xe393;" 
 />
    <glyph glyph-name="uni64E7" unicode="&#xe395;" 
d="M607 404h-39v172h-164v220h40v-70h160v-37h-160v-79h163v-206zM954 160l-31 -31q-70 38 -138.5 97.5t-111.5 118.5h-350q-93 -129 -249 -213l-28 33q139 66 227 180h-205v36h100l-26 361q76 20 197 75l31 -29q-79 -36 -185 -71l5 -80h153v-37h-151l6 -82h143v-36h-139
l7 -101h576l8 100h-139v37h143l6 82h-149v36h150q5 43 7 80h-176l-1 35h220l-28 -370h105v-36h-208q77 -103 231 -185zM457 404h-38v149h38v-149zM852 63h-317v-73q0 -42 -22 -57t-50 -15h-86l-18 43l104 -3q14 -1 23 9.5t9 23.5v72h-351v38h351v65h-263v34h263v66
q-118 -16 -180 -17l-17 36q203 5 355 46l23 -30q-44 -14 -141 -30v-69h228v-37h-228v-64h317v-38z" />
    <glyph glyph-name="u2185E" unicode="&#x2185e;" 
d="M875 747q-45 -106 -95 -183q-2 1 -35 20q57 78 94 180q7 -1 19 -8t17 -9zM886 819q-94 -27 -236 -43.5t-261 -16.5q-8 26 -13 38q276 -3 490 53q5 -7 9 -13.5t11 -17.5zM666 587l-38 -15q-12 81 -41 162q7 0 18.5 4.5t17.5 4.5q27 -74 43 -156zM507 575l-33 -17
q-40 100 -76 159l32 18q43 -73 77 -160zM900 396h-38v104h-466v-104h-38v142h542v-142zM915 111h-129v-171h-39v171h-136l26 249h110v103h39v-103h101v-38h-101v-173h129v-38zM614 387q-34 -267 -246 -448l-30 27q109 98 154 177q-45 55 -79 85l25 28q37 -31 72 -78h2
q38 66 60 171h-122q-44 -100 -89 -156q-6 4 -17 12.5t-14 10.5q44 57 71 115t54 141q2 0 34 -11q-4 -16 -12.5 -38.5t-12.5 -35.5h150zM357 132l-27 -29q-45 52 -95 91q-58 -118 -156 -239l-28 28q114 139 154 232l-64 46l-7 -38l-35 10l64 350h-99v37h104l41 234l34 -13
l-37 -221h119q-25 -260 -75 -393q54 -42 107 -95zM747 149v173h-76l-17 -173h93zM285 583h-86l-51 -286q55 -36 71 -49q41 117 66 335z" />
    <glyph glyph-name="u2185E" unicode="&#xe398;" 
d="M875 747q-45 -106 -95 -183q-2 1 -35 20q57 78 94 180q7 -1 19 -8t17 -9zM886 819q-94 -27 -236 -43.5t-261 -16.5q-8 26 -13 38q276 -3 490 53q5 -7 9 -13.5t11 -17.5zM666 587l-38 -15q-12 81 -41 162q7 0 18.5 4.5t17.5 4.5q27 -74 43 -156zM507 575l-33 -17
q-40 100 -76 159l32 18q43 -73 77 -160zM900 396h-38v104h-466v-104h-38v142h542v-142zM915 111h-129v-171h-39v171h-136l26 249h110v103h39v-103h101v-38h-101v-173h129v-38zM614 387q-34 -267 -246 -448l-30 27q109 98 154 177q-45 55 -79 85l25 28q37 -31 72 -78h2
q38 66 60 171h-122q-44 -100 -89 -156q-6 4 -17 12.5t-14 10.5q44 57 71 115t54 141q2 0 34 -11q-4 -16 -12.5 -38.5t-12.5 -35.5h150zM357 132l-27 -29q-45 52 -95 91q-58 -118 -156 -239l-28 28q114 139 154 232l-64 46l-7 -38l-35 10l64 350h-99v37h104l41 234l34 -13
l-37 -221h119q-25 -260 -75 -393q54 -42 107 -95zM747 149v173h-76l-17 -173h93zM285 583h-86l-51 -286q55 -36 71 -49q41 117 66 335z" />
    <glyph glyph-name="u26A52" unicode="&#x26a52;" 
d="M960 -25h-597v35h203v225h-118v305h118v200h-171v36h535v-36h-175v-200h118v-305h-118v-225h205v-35zM415 384h-61v-348q0 -32 -24 -50.5t-54 -18.5h-62l-13 39l69 -2q24 -1 34.5 10t10.5 24v346h-154q0 -111 -19 -239t-68 -203q-2 1 -13.5 11t-17.5 14q79 137 79 417
h-75v36h75v297h59q44 79 64 136q6 -2 18.5 -8.5t16.5 -8.5q-17 -40 -58 -119h132v-297h61v-36zM291 187q-12 -6 -36 -16q-26 78 -64 144q17 7 31 16q29 -50 69 -144zM833 271v233h-118v236h-109v-236h-119v-233h119v-260h109v260h118zM315 420v260h-154v-260h154zM284 499
q-3 -1 -14.5 -8t-19.5 -9q-26 72 -65 132q18 8 31 17q37 -59 68 -132z" />
    <glyph glyph-name="u26A52" unicode="&#xe39f;" 
d="M960 -25h-597v35h203v225h-118v305h118v200h-171v36h535v-36h-175v-200h118v-305h-118v-225h205v-35zM415 384h-61v-348q0 -32 -24 -50.5t-54 -18.5h-62l-13 39l69 -2q24 -1 34.5 10t10.5 24v346h-154q0 -111 -19 -239t-68 -203q-2 1 -13.5 11t-17.5 14q79 137 79 417
h-75v36h75v297h59q44 79 64 136q6 -2 18.5 -8.5t16.5 -8.5q-17 -40 -58 -119h132v-297h61v-36zM291 187q-12 -6 -36 -16q-26 78 -64 144q17 7 31 16q29 -50 69 -144zM833 271v233h-118v236h-109v-236h-119v-233h119v-260h109v260h118zM315 420v260h-154v-260h154zM284 499
q-3 -1 -14.5 -8t-19.5 -9q-26 72 -65 132q18 8 31 17q37 -59 68 -132z" />
    <glyph glyph-name="uni8362" unicode="&#xe3a4;" 
 />
    <glyph glyph-name="u2F98F" unicode="&#x2f98f;" 
d="M930 676h-221v-96h-42v96h-141v37h141v121h42v-121h221v-37zM474 676h-141v-96h-42v96h-220v37h220v121h42v-121h141v-37zM935 121q-2 -9 -7 -29t-7 -28.5t-7.5 -24.5t-10 -23.5t-13 -18t-18.5 -15t-24.5 -8t-31.5 -3.5h-566q-35 0 -57.5 21.5t-22.5 52.5v495h616v-243
h-574v-242q0 -20 14 -32.5t41 -12.5h553q18 0 31.5 8.5t21.5 28t12 31t8.5 39.5t4.5 30zM745 334v169h-533v-169h533z" />
    <glyph glyph-name="u2F994" unicode="&#x2f994;" 
d="M867 587h-139v-109h-37v109h-143v178h36v-140h107v201h37v-201h103v140h36v-178zM576 446q-14 -12 -31 -25q-43 55 -107 107q24 19 32 24q64 -55 106 -106zM454 587h-135q-23 -61 -76 -95t-132 -58l-22 33q33 9 46.5 13.5t40.5 15.5t41.5 21.5t31.5 28.5t28 41h-121v178
h36v-140h96q8 24 8 89v111h38v-115q0 -62 -5 -85h89v140h36v-178zM936 359h-508q0 -54 -7 -115h360q-12 -137 -36 -246q-15 -63 -80 -63l-100 3l-15 39q80 -5 102 -5q27 0 38 8t17 34q22 91 30 193h-321q-30 -115 -107.5 -177.5t-210.5 -104.5l-23 36q118 31 194.5 86
t103.5 148q16 54 16 164h-309v39h856v-39z" />
    <glyph glyph-name="u2F994" unicode="&#xe3ac;" 
d="M867 587h-139v-109h-37v109h-143v178h36v-140h107v201h37v-201h103v140h36v-178zM576 446q-14 -12 -31 -25q-43 55 -107 107q24 19 32 24q64 -55 106 -106zM454 587h-135q-23 -61 -76 -95t-132 -58l-22 33q33 9 46.5 13.5t40.5 15.5t41.5 21.5t31.5 28.5t28 41h-121v178
h36v-140h96q8 24 8 89v111h38v-115q0 -62 -5 -85h89v140h36v-178zM936 359h-508q0 -54 -7 -115h360q-12 -137 -36 -246q-15 -63 -80 -63l-100 3l-15 39q80 -5 102 -5q27 0 38 8t17 34q22 91 30 193h-321q-30 -115 -107.5 -177.5t-210.5 -104.5l-23 36q118 31 194.5 86
t103.5 148q16 54 16 164h-309v39h856v-39z" />
    <glyph glyph-name="uni82D0" unicode="&#xe3af;" 
 />
    <glyph glyph-name="uni831A" unicode="&#xe3b0;" 
d="M665 829h42v-95h225v-39h-225v-91h-42v91h-330v-91h-42v91h-225v39h225v95h42v-95h330v95zM869 197q0 -81 -84 -81h-56l-14 42l70 -3q21 -1 31 10.5t10 35.5v293h-241v-560h-43v599h327v-336zM471 116l-325 -86l-37 40q25 24 25 69v375q176 12 305 75l29 -32
q-136 -61 -291 -78v-136h263v-39h-263v-223l294 75v-40z" />
    <glyph glyph-name="uniE3B3" unicode="&#xe3b3;" 
d="M866 651q-31 -118 -87 -240l-37 16q52 106 91 240zM549 425l-38 -14q-31 134 -75 238l36 15q47 -119 77 -239zM941 300h-271v-361h-39v361h-272v38h272v405h-234v38h502v-38h-229v-405h271v-38zM439 78l-23 -30q-55 63 -135 127q-32 -58 -86 -120.5t-109 -104.5l-28 28
q62 47 114.5 106.5t79.5 114.5q-48 38 -97 61l-10 -40l-34 11l76 342h-127v37h134l49 236l36 -11l-47 -225h152q-14 -129 -33 -220t-54 -181q73 -58 142 -131zM343 573h-118q-54 -245 -62 -279q61 -30 104 -63q56 138 76 342z" />
    <glyph glyph-name="uniE3B3" unicode="&#x36c1;" 
d="M866 651q-31 -118 -87 -240l-37 16q52 106 91 240zM549 425l-38 -14q-31 134 -75 238l36 15q47 -119 77 -239zM941 300h-271v-361h-39v361h-272v38h272v405h-234v38h502v-38h-229v-405h271v-38zM439 78l-23 -30q-55 63 -135 127q-32 -58 -86 -120.5t-109 -104.5l-28 28
q62 47 114.5 106.5t79.5 114.5q-48 38 -97 61l-10 -40l-34 11l76 342h-127v37h134l49 236l36 -11l-47 -225h152q-14 -129 -33 -220t-54 -181q73 -58 142 -131zM343 573h-118q-54 -245 -62 -279q61 -30 104 -63q56 138 76 342z" />
    <glyph glyph-name="uni82E2" unicode="&#xe3b7;" 
 />
    <glyph glyph-name="uni8318" unicode="&#xe3b8;" 
 />
    <glyph glyph-name="u23E8B" unicode="&#x23e8b;" 
 />
    <glyph glyph-name="u23E8B" unicode="&#xe3b9;" 
 />
    <glyph glyph-name="u26DA3" unicode="&#x26da3;" 
d="M927 703h-217v-82h-42v82h-143v39h143v98h42v-98h217v-39zM845 205q0 -31 -21.5 -46.5t-44.5 -15.5h-72l-16 39l84 -2q12 0 21.5 9.5t9.5 23.5v405h39v-413zM653 263h-40v297h40v-297zM475 703h-142v-82h-43v82h-216v39h216v95h43v-95h142v-39zM913 -47q-4 -2 -11.5 -5.5
t-13.5 -7t-10 -6.5q-61 83 -142 152q27 15 35 19q77 -62 142 -152zM539 550h-239q-7 -48 -27 -86h240q-9 -57 -31.5 -105t-65 -96t-116.5 -87t-176 -64l-27 39q164 41 236 93q-42 56 -105 98l33 27q59 -45 104 -100q72 60 102 158h-214q-34 -58 -130 -123l-31 30
q81 53 119.5 103.5t49.5 112.5h-157v38h435v-38zM692 -38l-35 -19q-51 68 -123 140q6 4 34 18q59 -55 124 -139zM467 -42l-38 -15q-44 76 -98 143l36 13q50 -60 100 -141zM232 80q-50 -73 -123 -149l-34 24q74 67 122 145z" />
    <glyph glyph-name="u26DA3" unicode="&#xe3ba;" 
d="M927 703h-217v-82h-42v82h-143v39h143v98h42v-98h217v-39zM845 205q0 -31 -21.5 -46.5t-44.5 -15.5h-72l-16 39l84 -2q12 0 21.5 9.5t9.5 23.5v405h39v-413zM653 263h-40v297h40v-297zM475 703h-142v-82h-43v82h-216v39h216v95h43v-95h142v-39zM913 -47q-4 -2 -11.5 -5.5
t-13.5 -7t-10 -6.5q-61 83 -142 152q27 15 35 19q77 -62 142 -152zM539 550h-239q-7 -48 -27 -86h240q-9 -57 -31.5 -105t-65 -96t-116.5 -87t-176 -64l-27 39q164 41 236 93q-42 56 -105 98l33 27q59 -45 104 -100q72 60 102 158h-214q-34 -58 -130 -123l-31 30
q81 53 119.5 103.5t49.5 112.5h-157v38h435v-38zM692 -38l-35 -19q-51 68 -123 140q6 4 34 18q59 -55 124 -139zM467 -42l-38 -15q-44 76 -98 143l36 13q50 -60 100 -141zM232 80q-50 -73 -123 -149l-34 24q74 67 122 145z" />
    <glyph glyph-name="uni55EC" unicode="&#xe3c0;" 
d="M925 694h-157v-79h-39v79h-91v36h91v94h39v-94h157v-36zM598 694h-103v-79h-39v79h-143v36h143v94h39v-94h103v-36zM924 498h-80v-481q0 -32 -18.5 -50.5t-46.5 -18.5h-73l-17 40l86 -1q29 0 29 34v478h-321v36h441v-37zM708 76h-38v54h-118v-79h-39v340h195v-315z
M481 588q-16 -50 -66 -154v-498h-39v428q-23 -45 -69 -99l-26 28q109 135 168 312zM275 171h-38v67h-111v-93h-39v573h188v-547zM670 165v190h-118v-190h118zM236 276v406h-110v-406h110z" />
    <glyph glyph-name="uni855A" unicode="&#xe3ca;" 
 />
    <glyph glyph-name="uniE3CB" unicode="&#xe3cb;" 
d="M948 708h-163v-68h-38v68h-101v36h101v88h38v-88h163v-36zM606 708h-100v-68h-38v68h-161v36h161v88h38v-88h100v-36zM905 -3q0 -25 -15.5 -38t-39.5 -13h-57l-14 36l58 -2q15 -1 22.5 9t7.5 26v209h-223v-112l101 12l-23 56l31 16l61 -143l-32 -17l-21 53l-307 -39
l-11 40l162 15v119h-222v-288h-38v288h-52v36h52v58h38v-58h222v80h-201v268h442v-268h-202v-80h261v-263zM300 822q-12 -30 -44 -97.5t-35 -74.5v-719h-40v637q-17 -37 -99 -181l-31 24q121 196 215 428l11 -5.5t12.5 -6t10.5 -5.5zM808 492v81h-164v-81h164zM808 376v80
h-164v-80h164zM605 492v81h-163v-81h163zM605 376v80h-163v-80h163z" />
    <glyph glyph-name="uniE3CB" unicode="&#x3496;" 
d="M948 708h-163v-68h-38v68h-101v36h101v88h38v-88h163v-36zM606 708h-100v-68h-38v68h-161v36h161v88h38v-88h100v-36zM905 -3q0 -25 -15.5 -38t-39.5 -13h-57l-14 36l58 -2q15 -1 22.5 9t7.5 26v209h-223v-112l101 12l-23 56l31 16l61 -143l-32 -17l-21 53l-307 -39
l-11 40l162 15v119h-222v-288h-38v288h-52v36h52v58h38v-58h222v80h-201v268h442v-268h-202v-80h261v-263zM300 822q-12 -30 -44 -97.5t-35 -74.5v-719h-40v637q-17 -37 -99 -181l-31 24q121 196 215 428l11 -5.5t12.5 -6t10.5 -5.5zM808 492v81h-164v-81h164zM808 376v80
h-164v-80h164zM605 492v81h-163v-81h163zM605 376v80h-163v-80h163z" />
    <glyph glyph-name="u25BE4" unicode="&#x25be4;" 
d="M934 716h-205q37 -49 62 -89l-35 -17q-34 61 -70 106h-50q-45 -62 -89 -105l-31 21q96 93 161 219l34 -14q-19 -38 -51 -86h274v-35zM909 439h-833v36h308l31 79h-235v36h249l22 65l38 -13l-19 -52h269v-115h170v-36zM528 716h-184q21 -27 58 -84l-35 -17q-27 50 -67 101
h-56q-64 -78 -141 -139l-27 28q126 96 220 243q9 -3 31 -18q-24 -36 -58 -79h259v-35zM924 25h-390v-97h-41v97h-380l63 158h317v54h-275v153h549v-153h-233v-54h289v-35h-289v-86h390v-37zM698 475v79h-241l-30 -79h271zM726 273v82h-466v-82h466zM493 62v86h-289l-34 -86
h323z" />
    <glyph glyph-name="u25BE4" unicode="&#xe3cf;" 
d="M934 716h-205q37 -49 62 -89l-35 -17q-34 61 -70 106h-50q-45 -62 -89 -105l-31 21q96 93 161 219l34 -14q-19 -38 -51 -86h274v-35zM909 439h-833v36h308l31 79h-235v36h249l22 65l38 -13l-19 -52h269v-115h170v-36zM528 716h-184q21 -27 58 -84l-35 -17q-27 50 -67 101
h-56q-64 -78 -141 -139l-27 28q126 96 220 243q9 -3 31 -18q-24 -36 -58 -79h259v-35zM924 25h-390v-97h-41v97h-380l63 158h317v54h-275v153h549v-153h-233v-54h289v-35h-289v-86h390v-37zM698 475v79h-241l-30 -79h271zM726 273v82h-466v-82h466zM493 62v86h-289l-34 -86
h323z" />
    <glyph glyph-name="uni844A" unicode="&#xe3d4;" 
 />
    <glyph glyph-name="uni7958" unicode="&#xe3d6;" 
 />
    <glyph glyph-name="CNS1.14310" 
d="M932 697h-224v-80h-38v80h-143v36h143v109h38v-109h224v-36zM938 350h-672v35h305v61h-223v35h223v57h-250v35h250v79h38v-79h273v-35h-273v-57h241v-34h-241v-62h329v-35zM472 697h-136v-62h-38v62h-230v36h230v108h38v-108h136v-36zM817 -6q0 -26 -17 -40.5t-43 -14.5
h-98l-11 39l102 -3q29 -1 29 27v116h-383v-190h-38v371h459v-305zM305 606q-11 -26 -25 -52.5t-33.5 -62.5t-27.5 -51v-513h-38v450h-2q-39 -77 -117 -160l-27 26q61 55 128 170t112 212zM779 153v111h-171v-111h171zM571 153v111h-175v-111h175z" />
    <glyph glyph-name="uniE3DE" unicode="&#xe3de;" 
d="M930 682h-223v-105h-42v105h-139v37h139v115h42v-115h223v-37zM474 682h-139v-105h-42v105h-223v37h223v115h42v-115h139v-37zM948 129h-429v-190h-42v190h-425v38h425v140h-328v38h328v129q-240 -21 -343 -26q-2 5 -5.5 19.5t-5.5 19.5q167 5 354 24v109h42v-103
q146 14 328 51q11 -13 23 -33q-180 -36 -351 -56v-134h333v-38h-333v-140h429v-38z" />
    <glyph glyph-name="uniE3DE" unicode="&#x44a0;" 
d="M930 682h-223v-105h-42v105h-139v37h139v115h42v-115h223v-37zM474 682h-139v-105h-42v105h-223v37h223v115h42v-115h139v-37zM948 129h-429v-190h-42v190h-425v38h425v140h-328v38h328v129q-240 -21 -343 -26q-2 5 -5.5 19.5t-5.5 19.5q167 5 354 24v109h42v-103
q146 14 328 51q11 -13 23 -33q-180 -36 -351 -56v-134h333v-38h-333v-140h429v-38z" />
    <glyph glyph-name="u25C91" unicode="&#x25c91;" 
d="M934 716h-205q44 -57 54 -74l-35 -17q-25 44 -62 91h-49q-42 -59 -87 -101h213v-203h-526v203h302l-23 17q96 93 161 219l35 -14q-19 -38 -51 -86h273v-35zM528 716h-184q39 -50 54 -74l-35 -17q-19 35 -63 91h-55q-64 -78 -141 -139l-28 28q126 96 220 243q11 -4 32 -18
q-24 -36 -58 -79h258v-35zM876 214h-751v147h751v-147zM947 -44l-18 -34q-245 28 -433 89q-185 -60 -427 -96l-16 36q279 37 407 80q-129 57 -196 100h-93v35h592v-29q-128 -74 -225 -107q158 -48 409 -74zM724 531v48h-448v-48h448zM837 250v75h-200v-75h200zM724 446v51
h-448v-51h448zM599 250v75h-200v-75h200zM693 131h-369q89 -50 177 -82q106 37 192 82zM361 250v75h-197v-75h197z" />
    <glyph glyph-name="u25C91" unicode="&#xe3e1;" 
d="M934 716h-205q44 -57 54 -74l-35 -17q-25 44 -62 91h-49q-42 -59 -87 -101h213v-203h-526v203h302l-23 17q96 93 161 219l35 -14q-19 -38 -51 -86h273v-35zM528 716h-184q39 -50 54 -74l-35 -17q-19 35 -63 91h-55q-64 -78 -141 -139l-28 28q126 96 220 243q11 -4 32 -18
q-24 -36 -58 -79h258v-35zM876 214h-751v147h751v-147zM947 -44l-18 -34q-245 28 -433 89q-185 -60 -427 -96l-16 36q279 37 407 80q-129 57 -196 100h-93v35h592v-29q-128 -74 -225 -107q158 -48 409 -74zM724 531v48h-448v-48h448zM837 250v75h-200v-75h200zM724 446v51
h-448v-51h448zM599 250v75h-200v-75h200zM693 131h-369q89 -50 177 -82q106 37 192 82zM361 250v75h-197v-75h197z" />
    <glyph glyph-name="uniE3EA" unicode="&#xe3ea;" 
d="M929 705h-222v-71h-40v71h-141v37h141v88h40v-88h222v-37zM913 277h-168q-29 0 -42 15t-13 33v80h-128q-31 -114 -171 -163q-17 24 -26 33q65 19 103.5 49.5t54.5 80.5h-169v37h249v88h-199v36h199v77h41v-77h215v-36h-215v-88h266v-37h-180v-71q0 -23 35 -23h148v-34z
M475 705h-143v-71h-40v71h-221v37h221v88h40v-88h143v-37zM933 -44l-25 -31q-169 52 -275 113q-117 -63 -288 -115l-24 30q187 56 282 105q-52 36 -127 99q-54 -63 -102 -101l-29 22q65 52 105 101q-6 6 -19.5 19t-20.5 20l27 20q6 -5 19 -17t17 -15q27 33 56 81
q18 -11 30 -16q-22 -34 -41 -57h316v-29q-74 -68 -169 -128q97 -57 268 -101zM353 600l-110 -208q58 -60 77 -106q24 -50 4 -99.5t-77 -55.5h-65l-15 39l73 -3q38 2 50 34.5t-3 69.5q-21 56 -88 112l97 181h-149v-641h-40v677h246zM779 180h-280q22 -20 66 -53.5t70 -50.5
q93 55 144 104z" />
    <glyph glyph-name="uniE3EA" unicode="&#x4516;" 
d="M929 705h-222v-71h-40v71h-141v37h141v88h40v-88h222v-37zM913 277h-168q-29 0 -42 15t-13 33v80h-128q-31 -114 -171 -163q-17 24 -26 33q65 19 103.5 49.5t54.5 80.5h-169v37h249v88h-199v36h199v77h41v-77h215v-36h-215v-88h266v-37h-180v-71q0 -23 35 -23h148v-34z
M475 705h-143v-71h-40v71h-221v37h221v88h40v-88h143v-37zM933 -44l-25 -31q-169 52 -275 113q-117 -63 -288 -115l-24 30q187 56 282 105q-52 36 -127 99q-54 -63 -102 -101l-29 22q65 52 105 101q-6 6 -19.5 19t-20.5 20l27 20q6 -5 19 -17t17 -15q27 33 56 81
q18 -11 30 -16q-22 -34 -41 -57h316v-29q-74 -68 -169 -128q97 -57 268 -101zM353 600l-110 -208q58 -60 77 -106q24 -50 4 -99.5t-77 -55.5h-65l-15 39l73 -3q38 2 50 34.5t-3 69.5q-21 56 -88 112l97 181h-149v-641h-40v677h246zM779 180h-280q22 -20 66 -53.5t70 -50.5
q93 55 144 104z" />
    <glyph glyph-name="uni8616" unicode="&#xe3ec;" 
d="M929 716h-214v-61h-40v61h-149v37h149v77h40v-77h214v-37zM891 551h-385v35h175l-57 64l34 22l66 -86h167v-35zM924 413h-206v-70h173v-35h-173v-83h-38v83h-174v35h174v70h-200v35h145l-63 66l31 20l77 -86h58l86 89l31 -20l-68 -69h147v-35zM475 716h-132v-68h-40v68
h-232v37h233v77h40v-77h131v-37zM443 250h-312v349h78l45 85l33 -16l-39 -69h185v-141h-261v-61h271v-147zM943 -17q-11 -16 -23 -30q-218 69 -402 204v-231h-38v231q-190 -133 -393 -200q-5 5 -13.5 16t-11.5 15q207 69 360 169h-345v35h403v64h38v-64h417v-35h-362
q202 -132 370 -174zM395 493v71h-223v-71h223zM402 285v77h-230v-77h230z" />
    <glyph glyph-name="u2863B" unicode="&#x2863b;" 
 />
    <glyph glyph-name="u2863B" unicode="&#xe3ee;" 
 />
    <glyph glyph-name="uni85C1" unicode="&#xe3ef;" 
d="M923 732h-216v-54h-40v54h-142v37h142v75h40v-75h216v-37zM914 616h-828v34h402l-36 48l36 14l39 -62h387v-34zM473 732h-142v-54h-40v54h-214v37h214v75h40v-75h142v-37zM761 456h-518v118h518v-118zM884 257q0 -63 -67 -63h-41l-11 37l43 -2q21 -1 28 6t7 26v109h-674
v-189h-42v223h757v-147zM949 10l-23 -36q-242 27 -385 129h-21v-162h-40v162h-24q-136 -110 -386 -130l-20 36q232 12 350 93h-333v34h413v64h-183v115h409v-115h-186v-63h406v-35h-328q148 -79 351 -92zM723 487v56h-443v-56h443zM669 230v55h-338v-55h338z" />
    <glyph glyph-name="u21582" unicode="&#x21582;" 
d="M923 732h-315v-44h-40v156h40v-75h315v-37zM945 431q-7 -29 -12 -45t-14.5 -34t-23.5 -26t-33 -8h-111q-33 0 -51 18.5t-18 45.5v252h199v-175h-162v-72q0 -16 11 -25t28 -9h98q25 0 35.5 18.5t25.5 75.5zM432 688h-40v44h-315v37h315v75h40v-156zM665 639h-142l-30 -40
h136v-230h-258v230h80l32 40h-152v33h334v-33zM685 291l-21 -30q-56 38 -132 65l16 29q81 -30 137 -64zM460 326q-97 -49 -161 -61l-15 31q101 25 159 59q8 -13 17 -29zM344 383l-278 -85l-15 34l61 16v238h36v-228l64 18v294h36v-124h86v-35h-86v-124l96 30v-34zM931 -44
l-19 -32q-133 28 -224.5 53.5t-181.5 67.5q-168 -80 -441 -120l-16 37q286 42 416 105q-106 57 -135 78q-78 -64 -118 -90l-25 26q147 100 261 230l28 -19q-30 -35 -57 -59h284v-39q-33 -32 -80 -69t-80 -57q85 -39 173.5 -63t214.5 -49zM844 494v105h-125v-105h125z
M594 533v33h-188v-33h188zM594 467v35h-188v-35h188zM594 401v35h-188v-35h188zM656 198h-270l-30 -29q38 -29 147 -82q86 48 153 111z" />
    <glyph glyph-name="u21582" unicode="&#xe3f2;" 
d="M923 732h-315v-44h-40v156h40v-75h315v-37zM945 431q-7 -29 -12 -45t-14.5 -34t-23.5 -26t-33 -8h-111q-33 0 -51 18.5t-18 45.5v252h199v-175h-162v-72q0 -16 11 -25t28 -9h98q25 0 35.5 18.5t25.5 75.5zM432 688h-40v44h-315v37h315v75h40v-156zM665 639h-142l-30 -40
h136v-230h-258v230h80l32 40h-152v33h334v-33zM685 291l-21 -30q-56 38 -132 65l16 29q81 -30 137 -64zM460 326q-97 -49 -161 -61l-15 31q101 25 159 59q8 -13 17 -29zM344 383l-278 -85l-15 34l61 16v238h36v-228l64 18v294h36v-124h86v-35h-86v-124l96 30v-34zM931 -44
l-19 -32q-133 28 -224.5 53.5t-181.5 67.5q-168 -80 -441 -120l-16 37q286 42 416 105q-106 57 -135 78q-78 -64 -118 -90l-25 26q147 100 261 230l28 -19q-30 -35 -57 -59h284v-39q-33 -32 -80 -69t-80 -57q85 -39 173.5 -63t214.5 -49zM844 494v105h-125v-105h125z
M594 533v33h-188v-33h188zM594 467v35h-188v-35h188zM594 401v35h-188v-35h188zM656 198h-270l-30 -29q38 -29 147 -82q86 48 153 111z" />
    <glyph glyph-name="uniE3F7" unicode="&#xe3f7;" 
d="M887 343h-226q-24 0 -42.5 12t-18.5 39v69l-132 -14l-7 35l139 14v97h40v-92l157 17l4 -34l-161 -18v-65q0 -10 8.5 -17t22.5 -7h216v-36zM919 657l-49 -130l-35 12l34 81h-433v-306q0 -112 -49 -214t-135 -180q-24 27 -29 32q174 150 174 367v338h200v184h40v-70h234
v-35h-234v-79h282zM940 114q-9 -58 -16 -91q-6 -31 -22.5 -45t-35.5 -14h-92q-24 0 -41 15.5t-17 42.5v257h40v-252q0 -27 27 -27h75q24 0 30 30l17 98zM362 262l-288 -126l-23 35l142 56v283h-124v37h124v238h40v-238h115v-37h-115v-263l129 54v-39zM602 278q0 -68 -5 -101
q-21 -150 -177 -250l-29 29q148 98 166 221q1 8 4 105z" />
    <glyph glyph-name="uniE3F7" unicode="&#x3648;" 
d="M887 343h-226q-24 0 -42.5 12t-18.5 39v69l-132 -14l-7 35l139 14v97h40v-92l157 17l4 -34l-161 -18v-65q0 -10 8.5 -17t22.5 -7h216v-36zM919 657l-49 -130l-35 12l34 81h-433v-306q0 -112 -49 -214t-135 -180q-24 27 -29 32q174 150 174 367v338h200v184h40v-70h234
v-35h-234v-79h282zM940 114q-9 -58 -16 -91q-6 -31 -22.5 -45t-35.5 -14h-92q-24 0 -41 15.5t-17 42.5v257h40v-252q0 -27 27 -27h75q24 0 30 30l17 98zM362 262l-288 -126l-23 35l142 56v283h-124v37h124v238h40v-238h115v-37h-115v-263l129 54v-39zM602 278q0 -68 -5 -101
q-21 -150 -177 -250l-29 29q148 98 166 221q1 8 4 105z" />
    <glyph glyph-name="u2A0F8" unicode="&#x2a0f8;" 
d="M947 370h-338v-71h314q-7 -164 -27 -280q-9 -50 -28.5 -66.5t-68.5 -15.5l-58 6l-10 40q47 -5 70 -7q30 -3 40 7.5t16 39.5q20 95 25 237h-312v481h89q14 17 31 43.5t26 44.5l10 18l33 -20q-38 -62 -56 -86h183v-264h-277v-70h338v-37zM847 105l-30 -15q-21 79 -52 133
l29 13q31 -58 53 -131zM765 71q-4 -1 -16 -5l-18 -6q-14 84 -42 143q16 4 31 9q26 -62 45 -141zM661 48q-2 0 -15.5 -2.5t-19.5 -3.5q5 83 -6 158q4 0 16 1t16 2q10 -86 9 -155zM527 262h-185v-323h-38v323q-33 -77 -98.5 -155t-136.5 -127l-28 29q70 45 129 113.5t95 139.5
h-196v37h234v90h-153v265h-68v36h69v108h37v-108h84v145h36v-145h97v146h36v-146h86v-36h-86v-161h-169v161h-84v-229h310v-36h-156v-90h185v-37zM589 201q-24 -114 -67 -198q-24 14 -33 19q49 90 67 191q1 0 14.5 -5t18.5 -7zM498 98q-23 -18 -30 -23q-45 81 -102 131
q18 16 26 23q68 -64 106 -131zM846 629v75h-237v-75h237zM846 514v79h-237v-79h237zM405 530v124h-97v-124h97z" />
    <glyph glyph-name="u2A0F8" unicode="&#xe3fd;" 
d="M947 370h-338v-71h314q-7 -164 -27 -280q-9 -50 -28.5 -66.5t-68.5 -15.5l-58 6l-10 40q47 -5 70 -7q30 -3 40 7.5t16 39.5q20 95 25 237h-312v481h89q14 17 31 43.5t26 44.5l10 18l33 -20q-38 -62 -56 -86h183v-264h-277v-70h338v-37zM847 105l-30 -15q-21 79 -52 133
l29 13q31 -58 53 -131zM765 71q-4 -1 -16 -5l-18 -6q-14 84 -42 143q16 4 31 9q26 -62 45 -141zM661 48q-2 0 -15.5 -2.5t-19.5 -3.5q5 83 -6 158q4 0 16 1t16 2q10 -86 9 -155zM527 262h-185v-323h-38v323q-33 -77 -98.5 -155t-136.5 -127l-28 29q70 45 129 113.5t95 139.5
h-196v37h234v90h-153v265h-68v36h69v108h37v-108h84v145h36v-145h97v146h36v-146h86v-36h-86v-161h-169v161h-84v-229h310v-36h-156v-90h185v-37zM589 201q-24 -114 -67 -198q-24 14 -33 19q49 90 67 191q1 0 14.5 -5t18.5 -7zM498 98q-23 -18 -30 -23q-45 81 -102 131
q18 16 26 23q68 -64 106 -131zM846 629v75h-237v-75h237zM846 514v79h-237v-79h237zM405 530v124h-97v-124h97z" />
    <glyph glyph-name="uni87DA" unicode="&#xe401;" 
 />
    <glyph glyph-name="uni880F" unicode="&#xee3e;" 
 />
    <glyph glyph-name="uni880F" unicode="&#xe402;" 
 />
    <glyph glyph-name="uni5661" unicode="&#xe403;" 
 />
    <glyph glyph-name="uni866C" unicode="&#xe404;" 
d="M944 122q-13 -61 -27 -110q-19 -66 -77 -66h-120q-39 0 -59.5 20.5t-20.5 56.5v786h40v-782q0 -19 10.5 -30.5t27.5 -11.5h118q33 0 45 44l25 115zM549 6q-27 -13 -38 -17q-24 60 -42 98l-394 -92l-17 40l220 46v209h-166v328h166v191h39v-191h166v-328h-166v-199
q117 25 135 30q-15 34 -45 81q25 11 37 16q50 -80 105 -212zM444 327v254h-127v-254h127zM278 327v254h-127v-254h127z" />
    <glyph glyph-name="uniE406" unicode="&#xe406;" 
d="M921 799l-123 -313q64 -81 100 -157q20 -43 21.5 -91t-24 -88.5t-77.5 -50.5q-24 -5 -82 -1l-19 41q67 -8 96 -1q37 9 53.5 40t13.5 66t-18 68q-37 82 -107 170l112 280h-189v-824l-40 -2v863h283zM588 108l-542 -88l-12 38l88 14v574h95q52 84 84 186l35 -17
q-31 -92 -75 -169h263v-511l64 10v-37zM486 129v480h-80v-493zM370 111v498h-84v-511zM250 92v517h-90v-531z" />
    <glyph glyph-name="uniE406" unicode="&#x460f;" 
d="M921 799l-123 -313q64 -81 100 -157q20 -43 21.5 -91t-24 -88.5t-77.5 -50.5q-24 -5 -82 -1l-19 41q67 -8 96 -1q37 9 53.5 40t13.5 66t-18 68q-37 82 -107 170l112 280h-189v-824l-40 -2v863h283zM588 108l-542 -88l-12 38l88 14v574h95q52 84 84 186l35 -17
q-31 -92 -75 -169h263v-511l64 10v-37zM486 129v480h-80v-493zM370 111v498h-84v-511zM250 92v517h-90v-531z" />
    <glyph glyph-name="u275E0" unicode="&#x275e0;" 
d="M913 735h-289v37h289v-37zM544 584l-32 -27q-62 86 -148 156l29 29q84 -71 151 -158zM949 511h-134v-502q0 -75 -71 -75h-77l-17 43l89 -2q19 -1 26.5 7.5t7.5 28.5v500h-184v37h360v-37zM305 824q-96 -174 -211 -284l-33 25q117 108 211 278zM560 314
q-106 -213 -217 -339l-32 28q128 143 217 336zM330 592q-57 -97 -99 -155v-509h-42v453q-66 -86 -102 -119l-35 26q125 116 243 323z" />
    <glyph glyph-name="u275E0" unicode="&#xe409;" 
d="M913 735h-289v37h289v-37zM544 584l-32 -27q-62 86 -148 156l29 29q84 -71 151 -158zM949 511h-134v-502q0 -75 -71 -75h-77l-17 43l89 -2q19 -1 26.5 7.5t7.5 28.5v500h-184v37h360v-37zM305 824q-96 -174 -211 -284l-33 25q117 108 211 278zM560 314
q-106 -213 -217 -339l-32 28q128 143 217 336zM330 592q-57 -97 -99 -155v-509h-42v453q-66 -86 -102 -119l-35 26q125 116 243 323z" />
    <glyph glyph-name="uni8987" unicode="&#xe415;" 
 />
    <glyph glyph-name="CNS1.14371" 
d="M940 749h-299v-56h231v-153h-731v153h229v56h-297v34h867v-34zM902 212q0 -140 -19 -224q-13 -60 -86 -55l-70 11l-10 37q52 -9 78 -12q43 -6 52 26q16 61 16 185h-364v313h402v-34h-189v-57h161v-33h-161v-61h160v-33h-160v-63h190zM830 56q-3 -2 -28 -18
q-22 56 -57 106q20 10 28 15q42 -67 57 -103zM737 19l-31 -12q-16 69 -42 120l30 11q28 -60 43 -119zM641 -9l-35 -7q-2 71 -21 139l31 8q19 -62 25 -140zM562 119q-33 -85 -90 -158l-30 21q56 70 91 153zM477 429h-82v-85h-91v-54h126v-148h-126v-55h172v-33h-172v-128h-35
v128h-209v33h209v55h-127v148h127v54h-80v85h-114v34h114v59h36v-59h134v59h36v-59h82v-34zM833 575v84h-192v-84h192zM602 693v56h-193v-56h193zM602 575v84h-193v-84h193zM676 402v57h-142v-57h142zM676 308v61h-142v-61h142zM370 575v84h-189v-84h189zM676 212v63h-142
v-63h142zM359 378v51h-134v-51h134zM394 175v82h-90v-82h90zM269 175v82h-92v-82h92z" />
    <glyph glyph-name="CNS1.14373" 
d="M364 530h136v-37h-163q-78 -83 -107 -102h213v-364h-245v-78h-39v377q-22 -23 -91 -79l-29 30q119 87 250 215h-234v38h186v135h-147v37h147v129l40 -1v-128h144l1 -29q17 22 65 91l29 -21q-15 -21 -39.5 -56.5t-36 -52t-28 -39t-28.5 -37.5t-24 -28zM403 237v116h-205
v-116h205zM198 64h205v135h-205v-135zM421 665h-141v-135h38q50 59 103 135zM743 280l-74 -1q-1 -133 -56.5 -211t-193.5 -141q-6 4 -12.5 15t-9.5 14q136 64 185.5 132t50.5 192h-88v507h320v-507h-83v-233q0 -33 24 -36q4 0 20 -2t24.5 -2.5t20.5 1.5t19 8q13 13 19 42
q14 66 16 89l35 -15q-6 -43 -23 -108q-13 -51 -61 -53q-3 0 -16 -0.5t-17 -0.5t-16 0.5t-17 1.5t-14.5 2.5t-15 4.5t-11.5 7.5t-11 10.5q-15 20 -15 45v238zM826 483v117h-242v-117h242zM826 637v112h-242v-112h242zM826 317v129h-242v-129h242z" />
    <glyph glyph-name="uni89BC" unicode="&#xe41a;" 
 />
    <glyph glyph-name="u28A25" unicode="&#x28a25;" 
d="M898 497h-126q-64 0 -64 70v134h36v-133q0 -34 30 -34h124v-37zM896 613h-39v120h-386v-121h-39v158h464v-157zM627 686q-15 -90 -61 -141.5t-134 -79.5l-18 32q86 23 126 69t55 134zM944 20l-24 -30q-80 75 -143 177.5t-94 195.5v-427h-37v429q-29 -99 -94 -204.5
t-145 -174.5l-26 27q82 73 142 166t88 186h-195v36h230v78h37v-78h227v-36h-194q32 -94 92 -185.5t136 -159.5zM409 622l-28 -27q-64 85 -142 143q-60 -137 -82 -170h206v-38h-100v-124h126v-37h-126v-310l139 36v-38l-331 -85l-15 37l167 41v319h-147v37h147v124h-88
q-22 -35 -53 -77q-6 3 -16 12t-14 12q60 76 110 174.5t76 186.5q5 -1 10 -4t11.5 -6.5t9.5 -5.5l-18 -48q79 -59 158 -152zM400 288q-31 -102 -81 -182q-4 2 -14.5 8t-16.5 9q52 82 80 179zM179 109l-35 -14q-22 83 -69 188l35 15q40 -85 69 -189z" />
    <glyph glyph-name="u28A25" unicode="&#xe41b;" 
d="M898 497h-126q-64 0 -64 70v134h36v-133q0 -34 30 -34h124v-37zM896 613h-39v120h-386v-121h-39v158h464v-157zM627 686q-15 -90 -61 -141.5t-134 -79.5l-18 32q86 23 126 69t55 134zM944 20l-24 -30q-80 75 -143 177.5t-94 195.5v-427h-37v429q-29 -99 -94 -204.5
t-145 -174.5l-26 27q82 73 142 166t88 186h-195v36h230v78h37v-78h227v-36h-194q32 -94 92 -185.5t136 -159.5zM409 622l-28 -27q-64 85 -142 143q-60 -137 -82 -170h206v-38h-100v-124h126v-37h-126v-310l139 36v-38l-331 -85l-15 37l167 41v319h-147v37h147v124h-88
q-22 -35 -53 -77q-6 3 -16 12t-14 12q60 76 110 174.5t76 186.5q5 -1 10 -4t11.5 -6.5t9.5 -5.5l-18 -48q79 -59 158 -152zM400 288q-31 -102 -81 -182q-4 2 -14.5 8t-16.5 9q52 82 80 179zM179 109l-35 -14q-22 83 -69 188l35 15q40 -85 69 -189z" />
    <glyph glyph-name="u27924" unicode="&#x27924;" 
d="M940 353h-416v250q-34 -74 -63 -119l-29 27q84 121 135 324l36 -16q-19 -59 -33 -100h159q-11 29 -41 87l35 15q27 -49 43 -102h161v-35h-185v-73h157v-35h-157v-73h157v-35h-157v-81h198v-34zM924 163q-13 -105 -27 -163q-9 -37 -28.5 -48t-53.5 -8l-67 14l-7 44
q57 -16 72 -18q38 -7 48 29q10 39 19 115h-131l44 114h-137q-20 -108 -68.5 -185t-140.5 -121l-22 33q86 41 130 103.5t62 169.5h-134v36h361l-43 -115h123zM420 21q0 -34 -19 -52.5t-50 -18.5h-81l-15 39l93 -3q14 -1 23.5 9t9.5 27v180h-210q0 -138 -82 -274q-7 4 -18 14
t-13 12q39 67 57 122.5t18 133.5v343q-17 -36 -50 -82q-5 3 -16 11t-16 11q108 156 171 346l34 -14q-4 -16 -10.5 -33t-16 -37.5t-13.5 -31.5h151v-32l-58 -115h111v-555zM703 611v73h-140v-73h140zM703 503v73h-140v-73h140zM703 387v81h-140v-81h140zM324 686h-123
q-8 -16 -26.5 -53.5t-27.5 -56.5h119zM381 409v130h-88v-130h88zM257 409v130h-85v-130h85zM381 238v137h-88v-137h88zM257 238v137h-85v-137h85z" />
    <glyph glyph-name="u27924" unicode="&#xe41d;" 
d="M940 353h-416v250q-34 -74 -63 -119l-29 27q84 121 135 324l36 -16q-19 -59 -33 -100h159q-11 29 -41 87l35 15q27 -49 43 -102h161v-35h-185v-73h157v-35h-157v-73h157v-35h-157v-81h198v-34zM924 163q-13 -105 -27 -163q-9 -37 -28.5 -48t-53.5 -8l-67 14l-7 44
q57 -16 72 -18q38 -7 48 29q10 39 19 115h-131l44 114h-137q-20 -108 -68.5 -185t-140.5 -121l-22 33q86 41 130 103.5t62 169.5h-134v36h361l-43 -115h123zM420 21q0 -34 -19 -52.5t-50 -18.5h-81l-15 39l93 -3q14 -1 23.5 9t9.5 27v180h-210q0 -138 -82 -274q-7 4 -18 14
t-13 12q39 67 57 122.5t18 133.5v343q-17 -36 -50 -82q-5 3 -16 11t-16 11q108 156 171 346l34 -14q-4 -16 -10.5 -33t-16 -37.5t-13.5 -31.5h151v-32l-58 -115h111v-555zM703 611v73h-140v-73h140zM703 503v73h-140v-73h140zM703 387v81h-140v-81h140zM324 686h-123
q-8 -16 -26.5 -53.5t-27.5 -56.5h119zM381 409v130h-88v-130h88zM257 409v130h-85v-130h85zM381 238v137h-88v-137h88zM257 238v137h-85v-137h85z" />
    <glyph glyph-name="uni8A9C" unicode="&#xe41f;" 
 />
    <glyph glyph-name="uni7793" unicode="&#xe420;" 
d="M889 -79h-36v908h36v-908zM489 706l-30 -19q-42 81 -84 131l30 19q57 -75 84 -131zM771 56h-37v649h37v-649zM593 638h-280v35h280v-35zM550 513h-195v35h195v-35zM657 288q0 -100 -34 -200t-100 -163l-29 22q125 120 125 341v540h38v-540zM550 392h-195v35h195v-35z
M541 33h-142v-75h-38v332h180v-257zM292 17h-37v69h-114l1 -100h-37v769h187v-738zM256 551v169h-114v-169h114zM256 338v178h-115v-178h115zM502 67v188h-103v-188h103zM256 120v184h-115v-184h115z" />
    <glyph glyph-name="u27A59" unicode="&#x27a59;" 
d="M880 276h-264l-1 471h265v-471zM943 11l-19 -39h-237q-84 0 -139.5 35.5t-109.5 110.5q-57 -90 -144 -182q-21 23 -24 26q93 93 147 189q-43 81 -70 221q17 5 34 6q25 -129 57 -190q33 73 63 251h-147v37l127 266h-142v36h195l-140 -302h148q-15 -106 -32.5 -181
t-49.5 -142q46 -71 100.5 -108t130.5 -37zM231 711l-35 -13q-18 64 -58 128q15 5 34 15q39 -65 59 -130zM930 120h-370v31h370v-31zM337 655h-286v36h286v-36zM297 517h-204v36h204v-36zM297 378h-204v36h204v-36zM297 23h-163v-76h-39v327h202v-251zM845 538v178h-194v-178
h194zM845 306v202h-194v-202h194zM258 59v179h-124v-179h124z" />
    <glyph glyph-name="u27A59" unicode="&#xe423;" 
d="M880 276h-264l-1 471h265v-471zM943 11l-19 -39h-237q-84 0 -139.5 35.5t-109.5 110.5q-57 -90 -144 -182q-21 23 -24 26q93 93 147 189q-43 81 -70 221q17 5 34 6q25 -129 57 -190q33 73 63 251h-147v37l127 266h-142v36h195l-140 -302h148q-15 -106 -32.5 -181
t-49.5 -142q46 -71 100.5 -108t130.5 -37zM231 711l-35 -13q-18 64 -58 128q15 5 34 15q39 -65 59 -130zM930 120h-370v31h370v-31zM337 655h-286v36h286v-36zM297 517h-204v36h204v-36zM297 378h-204v36h204v-36zM297 23h-163v-76h-39v327h202v-251zM845 538v178h-194v-178
h194zM845 306v202h-194v-202h194zM258 59v179h-124v-179h124z" />
    <glyph glyph-name="u27B3A" unicode="&#x27b3a;" 
d="M947 718h-145v-77h-37v77h-83v36h83v80h37v-80h145v-36zM703 618l-27 -23q-35 45 -83 75l27 23q37 -22 83 -75zM645 718h-94v-77h-37v77h-131v36h131v80h37v-80h94v-36zM931 552h-528v36h528v-36zM921 275h-39v103h-439v-103h-39v138h286q47 54 89 128l33 -17
q-35 -61 -76 -111h185v-138zM619 438l-31 -17q-36 62 -83 103q5 3 16 9.5t15 8.5q49 -44 83 -104zM266 699l-31 -17q-42 79 -87 136l29 21q55 -66 89 -140zM400 634h-337v36h337v-36zM855 73q0 -20 -16.5 -39.5t-41.5 -19.5h-72l-17 34l82 -1q10 0 18 8t8 18v143h-144v-292
h-38v292h-134v-218h-39v252h173v94h38v-94h183v-177zM352 511h-239v36h239v-36zM353 387h-241v36h241v-36zM345 -39h-38v62h-148v-88h-38v350h224v-324zM307 59v190h-148v-190h148z" />
    <glyph glyph-name="u27B3A" unicode="&#xe425;" 
d="M947 718h-145v-77h-37v77h-83v36h83v80h37v-80h145v-36zM703 618l-27 -23q-35 45 -83 75l27 23q37 -22 83 -75zM645 718h-94v-77h-37v77h-131v36h131v80h37v-80h94v-36zM931 552h-528v36h528v-36zM921 275h-39v103h-439v-103h-39v138h286q47 54 89 128l33 -17
q-35 -61 -76 -111h185v-138zM619 438l-31 -17q-36 62 -83 103q5 3 16 9.5t15 8.5q49 -44 83 -104zM266 699l-31 -17q-42 79 -87 136l29 21q55 -66 89 -140zM400 634h-337v36h337v-36zM855 73q0 -20 -16.5 -39.5t-41.5 -19.5h-72l-17 34l82 -1q10 0 18 8t8 18v143h-144v-292
h-38v292h-134v-218h-39v252h173v94h38v-94h183v-177zM352 511h-239v36h239v-36zM353 387h-241v36h241v-36zM345 -39h-38v62h-148v-88h-38v350h224v-324zM307 59v190h-148v-190h148z" />
    <glyph glyph-name="uni8B0C" unicode="&#xe42a;" 
 />
    <glyph glyph-name="uni8B1F" unicode="&#xe42b;" 
d="M915 690q-53 -111 -117 -201l-34 20q64 85 120 199zM919 800q-200 -58 -528 -85l-16 35q292 22 522 85zM682 517l-39 -7q2 76 -19 177l36 6q19 -91 22 -176zM541 512l-35 -20q-28 70 -97 167l35 16q71 -104 97 -163zM282 705l-34 -18q-40 80 -89 135l33 19
q55 -70 90 -136zM392 637h-337v37h337v-37zM880 -71h-38v85h-369v-85h-38v483q95 21 195 71l22 -32q-84 -40 -178 -66v-131h157v-37h-158v-166h368v166h-158v37h158v143h-158v38h197v-506zM355 517h-254v38h254v-38zM356 394h-254v38h254v-38zM343 -30h-39v61h-142v-88h-39
v347h220v-320zM304 68v185h-142v-185h142z" />
    <glyph glyph-name="u25565" unicode="&#x25565;" 
d="M849 458h-301v198h301v-198zM892 108h-163v260h163v-260zM942 -29h-497v-48h-39v860h522v-38h-483v-737h497v-37zM666 108h-159v260h159v-260zM361 726h-127q-34 -151 -67 -234h149v-441h-40v65h-108v-92h-39v395q-17 -43 -57 -97l-31 27q116 146 153 378h-141v37h308
v-38zM809 496v123h-223v-123h223zM853 145v186h-86v-186h86zM628 145v186h-84v-186h84zM276 153v302h-108v-302h108z" />
    <glyph glyph-name="u25565" unicode="&#xe42d;" 
d="M849 458h-301v198h301v-198zM892 108h-163v260h163v-260zM942 -29h-497v-48h-39v860h522v-38h-483v-737h497v-37zM666 108h-159v260h159v-260zM361 726h-127q-34 -151 -67 -234h149v-441h-40v65h-108v-92h-39v395q-17 -43 -57 -97l-31 27q116 146 153 378h-141v37h308
v-38zM809 496v123h-223v-123h223zM853 145v186h-86v-186h86zM628 145v186h-84v-186h84zM276 153v302h-108v-302h108z" />
    <glyph glyph-name="CNS1.14395" 
d="M555 667l-34 -21q-37 83 -92 163l32 23q60 -87 94 -165zM922 294q0 -191 -17 -310q-6 -41 -38.5 -54.5t-78.5 -2.5l-67 17l-4 40q60 -15 77 -19q30 -10 49 -4t25 36q17 92 17 260h-385q-53 -93 -130 -201l-31 25q174 228 249 501h-188v38h199q32 114 54 215l37 -10
q-12 -64 -50 -205h213q-11 -70 -38 -160h76q-21 -112 -40 -166h71zM281 708l-32 -21q-42 77 -85 130l30 22q53 -64 87 -131zM850 90l-34 -18q-28 72 -69 131l32 17q54 -85 71 -130zM390 630h-309v38h309v-38zM743 41l-35 -14q-16 91 -41 150l34 11q33 -88 42 -147zM355 514
h-226v37h226v-37zM631 4l-40 -9q3 97 -10 170l35 5q15 -95 15 -166zM353 389h-222v37h222v-37zM549 170q-56 -129 -114 -203l-33 24q68 87 113 199zM329 -27h-38v59h-115v-88h-39v349h192v-320zM805 583h-177q-13 -48 -40 -124h185q22 61 32 124zM845 422h-272
q-30 -79 -55 -128h292q19 52 35 128zM291 70v185h-115v-185h115z" />
    <glyph glyph-name="uni8AA9" unicode="&#xe431;" 
 />
    <glyph glyph-name="u24A7A" unicode="&#x24a7a;" 
d="M594 745l-33 -25q-39 60 -98 105q2 1 14 10t17 13q48 -38 100 -103zM927 457h-567v36h261v80h-205v36h205v70h-238v36h276q60 67 98 135q5 -2 18 -9.5t16 -9.5q-42 -69 -84 -116h178v-36h-225v-70h203v-36h-202v-80h266v-36zM856 338l-28 -25q-34 53 -86 97l27 22
q44 -40 87 -94zM928 69q-11 -50 -19 -75q-9 -30 -20 -44.5t-30 -19t-46 16.5q-25 17 -50 51t-40 66q-64 -52 -136 -90l-21 31q82 41 142 92q-29 83 -37 156h-126v-88l105 29v-37l-105 -32v-135q0 -26 -19 -41t-46 -15h-66l-13 39l77 -2q28 0 28 22v120l-109 -31l-20 33
l129 36v102h-144v36h144v78q-64 -15 -110 -19l-14 34q129 14 231 54l22 -29q-39 -16 -90 -30v-89h122q-6 62 -6 148h37q0 -91 5 -147h223v-36h-219q10 -77 30 -132q67 62 103 121q4 -2 14.5 -8.5t15.5 -9.5q-24 -35 -58 -74.5t-59 -61.5q32 -71 78 -107q7 -5 12.5 -8
t9.5 -2.5t6.5 1.5t5 6.5t4 8.5t4 11t3.5 12l19 82zM336 259l-31 -17q-25 69 -55 117l30 15q37 -62 56 -115zM361 181l-286 -140l-22 34l130 59v302h-105v36h105v215h-113v37h279v-37h-127v-215h112v-36h-112v-283l139 69v-41z" />
    <glyph glyph-name="u24A7A" unicode="&#xe432;" 
d="M594 745l-33 -25q-39 60 -98 105q2 1 14 10t17 13q48 -38 100 -103zM927 457h-567v36h261v80h-205v36h205v70h-238v36h276q60 67 98 135q5 -2 18 -9.5t16 -9.5q-42 -69 -84 -116h178v-36h-225v-70h203v-36h-202v-80h266v-36zM856 338l-28 -25q-34 53 -86 97l27 22
q44 -40 87 -94zM928 69q-11 -50 -19 -75q-9 -30 -20 -44.5t-30 -19t-46 16.5q-25 17 -50 51t-40 66q-64 -52 -136 -90l-21 31q82 41 142 92q-29 83 -37 156h-126v-88l105 29v-37l-105 -32v-135q0 -26 -19 -41t-46 -15h-66l-13 39l77 -2q28 0 28 22v120l-109 -31l-20 33
l129 36v102h-144v36h144v78q-64 -15 -110 -19l-14 34q129 14 231 54l22 -29q-39 -16 -90 -30v-89h122q-6 62 -6 148h37q0 -91 5 -147h223v-36h-219q10 -77 30 -132q67 62 103 121q4 -2 14.5 -8.5t15.5 -9.5q-24 -35 -58 -74.5t-59 -61.5q32 -71 78 -107q7 -5 12.5 -8
t9.5 -2.5t6.5 1.5t5 6.5t4 8.5t4 11t3.5 12l19 82zM336 259l-31 -17q-25 69 -55 117l30 15q37 -62 56 -115zM361 181l-286 -140l-22 34l130 59v302h-105v36h105v215h-113v37h279v-37h-127v-215h112v-36h-112v-283l139 69v-41z" />
    <glyph glyph-name="uni8B9B" unicode="&#xe434;" 
 />
    <glyph glyph-name="uni8AAF" unicode="&#xe435;" 
 />
    <glyph glyph-name="u216DF" unicode="&#x216df;" 
d="M876 708l-26 -31q-65 73 -142 110l22 33q78 -42 146 -112zM955 106q-16 -68 -27 -104q-17 -53 -48 -56t-62 43q-43 63 -89 162q-85 -133 -190 -213q-6 3 -15.5 13.5t-14.5 13.5q122 96 204 227q-37 91 -60 208t-26 213h-145v-475l127 95l3 -44l-213 -161l-26 34l71 48
v540h181v203h40v-203h270v-37h-267q2 -92 21 -196.5t50 -185.5q72 132 109 324q34 -16 35 -16q-41 -199 -126 -351q33 -85 99 -184q24 -36 37 7l27 120zM371 98l-27 -30q-59 70 -94 102q-26 -48 -78 -113.5t-91 -101.5l-30 25q119 112 172 216q-36 36 -88 72l-9 -36l-35 8
l80 333h-114v36h121l52 222l36 -6l-49 -216h151q-31 -260 -102 -408zM326 573h-117l-64 -267q35 -23 95 -78q61 124 86 345z" />
    <glyph glyph-name="u216DF" unicode="&#xe436;" 
d="M876 708l-26 -31q-65 73 -142 110l22 33q78 -42 146 -112zM955 106q-16 -68 -27 -104q-17 -53 -48 -56t-62 43q-43 63 -89 162q-85 -133 -190 -213q-6 3 -15.5 13.5t-14.5 13.5q122 96 204 227q-37 91 -60 208t-26 213h-145v-475l127 95l3 -44l-213 -161l-26 34l71 48
v540h181v203h40v-203h270v-37h-267q2 -92 21 -196.5t50 -185.5q72 132 109 324q34 -16 35 -16q-41 -199 -126 -351q33 -85 99 -184q24 -36 37 7l27 120zM371 98l-27 -30q-59 70 -94 102q-26 -48 -78 -113.5t-91 -101.5l-30 25q119 112 172 216q-36 36 -88 72l-9 -36l-35 8
l80 333h-114v36h121l52 222l36 -6l-49 -216h151q-31 -260 -102 -408zM326 573h-117l-64 -267q35 -23 95 -78q61 124 86 345z" />
    <glyph glyph-name="uni8C9B" unicode="&#xe439;" 
 />
    <glyph glyph-name="u27D54" unicode="&#x27d54;" 
 />
    <glyph glyph-name="u27D54" unicode="&#xe43a;" 
 />
    <glyph glyph-name="u27D8F" unicode="&#x27d8f;" 
d="M881 608q-3 -5 -12.5 -16.5t-11.5 -14.5q-104 59 -243 107l24 31q125 -46 243 -107zM912 761h-347l-49 -41v-122h-43v95q-114 -69 -332 -121l-23 32q276 66 396 157h-429v35h827v-35zM754 439h-507v142h507v-142zM891 -33l-29 -31q-119 55 -260 86l26 32q148 -40 263 -87
zM806 66h-611v317h611v-317zM402 25q-114 -50 -255 -87l-35 33q176 41 258 82zM711 472v75h-421v-75h421zM762 289v59h-524v-59h524zM762 196v60h-524v-60h524zM762 99v64h-524v-64h524z" />
    <glyph glyph-name="u27D8F" unicode="&#xe43b;" 
d="M881 608q-3 -5 -12.5 -16.5t-11.5 -14.5q-104 59 -243 107l24 31q125 -46 243 -107zM912 761h-347l-49 -41v-122h-43v95q-114 -69 -332 -121l-23 32q276 66 396 157h-429v35h827v-35zM754 439h-507v142h507v-142zM891 -33l-29 -31q-119 55 -260 86l26 32q148 -40 263 -87
zM806 66h-611v317h611v-317zM402 25q-114 -50 -255 -87l-35 33q176 41 258 82zM711 472v75h-421v-75h421zM762 289v59h-524v-59h524zM762 196v60h-524v-60h524zM762 99v64h-524v-64h524z" />
    <glyph glyph-name="u27D98" unicode="&#x27d98;" 
d="M948 450l-18 -36q-156 10 -261 49t-173 133q-82 -133 -418 -179l-19 35q369 48 419 198q12 39 12 87h-403v35h404v68h40v-68h383v-35h-383q-7 -76 -12 -101q10 -26 46 -64q130 35 164 153l36 -15q-14 -39 -25 -56q88 -38 166 -97l-25 -34q-69 60 -160 97
q-53 -58 -122 -79q69 -46 146.5 -64t202.5 -27zM393 580l-27 -32q-46 43 -107 70q-58 -64 -139 -104l-27 31q129 51 186 181l36 -13q-21 -42 -36 -63q55 -28 114 -70zM790 70h-580v351h580v-351zM891 -33l-29 -31q-134 59 -260 86l26 32q154 -40 263 -87zM402 25
q-132 -55 -255 -87l-35 33q151 31 258 82zM746 317v69h-493v-69h493zM746 213v69h-493v-69h493zM746 105v73h-493v-73h493z" />
    <glyph glyph-name="u27D98" unicode="&#xe440;" 
d="M948 450l-18 -36q-156 10 -261 49t-173 133q-82 -133 -418 -179l-19 35q369 48 419 198q12 39 12 87h-403v35h404v68h40v-68h383v-35h-383q-7 -76 -12 -101q10 -26 46 -64q130 35 164 153l36 -15q-14 -39 -25 -56q88 -38 166 -97l-25 -34q-69 60 -160 97
q-53 -58 -122 -79q69 -46 146.5 -64t202.5 -27zM393 580l-27 -32q-46 43 -107 70q-58 -64 -139 -104l-27 31q129 51 186 181l36 -13q-21 -42 -36 -63q55 -28 114 -70zM790 70h-580v351h580v-351zM891 -33l-29 -31q-134 59 -260 86l26 32q154 -40 263 -87zM402 25
q-132 -55 -255 -87l-35 33q151 31 258 82zM746 317v69h-493v-69h493zM746 213v69h-493v-69h493zM746 105v73h-493v-73h493z" />
    <glyph glyph-name="uni8D03" unicode="&#xe443;" 
 />
    <glyph glyph-name="u21910" unicode="&#x21910;" 
d="M967 279q-8 -14 -19 -30q-85 49 -142 97v-294h-309v285q-51 -59 -131 -109l-20 26q127 79 184 173h-166v35h193v62h-99v33h99v61h-111v33h111v61h-140v-93h-33v127h271l-54 72l27 21l66 -93h232v-127h-34v93h-141v-61h111v-33h-111v-61h101v-33h-101v-62h196v-35h-179
q66 -80 199 -148zM929 -45l-17 -30q-95 53 -194 82l14 29q108 -34 197 -81zM360 98l-26 -30q-56 70 -89 102q-24 -47 -74 -113.5t-87 -101.5l-29 25q112 110 164 216q-48 50 -84 74l-8 -38l-34 8l77 333h-109v36h115l50 222l34 -6l-47 -216h144q-29 -259 -97 -408zM587 12
q-103 -60 -197 -84l-16 31q121 29 194 79zM718 651v61h-128v-61h128zM718 557v61h-128v-61h128zM718 462v62h-128v-62h128zM790 360q-23 20 -59 67h-166q-18 -32 -48 -67h273zM774 269v58h-245v-58h245zM774 178v61h-245v-61h245zM774 86v62h-245v-62h245zM318 573h-112
l-61 -267q30 -21 90 -78q60 129 83 345z" />
    <glyph glyph-name="u21910" unicode="&#xe444;" 
d="M967 279q-8 -14 -19 -30q-85 49 -142 97v-294h-309v285q-51 -59 -131 -109l-20 26q127 79 184 173h-166v35h193v62h-99v33h99v61h-111v33h111v61h-140v-93h-33v127h271l-54 72l27 21l66 -93h232v-127h-34v93h-141v-61h111v-33h-111v-61h101v-33h-101v-62h196v-35h-179
q66 -80 199 -148zM929 -45l-17 -30q-95 53 -194 82l14 29q108 -34 197 -81zM360 98l-26 -30q-56 70 -89 102q-24 -47 -74 -113.5t-87 -101.5l-29 25q112 110 164 216q-48 50 -84 74l-8 -38l-34 8l77 333h-109v36h115l50 222l34 -6l-47 -216h144q-29 -259 -97 -408zM587 12
q-103 -60 -197 -84l-16 31q121 29 194 79zM718 651v61h-128v-61h128zM718 557v61h-128v-61h128zM718 462v62h-128v-62h128zM790 360q-23 20 -59 67h-166q-18 -32 -48 -67h273zM774 269v58h-245v-58h245zM774 178v61h-245v-61h245zM774 86v62h-245v-62h245zM318 573h-112
l-61 -267q30 -21 90 -78q60 129 83 345z" />
    <glyph glyph-name="uni705C" unicode="&#xe446;" 
 />
    <glyph glyph-name="uni8D11" unicode="&#xe447;" 
 />
    <glyph glyph-name="uniE449" unicode="&#xe449;" 
d="M931 587l-33 -22l-53 66l-114 -7v-148q0 -26 27 -26h157v-37h-165q-58 0 -58 56v151l-109 -6q-11 -85 -74.5 -145.5t-152.5 -95.5l-25 33q94 33 149.5 85t62.5 119l-146 -9l-12 39l66 3q83 100 135 200l34 -18q-20 -38 -50.5 -83t-51.5 -71l-20 -26l319 18q-41 45 -74 75
l31 24q87 -89 157 -175zM955 -31l-23 -30q-148 58 -278 155q-106 -78 -304 -161l-21 31q192 73 297 156q-32 28 -73 72.5t-61 72.5q-17 -23 -55.5 -61t-67.5 -62l-28 28q69 51 131 122l-39 55l29 22q4 -6 15.5 -23.5t17.5 -24.5q51 65 77 123l33 -13q-34 -61 -59 -94h299
v-35q-68 -102 -162 -184q104 -85 272 -149zM368 239l-282 -140l-25 35l137 64v248h-113v36h113v215h-121v37h279v-37h-119v-215h104v-36h-104v-227l131 65v-45zM799 299h-278l-4 -7q24 -35 64 -79t74 -71q104 90 144 157z" />
    <glyph glyph-name="uniE449" unicode="&#x3ed0;" 
d="M931 587l-33 -22l-53 66l-114 -7v-148q0 -26 27 -26h157v-37h-165q-58 0 -58 56v151l-109 -6q-11 -85 -74.5 -145.5t-152.5 -95.5l-25 33q94 33 149.5 85t62.5 119l-146 -9l-12 39l66 3q83 100 135 200l34 -18q-20 -38 -50.5 -83t-51.5 -71l-20 -26l319 18q-41 45 -74 75
l31 24q87 -89 157 -175zM955 -31l-23 -30q-148 58 -278 155q-106 -78 -304 -161l-21 31q192 73 297 156q-32 28 -73 72.5t-61 72.5q-17 -23 -55.5 -61t-67.5 -62l-28 28q69 51 131 122l-39 55l29 22q4 -6 15.5 -23.5t17.5 -24.5q51 65 77 123l33 -13q-34 -61 -59 -94h299
v-35q-68 -102 -162 -184q104 -85 272 -149zM368 239l-282 -140l-25 35l137 64v248h-113v36h113v215h-121v37h279v-37h-119v-215h104v-36h-104v-227l131 65v-45zM799 299h-278l-4 -7q24 -35 64 -79t74 -71q104 90 144 157z" />
    <glyph glyph-name="u28002" unicode="&#x28002;" 
 />
    <glyph glyph-name="u28002" unicode="&#xe44c;" 
 />
    <glyph glyph-name="u21014" unicode="&#x21014;" 
d="M953 337l-18 -33q-98 55 -184 156q-86 -94 -189 -163l-21 27v-14h-78v-213l95 69v-44l-256 -176l-18 38l46 27v385h35v-363l61 41v423h-94v280h202v-280h-71v-148h78v-18q41 23 98 70t90 88q-37 54 -80 143q-20 -37 -62 -96q-4 4 -26 25q90 117 141 284l31 -15
q-6 -24 -35 -96h191v-34q-36 -103 -116 -209q79 -98 180 -154zM872 -67h-37v75h-178v-75h-37v352h252v-352zM250 192h-38v65h-97v-115h-38v592h173v-542zM850 695h-169q-1 -2 -11 -25q35 -82 82 -150q27 34 55.5 85.5t42.5 89.5zM497 536v203h-128v-203h128zM835 46v200
h-178v-200h178zM212 293v405h-97v-405h97z" />
    <glyph glyph-name="u21014" unicode="&#xe44d;" 
d="M953 337l-18 -33q-98 55 -184 156q-86 -94 -189 -163l-21 27v-14h-78v-213l95 69v-44l-256 -176l-18 38l46 27v385h35v-363l61 41v423h-94v280h202v-280h-71v-148h78v-18q41 23 98 70t90 88q-37 54 -80 143q-20 -37 -62 -96q-4 4 -26 25q90 117 141 284l31 -15
q-6 -24 -35 -96h191v-34q-36 -103 -116 -209q79 -98 180 -154zM872 -67h-37v75h-178v-75h-37v352h252v-352zM250 192h-38v65h-97v-115h-38v592h173v-542zM850 695h-169q-1 -2 -11 -25q35 -82 82 -150q27 34 55.5 85.5t42.5 89.5zM497 536v203h-128v-203h128zM835 46v200
h-178v-200h178zM212 293v405h-97v-405h97z" />
    <glyph glyph-name="uni8EAD" unicode="&#xe453;" 
d="M945 133q-12 -70 -24 -104q-20 -57 -67 -57l-87 1q-72 2 -72 66v417h40v-414q0 -34 34 -34h76q33 0 43 35l24 106zM896 481h-40v129h-166q0 -428 -246 -685l-32 23q73 79 122.5 165.5t73.5 174t33 162.5t9 160h-145v-129h-40v167h185v183l40 -1v-182h206v-167zM485 407
q-14 -18 -100 -124v-279q0 -34 -22 -49.5t-49 -15.5h-81l-13 39l91 -2q34 -2 34 31v234q-120 -133 -286 -274l-26 26q198 163 312 304l-296 -69l-13 35l90 19v430h66q33 47 65 127l34 -15q-21 -53 -61 -112h155v-376q37 44 72 93zM345 587v88h-179v-88h179zM345 452v99h-179
v-99h179zM345 330v86h-179v-125z" />
    <glyph glyph-name="uni8EC3" unicode="&#xe455;" 
 />
    <glyph glyph-name="uni92D4" unicode="&#xe456;" 
 />
    <glyph glyph-name="uni8F19" unicode="&#xe457;" 
 />
    <glyph glyph-name="uni8F2D" unicode="&#xe458;" 
d="M945 735h-260q-34 -67 -59 -101h254v-277q0 -32 -19.5 -46t-48.5 -14h-56l-14 37l67 -1q21 -1 27.5 5.5t6.5 22.5v237h-100v-237h-38v237h-83v-279h-37v279h-85v-318h-38v354h118q35 42 63 101h-247v37h549v-37zM951 -39q-5 -5 -14 -16.5t-11 -14.5q-196 97 -271 257h-8
q-54 -166 -298 -261l-23 33q227 82 281 227h-219v37h231q11 33 14 72l36 -9l-12 -64h271v-35h-232q69 -139 255 -226zM431 676h-162v-91h124v-321h-124v-103h154v-35h-154v-204h-37v204h-179v35h179v103h-125v321h125v91h-171v35h171v124h37v-124h162v-35zM356 443v106h-87
v-106h87zM232 443v106h-88v-106h88zM356 300v109h-87v-109h87zM232 300v109h-88v-109h88z" />
    <glyph glyph-name="uni9303" unicode="&#xe45c;" 
 />
    <glyph glyph-name="u2A29F" unicode="&#x2a29f;" 
d="M961 -26h-416v36h192v284h-150v38h150v238l-110 1q-22 -103 -62 -194l-34 19q66 135 94 380l38 -12q-9 -66 -28 -157h102v222h39v-222h163v-37h-163v-238h149v-38h-149v-284h185v-36zM541 707h-141v-112h118v-217h-360q0 -271 -85 -442q-23 18 -34 25q47 89 64 192
t17 256v333h190q-20 38 -61 81l32 24q38 -44 74 -105h186v-35zM552 50l-209 -95l-16 38l49 19v327h36v-109h112v-35h-112v-167l140 62v-40zM350 193h-98v-155l97 43v-39l-195 -88l-15 36l78 31v316h35v-109h98v-35zM365 595v112h-83v-112h83zM482 413v147h-82v-147h82z
M247 595v112h-89v-112h89zM365 413v147h-83v-147h83zM247 413v147h-89v-147h89z" />
    <glyph glyph-name="u2A29F" unicode="&#xe45d;" 
d="M961 -26h-416v36h192v284h-150v38h150v238l-110 1q-22 -103 -62 -194l-34 19q66 135 94 380l38 -12q-9 -66 -28 -157h102v222h39v-222h163v-37h-163v-238h149v-38h-149v-284h185v-36zM541 707h-141v-112h118v-217h-360q0 -271 -85 -442q-23 18 -34 25q47 89 64 192
t17 256v333h190q-20 38 -61 81l32 24q38 -44 74 -105h186v-35zM552 50l-209 -95l-16 38l49 19v327h36v-109h112v-35h-112v-167l140 62v-40zM350 193h-98v-155l97 43v-39l-195 -88l-15 36l78 31v316h35v-109h98v-35zM365 595v112h-83v-112h83zM482 413v147h-82v-147h82z
M247 595v112h-89v-112h89zM365 413v147h-83v-147h83zM247 413v147h-89v-147h89z" />
    <glyph glyph-name="uni8FB3" unicode="&#xe45f;" 
 />
    <glyph glyph-name="CNS1.14443" 
d="M928 479h-113q-34 0 -51.5 18.5t-17.5 45.5v198h-153v-66q0 -163 -112 -249q-15 15 -26 30q52 40 75.5 93t23.5 128v101h232v-231q0 -31 30 -31h112v-37zM949 15l-26 -26q-66 52 -134.5 146.5t-99.5 182.5v-390h-39v390q-30 -85 -98.5 -178t-146.5 -157q-5 3 -9.5 8
t-10 11t-8.5 9q77 59 143.5 145.5t94.5 161.5h-186v37h221v105h39v-105h246v-37h-208q23 -70 85 -156t137 -147zM417 617l-29 -29q-75 96 -144 143q-43 -98 -85 -170h211v-38h-103v-124h129v-37h-129v-310l142 36v-38l-337 -85l-16 37l171 41v319h-150v37h150v124h-90
q-22 -41 -54 -77q-6 3 -17 12.5t-14 11.5q56 67 108.5 168t81.5 193q2 -1 33 -16l-19 -48q73 -53 161 -150zM407 281q-29 -96 -82 -182q-4 2 -15 8t-17 9q51 79 82 179zM182 102l-36 -14q-29 113 -70 188l35 15q36 -74 71 -189z" />
    <glyph glyph-name="u2853C" unicode="&#x2853c;" 
d="M930 656h-271q-26 -60 -64 -118l-32 21q76 110 120 277l34 -13q-23 -75 -45 -131h258v-36zM947 309h-173v-182q0 -59 -62 -59h-79l-14 40q74 -4 94 -4q23 0 23 30v175h-171v35h171v73l106 99h-216v36h264v-38l-116 -112v-58h173v-35zM615 415q-5 -5 -15.5 -14t-13.5 -12
q-40 70 -97 122q5 4 27 23q53 -50 99 -119zM220 652l-34 -19q-37 86 -83 151l32 20q36 -51 85 -152zM579 635h-104v-577h-38v493q-21 -54 -56 -122.5t-71 -118.5q-6 4 -18 14t-13 11q108 146 156 300h-135v37h137v167h38v-167h104v-37zM952 7l-16 -41h-453q-192 0 -281 127
q-15 -40 -53 -94t-71 -83l-29 27q148 138 163 357h-127v40q73 99 139 214h-159v38h199v-38q-34 -61 -133 -215h119q0 -107 -34 -206q50 -73 120.5 -102t165.5 -29z" />
    <glyph glyph-name="u2853C" unicode="&#xe46e;" 
d="M930 656h-271q-26 -60 -64 -118l-32 21q76 110 120 277l34 -13q-23 -75 -45 -131h258v-36zM947 309h-173v-182q0 -59 -62 -59h-79l-14 40q74 -4 94 -4q23 0 23 30v175h-171v35h171v73l106 99h-216v36h264v-38l-116 -112v-58h173v-35zM615 415q-5 -5 -15.5 -14t-13.5 -12
q-40 70 -97 122q5 4 27 23q53 -50 99 -119zM220 652l-34 -19q-37 86 -83 151l32 20q36 -51 85 -152zM579 635h-104v-577h-38v493q-21 -54 -56 -122.5t-71 -118.5q-6 4 -18 14t-13 11q108 146 156 300h-135v37h137v167h38v-167h104v-37zM952 7l-16 -41h-453q-192 0 -281 127
q-15 -40 -53 -94t-71 -83l-29 27q148 138 163 357h-127v40q73 99 139 214h-159v38h199v-38q-34 -61 -133 -215h119q0 -107 -34 -206q50 -73 120.5 -102t165.5 -29z" />
    <glyph glyph-name="u2856C" unicode="&#x2856c;" 
d="M904 603h-221v197h221v-197zM593 603h-220v197h220v-197zM938 477h-279v-204h171v150h40v-185h-214q-14 -78 -74.5 -131t-131.5 -75q-4 4 -28 31q175 62 190 175h-205v185h39v-150h172v204h-279v37h599v-37zM233 659l-34 -18q-23 51 -85 144q4 2 9.5 5t12.5 7t11 6
q4 -6 19.5 -29t24 -36t21 -35.5t21.5 -43.5zM941 2l-16 -43h-384q-110 0 -187.5 33t-145.5 100q-36 -55 -129 -148l-29 28q162 136 213 327h-158v33q86 96 133 193h-159v36h214q-18 -45 -60.5 -116.5t-76.5 -110.5h153q-35 -137 -82 -210q81 -76 148 -102t168 -26zM865 638
v127h-143v-127h143zM554 638v127h-142v-127h142z" />
    <glyph glyph-name="u2856C" unicode="&#xe471;" 
d="M904 603h-221v197h221v-197zM593 603h-220v197h220v-197zM938 477h-279v-204h171v150h40v-185h-214q-14 -78 -74.5 -131t-131.5 -75q-4 4 -28 31q175 62 190 175h-205v185h39v-150h172v204h-279v37h599v-37zM233 659l-34 -18q-23 51 -85 144q4 2 9.5 5t12.5 7t11 6
q4 -6 19.5 -29t24 -36t21 -35.5t21.5 -43.5zM941 2l-16 -43h-384q-110 0 -187.5 33t-145.5 100q-36 -55 -129 -148l-29 28q162 136 213 327h-158v33q86 96 133 193h-159v36h214q-18 -45 -60.5 -116.5t-76.5 -110.5h153q-35 -137 -82 -210q81 -76 148 -102t168 -26zM865 638
v127h-143v-127h143zM554 638v127h-142v-127h142z" />
    <glyph glyph-name="uni91C4" unicode="&#xe47c;" 
 />
    <glyph glyph-name="uni7CAC" unicode="&#xe47d;" 
 />
    <glyph glyph-name="u28933" unicode="&#x28933;" 
d="M932 557l-24 -30q-69 61 -173 118l22 26q101 -52 175 -114zM915 698h-200v-194h-39v194q-41 -61 -105 -115.5t-131 -86.5l-22 30q149 78 215 172h-138v37h181v94h39v-94h200v-37zM452 596l-27 -25q-49 49 -103 80l23 26q50 -27 107 -81zM464 698h-151v-194h-39v194
q-63 -91 -194 -183l-28 28q112 69 182 155h-152v37h192v94h39v-94h151v-37zM957 -35h-799v34h379v59h-272v33h272v60h-273v234h581v-234h-271v-60h262v-33h-262v-59h383v-34zM931 441h-750v-205q0 -176 -99 -314l-33 21q51 76 72.5 139.5t21.5 153.5v237h788v-32zM805 286
v67h-231v-67h231zM805 185v68h-231v-68h231zM537 286v67h-238v-67h238zM537 185v68h-238v-68h238z" />
    <glyph glyph-name="u28933" unicode="&#xe47e;" 
d="M932 557l-24 -30q-69 61 -173 118l22 26q101 -52 175 -114zM915 698h-200v-194h-39v194q-41 -61 -105 -115.5t-131 -86.5l-22 30q149 78 215 172h-138v37h181v94h39v-94h200v-37zM452 596l-27 -25q-49 49 -103 80l23 26q50 -27 107 -81zM464 698h-151v-194h-39v194
q-63 -91 -194 -183l-28 28q112 69 182 155h-152v37h192v94h39v-94h151v-37zM957 -35h-799v34h379v59h-272v33h272v60h-273v234h581v-234h-271v-60h262v-33h-262v-59h383v-34zM931 441h-750v-205q0 -176 -99 -314l-33 21q51 76 72.5 139.5t21.5 153.5v237h788v-32zM805 286
v67h-231v-67h231zM805 185v68h-231v-68h231zM537 286v67h-238v-67h238zM537 185v68h-238v-68h238z" />
    <glyph glyph-name="uni9262" unicode="&#xe483;" 
d="M950 142l-32 -26q-70 102 -132 237.5t-98 256.5v-433h162v-36h-162v-205h-39v205h-170v36h170v433q-28 -118 -92 -256.5t-144 -241.5q-22 22 -30 29q80 101 141.5 228t85.5 241h-191v36h230v199h39v-199h246v-36h-208q87 -276 224 -468zM409 46l-337 -86l-16 35l171 42
v328h-150v35h150v131h-89q-25 -43 -54 -81q-6 3 -17 13t-15 12q60 76 111 177t79 191q2 -1 33 -16l-19 -49q78 -63 145 -140l-29 -30q-56 74 -129 133q-40 -92 -84 -173h211v-37h-104v-131h130v-35h-130v-319l143 37v-37zM397 282q-29 -95 -72 -170q-4 2 -15 8t-17 9
q46 78 72 167zM182 115l-36 -14q-23 102 -58 176l33 15q33 -72 61 -177z" />
    <glyph glyph-name="uni936B" unicode="&#xe48c;" 
 />
    <glyph glyph-name="u28AE1" unicode="&#x28ae1;" 
d="M936 567h-41v-122h-102v-97h115v-35h-115v-96h129v-37h-129v-142h-38v142h-115v37h115v96h-104v35h104v97h-88v36h88v86h-126v36h126v84h-88v36h88v110h38v-110h102v-120h41v-36zM954 -5q-2 -9 -7 -23.5t-6 -18.5q-153 0 -231.5 36.5t-137.5 130.5q-14 -42 -44.5 -100
t-59.5 -97q-9 9 -30 27q74 100 108 207q-41 84 -66 168l32 17q26 -87 51 -137q22 94 27 214h-101v36l83 241h-95v36h143l-94 -277h102q-9 -183 -40 -292q66 -107 136 -137.5t230 -30.5zM469 827q-24 -131 -41 -206v-692h-37v592q-13 -47 -48 -127l-30 27q83 170 121 420z
M349 604q-6 -5 -30 -24q-49 82 -120 142q-24 -88 -67 -165h167v-36h-80v-141h98v-36h-98v-296l127 48v-40l-268 -102l-14 39l116 39v312h-109v36h109v141h-67q-16 -26 -37 -50q-19 19 -28 27q54 68 85 146.5t56 184.5l37 -12l-15 -59q72 -59 138 -154zM320 268
q-14 -76 -45 -148l-33 16q31 67 44 145zM154 126l-35 -17q-21 71 -66 151q4 2 15.5 9t16.5 9q36 -61 69 -152zM861 603v84h-68v-84h68zM861 481v86h-68v-86h68z" />
    <glyph glyph-name="u28AE1" unicode="&#xe48d;" 
d="M936 567h-41v-122h-102v-97h115v-35h-115v-96h129v-37h-129v-142h-38v142h-115v37h115v96h-104v35h104v97h-88v36h88v86h-126v36h126v84h-88v36h88v110h38v-110h102v-120h41v-36zM954 -5q-2 -9 -7 -23.5t-6 -18.5q-153 0 -231.5 36.5t-137.5 130.5q-14 -42 -44.5 -100
t-59.5 -97q-9 9 -30 27q74 100 108 207q-41 84 -66 168l32 17q26 -87 51 -137q22 94 27 214h-101v36l83 241h-95v36h143l-94 -277h102q-9 -183 -40 -292q66 -107 136 -137.5t230 -30.5zM469 827q-24 -131 -41 -206v-692h-37v592q-13 -47 -48 -127l-30 27q83 170 121 420z
M349 604q-6 -5 -30 -24q-49 82 -120 142q-24 -88 -67 -165h167v-36h-80v-141h98v-36h-98v-296l127 48v-40l-268 -102l-14 39l116 39v312h-109v36h109v141h-67q-16 -26 -37 -50q-19 19 -28 27q54 68 85 146.5t56 184.5l37 -12l-15 -59q72 -59 138 -154zM320 268
q-14 -76 -45 -148l-33 16q31 67 44 145zM154 126l-35 -17q-21 71 -66 151q4 2 15.5 9t16.5 9q36 -61 69 -152zM861 603v84h-68v-84h68zM861 481v86h-68v-86h68z" />
    <glyph glyph-name="u28AE2" unicode="&#x28ae2;" 
d="M695 742q-12 -8 -31 -18q-18 47 -59 101l30 19q41 -58 60 -102zM935 681h-559v37h559v-37zM585 558q-5 -4 -17 -10.5t-14 -7.5q-25 68 -60 117l30 17q34 -48 61 -116zM892 -8q0 -29 -19.5 -45t-45.5 -16h-51l-15 43l61 -4q12 -1 21.5 9t9.5 22v492h-127v-92q0 -28 25 -28
h79v-36h-85q-54 0 -54 57v99h-75q-12 -138 -118 -197l-27 29q90 47 110 168h-124v-565h-38v603h281q40 85 59 145l35 -15q-9 -24 -23 -56.5t-24 -52.5l-10 -21h155v-539zM771 32h-35v41h-161v-78h-37v277h233v-240zM388 622l-26 -27q-60 85 -132 143q-48 -120 -78 -170h193
v-38h-95v-124h119v-37h-119v-310l131 36v-38l-311 -85l-15 37l158 41v319h-139v37h139v124h-81q-20 -35 -50 -77q-1 0 -31 24q115 151 176 361q7 -2 32 -16l-18 -48q86 -73 147 -152zM380 288q-31 -107 -76 -182q-4 2 -14.5 8t-15.5 9q48 78 75 179zM171 109l-33 -14
q-22 89 -65 188l33 15q36 -80 65 -189zM736 109v127h-161v-127h161z" />
    <glyph glyph-name="u28AE2" unicode="&#xe491;" 
d="M695 742q-12 -8 -31 -18q-18 47 -59 101l30 19q41 -58 60 -102zM935 681h-559v37h559v-37zM585 558q-5 -4 -17 -10.5t-14 -7.5q-25 68 -60 117l30 17q34 -48 61 -116zM892 -8q0 -29 -19.5 -45t-45.5 -16h-51l-15 43l61 -4q12 -1 21.5 9t9.5 22v492h-127v-92q0 -28 25 -28
h79v-36h-85q-54 0 -54 57v99h-75q-12 -138 -118 -197l-27 29q90 47 110 168h-124v-565h-38v603h281q40 85 59 145l35 -15q-9 -24 -23 -56.5t-24 -52.5l-10 -21h155v-539zM771 32h-35v41h-161v-78h-37v277h233v-240zM388 622l-26 -27q-60 85 -132 143q-48 -120 -78 -170h193
v-38h-95v-124h119v-37h-119v-310l131 36v-38l-311 -85l-15 37l158 41v319h-139v37h139v124h-81q-20 -35 -50 -77q-1 0 -31 24q115 151 176 361q7 -2 32 -16l-18 -48q86 -73 147 -152zM380 288q-31 -107 -76 -182q-4 2 -14.5 8t-15.5 9q48 78 75 179zM171 109l-33 -14
q-22 89 -65 188l33 15q36 -80 65 -189zM736 109v127h-161v-127h161z" />
    <glyph glyph-name="uni9244" unicode="&#xe494;" 
d="M958 -30l-25 -32q-115 104 -174.5 196.5t-92.5 231.5h-9q-49 -252 -290 -436l-31 35q234 167 281 401h-216v36h224q17 144 16 206h-124q-29 -101 -67 -173l-37 15q61 105 104 326l35 -8q-14 -61 -25 -125h114v202h39v-201h227v-36h-226q2 -95 -14 -206h282v-36h-245
q41 -210 254 -396zM426 623l-30 -27q-62 82 -165 154q-36 -83 -85 -174h212v-35h-106v-130h123v-36h-123v-306l154 37v-38l-344 -84l-16 39l165 37v315h-142v36h142v129h-87l-49 -77l-33 23q130 183 184 359l32 -15l-13 -43q108 -77 181 -164zM381 314q-29 -128 -63 -200
l-35 13q47 96 64 200zM187 114l-39 -14q-18 90 -68 202l35 15q45 -102 72 -203z" />
    <glyph glyph-name="uni9585" unicode="&#xe49b;" 
 />
    <glyph glyph-name="uni95A6" unicode="&#xe49c;" 
 />
    <glyph glyph-name="uni9426" unicode="&#xe49d;" 
 />
    <glyph glyph-name="uni95A0" unicode="&#xe49e;" 
 />
    <glyph glyph-name="uni6FF6" unicode="&#xe49f;" 
d="M900 23q0 -30 -15.5 -52t-52.5 -22l-89 -1l-15 38l102 -2q31 0 31 46v484h-204v276h243v-767zM268 667l-30 -24q-55 79 -123 144l28 24q70 -66 125 -144zM803 312h-180v-71h114v-211h-38v44h-183v-59h-39v226h107v71h-163v36h163v63q-82 -11 -130 -12q-2 5 -6 16t-7 16
q167 9 311 50l17 -32q-84 -21 -146 -31v-71h180v-35zM562 514h-198v-584h-38v860h236v-276zM225 459q-6 -8 -28 -27q-43 58 -132 140l27 26q66 -55 133 -139zM269 321q-92 -252 -179 -367q-14 5 -33 20q107 156 180 367q5 -2 16.5 -10t15.5 -10zM861 671v83h-165v-83h165z
M861 551v84h-165v-84h165zM523 671v83h-159v-83h159zM523 551v84h-159v-84h159zM698 110v96h-182v-96h182z" />
    <glyph glyph-name="uni967B" unicode="&#xe4a7;" 
 />
    <glyph glyph-name="uni9696" unicode="&#xe4a8;" 
 />
    <glyph glyph-name="uniE4A9" unicode="&#xe4a9;" 
d="M869 800q-57 -99 -122 -172q-23 19 -32 24q75 80 122 168q8 -4 32 -20zM598 656q-18 -13 -32 -21q-58 95 -119 162l33 19q79 -93 118 -160zM950 554h-549v37h549v-37zM952 307l-32 -23q-85 108 -197 201l27 25q105 -87 202 -203zM622 484q-37 -54 -99.5 -115t-112.5 -95
l-27 28q139 95 208 206q5 -3 15.5 -11.5t15.5 -12.5zM951 -49h-607v38h111v314h411v-314h85v-38zM391 335l-32 -24q-43 84 -99 146q24 16 31 22q50 -54 100 -144zM383 794q-85 -33 -133 -44v-168h132v-36h-132v-612h-40v511q-13 -55 -57 -149t-80 -146q-12 12 -30 26
q111 168 165 370h-151v36h153v157q-65 -17 -130 -28l-21 36q176 26 300 78zM826 -11v278h-84v-278h84zM704 -11v278h-85v-278h85zM581 -11v278h-87v-278h87z" />
    <glyph glyph-name="uniE4A9" unicode="&#x416c;" 
d="M869 800q-57 -99 -122 -172q-23 19 -32 24q75 80 122 168q8 -4 32 -20zM598 656q-18 -13 -32 -21q-58 95 -119 162l33 19q79 -93 118 -160zM950 554h-549v37h549v-37zM952 307l-32 -23q-85 108 -197 201l27 25q105 -87 202 -203zM622 484q-37 -54 -99.5 -115t-112.5 -95
l-27 28q139 95 208 206q5 -3 15.5 -11.5t15.5 -12.5zM951 -49h-607v38h111v314h411v-314h85v-38zM391 335l-32 -24q-43 84 -99 146q24 16 31 22q50 -54 100 -144zM383 794q-85 -33 -133 -44v-168h132v-36h-132v-612h-40v511q-13 -55 -57 -149t-80 -146q-12 12 -30 26
q111 168 165 370h-151v36h153v157q-65 -17 -130 -28l-21 36q176 26 300 78zM826 -11v278h-84v-278h84zM704 -11v278h-85v-278h85zM581 -11v278h-87v-278h87z" />
    <glyph glyph-name="uni61DA" unicode="&#xe4ac;" 
 />
    <glyph glyph-name="uniE4AD" unicode="&#xe4ad;" 
d="M941 53l-26 -37q-114 35 -218 104t-171 158v-275q0 -34 -19.5 -52.5t-51.5 -18.5h-73l-14 41l79 -3q22 -1 30.5 8.5t8.5 29.5v385h-277v36h277v130h-405v37h405v126h-277v36h277v72h40v-72h269v-162h124v-37h-124v-166h-269v-63q49 -67 128 -131q84 52 166 131l29 -27
q-70 -65 -164 -127q95 -75 256 -123zM347 246l-27 -31q-66 61 -161 96l25 32q89 -36 163 -97zM430 151l-313 -136l-29 34l342 143v-41zM755 596v126h-229v-126h229zM755 429v130h-229v-130h229z" />
    <glyph glyph-name="u28AE0" unicode="&#x28ae0;" 
d="M949 580l-29 -26q-73 104 -156 178l24 26q90 -83 161 -178zM682 594q0 -22 -14 -38t-40 -16h-47l-13 38l54 -3q10 -1 17.5 6t7.5 15v241h35v-243zM586 743q-34 -56 -80.5 -111.5t-88.5 -89.5l-23 28q41 31 88.5 87.5t76.5 108.5q11 -7 27 -23zM957 -10h-434v-68h-37v462
q-34 -17 -86 -36q-2 3 -9 14.5t-10 18.5q108 34 224 114t182 181l25 -25q-53 -71 -123 -131.5t-131 -92.5h162q-10 22 -38 57l29 20q27 -40 47 -77h170v-36h-203v-94h177v-36h-177v-96h177v-36h-177v-102h232v-37zM388 622l-26 -27q-60 85 -132 143q-48 -120 -78 -170h193
v-38h-95v-124h119v-37h-119v-310l131 36v-38l-311 -85l-15 37l158 41v319h-139v37h139v124h-81q-20 -35 -50 -77q-1 0 -31 24q115 151 176 361q7 -2 32 -16l-18 -48q86 -73 147 -152zM380 288q-31 -107 -76 -182q-4 2 -14.5 8t-15.5 9q48 78 75 179zM171 109l-33 -14
q-22 89 -65 188l33 15q36 -80 65 -189zM688 297v94h-165v-94h165zM688 165v96h-165v-96h165zM688 27v102h-165v-102h165z" />
    <glyph glyph-name="u28AE0" unicode="&#xe4af;" 
d="M949 580l-29 -26q-73 104 -156 178l24 26q90 -83 161 -178zM682 594q0 -22 -14 -38t-40 -16h-47l-13 38l54 -3q10 -1 17.5 6t7.5 15v241h35v-243zM586 743q-34 -56 -80.5 -111.5t-88.5 -89.5l-23 28q41 31 88.5 87.5t76.5 108.5q11 -7 27 -23zM957 -10h-434v-68h-37v462
q-34 -17 -86 -36q-2 3 -9 14.5t-10 18.5q108 34 224 114t182 181l25 -25q-53 -71 -123 -131.5t-131 -92.5h162q-10 22 -38 57l29 20q27 -40 47 -77h170v-36h-203v-94h177v-36h-177v-96h177v-36h-177v-102h232v-37zM388 622l-26 -27q-60 85 -132 143q-48 -120 -78 -170h193
v-38h-95v-124h119v-37h-119v-310l131 36v-38l-311 -85l-15 37l158 41v319h-139v37h139v124h-81q-20 -35 -50 -77q-1 0 -31 24q115 151 176 361q7 -2 32 -16l-18 -48q86 -73 147 -152zM380 288q-31 -107 -76 -182q-4 2 -14.5 8t-15.5 9q48 78 75 179zM171 109l-33 -14
q-22 89 -65 188l33 15q36 -80 65 -189zM688 297v94h-165v-94h165zM688 165v96h-165v-96h165zM688 27v102h-165v-102h165z" />
    <glyph glyph-name="uni53CC" unicode="&#xe4b1;" 
d="M946 -18l-29 -31q-55 44 -119.5 126t-109.5 169q-106 -192 -246 -297l-27 32q71 51 137 131t113 170q-96 202 -148 448h-34v37h375q-18 -123 -60.5 -259t-87.5 -226q113 -204 236 -300zM475 157l-37 -19q-38 119 -99 220q-90 -200 -258 -347l-27 31q80 64 149 157.5
t113 196.5q-60 91 -176 213l27 25q98 -96 166 -195q43 123 59 291h-320v37h360q-17 -223 -75 -367q67 -103 118 -243zM816 730h-259q62 -279 133 -408q37 76 73 192t53 216z" />
    <glyph glyph-name="u21915" unicode="&#x21915;" 
 />
    <glyph glyph-name="u21915" unicode="&#xe4b9;" 
 />
    <glyph glyph-name="u2330A" unicode="&#x2330a;" 
 />
    <glyph glyph-name="u2330A" unicode="&#xe4ba;" 
 />
    <glyph glyph-name="uni9731" unicode="&#xe4bb;" 
 />
    <glyph glyph-name="uni8642" unicode="&#xe4bc;" 
 />
    <glyph glyph-name="uni9736" unicode="&#xe4bd;" 
 />
    <glyph glyph-name="uniE4BE" unicode="&#xe4be;" 
d="M807 545h-226v36h226v-36zM810 445h-229v36h229v-36zM902 511h-40v133h-343v-207h-39v207h-342v-133h-39v170h381v76h-327v37h695v-37h-329v-76h383v-170zM415 545h-222v36h222v-36zM923 -30l-22 -31q-91 28 -170.5 87t-126.5 129q-84 -141 -285 -218l-23 34
q129 45 209 116t113 197h-133q-53 -83 -111 -133l-28 26q108 101 185 261q21 -11 34 -16q-15 -32 -56 -101h366q-46 -108 -91 -170l-33 21q45 55 69 112h-162q-34 -91 -35 -92q97 -157 300 -222zM414 445h-223v36h223v-36zM283 322l-24 -32q-64 58 -133 90q20 28 23 33
q80 -37 134 -91zM309 180q-96 -129 -204 -221q-18 14 -30 28q115 91 206 219z" />
    <glyph glyph-name="uniE4BE" unicode="&#x4a0f;" 
d="M807 545h-226v36h226v-36zM810 445h-229v36h229v-36zM902 511h-40v133h-343v-207h-39v207h-342v-133h-39v170h381v76h-327v37h695v-37h-329v-76h383v-170zM415 545h-222v36h222v-36zM923 -30l-22 -31q-91 28 -170.5 87t-126.5 129q-84 -141 -285 -218l-23 34
q129 45 209 116t113 197h-133q-53 -83 -111 -133l-28 26q108 101 185 261q21 -11 34 -16q-15 -32 -56 -101h366q-46 -108 -91 -170l-33 21q45 55 69 112h-162q-34 -91 -35 -92q97 -157 300 -222zM414 445h-223v36h223v-36zM283 322l-24 -32q-64 58 -133 90q20 28 23 33
q80 -37 134 -91zM309 180q-96 -129 -204 -221q-18 14 -30 28q115 91 206 219z" />
    <glyph glyph-name="uni971B" unicode="&#xe4c4;" 
 />
    <glyph glyph-name="CNS1.14538" 
d="M933 568l-31 -19q-15 38 -50.5 91.5t-65.5 83.5l28 20q29 -24 65.5 -79t53.5 -97zM874 814q-163 -50 -366 -67l-11 32q215 14 357 66zM722 570l-36 -7q-21 129 -28 158l36 5q6 -22 11 -47.5t9.5 -59t7.5 -49.5zM567 731q-8 -49 -31.5 -104t-47.5 -90l-32 19
q29 41 49 92.5t26 90.5zM476 501h-410v36h185v81h-122v35l122 -1v74h-158v34h158v94h39v-94h160v-34h-160v-73l123 -1v-34h-123v-82h186v-35zM951 338h-88v-196h-38v52h-134v-209q0 -38 -28 -43q-30 -7 -106 -3l-19 37q30 -3 82 2q14 0 23.5 9t9.5 20v188l-157 -1v34h157
v110h-196v34h195v101h-155v34h366v-135h88v-34zM422 -9q0 -15 -13 -30t-34 -15h-88l-18 39q65 -8 90 -1q8 0 16 7.5t8 16.5v176h-230v-246h-39v481h308v-428zM825 372v101h-134v-101h134zM825 229v109h-134v-109h134zM383 220v165h-93v-165h93zM250 220v165h-97v-165h97z
" />
    <glyph glyph-name="uni5B4A" unicode="&#xe4c8;" 
 />
    <glyph glyph-name="u291EB" unicode="&#x291eb;" 
d="M916 450h-302v-93h-39v486h39v-102h285v-34h-285v-86h243v-34h-243v-103h302v-34zM439 587q0 -97 -57.5 -159.5t-142.5 -96.5l-23 33q122 50 165 126l-282 -56l-14 36q188 34 309 58q5 13 7 59h-258v34h256v86h-298v34h298v102h40v-256zM949 119h-423v-124
q0 -35 -19.5 -50.5t-49.5 -15.5h-78l-16 39l92 -2q32 0 32 31v122h-435v37h435v59l181 69h-442v37h527v-35l-227 -93v-37h423v-37z" />
    <glyph glyph-name="u291EB" unicode="&#xe4c9;" 
d="M916 450h-302v-93h-39v486h39v-102h285v-34h-285v-86h243v-34h-243v-103h302v-34zM439 587q0 -97 -57.5 -159.5t-142.5 -96.5l-23 33q122 50 165 126l-282 -56l-14 36q188 34 309 58q5 13 7 59h-258v34h256v86h-298v34h298v102h40v-256zM949 119h-423v-124
q0 -35 -19.5 -50.5t-49.5 -15.5h-78l-16 39l92 -2q32 0 32 31v122h-435v37h435v59l181 69h-442v37h527v-35l-227 -93v-37h423v-37z" />
    <glyph glyph-name="uni9425" unicode="&#xe4cb;" 
 />
    <glyph glyph-name="uni50D0" unicode="&#xe4cc;" 
 />
    <glyph glyph-name="u230B7" unicode="&#x230b7;" 
d="M933 495h-121v-558l-40 -1v559h-133v-203q0 -215 -125 -353q-6 4 -16 12.5t-14 11.5q59 70 87.5 148t28.5 183v460q147 28 294 83l32 -27q-109 -43 -287 -83v-196h294v-36zM556 689h-116v-129h-113v-77h176v-189h-176v-95h183v-36h-183v-109l205 31l5 -33l-458 -76
l-13 36l222 34v117h-183v36h183v95h-175v189h175v77h-108v129h-114v37h114v99h38v-99h182v99h40v-99h116v-37zM400 597v92h-182v-92h182zM465 330v117h-138v-117h138zM288 330v117h-137v-117h137z" />
    <glyph glyph-name="u230B7" unicode="&#xe4cd;" 
d="M933 495h-121v-558l-40 -1v559h-133v-203q0 -215 -125 -353q-6 4 -16 12.5t-14 11.5q59 70 87.5 148t28.5 183v460q147 28 294 83l32 -27q-109 -43 -287 -83v-196h294v-36zM556 689h-116v-129h-113v-77h176v-189h-176v-95h183v-36h-183v-109l205 31l5 -33l-458 -76
l-13 36l222 34v117h-183v36h183v95h-175v189h175v77h-108v129h-114v37h114v99h38v-99h182v99h40v-99h116v-37zM400 597v92h-182v-92h182zM465 330v117h-138v-117h138zM288 330v117h-137v-117h137z" />
    <glyph glyph-name="uni979F" unicode="&#xe4d0;" 
 />
    <glyph glyph-name="uni97B1" unicode="&#xe4d1;" 
d="M902 696q-23 -91 -78 -199l-35 15q52 95 80 198zM925 796q-279 -79 -494 -98l-16 35q221 17 489 95zM693 519l-37 -4q5 64 -14 172l36 3q13 -66 15 -171zM547 502l-33 -16q-27 77 -75 159l33 16q47 -73 75 -159zM886 -73h-37v87h-339v-91h-38v467q92 29 181 91l28 -29
q-101 -64 -171 -87v-125h141v-35h-141v-155h339v155h-139v35h139v152h-156v36h193v-501zM439 115h-167v-194h-37v194h-171v36h171v106h-121v211h121v89h-74v121h-92v36h92v116h37v-116h112v116h38v-116h63v-36h-63v-121h-76v-89h121v-211h-121v-106h167v-36zM310 594v84
h-112v-84h112zM356 293v140h-84v-140h84zM235 293v140h-83v-140h83z" />
    <glyph glyph-name="uni97C0" unicode="&#xe4d3;" 
 />
    <glyph glyph-name="uni97D2" unicode="&#xe4d4;" 
 />
    <glyph glyph-name="uni97E0" unicode="&#xe4d5;" 
 />
    <glyph glyph-name="u2546C" unicode="&#x2546c;" 
 />
    <glyph glyph-name="u2546C" unicode="&#xe4d6;" 
 />
    <glyph glyph-name="uni97EE" unicode="&#xe4d7;" 
d="M935 663h-227v-111h-39v111h-144v38h144v116h39v-116h227v-38zM475 663h-144v-114h-39v114h-227v38h227v114h39v-114h144v-38zM948 -48h-896v37h346v131h-280v37h280v125h-280v37h280v119h-280v37h280v103h39v-589h127v589h38v-103h280v-37h-280v-119h280v-37h-280v-125
h280v-37h-280v-131h346v-37z" />
    <glyph glyph-name="u29433" unicode="&#x29433;" 
d="M940 759h-187q-27 -74 -54 -119h184v-510h-311v509h84q37 57 60 119h-219v39h443v-38zM501 688h-389v38h188q-31 58 -72 103q17 13 27 22q40 -45 77 -107l-23 -18h192v-38zM951 -34l-24 -29q-71 76 -165 137l23 28q95 -61 166 -136zM523 460h-447v38h241q43 64 78 170
q3 -2 15.5 -8.5t17.5 -8.5q-34 -95 -68 -153h163v-38zM271 519q-4 -2 -15.5 -8t-17.5 -9q-32 80 -70 142l30 19q40 -68 73 -144zM680 79q-72 -82 -185 -149l-24 32q101 52 184 144q3 -4 12.5 -13.5t12.5 -13.5zM447 -30h-39v52h-215v-76h-39v420h293v-396zM844 489v112h-233
v-112h233zM844 331v121h-233v-121h233zM844 169v125h-233v-125h233zM408 214v114h-215v-114h215zM408 60v118h-215v-118h215z" />
    <glyph glyph-name="u29433" unicode="&#xe4d9;" 
d="M940 759h-187q-27 -74 -54 -119h184v-510h-311v509h84q37 57 60 119h-219v39h443v-38zM501 688h-389v38h188q-31 58 -72 103q17 13 27 22q40 -45 77 -107l-23 -18h192v-38zM951 -34l-24 -29q-71 76 -165 137l23 28q95 -61 166 -136zM523 460h-447v38h241q43 64 78 170
q3 -2 15.5 -8.5t17.5 -8.5q-34 -95 -68 -153h163v-38zM271 519q-4 -2 -15.5 -8t-17.5 -9q-32 80 -70 142l30 19q40 -68 73 -144zM680 79q-72 -82 -185 -149l-24 32q101 52 184 144q3 -4 12.5 -13.5t12.5 -13.5zM447 -30h-39v52h-215v-76h-39v420h293v-396zM844 489v112h-233
v-112h233zM844 331v121h-233v-121h233zM844 169v125h-233v-125h233zM408 214v114h-215v-114h215zM408 60v118h-215v-118h215z" />
    <glyph glyph-name="uni9833" unicode="&#xe4e0;" 
 />
    <glyph glyph-name="uni984B" unicode="&#xe4e1;" 
 />
    <glyph glyph-name="uni9866" unicode="&#xe4e2;" 
 />
    <glyph glyph-name="uniE4E3" unicode="&#xe4e3;" 
d="M813 521h-619v273h619v-273zM921 159l-37 -13l-33 55q-156 -28 -283 -59q-4 7 -10.5 21t-9.5 19q97 71 187 153q-112 -13 -187 -34l-18 35q86 64 182 173q6 -1 12 -3.5t13 -6l11 -5.5q-58 -71 -148 -146q1 0 169 23l57 63l36 -17q-128 -141 -256 -230q27 6 109.5 22
t113.5 24q-6 10 -35 43l33 17q45 -55 94 -134zM919 -30q-13 -10 -36 -20q-55 86 -126 157q22 12 34 19q63 -61 128 -156zM678 -13q-17 -11 -37 -17q-34 58 -89 124q14 7 36 17q46 -56 90 -124zM523 137l-38 -9l-21 49l-315 -39l-16 37q114 66 240 166q-6 -1 -90 -16
t-120 -24l-20 40q96 68 186 170l36 -17q-74 -81 -157 -148q14 2 83 12.5t120 19.5l53 50l38 -16q-58 -60 -143 -125t-149 -106q91 12 242 28l-32 57q7 2 18.5 5t18.5 5q23 -42 66 -139zM465 -18l-38 -16q-34 64 -84 131q8 2 20 6.5t18 6.5q47 -63 84 -128zM236 97
q-52 -75 -122 -146l-33 24q71 68 121 139zM773 676v79h-538v-79h538zM773 559v81h-538v-81h538z" />
    <glyph glyph-name="uniE4E3" unicode="&#x3b0e;" 
d="M813 521h-619v273h619v-273zM921 159l-37 -13l-33 55q-156 -28 -283 -59q-4 7 -10.5 21t-9.5 19q97 71 187 153q-112 -13 -187 -34l-18 35q86 64 182 173q6 -1 12 -3.5t13 -6l11 -5.5q-58 -71 -148 -146q1 0 169 23l57 63l36 -17q-128 -141 -256 -230q27 6 109.5 22
t113.5 24q-6 10 -35 43l33 17q45 -55 94 -134zM919 -30q-13 -10 -36 -20q-55 86 -126 157q22 12 34 19q63 -61 128 -156zM678 -13q-17 -11 -37 -17q-34 58 -89 124q14 7 36 17q46 -56 90 -124zM523 137l-38 -9l-21 49l-315 -39l-16 37q114 66 240 166q-6 -1 -90 -16
t-120 -24l-20 40q96 68 186 170l36 -17q-74 -81 -157 -148q14 2 83 12.5t120 19.5l53 50l38 -16q-58 -60 -143 -125t-149 -106q91 12 242 28l-32 57q7 2 18.5 5t18.5 5q23 -42 66 -139zM465 -18l-38 -16q-34 64 -84 131q8 2 20 6.5t18 6.5q47 -63 84 -128zM236 97
q-52 -75 -122 -146l-33 24q71 68 121 139zM773 676v79h-538v-79h538zM773 559v81h-538v-81h538z" />
    <glyph glyph-name="uni98B7" unicode="&#xe4ea;" 
d="M883 740q-28 -80 -62 -139l-31 16q38 58 63 135zM904 495l-27 -26q-62 59 -163 111q-43 -66 -162 -124l-24 30q93 41 132 82q35 36 41 84q7 46 7 183h37q-1 -177 -17 -224q115 -61 176 -116zM648 744q-23 -70 -61 -148l-14 7t-18 8q36 61 63 143zM887 419
q-29 -85 -60 -147q-4 1 -14.5 5t-18.5 7q29 48 62 147zM655 418q-23 -95 -58 -158l-32 11q39 70 59 158zM951 72q-11 -57 -30 -108q-18 -46 -78 -35q-43 7 -125 40q-115 45 -182 154q-68 110 -68 279v337h-306v-462q0 -203 -95 -346l-32 21q51 77 71 156t20 178v488h376
v-399q0 -154 78 -253q109 74 133 204q7 37 10 170h34q0 -158 -25 -230q108 -88 155 -152l-28 -23q-61 78 -140 140q-35 -78 -116 -138q58 -64 143 -97q75 -29 99 -33q39 -7 48 19q14 37 28 107zM514 3l-35 -13q-9 44 -22 84l-286 -72l-13 34l142 33v162h-90v276h89v102h-110
v36h252v-36h-105v-102h90v-276h-90v-152q88 20 110 26q-14 39 -31 73l33 12q43 -83 66 -187zM392 266v206h-56v-206h56zM299 267v205h-55v-205h55z" />
    <glyph glyph-name="uni98C7" unicode="&#xe4ec;" 
 />
    <glyph glyph-name="uniE4ED" unicode="&#xe4ed;" 
d="M891 774q-3 -124 -14 -221q-8 -73 -97 -60l-43 8l-7 41q39 -11 59 -14q26 -4 37.5 3t14.5 30q8 59 12 177h-120q-2 -189 -154 -292l-25 27q83 59 112 119.5t32 145.5h-131v36h324zM867 94h-39v65h-169v-68h-38v341h246v-338zM951 72q-11 -57 -30 -108q-18 -46 -78 -35
q-43 7 -125 40q-128 51 -189 166t-61 258v346h-306v-462q0 -203 -95 -346l-32 21q51 77 71 156t20 178v488h377v-388q0 -145 62.5 -244.5t180.5 -145.5q75 -29 99 -33q39 -7 48 19q14 37 28 107zM514 3l-35 -13q-9 44 -22 84l-286 -72l-13 34l142 33v162h-90v276h89v102
h-110v36h252v-36h-105v-102h90v-276h-90v-152q88 20 110 26q-14 39 -31 73l33 12q43 -83 66 -187zM828 196v201h-169v-201h169zM392 266v206h-56v-206h56zM299 267v205h-55v-205h55z" />
    <glyph glyph-name="uniE4ED" unicode="&#x4aff;" 
d="M891 774q-3 -124 -14 -221q-8 -73 -97 -60l-43 8l-7 41q39 -11 59 -14q26 -4 37.5 3t14.5 30q8 59 12 177h-120q-2 -189 -154 -292l-25 27q83 59 112 119.5t32 145.5h-131v36h324zM867 94h-39v65h-169v-68h-38v341h246v-338zM951 72q-11 -57 -30 -108q-18 -46 -78 -35
q-43 7 -125 40q-128 51 -189 166t-61 258v346h-306v-462q0 -203 -95 -346l-32 21q51 77 71 156t20 178v488h377v-388q0 -145 62.5 -244.5t180.5 -145.5q75 -29 99 -33q39 -7 48 19q14 37 28 107zM514 3l-35 -13q-9 44 -22 84l-286 -72l-13 34l142 33v162h-90v276h89v102
h-110v36h252v-36h-105v-102h90v-276h-90v-152q88 20 110 26q-14 39 -31 73l33 12q43 -83 66 -187zM828 196v201h-169v-201h169zM392 266v206h-56v-206h56zM299 267v205h-55v-205h55z" />
    <glyph glyph-name="uni98E1" unicode="&#xe4f1;" 
 />
    <glyph glyph-name="uni98E6" unicode="&#xe4f2;" 
 />
    <glyph glyph-name="uni98EC" unicode="&#xe4f3;" 
 />
    <glyph glyph-name="uni9378" unicode="&#xe4f4;" 
 />
    <glyph glyph-name="uni9939" unicode="&#xe4f5;" 
 />
    <glyph glyph-name="u24A29" unicode="&#x24a29;" 
d="M833 814q-47 -54 -124 -112q-4 3 -14 11t-16 12q75 52 125 111zM611 722q-7 -6 -31 -23q-40 47 -122 115q11 7 29 25q89 -78 124 -117zM946 405h-430l-10 -83h342l-20 -145h88v-37h-93l-17 -127h139v-37h-540v37h170l25 127h-145q-46 -94 -125 -189l-33 25
q90 98 129.5 197.5t51.5 231.5h-104v37h253v89h-182v36h182v86h-214v37h486v-37h-234v-86h199v-36h-199v-89h281v-37zM385 153l-312 -88l-15 38l139 38v284h-124v37h123v225h-138v38h299v-38h-122v-225h115v-37h-115v-273l150 41v-40zM806 284h-140l-20 -107h144zM628 284
h-128q-26 -93 -31 -107h138zM785 140h-146l-25 -127h152z" />
    <glyph glyph-name="u24A29" unicode="&#xe4f6;" 
d="M833 814q-47 -54 -124 -112q-4 3 -14 11t-16 12q75 52 125 111zM611 722q-7 -6 -31 -23q-40 47 -122 115q11 7 29 25q89 -78 124 -117zM946 405h-430l-10 -83h342l-20 -145h88v-37h-93l-17 -127h139v-37h-540v37h170l25 127h-145q-46 -94 -125 -189l-33 25
q90 98 129.5 197.5t51.5 231.5h-104v37h253v89h-182v36h182v86h-214v37h486v-37h-234v-86h199v-36h-199v-89h281v-37zM385 153l-312 -88l-15 38l139 38v284h-124v37h123v225h-138v38h299v-38h-122v-225h115v-37h-115v-273l150 41v-40zM806 284h-140l-20 -107h144zM628 284
h-128q-26 -93 -31 -107h138zM785 140h-146l-25 -127h152z" />
    <glyph glyph-name="uni9A0C" unicode="&#xe4fb;" 
 />
    <glyph glyph-name="uni9A3B" unicode="&#xe4fc;" 
 />
    <glyph glyph-name="uni9A10" unicode="&#xe4fd;" 
d="M957 482l-26 -31q-70 62 -144 143t-123 146q-37 -68 -98.5 -148.5t-125.5 -139.5l-25 28q71 63 140.5 157.5t113.5 189.5l33 -19l-19 -34q114 -162 274 -292zM782 536h-225v35h225v-35zM948 76l-33 -20q-48 82 -116 160l30 21q66 -75 119 -161zM829 447l-95 -181l-33 18
l72 129h-297v34h353zM722 121l-36 -15q-28 91 -63 163q2 1 15 6t18 7q41 -89 66 -161zM814 90q-11 -48 -23 -81q-11 -30 -25.5 -44t-45.5 -14h-96q-32 0 -48.5 18t-16.5 45v182h37v-179q0 -27 32 -27h86q33 0 45 33q5 15 10.5 37t8.5 36l3 14zM435 756h-153v-107h125v-34
h-125v-108h123v-34h-123v-120h125q0 -95 -9.5 -200.5t-26.5 -159.5q-18 -53 -95 -49l-53 7l-9 40q43 -8 64 -9q48 -4 57 23q28 88 33 314h-264v471h331v-34zM518 209q-32 -108 -75 -195l-34 18q51 93 76 188zM352 147l-31 -13q-13 61 -50 135l30 11q31 -64 51 -133zM287 104
l-34 -12q-14 99 -38 157q11 2 32 9q27 -80 40 -154zM207 66l-35 -10q0 83 -24 177l33 6q22 -92 26 -173zM128 237q-12 -99 -52 -198l-35 14q43 96 56 193zM246 649v107h-105v-107h105zM246 507v108h-105v-108h105zM246 353v120h-105v-120h105z" />
    <glyph glyph-name="u25725" unicode="&#x25725;" 
d="M944 712q-15 -100 -65 -100h-169q-19 0 -31 15t-12 40v170h38v-88q67 17 177 68l23 -29q-91 -43 -200 -75v-41q0 -10 6.5 -17t15.5 -7h139q33 0 48 83zM625 661l-297 -60l-7 39l206 38v60h-189v36h189v63h37v-153l61 11v-34zM942 93h-646v36h198v76h-152v36h152v83h-91
v246h429v-246h-95v-83h154v-36h-154v-76h205v-36zM254 689q-9 -7 -32 -21q-30 72 -86 152l30 21q56 -84 88 -152zM914 -40l-24 -32q-74 57 -185 110l21 32q109 -51 188 -110zM359 348q-3 -3 -13 -11.5t-16 -12.5q-43 60 -93 104l24 26q55 -51 98 -106zM308 643
q-27 -80 -79 -178v-533h-39v467q-41 -73 -121 -186l-30 26q154 202 218 367h-193v37h244zM527 39q-95 -73 -184 -111l-24 32q115 50 184 109zM795 466v68h-162v-68h162zM795 360v70h-162v-70h162zM597 466v68h-156v-68h156zM597 360v70h-156v-70h156zM700 241v83h-168v-83
h168zM700 129v76h-168v-76h168z" />
    <glyph glyph-name="u25725" unicode="&#xe4ff;" 
d="M944 712q-15 -100 -65 -100h-169q-19 0 -31 15t-12 40v170h38v-88q67 17 177 68l23 -29q-91 -43 -200 -75v-41q0 -10 6.5 -17t15.5 -7h139q33 0 48 83zM625 661l-297 -60l-7 39l206 38v60h-189v36h189v63h37v-153l61 11v-34zM942 93h-646v36h198v76h-152v36h152v83h-91
v246h429v-246h-95v-83h154v-36h-154v-76h205v-36zM254 689q-9 -7 -32 -21q-30 72 -86 152l30 21q56 -84 88 -152zM914 -40l-24 -32q-74 57 -185 110l21 32q109 -51 188 -110zM359 348q-3 -3 -13 -11.5t-16 -12.5q-43 60 -93 104l24 26q55 -51 98 -106zM308 643
q-27 -80 -79 -178v-533h-39v467q-41 -73 -121 -186l-30 26q154 202 218 367h-193v37h244zM527 39q-95 -73 -184 -111l-24 32q115 50 184 109zM795 466v68h-162v-68h162zM795 360v70h-162v-70h162zM597 466v68h-156v-68h156zM597 360v70h-156v-70h156zM700 241v83h-168v-83
h168zM700 129v76h-168v-76h168z" />
    <glyph glyph-name="uni9AE2" unicode="&#xe504;" 
 />
    <glyph glyph-name="u29B05" unicode="&#x29b05;" 
d="M871 808q-136 -87 -302 -141l-23 31q183 62 300 135zM897 677q-119 -74 -294 -137l-24 31q162 54 294 132zM943 549q-72 -48 -177.5 -97t-186.5 -70l-20 31q93 28 194.5 73.5t164.5 88.5zM544 509h-258q-46 -45 -113 -96q38 4 266 24q-48 32 -67 43l26 22
q70 -39 139 -111l-28 -24q-28 31 -40 41q-241 -20 -344 -31l-10 32q74 55 123 100h-180v33h111v246h351v-35h-310v-47h268v-32h-268v-50h268v-32h-268v-50h334v-33zM952 124h-182v-110q0 -78 -75 -78h-74l-19 44l92 -2q34 0 34 39v107h-421q0 -80 -55.5 -128.5t-144.5 -66.5
l-26 36q92 19 137.5 55.5t45.5 103.5h-198v36h198v195h506v-195h182v-36zM728 160v160h-421v-160h421zM601 198l-26 -29q-78 66 -155 103q4 4 26 29q80 -41 155 -103z" />
    <glyph glyph-name="u29B05" unicode="&#xe505;" 
d="M871 808q-136 -87 -302 -141l-23 31q183 62 300 135zM897 677q-119 -74 -294 -137l-24 31q162 54 294 132zM943 549q-72 -48 -177.5 -97t-186.5 -70l-20 31q93 28 194.5 73.5t164.5 88.5zM544 509h-258q-46 -45 -113 -96q38 4 266 24q-48 32 -67 43l26 22
q70 -39 139 -111l-28 -24q-28 31 -40 41q-241 -20 -344 -31l-10 32q74 55 123 100h-180v33h111v246h351v-35h-310v-47h268v-32h-268v-50h268v-32h-268v-50h334v-33zM952 124h-182v-110q0 -78 -75 -78h-74l-19 44l92 -2q34 0 34 39v107h-421q0 -80 -55.5 -128.5t-144.5 -66.5
l-26 36q92 19 137.5 55.5t45.5 103.5h-198v36h198v195h506v-195h182v-36zM728 160v160h-421v-160h421zM601 198l-26 -29q-78 66 -155 103q4 4 26 29q80 -41 155 -103z" />
    <glyph glyph-name="uni9B2D" unicode="&#xe509;" 
d="M808 558h-284v32h118v69h-98v34h98v65h-116v35h278v-34h-124v-65h99v-35h-99v-68h128v-33zM872 2q0 -16 -12 -31q-11 -14 -25 -19q-11 -4 -110 -7l-12 39l69 -3q30 -1 42 11q11 11 11 34v791h37v-815zM472 759h-121v-65h99v-35h-99v-68h119v-33h-281v32h124v69h-95v34h95
v65h-121v35h280v-34zM808 290h-96v-273h-40v273h-74q-6 -171 -83 -293q-6 1 -17 9q-10 8 -15 9q16 30 32 49q-6 0 -10 -2q-6 -3 -10 -3l-299 -31l-5 35l106 10v76l-82 1v147h82v48h-81v146h290v-145h-89v-49h89v-147h-88v-63q58 4 109 11q35 85 35 185v157q113 20 209 58
l24 -26q-90 -37 -197 -59v-88h210v-35zM158 -69h-38v886h38v-886zM472 381v77h-55v-77h55zM297 381v77h-46v-77h46zM471 185v77h-54v-77h54zM379 82v376h-45v-379zM297 185v77h-46v-77h46z" />
    <glyph glyph-name="uni9B34" unicode="&#xe50c;" 
 />
    <glyph glyph-name="uniE50E" unicode="&#xe50e;" 
d="M679 499q-6 -3 -17.5 -9.5t-16.5 -8.5q-6 17 -27 50q-180 -20 -214 -23q-5 -1 -17.5 -3t-16.5 -2l-13 28q59 79 94 158h-112v35h172q-35 45 -96 89l27 27q51 -39 104 -95l-21 -21h151v-34h-183q-42 -91 -80 -146q23 2 88.5 9t99.5 10q-18 31 -47 63l30 17q48 -60 95 -144
zM908 341q0 -211 -23 -326q-14 -72 -70 -76q-41 -3 -106 8l-7 40q70 -14 104 -13q33 2 42 46q22 119 22 285h-188l34 262h149v195h-173v36h212v-267h-156l-25 -190h185zM625 13q0 -32 -21.5 -49t-52.5 -16l-54 2l-14 37q47 -2 66 -2q37 0 37 26v116h-169v-184h-36v505h244
v-435zM311 341q-3 -210 -28 -336q-6 -29 -30 -45t-51 -15q-14 0 -29.5 2.5t-37.5 7.5t-35 7l-5 40q81 -21 106 -20q37 1 46 34q25 101 27 289h-174l32 262h139v195h-177v36h216v-267h-145l-23 -190h169zM586 305v106h-169v-106h169zM586 165v103l-169 1v-104h169z" />
    <glyph glyph-name="uniE50E" unicode="&#x38c3;" 
d="M679 499q-6 -3 -17.5 -9.5t-16.5 -8.5q-6 17 -27 50q-180 -20 -214 -23q-5 -1 -17.5 -3t-16.5 -2l-13 28q59 79 94 158h-112v35h172q-35 45 -96 89l27 27q51 -39 104 -95l-21 -21h151v-34h-183q-42 -91 -80 -146q23 2 88.5 9t99.5 10q-18 31 -47 63l30 17q48 -60 95 -144
zM908 341q0 -211 -23 -326q-14 -72 -70 -76q-41 -3 -106 8l-7 40q70 -14 104 -13q33 2 42 46q22 119 22 285h-188l34 262h149v195h-173v36h212v-267h-156l-25 -190h185zM625 13q0 -32 -21.5 -49t-52.5 -16l-54 2l-14 37q47 -2 66 -2q37 0 37 26v116h-169v-184h-36v505h244
v-435zM311 341q-3 -210 -28 -336q-6 -29 -30 -45t-51 -15q-14 0 -29.5 2.5t-37.5 7.5t-35 7l-5 40q81 -21 106 -20q37 1 46 34q25 101 27 289h-174l32 262h139v195h-177v36h216v-267h-145l-23 -190h169zM586 305v106h-169v-106h169zM586 165v103l-169 1v-104h169z" />
    <glyph glyph-name="uni9B40" unicode="&#xe511;" 
 />
    <glyph glyph-name="u29D3E" unicode="&#x29d3e;" 
d="M917 716h-130v-55h-34v55h-51v34h51v87h34v-87h130v-34zM672 716h-51v-55h-34v55h-129v34h129v87h34v-87h51v-34zM918 191q-5 -64 -22 -108q-4 -10 -16.5 -15t-24.5 -2q-71 18 -121 121q-86 -59 -193 -93l-17 31q127 40 197 96q-22 53 -32 153h-142v-48q61 -25 131 -77
l-20 -29q-56 46 -111 71q-1 -62 -33 -131.5t-77 -114.5l-28 22q21 21 35 40l-7 20q-67 -13 -112 -29l-12 35q43 88 67 199l31 -11q-24 -108 -59 -177q67 14 74 16l-20 52l30 10q12 -27 30 -78q46 80 46 155v108h175q0 13 -1 35.5t-1 30.5h-176v166h362v-167h-152
q0 -10 0.5 -33.5t0.5 -31.5h88q-15 18 -43 41l24 19q35 -33 57 -60h65v-33h-188q8 -89 28 -134q45 37 97 109l7.5 -7.5l10 -10l7.5 -7.5q-53 -69 -111 -117q43 -89 96 -105q11 -3 15 10q10 34 16 97zM963 120q-14 -74 -26 -109q-15 -40 -57 -40h-564q-24 0 -40 16t-16 42
v335h-148v345h59q36 37 85 133l30 -19q-21 -45 -73 -114h206v-345h-120v-316q0 -41 38 -41h534q28 0 38 33q4 14 9.5 39.5t8.5 44.5l3 18zM216 320q0 -229 -138 -395q-17 20 -29 25q134 156 131 380zM835 505v101h-78v-101h78zM724 505v101h-76v-101h76zM615 505v101h-72
v-101h72zM381 556v115h-98v-115h98zM247 556v115h-97v-115h97zM382 400v123h-98v-123h98zM247 400v123h-97v-123h97z" />
    <glyph glyph-name="u29D3E" unicode="&#xe512;" 
d="M917 716h-130v-55h-34v55h-51v34h51v87h34v-87h130v-34zM672 716h-51v-55h-34v55h-129v34h129v87h34v-87h51v-34zM918 191q-5 -64 -22 -108q-4 -10 -16.5 -15t-24.5 -2q-71 18 -121 121q-86 -59 -193 -93l-17 31q127 40 197 96q-22 53 -32 153h-142v-48q61 -25 131 -77
l-20 -29q-56 46 -111 71q-1 -62 -33 -131.5t-77 -114.5l-28 22q21 21 35 40l-7 20q-67 -13 -112 -29l-12 35q43 88 67 199l31 -11q-24 -108 -59 -177q67 14 74 16l-20 52l30 10q12 -27 30 -78q46 80 46 155v108h175q0 13 -1 35.5t-1 30.5h-176v166h362v-167h-152
q0 -10 0.5 -33.5t0.5 -31.5h88q-15 18 -43 41l24 19q35 -33 57 -60h65v-33h-188q8 -89 28 -134q45 37 97 109l7.5 -7.5l10 -10l7.5 -7.5q-53 -69 -111 -117q43 -89 96 -105q11 -3 15 10q10 34 16 97zM963 120q-14 -74 -26 -109q-15 -40 -57 -40h-564q-24 0 -40 16t-16 42
v335h-148v345h59q36 37 85 133l30 -19q-21 -45 -73 -114h206v-345h-120v-316q0 -41 38 -41h534q28 0 38 33q4 14 9.5 39.5t8.5 44.5l3 18zM216 320q0 -229 -138 -395q-17 20 -29 25q134 156 131 380zM835 505v101h-78v-101h78zM724 505v101h-76v-101h76zM615 505v101h-72
v-101h72zM381 556v115h-98v-115h98zM247 556v115h-97v-115h97zM382 400v123h-98v-123h98zM247 400v123h-97v-123h97z" />
    <glyph glyph-name="u21863" unicode="&#x21863;" 
d="M945 692h-151v-102h-36v102h-84v37h84v106h36v-106h151v-37zM641 692h-74v-109h-36v109h-153v37h153v102h35v-102h75v-37zM913 557q-2 -276 -18 -467q0 -3 -1 -17t-1.5 -18.5t-2 -17t-2.5 -18.5t-3 -16.5t-4.5 -16.5t-5.5 -13.5t-7 -13t-9 -10.5q-12 -11 -37 -13.5
t-44 0.5l-19 3l-16 40l15 -2.5t32.5 -4t32.5 1.5q25 5 31 60q5 41 8 79q13 140 13 408h-403q-50 -143 -91 -215l-27 24q73 139 123 326l33 -13q-3 -14 -26 -86h429zM570 327l-29 -22q-29 67 -72 131l27 21q59 -98 74 -130zM821 49l-27 -26q-9 14 -18 27t-20.5 27t-18 22
t-22 24t-19 20.5t-22 23l-20.5 20.5l23 25q76 -72 144 -163zM841 246h-201v-303h-35v303q-37 -69 -97 -141t-121 -123l-24 31q125 100 205 233h-167v38h204v209h35v-209q20 -2 31 0q52 83 93 180l31 -23q-25 -53 -88 -158h134v-37zM383 113l-29 -24q-11 12 -94 87
q-50 -101 -170 -226l-29 26q127 135 171 227q-28 25 -83 55l-9 -38l-34 11l69 344h-116v36h123l45 235l35 -11l-43 -224h144q-15 -134 -31.5 -218t-54.5 -180q28 -25 106 -100zM324 573h-111q-49 -245 -55 -277q47 -22 91 -58q46 111 75 335z" />
    <glyph glyph-name="u21863" unicode="&#xe514;" 
d="M945 692h-151v-102h-36v102h-84v37h84v106h36v-106h151v-37zM641 692h-74v-109h-36v109h-153v37h153v102h35v-102h75v-37zM913 557q-2 -276 -18 -467q0 -3 -1 -17t-1.5 -18.5t-2 -17t-2.5 -18.5t-3 -16.5t-4.5 -16.5t-5.5 -13.5t-7 -13t-9 -10.5q-12 -11 -37 -13.5
t-44 0.5l-19 3l-16 40l15 -2.5t32.5 -4t32.5 1.5q25 5 31 60q5 41 8 79q13 140 13 408h-403q-50 -143 -91 -215l-27 24q73 139 123 326l33 -13q-3 -14 -26 -86h429zM570 327l-29 -22q-29 67 -72 131l27 21q59 -98 74 -130zM821 49l-27 -26q-9 14 -18 27t-20.5 27t-18 22
t-22 24t-19 20.5t-22 23l-20.5 20.5l23 25q76 -72 144 -163zM841 246h-201v-303h-35v303q-37 -69 -97 -141t-121 -123l-24 31q125 100 205 233h-167v38h204v209h35v-209q20 -2 31 0q52 83 93 180l31 -23q-25 -53 -88 -158h134v-37zM383 113l-29 -24q-11 12 -94 87
q-50 -101 -170 -226l-29 26q127 135 171 227q-28 25 -83 55l-9 -38l-34 11l69 344h-116v36h123l45 235l35 -11l-43 -224h144q-15 -134 -31.5 -218t-54.5 -180q28 -25 106 -100zM324 573h-111q-49 -245 -55 -277q47 -22 91 -58q46 111 75 335z" />
    <glyph glyph-name="u29E68" unicode="&#x29e68;" 
d="M950 495h-57q-31 0 -49 14.5t-18 55.5v189h-92v-67q0 -70 -17.5 -121.5t-58.5 -98.5l-25 29q37 44 50.5 83.5t13.5 101.5v112h166v-227q0 -21 8 -28t26 -7h53v-36zM954 -35q-2 -5 -23 -31q-84 76 -148 171q-87 -102 -215 -172q-9 17 -17 34q130 69 214 170
q-53 97 -78 235h-37v37h256q-27 -171 -99 -272q51 -84 147 -172zM657 803q-108 -58 -166 -79v-132h127v-38h-127v-161h127v-38h-127v-194l165 70v-40l-165 -72v-188h-38v171l-52 -22q8 -25 15 -59l-33 -12q-22 95 -60 179l30 15q15 -32 35 -87l65 29v603q27 10 71.5 31
t75.5 37l30 16zM372 241h-259v300q-8 -17 -38 -61q-4 2 -15 9.5t-17 10.5q97 135 179 353q24 -12 31 -17l-42 -111h145q-19 -49 -65 -143h81v-341zM319 8q-6 -3 -35 -10q-12 98 -35 183l31 9q27 -88 39 -182zM226 -10l-37 -7q3 99 -8 192l32 7q15 -98 13 -192zM148 176
q-40 -150 -71 -210l-34 15q44 90 72 207zM866 375h-146q23 -115 68 -202q57 86 78 202zM301 690h-109q-44 -94 -52 -108h108zM335 439v108h-76v-108h76zM225 439v109h-76v-109h76zM335 281v122h-76v-122h76zM225 281v122h-76v-122h76z" />
    <glyph glyph-name="u29E68" unicode="&#xe51a;" 
d="M950 495h-57q-31 0 -49 14.5t-18 55.5v189h-92v-67q0 -70 -17.5 -121.5t-58.5 -98.5l-25 29q37 44 50.5 83.5t13.5 101.5v112h166v-227q0 -21 8 -28t26 -7h53v-36zM954 -35q-2 -5 -23 -31q-84 76 -148 171q-87 -102 -215 -172q-9 17 -17 34q130 69 214 170
q-53 97 -78 235h-37v37h256q-27 -171 -99 -272q51 -84 147 -172zM657 803q-108 -58 -166 -79v-132h127v-38h-127v-161h127v-38h-127v-194l165 70v-40l-165 -72v-188h-38v171l-52 -22q8 -25 15 -59l-33 -12q-22 95 -60 179l30 15q15 -32 35 -87l65 29v603q27 10 71.5 31
t75.5 37l30 16zM372 241h-259v300q-8 -17 -38 -61q-4 2 -15 9.5t-17 10.5q97 135 179 353q24 -12 31 -17l-42 -111h145q-19 -49 -65 -143h81v-341zM319 8q-6 -3 -35 -10q-12 98 -35 183l31 9q27 -88 39 -182zM226 -10l-37 -7q3 99 -8 192l32 7q15 -98 13 -192zM148 176
q-40 -150 -71 -210l-34 15q44 90 72 207zM866 375h-146q23 -115 68 -202q57 86 78 202zM301 690h-109q-44 -94 -52 -108h108zM335 439v108h-76v-108h76zM225 439v109h-76v-109h76zM335 281v122h-76v-122h76zM225 281v122h-76v-122h76z" />
    <glyph glyph-name="u29FB7" unicode="&#x29fb7;" 
d="M951 369h-387v-84h359q-9 -196 -40 -311q-13 -47 -94 -43l-54 6l-10 40q41 -7 61 -9q51 -6 60 25q30 109 33 255h-354v491h98q30 37 65 110q5 -1 10.5 -4t11.5 -7.5t10 -6.5q-22 -42 -55 -92h199v-260h-300v-74h387v-36zM407 659l-29 -25q-53 72 -113 125l25 25
q41 -34 117 -125zM845 92q-6 -3 -17.5 -8t-16.5 -8q-22 60 -65 125q22 11 30 18q38 -59 69 -127zM745 62l-36 -12q-17 76 -55 146q13 3 32 11q36 -69 59 -145zM629 23q-22 -5 -36 -5q0 87 -15 168q4 0 17 1t17 1q14 -69 17 -165zM460 577l-225 -38q12 -140 36 -262
q92 109 141 203l26 -26q-63 -109 -158 -219q24 -110 56 -195q13 -33 27.5 -32t25.5 34q18 59 31 129l30 -22q-16 -82 -37 -136q-21 -49 -55.5 -43.5t-53.5 55.5q-30 78 -53 178q-92 -102 -171 -163l-26 25q99 78 188 179q-28 132 -42 289l-138 -23l-7 34l142 24
q-11 134 -11 253h36q1 -118 11 -247l224 38zM546 194q-26 -108 -72 -201q-15 7 -32 17q55 106 71 195q22 -8 33 -11zM825 627v74h-261v-74h261zM825 512v78h-261v-78h261z" />
    <glyph glyph-name="u29FB7" unicode="&#xe51c;" 
d="M951 369h-387v-84h359q-9 -196 -40 -311q-13 -47 -94 -43l-54 6l-10 40q41 -7 61 -9q51 -6 60 25q30 109 33 255h-354v491h98q30 37 65 110q5 -1 10.5 -4t11.5 -7.5t10 -6.5q-22 -42 -55 -92h199v-260h-300v-74h387v-36zM407 659l-29 -25q-53 72 -113 125l25 25
q41 -34 117 -125zM845 92q-6 -3 -17.5 -8t-16.5 -8q-22 60 -65 125q22 11 30 18q38 -59 69 -127zM745 62l-36 -12q-17 76 -55 146q13 3 32 11q36 -69 59 -145zM629 23q-22 -5 -36 -5q0 87 -15 168q4 0 17 1t17 1q14 -69 17 -165zM460 577l-225 -38q12 -140 36 -262
q92 109 141 203l26 -26q-63 -109 -158 -219q24 -110 56 -195q13 -33 27.5 -32t25.5 34q18 59 31 129l30 -22q-16 -82 -37 -136q-21 -49 -55.5 -43.5t-53.5 55.5q-30 78 -53 178q-92 -102 -171 -163l-26 25q99 78 188 179q-28 132 -42 289l-138 -23l-7 34l142 24
q-11 134 -11 253h36q1 -118 11 -247l224 38zM546 194q-26 -108 -72 -201q-15 7 -32 17q55 106 71 195q22 -8 33 -11zM825 627v74h-261v-74h261zM825 512v78h-261v-78h261z" />
    <glyph glyph-name="uni9D83" unicode="&#xe523;" 
 />
    <glyph glyph-name="u2A134" unicode="&#x2a134;" 
d="M947 410l-23 -27q-100 46 -197 131q-73 -60 -176 -99l-21 29q110 40 174 94q-58 70 -89 127q-14 -25 -60 -84l-27 22q101 125 141 250q5 -2 15.5 -6.5t15.5 -6.5q-18 -54 -47 -106h282v-33h-77q-53 -112 -105 -164q80 -76 194 -127zM551 740h-370q-45 -75 -100 -132
q-12 7 -32 21q86 84 151 222q11 -5 30 -17l-31 -61h352v-33zM541 537h-75l-25 -120h-307l24 120h-81v33h86l21 118h310l-23 -118h70v-33zM912 148h-619v-30h587q-8 -59 -28 -130q-20 -72 -109 -57l-60 12l-7 38q48 -13 74 -17q29 -4 44 2t24 32q14 40 21 88h-206
q38 -30 77 -73q-10 -12 -22 -22q-41 46 -79 77q13 13 17 18h-156q38 -46 70 -99q-4 -3 -13 -9.5t-13 -9.5q-31 52 -70 103l18 14h-208v301h192l43 56l30 -13l-35 -45h257v-170h-448v-31h619v-35zM371 -36l-31 -14q-26 61 -55 111q2 1 12.5 6.5t15.5 7.5q28 -48 58 -111z
M220 69q-59 -68 -131 -127l-27 25q84 63 133 123q7 -6 25 -21zM820 700h-185l-2 -3q36 -70 95 -137q57 58 92 140zM452 656h-238l-15 -86h236zM701 316v33h-408v-33h408zM429 537h-236l-16 -86h234zM701 251v32h-408v-32h408zM384 605l-17 -28q-64 36 -98 49l16 25
q35 -12 99 -46zM363 485l-17 -28q-64 36 -98 49l16 25q35 -12 99 -46z" />
    <glyph glyph-name="u2A134" unicode="&#xe524;" 
d="M947 410l-23 -27q-100 46 -197 131q-73 -60 -176 -99l-21 29q110 40 174 94q-58 70 -89 127q-14 -25 -60 -84l-27 22q101 125 141 250q5 -2 15.5 -6.5t15.5 -6.5q-18 -54 -47 -106h282v-33h-77q-53 -112 -105 -164q80 -76 194 -127zM551 740h-370q-45 -75 -100 -132
q-12 7 -32 21q86 84 151 222q11 -5 30 -17l-31 -61h352v-33zM541 537h-75l-25 -120h-307l24 120h-81v33h86l21 118h310l-23 -118h70v-33zM912 148h-619v-30h587q-8 -59 -28 -130q-20 -72 -109 -57l-60 12l-7 38q48 -13 74 -17q29 -4 44 2t24 32q14 40 21 88h-206
q38 -30 77 -73q-10 -12 -22 -22q-41 46 -79 77q13 13 17 18h-156q38 -46 70 -99q-4 -3 -13 -9.5t-13 -9.5q-31 52 -70 103l18 14h-208v301h192l43 56l30 -13l-35 -45h257v-170h-448v-31h619v-35zM371 -36l-31 -14q-26 61 -55 111q2 1 12.5 6.5t15.5 7.5q28 -48 58 -111z
M220 69q-59 -68 -131 -127l-27 25q84 63 133 123q7 -6 25 -21zM820 700h-185l-2 -3q36 -70 95 -137q57 58 92 140zM452 656h-238l-15 -86h236zM701 316v33h-408v-33h408zM429 537h-236l-16 -86h234zM701 251v32h-408v-32h408zM384 605l-17 -28q-64 36 -98 49l16 25
q35 -12 99 -46zM363 485l-17 -28q-64 36 -98 49l16 25q35 -12 99 -46z" />
    <glyph glyph-name="uni9DC4" unicode="&#xe527;" 
d="M949 371h-365v-83h328q-15 -209 -29 -275q-17 -81 -102 -77l-62 10l-9 42q54 -16 71 -16q29 0 42.5 10t20.5 40q19 81 27 232h-326v484h92q24 27 67 110q8 -2 18 -9t15 -9q-14 -29 -56 -92h190v-260h-287v-71h365v-36zM507 753q-53 -112 -88 -161q-24 12 -30 18
q51 74 87 158q7 -2 16 -7q13 -7 15 -8zM509 809q-167 -48 -403 -69q-1 3 -3.5 7.5t-5.5 11.5t-6 13q200 17 394 67zM331 623l-35 -4q-6 65 -21 126q13 4 32 5q18 -69 24 -127zM844 96q-15 -11 -32 -20q-30 80 -65 134q15 10 31 15q42 -69 66 -129zM746 54q-9 -4 -34 -11
q-17 79 -49 152q9 3 16 5t16 5q34 -73 51 -151zM211 606q-1 0 -3 -1.5t-5 -4t-6 -4.5q-10 -7 -17 -9q-22 43 -78 116q6 2 13 8q9 7 16 9q73 -99 80 -114zM633 27q-37 -5 -38 -5q3 86 -15 167q15 3 33 3q18 -88 20 -165zM542 185q-22 -114 -65 -201q-15 6 -31 20
q39 75 64 191q10 0 32 -10zM506 289q-18 -12 -33 -18q-5 12 -32 48l-140 -11l-2 -82h190v-36h-196l-14 -39q78 -63 148 -139l-25 -27q-53 68 -136 132h-3q-63 -115 -172 -187l-26 31q146 98 188 229h-187v36h193q1 5 4 77q-109 -6 -150 -15l-17 43q89 36 211 121l-2 2
q-82 -2 -170 -13l-15 35q91 49 170 135q7 -2 15 -10q3 -3 7.5 -7t5.5 -4q-73 -78 -122 -107l2 -2l165 12l87 69q10 -8 26 -21q-168 -140 -305 -208l2 -2l84 6l159 14v1q-35 43 -56 63q3 1 13 10q9 7 15 9q62 -64 118 -145zM833 630v73h-249v-73h249zM833 515v78h-249v-78
h249z" />
    <glyph glyph-name="u2A0B9" unicode="&#x2a0b9;" 
d="M949 368h-352v-80h328q-12 -192 -29 -275q-17 -81 -102 -77l-62 10l-9 42q54 -16 71 -16q30 0 44 9.5t20 38.5q19 94 26 234h-325v484h91q14 19 30.5 46.5t26.5 45.5l10 18l33 -18q-35 -64 -56 -92h190v-263h-287v-71h352v-36zM857 96q-20 -14 -32 -20q-30 80 -65 134
q6 2 16.5 7.5t14.5 7.5q42 -69 66 -129zM759 54q-9 -4 -34 -11q-17 79 -49 152q5 2 16 5t16 5q29 -71 51 -151zM646 27q-11 -3 -38 -5q3 74 -17 163q13 1 35 7q19 -95 20 -165zM559 233l-27 -28q-58 60 -99 117v-371h-36v66h-195v-66h-36v364q-46 -66 -102 -130l-26 28
q119 129 165 253h-134v34h146q12 33 25 86h-105v35h112q6 27 13 73h-158v35h163q4 20 8.5 59.5t5.5 48.5l32 -6q-1 -11 -12 -102h196v-35h-201q-2 -7 -13 -73h181v-35h-187q-18 -74 -23 -86h283v-34h-144q49 -121 168 -233zM555 183q-21 -109 -65 -199q-4 3 -15 10t-16 10
q44 87 64 191q22 -10 32 -12zM846 627v76h-249v-76h249zM846 512v78h-249v-78h249zM414 349q-39 59 -62 117h-113q-16 -51 -54 -117h229zM397 206v107h-195v-107h195zM397 52v118h-195v-118h195z" />
    <glyph glyph-name="u2A0B9" unicode="&#xe52e;" 
d="M949 368h-352v-80h328q-12 -192 -29 -275q-17 -81 -102 -77l-62 10l-9 42q54 -16 71 -16q30 0 44 9.5t20 38.5q19 94 26 234h-325v484h91q14 19 30.5 46.5t26.5 45.5l10 18l33 -18q-35 -64 -56 -92h190v-263h-287v-71h352v-36zM857 96q-20 -14 -32 -20q-30 80 -65 134
q6 2 16.5 7.5t14.5 7.5q42 -69 66 -129zM759 54q-9 -4 -34 -11q-17 79 -49 152q5 2 16 5t16 5q29 -71 51 -151zM646 27q-11 -3 -38 -5q3 74 -17 163q13 1 35 7q19 -95 20 -165zM559 233l-27 -28q-58 60 -99 117v-371h-36v66h-195v-66h-36v364q-46 -66 -102 -130l-26 28
q119 129 165 253h-134v34h146q12 33 25 86h-105v35h112q6 27 13 73h-158v35h163q4 20 8.5 59.5t5.5 48.5l32 -6q-1 -11 -12 -102h196v-35h-201q-2 -7 -13 -73h181v-35h-187q-18 -74 -23 -86h283v-34h-144q49 -121 168 -233zM555 183q-21 -109 -65 -199q-4 3 -15 10t-16 10
q44 87 64 191q22 -10 32 -12zM846 627v76h-249v-76h249zM846 512v78h-249v-78h249zM414 349q-39 59 -62 117h-113q-16 -51 -54 -117h229zM397 206v107h-195v-107h195zM397 52v118h-195v-118h195z" />
    <glyph glyph-name="uni9E90" unicode="&#xe530;" 
 />
    <glyph glyph-name="uni9E95" unicode="&#xe531;" 
 />
    <glyph glyph-name="uni9E9E" unicode="&#xe532;" 
 />
    <glyph glyph-name="uni9EA2" unicode="&#xe533;" 
 />
    <glyph glyph-name="uniE534" unicode="&#xe534;" 
 />
    <glyph glyph-name="uniE534" unicode="&#x4d34;" 
 />
    <glyph glyph-name="uni9EAA" unicode="&#xe535;" 
d="M927 709h-188v-129h149q-8 -420 -25 -468q-18 -50 -73 -50q-37 0 -121 14l-12 41q113 -19 130 -19q29 0 40 32q11 33 17 204h-288v278h39v-240h105v337h-168v37h395v-37zM520 486l-27 -23q-47 63 -84 94q-18 -42 -50 -93q114 -80 158 -127l-23 -28q-49 57 -181 139v-52
h-39v48q-126 -132 -198 -169l-19 29q103 63 217 191v214h-203v37h203v92h39v-92h193v-37h-193v-216q1 -1 4 -3l6 -4t5 -3q57 87 88 199l32 -12l-24 -78q61 -58 96 -106zM257 509l-27 -23q-46 55 -68 73q-42 -80 -62 -110q-24 13 -31 18q68 99 104 213l30 -11q-4 -17 -26 -73
zM965 13l-21 -44h-382q-129 0 -249 105q-35 -38 -97 -80t-130 -73l-31 30q146 64 231 145q-61 62 -85 101q-39 -58 -79 -104l-28 24q54 59 87 111q-15 21 -38 67l32 19q25 -47 28 -51q33 54 59 119l30 -15l-23 -54h181v-35q-39 -94 -110 -179q109 -94 244 -93l284 3z
M850 542h-112v-170l108 1zM408 276h-158l-27 -48q39 -59 90 -105q60 70 95 153z" />
    <glyph glyph-name="uniE539" unicode="&#xe539;" 
d="M927 94q-14 -72 -34 -108q-9 -11 -12.5 -14.5t-12 -7.5t-19.5 -4h-110q-24 0 -38 18t-14 44v372h-145q0 -90 -5 -156q-4 -41 -13.5 -76t-31.5 -77.5t-66 -82.5t-108 -73l-27 31q76 35 134 102.5t70 147.5q7 50 7 184h-142v38h247v177h-138q-29 -74 -77 -139l-32 26
q47 58 70.5 122.5t41.5 150.5l35 -17q-9 -54 -26 -105h127v185h40v-185h198v-38h-198v-177h267v-38h-188v-369q0 -28 32 -28h84q31 0 49 116zM367 355l-32 -21q-37 85 -84 166l30 19q46 -77 86 -164zM363 601h-120v-673h-40v563q-17 -55 -56 -151.5t-72 -156.5
q-20 16 -32 28q37 64 85 181.5t74 208.5h-136v36h137v202h40v-202h120v-36z" />
    <glyph glyph-name="uniE539" unicode="&#x3b60;" 
d="M927 94q-14 -72 -34 -108q-9 -11 -12.5 -14.5t-12 -7.5t-19.5 -4h-110q-24 0 -38 18t-14 44v372h-145q0 -90 -5 -156q-4 -41 -13.5 -76t-31.5 -77.5t-66 -82.5t-108 -73l-27 31q76 35 134 102.5t70 147.5q7 50 7 184h-142v38h247v177h-138q-29 -74 -77 -139l-32 26
q47 58 70.5 122.5t41.5 150.5l35 -17q-9 -54 -26 -105h127v185h40v-185h198v-38h-198v-177h267v-38h-188v-369q0 -28 32 -28h84q31 0 49 116zM367 355l-32 -21q-37 85 -84 166l30 19q46 -77 86 -164zM363 601h-120v-673h-40v563q-17 -55 -56 -151.5t-72 -156.5
q-20 16 -32 28q37 64 85 181.5t74 208.5h-136v36h137v202h40v-202h120v-36z" />
    <glyph glyph-name="uni9F08" unicode="&#xe540;" 
 />
    <glyph glyph-name="uniE541" unicode="&#xe541;" 
d="M882 450h-353v340h353v-340zM914 -73h-40v67h-336v-67h-39v442h415v-442zM451 758h-154v-98h130v-35h-130v-103h130v-34h-130v-116h142q-16 -240 -40 -388q-8 -50 -73 -50l-56 3l-13 38q45 -6 65 -6q34 0 41 28l20 132q-13 -4 -25 -7q-25 95 -45 143l32 12
q23 -63 41 -121q10 87 14 182h-291v454h342v-34zM308 88l-36 -7q-10 94 -26 168q6 1 17.5 3t17.5 3q19 -94 27 -167zM227 66l-36 -3q-7 118 -16 178q2 0 35 3q14 -101 17 -178zM137 243q-10 -118 -35 -220l-37 9q29 116 37 221q17 -7 35 -10zM843 639v114h-277v-114h277z
M843 488v113h-277v-113h277zM874 207v125h-336v-125h336zM260 660v98h-113v-98h113zM874 31v138h-336v-138h336zM260 522v103h-113v-103h113zM260 372v116h-113v-116h113z" />
    <glyph glyph-name="uniE541" unicode="&#x4b96;" 
d="M882 450h-353v340h353v-340zM914 -73h-40v67h-336v-67h-39v442h415v-442zM451 758h-154v-98h130v-35h-130v-103h130v-34h-130v-116h142q-16 -240 -40 -388q-8 -50 -73 -50l-56 3l-13 38q45 -6 65 -6q34 0 41 28l20 132q-13 -4 -25 -7q-25 95 -45 143l32 12
q23 -63 41 -121q10 87 14 182h-291v454h342v-34zM308 88l-36 -7q-10 94 -26 168q6 1 17.5 3t17.5 3q19 -94 27 -167zM227 66l-36 -3q-7 118 -16 178q2 0 35 3q14 -101 17 -178zM137 243q-10 -118 -35 -220l-37 9q29 116 37 221q17 -7 35 -10zM843 639v114h-277v-114h277z
M843 488v113h-277v-113h277zM874 207v125h-336v-125h336zM260 660v98h-113v-98h113zM874 31v138h-336v-138h336zM260 522v103h-113v-103h113zM260 372v116h-113v-116h113z" />
    <glyph glyph-name="u26DA2" unicode="&#x26da2;" 
d="M926 694h-215v-69h-40v69h-144v36h143v102h41v-102h215v-36zM732 550q-6 -3 -16 -12.5t-14 -11.5q-52 65 -85 95q2 2 29 22q8 -9 27.5 -29t33.5 -35.5t25 -28.5zM919 479h-448v36h448v-36zM474 694h-144v-58h-40v58h-215v36h216v102h40v-102h143v-36zM929 97l-27 -101
q-2 -8 -6.5 -13.5t-12 -8.5t-14 -5t-18.5 -2.5t-17.5 -0.5t-19.5 0.5t-18 0.5q-17 1 -31 11t-14 25v343h-158v-106q0 -191 -118 -309q-6 2 -16.5 13t-14.5 13q60 57 85 125t25 158v143h236v-372q0 -19 58 -15q16 0 21 14l23 98q7 -1 37 -11zM502 266h-78v-252
q0 -35 -21 -52.5t-54 -17.5h-51l-18 39l64 -3q18 -1 29.5 8.5t11.5 26.5v251h-189q0 -218 -93 -339q-7 2 -18 9.5t-14 9.5q86 117 86 320h-86v36h86v241h94q24 39 41 85q5 -1 18.5 -6t20.5 -6q-17 -40 -38 -73h131v-241h78v-36zM337 105l-33 -16q-21 51 -63 118q14 5 33 16
q34 -56 63 -118zM385 302v207h-189v-207h189zM332 361l-33 -17q-31 65 -65 110q10 4 34 18q36 -53 64 -111z" />
    <glyph glyph-name="u26DA2" unicode="&#xe543;" 
d="M926 694h-215v-69h-40v69h-144v36h143v102h41v-102h215v-36zM732 550q-6 -3 -16 -12.5t-14 -11.5q-52 65 -85 95q2 2 29 22q8 -9 27.5 -29t33.5 -35.5t25 -28.5zM919 479h-448v36h448v-36zM474 694h-144v-58h-40v58h-215v36h216v102h40v-102h143v-36zM929 97l-27 -101
q-2 -8 -6.5 -13.5t-12 -8.5t-14 -5t-18.5 -2.5t-17.5 -0.5t-19.5 0.5t-18 0.5q-17 1 -31 11t-14 25v343h-158v-106q0 -191 -118 -309q-6 2 -16.5 13t-14.5 13q60 57 85 125t25 158v143h236v-372q0 -19 58 -15q16 0 21 14l23 98q7 -1 37 -11zM502 266h-78v-252
q0 -35 -21 -52.5t-54 -17.5h-51l-18 39l64 -3q18 -1 29.5 8.5t11.5 26.5v251h-189q0 -218 -93 -339q-7 2 -18 9.5t-14 9.5q86 117 86 320h-86v36h86v241h94q24 39 41 85q5 -1 18.5 -6t20.5 -6q-17 -40 -38 -73h131v-241h78v-36zM337 105l-33 -16q-21 51 -63 118q14 5 33 16
q34 -56 63 -118zM385 302v207h-189v-207h189zM332 361l-33 -17q-31 65 -65 110q10 4 34 18q36 -53 64 -111z" />
    <glyph glyph-name="uni569F" unicode="&#xe547;" 
d="M882 708q-5 -214 -21 -242q-21 -35 -58 -35q-24 0 -62 8l-6 39q44 -11 63 -11q22 0 30 17t12 70q4 48 4 121l-65 -1q-26 -146 -95 -246l-29 22q73 113 89 225h-68q-27 -67 -54 -108q-9 3 -31 19q56 90 103 252q1 0 13.5 -5.5t18.5 -7.5q-5 -21 -38 -117h194zM596 791
l-113 -34v-92h108v-34h-109v-41l22 17q45 -43 88 -96l-30 -22q-23 30 -79 92v-178h-39v166h-2q-27 -60 -123 -150l-25 25q95 88 150 187h-134v35h134v80q-18 -3 -56.5 -11.5t-59.5 -11.5l-12 33q110 17 260 64q17 -25 20 -29zM816 260q-28 -36 -108 -109l-29 24
q42 33 110 105zM932 280l-17 -34q-72 23 -163.5 72t-165.5 100q-170 -141 -282 -195l-19 30q134 63 325 229l26 -20l-21 -20q177 -120 317 -162zM897 17q-4 -6 -10.5 -18t-8.5 -15q-78 54 -231 125l19 29q137 -58 231 -121zM619 -1q0 -34 -23.5 -52t-55.5 -18h-80l-12 37
l89 -2q20 -1 32 9t12 27v347h38v-348zM525 168l-25 -25q-45 47 -110 101l25 23q41 -30 110 -99zM277 168h-39v61h-106v-96h-39v581h184v-546zM545 100l-231 -116l-22 33l253 121v-38zM239 263v417h-107v-417h107z" />
    <glyph glyph-name="uni9F45" unicode="&#xe549;" 
 />
    <glyph glyph-name="uni99B8" unicode="&#xe54a;" 
 />
    <glyph glyph-name="u2908B" unicode="&#x2908b;" 
d="M800 568h-219v36h219v-36zM800 475h-219v35h219v-35zM894 547h-40v115h-335v-202h-39v202h-334v-115h-39v151h373v59h-321v36h681v-36h-320v-59h374v-151zM415 568h-215v36h215v-36zM415 475h-215v35h215v-35zM934 228h-329l-1 -297h-41v297h-333q0 -196 -146 -297
q-4 3 -13 15.5t-13 16.5q54 37 84.5 85.5t38 88.5t7.5 91v168q149 3 332 18.5t306 37.5l25 -33q-122 -22 -299 -38t-322 -21v-95h704v-37z" />
    <glyph glyph-name="u2908B" unicode="&#xe54b;" 
d="M800 568h-219v36h219v-36zM800 475h-219v35h219v-35zM894 547h-40v115h-335v-202h-39v202h-334v-115h-39v151h373v59h-321v36h681v-36h-320v-59h374v-151zM415 568h-215v36h215v-36zM415 475h-215v35h215v-35zM934 228h-329l-1 -297h-41v297h-333q0 -196 -146 -297
q-4 3 -13 15.5t-13 16.5q54 37 84.5 85.5t38 88.5t7.5 91v168q149 3 332 18.5t306 37.5l25 -33q-122 -22 -299 -38t-322 -21v-95h704v-37z" />
    <glyph glyph-name="uni847F" unicode="&#xe54d;" 
 />
    <glyph glyph-name="CNS1.14671" 
 />
    <glyph glyph-name="uni9F69" unicode="&#xe54f;" 
 />
    <glyph glyph-name="uni7ADC" unicode="&#xe550;" 
 />
    <glyph glyph-name="uni9F8E" unicode="&#xe551;" 
 />
    <glyph glyph-name="uni7216" unicode="&#xe552;" 
d="M617 694h-281v30h125q-19 36 -59 83q12 7 28 21q44 -56 70 -104h117v-30zM959 70q-24 -64 -34 -77q-24 -32 -52 -32h-149q-32 0 -47.5 19.5t-15.5 43.5v447h182v100h-184v258h35v-100h245v-34h-245v-89h183v-170h-180v-75h181v-36h-181v-73h181v-36h-181v-77h181v-34
h-181v-76q0 -15 10 -25.5t20 -10.5h138q13 0 20 5.5t14 19.5q6 11 27 70zM637 489h-316v32h164q41 72 65 157l32 -16q-21 -62 -59 -141h114v-32zM454 549q-4 -3 -15 -8.5t-15 -8.5q-25 64 -64 128l27 17q41 -67 67 -128zM590 14q0 -58 -69 -58h-44l-11 36l51 -2q37 -1 37 25
v112h-158v-179h-36v472h230v-406zM554 292v94h-158v-94h158zM554 160v96h-158v-96h158zM307 637l27 -21q-49 -75 -126 -146q-2 -133 -6 -182q29 -26 73.5 -74.5t66.5 -82.5q-3 -3 -13 -11t-15 -14q-56 82 -116 138q-28 -153 -120 -299l-35 22q129 172 129 432v436h35v-321
q49 47 100 123zM101 611l34 -7q-16 -117 -49 -219l-33 14q33 94 48 212z" />
    <glyph glyph-name="u28BDA" unicode="&#x28bda;" 
d="M930 529h-107v-53h-35v53h-109v34h109v70h-83v35h83v60h-98v33h98v66h35v-66h99v-33h-99v-60h84v-35h-84v-70h107v-34zM654 553l-114 -23v-56h-35v52l-108 -20l-10 34l118 19v74h-81v35h81v60h-97v33h97v66h35v-66h106v-33h-106v-60h89v-35h-89v-67l114 21v-34zM951 304
h-96v-103h-398v35h362v68h-424v36h424v72h-361v35h397v-107h96v-36zM952 1l-27 -21q-39 74 -86 135l26 22q48 -63 87 -136zM711 86l-28 -20q-30 62 -62 102l26 19q37 -43 64 -101zM817 76q-10 -58 -19 -85q-6 -18 -21 -28.5t-32 -10.5h-160q-17 0 -33.5 15.5t-16.5 40.5v138
h35v-134q0 -26 29 -26h145q21 0 27 22l18 89zM388 615l-28 -24q-65 88 -130 145q-27 -72 -81 -171h196v-36h-97v-129h116v-36h-116v-303l127 31v-35l-308 -83l-15 37l159 39v314h-141v36h141v129h-84q-29 -46 -54 -79l-28 24q58 75 109 174.5t73 181.5l29 -18
q-1 -6 -5.5 -20t-6.5 -21q85 -80 144 -156zM374 286q-32 -106 -68 -178l-32 11q49 102 68 180q7 -2 17.5 -7t14.5 -6zM487 111q-40 -86 -87 -137l-26 24q52 58 86 134zM178 109q-6 -2 -18.5 -6.5t-14.5 -5.5q-23 94 -65 177q19 9 30 16q41 -89 68 -181z" />
    <glyph glyph-name="u28BDA" unicode="&#xe55b;" 
d="M930 529h-107v-53h-35v53h-109v34h109v70h-83v35h83v60h-98v33h98v66h35v-66h99v-33h-99v-60h84v-35h-84v-70h107v-34zM654 553l-114 -23v-56h-35v52l-108 -20l-10 34l118 19v74h-81v35h81v60h-97v33h97v66h35v-66h106v-33h-106v-60h89v-35h-89v-67l114 21v-34zM951 304
h-96v-103h-398v35h362v68h-424v36h424v72h-361v35h397v-107h96v-36zM952 1l-27 -21q-39 74 -86 135l26 22q48 -63 87 -136zM711 86l-28 -20q-30 62 -62 102l26 19q37 -43 64 -101zM817 76q-10 -58 -19 -85q-6 -18 -21 -28.5t-32 -10.5h-160q-17 0 -33.5 15.5t-16.5 40.5v138
h35v-134q0 -26 29 -26h145q21 0 27 22l18 89zM388 615l-28 -24q-65 88 -130 145q-27 -72 -81 -171h196v-36h-97v-129h116v-36h-116v-303l127 31v-35l-308 -83l-15 37l159 39v314h-141v36h141v129h-84q-29 -46 -54 -79l-28 24q58 75 109 174.5t73 181.5l29 -18
q-1 -6 -5.5 -20t-6.5 -21q85 -80 144 -156zM374 286q-32 -106 -68 -178l-32 11q49 102 68 180q7 -2 17.5 -7t14.5 -6zM487 111q-40 -86 -87 -137l-26 24q52 58 86 134zM178 109q-6 -2 -18.5 -6.5t-14.5 -5.5q-23 94 -65 177q19 9 30 16q41 -89 68 -181z" />
    <glyph glyph-name="u2897E" unicode="&#x2897e;" 
d="M902 645q-30 -113 -86 -240l-38 16q50 107 89 240zM593 419l-39 -14q-28 121 -74 238l37 15q48 -117 76 -239zM948 294h-237v-355h-42v355h-246v38h246v405h-214v38h461v-38h-205v-405h237v-38zM439 613l-29 -27q-70 84 -151 143q-50 -104 -95 -177h235v-37h-123v-126
h146v-38h-146v-305l161 41v-37l-366 -92l-15 41l180 38v314h-150v38h150v127h-96l-53 -76l-33 28q65 79 119.5 176.5t84.5 178.5l32 -18q-2 -8 -8 -22t-7 -18q96 -70 164 -152zM412 271q-39 -104 -78 -180l-31 16q48 100 74 177q14 -4 35 -13zM201 95q-6 -3 -34 -16
q-31 98 -72 188l35 12q29 -61 71 -184z" />
    <glyph glyph-name="u2897E" unicode="&#xe55e;" 
d="M902 645q-30 -113 -86 -240l-38 16q50 107 89 240zM593 419l-39 -14q-28 121 -74 238l37 15q48 -117 76 -239zM948 294h-237v-355h-42v355h-246v38h246v405h-214v38h461v-38h-205v-405h237v-38zM439 613l-29 -27q-70 84 -151 143q-50 -104 -95 -177h235v-37h-123v-126
h146v-38h-146v-305l161 41v-37l-366 -92l-15 41l180 38v314h-150v38h150v127h-96l-53 -76l-33 28q65 79 119.5 176.5t84.5 178.5l32 -18q-2 -8 -8 -22t-7 -18q96 -70 164 -152zM412 271q-39 -104 -78 -180l-31 16q48 100 74 177q14 -4 35 -13zM201 95q-6 -3 -34 -16
q-31 98 -72 188l35 12q29 -61 71 -184z" />
    <glyph glyph-name="uni93F3" unicode="&#xe561;" 
 />
    <glyph glyph-name="u28A44" unicode="&#x28a44;" 
d="M861 470h-387v325h387v-325zM717 363q-8 -9 -27 -26q-40 51 -98 100l24 26q41 -32 101 -100zM909 293h-480v38h480v-38zM947 -21h-576v38h309q60 103 118 260l35 -17q-48 -130 -109 -243h223v-38zM634 61q-5 -4 -17.5 -12t-13.5 -9q-42 105 -108 217l27 21
q55 -81 112 -217zM419 616l-27 -27q-65 80 -144 141q-49 -104 -91 -175h224v-36h-117v-125h139v-37h-139v-300l153 39v-37l-348 -90l-15 39l171 40v309h-142v37h142v126h-91l-50 -75l-30 24q61 77 112.5 174.5t80.5 179.5l30 -18q-1 -6 -3.5 -12t-5.5 -14t-5 -13
q79 -59 156 -150zM394 278q-38 -105 -75 -178l-29 16q44 92 70 174q22 -7 34 -12zM193 104q-6 -4 -18.5 -9.5t-14.5 -6.5q-32 107 -68 186l33 12q27 -58 68 -182zM822 657v100h-308v-100h308zM822 508v113h-308v-113h308z" />
    <glyph glyph-name="u28A44" unicode="&#xe562;" 
d="M861 470h-387v325h387v-325zM717 363q-8 -9 -27 -26q-40 51 -98 100l24 26q41 -32 101 -100zM909 293h-480v38h480v-38zM947 -21h-576v38h309q60 103 118 260l35 -17q-48 -130 -109 -243h223v-38zM634 61q-5 -4 -17.5 -12t-13.5 -9q-42 105 -108 217l27 21
q55 -81 112 -217zM419 616l-27 -27q-65 80 -144 141q-49 -104 -91 -175h224v-36h-117v-125h139v-37h-139v-300l153 39v-37l-348 -90l-15 39l171 40v309h-142v37h142v126h-91l-50 -75l-30 24q61 77 112.5 174.5t80.5 179.5l30 -18q-1 -6 -3.5 -12t-5.5 -14t-5 -13
q79 -59 156 -150zM394 278q-38 -105 -75 -178l-29 16q44 92 70 174q22 -7 34 -12zM193 104q-6 -4 -18.5 -9.5t-14.5 -6.5q-32 107 -68 186l33 12q27 -58 68 -182zM822 657v100h-308v-100h308zM822 508v113h-308v-113h308z" />
    <glyph glyph-name="uni9381" unicode="&#xe564;" 
 />
    <glyph glyph-name="uni93CB" unicode="&#xe565;" 
 />
    <glyph glyph-name="u2896C" unicode="&#x2896c;" 
d="M932 450l-24 -35q-119 53 -193 116q-83 -54 -182 -91l-22 33q110 43 172 85q-80 76 -123 162h-46v38h379v-41q-49 -82 -147 -161q69 -57 186 -106zM488 484l-26 -35q-44 31 -112 62q-122 -103 -255 -159l-22 36q149 63 237 141q-45 23 -115 43l-35 -55l-31 21l103 157
h-144v37h170l70 118l32 -20l-59 -98h182v-39q-48 -89 -103 -149q89 -47 108 -60zM955 226q-2 -5 -23 -34q-253 72 -439 191q-179 -125 -422 -213q-16 19 -26 36q134 44 256 106.5t202 130.5l38 -15l-21 -20q185 -115 435 -182zM911 -45h-822v40h264q-28 43 -66 78l29 26
q44 -50 77 -104h87v114h-274v37h274v71h-177v37h394v-37h-177v-71h274v-37h-274v-114h83q40 44 74 104l31 -26q-34 -47 -63 -78h266v-40zM849 720h-247q43 -76 114 -139q82 62 133 139zM440 695h-164l-58 -89q59 -14 126 -45q51 51 96 134z" />
    <glyph glyph-name="u2896C" unicode="&#xe566;" 
d="M932 450l-24 -35q-119 53 -193 116q-83 -54 -182 -91l-22 33q110 43 172 85q-80 76 -123 162h-46v38h379v-41q-49 -82 -147 -161q69 -57 186 -106zM488 484l-26 -35q-44 31 -112 62q-122 -103 -255 -159l-22 36q149 63 237 141q-45 23 -115 43l-35 -55l-31 21l103 157
h-144v37h170l70 118l32 -20l-59 -98h182v-39q-48 -89 -103 -149q89 -47 108 -60zM955 226q-2 -5 -23 -34q-253 72 -439 191q-179 -125 -422 -213q-16 19 -26 36q134 44 256 106.5t202 130.5l38 -15l-21 -20q185 -115 435 -182zM911 -45h-822v40h264q-28 43 -66 78l29 26
q44 -50 77 -104h87v114h-274v37h274v71h-177v37h394v-37h-177v-71h274v-37h-274v-114h83q40 44 74 104l31 -26q-34 -47 -63 -78h266v-40zM849 720h-247q43 -76 114 -139q82 62 133 139zM440 695h-164l-58 -89q59 -14 126 -45q51 51 96 134z" />
    <glyph glyph-name="uni7A43" unicode="&#xe56b;" 
 />
    <glyph glyph-name="uni70D0" unicode="&#xe56c;" 
 />
    <glyph glyph-name="u24473" unicode="&#x24473;" 
d="M961 735h-162v-52h-38v52h-98v36h98v67h38v-67h162v-36zM608 735h-96v-52h-38v52h-156v36h156v67h38v-67h96v-36zM963 531h-90v-93h-222v-52h249v-438h-36v152h-117v-103h-34v132h151v42h-213v-210h-35v210h-217v-42h152v-132h-34v103h-118v-152h-35v438h252v52h-230v35
h230v58h-304v37h304v58h-229v34h229v50h35v-50h222v-92h90v-37zM127 593q-14 -107 -45 -205l-37 14q36 98 48 203zM344 96q-6 -5 -34 -22q-50 108 -105 169q-31 -151 -123 -304l-37 26q137 192 137 455v412h38v-298q43 47 82 105l27 -28q-43 -62 -110 -127q-2 -136 -6 -188
q76 -90 131 -200zM836 568v58h-185v-58h185zM836 473v58h-185v-58h185zM864 206v41h-151v83h33v-51h118v74h-213v-147h213zM616 206v147h-217v-74h118v51h34v-83h-152v-41h217z" />
    <glyph glyph-name="u24473" unicode="&#xe56d;" 
d="M961 735h-162v-52h-38v52h-98v36h98v67h38v-67h162v-36zM608 735h-96v-52h-38v52h-156v36h156v67h38v-67h96v-36zM963 531h-90v-93h-222v-52h249v-438h-36v152h-117v-103h-34v132h151v42h-213v-210h-35v210h-217v-42h152v-132h-34v103h-118v-152h-35v438h252v52h-230v35
h230v58h-304v37h304v58h-229v34h229v50h35v-50h222v-92h90v-37zM127 593q-14 -107 -45 -205l-37 14q36 98 48 203zM344 96q-6 -5 -34 -22q-50 108 -105 169q-31 -151 -123 -304l-37 26q137 192 137 455v412h38v-298q43 47 82 105l27 -28q-43 -62 -110 -127q-2 -136 -6 -188
q76 -90 131 -200zM836 568v58h-185v-58h185zM836 473v58h-185v-58h185zM864 206v41h-151v83h33v-51h118v74h-213v-147h213zM616 206v147h-217v-74h118v51h34v-83h-152v-41h217z" />
    <glyph glyph-name="u218BE" unicode="&#x218be;" 
d="M960 467l-29 -27q-55 102 -117 166l26 25q74 -82 120 -164zM936 677h-137v-280h-36v280q-18 -61 -52.5 -131.5t-73.5 -124.5q-8 8 -31 24q79 96 125 232h-66v37h98v116h36v-116h137v-37zM647 548l-25 -27q-36 61 -76 96l23 26q50 -46 78 -95zM641 677h-102v-280h-35v280
q-45 -138 -122 -270l-29 24q81 138 115 246h-90v37h126v116h35v-116h102v-37zM844 321h-373v38h373v-38zM953 -6l-29 -29q-78 93 -178 159l25 30q93 -58 182 -160zM939 197h-260v-211q0 -56 -68 -56l-51 1l-15 38l59 -2q38 -2 38 31v199h-263v37h560v-37zM378 110l-24 -31
q-51 61 -92 90q-31 -59 -78 -123t-94 -106l-29 26q116 111 171 227q-39 34 -83 55l-9 -38l-35 11l70 344h-116v36h123l45 235l35 -11l-43 -224h144q-15 -138 -30.5 -218.5t-53.5 -176.5q52 -42 99 -96zM562 136q-76 -98 -171 -177l-27 30q97 74 169 173zM324 563h-111
q-49 -245 -55 -277q39 -19 91 -58q46 111 75 335z" />
    <glyph glyph-name="u218BE" unicode="&#xe572;" 
d="M960 467l-29 -27q-55 102 -117 166l26 25q74 -82 120 -164zM936 677h-137v-280h-36v280q-18 -61 -52.5 -131.5t-73.5 -124.5q-8 8 -31 24q79 96 125 232h-66v37h98v116h36v-116h137v-37zM647 548l-25 -27q-36 61 -76 96l23 26q50 -46 78 -95zM641 677h-102v-280h-35v280
q-45 -138 -122 -270l-29 24q81 138 115 246h-90v37h126v116h35v-116h102v-37zM844 321h-373v38h373v-38zM953 -6l-29 -29q-78 93 -178 159l25 30q93 -58 182 -160zM939 197h-260v-211q0 -56 -68 -56l-51 1l-15 38l59 -2q38 -2 38 31v199h-263v37h560v-37zM378 110l-24 -31
q-51 61 -92 90q-31 -59 -78 -123t-94 -106l-29 26q116 111 171 227q-39 34 -83 55l-9 -38l-35 11l70 344h-116v36h123l45 235l35 -11l-43 -224h144q-15 -138 -30.5 -218.5t-53.5 -176.5q52 -42 99 -96zM562 136q-76 -98 -171 -177l-27 30q97 74 169 173zM324 563h-111
q-49 -245 -55 -277q39 -19 91 -58q46 111 75 335z" />
    <glyph glyph-name="u214B6" unicode="&#x214b6;" 
d="M571 763l-29 -21q-26 44 -68 92l26 21q36 -38 71 -92zM950 309l-21 -27q-122 84 -211 210h-173q-88 -133 -212 -222q-3 4 -11.5 14t-12.5 15q51 34 107.5 89.5t86.5 103.5h-167v35h279v75h-206v34h206v64h-242v34h313l66 117l31 -17q-35 -64 -58 -100h168v-34h-244v-64
h206v-34h-206v-75h280v-35h-170q77 -105 191 -183zM682 404l-22 -24q-41 48 -83 77l22 24q42 -33 83 -77zM934 -29l-18 -34q-102 38 -172 81t-125 123h-121v-123l152 45v-35l-262 -79l-12 38l87 21v363h327v-230h-130q43 -53 91 -83q58 52 107 123l26 -21q-43 -60 -105 -120
q57 -37 155 -69zM348 205l-293 -109l-17 36l148 51v321h-119v37h119v276h36v-276h102v-37h-102v-308l126 46v-37zM754 275v60h-256v-60h256zM754 177v64h-256v-64h256z" />
    <glyph glyph-name="u214B6" unicode="&#xe586;" 
d="M571 763l-29 -21q-26 44 -68 92l26 21q36 -38 71 -92zM950 309l-21 -27q-122 84 -211 210h-173q-88 -133 -212 -222q-3 4 -11.5 14t-12.5 15q51 34 107.5 89.5t86.5 103.5h-167v35h279v75h-206v34h206v64h-242v34h313l66 117l31 -17q-35 -64 -58 -100h168v-34h-244v-64
h206v-34h-206v-75h280v-35h-170q77 -105 191 -183zM682 404l-22 -24q-41 48 -83 77l22 24q42 -33 83 -77zM934 -29l-18 -34q-102 38 -172 81t-125 123h-121v-123l152 45v-35l-262 -79l-12 38l87 21v363h327v-230h-130q43 -53 91 -83q58 52 107 123l26 -21q-43 -60 -105 -120
q57 -37 155 -69zM348 205l-293 -109l-17 36l148 51v321h-119v37h119v276h36v-276h102v-37h-102v-308l126 46v-37zM754 275v60h-256v-60h256zM754 177v64h-256v-64h256z" />
    <glyph glyph-name="uni8455" unicode="&#xe58a;" 
 />
    <glyph glyph-name="u24994" unicode="&#x24994;" 
d="M844 808q-61 -93 -116 -146l-30 24q69 69 116 142zM525 682l-33 -23q-47 79 -109 138l31 25q58 -56 111 -140zM957 241l-25 -31q-97 64 -167 132q-4 -103 -13 -156q-7 -38 -42 -51q-17 -6 -37 -6.5t-32.5 1.5t-34.5 7.5t-27 6.5l-6 41q12 -2 35.5 -7.5t42 -8t36.5 -1.5
q25 8 31 52q8 68 7 101h-242v-275q0 -35 37 -35h277q25 0 39 27.5t31 107.5l33 -17q-6 -28 -8 -38.5t-8.5 -34.5t-13 -34t-16.5 -24t-24 -19.5t-31 -5.5h-293q-30 0 -46 17.5t-16 44.5v301q-93 -93 -162 -143l-26 28q162 123 247 250h-202v37h218q22 36 40 88l-184 1v36h195
q25 90 31 215h37q-6 -122 -29 -214h273v-38h-282q-30 -76 -36 -88h370v-37h-231q82 -119 254 -230zM344 133l-284 -88l-13 38l121 37v286h-108v36h108v227h-121v36h271v-36h-111v-227h107v-36h-107v-276l137 43v-40zM746 359q-55 65 -86 112h-113q-36 -58 -83 -112h282z" />
    <glyph glyph-name="u24994" unicode="&#xe58b;" 
d="M844 808q-61 -93 -116 -146l-30 24q69 69 116 142zM525 682l-33 -23q-47 79 -109 138l31 25q58 -56 111 -140zM957 241l-25 -31q-97 64 -167 132q-4 -103 -13 -156q-7 -38 -42 -51q-17 -6 -37 -6.5t-32.5 1.5t-34.5 7.5t-27 6.5l-6 41q12 -2 35.5 -7.5t42 -8t36.5 -1.5
q25 8 31 52q8 68 7 101h-242v-275q0 -35 37 -35h277q25 0 39 27.5t31 107.5l33 -17q-6 -28 -8 -38.5t-8.5 -34.5t-13 -34t-16.5 -24t-24 -19.5t-31 -5.5h-293q-30 0 -46 17.5t-16 44.5v301q-93 -93 -162 -143l-26 28q162 123 247 250h-202v37h218q22 36 40 88l-184 1v36h195
q25 90 31 215h37q-6 -122 -29 -214h273v-38h-282q-30 -76 -36 -88h370v-37h-231q82 -119 254 -230zM344 133l-284 -88l-13 38l121 37v286h-108v36h108v227h-121v36h271v-36h-111v-227h107v-36h-107v-276l137 43v-40zM746 359q-55 65 -86 112h-113q-36 -58 -83 -112h282z" />
    <glyph glyph-name="uniE596" unicode="&#xe596;" 
d="M690 774l-23 -31q-35 28 -119 76l21 31q71 -39 121 -76zM954 703h-607v37h607v-37zM906 406q-87 -35 -172 -53q-3 5 -8 16.5t-7 16.5q99 20 174 50zM884 464h-485v173h485v-173zM915 276l-11 -34q-100 41 -207 63l9 32q119 -25 209 -61zM653 279h-37v163h37v-163z
M557 385q-4 -15 -11 -34q-82 29 -168 48l11 33q126 -32 168 -47zM583 306q-175 -54 -221 -70l-12 37l232 68zM945 -31l-17 -32q-121 46 -192 102.5t-147 163.5q-45 -34 -77 -53v-144l141 60v-38l-221 -95l-16 35l59 23v137q-88 -51 -161 -84l-20 30q214 98 323 193l26 -22
l-25 -22q39 -60 87 -109q67 45 136 114l24 -27q-70 -63 -134 -110q88 -80 214 -122zM353 129l-28 -27q-39 46 -76 77q-49 -103 -162 -229l-27 26q119 135 161 227q-27 24 -78 55l-8 -38l-34 11l66 344h-109v36h115l43 235l34 -11l-41 -224h137q-14 -135 -29.5 -218.5
t-51.5 -179.5q38 -31 88 -84zM846 500v102h-118v-102h118zM690 500v102h-109v-102h109zM544 500v102h-107v-102h107zM308 573h-104q-46 -245 -52 -277q43 -22 86 -58q42 109 70 335z" />
    <glyph glyph-name="uniE596" unicode="&#x3733;" 
d="M690 774l-23 -31q-35 28 -119 76l21 31q71 -39 121 -76zM954 703h-607v37h607v-37zM906 406q-87 -35 -172 -53q-3 5 -8 16.5t-7 16.5q99 20 174 50zM884 464h-485v173h485v-173zM915 276l-11 -34q-100 41 -207 63l9 32q119 -25 209 -61zM653 279h-37v163h37v-163z
M557 385q-4 -15 -11 -34q-82 29 -168 48l11 33q126 -32 168 -47zM583 306q-175 -54 -221 -70l-12 37l232 68zM945 -31l-17 -32q-121 46 -192 102.5t-147 163.5q-45 -34 -77 -53v-144l141 60v-38l-221 -95l-16 35l59 23v137q-88 -51 -161 -84l-20 30q214 98 323 193l26 -22
l-25 -22q39 -60 87 -109q67 45 136 114l24 -27q-70 -63 -134 -110q88 -80 214 -122zM353 129l-28 -27q-39 46 -76 77q-49 -103 -162 -229l-27 26q119 135 161 227q-27 24 -78 55l-8 -38l-34 11l66 344h-109v36h115l43 235l34 -11l-41 -224h137q-14 -135 -29.5 -218.5
t-51.5 -179.5q38 -31 88 -84zM846 500v102h-118v-102h118zM690 500v102h-109v-102h109zM544 500v102h-107v-102h107zM308 573h-104q-46 -245 -52 -277q43 -22 86 -58q42 109 70 335z" />
    <glyph glyph-name="uniE59C" unicode="&#xe59c;" 
d="M874 585h-456v178h38v-141h169v211h40v-210h170v141h39v-179zM919 466h-545v36h545v-36zM844 191h-401v195h401v-195zM808 156q-51 -85 -105 -147q-5 4 -14.5 11.5t-14.5 11.5q59 67 103 142zM612 34l-31 -25q-46 74 -105 141l27 23q51 -55 109 -139zM940 -33h-638v37
h638v-37zM307 39h-40v69h-135v-108h-41v774h216v-735zM804 229v121h-321v-121h321zM268 571v163h-136v-163h136zM268 362v168h-136v-168h136zM268 146v177h-136v-177h136z" />
    <glyph glyph-name="uniE59C" unicode="&#x4057;" 
d="M874 585h-456v178h38v-141h169v211h40v-210h170v141h39v-179zM919 466h-545v36h545v-36zM844 191h-401v195h401v-195zM808 156q-51 -85 -105 -147q-5 4 -14.5 11.5t-14.5 11.5q59 67 103 142zM612 34l-31 -25q-46 74 -105 141l27 23q51 -55 109 -139zM940 -33h-638v37
h638v-37zM307 39h-40v69h-135v-108h-41v774h216v-735zM804 229v121h-321v-121h321zM268 571v163h-136v-163h136zM268 362v168h-136v-168h136zM268 146v177h-136v-177h136z" />
    <glyph glyph-name="u266B1" unicode="&#x266b1;" 
d="M946 109l-28 -113q-5 -19 -21 -32t-35 -13h-262q-28 0 -44 17t-16 44v270q-81 -66 -156 -114l-22 31q165 105 295 232h-264v36h200v158h-158v36h158v156h39v-156h171v-36h-171v-158h58q100 109 193 251l28 -22q-85 -132 -173 -229h206v-36h-235q-61 -62 -130 -118v-126
q136 32 283 111l24 -32q-150 -77 -307 -117v-129q0 -14 9.5 -23.5t26.5 -9.5h241q25 0 33 38q3 15 10.5 50.5t10.5 54.5zM351 5q0 -66 -60 -66h-67l-12 39h69q13 0 22.5 8t9.5 23v290h-155l-1 -39q-4 -201 -81 -324l-33 23q76 123 76 332v496h232v-782zM313 570v180h-155
v-180h155zM313 336v197h-155v-197h155z" />
    <glyph glyph-name="u266B1" unicode="&#xe5a4;" 
d="M946 109l-28 -113q-5 -19 -21 -32t-35 -13h-262q-28 0 -44 17t-16 44v270q-81 -66 -156 -114l-22 31q165 105 295 232h-264v36h200v158h-158v36h158v156h39v-156h171v-36h-171v-158h58q100 109 193 251l28 -22q-85 -132 -173 -229h206v-36h-235q-61 -62 -130 -118v-126
q136 32 283 111l24 -32q-150 -77 -307 -117v-129q0 -14 9.5 -23.5t26.5 -9.5h241q25 0 33 38q3 15 10.5 50.5t10.5 54.5zM351 5q0 -66 -60 -66h-67l-12 39h69q13 0 22.5 8t9.5 23v290h-155l-1 -39q-4 -201 -81 -324l-33 23q76 123 76 332v496h232v-782zM313 570v180h-155
v-180h155zM313 336v197h-155v-197h155z" />
    <glyph glyph-name="u28B13" unicode="&#x28b13;" 
d="M925 703q-6 -4 -15.5 -11.5t-12.5 -9.5q-31 57 -77 107l25 21q44 -50 80 -107zM959 252q-15 -81 -24 -113q-8 -28 -19.5 -38t-24.5 -2.5t-25 30.5q-25 47 -54 135q-67 -108 -136 -190q-3 3 -13 11.5t-14 12.5q92 109 152 215q-27 127 -42 307h-71v-325l72 75l11 -35
l-135 -140l-20 30l36 36v396h104l-4 180l34 4q-1 -64 3 -184h150v-37h-148q8 -120 33 -260q39 82 74 212l29 -16q-30 -125 -92 -246q37 -123 66 -163q18 62 26 126zM960 31l-24 -40l-301 -1q-67 0 -122 36.5t-112 98.5q-28 -106 -71 -184q-5 2 -32 18q74 127 103 368l34 -9
q-5 -40 -25 -156q41 -49 80 -79v379h-117v37h104v157h-92v36h92v155h37v-155h95v-36h-95v-157h116v-37h-103v-139h91v-37h-91v-225q48 -36 116 -36q213 0 317 6zM360 603q-3 -3 -12.5 -14t-14.5 -14q-54 92 -117 159q-18 -39 -58.5 -103t-76.5 -108l-31 28q106 120 168 278
l32 -16q-6 -18 -19 -44q59 -60 129 -166zM352 297q-31 -103 -65 -187q-23 11 -30 16q40 88 62 184zM336 61l-248 -95l-21 36l132 45v309h-108v35h108v126h-85v35h206v-35h-83v-126h95v-35h-95v-295l99 37v-37zM166 112q-4 -2 -16.5 -6.5t-16.5 -6.5q-21 102 -54 185
q24 8 32 12q37 -103 55 -184z" />
    <glyph glyph-name="u28B13" unicode="&#xe5aa;" 
d="M925 703q-6 -4 -15.5 -11.5t-12.5 -9.5q-31 57 -77 107l25 21q44 -50 80 -107zM959 252q-15 -81 -24 -113q-8 -28 -19.5 -38t-24.5 -2.5t-25 30.5q-25 47 -54 135q-67 -108 -136 -190q-3 3 -13 11.5t-14 12.5q92 109 152 215q-27 127 -42 307h-71v-325l72 75l11 -35
l-135 -140l-20 30l36 36v396h104l-4 180l34 4q-1 -64 3 -184h150v-37h-148q8 -120 33 -260q39 82 74 212l29 -16q-30 -125 -92 -246q37 -123 66 -163q18 62 26 126zM960 31l-24 -40l-301 -1q-67 0 -122 36.5t-112 98.5q-28 -106 -71 -184q-5 2 -32 18q74 127 103 368l34 -9
q-5 -40 -25 -156q41 -49 80 -79v379h-117v37h104v157h-92v36h92v155h37v-155h95v-36h-95v-157h116v-37h-103v-139h91v-37h-91v-225q48 -36 116 -36q213 0 317 6zM360 603q-3 -3 -12.5 -14t-14.5 -14q-54 92 -117 159q-18 -39 -58.5 -103t-76.5 -108l-31 28q106 120 168 278
l32 -16q-6 -18 -19 -44q59 -60 129 -166zM352 297q-31 -103 -65 -187q-23 11 -30 16q40 88 62 184zM336 61l-248 -95l-21 36l132 45v309h-108v35h108v126h-85v35h206v-35h-83v-126h95v-35h-95v-295l99 37v-37zM166 112q-4 -2 -16.5 -6.5t-16.5 -6.5q-21 102 -54 185
q24 8 32 12q37 -103 55 -184z" />
    <glyph glyph-name="uni4EF8" unicode="&#xe5ac;" 
 />
    <glyph glyph-name="uni512B" unicode="&#xe5ad;" 
d="M926 706h-601v37h314q-33 27 -125 71l19 29q61 -22 131 -71l-16 -29h278v-37zM801 522h-370v141h370v-141zM894 335h-38v101h-465v-105h-39v140h542v-136zM939 27l-25 -29q-117 86 -186 201q-5 -3 -11 -6t-13.5 -6.5t-11.5 -5.5q17 -87 -2 -177q-8 -38 -42.5 -55.5
t-77.5 -11.5l-66 11l-7 38q49 -11 76 -14q60 -7 77 32q9 21 12.5 66t-0.5 71q-114 -89 -328 -167q-4 4 -11.5 15t-10.5 15q229 77 342 176q-3 17 -25 48q-113 -81 -255 -130l-19 33q149 49 253 122q-14 16 -47 37q-105 -61 -197 -88q-6 14 -20 32q148 41 236 109h-152v36
h384v-36h-181l-39 -31q64 -46 89 -97q67 28 151 100l23 -29q-38 -30 -95 -68q61 -109 179 -191zM761 558v68h-290v-68h290zM316 819q-17 -46 -83 -190v-690h-38v625q-15 -27 -51.5 -78.5t-68.5 -87.5l-28 24q86 99 138 194.5t97 219.5z" />
    <glyph glyph-name="u20465" unicode="&#x20465;" 
d="M944 711h-151l42 -71l-32 -21q-17 37 -49 92h-57q-8 -15 -50 -77l-30 18v-42h287v-33h-287v-51h220v-33h-455v33h199v51h-241v33h241v68h36v-18q56 68 103 172q19 -7 34 -17q-15 -33 -38 -72h228v-32zM623 711h-136q29 -49 39 -71l-32 -20q-20 49 -48 92h-51
q-48 -78 -94 -131q-10 11 -30 27q79 84 148 224q15 -7 32 -17q-19 -43 -37 -71h209v-33zM929 457l-55 -135l-31 15l37 87h-578v33h627zM850 274h-498v33h225v45h-192v31h424v-31h-196v-45h237v-33zM956 204h-126v-62h107v-34h-107v-120q0 -19 -13 -34t-36 -15h-60l-13 36
l68 -1q7 0 12.5 4.5t5.5 11.5v118h-212v34h212v62h-513v33h675v-33zM706 7q-4 -3 -14.5 -9.5t-14.5 -9.5q-27 53 -58 92q4 2 14 9t14 9q26 -32 59 -91zM298 813q-24 -92 -81 -227v-662h-38v577q-41 -93 -100 -172l-31 27q63 76 122 214t91 257q7 -2 19.5 -7zM553 -4h-208
v162h208v-162zM518 29v95h-137v-95h137z" />
    <glyph glyph-name="u20465" unicode="&#xe5b1;" 
d="M944 711h-151l42 -71l-32 -21q-17 37 -49 92h-57q-8 -15 -50 -77l-30 18v-42h287v-33h-287v-51h220v-33h-455v33h199v51h-241v33h241v68h36v-18q56 68 103 172q19 -7 34 -17q-15 -33 -38 -72h228v-32zM623 711h-136q29 -49 39 -71l-32 -20q-20 49 -48 92h-51
q-48 -78 -94 -131q-10 11 -30 27q79 84 148 224q15 -7 32 -17q-19 -43 -37 -71h209v-33zM929 457l-55 -135l-31 15l37 87h-578v33h627zM850 274h-498v33h225v45h-192v31h424v-31h-196v-45h237v-33zM956 204h-126v-62h107v-34h-107v-120q0 -19 -13 -34t-36 -15h-60l-13 36
l68 -1q7 0 12.5 4.5t5.5 11.5v118h-212v34h212v62h-513v33h675v-33zM706 7q-4 -3 -14.5 -9.5t-14.5 -9.5q-27 53 -58 92q4 2 14 9t14 9q26 -32 59 -91zM298 813q-24 -92 -81 -227v-662h-38v577q-41 -93 -100 -172l-31 27q63 76 122 214t91 257q7 -2 19.5 -7zM553 -4h-208
v162h208v-162zM518 29v95h-137v-95h137z" />
    <glyph glyph-name="uni4F8A" unicode="&#xe5b4;" 
d="M852 734q-76 -152 -125 -223q-6 3 -35 22q74 101 128 220q5 -3 16 -9.5t16 -9.5zM515 530q-14 -12 -36 -20q-30 95 -117 218l32 19q70 -88 121 -217zM930 412h-216v-367q1 -13 14 -26q9 -8 23 -10t26 -0.5t27 -0.5q14 2 23.5 11.5t13 19t7.5 27t6 23.5l13 73q4 -1 35 -15
q-10 -57 -28 -126q-16 -41 -58 -48q-8 0 -24 -0.5t-25.5 -1t-24 1.5t-24 5.5t-19.5 11t-17 19.5q-11 20 -11 56v347h-136q0 -157 -47.5 -269.5t-164.5 -211.5h-2l-32 32q118 93 161.5 194.5t43.5 254.5h-206v38h298v393h42v-393h302v-38zM318 828q-29 -76 -83 -190v-699h-40
v630q-35 -58 -116 -162l-32 25q86 99 139 196.5t98 220.5z" />
    <glyph glyph-name="u201AB" unicode="&#x201ab;" 
d="M945 598h-210v-572q0 -40 -26.5 -59t-66.5 -19h-88l-14 41l98 -3q56 -2 56 42v468q-65 -95 -171 -217.5t-203 -209.5q-14 17 -28 31q110 95 222.5 225t179.5 235v38h-351v40h351v217h41v-217h210v-40zM318 828q-29 -76 -83 -190v-699h-40v630q-35 -58 -116 -162l-32 25
q86 99 139 196.5t98 220.5z" />
    <glyph glyph-name="u201AB" unicode="&#xe5b7;" 
d="M945 598h-210v-572q0 -40 -26.5 -59t-66.5 -19h-88l-14 41l98 -3q56 -2 56 42v468q-65 -95 -171 -217.5t-203 -209.5q-14 17 -28 31q110 95 222.5 225t179.5 235v38h-351v40h351v217h41v-217h210v-40zM318 828q-29 -76 -83 -190v-699h-40v630q-35 -58 -116 -162l-32 25
q86 99 139 196.5t98 220.5z" />
    <glyph glyph-name="u20414" unicode="&#x20414;" 
d="M955 255l-31 -21q-42 65 -105 133l30 19q66 -73 106 -131zM871 408h-503v184q-31 -35 -66 -62l-29 25q141 112 258 287l35 -15l-48 -60h238v-36l-73 -76h188v-247zM753 277q-21 -9 -35 -13q-21 59 -55 112q10 3 32 11q33 -50 58 -110zM592 272q-26 -10 -35 -12
q-16 58 -45 115q12 3 33 11q27 -57 47 -114zM844 -70h-39v57h-375v-60h-39v319h453v-316zM419 366q-41 -68 -104 -131q-6 4 -17 13t-13 10q57 50 104 126q2 -1 13 -8t17 -10zM303 830q-15 -54 -81 -232v-664h-38v590q-33 -86 -104 -184l-30 25q65 76 126.5 218.5t93.5 263.5
l16 -8t17 -9zM835 550v70h-197v-70h197zM709 731h-214l-25 -31q-26 -30 -40 -45h204zM835 443v72h-197v-72h197zM603 550v70h-198v-70h198zM603 443v72h-198v-72h198zM805 139v71h-375v-71h375zM805 23v81h-375v-81h375z" />
    <glyph glyph-name="u20414" unicode="&#xe5bb;" 
d="M955 255l-31 -21q-42 65 -105 133l30 19q66 -73 106 -131zM871 408h-503v184q-31 -35 -66 -62l-29 25q141 112 258 287l35 -15l-48 -60h238v-36l-73 -76h188v-247zM753 277q-21 -9 -35 -13q-21 59 -55 112q10 3 32 11q33 -50 58 -110zM592 272q-26 -10 -35 -12
q-16 58 -45 115q12 3 33 11q27 -57 47 -114zM844 -70h-39v57h-375v-60h-39v319h453v-316zM419 366q-41 -68 -104 -131q-6 4 -17 13t-13 10q57 50 104 126q2 -1 13 -8t17 -10zM303 830q-15 -54 -81 -232v-664h-38v590q-33 -86 -104 -184l-30 25q65 76 126.5 218.5t93.5 263.5
l16 -8t17 -9zM835 550v70h-197v-70h197zM709 731h-214l-25 -31q-26 -30 -40 -45h204zM835 443v72h-197v-72h197zM603 550v70h-198v-70h198zM603 443v72h-198v-72h198zM805 139v71h-375v-71h375zM805 23v81h-375v-81h375z" />
    <glyph glyph-name="u202C0" unicode="&#x202c0;" 
d="M887 328q0 -32 -40 -53q-1 -5 -50.5 -5h-53.5l-12 39q13 0 47.5 -0.5t47.5 0.5q15 3 22 19v61h-219v-97h-39v97h-207v-126h-40v368h288v2q-82 41 -150 69l19 30q28 -12 107 -53q25 10 89.5 38t97.5 40v2h-478v36h558v-36q-127 -61 -227 -102q21 -11 36 -26h204v-303z
M893 213q-8 -133 -24 -205q-9 -43 -47 -56q-11 -5 -50 -3q-84 16 -93 19l-4 40q87 -20 119 -24q29 3 37 29q18 97 22 164h-252q-17 -57 -48 -99t-77 -69t-91.5 -44t-108.5 -32q-4 5 -19 35q57 13 97 26t86 36.5t77 60t45 85.5h-249v37h260q2 7 10 59l34 -6q0 -11 -3.5 -31.5
t-3.5 -21.5h283zM303 830q-15 -54 -81 -232v-664h-38v590q-33 -86 -104 -184l-30 25q65 76 126.5 218.5t93.5 263.5l16 -8t17 -9zM849 528v68h-220v-68h220zM849 424v69h-220v-69h220zM590 528v68h-207v-68h207zM590 424v69h-207v-69h207z" />
    <glyph glyph-name="u202C0" unicode="&#xe5be;" 
d="M887 328q0 -32 -40 -53q-1 -5 -50.5 -5h-53.5l-12 39q13 0 47.5 -0.5t47.5 0.5q15 3 22 19v61h-219v-97h-39v97h-207v-126h-40v368h288v2q-82 41 -150 69l19 30q28 -12 107 -53q25 10 89.5 38t97.5 40v2h-478v36h558v-36q-127 -61 -227 -102q21 -11 36 -26h204v-303z
M893 213q-8 -133 -24 -205q-9 -43 -47 -56q-11 -5 -50 -3q-84 16 -93 19l-4 40q87 -20 119 -24q29 3 37 29q18 97 22 164h-252q-17 -57 -48 -99t-77 -69t-91.5 -44t-108.5 -32q-4 5 -19 35q57 13 97 26t86 36.5t77 60t45 85.5h-249v37h260q2 7 10 59l34 -6q0 -11 -3.5 -31.5
t-3.5 -21.5h283zM303 830q-15 -54 -81 -232v-664h-38v590q-33 -86 -104 -184l-30 25q65 76 126.5 218.5t93.5 263.5l16 -8t17 -9zM849 528v68h-220v-68h220zM849 424v69h-220v-69h220zM590 528v68h-207v-68h207zM590 424v69h-207v-69h207z" />
    <glyph glyph-name="u2020C" unicode="&#x2020c;" 
 />
    <glyph glyph-name="u2020C" unicode="&#xe5c2;" 
 />
    <glyph glyph-name="uni4E98" unicode="&#xe5c3;" 
d="M881 712h-788v41h788v-41zM755 170h-534v433h534v-433zM939 2h-898v39h898v-39zM712 421v142h-447v-142h447zM711 210v170h-446v-170h446z" />
    <glyph glyph-name="uni4FA2" unicode="&#xe5c6;" 
 />
    <glyph glyph-name="uni4F03" unicode="&#xe5c7;" 
d="M882 775l-1 -31q-158 -129 -238 -187q32 -20 64 -47l-23 -30q-113 84 -237 143q17 20 25 28q69 -31 136 -75q34 24 87 64.5t89 68.5l36 28h-472v38h534zM915 467l-99 -189l-34 17l73 135h-230v-433q0 -33 -21.5 -49t-51.5 -16h-97l-17 42l111 -3q37 -1 37 29v430h-309v37
h638zM322 820q-30 -93 -87 -233v-667h-38v596q-36 -87 -118 -204l-32 22q148 203 242 503z" />
    <glyph glyph-name="uni502E" unicode="&#xe5cb;" 
d="M947 37l-28 -29q-224 143 -304 291h-2v-363h-38v366h-2q-37 -65 -127 -153.5t-187 -155.5q-16 11 -30 29q108 75 177 138t122 142h-276v37h322v102h-225v356h488v-356h-224v-102h323v-37h-278q75 -130 289 -265zM282 835q-8 -28 -21.5 -68.5t-30 -85.5t-20.5 -58v-689
h-39v607q-13 -30 -51 -97t-61 -101l-31 29q54 72 118 202t102 275q9 -2 34 -14zM798 643v117h-185v-117h185zM798 479v129h-185v-129h185zM574 644v116h-184v-116h184zM574 479v129h-184v-129h184z" />
    </font>
</defs>
</svg>
