<svg id="圖層_1" data-name="圖層 1" xmlns="http://www.w3.org/2000/svg" viewBox="0 0 150 150"><defs><style>.cls-1{fill:#ff3547;}</style></defs><title>selection</title><path class="cls-1" d="M269,70.14h-8v2h8v-2Zm-15,0h-8v2h8v-2Zm-15,0h-8v2h8v-2Zm-15,0h-8v2h8v-2Zm-15,0h-8v2h8v-2Zm-15,0h-8v2h8v-2Zm-15,0h-8v2h8v-2Zm-15,0h-8v2h8v-2Zm-15,0h-8v2h8v-2Zm-15,0h-8v2h8v-2Zm-13,0h-2v8h2v-8Zm0,15h-2v8h2v-8Zm0,15h-2v8h2v-8Zm0,15h-2v8h2v-8Zm0,15h-2v8h2v-8Zm0,15h-2v8h2v-8Zm0,15h-2v8h2v-8Zm0,15h-2v8h2v-8Zm0,15h-2v8h2v-8Zm0,15h-2v8h2v-8Zm6,13h-8v2h8v-2Zm15,0h-8v2h8v-2Zm15,0h-8v2h8v-2Zm15,0h-8v2h8v-2Zm15,0h-8v2h8v-2Zm15,0h-8v2h8v-2Zm15,0h-8v2h8v-2Zm15,0h-8v2h8v-2Zm15,0h-8v2h8v-2Zm15,0h-8v2h8v-2Zm7-6h-2v8h2v-8Zm0-15h-2v8h2v-8Zm0-15h-2v8h2v-8Zm0-15h-2v8h2v-8Zm0-15h-2v8h2v-8Zm0-15h-2v8h2v-8Zm0-15h-2v8h2v-8Zm0-15h-2v8h2v-8Zm0-15h-2v8h2v-8Zm0-15h-2v8h2v-8Z" transform="translate(-119 -70.14)"/></svg>