<?xml version="1.0" encoding="utf-8"?>
<!-- Generator: Adobe Illustrator 19.0.1, SVG Export Plug-In . SVG Version: 6.00 Build 0)  -->
<svg version="1.1" id="_x30_1" xmlns="http://www.w3.org/2000/svg" xmlns:xlink="http://www.w3.org/1999/xlink" x="0px" y="0px"
	 viewBox="0 0 130 130" style="enable-background:new 0 0 130 130;" xml:space="preserve">
<style type="text/css">
	.st0{fill:none;stroke:#BE1622;stroke-width:3.2;stroke-linecap:round;stroke-linejoin:round;stroke-miterlimit:10;}
	.st1{fill:#BE1622;}
</style>
<g>
	<path class="st0" d="M117,125H13c-4.4,0-8-3.6-8-8V13c0-4.4,3.6-8,8-8h104c4.4,0,8,3.6,8,8v104C125,121.4,121.4,125,117,125z"/>
	<g>
		<g>
			<path class="st1" d="M100.7,78.7c-0.6-1.7-1.9-3-3.6-3.6c-1.7-0.6-3.5-0.4-5.1,0.5l-14.8,8.9l-2,0.9H64.5c-0.1,0-0.2-0.1-0.2-0.1
				c0-0.1-0.1-0.2,0-0.3c0-0.1,0.1-0.1,0.2-0.1l8.1-2.9c3.1-1.1,4.9-4.3,4.1-7.3c-0.4-1.6-1.5-2.9-2.9-3.7c-1.4-0.8-3.1-0.9-4.7-0.4
				l-8.4,2.8l-22,1.5c-1.4,0.1-2.8,0.7-3.8,1.7L22.9,88.4c-2.3,2.3-2.5,5.9-0.5,8.3c0.5,0.6,2.8,2.8,6.3,6.1c2,1.9,3.9,3.7,4.8,4.6
				c0.3,0.3,0.6,0.4,1,0.4c0.3,0,0.6-0.1,0.9-0.3l6.6-5.5c1.4-1.1,3.1-1.8,4.9-1.8h22.5c0.8,0,1.6-0.2,2.4-0.5l10.6-4.5
				c0,0,0.1,0,0.1,0l0.5-0.3c0,0,0.1,0,0.1,0l15-9C100.5,84.4,101.7,81.4,100.7,78.7L100.7,78.7z M96.5,83.5l-15,9l-0.5,0.2
				l-10.6,4.5c-0.4,0.2-0.8,0.3-1.2,0.3H46.9c-2.5,0-4.8,0.9-6.7,2.4l-5.6,4.6c-1-1-2.4-2.4-3.9-3.8c-2.5-2.4-5.6-5.4-6.1-5.9
				c-1-1.2-0.9-3.2,0.3-4.4l11.9-11.9c0.5-0.5,1.2-0.9,2-0.9L61,76.1c0.1,0,0.2,0,0.4-0.1l8.5-2.8c0.3-0.1,0.7-0.2,1-0.2
				c0.5,0,1,0.1,1.5,0.4c0.8,0.4,1.3,1.1,1.5,1.9c0.4,1.6-0.6,3.3-2.3,3.9c0,0,0,0,0,0l-8.1,2.9c-0.8,0.3-1.4,0.8-1.8,1.6
				c-0.5,1-0.4,2.1,0.2,3c0.6,0.9,1.6,1.5,2.7,1.5h11c0.2,0,0.4,0,0.6-0.1l2.4-1c0.1,0,0.1-0.1,0.2-0.1L93.5,78
				c0.8-0.5,1.8-0.6,2.6-0.3c0.9,0.3,1.6,1,1.9,1.9C98.5,81,97.9,82.7,96.5,83.5L96.5,83.5z M96.5,83.5"/>
		</g>
		<path class="st1" d="M72.4,65.5C84.9,65.5,95,55.3,95,42.8c0-12.5-10.2-22.6-22.6-22.6S49.8,30.4,49.8,42.8
			C49.8,55.3,59.9,65.5,72.4,65.5L72.4,65.5z M72.4,23c10.9,0,19.8,8.9,19.8,19.8c0,10.9-8.9,19.8-19.8,19.8
			c-10.9,0-19.8-8.9-19.8-19.8C52.6,31.9,61.5,23,72.4,23L72.4,23z M72.4,23"/>
		<path class="st1" d="M64.7,48.1c0-0.8-0.6-1.4-1.4-1.4c-0.8,0-1.4,0.6-1.4,1.4c0,2.7,2.5,5.1,6.1,6.1v0.7c0,0.8,0.6,1.4,1.4,1.4
			c0.8,0,1.4-0.6,1.4-1.4v-0.2c0.5,0,1.1,0.1,1.6,0.1c0.5,0,1.1,0,1.6-0.1v0.2c0,0.8,0.6,1.4,1.4,1.4c0.8,0,1.4-0.6,1.4-1.4v-0.7
			c3.6-1.1,6.1-3.4,6.1-6.1c0-2.7-2.5-5.1-6.1-6.1v-7.6c2,0.8,3.2,2,3.2,3.1c0,0.8,0.6,1.4,1.4,1.4c0.8,0,1.4-0.6,1.4-1.4
			c0-2.7-2.5-5.1-6.1-6.1v-0.7c0-0.8-0.6-1.4-1.4-1.4c-0.8,0-1.4,0.6-1.4,1.4v0.2c-0.5,0-1.1-0.1-1.6-0.1c-0.5,0-1.1,0-1.6,0.1v-0.2
			c0-0.8-0.6-1.4-1.4-1.4c-0.8,0-1.4,0.6-1.4,1.4v0.7c-3.6,1.1-6.1,3.4-6.1,6.1c0,2.7,2.5,5.1,6.1,6.1v7.6
			C66,50.5,64.7,49.3,64.7,48.1L64.7,48.1z M76.9,45c2,0.8,3.2,2,3.2,3.1c0,1.1-1.2,2.4-3.2,3.1V45z M70.8,33.7
			c0.5-0.1,1.1-0.1,1.6-0.1c0.6,0,1.1,0,1.6,0.1v7.7c-0.5,0-1.1-0.1-1.6-0.1c-0.6,0-1.1,0-1.6-0.1V33.7z M70.8,44.2
			c0.5,0,1.1,0.1,1.6,0.1c0.6,0,1.1,0,1.6,0.1v7.6C73.5,52,73,52,72.4,52c-0.6,0-1.1,0-1.6-0.1V44.2z M64.7,37.5
			c0-1.1,1.2-2.4,3.2-3.1v6.2C66,39.9,64.7,38.7,64.7,37.5L64.7,37.5z M64.7,37.5"/>
	</g>
</g>
</svg>
