<?xml version="1.0" encoding="utf-8"?>
<!-- Generator: Adobe Illustrator 19.0.1, SVG Export Plug-In . SVG Version: 6.00 Build 0)  -->
<svg version="1.1" id="_x30_2" xmlns="http://www.w3.org/2000/svg" xmlns:xlink="http://www.w3.org/1999/xlink" x="0px" y="0px"
	 viewBox="0 0 130 130" style="enable-background:new 0 0 130 130;" xml:space="preserve">
<style type="text/css">
	.st0{fill:none;stroke:#BE1622;stroke-width:3.2;stroke-linecap:round;stroke-linejoin:round;stroke-miterlimit:10;}
	.st1{fill:#BE1622;}
</style>
<g>
	<path class="st0" d="M117,125H13c-4.4,0-8-3.6-8-8V13c0-4.4,3.6-8,8-8h104c4.4,0,8,3.6,8,8v104C125,121.4,121.4,125,117,125z"/>
	<g>
		<path class="st1" d="M108.3,51.8L90.1,33.5c-1-1-2.3-1.5-3.7-1.5c-1.4,0-2.7,0.5-3.7,1.5l-4.3,4.3c-0.5,0.5-1,1.2-1.2,1.9
			c-0.1,0.4-0.6,0.6-1,0.6l-20.1-3.6c0,0,0,0-0.1,0c-8.6-1.7-16.9,3.9-18.6,12.4l-0.9,4.6c-0.9,4.6,2.1,9.1,6.7,10
			c4.6,0.9,9.1-2.1,10-6.7l0.6-2.8c0.1-0.4,0.5-0.8,0.9-0.7l9,0.8c0.2,0,0.4,0.1,0.5,0.3L92,82.4c1.2,1.2,1.2,3.2,0,4.4
			c-1.2,1.2-3.2,1.2-4.4,0L76.2,75.4c-0.4-0.4-1.2-0.4-1.6,0c-0.4,0.4-0.4,1.2,0,1.6L86,88.5c0.6,0.6,0.9,1.4,0.9,2.2
			c0,0.8-0.3,1.6-0.9,2.2c-1.2,1.2-3.2,1.2-4.4,0L70.2,81.4c-0.4-0.4-1.2-0.4-1.6,0c-0.5,0.5-0.5,1.2,0,1.6L80,94.5
			c0.6,0.6,0.9,1.4,0.9,2.2s-0.3,1.6-0.9,2.2c-1.2,1.2-3.2,1.2-4.4,0L64.2,87.4c-0.4-0.4-1.2-0.4-1.6,0c-0.2,0.2-0.3,0.5-0.3,0.8
			c0,0.3,0.1,0.6,0.3,0.8L74,100.5c1.2,1.2,1.2,2.8,0,4c-0.6,0.6-1.4,0.5-2.2,0.5c0,0,0,0,0,0c-0.8,0-1.6,0.1-2.2-0.5L23.8,58.9
			c-0.4-0.4-1.2-0.3-1.6,0.1c-0.2,0.2-0.3,0.6-0.3,0.9c0,0.3,0.1,0.6,0.3,0.8l11.1,11.2c0.3,0.3,0.3,0.9,0,1.3l-3.2,3.2
			c-0.9,0.9-1.4,2.1-1.4,3.3c0,1.2,0.5,2.4,1.4,3.3l1,1c0.8,0.8,1.8,1.2,2.8,1.3c0.4,0,0.8,0.4,0.8,0.8c0.1,1.1,0.6,2.1,1.3,2.8l1,1
			c0.8,0.8,1.8,1.2,2.8,1.3c0.4,0,0.8,0.4,0.8,0.8c0.1,1.1,0.6,2.1,1.3,2.8l1,1c0.8,0.8,1.8,1.2,2.8,1.3c0.4,0,0.8,0.4,0.8,0.8
			c0.1,1.1,0.6,2.1,1.3,2.8l1,1c0.9,0.9,2.1,1.4,3.3,1.4c1.2,0,2.4-0.5,3.3-1.4l3.2-3.2c0.2-0.2,0.4-0.3,0.6-0.3s0.5,0.1,0.6,0.3
			l7.7,7.7c1,1,2.4,1.6,3.8,1.6c1.4,0,2.8-0.6,3.8-1.6c1-1,1.5-2.2,1.6-3.6c0-0.5,0.4-0.8,0.8-0.8c1.4-0.1,2.6-0.6,3.6-1.6
			c1-1,1.5-2.2,1.6-3.6c0-0.5,0.4-0.8,0.8-0.8c1.4-0.1,2.6-0.6,3.6-1.6c1-1,1.5-2.2,1.6-3.6c0-0.5,0.4-0.8,0.8-0.8
			c1.4-0.1,2.6-0.6,3.6-1.6c2.1-2.1,2.1-5.5,0-7.6L90.8,78c-0.2-0.2-0.3-0.4-0.3-0.6s0.1-0.5,0.3-0.6l17.5-17.5
			C110.4,57.2,110.4,53.9,108.3,51.8z M34.5,83c-0.6,0-1.2-0.2-1.7-0.7l-1-1c-0.4-0.4-0.7-1-0.7-1.7c0-0.6,0.2-1.2,0.7-1.7l3-3
			c0.3-0.3,0.9-0.3,1.3,0l3.1,3.1c0.2,0.2,0.3,0.4,0.3,0.6s-0.1,0.5-0.3,0.6l-3,3C35.7,82.8,35.1,83,34.5,83z M40.5,89.1
			c-0.6,0-1.2-0.2-1.7-0.7l-1-1c-0.4-0.4-0.7-1-0.7-1.7c0-0.6,0.2-1.2,0.7-1.7l3-3c0.3-0.3,0.9-0.3,1.3,0l3.1,3.1
			c0.3,0.3,0.3,0.9,0,1.3l-3,3C41.7,88.8,41.1,89.1,40.5,89.1z M48.2,94.4c-0.5,0.5-1.1,0.7-1.7,0.7s-1.2-0.2-1.7-0.7l-1-1
			c-0.4-0.4-0.7-1-0.7-1.7c0-0.6,0.2-1.2,0.7-1.7l3-3c0.3-0.3,0.9-0.3,1.3,0l3.1,3.1c0.3,0.3,0.3,0.9,0,1.3L48.2,94.4z M57.2,97.4
			l-3,3c-0.5,0.5-1.1,0.7-1.7,0.7c-0.6,0-1.2-0.2-1.7-0.7l-1-1c-0.4-0.4-0.7-1-0.7-1.7c0-0.6,0.2-1.2,0.7-1.7l3-3
			c0.2-0.2,0.4-0.3,0.6-0.3c0.2,0,0.5,0.1,0.6,0.3l3.1,3.1c0.2,0.2,0.3,0.4,0.3,0.6C57.5,97,57.4,97.2,57.2,97.4z M98.1,66.2
			l-8.9,8.9c-0.2,0.2-0.4,0.3-0.6,0.3c-0.2,0-0.5-0.1-0.6-0.3L65.3,52.5c-0.2-0.2-0.4-0.3-0.7-0.3l-11.7-1c-0.5,0-1,0.4-1.1,0.9
			l-0.9,4.6c-0.3,1.6-1.3,3-2.6,3.9c-1.4,0.9-3,1.2-4.7,0.9c-1.6-0.3-3-1.3-3.9-2.6c-0.9-1.4-1.2-3-0.9-4.7l0.9-4.6
			c1.5-7.3,8.6-12.1,16-10.6l19.8,3.5c0.2,0,0.3,0.1,0.5,0.2L98.1,65c0.2,0.2,0.3,0.4,0.3,0.6S98.3,66,98.1,66.2z M106.7,57.6
			L106.7,57.6l-5.7,5.7c-0.2,0.2-0.4,0.3-0.6,0.3c-0.2,0-0.5-0.1-0.6-0.3L80,43.6c-0.6-0.6-0.9-1.3-0.9-2.1c0-0.8,0.3-1.5,0.9-2.1
			l4.3-4.3c1.1-1.1,3-1.1,4.1,0l18.3,18.3c0.6,0.6,0.9,1.3,0.9,2.1C107.6,56.3,107.3,57,106.7,57.6z"/>
		<circle class="st1" cx="101.2" cy="56.3" r="2"/>
	</g>
</g>
</svg>
