<?xml version="1.0" encoding="utf-8"?>
<!-- Generator: Adobe Illustrator 19.0.1, SVG Export Plug-In . SVG Version: 6.00 Build 0)  -->
<svg version="1.1" id="_x30_3" xmlns="http://www.w3.org/2000/svg" xmlns:xlink="http://www.w3.org/1999/xlink" x="0px" y="0px"
	 viewBox="0 0 130 130" style="enable-background:new 0 0 130 130;" xml:space="preserve">
<style type="text/css">
	.st0{fill:none;stroke:#BE1622;stroke-width:3.2;stroke-linecap:round;stroke-linejoin:round;stroke-miterlimit:10;}
	.st1{fill:#BE1622;}
</style>
<g>
	<path class="st0" d="M117,125H13c-4.4,0-8-3.6-8-8V13c0-4.4,3.6-8,8-8h104c4.4,0,8,3.6,8,8v104C125,121.4,121.4,125,117,125z"/>
	<g>
		<g>
			<path class="st1" d="M82.3,27.5c-1.2-0.7-2.7-0.8-4-0.1L22.4,56.6C21.5,57,21,57.9,21,58.9v12.1c0,1,0.5,1.9,1.4,2.4l12.4,6.5
				c0,0.1,0,0.2,0,0.3v7.6c0,2.5,1.4,4.9,3.7,6l15.8,8.3c0.8,0.4,1.7,0.6,2.5,0.6c1,0,1.9-0.3,2.8-0.8c1.6-1,2.6-2.7,2.6-4.6v-3
				l16.1,8.4c0.6,0.3,1.2,0.5,1.9,0.5c0.7,0,1.4-0.2,2.1-0.6c1.2-0.7,2-2,2-3.5V31C84.2,29.5,83.5,28.2,82.3,27.5L82.3,27.5z
				 M59.6,97.2c0,1-0.5,1.9-1.4,2.4c-0.9,0.5-1.9,0.6-2.8,0.1l-15.8-8.3c-1.4-0.7-2.3-2.2-2.3-3.7v-6.5l22.2,11.6V97.2z M81.6,99
				c0,0.5-0.3,1-0.7,1.3c-0.4,0.3-1,0.3-1.4,0L23.6,71.1c0,0,0,0,0-0.1V58.9c0,0,0-0.1,0-0.1l55.9-29.2c0.2-0.1,0.4-0.2,0.7-0.2
				c0.3,0,0.5,0.1,0.8,0.2c0.4,0.3,0.7,0.7,0.7,1.3V99z M81.6,99"/>
		</g>
		<path class="st1" d="M91.6,56.3c-0.5-0.5-1.3-0.5-1.8,0c-0.5,0.5-0.5,1.3,0,1.8c3.8,3.8,3.8,10,0,13.8c-0.5,0.5-0.5,1.3,0,1.8
			c0.3,0.3,0.6,0.4,0.9,0.4c0.3,0,0.7-0.1,0.9-0.4C96.4,68.9,96.4,61.1,91.6,56.3L91.6,56.3z M91.6,56.3"/>
		<path class="st1" d="M96.5,51.4c-0.5-0.5-1.3-0.5-1.8,0c-0.5,0.5-0.5,1.3,0,1.8c3.1,3.1,4.9,7.3,4.9,11.8s-1.7,8.6-4.9,11.8
			c-0.5,0.5-0.5,1.3,0,1.8c0.3,0.3,0.6,0.4,0.9,0.4s0.7-0.1,0.9-0.4c3.6-3.6,5.6-8.5,5.6-13.6S100.1,55,96.5,51.4L96.5,51.4z
			 M96.5,51.4"/>
		<path class="st1" d="M101.4,46.5c-0.5-0.5-1.3-0.5-1.8,0c-0.5,0.5-0.5,1.3,0,1.8c9.2,9.2,9.2,24.1,0,33.2c-0.5,0.5-0.5,1.3,0,1.8
			c0.3,0.3,0.6,0.4,0.9,0.4c0.3,0,0.7-0.1,0.9-0.4C111.5,73.3,111.5,56.7,101.4,46.5L101.4,46.5z M101.4,46.5"/>
		<path class="st1" d="M68.5,38.4L50.3,48c-0.6,0.3-0.9,1.1-0.5,1.7c0.2,0.4,0.7,0.7,1.1,0.7c0.2,0,0.4,0,0.6-0.1l18.3-9.6
			c0.6-0.3,0.9-1.1,0.5-1.7C70,38.3,69.2,38.1,68.5,38.4L68.5,38.4z M68.5,38.4"/>
		<path class="st1" d="M76.8,34.1l-2.8,1.4c-0.6,0.3-0.9,1.1-0.5,1.7c0.2,0.4,0.7,0.7,1.1,0.7c0.2,0,0.4,0,0.6-0.1l2.8-1.4
			c0.6-0.3,0.9-1.1,0.5-1.7C78.2,34,77.4,33.7,76.8,34.1L76.8,34.1z M76.8,34.1"/>
	</g>
</g>
</svg>
