<?xml version="1.0" encoding="utf-8"?>
<!-- Generator: Adobe Illustrator 19.0.1, SVG Export Plug-In . SVG Version: 6.00 Build 0)  -->
<svg version="1.1" id="_x30_4" xmlns="http://www.w3.org/2000/svg" xmlns:xlink="http://www.w3.org/1999/xlink" x="0px" y="0px"
	 viewBox="0 0 130 130" style="enable-background:new 0 0 130 130;" xml:space="preserve">
<style type="text/css">
	.st0{fill:none;stroke:#BE1622;stroke-width:3.2;stroke-linecap:round;stroke-linejoin:round;stroke-miterlimit:10;}
	.st1{fill:none;stroke:#BE1622;stroke-width:2.5;stroke-miterlimit:10;}
	.st2{fill:#BE1622;}
</style>
<g>
	<path class="st0" d="M117,125H13c-4.4,0-8-3.6-8-8V13c0-4.4,3.6-8,8-8h104c4.4,0,8,3.6,8,8v104C125,121.4,121.4,125,117,125z"/>
	<path class="st1" d="M101.4,65.1l6.6-6.8c0.8-0.8,1.2-2,0.9-3.2c-0.3-1.2-1.1-2.1-2.2-2.5l-8.9-3.3l3-9c0.4-1.1,0.2-2.4-0.6-3.3
		c-0.7-0.9-1.9-1.4-3.1-1.3l-9.4,0.9l-1.2-9.4c-0.1-1.2-0.9-2.2-1.9-2.7c-1.1-0.5-2.3-0.5-3.3,0.2l-8.2,4.9l-5.2-8
		c-0.6-1-1.7-1.6-2.9-1.6c-1.2,0-2.3,0.6-2.9,1.6l-5.2,8l-8.1-4.9c-1-0.6-2.3-0.7-3.3-0.2c-1.1,0.5-1.8,1.5-1.9,2.7l-1.2,9.4
		l-9.4-0.9c-1.2-0.1-2.3,0.4-3.1,1.3c-0.7,0.9-1,2.2-0.6,3.3l3,9l-8.9,3.3c-1.1,0.4-1.9,1.3-2.2,2.5c-0.3,1.2,0.1,2.4,0.9,3.2
		l6.6,6.8L22,71.8c-0.8,0.8-1.2,2.1-0.9,3.2c0.3,1.2,1.1,2.1,2.2,2.5l8.9,3.3l-3,9c-0.4,1.1-0.2,2.4,0.6,3.3
		c0.7,0.9,1.9,1.4,3.1,1.3l9.4-0.9l1.2,9.4c0.1,1.2,0.9,2.2,1.9,2.7c1.1,0.5,2.3,0.5,3.3-0.2l8.1-4.9l5.2,8c0.6,1,1.7,1.6,2.9,1.6h0
		c1.2,0,2.3-0.6,2.9-1.6l5.2-7.9l8.1,4.9c1,0.6,2.3,0.7,3.3,0.2c1.1-0.5,1.8-1.5,2-2.7l1.2-9.4l9.4,0.9c1.2,0.1,2.3-0.4,3.1-1.3
		c0.7-0.9,1-2.2,0.6-3.3l-3-9l8.9-3.2c1.1-0.4,1.9-1.3,2.2-2.5c0.3-1.1-0.1-2.4-0.9-3.2L101.4,65.1z"/>
	<g>
		<path class="st2" d="M46.9,58.9h-6.3v4h5.3c0.5,0,0.9,0.1,1.1,0.3c0.2,0.2,0.4,0.5,0.4,0.9S47.2,64.8,47,65s-0.6,0.3-1.1,0.3h-5.3
			v5.2c0,0.7-0.1,1.1-0.4,1.5c-0.3,0.3-0.7,0.5-1.1,0.5c-0.5,0-0.9-0.2-1.2-0.5c-0.3-0.3-0.4-0.8-0.4-1.5V58.4
			c0-0.5,0.1-0.8,0.2-1.1s0.3-0.5,0.6-0.6c0.3-0.1,0.7-0.2,1.1-0.2h7.5c0.5,0,0.9,0.1,1.1,0.3c0.2,0.2,0.4,0.5,0.4,0.9
			c0,0.4-0.1,0.7-0.4,0.9C47.8,58.8,47.4,58.9,46.9,58.9z"/>
		<path class="st2" d="M55.1,65.4h-1.1v5.1c0,0.7-0.1,1.2-0.4,1.5s-0.7,0.5-1.1,0.5c-0.5,0-0.9-0.2-1.2-0.5s-0.4-0.8-0.4-1.5V58.4
			c0-0.7,0.2-1.2,0.5-1.5c0.3-0.3,0.8-0.5,1.5-0.5h5.2c0.7,0,1.3,0,1.8,0.1c0.5,0.1,1,0.2,1.4,0.4c0.5,0.2,0.9,0.5,1.3,0.9
			s0.7,0.8,0.9,1.3c0.2,0.5,0.3,1.1,0.3,1.6c0,1.2-0.3,2.1-1,2.8c-0.7,0.7-1.7,1.2-3,1.5c0.6,0.3,1.1,0.7,1.6,1.3
			c0.5,0.6,1,1.2,1.4,1.9c0.4,0.7,0.7,1.3,0.9,1.8c0.2,0.5,0.3,0.9,0.3,1.1c0,0.2-0.1,0.4-0.2,0.6c-0.1,0.2-0.3,0.4-0.5,0.5
			s-0.5,0.2-0.8,0.2c-0.4,0-0.7-0.1-0.9-0.3s-0.5-0.4-0.6-0.6c-0.2-0.3-0.4-0.6-0.7-1.1l-1.3-2.1c-0.5-0.8-0.9-1.4-1.2-1.8
			c-0.4-0.4-0.7-0.7-1.1-0.8S55.6,65.4,55.1,65.4z M56.9,58.8h-2.9v4.3h2.9c0.8,0,1.4-0.1,1.9-0.2c0.5-0.1,0.9-0.4,1.2-0.7
			c0.3-0.3,0.4-0.8,0.4-1.3c0-0.4-0.1-0.8-0.3-1.2s-0.5-0.6-0.9-0.7C58.7,58.9,58,58.8,56.9,58.8z"/>
		<path class="st2" d="M77,58.9h-7.2v3.9h6.6c0.5,0,0.9,0.1,1.1,0.3c0.2,0.2,0.4,0.5,0.4,0.9c0,0.4-0.1,0.6-0.4,0.9
			s-0.6,0.3-1.1,0.3h-6.6v4.5h7.4c0.5,0,0.9,0.1,1.1,0.3c0.3,0.2,0.4,0.5,0.4,0.9c0,0.4-0.1,0.7-0.4,0.9c-0.3,0.2-0.6,0.3-1.1,0.3
			h-8.7c-0.7,0-1.2-0.2-1.5-0.5c-0.3-0.3-0.5-0.8-0.5-1.5V58.4c0-0.5,0.1-0.8,0.2-1.1s0.3-0.5,0.6-0.6c0.3-0.1,0.7-0.2,1.1-0.2H77
			c0.5,0,0.9,0.1,1.1,0.3c0.2,0.2,0.4,0.5,0.4,0.9c0,0.4-0.1,0.7-0.4,0.9C77.9,58.8,77.5,58.9,77,58.9z"/>
		<path class="st2" d="M91.7,58.9h-7.2v3.9h6.6c0.5,0,0.9,0.1,1.1,0.3c0.2,0.2,0.4,0.5,0.4,0.9c0,0.4-0.1,0.6-0.4,0.9
			s-0.6,0.3-1.1,0.3h-6.6v4.5h7.4c0.5,0,0.9,0.1,1.1,0.3c0.3,0.2,0.4,0.5,0.4,0.9c0,0.4-0.1,0.7-0.4,0.9c-0.3,0.2-0.6,0.3-1.1,0.3
			h-8.7c-0.7,0-1.2-0.2-1.5-0.5c-0.3-0.3-0.5-0.8-0.5-1.5V58.4c0-0.5,0.1-0.8,0.2-1.1s0.3-0.5,0.6-0.6c0.3-0.1,0.7-0.2,1.1-0.2h8.4
			c0.5,0,0.9,0.1,1.1,0.3c0.2,0.2,0.4,0.5,0.4,0.9c0,0.4-0.1,0.7-0.4,0.9C92.5,58.8,92.2,58.9,91.7,58.9z"/>
	</g>
</g>
</svg>
