<svg id="圖層_1" data-name="圖層 1" xmlns="http://www.w3.org/2000/svg" viewBox="0 0 376 376"><defs><style>.cls-1{fill:#e83b47;}</style></defs><title>money</title><path class="cls-1" d="M198,174.9H170.08a21,21,0,1,1,0-42.08h49.28a9.6,9.6,0,1,0,0-19.2H193.68V94a9.6,9.6,0,0,0-19.2,0v19.6h-4.4a40.24,40.24,0,0,0,0,80.48H198a21,21,0,1,1,0,42.08H147.84a9.6,9.6,0,1,0,0,19.2H174.4v20a9.6,9.6,0,0,0,19.2,0v-20h4.88A40.24,40.24,0,0,0,198,174.9Zm0,0" transform="translate(4 3.5)"/><path class="cls-1" d="M317,51.54A188,188,0,0,0,51,317.46,188,188,0,0,0,317,51.54ZM184,353.3c-93,0-168.8-75.76-168.8-168.8S91,15.7,184,15.7,352.8,91.46,352.8,184.5,277,353.3,184,353.3Zm0,0" transform="translate(4 3.5)"/></svg>